<svg xmlns="http://www.w3.org/2000/svg" viewBox="0 0 866.05 875.87"><defs><style>.cls-1{fill:#d3bdaf;}.cls-2{fill:#998b72;}.cls-3{fill:#b8a498;}.cls-4{fill:#86b877;}.cls-5{fill:#005c04;}.cls-6{fill:#ffdea6;}.cls-7{fill:#dec190;}.cls-8{fill:#806f51;}.cls-9{fill:#6e5f45;}.cls-10{fill:#b6b4c2;}.cls-11{fill:#c7e4eb;}.cls-12{fill:#b7e1eb;}.cls-13{fill:#494949;}.cls-14{fill:#fff;}.cls-15{fill:#dff4f7;}</style></defs><g id="圖層_2" data-name="圖層 2"><g id="Layer_1" data-name="Layer 1"><path class="cls-1" d="M538.46,85a1108,1108,0,0,0-112.12,5.42A113.19,113.19,0,0,1,432,72,114.68,114.68,0,0,1,650.58,90.44,1107.7,1107.7,0,0,0,538.46,85Z"/><path class="cls-2" d="M427,87.56A113.43,113.43,0,0,1,432,72c25.63-7.11,63.83-11.61,106.49-11.61S619.33,64.91,645,72a113.39,113.39,0,0,1,5,15.54Z"/><path class="cls-3" d="M538.46,0a94.54,94.54,0,0,1,17.3,11.56c2.64,2.22,5.19,4.54,7.59,7,1.16,1.26,2.37,2.48,3.54,3.73l3.28,4,.83,1,.76,1,1.51,2.08,1.52,2.09c.53.68.91,1.46,1.39,2.17L578.94,39l2.44,4.56,1.24,2.28c.42.76.7,1.58,1.08,2.36l2.16,4.74.55,1.19.45,1.22.92,2.45c.62,1.64,1.28,3.27,2,4.91-.31-1.73-.63-3.46-1-5.19l-.55-2.6-.29-1.3-.38-1.26a81.29,81.29,0,0,0-3.61-10c-.72-1.62-1.42-3.27-2.22-4.86l-2.63-4.65a42.55,42.55,0,0,0-2.93-4.48l-1.54-2.19-.77-1.1L573,24a76.24,76.24,0,0,0-15.5-14.68A59.72,59.72,0,0,0,538.46,0Z"/><path class="cls-3" d="M538.46,0a59.67,59.67,0,0,0-19,9.35A76,76,0,0,0,504,24l-.85,1-.78,1.1-1.54,2.19a42.46,42.46,0,0,0-2.92,4.48l-2.64,4.65c-.8,1.59-1.49,3.24-2.21,4.86a78.14,78.14,0,0,0-3.61,10L489,53.61l-.28,1.3-.55,2.6q-.54,2.6-1,5.19c.68-1.64,1.33-3.27,1.95-4.91l.92-2.45.45-1.22.56-1.19,2.15-4.74c.38-.78.66-1.6,1.09-2.36l1.23-2.28L498,39l2.76-4.36c.48-.71.86-1.49,1.39-2.17l1.51-2.09,1.51-2.08.76-1,.84-1,3.27-4c1.18-1.25,2.38-2.47,3.55-3.74,2.4-2.45,4.94-4.77,7.58-7A94.54,94.54,0,0,1,538.46,0Z"/><path class="cls-1" d="M538.46,103.32c-60,0-115.08,3.55-158.08,9.46C384.13,90.08,453.47,72,538.46,72s154.32,18.08,158.08,40.78C653.54,106.87,598.48,103.32,538.46,103.32Z"/><path class="cls-4" d="M572.07,711.79V827.28c0,23.83.5,48.59-51.34,48.59-54.28,0-54.09-31.17-54.09-60.51s12.92-97,12.92-97Z"/><path class="cls-5" d="M287.87,614.58l-42.81-26.24a10.17,10.17,0,0,0-15.45,7.8l-5,57.86Z"/><path class="cls-5" d="M209,661.34l-32.11-23.13a10.16,10.16,0,0,0-16,6.87l-6,43.6Z"/><path class="cls-5" d="M126.52,688.68l-23.22-30.2A10.17,10.17,0,0,0,86.19,660L71.51,688.68Z"/><path class="cls-5" d="M47.67,677.05l-7.58-16.17A10.17,10.17,0,0,0,22.82,659l-6.32,8.21Z"/><path class="cls-5" d="M427.68,149.77H389a20,20,0,0,0-16.91,30.77l23.54,37.07Z"/><path class="cls-5" d="M390.09,234.84l-48.28,3.5a20,20,0,0,0-17,27.72l27.27,65.05Z"/><path class="cls-5" d="M308,453.19l-48.25,13.23A20,20,0,0,0,249.21,498L286,545.82Z"/><path class="cls-4" d="M264,577.92C265,709,338.28,768.3,444.63,768.3s173.28-54.7,185.2-175.7-26.6-162.28-33.92-220c-1.18-9.35-2.08-17.7-2.75-25.13-3.35-37.05-1.1-51.25-.95-52.27l0,0c52.25,9.15,123.78,15.12,165.95,8.7s33.93-46.75,33.93-46.75c-117.35-13.75-144.88-55.93-144.88-55.93,109.1,26.58,210.88,12.83,216.3-10.07s2.83-69.7-15.5-69.7-26.6,15.6-26.6,15.6-1.82-20.83-22.92-20.83S772.83,137,772.83,137l-125.6-9.18c0-32.9-18.67-59.57-41.7-59.57-15.95,0-29.82,12.77-36.82,31.57-28.55-7-50.45-4.52-63.53-1.4-7.15-18-20.7-30.17-36.25-30.17-19,0-35.1,18.22-40.05,43.05a.1.1,0,0,0,0,.07s0,0,0,.08l0,0c-4.58,11.2-36.35,75.85-70.83,156.15-7.92,18.48-16,37.78-23.87,57.45C297.11,417,263.61,516.9,264,577.92Z"/><path class="cls-4" d="M593.16,347.42s40.54,39.44,85.55,52.13,76.91,2.26,70.36,49.13-58,74.38-174.93,30.28Z"/><path class="cls-4" d="M270.51,606.56s-68.74,51-118.32,61.2C110,676.47,56.84,682.43,0,655.84c0,0,59.59,193.53,342.88,78.37Z"/><ellipse cx="849.86" cy="145.65" rx="6.42" ry="14.21"/><ellipse cx="803.61" cy="145.65" rx="6.42" ry="14.21"/><circle cx="609.2" cy="108.52" r="19.71"/><circle cx="468.94" cy="108.52" r="19.71"/><path class="cls-6" d="M352.05,556c0-113.45,67.86-243.13,138.28-243.13s116.73,113.52,116.73,227S560.75,723.68,490.33,723.68,352.05,669.41,352.05,556Z"/><path class="cls-7" d="M547.73,417.74c15,0,24.23-.54,24.5-.56a2.5,2.5,0,0,0-.31-5c-.78.05-79.32,4.61-151.43-13.41a2.5,2.5,0,1,0-1.21,4.85C467.48,415.68,518.48,417.74,547.73,417.74Z"/><path class="cls-7" d="M510.13,506.37c46.32,0,79.22-5.43,79.78-5.52a2.5,2.5,0,0,0-.83-4.94c-1,.17-97.82,16.13-193.35-7.29a2.5,2.5,0,1,0-1.19,4.86C435.3,503.47,476.3,506.37,510.13,506.37Z"/><path class="cls-7" d="M497.51,599.87a639.4,639.4,0,0,0,83.19-5.5,2.5,2.5,0,0,0-.74-5c-1,.16-104.83,15.26-176.8-5.43a2.5,2.5,0,1,0-1.38,4.8C431.47,597.33,466.42,599.87,497.51,599.87Z"/><path class="cls-7" d="M489.67,679.49c40.63,0,67.17-8.08,67.56-8.2a2.5,2.5,0,0,0-1.49-4.78c-.57.19-59,17.91-135.28,0a2.5,2.5,0,0,0-1.15,4.87A307.81,307.81,0,0,0,489.67,679.49Z"/><path class="cls-4" d="M433.87,740.07S410,811.29,365.54,848.64c-30.68,25.76-57.3,38.3-94.22-41.83-11.23-24.37,67.05-40.63,84.65-110.9Z"/><path class="cls-8" d="M499.53,303.2s48.48,55.57,93.63,44.22c-3.35-37.05-1.1-51.25-.95-52.27C591.51,295.75,559.68,323.15,499.53,303.2Z"/><path class="cls-8" d="M337,317.85c84.78,44.33,162.54-14.65,162.54-14.65-94.47-1.95-129.45-23.73-141.55-35.63C350.06,286.05,344.87,298.18,337,317.85Z"/><path class="cls-2" d="M503.56,348.39A48.91,48.91,0,0,0,520,371c24.6,18.48,66.3,1.68,66.3,1.68s-2.95-44.9-30.25-59a47.66,47.66,0,0,0-22.1-5.27,62.1,62.1,0,0,0-18.25,2.9,68.8,68.8,0,0,0-15.88,7v0A70.7,70.7,0,0,0,503.56,348.39Z"/><path class="cls-2" d="M405.66,372.69s41.72,16.8,66.3-1.68a48.88,48.88,0,0,0,16.4-22.5,70.53,70.53,0,0,0,3.77-30.15v0a69.24,69.24,0,0,0-16.3-7.2,62.36,62.36,0,0,0-17.8-2.75,47.66,47.66,0,0,0-22.1,5.27C408.61,327.79,405.66,372.69,405.66,372.69Z"/><path class="cls-8" d="M499.83,318.36a70.7,70.7,0,0,0,3.73,30c11.55-2.75,20-11.33,20-21.5,0-6.08-3-11.55-7.82-15.6a68.8,68.8,0,0,0-15.88,7Z"/><path class="cls-8" d="M467.83,326.89c0,10.32,8.7,19,20.53,21.62a70.53,70.53,0,0,0,3.77-30.15v0a69.24,69.24,0,0,0-16.3-7.2C470.88,315.21,467.83,320.76,467.83,326.89Z"/><circle class="cls-2" cx="495.68" cy="325.01" r="24.29"/><path class="cls-8" d="M523.42,325a55.3,55.3,0,0,1,10,1.84,70.38,70.38,0,0,1,9.46,3.35,80.43,80.43,0,0,1,8.92,4.65c2.91,1.72,5.71,3.64,8.59,5.56-1.11-1.32-2.3-2.58-3.52-3.82a44.17,44.17,0,0,0-4-3.36,46.32,46.32,0,0,0-9-5.32,42.73,42.73,0,0,0-10.06-3A28.4,28.4,0,0,0,523.42,325Z"/><path class="cls-8" d="M520,336.59a20.36,20.36,0,0,0,2.51,7.55,33.57,33.57,0,0,0,4.64,6.52,37.49,37.49,0,0,0,6,5.22,31.35,31.35,0,0,0,7,3.68c-1.94-1.82-3.92-3.46-5.8-5.21s-3.7-3.52-5.42-5.38A62.48,62.48,0,0,1,520,336.59Z"/><path class="cls-8" d="M467.83,324.93a42.23,42.23,0,0,0-20.42-.16,32.13,32.13,0,0,0-9.57,4.13,21.89,21.89,0,0,0-6.87,7.69,34.16,34.16,0,0,1,7.88-6,44.94,44.94,0,0,1,9.16-3.38,70.5,70.5,0,0,1,9.76-1.64C461.08,325.24,464.43,325,467.83,324.93Z"/><path class="cls-8" d="M471.39,336.59a62.48,62.48,0,0,1-9,12.38c-1.73,1.86-3.53,3.65-5.42,5.38s-3.86,3.39-5.8,5.21a31.35,31.35,0,0,0,7-3.68,37.49,37.49,0,0,0,6-5.22,33.57,33.57,0,0,0,4.64-6.52A20.36,20.36,0,0,0,471.39,336.59Z"/><path class="cls-2" d="M408.31,601.19a3.79,3.79,0,0,0,1.91-.52c.46-.28,46.55-27.7,92.73-71.78,42.83-40.9,94.55-104.95,97.71-177.84a3.75,3.75,0,0,0-7.5-.32c-5.85,135.1-184.95,242.41-186.76,243.48a3.75,3.75,0,0,0,1.91,7Z"/><path class="cls-2" d="M308,584.39a3.75,3.75,0,0,0,3.23-5.66c-.47-.79-46.27-79.69-25.78-159.55.94-3.68,1.82-7.77,2.75-12.1,2.68-12.53,6-28.12,13.54-46.07a3.75,3.75,0,1,0-6.92-2.89c-7.78,18.59-11.2,34.55-13.95,47.38-.92,4.26-1.78,8.28-2.69,11.82-21.27,82.92,24.63,161.9,26.59,165.23A3.76,3.76,0,0,0,308,584.39Z"/><path class="cls-2" d="M309.07,562.32,295.8,653a18.08,18.08,0,0,0,15.27,20.51l70.11,10.26a18.08,18.08,0,0,0,20.51-15.27L415,577.82a18.09,18.09,0,0,0-15.27-20.5l-70.11-10.27A18.09,18.09,0,0,0,309.07,562.32Z"/><path class="cls-8" d="M309.07,562.32l-3.27,22.34c13.85,6.62,31.89,11.79,51.92,14.72s38.81,3.15,54,.78L415,577.82a18.09,18.09,0,0,0-15.27-20.5l-70.11-10.27A18.09,18.09,0,0,0,309.07,562.32Z"/><path class="cls-8" d="M354.57,620.94h0a8.14,8.14,0,0,1-6.88-9.23l2-13.86a8.15,8.15,0,0,1,16.12,2.36l-2,13.85a8.19,8.19,0,0,1-8.06,7A7.81,7.81,0,0,1,354.57,620.94Zm-.16-26.43a5.61,5.61,0,0,0-2.22,3.71l-2,13.85a5.65,5.65,0,0,0,4.77,6.4h0a5.66,5.66,0,0,0,6.4-4.77l2-13.85a5.64,5.64,0,0,0-8.95-5.34Z"/><path class="cls-9" d="M348.94,611.78a6.89,6.89,0,1,1,5.82,7.82A6.9,6.9,0,0,1,348.94,611.78Z"/><path class="cls-4" d="M334.11,325S273.81,352,228,361.17s-76.86-3.73-74,43.51,75,80,195,45.11Z"/><circle class="cls-10" cx="795.85" cy="355.87" r="51.05" transform="translate(48.19 804.22) rotate(-55.04)"/><path class="cls-11" d="M756.09,339.1a43.17,43.17,0,0,0,8.45,46.45h0a42.26,42.26,0,0,0,13.94,9.78,5.25,5.25,0,0,0,.59.28,43.15,43.15,0,1,0,33.52-79.52,42.22,42.22,0,0,0-9.61-2.79,43,43,0,0,0-30.93,6.56v0A42.83,42.83,0,0,0,756.09,339.1Z"/><path class="cls-12" d="M772.06,319.89v0a42.33,42.33,0,0,1,4-2.34,46.78,46.78,0,0,0-.58,65h0a45.87,45.87,0,0,0,15.13,10.62c.2.11.43.2.64.29a46.84,46.84,0,0,0,15.33,3.61c.62,0,1.23,0,1.85,0a42.58,42.58,0,0,1-29.38-1.45c-.19-.09-.4-.17-.59-.28a42.26,42.26,0,0,1-13.94-9.78h0a43.11,43.11,0,0,1,7.52-65.66Z"/><rect class="cls-10" x="764.7" y="398.27" width="15.33" height="26.63" transform="translate(1324.24 1090.84) rotate(-157.15)"/><path class="cls-13" d="M779.27,424.66l-25.4,60.27c-2.32,5.5-8.39,8.75-14.1,7a11.48,11.48,0,0,1-7.2-15.39l25.61-60.76a4.61,4.61,0,0,1,6-2.46l12.59,5.3A4.61,4.61,0,0,1,779.27,424.66Z"/><path class="cls-14" d="M826,375.62a3.47,3.47,0,0,0,3-1.82,37.84,37.84,0,0,0-1-37.69,3.46,3.46,0,1,0-5.9,3.62,30.93,30.93,0,0,1,.85,30.78,3.46,3.46,0,0,0,1.4,4.69A3.52,3.52,0,0,0,826,375.62Z"/><path class="cls-14" d="M811.86,380.59a5.29,5.29,0,1,1,2.82,6.93A5.3,5.3,0,0,1,811.86,380.59Z"/><path class="cls-15" d="M779.27,327.68a10.11,10.11,0,1,1,5.39,13.24A10.1,10.1,0,0,1,779.27,327.68Z"/></g></g></svg>