<svg xmlns="http://www.w3.org/2000/svg" viewBox="0 0 114.15 162.64"><defs><style>.cls-1{fill:#ea9c2f;}.cls-2{fill:#0d120e;}.cls-3{fill:#dc911b;}.cls-4{fill:#0e1b1e;}.cls-5{fill:#fff;}.cls-6{fill:#f3892e;}.cls-7{fill:#3156aa;}</style></defs><g id="圖層_2" data-name="圖層 2"><g id="Object"><path class="cls-1" d="M67.91,6.11a11.4,11.4,0,0,0-2.78-1.2C58.65,3,24.57-6,6.94,6.48c0,0-6.54,3.32-5.84,10.15L4.78,14.2l51.67,7.62A43.11,43.11,0,0,0,69.23,7.67C69.49,7.21,68.74,6.6,67.91,6.11Z"/><path class="cls-2" d="M24.07,4.69C23.64,3.48,22.46,2.58,20.58,2a11.13,11.13,0,0,0-6.51.12,31.74,31.74,0,0,0-8.71,4.2A12.35,12.35,0,0,0,.67,17.05v.13L3,14.53a.86.86,0,0,1,.77-.29l12.67,1.87c.61.09,6-5.82,6.27-6.22h0C24.08,7.8,24.56,6.06,24.07,4.69Z"/><path class="cls-3" d="M55.28,13.05h-.16c-.11,0-10.9-1-22.75-1.37-15.94-.44-26.1.54-30.18,2.9l0,0L0,17.87,3.56,16,58,22.23Z"/><path class="cls-4" d="M55,21.82l-1.66-3.38a.22.22,0,0,0-.33-.1c-.21.11-3.92,1.51-6.36,2.43a.22.22,0,0,0-.15.25.23.23,0,0,0,.19.2h0l8.06.93a.23.23,0,0,0,.22-.1A.21.21,0,0,0,55,21.82Z"/><path class="cls-4" d="M108.21,54.08c-4.28-8.23-18.78-13.42-21-22.16a10.7,10.7,0,0,1,.22-4.28,19.59,19.59,0,0,0-.41-9.89C84.3,10,77.64,5.69,69.94,3.9c-5.2-1.21-9.27,2.35-12.42,6.29-2.13,2.66-5.47,8.49-3.25,11.81a10.2,10.2,0,0,0,1.64,1.71,20.41,20.41,0,0,1,6.22,12c.65,4.46-.76,8.7-1.37,13.07-1.16,8.25-2.8,16.55-2,24.85.78,8.61,7.78,25.13,17.9,26.51a.67.67,0,0,1,.52.37.71.71,0,0,1,0,.65c-2.31,4-8.23,14.6-13.36,25.07-6.6,13.49-9.32,21.6-8.06,24.11a1.47,1.47,0,0,0,1.33.94c3.93,0,13-17,16.93-24.7-2.83,8.52-9.06,29.48-5.92,34.46.66,1,1.33,1.56,2,1.56a1.24,1.24,0,0,0,.33,0c4.5-1.13,7-28.24,7.63-36,1,6,4.19,22.94,9.34,23.45a1.58,1.58,0,0,0,1.41-.55c3-3.37-1.33-22.34-4.47-36.2C82.85,107,81.72,102,81.69,100.34c0-.26.07-.49.16-.5,15.71-2.28,25.81-7.6,30-15.84C117.78,72.49,110.58,58.64,108.21,54.08Z"/><path class="cls-5" d="M81.69,99.88c-.06-.24-.45-.26-.8-.16-2,.29-3.42.13-4.44,2-1.49,2.72-3.56,6.79-2.33,9.94.78,2,2.56,1.7,3.62.12l.06-.09c0,1.62.34,3,1.47,3.08,1,.11,1.51-.63,1.84-1.68a3.37,3.37,0,0,0,1.31,1.9c1.22.68,1.7-.5,1.69-1.49C84.05,109,82.68,104.27,81.69,99.88Z"/><path class="cls-5" d="M100.55,58.68c-.07-.44-1.64-.09-1.55.43a40.46,40.46,0,0,1,.33,10.77c-.12,1.08-.18,4.36-1.59,1.88-.68-1.21-.86-3.2-1.19-4.53-.12-.47-1.6-.07-1.56.43.1,1.21.16,2.42.15,3.64,0,.92.21,3.94-.41,4.73-.35.44-.31-.07-.5-.63a13.33,13.33,0,0,1-.38-1.75,33.29,33.29,0,0,1-.46-4c0-.44-1.49-.07-1.55.33l-1,6c-.14.89-.18,4.44-.87,5-.51.4-.21.22-.33-.57a19.71,19.71,0,0,1,0-3.52,34.64,34.64,0,0,1,.74-5.27c.1-.5-1.45-.24-1.55.24a35.54,35.54,0,0,0-.6,10.79c0,.18.35.18.46.18a2.73,2.73,0,0,0,2.83-2.08,24.92,24.92,0,0,0,1-4.68c.44,1.11,1.16,1.79,2.35,1.36s1.39-1.76,1.53-2.86c.07-.58.12-1.16.16-1.74.72,1.19,1.73,1.8,3.15.64s1.19-4.55,1.27-6.16A41.58,41.58,0,0,0,100.55,58.68Z"/><path class="cls-6" d="M71.51,10.05C65.11-1.57,57,11.18,56.14,12.54c0,.07-.53,2.59-.56,2.67C50.36,30.21,78.24,22.28,71.51,10.05Z"/><path class="cls-2" d="M72,8.56A8,8,0,0,0,61.68,5.82a16.42,16.42,0,0,0-7.5,9.65,9.17,9.17,0,0,0,1.31,7.42c.17.27,1.49,0,1.33-.26-2.9-4.71-1.09-9.44,2.27-13.45,2.46-2.94,5.9-5.11,9.43-2.54a9,9,0,0,1,2.14,2.18C70.85,9.09,72.15,8.8,72,8.56Z"/><path class="cls-7" d="M62.63,16.33a2.36,2.36,0,1,0-.5-3.29A2.34,2.34,0,0,0,62.63,16.33Z"/><path d="M63.43,14.45c.17-.67.51-1.31.91-1.21s.39.83.22,1.5S64,16.05,63.65,16,63.25,15.12,63.43,14.45Z"/><path class="cls-5" d="M76.55,12.27A3.24,3.24,0,0,0,73,13c-2.51,2.19-2.33,6.09-5.08,8.07a9.93,9.93,0,0,1-5.63,1.52c-1,0-2.18-.19-3,.5S58.57,24.5,59,25.4c.84,2,2.26,3.79,3.1,5.85C64.51,35.83,70,33.9,73,31s4.68-7.52,5.27-11.74C78.6,17,79.09,13.49,76.55,12.27Z"/></g></g></svg>