<svg xmlns="http://www.w3.org/2000/svg" viewBox="0 0 177.56 42"><defs><style>.cls-1{isolation:isolate;}.cls-2{fill:#fff;}</style></defs><g id="圖層_2" data-name="圖層 2"><g id="圖層_1-2" data-name="圖層 1"><g id="圖層_2-2" data-name="圖層 2"><g id="圖層_1-2-2" data-name="圖層 1-2"><g class="cls-1"><path class="cls-2" d="M8.34,15.75c1.85,0,3.68.06,5.49.19,0-2.16,0-4.1.05-5.82l-3.05-.37a12.54,12.54,0,0,1-.1-1.31,4.75,4.75,0,0,1,.19-1.36h3c0-1.63,0-3.13.1-4.5h1.5a4.88,4.88,0,0,1,1.4.19V7.08c1.28.12,2.55.19,3.8.19,0-1.75.06-3.32.09-4.69h1.5a5.26,5.26,0,0,1,1.41.19v4.5q4.83.23,9.37.61A125,125,0,0,1,31.83,25.5a42.78,42.78,0,0,1,4.55-.23A7.59,7.59,0,0,1,36.56,27V28.5Q18.65,29.63.28,30A19.41,19.41,0,0,1,0,26.77l4.88-.33c-.19-3-.29-6.21-.29-9.61,0-3.1.1-6.28.29-9.56a6.65,6.65,0,0,1,1.59-.19,5.91,5.91,0,0,1,1.64.19C8.27,10.3,8.34,13.12,8.34,15.75Zm2,14.81a14.23,14.23,0,0,1,3.14,1.13,36,36,0,0,1-3.7,6.75A7.34,7.34,0,0,1,6.8,37.08,59.6,59.6,0,0,1,10.31,30.56ZM8.06,26.25l10-.38,10.36-.37a127.69,127.69,0,0,0,1-14.67c-1.91,0-3.83-.06-5.77-.19,0,1.91,0,3.86-.05,5.86,1.1,0,2.19.05,3.29.14a16.34,16.34,0,0,1-.24,2.63H23.58c0,1.12,0,2.26,0,3.42H22a3.68,3.68,0,0,1-1.41-.19V19.08H16.78c0,1.25-.05,2.5-.05,3.75a4.71,4.71,0,0,1-1.5.19,2.42,2.42,0,0,1-1.45-.33v-3.8l-5.44-.33Q8.3,22.69,8.06,26.25Zm8.82-15.94c0,1.85,0,3.78-.05,5.81,1.25,0,2.51.07,3.79.19,0-2.15,0-4.09.05-5.81A37.42,37.42,0,0,1,16.88,10.31ZM28,30.56A29.61,29.61,0,0,1,31.83,36a8.42,8.42,0,0,1-2.58,1.69,26.79,26.79,0,0,1-3.89-5.25A19.15,19.15,0,0,1,28,30.56Z"/><path class="cls-2" d="M53.55,19.69c.09,1.25.17,2.56.23,3.93,1.81.72,3.59,1.54,5.34,2.44A7.31,7.31,0,0,1,58,28.5a29.12,29.12,0,0,1-4.08-1.36c.1,2.41.14,4.73.14,7a5.13,5.13,0,0,1-1.54.19,4.65,4.65,0,0,1-1.55-.19c-.19-2.37-.34-4.7-.47-7q-1.83,1.17-4.36,2.48a6.3,6.3,0,0,1-1.78-2.48A57.8,57.8,0,0,1,50.26,23c0-1.13,0-2.24,0-3.33q-3.61-.2-5.49-.42a7.77,7.77,0,0,1-.14-1.46,8.23,8.23,0,0,1,.1-1.5h8.76c2.63,0,4.47.07,5.53.19a6.77,6.77,0,0,1,.1,1.31v1.27C58.67,19.48,56.83,19.69,53.55,19.69ZM46.37,7.88h8.77a14.34,14.34,0,0,1,2.76.18A6.6,6.6,0,0,1,58,9.33v1.5c-.25.25-1.24.37-3,.37a67.84,67.84,0,0,1-8.58-.37,5.61,5.61,0,0,1-.19-1.5A9.38,9.38,0,0,1,46.37,7.88ZM68.08,9.94q-.15-1.17-.24-2.25a7.61,7.61,0,0,0-1.5-.19A2.84,2.84,0,0,1,66.06,6a8.83,8.83,0,0,1,.09-1.36h1.36c-.06-1-.11-1.92-.14-2.76a12.45,12.45,0,0,1,3.14-.38c.1,1.09.21,2.14.33,3.14,1.35,0,2.67.06,4,.19.12-1.13.26-2.31.42-3.56a18.13,18.13,0,0,1,2.86.23c0,1.22,0,2.39,0,3.52l6,.37a38.22,38.22,0,0,1,.38,7,46.37,46.37,0,0,1-.19,5,111.93,111.93,0,0,1-14.2.61,39.48,39.48,0,0,1-8.11-.8,11.78,11.78,0,0,1-.66-4.82q0-1.89.09-7.18A5.4,5.4,0,0,1,62.87,5a5.47,5.47,0,0,1,1.36.18c0,.88,0,2.58.14,5.11ZM78.3,35.81h4.82v2.63Q75.49,39,62.26,39A15.2,15.2,0,0,1,62,36.19a23.49,23.49,0,0,1,4.74-.38A21.43,21.43,0,0,1,66.2,33a23.6,23.6,0,0,1,3-.51,19.47,19.47,0,0,1,1,3.37h4.36a11.16,11.16,0,0,1,1.92-3.37,16.51,16.51,0,0,1,2.68.89A9.36,9.36,0,0,1,78.3,35.81Zm-3.57-4.12c-5.53,0-9-.32-10.26-.94a31,31,0,0,1-.28-3.8,23.3,23.3,0,0,1,.18-2.76,5.61,5.61,0,0,1,1.5-.19h1.36a39,39,0,0,1,.38,4.5c1.69.12,4,.19,7,.19a10.5,10.5,0,0,0,2.48-.19,12.71,12.71,0,0,0,.1-1.73q-1-.15-8.39-.9c0-.4,0-.84,0-1.31s0-.95,0-1.36q7.35,0,11.25,1.36a17.22,17.22,0,0,1,.28,3.38A8.26,8.26,0,0,1,80,30.89Q78.72,31.69,74.73,31.69Zm-10.26-19q0,1,.09,2.07Q72.9,15,81.15,15a11.33,11.33,0,0,0,.19-2.57c0-1.26,0-2.63-.09-4.13a30.71,30.71,0,0,0-3.33-.19c0,.47-.08,1-.14,1.5a2.87,2.87,0,0,1,1.08-.23A6,6,0,0,1,79,10.64,13,13,0,0,1,79,12a5.72,5.72,0,0,0-1.45.19c-.1.59-.17,1.22-.24,1.87a24.12,24.12,0,0,1-2.86-.18c0-.54,0-1,0-1.5a25.16,25.16,0,0,0-3,.18c0,.35,0,.72,0,1.13a11.27,11.27,0,0,1-2.91.37c-.06-.53-.12-1-.19-1.36ZM70,18.89q6.75,0,10.17.19v2.67q-5.58.38-15.19.37a17.32,17.32,0,0,1-.23-2.85C66,19.14,67.75,19,70,18.89Zm4.5-9.33q0-.8.09-1.68a30.44,30.44,0,0,1-3.51-.19c.06.72.12,1.4.18,2.06A27.45,27.45,0,0,0,74.5,9.56Z"/><path class="cls-2" d="M94.2,18.56c-1,.22-1.94.39-2.91.52a6,6,0,0,1-.51-2.58,29.45,29.45,0,0,1,10.36-2.81,5.74,5.74,0,0,1,.61,2.81c-1.47.47-2.91.91-4.32,1.31.44,3.25.78,6.63,1,10.13a8.27,8.27,0,0,1-3,.56Q94.67,23.63,94.2,18.56ZM108,16.5q2.67.13,5.77.33a12.31,12.31,0,0,1,.09,1.36,6.29,6.29,0,0,1-.19,1.5,74.91,74.91,0,0,1-9.7-.61q1.41-4.5,3.09-8.77a13.39,13.39,0,0,1-3.32-.19,4.87,4.87,0,0,1-.19-1.54,5.53,5.53,0,0,1,.23-1.5h6.57q4.22,0,6.75.19a4.27,4.27,0,0,1,.18,1.5,3.44,3.44,0,0,1-.18,1.35,54.31,54.31,0,0,1-6.75.19Q109.25,13.26,108,16.5Zm3.94,11.06c0,2.22-.08,4.14-.14,5.77L117,33a20.2,20.2,0,0,1,.19,2.86,115.34,115.34,0,0,1-12.8.75,11.06,11.06,0,0,1-.33-2.62l4.83-.38q-.24-2.8-.28-6.23c-1.72-.13-3.37-.31-5-.56,0-1,0-1.86.1-2.58,1.59,0,3.21.06,4.87.18a25.29,25.29,0,0,1,.47-3.75,4.56,4.56,0,0,1,1.31-.18,3.92,3.92,0,0,1,1.27.18c.15,1.47.25,2.79.28,3.94,1.84.1,3.69.27,5.53.52a14.44,14.44,0,0,1-.28,2.67C115.39,27.75,113.64,27.69,111.92,27.56Zm4.87-13.31a15.22,15.22,0,0,1,1.93,4.45,7.6,7.6,0,0,1-2.86.57,17.77,17.77,0,0,1-1.74-4.5A7.4,7.4,0,0,1,116.79,14.25Zm6.85.89c.28,3.66.51,7.17.7,10.55a26.68,26.68,0,0,1-3.09.18q-.66-5.1-.85-10.31A12,12,0,0,1,123.64,15.14Zm6.23-4.31A161.73,161.73,0,0,1,132,30.37a16.81,16.81,0,0,1-5.49.9A6.33,6.33,0,0,1,126,29a22.89,22.89,0,0,1,2.76-.52q-1.08-8.25-2.06-17.11A19.11,19.11,0,0,1,129.87,10.83Z"/><path class="cls-2" d="M159.51,14.58c-.25.5-2.65.83-7.22,1,0,.63,0,1.24,0,1.83h5.81a18,18,0,0,1,.42,3.94,13.83,13.83,0,0,1-.19,3.37,120.25,120.25,0,0,1-16,.8A27.59,27.59,0,0,1,141,18l7.64-.38c0-.74,0-1.43-.05-2.06h0a50.52,50.52,0,0,1-7.36-.42c-.28-1.62-.5-3.3-.66-5a19.9,19.9,0,0,1-2.62-.18,7.57,7.57,0,0,1-.15-1.36c0-.47,0-.91,0-1.31h2.53c0-1.25,0-2.49,0-3.71h3.18c.13,1.38.24,2.61.33,3.71,1.63,0,3.25.07,4.88.23,0-.66.06-1.28.09-1.88A17,17,0,0,0,146,5.39c0-1,0-1.91.1-2.81a22.52,22.52,0,0,0,2.86.19c0-.85.08-1.71.14-2.58a6.2,6.2,0,0,1,3.05,0q0,1.5.09,2.76a60.26,60.26,0,0,1,6.94.8,13.36,13.36,0,0,1,.51,4.31l3.14.38V9.56a4.79,4.79,0,0,1-.23,1.46h-2.91C159.62,12.27,159.57,13.45,159.51,14.58Zm-10.17,16.5c-.47,1.25-.91,2.45-1.31,3.61,1.15.34,2.33.65,3.51.93.44-1.12.94-2.25,1.5-3.37a8.29,8.29,0,0,1,2.86.89c-.37,1.13-.78,2.27-1.22,3.42,1.07.22,2.13.46,3.19.71a10.34,10.34,0,0,1-.75,3l-3.47-.75c-.28.75-.61,1.56-1,2.44a6.5,6.5,0,0,1-2.81-1c.18-.72.4-1.52.65-2.4q-3.47-.93-6.94-2.06,1.08-3,2.25-5.67c-1.43-.22-2.87-.39-4.31-.52a10.89,10.89,0,0,1,.28-2.62c1.78,0,3.57.06,5.35.19.31-.78.64-1.53,1-2.25a17.66,17.66,0,0,1,2.95.93c-.21.47-.42,1-.61,1.5,3.22.25,6.4.61,9.52,1.08a17,17,0,0,1-.19,2.49A89.58,89.58,0,0,1,149.34,31.08Zm-.8-18.38c0-.72,0-1.4.05-2.06-1.56-.09-3.11-.14-4.64-.14,0,.59.05,1.22.05,1.88C145.25,12.5,146.76,12.61,148.54,12.7Zm-3.37,10h3.75c-.1-.91-.16-1.72-.19-2.44l-4,.19Zm7-2.63c-.06.85-.11,1.66-.14,2.44h3.09L155,20.06ZM152.25,6V7.69c1.34,0,2.67.06,4,.19,0-.54-.08-1-.14-1.5Zm4.12,4.83h-4.08V12.7a41.17,41.17,0,0,0,4.13-.14C156.39,12.06,156.37,11.48,156.37,10.83Zm12.14,1.55q4.65.31,9,.89a13.78,13.78,0,0,1-.42,3.23,58.55,58.55,0,0,1-10.27-.94q-1.63,3.15-3.37,6a7,7,0,0,1-2.91-1.68Q164.4,12,168.93,3.94a14.24,14.24,0,0,1,2.86,1.45C170.73,7.77,169.64,10.09,168.51,12.38ZM166.4,29.2q-2.21-1.64-4.17-3.14a23.4,23.4,0,0,1,1.45-2.67c1.57.88,3.11,1.83,4.64,2.86A43.87,43.87,0,0,1,172,21.56a5,5,0,0,1,2.44,1.27,59.15,59.15,0,0,1-3,5.48c2,1.38,4.08,2.81,6.14,4.31a7.86,7.86,0,0,1-1.6,2.21,54.16,54.16,0,0,1-6.51-3.75,52.78,52.78,0,0,1-4,5.11,2.81,2.81,0,0,1-2.15-1.36A45.21,45.21,0,0,1,166.4,29.2Z"/></g></g></g></g></g></svg>