<svg xmlns="http://www.w3.org/2000/svg" viewBox="0 0 1869.93 79.91"><defs><style>.cls-1{fill:#255f63;}.cls-2{fill:#f27d72;}</style></defs><g id="圖層_2" data-name="圖層 2"><g id="Слой_1" data-name="Слой 1"><path class="cls-1" d="M1829.18,22.41l.06-1.38c.41-7.59,2.41-16.27,9.19-19.72,7.15-3.64,16.23.79,20.71,7.46s5.63,14.92,7.21,22.79c1.42,7,3.26,14,3.54,21.14s-1.18,14.65-5.7,20.19c-3.88,4.75-12.64,9.27-18.65,5.79s-9.76-14.33-11.7-20.59A106.18,106.18,0,0,1,1829.18,22.41ZM1844,28a84.39,84.39,0,0,0,.88,10.18,99.58,99.58,0,0,0,2.71,14.46c1,3.33,3.2,10.77,7,7.93,3.41-2.54,1.83-11.23,1.3-14.63q-1.52-9.57-3-19.16a25.08,25.08,0,0,0-1.71-6.75,8.47,8.47,0,0,0-4.88-4.71A29.4,29.4,0,0,0,1844,28Z"/><path class="cls-1" d="M1703,22.41c0-.46,0-.92.07-1.38.41-7.59,2.4-16.27,9.19-19.72,7.15-3.64,16.23.79,20.7,7.46s5.63,14.92,7.22,22.79c1.41,7,3.26,14,3.54,21.14s-1.18,14.65-5.71,20.19c-3.88,4.75-12.63,9.27-18.65,5.79s-9.76-14.33-11.7-20.59A106.43,106.43,0,0,1,1703,22.41ZM1717.8,28a86.47,86.47,0,0,0,.88,10.18,98.28,98.28,0,0,0,2.72,14.46c1,3.33,3.19,10.77,7,7.93,3.42-2.54,1.84-11.23,1.3-14.63q-1.5-9.57-3-19.16A25.08,25.08,0,0,0,1725,20a8.45,8.45,0,0,0-4.89-4.71A29.7,29.7,0,0,0,1717.8,28Z"/><path class="cls-2" d="M1766.11,22.41l.06-1.38c.41-7.59,2.41-16.27,9.19-19.72,7.15-3.64,16.23.79,20.7,7.46s5.63,14.92,7.22,22.79c1.41,7,3.26,14,3.54,21.14s-1.18,14.65-5.71,20.19c-3.87,4.75-12.63,9.27-18.65,5.79s-9.75-14.33-11.69-20.59A106.18,106.18,0,0,1,1766.11,22.41ZM1780.87,28a88.66,88.66,0,0,0,.88,10.18,99.6,99.6,0,0,0,2.72,14.46c1,3.33,3.2,10.77,7,7.93,3.41-2.54,1.83-11.23,1.3-14.63q-1.51-9.57-3-19.16A25.08,25.08,0,0,0,1788,20a8.45,8.45,0,0,0-4.89-4.71A29.7,29.7,0,0,0,1780.87,28Z"/><path class="cls-2" d="M1640,22.41c0-.46,0-.92.07-1.38.41-7.59,2.4-16.27,9.18-19.72,7.16-3.64,16.24.79,20.71,7.46s5.63,14.92,7.22,22.79c1.41,7,3.26,14,3.54,21.14s-1.19,14.65-5.71,20.19c-3.88,4.75-12.63,9.27-18.65,5.79s-9.76-14.33-11.7-20.59A106.18,106.18,0,0,1,1640,22.41ZM1654.73,28a86.47,86.47,0,0,0,.88,10.18,99.58,99.58,0,0,0,2.71,14.46c1,3.33,3.2,10.77,7,7.93,3.42-2.54,1.83-11.23,1.3-14.63q-1.5-9.57-3-19.16A25.45,25.45,0,0,0,1661.9,20,8.48,8.48,0,0,0,1657,15.3,29.7,29.7,0,0,0,1654.73,28Z"/><path class="cls-1" d="M1576.89,22.41c0-.46,0-.92.07-1.38.4-7.59,2.4-16.27,9.18-19.72,7.16-3.64,16.23.79,20.71,7.46s5.63,14.92,7.21,22.79c1.42,7,3.27,14,3.55,21.14s-1.19,14.65-5.71,20.19c-3.88,4.75-12.63,9.27-18.65,5.79s-9.76-14.33-11.7-20.59A106.18,106.18,0,0,1,1576.89,22.41ZM1591.66,28a86.47,86.47,0,0,0,.88,10.18,99.58,99.58,0,0,0,2.71,14.46c1,3.33,3.2,10.77,7,7.93,3.42-2.54,1.83-11.23,1.3-14.63q-1.52-9.57-3-19.16a25.47,25.47,0,0,0-1.72-6.75,8.47,8.47,0,0,0-4.88-4.71A29.55,29.55,0,0,0,1591.66,28Z"/><path class="cls-1" d="M1450.75,22.41l.06-1.38c.41-7.59,2.41-16.27,9.19-19.72,7.15-3.64,16.23.79,20.7,7.46s5.63,14.92,7.22,22.79c1.41,7,3.26,14,3.54,21.14s-1.18,14.65-5.71,20.19c-3.87,4.75-12.63,9.27-18.65,5.79s-9.75-14.33-11.69-20.59A106.18,106.18,0,0,1,1450.75,22.41ZM1465.51,28a88.66,88.66,0,0,0,.88,10.18,98.28,98.28,0,0,0,2.72,14.46c1,3.33,3.2,10.77,7,7.93,3.41-2.54,1.83-11.23,1.29-14.63q-1.5-9.57-3-19.16a25.08,25.08,0,0,0-1.71-6.75,8.45,8.45,0,0,0-4.89-4.71A29.7,29.7,0,0,0,1465.51,28Z"/><path class="cls-2" d="M1513.82,22.41l.06-1.38c.41-7.59,2.41-16.27,9.19-19.72,7.15-3.64,16.23.79,20.71,7.46s5.62,14.92,7.21,22.79c1.41,7,3.26,14,3.54,21.14s-1.18,14.65-5.7,20.19c-3.88,4.75-12.64,9.27-18.65,5.79s-9.76-14.33-11.7-20.59A106.18,106.18,0,0,1,1513.82,22.41ZM1528.59,28a86.46,86.46,0,0,0,.87,10.18,99.6,99.6,0,0,0,2.72,14.46c1,3.33,3.2,10.77,7,7.93,3.41-2.54,1.83-11.23,1.3-14.63q-1.51-9.57-3-19.16a25.08,25.08,0,0,0-1.71-6.75,8.47,8.47,0,0,0-4.88-4.71A29.4,29.4,0,0,0,1528.59,28Z"/><path class="cls-2" d="M1387.67,22.41c0-.46,0-.92.07-1.38.41-7.59,2.4-16.27,9.19-19.72,7.15-3.64,16.23.79,20.7,7.46s5.63,14.92,7.22,22.79c1.41,7,3.26,14,3.54,21.14s-1.18,14.65-5.71,20.19c-3.88,4.75-12.63,9.27-18.65,5.79s-9.76-14.33-11.7-20.59A106.43,106.43,0,0,1,1387.67,22.41ZM1402.44,28a86.47,86.47,0,0,0,.88,10.18A98.28,98.28,0,0,0,1406,52.62c1,3.33,3.19,10.77,7,7.93,3.42-2.54,1.84-11.23,1.3-14.63q-1.5-9.57-3-19.16a25.08,25.08,0,0,0-1.71-6.75,8.45,8.45,0,0,0-4.89-4.71A29.7,29.7,0,0,0,1402.44,28Z"/><path class="cls-1" d="M1324.6,22.41c0-.46,0-.92.07-1.38.41-7.59,2.4-16.27,9.18-19.72,7.16-3.64,16.24.79,20.71,7.46s5.63,14.92,7.22,22.79c1.41,7,3.26,14,3.54,21.14s-1.19,14.65-5.71,20.19c-3.88,4.75-12.63,9.27-18.65,5.79s-9.76-14.33-11.7-20.59A106.18,106.18,0,0,1,1324.6,22.41ZM1339.37,28a86.47,86.47,0,0,0,.88,10.18A99.58,99.58,0,0,0,1343,52.62c1,3.33,3.2,10.77,7,7.93,3.42-2.54,1.83-11.23,1.3-14.63q-1.5-9.57-3-19.16a25.09,25.09,0,0,0-1.72-6.75,8.44,8.44,0,0,0-4.88-4.71A29.7,29.7,0,0,0,1339.37,28Z"/><path class="cls-1" d="M1198.46,22.41l.06-1.38c.41-7.59,2.41-16.27,9.19-19.72,7.15-3.64,16.23.79,20.7,7.46s5.63,14.92,7.22,22.79c1.41,7,3.26,14,3.54,21.14s-1.18,14.65-5.7,20.19c-3.88,4.75-12.64,9.27-18.66,5.79s-9.75-14.33-11.69-20.59A106.18,106.18,0,0,1,1198.46,22.41ZM1213.23,28a86.46,86.46,0,0,0,.87,10.18,99.6,99.6,0,0,0,2.72,14.46c1,3.33,3.2,10.77,7,7.93,3.41-2.54,1.83-11.23,1.3-14.63q-1.51-9.57-3-19.16a25.08,25.08,0,0,0-1.71-6.75,8.47,8.47,0,0,0-4.88-4.71A29.4,29.4,0,0,0,1213.23,28Z"/><path class="cls-2" d="M1261.53,22.41c0-.46,0-.92.07-1.38.4-7.59,2.4-16.27,9.18-19.72,7.15-3.64,16.23.79,20.71,7.46s5.63,14.92,7.21,22.79c1.42,7,3.27,14,3.54,21.14s-1.18,14.65-5.7,20.19c-3.88,4.75-12.64,9.27-18.65,5.79s-9.76-14.33-11.7-20.59A106.18,106.18,0,0,1,1261.53,22.41ZM1276.3,28a84.39,84.39,0,0,0,.88,10.18,99.58,99.58,0,0,0,2.71,14.46c1,3.33,3.2,10.77,7,7.93,3.42-2.54,1.83-11.23,1.3-14.63q-1.51-9.57-3-19.16a25.47,25.47,0,0,0-1.72-6.75,8.47,8.47,0,0,0-4.88-4.71A29.4,29.4,0,0,0,1276.3,28Z"/><path class="cls-2" d="M1135.39,22.41c0-.46,0-.92.06-1.38.41-7.59,2.41-16.27,9.19-19.72,7.15-3.64,16.23.79,20.7,7.46s5.63,14.92,7.22,22.79c1.41,7,3.26,14,3.54,21.14s-1.18,14.65-5.71,20.19c-3.88,4.75-12.63,9.27-18.65,5.79S1142,64.35,1140,58.09A106.42,106.42,0,0,1,1135.39,22.41ZM1150.15,28a86.47,86.47,0,0,0,.88,10.18,98.28,98.28,0,0,0,2.72,14.46c1,3.33,3.2,10.77,7,7.93,3.42-2.54,1.84-11.23,1.3-14.63q-1.5-9.57-3-19.16a25.08,25.08,0,0,0-1.71-6.75,8.45,8.45,0,0,0-4.89-4.71A29.7,29.7,0,0,0,1150.15,28Z"/><path class="cls-1" d="M1072.31,22.41c0-.46,0-.92.07-1.38.41-7.59,2.4-16.27,9.18-19.72,7.16-3.64,16.24.79,20.71,7.46s5.63,14.92,7.22,22.79c1.41,7,3.26,14,3.54,21.14s-1.19,14.65-5.71,20.19c-3.88,4.75-12.63,9.27-18.65,5.79s-9.76-14.33-11.7-20.59A106.18,106.18,0,0,1,1072.31,22.41ZM1087.08,28a86.47,86.47,0,0,0,.88,10.18,98.28,98.28,0,0,0,2.72,14.46c1,3.33,3.19,10.77,7,7.93,3.42-2.54,1.84-11.23,1.3-14.63q-1.5-9.57-3-19.16a25.08,25.08,0,0,0-1.71-6.75,8.48,8.48,0,0,0-4.89-4.71A29.7,29.7,0,0,0,1087.08,28Z"/><path class="cls-1" d="M946.17,22.41l.06-1.38c.41-7.59,2.41-16.27,9.19-19.72,7.15-3.64,16.23.79,20.71,7.46s5.63,14.92,7.21,22.79c1.42,7,3.26,14,3.54,21.14s-1.18,14.65-5.7,20.19c-3.88,4.75-12.64,9.27-18.65,5.79s-9.76-14.33-11.7-20.59A106.18,106.18,0,0,1,946.17,22.41ZM960.94,28a84.39,84.39,0,0,0,.88,10.18,99.58,99.58,0,0,0,2.71,14.46c1,3.33,3.2,10.77,7,7.93,3.42-2.54,1.83-11.23,1.3-14.63q-1.51-9.57-3-19.16A25.47,25.47,0,0,0,968.1,20a8.47,8.47,0,0,0-4.88-4.71A29.4,29.4,0,0,0,960.94,28Z"/><path class="cls-2" d="M1009.24,22.41c0-.46,0-.92.07-1.38.41-7.59,2.4-16.27,9.18-19.72,7.16-3.64,16.23.79,20.71,7.46s5.63,14.92,7.21,22.79c1.42,7,3.27,14,3.55,21.14s-1.19,14.65-5.71,20.19c-3.88,4.75-12.63,9.27-18.65,5.79s-9.76-14.33-11.7-20.59A106.18,106.18,0,0,1,1009.24,22.41ZM1024,28a86.47,86.47,0,0,0,.88,10.18,99.58,99.58,0,0,0,2.71,14.46c1,3.33,3.2,10.77,7,7.93,3.42-2.54,1.83-11.23,1.3-14.63q-1.5-9.57-3-19.16a25.09,25.09,0,0,0-1.72-6.75,8.44,8.44,0,0,0-4.88-4.71A29.55,29.55,0,0,0,1024,28Z"/><path class="cls-2" d="M883.1,22.41l.06-1.38c.41-7.59,2.41-16.27,9.19-19.72,7.15-3.64,16.23.79,20.7,7.46s5.63,14.92,7.22,22.79c1.41,7,3.26,14,3.54,21.14s-1.18,14.65-5.71,20.19c-3.87,4.75-12.63,9.27-18.65,5.79s-9.75-14.33-11.69-20.59A106.18,106.18,0,0,1,883.1,22.41ZM897.86,28a88.66,88.66,0,0,0,.88,10.18,99.6,99.6,0,0,0,2.72,14.46c1,3.33,3.2,10.77,7,7.93,3.41-2.54,1.83-11.23,1.3-14.63q-1.51-9.57-3-19.16A25.08,25.08,0,0,0,905,20a8.45,8.45,0,0,0-4.89-4.71A29.7,29.7,0,0,0,897.86,28Z"/><path class="cls-1" d="M820,22.41c0-.46,0-.92.06-1.38.41-7.59,2.4-16.27,9.19-19.72,7.15-3.64,16.23.79,20.7,7.46s5.63,14.92,7.22,22.79c1.41,7,3.26,14,3.54,21.14S859.56,67.35,855,72.89c-3.88,4.75-12.63,9.27-18.65,5.79s-9.76-14.33-11.7-20.59A106.17,106.17,0,0,1,820,22.41ZM834.79,28a86.47,86.47,0,0,0,.88,10.18,98.28,98.28,0,0,0,2.72,14.46c1,3.33,3.19,10.77,7,7.93,3.42-2.54,1.84-11.23,1.3-14.63q-1.5-9.57-3-19.16A25.08,25.08,0,0,0,842,20a8.45,8.45,0,0,0-4.89-4.71A29.7,29.7,0,0,0,834.79,28Z"/><path class="cls-1" d="M693.88,22.41c0-.46,0-.92.07-1.38.41-7.59,2.4-16.27,9.18-19.72,7.16-3.64,16.23.79,20.71,7.46s5.63,14.92,7.21,22.79c1.42,7,3.27,14,3.55,21.14s-1.19,14.65-5.71,20.19c-3.88,4.75-12.63,9.27-18.65,5.79s-9.76-14.33-11.7-20.59A106.18,106.18,0,0,1,693.88,22.41ZM708.65,28a86.47,86.47,0,0,0,.88,10.18,99.58,99.58,0,0,0,2.71,14.46c1,3.33,3.2,10.77,7,7.93,3.42-2.54,1.83-11.23,1.3-14.63q-1.51-9.57-3-19.16A25.47,25.47,0,0,0,715.81,20a8.47,8.47,0,0,0-4.88-4.71A29.55,29.55,0,0,0,708.65,28Z"/><path class="cls-2" d="M757,22.41c0-.46,0-.92.07-1.38.41-7.59,2.4-16.27,9.18-19.72,7.16-3.64,16.24.79,20.71,7.46s5.63,14.92,7.22,22.79c1.41,7,3.26,14,3.54,21.14S796.48,67.35,792,72.89c-3.88,4.75-12.63,9.27-18.65,5.79s-9.76-14.33-11.7-20.59A106.18,106.18,0,0,1,757,22.41ZM771.72,28a86.47,86.47,0,0,0,.88,10.18,98.28,98.28,0,0,0,2.72,14.46c.95,3.33,3.19,10.77,7,7.93,3.42-2.54,1.83-11.23,1.3-14.63q-1.5-9.57-3-19.16A25.45,25.45,0,0,0,778.89,20,8.48,8.48,0,0,0,774,15.3,29.7,29.7,0,0,0,771.72,28Z"/><path class="cls-2" d="M630.81,22.41l.06-1.38c.41-7.59,2.41-16.27,9.19-19.72,7.15-3.64,16.23.79,20.71,7.46s5.62,14.92,7.21,22.79c1.42,7,3.26,14,3.54,21.14s-1.18,14.65-5.7,20.19c-3.88,4.75-12.64,9.27-18.66,5.79s-9.75-14.33-11.69-20.59A106.18,106.18,0,0,1,630.81,22.41ZM645.58,28a86.46,86.46,0,0,0,.87,10.18,101,101,0,0,0,2.72,14.46c1,3.33,3.2,10.77,7,7.93,3.41-2.54,1.83-11.23,1.3-14.63q-1.51-9.57-3-19.16A25.08,25.08,0,0,0,652.74,20a8.47,8.47,0,0,0-4.88-4.71A29.4,29.4,0,0,0,645.58,28Z"/><path class="cls-1" d="M567.74,22.41c0-.46,0-.92.06-1.38.41-7.59,2.41-16.27,9.19-19.72,7.15-3.64,16.23.79,20.7,7.46s5.63,14.92,7.22,22.79c1.41,7,3.26,14,3.54,21.14s-1.18,14.65-5.71,20.19c-3.88,4.75-12.63,9.27-18.65,5.79s-9.75-14.33-11.69-20.59A106.18,106.18,0,0,1,567.74,22.41ZM582.5,28a86.47,86.47,0,0,0,.88,10.18,98.28,98.28,0,0,0,2.72,14.46c1,3.33,3.2,10.77,7,7.93,3.42-2.54,1.84-11.23,1.3-14.63q-1.5-9.57-3-19.16A25.08,25.08,0,0,0,589.67,20a8.45,8.45,0,0,0-4.89-4.71A29.7,29.7,0,0,0,582.5,28Z"/><path class="cls-2" d="M504.66,22.41c0-.46,0-.92.07-1.38.41-7.59,2.4-16.27,9.19-19.72,7.15-3.64,16.23.79,20.7,7.46s5.63,14.92,7.22,22.79c1.41,7,3.26,14,3.54,21.14s-1.18,14.65-5.71,20.19C535.79,77.64,527,82.16,521,78.68s-9.76-14.33-11.7-20.59A106.43,106.43,0,0,1,504.66,22.41ZM519.43,28a86.47,86.47,0,0,0,.88,10.18A98.28,98.28,0,0,0,523,52.62c1,3.33,3.19,10.77,7,7.93,3.42-2.54,1.84-11.23,1.3-14.63q-1.5-9.57-3-19.16A25.08,25.08,0,0,0,526.6,20a8.48,8.48,0,0,0-4.89-4.71A29.7,29.7,0,0,0,519.43,28Z"/><path class="cls-1" d="M441.59,22.41c0-.46,0-.92.07-1.38.41-7.59,2.4-16.27,9.18-19.72,7.16-3.64,16.23.79,20.71,7.46s5.63,14.92,7.21,22.79c1.42,7,3.27,14,3.55,21.14s-1.19,14.65-5.71,20.19C472.72,77.64,464,82.16,458,78.68s-9.76-14.33-11.7-20.59A106.18,106.18,0,0,1,441.59,22.41ZM456.36,28a86.47,86.47,0,0,0,.88,10.18A99.58,99.58,0,0,0,460,52.62c1,3.33,3.2,10.77,7,7.93,3.42-2.54,1.83-11.23,1.3-14.63q-1.5-9.57-3-19.16A25.45,25.45,0,0,0,463.53,20a8.48,8.48,0,0,0-4.89-4.71A29.7,29.7,0,0,0,456.36,28Z"/><path class="cls-1" d="M315.45,22.41l.06-1.38c.41-7.59,2.41-16.27,9.19-19.72,7.15-3.64,16.23.79,20.7,7.46s5.63,14.92,7.22,22.79c1.41,7,3.26,14,3.54,21.14S355,67.35,350.45,72.89c-3.87,4.75-12.63,9.27-18.65,5.79s-9.75-14.33-11.69-20.59A106.18,106.18,0,0,1,315.45,22.41ZM330.22,28a86.46,86.46,0,0,0,.87,10.18,99.6,99.6,0,0,0,2.72,14.46c1,3.33,3.2,10.77,7,7.93,3.41-2.54,1.83-11.23,1.3-14.63q-1.51-9.57-3-19.16A25.08,25.08,0,0,0,337.38,20a8.47,8.47,0,0,0-4.88-4.71A29.4,29.4,0,0,0,330.22,28Z"/><path class="cls-2" d="M378.52,22.41l.06-1.38C379,13.44,381,4.76,387.77,1.31c7.15-3.64,16.23.79,20.71,7.46s5.63,14.92,7.21,22.79c1.42,7,3.27,14,3.55,21.14s-1.19,14.65-5.71,20.19c-3.88,4.75-12.64,9.27-18.65,5.79s-9.76-14.33-11.7-20.59A106.18,106.18,0,0,1,378.52,22.41ZM393.29,28a84.39,84.39,0,0,0,.88,10.18,99.58,99.58,0,0,0,2.71,14.46c1,3.33,3.2,10.77,7,7.93,3.42-2.54,1.83-11.23,1.3-14.63q-1.51-9.57-3-19.16A25.47,25.47,0,0,0,400.45,20a8.47,8.47,0,0,0-4.88-4.71A29.4,29.4,0,0,0,393.29,28Z"/><path class="cls-2" d="M252.38,22.41c0-.46,0-.92.06-1.38.41-7.59,2.41-16.27,9.19-19.72,7.15-3.64,16.23.79,20.7,7.46s5.63,14.92,7.22,22.79c1.41,7,3.26,14,3.54,21.14s-1.18,14.65-5.71,20.19c-3.88,4.75-12.63,9.27-18.65,5.79S259,64.35,257,58.09A106.42,106.42,0,0,1,252.38,22.41ZM267.14,28A86.47,86.47,0,0,0,268,38.16a98.28,98.28,0,0,0,2.72,14.46c1,3.33,3.2,10.77,7,7.93,3.42-2.54,1.84-11.23,1.3-14.63q-1.5-9.57-3-19.16A25.08,25.08,0,0,0,274.31,20a8.45,8.45,0,0,0-4.89-4.71A29.7,29.7,0,0,0,267.14,28Z"/><path class="cls-1" d="M189.3,22.41c0-.46,0-.92.07-1.38.41-7.59,2.4-16.27,9.18-19.72,7.16-3.64,16.24.79,20.71,7.46s5.63,14.92,7.22,22.79c1.41,7,3.26,14,3.54,21.14s-1.19,14.65-5.71,20.19c-3.88,4.75-12.63,9.27-18.65,5.79S195.9,64.35,194,58.09A106.43,106.43,0,0,1,189.3,22.41ZM204.07,28A86.47,86.47,0,0,0,205,38.16a98.28,98.28,0,0,0,2.72,14.46c1,3.33,3.19,10.77,7,7.93,3.42-2.54,1.84-11.23,1.3-14.63q-1.5-9.57-3-19.16A25.08,25.08,0,0,0,211.24,20a8.48,8.48,0,0,0-4.89-4.71A29.7,29.7,0,0,0,204.07,28Z"/><path class="cls-1" d="M63.16,22.41,63.22,21c.41-7.59,2.41-16.27,9.19-19.72,7.15-3.64,16.23.79,20.71,7.46s5.63,14.92,7.21,22.79c1.42,7,3.26,14,3.54,21.14s-1.18,14.65-5.7,20.19c-3.88,4.75-12.64,9.27-18.65,5.79s-9.76-14.33-11.7-20.59A106.18,106.18,0,0,1,63.16,22.41ZM77.93,28a84.39,84.39,0,0,0,.88,10.18,99.58,99.58,0,0,0,2.71,14.46c1,3.33,3.2,10.77,7,7.93,3.42-2.54,1.83-11.23,1.3-14.63q-1.51-9.57-3-19.16A25.08,25.08,0,0,0,85.09,20a8.47,8.47,0,0,0-4.88-4.71A29.4,29.4,0,0,0,77.93,28Z"/><path class="cls-2" d="M126.23,22.41c0-.46,0-.92.07-1.38.41-7.59,2.4-16.27,9.18-19.72,7.16-3.64,16.23.79,20.71,7.46s5.63,14.92,7.21,22.79c1.42,7,3.27,14,3.55,21.14s-1.19,14.65-5.71,20.19c-3.88,4.75-12.63,9.27-18.65,5.79s-9.76-14.33-11.7-20.59A106.18,106.18,0,0,1,126.23,22.41ZM141,28a86.47,86.47,0,0,0,.88,10.18,99.58,99.58,0,0,0,2.71,14.46c1,3.33,3.2,10.77,7,7.93,3.42-2.54,1.83-11.23,1.3-14.63q-1.5-9.57-3-19.16A25.09,25.09,0,0,0,148.16,20a8.44,8.44,0,0,0-4.88-4.71A29.55,29.55,0,0,0,141,28Z"/><path class="cls-2" d="M.09,22.41.15,21C.56,13.44,2.56,4.76,9.34,1.31,16.49-2.33,25.57,2.1,30,8.77s5.63,14.92,7.22,22.79c1.41,7,3.26,14,3.54,21.14s-1.18,14.65-5.71,20.19c-3.87,4.75-12.63,9.27-18.65,5.79S6.69,64.35,4.75,58.09A106.18,106.18,0,0,1,.09,22.41ZM14.85,28a88.66,88.66,0,0,0,.88,10.18,99.6,99.6,0,0,0,2.72,14.46c1,3.33,3.2,10.77,7,7.93,3.41-2.54,1.83-11.23,1.3-14.63q-1.52-9.57-3-19.16A25.08,25.08,0,0,0,22,20a8.45,8.45,0,0,0-4.89-4.71A29.7,29.7,0,0,0,14.85,28Z"/></g></g></svg>