<svg xmlns="http://www.w3.org/2000/svg" width="231.824" height="231.824" viewBox="0 0 231.824 231.824">
  <g id="Group_368" data-name="Group 368">
    <g id="Group_349" data-name="Group 349">
      <g id="Group_348" data-name="Group 348">
        <ellipse id="Ellipse_6" data-name="Ellipse 6" cx="115.912" cy="113.06" rx="115.912" ry="113.06" fill="#e4f2f2"/>
        <path id="Path_38453" data-name="Path 38453" d="M1447.15,186.967c7.818,9.534,13.245,20.97,16.865,32.771,4.99,16.268,6.819,33.471,6.751,50.447-.06,14.936-1.312,30.1-5.945,44.37A99.06,99.06,0,0,1,1446,348.206a120.367,120.367,0,0,1-29.275,24.465,184.432,184.432,0,0,1-36.822,16.753c-6.125,2.072-12.331,3.892-18.592,5.5a112.272,112.272,0,0,0,32.6,4.808c62.221,0,112.662-50.63,112.662-113.085A113.122,113.122,0,0,0,1447.15,186.967Z" transform="translate(-1274.749 -173.617)" fill="#dfeded"/>
      </g>
      <path id="Path_38454" data-name="Path 38454" d="M1492.229,572.48a183.522,183.522,0,0,1-21.41,31.915,110.662,110.662,0,0,1-29.106,24.382c-13.56,7.71-28.726,11.889-44.126,13.905a253.618,253.618,0,0,1-28.3,1.871q-3.971,1.145-7.974,2.173a112.749,112.749,0,0,0,145.156-103.009C1501.955,553.419,1497.35,563.083,1492.229,572.48Z" transform="translate(-1274.749 -425.396)" fill="#d8e6e6"/>
    </g>
    <g id="Group_350" data-name="Group 350" transform="translate(64.413 154.592)">
      <path id="Path_38455" data-name="Path 38455" d="M1393.117,729.429c.491-6.119-1.745-14.064-2.681-20.16-.994-6.477-2.352-13.116-5.641-18.615a48.262,48.262,0,0,0-12.484-13.479,45.578,45.578,0,0,0-13.854-7.593c-9.555-2.953-20.282-1.733-29.508,1.969a38.67,38.67,0,0,0-12.49,7.908c-6.111,5.877-10.508,13.8-13.645,22.2-2.734,7.318-6.253,17.258-5.57,25.391,0,.036.007.07.01.106a112.929,112.929,0,0,0,95.762,3.155c.04-.279.075-.563.1-.857C1393.115,729.448,1393.116,729.438,1393.117,729.429Zm-89.411-1.867,0-.013c.005.019.01.035.013.047Z" transform="translate(-1297.157 -667.93)" fill="#b3b1af"/>
      <path id="Path_38456" data-name="Path 38456" d="M1319.577,872.107l.009.034c0-.012-.007-.028-.013-.047Z" transform="translate(-1313.028 -812.476)" fill="#f1efea"/>
    </g>
    <g id="Group_351" data-name="Group 351" transform="translate(80.156 154.436)">
      <path id="Path_38457" data-name="Path 38457" d="M1352.838,686.028a31.139,31.139,0,0,0,8.186,3.547,67.836,67.836,0,0,0,17.3,2.4c4.813.176,9.63.172,14.445.291a57.3,57.3,0,0,1,26.8,5.489,27.038,27.038,0,0,1,6.978,4,38.843,38.843,0,0,0-4.231-11.1,48.262,48.262,0,0,0-12.484-13.479,45.579,45.579,0,0,0-13.854-7.593c-9.555-2.953-20.282-1.733-29.508,1.969a38.67,38.67,0,0,0-12.49,7.908,43.859,43.859,0,0,0-3.827,4.208A11.041,11.041,0,0,0,1352.838,686.028Z" transform="translate(-1350.149 -667.93)" fill="#a8a6a5"/>
    </g>
    <g id="Group_366" data-name="Group 366" transform="translate(16.037 46.062)">
      <path id="Path_38458" data-name="Path 38458" d="M1365.39,313.2a16.5,16.5,0,0,0-8.105-11.9c-9.739-5.656-23.1-3.531-33.535-1.161-16.113,3.659-31.2,13.1-40.036,26.792a44.512,44.512,0,0,0-16.128-4.913,63.5,63.5,0,0,0-26.032,2.274c-13.528-19.442-50.042-33.051-69.116-13.246-4.395,4.564-6,10.632-3.224,16.4,1.582,3.29,4.409,5.782,5.769,9.2,1.771,4.454,1.529,9.4,1.482,14.082-.07,6.923.142,13.868,4.953,19.433a14.128,14.128,0,0,0,7,4.594c3.714,1,7.838-.044,11.4,1.393a79.673,79.673,0,0,0,.258,8.592c.568,10.33,4.416,20.6,12.752,27.5,9.384,7.774,24.239,13.287,36.437,14.573a70.85,70.85,0,0,0,38.836-7.345c12.127-6.063,24.18-18.243,26.717-31.6,8.636,2.388,21.6-3.251,27.3-7.9,5.644-4.608,8.941-11.155,10.976-17.9,2.614-8.671,2.186-18.022,5.755-26.421C1361.962,328.324,1366.7,321.484,1365.39,313.2Z" transform="translate(-1160.308 -297.692)" fill="#c1bfbd"/>
      <path id="Path_38459" data-name="Path 38459" d="M1176.18,359.573q0,.284,0,.567a30.7,30.7,0,0,0,3.131-9.979,15.893,15.893,0,0,0-2.064-9.138,38.3,38.3,0,0,1-2-3.825,13.705,13.705,0,0,1-.876-3.655,16.685,16.685,0,0,1,5.206-13.349c4.433-4.282,10.865-5.228,16.61-6.679a53.871,53.871,0,0,1,10.585-1.966c-12.482-3.033-25.486-1.321-34.479,8.335-4.25,4.564-5.8,10.632-3.118,16.4,1.53,3.29,4.264,5.782,5.579,9.2C1176.46,349.945,1176.226,354.89,1176.18,359.573Z" transform="translate(-1160.308 -306.538)" fill="#c7c4c2"/>
      <path id="Path_38460" data-name="Path 38460" d="M1649.323,301.845c12.14-2.662,25.838-1.453,35.938,6.364a26.827,26.827,0,0,1,7.964,11.193,19.469,19.469,0,0,0,.068-6.206,16.523,16.523,0,0,0-7.839-11.9c-9.419-5.656-22.336-3.531-32.433-1.16a66.624,66.624,0,0,0-12.865,4.455A73.119,73.119,0,0,1,1649.323,301.845Z" transform="translate(-1488.204 -297.692)" fill="#c7c4c2"/>
      <path id="Path_38461" data-name="Path 38461" d="M1412.848,399.3a56.416,56.416,0,0,0-12.46-1.165,77.1,77.1,0,0,0-10.792.6,23.169,23.169,0,0,0-19.021,16.807c-1.288,4.729.795,8.829,4.159,12.161,5.278,5.228,11.8,9.087,19.46,8.517,11.4-.849,27.9-9.359,30.509-21.568.776-3.626.252-7.407-2.343-10.189A18.62,18.62,0,0,0,1412.848,399.3Z" transform="translate(-1300.563 -368.799)" fill="#c7c4c2"/>
      <path id="Path_38462" data-name="Path 38462" d="M1371.381,359.789c4.814-1.547,9.912-5.782,14.079-7.557.1-.042.2-.079.3-.121a54.194,54.194,0,0,0-10.4,2.258,51.075,51.075,0,0,0-15.1-14.185C1365.349,345.9,1369.567,352.45,1371.381,359.789Z" transform="translate(-1294.147 -327.776)" fill="#b3b1af"/>
      <path id="Path_38463" data-name="Path 38463" d="M1611.664,384.557c-2.292,3.06-4.9,5.936-6.908,9.2-2.691,4.38-3.66,9.06-4.484,14.073-2.438,14.825-9.835,29.7-25.86,32.931a31.494,31.494,0,0,1-10.854.34c-1.683-.234-2.942.041-3.147-.606-.1.9-.083,1.882-.22,2.639-1.258,6.966-5.59,13.708-9.643,19.371a82.475,82.475,0,0,1-21.034,20.136,70.382,70.382,0,0,0,10.7-4.453c11.729-6.063,23.386-18.243,25.839-31.6,8.352,2.388,20.893-3.251,26.405-7.9,5.459-4.608,8.647-11.155,10.615-17.9,2.528-8.671,2.115-18.022,5.566-26.421,1.892-4.6,4.407-9.019,5.7-13.727C1613.517,381.979,1612.614,383.289,1611.664,384.557Z" transform="translate(-1409.871 -356.413)" fill="#b3b1af"/>
      <path id="Path_38464" data-name="Path 38464" d="M1612.6,322.713a63.978,63.978,0,0,0-20.98,9.964c-4.78,3.388-10.906,8.281-12.71,14.12-2.2,7.132,5.071,13.977,8.914,19.147,5.884,7.915,12.222,17.734,12.961,27.731.106,1.438.758,4.321,1.768,4.758,6.652,5.307,19.423-6.5,22.2-11.619,3.933-7.242,3.61-15.92,5.382-23.772,1.685-7.464,6.9-13.712,7.372-21.512C1638.382,327.21,1625.741,319.449,1612.6,322.713Z" transform="translate(-1444.553 -314.883)" fill="#f0bcbd"/>
      <path id="Path_38465" data-name="Path 38465" d="M1247.594,350.026c-3.737-2.858-6.792-6.476-10.765-9.054a54.256,54.256,0,0,0-11.632-5.442c-7.007-2.435-14.91-3.657-21.75-.048-6.994,3.691-9.138,9.743-6.333,16.694,1.47,3.644,3.574,6.927,4.7,10.717,1.488,5.008.532,9.528.562,14.582.037,6.342,4.666,12.91,9.964,16.616,4.035,2.822,9.3,3.683,12.014-1.116,2.553-4.521,1.7-10.25,3.108-15.115,2.521-8.7,8.688-15.433,16.567-20.216C1244.837,357.152,1250.316,352.108,1247.594,350.026Z" transform="translate(-1180.189 -322.842)" fill="#f0bcbd"/>
      <path id="Path_38466" data-name="Path 38466" d="M1602.552,398.542a5.987,5.987,0,0,0,1.247.765,70.108,70.108,0,0,0-1.541-22.276A51.335,51.335,0,0,0,1594,359.469a16.945,16.945,0,0,1-3.356-12.065c1.295-13.024,13.856-21.334,26.532-25.276a24.922,24.922,0,0,0-4.578.694,63.978,63.978,0,0,0-20.98,9.964c-4.78,3.388-10.906,8.281-12.71,14.12-2.2,7.132,5.071,13.977,8.914,19.147,5.884,7.915,12.222,17.734,12.961,27.731C1600.89,395.223,1601.542,398.105,1602.552,398.542Z" transform="translate(-1445.88 -314.992)" fill="#e6b4b5"/>
      <path id="Path_38467" data-name="Path 38467" d="M1265.1,350.026c-3.737-2.858-6.792-6.476-10.765-9.054a54.226,54.226,0,0,0-11.632-5.442c-7.007-2.435-14.91-3.657-21.75-.048-.106.056-.2.118-.307.176,12.961-.332,28.836,2.985,32.252,15.885,2.54,9.589-7.3,17.162-10.439,25.335-2.347,6.116-3.309,12.6-3.953,19.111a6.43,6.43,0,0,0,3.354-3.014c2.553-4.52,1.7-10.249,3.108-15.115,2.521-8.7,8.688-15.433,16.567-20.216C1262.345,357.152,1267.823,352.108,1265.1,350.026Z" transform="translate(-1197.696 -322.842)" fill="#e6b4b5"/>
      <path id="Path_38468" data-name="Path 38468" d="M1425.972,666a2.685,2.685,0,0,0-.852-1.186,2.713,2.713,0,0,0-3.644.332,30.08,30.08,0,0,1-4.273,4.163,12.416,12.416,0,0,1-2.7,1.553,18.451,18.451,0,0,1-2.161.827,3.476,3.476,0,0,0-1.837.924,2.6,2.6,0,0,0-.356,2.574,7.594,7.594,0,0,0,7.569,5,8.343,8.343,0,0,0,4.635-1.63,8.057,8.057,0,0,0,2.547-3.318,18.365,18.365,0,0,0,1.316-4.554A9.7,9.7,0,0,0,1425.972,666Z" transform="translate(-1328.943 -557.222)" fill="#e6b4b5"/>
      <path id="Path_38469" data-name="Path 38469" d="M1423.312,677.793a6.6,6.6,0,0,0-1.68,2.328,5.606,5.606,0,0,1-1.483,2.118c-1.753,1.336-3.375-.089-5.2-.265a7.27,7.27,0,0,0-4.36,1.316,7.6,7.6,0,0,0,7.567,5,8.343,8.343,0,0,0,4.635-1.63,8.059,8.059,0,0,0,2.547-3.318,18.381,18.381,0,0,0,1.316-4.554,13.513,13.513,0,0,0,.125-3.083A8.971,8.971,0,0,0,1423.312,677.793Z" transform="translate(-1329.382 -565.316)" fill="#f2bebf"/>
      <g id="Group_355" data-name="Group 355" transform="translate(47.524 64.942)">
        <g id="Group_354" data-name="Group 354">
          <g id="Group_352" data-name="Group 352" transform="translate(10.475)">
            <path id="Path_38470" data-name="Path 38470" d="M1339.972,523.376a3.458,3.458,0,0,0-3.806-3.274c-3.233.256-4.094,2.9-3.826,5.105.135,1.108,1.349,5.044,3.088,5.206C1337.741,530.628,1340.143,524.832,1339.972,523.376Z" transform="translate(-1332.294 -520.088)" fill="#4f4949"/>
            <path id="Path_38471" data-name="Path 38471" d="M1339.183,524.158c-.767-.3-1.42.338-1.717.881a2.268,2.268,0,0,0-.124,1.9c.014.043.029.086.048.128.008.02.014.041.023.061a.454.454,0,0,0,.065.107,1.378,1.378,0,0,0,.1.141.55.55,0,0,0,.5.145c.425-.121.477-.373.617-.719a5.025,5.025,0,0,1,.65-1.017C1339.7,525.286,1340,524.481,1339.183,524.158Z" transform="translate(-1335.762 -522.914)" fill="#fff"/>
            <path id="Path_38472" data-name="Path 38472" d="M1339.138,539.343a.463.463,0,1,0-.048.921A.463.463,0,1,0,1339.138,539.343Z" transform="translate(-1336.764 -533.719)" fill="#fff"/>
          </g>
          <g id="Group_353" data-name="Group 353" transform="translate(63.982 8.053)">
            <path id="Path_38473" data-name="Path 38473" d="M1523.248,551.086a3.458,3.458,0,0,0-3.678-3.418c-3.241.132-4.2,2.743-4.018,4.955.092,1.113,1.155,5.092,2.886,5.32C1520.741,558.246,1523.364,552.547,1523.248,551.086Z" transform="translate(-1515.53 -547.664)" fill="#4f4949"/>
            <path id="Path_38474" data-name="Path 38474" d="M1522.655,551.6c-.755-.334-1.432.283-1.75.814a2.269,2.269,0,0,0-.2,1.894,1.29,1.29,0,0,0,.043.129c.007.021.013.042.021.062a.461.461,0,0,0,.06.109,1.4,1.4,0,0,0,.091.145.55.55,0,0,0,.5.164c.43-.1.491-.355.644-.695a5.019,5.019,0,0,1,.689-.992C1523.129,552.746,1523.457,551.952,1522.655,551.6Z" transform="translate(-1519.112 -550.382)" fill="#fff"/>
            <path id="Path_38475" data-name="Path 38475" d="M1522.175,566.669a.463.463,0,1,0-.084.918A.463.463,0,1,0,1522.175,566.669Z" transform="translate(-1519.848 -561.117)" fill="#fff"/>
          </g>
          <path id="Path_38476" data-name="Path 38476" d="M1307.426,542.094c-2.043-4.556-7.942-2.675-10.158.722C1292,550.886,1313.255,555.093,1307.426,542.094Z" transform="translate(-1296.421 -533.757)" fill="#f0bcbd"/>
          <path id="Path_38477" data-name="Path 38477" d="M1537.085,575.321c-1.867-4.63-7.834-2.978-10.179.332C1521.336,583.516,1542.412,588.535,1537.085,575.321Z" transform="translate(-1458.932 -557.17)" fill="#f0bcbd"/>
        </g>
      </g>
      <g id="Group_356" data-name="Group 356" transform="translate(92.625 8.185)">
        <path id="Path_38478" data-name="Path 38478" d="M1449.1,325.734c.347-.1.815.382,1.512,1.087l1.219,1.262c.463.486.984,1.036,1.531,1.681a15.117,15.117,0,0,1,1.622,2.292l.173.308.163.3c.11.2.216.4.32.6.212.405.413.823.607,1.243a20.2,20.2,0,0,1,1.6,5.051,9.5,9.5,0,0,1,.088,2.781,5.052,5.052,0,0,1-.215.927,3.156,3.156,0,0,1-.316.659,1.853,1.853,0,0,1-1.834.793,2.113,2.113,0,0,1-1.764-.874,3.962,3.962,0,0,1-.556-1.3,21.888,21.888,0,0,1-.424-2.154,36.222,36.222,0,0,0-.971-4.235c-.114-.39-.228-.786-.353-1.184l-.186-.6-.183-.585a19.276,19.276,0,0,0-.813-2.1c-.314-.709-.639-1.419-.9-2.1a11.121,11.121,0,0,1-.579-1.888,5.779,5.779,0,0,1-.1-.773,3.144,3.144,0,0,1,.023-.605C1448.816,325.985,1448.929,325.786,1449.1,325.734Z" transform="translate(-1448.732 -325.721)" fill="#c1bfbd"/>
      </g>
      <g id="Group_357" data-name="Group 357" transform="translate(100.836 10.989)">
        <path id="Path_38479" data-name="Path 38479" d="M1492.405,335.764c.034.172-.1.383-.347.617s-.6.521-1.034.844a42.121,42.121,0,0,0-3.221,2.785,53.475,53.475,0,0,0-3.678,3.9c-.586.688-1.141,1.377-1.646,2.031l-.364.484c-.114.157-.212.291-.312.441-.2.288-.384.586-.562.87-.51.841-.932,1.549-1.331,2.1a4.909,4.909,0,0,1-1.122,1.183,1.925,1.925,0,0,1-2.017.15,1.874,1.874,0,0,1-1.3-1.557,4.431,4.431,0,0,1,.179-1.747,9.236,9.236,0,0,1,.445-1.247,12.233,12.233,0,0,1,.8-1.533c.237-.38.493-.776.8-1.176.146-.2.313-.406.47-.6l.479-.556a28.2,28.2,0,0,1,2.14-2.135,27.38,27.38,0,0,1,4.914-3.531,14.1,14.1,0,0,1,4.584-1.7,4.547,4.547,0,0,1,1.52,0C1492.168,335.465,1492.371,335.592,1492.405,335.764Z" transform="translate(-1475.45 -335.325)" fill="#c1bfbd"/>
      </g>
      <g id="Group_358" data-name="Group 358" transform="translate(104.749 19.618)">
        <path id="Path_38480" data-name="Path 38480" d="M1500.459,365.661c.027.356-.317.707-.741,1.142-.908.93-1.752,1.913-2.711,2.793q-.939.863-1.961,1.629a10.3,10.3,0,0,1-2.058,1.406,3.91,3.91,0,0,1-1.885.088,4.088,4.088,0,0,1-1.714-.348,1.446,1.446,0,0,1-.668-1.273,2.668,2.668,0,0,1,.345-1.251c.88-1.666,2.667-2.446,4.292-3.194a19.411,19.411,0,0,1,4.427-1.689,4.949,4.949,0,0,1,1.4-.068C1499.991,364.991,1500.436,365.32,1500.459,365.661Z" transform="translate(-1488.722 -364.874)" fill="#c1bfbd"/>
      </g>
      <g id="Group_359" data-name="Group 359" transform="translate(85.866 12.891)">
        <path id="Path_38481" data-name="Path 38481" d="M1426.424,341.919c.283-.212.864.009,1.645.477a26.278,26.278,0,0,1,2.86,2.077,30.2,30.2,0,0,1,3.314,3.133,17.161,17.161,0,0,1,2.63,3.77,7.224,7.224,0,0,1,.749,2.422q.023.254.024.477a3.945,3.945,0,0,1-.031.422,2.332,2.332,0,0,1-.183.674,1.548,1.548,0,0,1-.31.469,1.53,1.53,0,0,1-.4.3,2.6,2.6,0,0,1-.968.245,2.451,2.451,0,0,1-2.436-.974,3.046,3.046,0,0,1-.186-.26,14.193,14.193,0,0,1-.821-1.519c-.441-.9-1.063-2.008-1.8-3.186s-1.561-2.42-2.289-3.6a20.237,20.237,0,0,1-1.68-3.187C1426.2,342.769,1426.145,342.128,1426.424,341.919Z" transform="translate(-1426.246 -341.838)" fill="#c1bfbd"/>
      </g>
      <g id="Group_360" data-name="Group 360" transform="translate(92.555 8.185)">
        <path id="Path_38482" data-name="Path 38482" d="M1452.378,338.155a23.576,23.576,0,0,0,1.015-3.787,15.034,15.034,0,0,0,0-4.567l-.03-.037c-.547-.645-1.068-1.2-1.531-1.681l-1.219-1.262c-.7-.7-1.166-1.187-1.512-1.087-.168.052-.281.251-.339.594a3.144,3.144,0,0,0-.023.605,5.779,5.779,0,0,0,.1.773,11.121,11.121,0,0,0,.579,1.888c.265.679.589,1.388.9,2.1a19.276,19.276,0,0,1,.813,2.1l.183.585.186.6c.125.4.239.794.353,1.184C1452.055,336.848,1452.228,337.517,1452.378,338.155Z" transform="translate(-1448.732 -325.721)" fill="#cfccca"/>
      </g>
      <g id="Group_361" data-name="Group 361" transform="translate(104.309 10.989)">
        <path id="Path_38483" data-name="Path 38483" d="M1488.948,341.908a36.221,36.221,0,0,0,4.552-1.8c2.4-1.083,5.133-2.5,6.786-4.678-.055-.017-.114-.033-.18-.047a4.547,4.547,0,0,0-1.52,0,14.1,14.1,0,0,0-4.584,1.7,27.381,27.381,0,0,0-4.914,3.531c-.676.606-1.313,1.24-1.908,1.884A13.3,13.3,0,0,1,1488.948,341.908Z" transform="translate(-1487.18 -335.325)" fill="#cfccca"/>
      </g>
      <g id="Group_362" data-name="Group 362" transform="translate(111.508 19.618)">
        <path id="Path_38484" data-name="Path 38484" d="M1511.524,365.744a5.163,5.163,0,0,0,3.279,2.173c.349-.373.7-.748,1.054-1.114.424-.435.768-.786.741-1.142-.024-.341-.468-.67-1.279-.765a4.949,4.949,0,0,0-1.4.068,11.6,11.6,0,0,0-2.407.769Z" transform="translate(-1511.516 -364.874)" fill="#cfccca"/>
      </g>
      <g id="Group_363" data-name="Group 363" transform="translate(85.795 12.891)">
        <path id="Path_38485" data-name="Path 38485" d="M1432.861,350.5c.092-1.5.076-3.913-1.065-5.039a.583.583,0,0,1-.186-.408c-.229-.2-.458-.391-.682-.574a26.278,26.278,0,0,0-2.86-2.077c-.781-.468-1.362-.689-1.645-.477s-.221.85.117,1.738a20.237,20.237,0,0,0,1.68,3.187c.727,1.18,1.556,2.423,2.289,3.6.72,1.149,1.328,2.233,1.767,3.12A11.868,11.868,0,0,0,1432.861,350.5Z" transform="translate(-1426.246 -341.838)" fill="#cfccca"/>
      </g>
      <g id="Group_365" data-name="Group 365" transform="translate(0 69.487)">
        <path id="Path_38486" data-name="Path 38486" d="M1236.087,557.338c-1.315-8.376-8.464-12-16.113-13.43a37.141,37.141,0,0,0-13.094-.313,26.908,26.908,0,0,0-6.029,1.771c-1.922.824-3.472,2.006-5.681,1.9-2.709-.135-4.256-1.831-6.08-3.585-2.939-2.828-5.8-5.561-9.7-6.976-9.425-3.413-16.752,2.1-23.8,7.668a16.773,16.773,0,0,1-5.8,3.377c-1.607.469-3.141.574-4.632,1.45a5.905,5.905,0,0,0-2.95,6.6c1.234,5.658,8.93,12.048,14.8,11.775,3.292-.153,4.724-2.1,6.681-4.331,1.036-1.179.546-2.39,3.065-2.779,1.837-.284,3.8,2.382,4.525,3.5,1.115,1.712,1.483,3.592,2.857,5.216,5.756,6.8,16.261,8.082,24.441,9.747,9.365,1.907,19.444,4.634,27.869-1.44C1232.723,572.961,1237.326,565.236,1236.087,557.338Z" transform="translate(-1142.052 -535.65)" fill="#cfccca"/>
        <path id="Path_38487" data-name="Path 38487" d="M1228.007,628.742a41.16,41.16,0,0,1-11.647-5.562c-2.814-2.029-5.055-5.032-7.924-6.893-4.893-3.175-8.183,2.138-10.58,5.712-.45.671-.9,1.287-1.363,1.86,2.64-.451,3.986-2.217,5.744-4.219,1.036-1.179.546-2.39,3.065-2.779,1.836-.284,3.8,2.382,4.525,3.5,1.115,1.712,1.482,3.592,2.857,5.216,5.756,6.8,16.261,8.082,24.441,9.747,9.259,1.885,19.212,4.557,27.578-1.252C1252.493,635.743,1239.665,632.467,1228.007,628.742Z" transform="translate(-1180.596 -592.051)" fill="#b5b2b1"/>
        <path id="Path_38488" data-name="Path 38488" d="M1163.5,596.922a11.007,11.007,0,0,0-1.644-4.208c-1.533-2.623-4.328-5.709-7.681-5.373a4.81,4.81,0,0,0-4.265,3.906,6.333,6.333,0,0,0,1.606,4.88,17.14,17.14,0,0,0,5.95,4.863,3.914,3.914,0,0,0,3.321.532C1162.781,600.993,1163.715,598.812,1163.5,596.922Z" transform="translate(-1147.576 -572.229)" fill="#9c9a99"/>
        <path id="Path_38489" data-name="Path 38489" d="M1155.73,599.339a10.63,10.63,0,0,1-3.888-8.859,4.634,4.634,0,0,0-1.927,3.008,6.333,6.333,0,0,0,1.606,4.88,17.139,17.139,0,0,0,5.95,4.863,3.914,3.914,0,0,0,3.321.532,3.425,3.425,0,0,0,2.054-1.6A12.217,12.217,0,0,1,1155.73,599.339Z" transform="translate(-1147.576 -574.469)" fill="#b0aead"/>
        <g id="Group_364" data-name="Group 364" transform="translate(13.337 3.209)">
          <path id="Path_38490" data-name="Path 38490" d="M1346.855,565.144l1.29.154c.981.124,2.224.267,3.757.6a22.239,22.239,0,0,1,3.338.989,21.8,21.8,0,0,1,3.459,1.706,30.754,30.754,0,0,1,3.32,2.283,26.286,26.286,0,0,1,2.849,2.631,30.292,30.292,0,0,1,2.226,2.7l.456.639c.15.205.281.415.416.611.272.393.505.771.726,1.112s.407.657.584.928l.447.7c.252.381.421.578.485.549s.02-.283-.114-.725c-.067-.221-.154-.489-.276-.793s-.251-.656-.427-1.032-.358-.795-.588-1.229c-.114-.217-.224-.448-.355-.676l-.4-.708a25.8,25.8,0,0,0-2.091-3.014,24.8,24.8,0,0,0-2.849-2.979,29.137,29.137,0,0,0-3.41-2.58,21.8,21.8,0,0,0-3.719-1.97,21.705,21.705,0,0,0-6.193-1.517,26.837,26.837,0,0,0-4.491,1.354,5.714,5.714,0,0,0,.615.137C1346.171,565.052,1346.485,565.092,1346.855,565.144Z" transform="translate(-1299.28 -558.586)" fill="#b5b2b1"/>
          <path id="Path_38491" data-name="Path 38491" d="M1332.506,573.879c1.63.464,3.563.941,5.416,1.66a20.133,20.133,0,0,1,6.959,4.708c.282.282.521.571.756.835.112.135.214.27.317.4s.2.25.285.373c.709.962,1.037,1.638,1.184,1.589.12-.034.043-.827-.5-1.993a4.858,4.858,0,0,0-.226-.449c-.085-.153-.17-.315-.266-.478-.2-.318-.415-.665-.674-1a16.518,16.518,0,0,0-1.839-2.1,19.68,19.68,0,0,0-2.414-1.989c-.442-.31-.905-.6-1.383-.875-.237-.139-.488-.261-.731-.392s-.493-.234-.739-.35a41.108,41.108,0,0,0-5.59-1.89c-.6-.165-1.129-.311-1.6-.439a10.757,10.757,0,0,1-2.724,1.045c.257.132.557.27.906.411A27.211,27.211,0,0,0,1332.506,573.879Z" transform="translate(-1287.557 -564.226)" fill="#b5b2b1"/>
          <path id="Path_38492" data-name="Path 38492" d="M1312.424,571.648a.953.953,0,0,0,.146.252,2.134,2.134,0,0,0,.274.3c.229.225.559.49,1.02.858s1.054.839,1.85,1.45c.275.209.565.429.878.655.154.113.319.226.483.341l.5.335c.64.413,1.289.881,1.934,1.377a31.683,31.683,0,0,1,3.567,3.263c2.1,2.225,3.5,4.242,3.757,4.086.117-.07-.073-.668-.523-1.583a23.108,23.108,0,0,0-2.13-3.426,24.731,24.731,0,0,0-3.474-3.784,23.832,23.832,0,0,0-2.014-1.585l-.464-.33-.44-.326-.842-.641c-.163-.125-.32-.243-.474-.357a5.679,5.679,0,0,1-.711.011,6.273,6.273,0,0,1-3.371-1.185A.555.555,0,0,0,1312.424,571.648Z" transform="translate(-1275.984 -564.141)" fill="#b5b2b1"/>
          <path id="Path_38493" data-name="Path 38493" d="M1205.532,548.663a15.988,15.988,0,0,1,3.187.1,10.493,10.493,0,0,1,3.117,1.179c.97.523,1.822,1.068,2.461,1.435s1.065.559,1.156.451-.161-.5-.653-1.063a15.588,15.588,0,0,0-2.18-2.03,9.994,9.994,0,0,0-3.5-1.805,10.768,10.768,0,0,0-1.984-.295c-1.063.627-2.107,1.319-3.137,2.05C1204.419,548.7,1204.927,548.687,1205.532,548.663Z" transform="translate(-1199.245 -546.639)" fill="#b5b2b1"/>
          <path id="Path_38494" data-name="Path 38494" d="M1189.847,561.319a11.509,11.509,0,0,1,3.565.94,16.153,16.153,0,0,1,3.472,2.1,22.88,22.88,0,0,1,2.434,2.233c.587.613.952,1.007,1.078.934s-.018-.6-.435-1.4a12.775,12.775,0,0,0-2.113-2.84,14.386,14.386,0,0,0-3.623-2.718,12.234,12.234,0,0,0-2.123-.872,10.511,10.511,0,0,0-1.86-.381c-.778.595-1.55,1.2-2.319,1.809l-.2.156.263-.006A14.678,14.678,0,0,1,1189.847,561.319Z" transform="translate(-1187.724 -555.614)" fill="#b5b2b1"/>
        </g>
      </g>
    </g>
    <g id="Group_367" data-name="Group 367" transform="translate(64.413 194.039)">
      <path id="Path_38495" data-name="Path 38495" d="M1525.858,803.017c-4.571-.008-8.576,2.3-11.786,5.406a25.544,25.544,0,0,0-4.321,5.5,25.954,25.954,0,0,0-2.538,6.724,47.23,47.23,0,0,0-1.33,14.043,112,112,0,0,0,34.863-8.732c.04-.279.075-.563.1-.857,0-.01,0-.019,0-.029.469-5.839-1.545-13.339-2.543-19.31C1534.161,804.763,1530.154,803.024,1525.858,803.017Z" transform="translate(-1444.887 -803.017)" fill="#a8a6a5"/>
      <path id="Path_38496" data-name="Path 38496" d="M1336.668,826.645a30.44,30.44,0,0,0-3.9-11.795,20.459,20.459,0,0,0-9.268-7.906,34.32,34.32,0,0,0-23.312-1.387c-1.887,5.87-3.411,12.33-2.94,17.933,0,.036.007.07.01.106a111.925,111.925,0,0,0,40.04,11.746A71.963,71.963,0,0,0,1336.668,826.645Z" transform="translate(-1297.157 -803.815)" fill="#a8a6a5"/>
      <path id="Path_38497" data-name="Path 38497" d="M1319.577,872.107l0-.013c.005.019.01.035.013.047Z" transform="translate(-1313.028 -851.923)" fill="#a8a6a5"/>
      <path id="Path_38498" data-name="Path 38498" d="M1319.577,872.107l.009.034c0-.012-.007-.028-.013-.047Z" transform="translate(-1313.028 -851.923)" fill="#a8a6a5"/>
    </g>
  </g>
  <g id="Group_370" data-name="Group 370" transform="translate(50.623 194.784)">
    <path id="Path_38499" data-name="Path 38499" d="M1301.526,829.514c-.294-4.921-2.756-10.282-5.006-13.818-5.955-9.361-17.293-12.564-27.641-8.22-5.751,2.414-17.148,12.064-13.925,19.43,1.878,4.29,7.2,5.406,11.152,6.931,7.461,2.877,15.565,6.394,23.65,6.764a12.718,12.718,0,0,0,6.844-1.138C1300.558,837.264,1301.766,833.536,1301.526,829.514Z" transform="translate(-1254.39 -805.566)" fill="#cfccca"/>
    <path id="Path_38500" data-name="Path 38500" d="M1315.084,819.058a14.109,14.109,0,0,0-4.263-5.288,11.778,11.778,0,0,0-14.279-.028c-2.41,1.761-6.524,7.336-3.987,10.084,1.478,1.6,4.163,1.406,6.253,1.56,3.944.29,8.281.772,12.181-.091a6.661,6.661,0,0,0,3.1-1.352A4.1,4.1,0,0,0,1315.084,819.058Z" transform="translate(-1280.845 -809.658)" fill="#d9d6d4"/>
    <path id="Path_38501" data-name="Path 38501" d="M1321,834.719c-.294-4.921-2.756-10.282-5.006-13.819a21.725,21.725,0,0,0-8.887-7.983,19.848,19.848,0,0,1,5.873,11.566c.552,4.042-.576,8.631-4.549,10.5a24.565,24.565,0,0,1-6.524,1.616c-2.855.473-5.684.962-8.574,1.181a74.616,74.616,0,0,1-11.436-.057c1.265.463,2.532.873,3.683,1.317,7.461,2.877,15.565,6.394,23.65,6.764a12.717,12.717,0,0,0,6.844-1.138C1320.033,842.469,1321.242,838.741,1321,834.719Z" transform="translate(-1273.865 -810.771)" fill="#c2bfbe"/>
    <g id="Group_369" data-name="Group 369" transform="translate(0.322 16.478)">
      <path id="Path_38502" data-name="Path 38502" d="M1266.635,865.918a5.776,5.776,0,0,0-7.535-3.515,6.544,6.544,0,0,0-3.606,3.811,6.788,6.788,0,0,0,.242.643c1.659,3.791,6.009,5.1,9.726,6.41A8.616,8.616,0,0,0,1266.635,865.918Z" transform="translate(-1255.494 -861.996)" fill="#ebe5df"/>
      <path id="Path_38503" data-name="Path 38503" d="M1309.248,881.17a5.651,5.651,0,0,0-8.65-.76,8.661,8.661,0,0,0-2.283,5.672c3.463,1.349,7.055,2.793,10.712,3.965a4.961,4.961,0,0,0,.489-.625A7.78,7.78,0,0,0,1309.248,881.17Z" transform="translate(-1285.811 -873.859)" fill="#ebe5df"/>
      <path id="Path_38504" data-name="Path 38504" d="M1360.358,895.175a5.8,5.8,0,0,0-6.515-2.449,8.094,8.094,0,0,0-4.3,4.05,12.031,12.031,0,0,0-1.384,4.1,42.669,42.669,0,0,0,6.2,1.127v-.019l.017-.095a1.132,1.132,0,0,1,.022.118c.581.057,1.161.1,1.742.129a16.158,16.158,0,0,0,4.959-.383A8.442,8.442,0,0,0,1360.358,895.175Z" transform="translate(-1321.097 -883.576)" fill="#ebe5df"/>
    </g>
  </g>
  <g id="Group_378" data-name="Group 378" transform="translate(124.506 197.994)">
    <g id="Group_372" data-name="Group 372">
      <g id="Group_371" data-name="Group 371">
        <path id="Path_38505" data-name="Path 38505" d="M1541.26,833.867c-1.84-12.17-11.773-19.826-25.129-16.549-8.957,2.2-15.725,8.907-17,17.51a35.871,35.871,0,0,0,.245,10.548c1.319,8.7,14.4,3.567,20.3,2.934,6.113-.657,15.944.394,20.285-4.679C1542.183,841.034,1541.719,836.9,1541.26,833.867Z" transform="translate(-1498.845 -816.558)" fill="#cfccca"/>
      </g>
    </g>
    <g id="Group_374" data-name="Group 374" transform="translate(3.659 2.72)">
      <g id="Group_373" data-name="Group 373">
        <path id="Path_38506" data-name="Path 38506" d="M1533.218,829.007c-.021-.034-.041-.069-.063-.1-1.576-2.5-5.025-3.309-7.781-2.949a20.624,20.624,0,0,0-12.892,8.772c-1.467,2.679-2.214,9.737,2.625,9.445,2.667-.161,5.675-2.482,7.944-3.747,2.754-1.535,5.477-3.133,8.09-4.9C1533.267,834.088,1534.634,831.393,1533.218,829.007Z" transform="translate(-1511.375 -825.874)" fill="#d9d6d4"/>
      </g>
    </g>
    <g id="Group_376" data-name="Group 376" transform="translate(8.611 1.076)">
      <g id="Group_375" data-name="Group 375">
        <path id="Path_38507" data-name="Path 38507" d="M1562.138,836.475c-1.194-7.9-5.8-13.891-12.529-16.233a14.1,14.1,0,0,1,5.906,7.308c1.375,3.6,1.785,8.154-.026,11.69-2.479,4.84-6.994,7.305-11.908,9.122a147.378,147.378,0,0,1-15.247,4.61c4.256-.213,9.188-1.728,12.219-2.054,6.113-.657,15.944.394,20.285-4.679C1563.061,843.642,1562.6,839.506,1562.138,836.475Z" transform="translate(-1528.334 -820.242)" fill="#c2bfbe"/>
      </g>
    </g>
    <g id="Group_377" data-name="Group 377" transform="translate(4.912 18.464)">
      <path id="Path_38508" data-name="Path 38508" d="M1524.115,900.32a6.337,6.337,0,0,0-7.353,2.505c-1.265,1.9-1.171,4.161-.989,6.344,3.443.761,8.2-.341,12.055-1.153a5.081,5.081,0,0,0,.133-.8C1528.18,904.5,1526.747,901.354,1524.115,900.32Z" transform="translate(-1515.667 -894.058)" fill="#ebe5df"/>
      <path id="Path_38509" data-name="Path 38509" d="M1577.127,897.5c-.981-2.651-3.407-5.485-6.4-5.759-5.09-.467-6.511,5.932-5.175,9.919.357-.058.7-.105,1.014-.14,3.084-.331,7.114-.229,10.908-.7A5.952,5.952,0,0,0,1577.127,897.5Z" transform="translate(-1550.653 -888.235)" fill="#ebe5df"/>
      <path id="Path_38510" data-name="Path 38510" d="M1615.938,884.3a10.393,10.393,0,0,0,.4,7.5,11.479,11.479,0,0,0,6.149-3.4c1.743-2.036,1.833-5.019,1.57-7.674a5.081,5.081,0,0,0-.717-.448C1620.106,878.637,1617.065,881.428,1615.938,884.3Z" transform="translate(-1586.285 -879.789)" fill="#ebe5df"/>
    </g>
  </g>
</svg>
