<?xml version="1.0" encoding="utf-8"?>
<!-- Generator: Adobe Illustrator 25.3.1, SVG Export Plug-In . SVG Version: 6.00 Build 0)  -->
<svg version="1.1" id="圖層_1" xmlns="http://www.w3.org/2000/svg" xmlns:xlink="http://www.w3.org/1999/xlink" x="0px" y="0px"
	 viewBox="0 0 220.3 1052.9" style="enable-background:new 0 0 220.3 1052.9;" xml:space="preserve">
<style type="text/css">
	.st0{fill:#33B145;}
	.st1{fill:#AFA035;}
	.st2{fill:#0B4D16;}
	.st3{fill:#44A256;}
	.st4{fill:#2F8E3D;}
	.st5{fill:#2A7F37;}
	.st6{fill:#62852F;}
	.st7{fill:#08811D;}
	.st8{fill:#0FDD32;}
	.st9{fill:#026D15;}
	.st10{fill:#16541F;}
	.st11{fill:#0F9526;}
	.st12{fill:#3F6608;}
	.st13{fill:#77B82B;}
	.st14{fill:#1E6428;}
	.st15{fill:#2A7C34;}
	.st16{fill:#298037;}
	.st17{fill:#0F531A;}
	.st18{fill:#65D375;}
	.st19{fill:#7BA275;}
	.st20{fill:#699728;}
	.st21{fill:#CCD591;}
	.st22{fill:#FFFFFE;}
	.st23{fill:#0BA537;}
	.st24{fill:#5F8C22;}
	.st25{fill:#5DA872;}
	.st26{fill:#F5F8F5;}
	.st27{fill:#ADA736;}
</style>
<g id="圖層_2_1_">
	<g id="OBJECTS">
		<path class="st0" d="M90.6,27c2-0.7,3.7-2.2,4.8-4c4.7,2.4,9.6,4.5,14.6,6.2c4.5,1.5,8.8,3.4,13.2,5.2c4.1,1.5,8.1,3.6,11.7,6.1
			c0.8,0.7,1.6,1.5,2.3,2.3c-1.7,2.5-2,2.5-4.4,1.9c-5.6-1.5-11.1-3.6-16.3-6c-1.9-0.8-3.7-1.8-5.6-2.8c-0.6-0.3-1.2-0.5-2.2-0.9
			c0.4,0.8,0.4,1.2,0.7,1.4c3,2.3,6.2,4.4,9.2,6.8c2.7,2.2,5.8,2.6,9.1,2.9c5.8,0.5,11.7,0.9,17.4,2.6c2.5,0.8,5.2,1.2,7.1,3.4
			c0.8,0.9,1.5,1.9,1,3.1c-0.4,1.1-1.6,1.9-2.8,1.8c-2.2-0.1-4.4-0.4-6.6-0.9c-2.4-0.5-4.7-1.3-7.6-2.1c0.5,0.8,0.6,1.2,0.9,1.4
			c2.5,1.6,5.1,3.1,7.6,4.6c2.2,1.3,4.8,1.1,7.2,1.6c5.3,0.9,10.8,0.6,15.9,2.6c2,0.8,3.9,1.8,5.7,3c1.2,0.6,1.7,2,1.1,3.2
			c-0.8,1.2-2.2,1.9-3.6,1.7c-1.3-0.3-2.7-0.5-4-0.6c0.6,0.7,1.2,1.3,1.9,1.9c3.1,2,5,5,7.1,7.9c0.3,0.4,0.5,0.9,0.5,1.4
			c0,0.9,0.2,2-0.3,2.5c-0.9,0.8-2.1,0.8-3,0c-3.9-2.8-7.8-5.7-11.6-8.5c-0.9-0.8-2-1.4-3.2-1.8c0.2,0.6,0.3,1.1,0.5,1.6
			c1.1,2.8,2.3,5.5,3.4,8.3c0.2,0.5,0.3,1.1,0.4,1.7c0,1.8-1.4,2.6-2.8,1.5c-2.2-1.7-4-3.9-5.3-6.4c-2.7-4.8-5.8-9.4-8-14.3
			c-1.4-3-3.8-5.4-6.7-6.8c-1.5-1-3.2-1.8-4.9-2.5c0,0.3,0.1,0.6,0.3,0.8c3.7,4.8,6.7,10.1,8.6,15.9c0.9,2.4,0.4,3.3-2.2,4.4
			c-2.2-1.2-3.7-3.2-5.5-5c-3.7-3.8-5.5-8.7-8.4-12.9c-2.4-3.6-4.9-7.1-7.4-10.6c-0.3-0.5-0.8-1-0.9-1.5c-0.1-1.8-1.4-2.7-2.7-3.6
			c-3.9-2.4-7.6-5.3-11-8.4c-0.1-0.1-0.4-0.1-0.9-0.3c0.1,0.6,0,1.1,0.3,1.4c3.1,4.2,5.8,8.7,8.1,13.4c2.5,4.3,4.5,8.9,6,13.6
			c0.3,0.9,0.4,1.8,0.4,2.7c0,0.8-0.4,1.5-1,2.1c-0.9,0.5-2.1,0.3-2.8-0.4c-1.4-1.3-2.6-2.8-3.8-4.2c-3.1-4.3-5.7-8.9-7.9-13.8
			c-1.2-2.6-2.6-5-4-7.5c-2-3.6-3.9-7.3-5.9-10.9C93,31,91.8,29,90.6,27z"/>
		<path class="st1" d="M45.6,293.5c-0.5,0.7-1.1,1.4-1.6,2.2c-1.7,2.8-3.1,5.7-5,8.3c-1.6,2.1-3.4,4.1-5.5,5.8
			c-3.4,3.1-5.3,7-6.4,11.3c-0.4,1.4-0.8,2.9-1,4.4s0.2,2,1.4,2.1c6.1,1.1,12.1,2.7,18,4.8c5.3,1.8,10.7,3.5,16,5.4
			c3.1,1.2,6.1,2.5,9.1,4c4,1.9,7.8,4,11.7,6.1c0.2,0.1,0.3,0.1,0.4,0.2c3.2,2.1,3.3,3.6,1.4,6.6c-1.1,1.7-2.4,3.4-3.8,4.9
			c-3,3.3-6,6.7-9.3,9.7c-2.9,2.7-6.2,4.9-9.4,7.3c-1.9,1.4-3.9,2.9-5.9,4.2c-2.9,1.9-5.9,3.7-8.9,5.4c-1.4,0.8-2,1.6-1.8,3.1
			c0.2,1.2,0.3,2.5,0.4,3.7c0.2,1,0.2,2,0.1,3c-0.7,4.1-0.8,8.3-1.7,12.5c-1.2,5.9-3.6,11.6-6.9,16.6c-2.3,3.5-4.7,7-8.2,9.6
			c-1.5,1.1-2.5,2.7-4,3.7c-4.8,3.4-9.9,6.6-15.7,8.6c-2.8,1-5.6,2-8.4,3V222.5c1.4,0.3,1.3,1.6,1.5,2.5c0.4,1.9,0.6,3.9,1,5.9
			c0.8,4.1,1.8,8.2,2.4,12.4c0.8,5.1,1.2,10.3,2.2,15.5c1,5.3,1.5,10.7,3.5,15.7c0.6,1.9,1.5,3.7,2.7,5.3c1.5,2,4.3,2.4,6.3,1
			c0.6-0.4,1-1,1.3-1.6c0.8-1.3,1.3-2.8,1.5-4.4c0.5-5.1,0.9-10.2,1-15.3c-0.1-2.9-0.4-5.8-0.9-8.6c-0.8-5.5-1.1-11.2-2.8-16.6
			c-0.4-0.7-0.3-1.5,0.3-2.1l1.1,2.1c2.1,3.7,4,7.6,5.5,11.6c1,2.9,2.1,5.7,3.2,8.6c1.1,3,2.4,6,3.5,9.1c1.9,5.4,4,10.7,5.5,16.2
			C40.7,284.7,42.8,289.3,45.6,293.5z M45.9,335.5c-1.8,2.2-3.3,4-4.9,5.8c-2,2.3-4.2,4.5-6.2,6.8c-1.3,1.5-2.1,2.9-0.8,4.9
			c0.5,1,0.9,2,1.2,3c0.6,1.6,1,1.7,2.7,1.4c1.5-0.3,3.1-0.6,4.6-0.9c2.8-0.5,5.8-0.5,8-2.9c0.3-0.3,0.8-0.4,1.1-0.6
			c1.1-0.6,2.1-1.3,3-2.2c2.4-3.1,4.7-6.4,7.2-9.9C56.3,338.8,50.9,337.3,45.9,335.5L45.9,335.5z M37.5,360.3
			c0.3,1.3,0.7,2.6,1.2,3.8c1,1.8,1.3,4,3.4,5.3c3.2,2,6.1,4.6,9.1,6.8c0.9,0.7,2,1.2,2.9,1.8c3-2.1,6-4,8.8-6
			c1.6-1.1,3-2.3,4.4-3.6c1.8-1.7,1.6-2.1-0.5-3.1c-0.6-0.3-1.2-0.6-1.8-0.9c-4.5-1.8-8.9-3.8-13.4-5.5c-1.2-0.4-2.6-0.6-3.9-0.4
			C44.5,359,41.3,359.6,37.5,360.3z M55.9,357.3l15.8,7.1c3.8-3.8,7.3-7.8,10.6-12c-0.6-0.2-0.9-0.4-1.2-0.3
			C72.8,353.7,64.7,355.4,55.9,357.3L55.9,357.3z M26.5,330.4c0.9,5.9,2.6,11.6,5.2,17c3.4-4.8,8.1-7.9,10.9-13
			C37.1,332.9,32.3,330.9,26.5,330.4z M55.9,354c7.8-1.4,15.4-2.5,23.3-4.9c-4.5-3-9.3-4.5-13.7-6.5c-1.1-0.5-1.8,0.4-2.3,1.1
			C60.8,347.1,58.4,350.5,55.9,354z M15.2,301.3c2.2,0,3.7-1.2,3.7-3.1c0.1-2.4-1.9-3.3-4.5-3.6c-1.5-0.2-3.1,1.6-3.2,3.1
			c0,2,1.7,3.7,3.8,3.6C15.1,301.4,15.2,301.4,15.2,301.3L15.2,301.3z M43.1,374c0.8,3.3,0.5,6.5,1.9,9.5c1.8-1,3.4-1.8,4.8-2.7
			c1-0.6,1-1.4,0.1-2.2c-1.4-1.2-2.8-2.3-4.3-3.4C44.8,374.8,43.9,374.4,43.1,374z M26.2,304.8c1.5,0,2.4-1,2.5-2.8
			c0.2-2-1.2-3.8-3.2-4c-0.1,0-0.2,0-0.3,0c-1.7,0.1-3.1,1.6-3,3.3C22.1,303.3,23.7,304.7,26.2,304.8z M15.1,313
			c1.8,0.1,3.5-1.1,4-2.9c0.4-1.3-0.2-2.8-1.5-3.3c-1.5-0.6-3.3-0.1-4.2,1.3c-0.1,0.1-0.2,0.3-0.3,0.4c-0.5,0.9-1.4,1.9-0.4,2.9
			C13.5,312.1,14.2,312.6,15.1,313z"/>
		<path class="st0" d="M25.3,541c-1.1,0.8-1.1,1.7-0.9,2.8c0,1.5,1,2.7,2.5,3.1c1.1,0.4,2.2,0,2.8-1l0.8-1.3
			c0.3,0.3,0.8,0.6,0.9,0.9c0.4,1.2,0.7,2.4,1,3.6c1,4,2.2,8,3.1,12c0.9,3.8,1.7,7.6,2.3,11.4c0.4,2.6,0.6,5.3,0.6,7.9
			c-0.1,1.5-0.2,3-0.5,4.4c-0.2,1.8-0.2,3.6-0.6,5.4c-0.7,3.5-4.3,6-7.4,5.1c-1.9-0.5-3.7-1.4-5.2-2.8c-1.7-1.6-3.1-3.5-4.2-5.5
			c-2.4-4.6-5.2-9.1-7.7-13.7c-1.3-2.3-2.4-4.7-3.4-7.2c-1.9-5-3.9-10-5.5-15.2c-1.2-4-1.8-8.2-2.7-12.4c-0.1-0.4-0.6-0.8-1-1.2
			v-106c0.6,0.6,1.1,1.3,1.6,2.1c2.2,5.6,4.4,11.1,6.4,16.8c2.5,6.9,3.6,14.1,5.2,21.3c1.9,8.5,4.1,17,6.5,25.3
			c1.1,3.6,3,7,4.8,10.4c1,1.9,2.6,3.3,4.5,4.2c2.2,1,3.5,0.5,4.1-1.9c0.2-1,0.3-2,0.3-3c0.2-8.2-0.9-16.5-3.4-24.3
			c-0.4-1.1-0.5-2.3-0.4-3.5c1.4,2.8,2.8,5.6,4.1,8.4c3.5,7.9,7.6,15.4,12.3,22.6c1.9,2.8,4.2,5.4,6.8,7.6c1.1,0.9,2.3,1.6,3.6,2.1
			c2.8,1.1,4.9-0.4,5-3.4c0-0.4,0.1-0.8,0.1-1.2c0.2,0.1,0.5,0.2,0.6,0.3c3,4.7,5.9,9.4,8.9,14.1c2.4,3.8,4.7,7.6,7,11.5
			c2.5,4.1,5.2,8.1,7.5,12.2c1.4,2.6,2.7,5.3,3.8,8.1c2.4,5.5,3.9,11.1,3.5,17.2c-0.2,3-3.5,5.8-6.4,5.1c-3.2-0.7-6.2-1.9-9-3.5
			c-2.6-1.6-5.1-3.4-7.5-5.3c-3.5-2.7-6.6-5.8-9.2-9.3c-2.5-3.3-5.1-6.5-7.6-9.8c-4-5.3-8-10.5-11.9-15.8c-2.4-3.3-4.5-6.9-6.8-10.4
			c-3.6-5.2-7-10.7-10-16.3c-0.6-1.1-1.2-2.2-1.9-3.3c-0.1,1.3,0,2.6,0.3,3.9c0.7,2.8,1.4,5.6,2,8.5c0.6,2.6,1.1,5.2,1.7,7.8
			c0.9,3.8,1.9,7.5,2.8,11.3C28.4,540.2,26.9,539.9,25.3,541z M21.2,554.3c0-1.3-2.3-3.2-3.8-3c-1.7,0-3,1.3-3,3v0.1
			c0.2,2.1,2,3.6,4.1,3.5l0,0C19.9,557.8,21.3,555.9,21.2,554.3L21.2,554.3z M11.6,539.3c0,1.1,2.2,2.8,3.7,2.8s2.8-1.2,2.8-2.8
			v-0.1c0-1.8-1.4-3.2-3.2-3.2c-0.1,0-0.1,0-0.2,0C13,536.2,11.7,537.6,11.6,539.3L11.6,539.3z"/>
		<path class="st2" d="M101,88.5c0.2,1,0.3,2,0.5,2.9c1,4.1-1.6,8.2-5.7,9.1c-3.4,0.7-6.8,1.6-10.3,1.1c-0.7,0-1.3,0.1-2,0.3
			c-2.1,0.2-4.3-0.5-6.2,0.9c-0.2,0.1-0.5,0-0.7,0l-6.4-0.3h-5l-6.4-0.4l-2.1-0.1c-3.3-0.6-5.7-2.6-6-5.4c-0.3-2-0.3-4,0-6
			c0.5-2.4-0.2-4.6-0.8-6.8c-0.4-1-0.9-1.9-1.4-2.8c-0.5,0.6-0.9,0.9-1,1.2c-0.4,1.4-0.7,2.9-0.8,4.4c0.1,3.8,0.4,7.6,0.8,11.4
			c0.3,3.3-0.8,4.4-3.9,3.4l-9-2.9L32,97.6l-2.9-1l-1.4-0.7c-1.8-1.4-2.4-3.8-1.5-5.8c0.1-0.5,0.1-1,0.1-1.5c0.7-2.3,1-4.7,0.8-7.1
			c-0.3-2.8-1-5.4-4-7.5c0.1,2,0.1,3.6,0.4,5.1c0.4,2.3,1,4.6,0.6,7.1c-0.4,2.2-0.7,4.5-2.4,6.2c-0.7,0.8-1.6,1.4-2.6,1.6
			c-1.6,0.2-3.3,0.1-4.9-0.3c-3.8-1.1-7.3-2.8-10.5-5.1l-3-2.4V35.7c0.5,0.4,1.2,0.7,1.5,1.2c2.7,5.8,5.5,11.5,8,17.4
			c2.4,5.7,4.4,11.5,6.6,17.2c0.3,0.9,0.8,1.7,1.2,2.5l0.5-0.2c0.1-0.4,0.1-0.7,0-1.1c-0.8-2.5-1.5-4.9-2.4-7.3
			c-2.1-5.5-4.2-11-6.4-16.5c-1.4-3.5-3-6.9-4.5-10.3l0.1-0.1c0.9,0.1,1.8,0.4,2.6,0.7c2.6,1.4,5.2,3,7.8,4.4c2.3,1.1,4.1,3,5.1,5.4
			c3.4,8.6,7.4,16.9,10,25.8c0.4,1.2,0.9,2.3,1.5,3.4c0.2,0.3,0.7,0.5,1,0.8c-2.2-11-7-20.9-11.3-31.6c0.9,0.3,1.7,0.6,2.5,0.9
			c2.7,1.5,5.4,3,8.1,4.4c1.5,0.7,2.6,2.1,3.1,3.7c2.3,6.9,4.7,13.8,7,20.8c0.2,0.6,0.3,1.3,1.4,1.2c0.1-0.8,0.1-1.6,0-2.4
			c-0.4-1.9-0.9-3.7-1.5-5.5c-1.5-4.4-3.1-8.8-4.7-13.1c-0.2-0.7-0.3-1.4-0.4-2.1c3.5,2.1,6.4,4.2,9.6,5.7c3.7,1.8,5.6,4.9,7.3,8.2
			c2.6,5,5,10.1,7.5,15.2c0.6,1.3,1.5,2.5,2.2,3.7l0.6-0.3c-0.6-3.9-2.9-7.2-4.6-10.7s-3.5-7-5.4-10.8c0.3,0,0.6,0.1,1,0.2
			c3.3,2,6.6,4.1,10,6.1c1.3,0.8,2.3,1.9,2.9,3.3c2,4.4,4.1,8.7,6.3,13c0.4,0.8,0.9,1.6,1.5,2.3l0.6-0.3c-0.1-0.7-0.3-1.3-0.6-1.9
			c-1.5-3.2-3.1-6.4-4.6-9.7c-0.3-0.8-0.6-1.7-0.8-2.6l0,0c0.6,0.3,1.2,0.6,1.7,1c4.5,3.1,9,6.3,13.5,9.4c0.5,0.3,1,0.5,1.5,0.6
			c0.5-1.5-0.5-1.8-1.2-2.3c-4.4-3.1-8.8-6.2-13.2-9.3c-0.6-0.4-1.4-0.8-1.4-1.9h10.6c1.4,0.2,2.7-0.3,3.7-1.3
			c-1-0.3-1.9-0.5-2.9-0.6c-4.2,0-8.3,0.2-12.5,0.2c-1.4,0-2.8-0.4-4-1.1c-3.5-2-7-4.1-10.5-6.3c-0.3-0.2-0.5-0.6-0.9-1.1
			c4.5-0.3,8.6-0.3,12.7-0.9s8.3-0.1,12.4-1.4c-0.5-1.3-1.4-1-2.2-1c-3,0.1-6,0.3-9,0.5s-6.1,0.4-9.2,0.6c-1.6,0.1-3.1,0.3-4.7,0.6
			c-1.6,0.4-3.4,0.1-4.7-0.9c-4-2.4-8-4.8-12-7.2c-0.4-0.3-0.8-0.6-1.2-1c0.2-0.2,0.2-0.3,0.3-0.4c9.5-2.8,18.6-6.7,28.3-8.8
			c0.7-0.1,1.6-0.1,1.4-1.4c-0.7-0.1-1.5-0.1-2.2,0c-2.2,0.5-4.4,1-6.5,1.6c-7.4,2.3-14.9,4.7-22.3,7.1c-1.2,0.5-2.5,0.3-3.6-0.3
			c-2.4-1.4-4.9-2.8-7.4-4.2C17.1,42.4,8.8,38,0.4,33.6V26c3.3,0.5,6.5,1,9.8,1.6c0.5,0.1,1,0.3,1.3,0.6c1.2,1.1,2.5,2.2,3.6,3.4
			c1.6,1.6,3.2,3.1,4.7,4.8c3.2,3.2,6.8,6.1,10.7,8.5c2.7,1.8,5.6,3.3,9,3.2c2.5-0.1,3.9-1.8,3.1-4.1c-0.5-1.6-1.3-3-2.5-4.2
			c-3-2.9-6-5.7-10-7.3c-0.4-0.2-0.7-0.7-1.4-1.4c2.2,0.2,3.8,0.5,5.5,0.5c2.8,0.1,5.5,0.1,8.2,0c3.3-0.1,6.6-0.4,9.9-0.4
			c1.1,0,2.1,0.1,3.2,0.5c5.2,1.8,10.5,3.7,15.7,5.5c1.6,0.6,3.1,1.2,4.7,1.7c1.1,0.3,2.2,0.5,3.3,0.7l0.6,0.6v-0.1
			c1.8,1.8,3.5,3.7,5.3,5.5c0.6,0.5,1.1,1.1,1.5,1.7c1.2,1.9,0.3,4.5-2.3,4.4c-4.3-0.1-8.7-0.1-13-0.2c-3.9,0.1-7.7,1-11.2,2.7
			c0.6,1,1.7,1.6,2.9,1.8c4.6,1.1,9.5,1,14.1-0.1c3.4-0.8,6.9-0.9,10.4-0.3c0.6,0.1,1.1,0.4,1.5,0.9c1,1.2,1.9,2.5,2.8,3.7
			c0.1,1,0.8,1.4,1.7,1.4c2.4,0.2,4.8,0.4,7.2,0.5c1.2,0.1,2.4,0,3.6,1c-0.9,1.5-2.3,0.8-3.4,0.9c-1.3,0.1-2.5,0-4.4,0
			c2.8,2,5.1,3.8,7.5,5.5c0.6,0.3,1.2,0.5,1.9,0.5c2.5,0.4,4.9,0.7,7.4,1.1c0.7,0.2,1.4,0.4,2.1,0.8c-1.3,2-2.8,0.7-4,0.7
			c-1.6-0.1-3.2-0.3-4.8-0.5c3.5,3.7,7.4,6,10,9.8c-0.6,0.1-1.2,0-1.7-0.4c-2.1-1.7-4.1-3.4-6.1-5.1c-1-0.8-2-1.5-3-2.3l-0.5,0.4
			l3.1,6.4c-1,0.4-2-0.1-2.4-1.1v-0.1c-1-1.7-1.9-3.5-2.6-5.4c-1-3.4-3.4-6.2-6.5-7.7c0-0.1-0.1-0.1-0.1-0.2h-0.1l0.2,0.2l1.1,4
			l-1.1,1l0,0c-1.1-3.1-2.2-5-3.6-5.8l3,6.4c0.1,0.6,0.2,1.3,0.4,1.9C98.1,78.9,100.4,83.4,101,88.5z M4.1,60.8
			c-0.3,0.7-0.4,0.9-0.4,1C5.4,65.6,7.2,69.3,9,73c0.2,0.4,0.8,0.6,1.3,0.9c0.1-0.4,0.3-0.6,0.2-0.7c-1.6-3.7-3.2-7.4-4.9-11.1
			C5.4,61.6,4.7,61.3,4.1,60.8z M47.6,39c2.9-0.4,5-1.8,7.7-2.4C53.3,34.9,49.5,36.2,47.6,39z M60.9,92.3c0.2-1.9-0.3-3.9-1.5-5.5
			c-0.1-0.2-0.8,0-1.5,0C58.9,88.7,59,90.6,60.9,92.3z M93.8,93.7c-0.8-2-1.4-2.4-3.5-2.5C91.2,93.2,91.9,93.7,93.8,93.7L93.8,93.7z
			 M48.5,72.3c1.1-1.1-0.1-2.2,0-3.2c0-0.2-0.6-0.4-0.9-0.6C46.9,70.6,46.9,70.6,48.5,72.3z"/>
		<path class="st3" d="M45.6,293.5c-2.9-4.2-5-8.8-6.2-13.7c-1.5-5.5-3.6-10.8-5.5-16.2c-1.1-3-2.3-6-3.5-9.1
			c-1.1-2.9-2.2-5.7-3.2-8.6c-1.5-4-3.4-7.9-5.5-11.6l-1.1-2.1c-0.6,0.5-0.7,1.4-0.3,2.1c1.7,5.4,2,11,2.8,16.6
			c0.5,2.8,0.8,5.7,0.9,8.6c-0.1,5.1-0.5,10.2-1,15.3c-0.2,1.5-0.7,3-1.5,4.4c-1.1,2.2-3.9,3.1-6.1,2c-0.6-0.3-1.2-0.8-1.6-1.3
			c-1.1-1.6-2-3.4-2.6-5.3c-2-5-2.5-10.4-3.5-15.7c-0.9-5.1-1.3-10.3-2.2-15.5c-0.6-4.3-1.6-8.4-2.4-12.5c-0.4-1.9-0.6-3.9-1-5.9
			c-0.2-1,0-2.2-1.5-2.5v-2c0.5-0.3,0.5-0.7,0-1v-8c0.5,0.6,1,1.3,1.5,2c2.6,3.9,4.5,8.1,5.9,12.5c1.6,5.3,3.1,10.7,4.2,16.1
			c1.7,8.2,2.9,16.5,4.4,24.7c0,0.9,0.4,1.7,1.2,2.2c0-2.3-0.1-4.6-0.5-6.8c-1-6-2.2-12.1-3.2-18.1C12.9,237,11,230,8.5,223.2
			c-1.6-4.3-3.7-8.4-6.3-12.2c-0.5-0.6-1.1-1.1-1.7-1.6v-10c2.4,2.5,4.9,5,7.3,7.5c7,7.2,12.1,15.8,17.4,24.3
			c4.9,8.1,9.3,16.5,13.3,25.1c1.8,3.8,3.5,7.5,5,11.4c2.1,5.2,4,10.6,6,15.9c0.2,0.4,0.5,0.8,0.9,1.2l0.5-0.2
			c-0.3-1.2-0.6-2.5-1-3.8c-3.2-8.4-5.8-17-10.1-25c-2-3.8-3.7-7.8-5.7-11.6c-4.4-8.4-9.3-16.5-14.5-24.5
			c-4.9-7.4-10.5-14.2-16.8-20.3c-0.7-0.6-1.4-1.1-2.2-1.5v-3.5c0.4,0.4,0.9,0.7,1.3,1.1c4.2,4.4,8.3,8.9,12.4,13.3
			c4.3,4.6,8.6,9.2,12.8,14c4.5,5.1,9,10.2,13.5,15.4c3.1,3.7,6.1,7.4,9.2,11.2c2.7,3.4,5.4,6.8,8.1,10.1c1.4,1.7,2.8,3.3,4.2,4.9
			c3.3,4,6.6,8.1,10,12.1c0.5,0.5,0.9,0.9,1.5,1.3l0.5-0.4c-0.3-0.7-0.7-1.4-1.2-2c-3-3.7-6.1-7.5-9.2-11.2
			c-2.6-3.1-5.3-6.1-7.9-9.3c-4-5-7.9-10.1-11.9-15c-2.5-3.1-5.3-6-7.9-9c-6.1-6.9-12.2-13.8-18.4-20.7c-4.4-4.9-8.9-9.6-13.5-14.4
			c-1.1-1.1-2.3-2.1-3.5-3v-1.5c0.8,0.5,1.6,0.9,2.3,1.5c7.3,5.8,14.5,11.7,21.8,17.5c4,3.2,8.3,6.1,12.4,9.2
			c7.3,5.6,14.6,11.3,21.9,16.9c5.5,4.4,11.2,8.4,16.1,13.4c0.4,0.4,0.9,0.7,1.4,0.9c0.2-1-0.3-2-1.2-2.5c-4-3.5-8-7-12.2-10.2
			c-8-6.3-15.9-12.6-24-18.7c-12.4-9.3-24.8-18.5-36.4-28.7c-0.6-0.4-1.3-0.7-1.9-0.8v-5.5c0.3,0.2,0.6,0.3,0.8,0.5
			c4.1,3,8.4,4.4,13.4,2.5c0.2-0.1,0.5-0.1,0.7-0.1c1.5,0.6,2.8,1.8,4.6,1.5c0.6,1.3,1.3,2.6,1.9,4c1.5,4.1,3.7,8,6.4,11.4
			c5.1,6.1,13.8,6.1,19,2.8c1.4-1,2.8-2.1,4.1-3.2c2,1.1,3.9,2.4,5.9,3.5c3.9,2.2,8,4.1,11.8,6.5c2.5,1.5,4.7,3.4,6.7,5.5
			c1.9,1.9,1.9,5,0,6.9c-0.3,0.3-0.6,0.6-1,0.8c-0.8,0.4-1.7,0.5-2.6,0.2c-1.6-0.4-3.2-1-4.7-1.8c-8-3.7-16-7.5-24.1-11.2
			c-1-0.4-2-0.6-3.1-0.8c0-0.1,0-0.1-0.1-0.2c0,0-0.1,0-0.2,0l0.2,0.2c2,1.6,3.8,3.4,5.9,4.9c5.2,4.1,10.6,8,15.8,12.1
			c4.4,3.4,8.5,7.1,13.1,10.3c4,2.9,7.6,6.4,10.8,10.2c1.7,1.9,3.6,3.6,4.6,6.2c0.8,2.3-0.4,3.7-1.4,5.2s-2.6,1.4-4.1,0.8
			c-1.2-0.5-2.3-1-3.3-1.7c-5.4-4-10.8-8-16.2-12c-4.6-3.5-9.1-7-13.6-10.5c-0.6-0.4-1.3-0.8-2-1.1c0.3,0.7,0.7,1.4,1.2,2.1
			c1.7,2,3.6,3.9,5.3,5.9c3.9,4.4,7.9,8.7,11.7,13.3c4,4.9,7.9,10,11.6,15.1c1.3,2.1,2.5,4.3,3.6,6.5c1.2,2.3,2.4,4.5,3.6,6.8
			c1.1,1.9,1.4,4.1,0.9,6.3c-0.6,2.6-2.6,4.2-5.7,2.8c-1.3-0.7-2.5-1.6-3.5-2.7c-1.9-2-3.8-4.2-5.6-6.4c-3.3-3.9-6.6-7.9-9.9-11.8
			c-2.7-3.2-5.5-6.5-8.1-9.7c-3.3-4.1-6.5-8.2-9.7-12.3c-0.1-0.2-0.4-0.2-0.9-0.5c0.3,1,0.5,1.7,0.7,2.3c1.5,3.8,3.2,7.5,4.5,11.3
			c1.7,4.7,3.2,9.4,4.6,14.2c1,3.2,1.4,6.5,1.1,9.8c-0.6,5.5-4,6.8-8.4,4C46.7,294.4,46.1,293.9,45.6,293.5z M49.6,208.6l-0.3,0.5
			c0.4,0.4,0.9,0.7,1.4,1.1c11.3,6.3,16.8,8.8,19.8,8.9c0-0.2,0-0.6-0.1-0.7C63.2,215.5,56.7,211.3,49.6,208.6L49.6,208.6z
			 M21.1,196.6c-1.1-1.7-3-1.8-4.4-2.5s-2.9-2-5-1.8C13.7,194.5,18.9,196.9,21.1,196.6z"/>
		<path class="st4" d="M69.1,431c5.3,1.7,10.6,3.4,15.9,5c7.6,2.2,15.4,3.6,23.3,4c2.2,0,4.5-0.1,6.7-0.4c2.3-0.3,4.5-1.4,6.1-3.1
			c2.2-2,2.1-4.6-0.2-7.9c-1.4-2-3.3-3.6-5.4-4.7c-10.6-5.4-21.2-10.7-32.6-14.3c-4.2-1.3-8.4-2.7-12.6-4.1l-2.1-0.5l0.1-0.5
			l2.2,0.2c5.8,0.6,11.6,0.4,17.4-0.4c4.7-0.5,9.1-2.3,12.7-5.2c1.1-0.9,2-2,2.8-3.2c1.5-2,0.8-4.6-1-6.6c-2.2-2.3-5.1-3-8-3.6
			c-5-1.1-10-1.1-15.1-1.3c-2-0.1-4-0.3-5.9-0.4l-5-0.1c-3.2,0-6.3,0-9.5-0.2c-4-0.2-8-0.7-12-1.1c-2.9-0.3-5.8-0.7-8.6-1.2
			c-10.6-2-21.1-4.6-31.4-7.8c-2.1-0.7-4.3-1.3-6.4-1.9v9c0.8,0,1.6,0.1,2.5,0.3c3.1,0.8,6.3,1.6,9.4,2.4c2.6,0.7,5.1,1.1,7.8-0.1
			c1.2-0.4,2.4-0.6,3.6-0.6c0.4,0,0.8,0.5,1.6,0.9l-3.1,1.4c0.4,0.2,0.9,0.3,1.3,0.5c5.9,1.1,11.8,2,17.6,3.2
			c3.2,0.6,6.5,0.2,9.4-1.2c0.8-0.3,1.5-0.7,2.3-1c0.9-0.5,2.1-0.4,2.8,0.4l-5.8,3c3,0.5,5.4,0.9,7.9,1.3c3.7,0.6,7.4,1.1,11.1,1.7
			c1.3,0.3,2.7,0.2,3.9-0.3c2.2-1,4.5-1.8,6.7-2.7c0.7-0.1,1.4-0.2,2.2-0.2c-1.5,2.3-3.9,2.3-5.7,3.8c2.2,0.2,4,0.5,5.8,0.6
			c2.7,0.2,5.5,0.4,8.2,0.6c0.6,0.2,1.1,0.4,1.6,0.7c-0.1,0.2-0.1,0.4-0.2,0.7c-2.4,1-5-0.2-7.4,0c-2.6,0-5.2-0.2-7.8-0.5
			c0.7,2.3,3.5,2.8,3,5.6c-0.4-0.2-0.8-0.4-1.2-0.6c-1.2-1-2.4-2-3.6-3.1c-1.3-1.3-2.9-2.2-4.8-2.5c-5-0.7-10-1.5-15-2.3
			c-1.3-0.2-2.7-0.3-4.3-0.6c1.1,3.1,4.8,3.7,5.6,6.7c-0.8,0.4-1.7,0.1-2.2-0.6c-1.8-1.6-3.6-3.2-5.4-4.8c-1.6-1.5-3.5-2.5-5.7-2.8
			c-5.8-0.8-11.6-1.9-17.4-2.8c-1.3-0.2-2.6-0.5-4.2-0.7c1.1,2.4,3.9,3.2,4,5.9c-0.7-0.1-1.4-0.4-1.9-0.9c-1.7-1.5-3.4-3-5-4.5
			c-1.1-1.1-2.4-1.8-3.9-2c-2-0.3-4.1-0.9-6.1-1.3c-2.6-0.6-5.2-1.1-7.8-1.7v5c0.7,0.3,1.4,0.5,2.1,0.8c7.2,3.3,14.3,6.7,21.5,10
			c0.8,0.4,1.7,0.6,2.6,0.6c3.7-0.2,7.4-0.5,11.2-0.8c1.2-0.1,2.4-0.4,3.6,0.3c0,1.2-0.8,1.4-1.7,1.5c-2.6,0.2-5.3,0.4-7.9,0.6
			c-0.5,0-1,0.2-1.5,0.2c7,3.2,14,6.1,21,8.9c0.4,0.2,0.8,0.2,1.2,0.2c4.4-0.4,8.7-0.8,13.1-1.3c0.8-0.1,1.5,0,1.8,1.3
			c-3.2,1.2-6.6,0.9-9.8,1.7c0.6,0.5,1.3,0.8,2,1.1c2.6,1,5.2,2.1,7.9,3.1c4.7,1.8,9.3,3.6,14,5.3c0.8,0.2,1.6,0.3,2.4,0.1
			c3.8-0.5,7.5-1.1,11.3-1.6c0.6,0,1.2,0.1,1.7,0.3c0,0.2,0,0.5,0,0.8c-3.2,1.9-7.1,0.9-10.9,2.5c5.2,2,10,3.8,14.7,5.6
			c2.4,0.9,4.8,1.9,7.2,2.9c0.4,0.2,1,0.9,0.9,1.2c-0.2,1-1,0.6-1.6,0.4l-0.5-0.2c-4.7-1.8-9.3-3.6-14-5.3c-2.2-0.8-4.5-1.5-6.8-2.3
			l-0.1,0.1c0.1,0.3,0.2,0.6,0.4,0.9c1.4,2,2.8,3.9,4.2,5.9c0.2,0.3,0.1,0.8,0.1,1.3c-0.4,0-1,0.1-1.3-0.2c-0.5-0.4-0.9-0.9-1.3-1.5
			c-1.5-2.2-3-4.4-4.5-6.6c-0.8-1.3-2-2.2-3.4-2.7c-1.5-0.5-3-1.1-4.4-1.7c-5.7-2.3-11.4-4.5-17.2-6.8c-0.7-0.4-1.5-0.6-2.3-0.4
			c1.5,2.5,3,4.9,4.5,7.3c0.5,0.8,1,1.6-0.3,2.5c-0.5-0.6-1.1-1.3-1.5-1.9c-1.6-2.5-3.3-5-4.8-7.6c-0.8-1.4-2-2.4-3.5-2.9
			c-3-1.1-5.9-2.3-8.8-3.5l-12-4.8l0,0c0.5,0.9,1,1.9,1.5,2.8c1.5,2.2,3,4.4,4.5,6.6c0.2,0.5,0.3,0.9,0.3,1.4l-0.5,0.3
			c-0.8-0.8-1.6-1.6-2.3-2.4c-2.4-3.1-4.6-6.3-7-9.4c-0.7-0.9-1.6-1.6-2.6-2.1c-5.6-2.6-11.1-5.2-16.8-7.7c-2-0.9-4.1-1.6-6.2-2.4v4
			c0.7,0.2,1.4,0.5,2,0.8c4.4,3.3,8.8,6.5,13,10c5.3,4.4,10.3,9.1,15.4,13.8c2.6,2.4,5.4,4.4,9.1,4.5c1.9,0.2,3.8,0.5,5.7,0.8
			c0.9,0.1,1.8,0.2,2.3,1.5c-3,0.8-5.9-0.5-8.7-0.4c0.1,0.3,0.1,0.5,0.2,0.6c4.1,3.9,8.1,7.8,12.3,11.7c0.5,0.3,1,0.6,1.5,0.7
			c3.6,1.2,7.3,2.2,10.9,3.4c0.9,0.3,2,0.3,2.1,2c-3.4,0.1-6.3-1.4-9.6-2c0.1,0.3,0.3,0.6,0.5,0.8c4,3.9,8.1,7.8,12.1,11.8
			c0.5,0.5,1,1,0.2,1.7c-1.4-0.3-2.7-1.2-3.6-2.3c-2-2.2-4.1-4.3-6.2-6.5c-0.9-1-2-1.8-3.2-2.3c0.3,3,1.3,5.8,1,8.7
			c-0.6-0.2-1.1-0.7-1.4-1.3c-0.5-1.6-0.7-3.2-1.2-4.8c-0.8-2.8-1.5-5.6-3.7-7.7c-3.5-3.4-7.1-6.8-10.6-10.1c-1.2-1.1-2.5-2-3.7-3
			l-0.5,0.3c0.1,0.9,0.2,1.8,0.2,2.6c0.1,1.2,0.2,2.5,0.3,3.7s-0.6,1.4-1.6,1.4c4.1,4.2,8.1,8.5,12.4,12.6c3.4,3.3,7.2,6.2,10.8,9.3
			c2.9,2.5,5.6,5.2,8.7,7.5s5.7,4.6,9.2,5.9l3.4,0.4c3.5,0.4,6-3.2,5.3-6.5c-0.6-2.7-1.7-5.2-3.3-7.5c-2.8-3.9-5.8-7.7-8.8-11.5
			c-5.5-6.9-12-12.9-18.7-18.6l-1.9-1.6l0.3-0.5l1.8,0.9l3.4,1.3l1.3,0.5l3.7,1.5l1.3,0.5l1.2,0.4l1.3,0.6l1.2,0.5L69.1,431z"/>
		<path class="st5" d="M76.4,469.8c-3.5-1.2-6.3-3.7-9.2-5.9s-5.8-5-8.7-7.5c-3.6-3.1-7.3-6-10.8-9.3c-4.3-4-8.3-8.4-12.4-12.6l0,0
			c-2.3-2.2-4.8-4.3-7-6.6c-2.9-3-5.5-6.2-8.5-9.1c-5.9-5.8-11.9-11.6-17.9-17.3c-0.5-0.4-1.1-0.7-1.6-1v4.5c0.5,0.2,1,0.5,1.5,0.9
			c1.4,1.3,2.8,2.6,4.1,4c4.9,5.4,9.7,10.8,14.5,16.2c1.4,1.5,2.8,3.1,4.1,4.7c4,4.3,7.9,8.8,12,13s8.5,8,12.6,12.1
			c5.4,5.2,10.7,10.5,16,15.8s11,10.4,17.6,14.3c0.2,0.1,0.4,0.5,0.5,0.7c-0.7,1.2-1.6,0.7-2.2,0.3c-2.7-1.6-5.3-3.4-7.8-5.3
			C67,476.3,61,470.7,55,465c-4.7-4.5-9.1-9.3-13.8-13.7c-7.7-7.2-14.6-15.2-21.8-23c-1.5-1.6-3-3.4-4.5-5c-4.3-4.7-8.6-9.4-13-14.2
			c-0.5-0.4-1.1-0.7-1.6-0.9v3.5c0.6,0.3,1.3,0.6,1.8,1c3.6,3.6,7.2,7.1,10.8,10.8c5.5,5.6,10.4,11.7,14.9,18.1
			c1.4,2,2.8,4.2,4.2,6.2c5.2,7.2,10,14.5,14.5,22.1c1.6,2.8,3.2,5.7,5.1,8.3c3.6,4.9,6.8,10.1,11.1,14.4c1.2,1.2,2.1,2.5,3.2,3.8
			c3.6,4,6.8,8.2,11.1,11.4c0.4,0.4,0.7,0.8,0.9,1.3c-1.2,1-1.9,0.3-2.6-0.3c-1.8-1.5-3.5-3.1-5.2-4.8c-3.3-3.6-6.4-7.4-9.8-11
			c-4.5-4.8-8.1-10.2-11.7-15.5s-6.8-11.2-10.4-16.7c-4.4-6.8-8.9-13.4-13.6-20C18.3,431.4,10.3,423,2.1,415c-0.5-0.4-1.1-0.7-1.6-1
			v3.5c0.6,0.2,1.1,0.5,1.6,1c3.1,3.7,6.4,7.2,9.3,11.1c5.1,6.9,10.2,13.7,14.5,21.1c5.3,8.9,10.1,18.2,14.3,27.7
			c1.9,4.6,3.9,9.2,5.8,13.8c1,2.2,2,4.4,2.9,6.6s1.8,4.5,2.8,6.8l0.1,0.8l-0.8-0.1c-0.9-1-1.7-2.1-2.5-3.3c-1-1.9-1.7-4-2.5-6
			c-1.3-3-2.7-6-4-9c-2.6-5.9-5-12-7.7-17.8c-3.8-7.9-8.1-15.7-12.9-23.1c-5.7-9-12.1-17.5-19.2-25.5c-0.5-0.4-1-0.7-1.6-1v1.5
			c0.6,0.5,1.2,1.1,1.7,1.7c3.6,4.9,6.7,10.2,9.3,15.6c1.9,3.6,3.5,7.3,5,11.2c1.8,4.7,3.4,9.6,4.8,14.4c1.2,4.1,2.2,8.3,3.2,12.5
			c1.2,4.9,2,9.9,2.4,15c0.3,1.6,0.2,3.3-0.4,4.9c-0.5-0.9-1-1.3-1-1.7c-0.4-2-0.6-4.1-0.9-6.2c-0.7-4.4-1.2-8.9-2.2-13.3
			s-2.5-8.8-3.6-13.2c-3-10.8-7.5-21-13.2-30.6c-1.2-2.1-2.6-4.1-3.9-6.1c-0.2-0.3-0.8-0.5-1.2-0.7v6c0.6,0.6,1.1,1.3,1.6,2.1
			c2.2,5.6,4.4,11.1,6.4,16.8c2.5,6.9,3.6,14.1,5.2,21.3c1.9,8.5,4.1,17,6.5,25.3c1.1,3.6,3,7,4.8,10.4c1,1.9,2.6,3.3,4.5,4.2
			c2.2,1,3.5,0.5,4.1-1.9c0.2-1,0.3-2,0.3-3c0.2-8.2-0.9-16.5-3.4-24.3c-0.4-1.1-0.5-2.3-0.4-3.5c1.4,2.8,2.8,5.6,4.1,8.4
			c3.5,7.9,7.6,15.4,12.2,22.6c1.9,2.8,4.2,5.4,6.8,7.6c1.1,0.9,2.3,1.6,3.6,2.1c2.8,1.1,4.9-0.4,5-3.4c0-0.4,0.1-0.8,0.1-1.2
			c-1.3-3.5-2.5-6.9-3.9-10.4c-0.4-1.1-0.9-2.1-1.4-3.1c-1.7-3.1-3.7-6.1-4.7-9.6c1.4,1.3,2.6,2.8,3.9,4.2c2.1,2.3,4.3,4.6,6.5,6.9
			s4.1,4.3,6.1,6.5c1.2,0.9,2.2,1.9,3.5,2.8c4,2.8,8,5.5,12,8.2c1.5,0.3,3.1,0.5,4.7,0.6c3.2,0,4.6-2,3.5-4.9
			c-0.7-1.7-1.6-3.3-2.8-4.7c-5.7-6.9-12.4-13-18.9-19.2c-1.4-1.3-3.1-2.5-3.7-4.6l-0.5-0.5l0.8,0.3c3.4,1.5,6.8,3,10.2,4.4
			c5.3,2.3,10.8,3.5,16.6,2.7c3.1-0.4,3.8-1.4,4.1-4.5c-1.1-3.5-3.7-5.7-6.4-7.8c-4.6-3.7-9.4-7.3-14.1-11
			C77.1,470.9,76.7,470.4,76.4,469.8z"/>
		<path class="st6" d="M58.7,102.1l6.4,0.4l0.1,8.2c-0.2,1.1,0.4,2.2,1.4,2.7c0.2-1,0.4-2,0.5-3c0.1-2.4,0-4.7,0-7.6
			c0.6,0.7,0.9,0.9,1,1.2c1.6,2.2,3.2,4.5,4.9,6.6c0.8,0.9,1.2,2,1.1,3.2c-0.1,2.7,0,5.3,0,8c0,0.9-0.1,1.9,1.2,2.1
			c0.2-0.1,0.4-0.2,0.4-0.3c0.2-2.7,0.4-5.4,0.7-8.6c1.2,1.4,2.1,2.5,3,3.7s1.1,2.9,3.2,3.4c-0.2-3.3-2.6-5.2-4-8.2
			c1.9,0.5,3.3,0.8,4.7,1.2c0.7,0.2,1.4,0.5,1.6-0.4c0.1-0.4-0.6-1.2-1.1-1.3c-1.6-0.6-3.3-1-5-1.4c-1.3-0.3-2.6-0.5-3.5-1.7
			c-1.6-2.1-3.2-4.2-4.8-6.4c-0.2-0.4-0.3-0.9-0.3-1.4l6.4,0.3c0.2,0,0.6,0.1,0.7,0c1.9-1.4,4.2-0.7,6.2-0.9
			c2.1,3.3,4.2,6.5,6.2,9.8c0.7,1.2,1.3,2.5,1.9,3.7c1.6,3,2.7,6.2,3.1,9.6c0,0.1,0.2,0.3,0.3,0.4c-0.4,2.3-0.5,4.6-2.2,6.4
			c-1.2,1.3-2.3,2.6-4.3,2.6l-9.3-2.5c-0.4-0.4-0.8-0.9-1.2-1.2c-2.3-2.1-4.8-4.1-7-6.2s-4.7-4.7-7-7c-0.6-0.4-1.2-0.8-1.8-1.1l0,0
			c0-0.4,0.2-1-0.6-0.5c-1.3-2-2.6-4-4-5.9c-0.3-0.5-1.1-1-1.5-0.9c-0.9,0.3-0.3,1.1-0.1,1.6c0.5,1,1,2,1.6,3l0.5,0.7l0,0
			c0.1,0.7,0.2,1.5,0.3,2.2c0.8,3.1,1.6,6.2,2.4,9.3c0.5,1.8,1,3.6,1.6,5.4c0.2,1.9,0.5,3.9,0.7,5.9c0,2.7,0.1,5.3-0.1,8
			c-0.2,3.4-0.6,6.6-3.4,9.1c-1.7,1.4-3.9,1.8-6,1.1c-3.5-1.4-5.6-4.1-7.3-7.2c-2.9-5.6-5.7-11.3-8.5-16.9c-2.5-5-4.8-10-7.3-15
			c-0.7-1.4-1.6-2.7-2.8-4.5c-0.3,1.1-0.5,2.2-0.7,3.3c-0.1,3.8-0.1,7.6-0.2,11.4c-0.1,6.1-1.3,12.2-3.4,18
			c-0.8,1.8-1.6,3.6-2.5,5.4c-0.6,0.6-1.2,1.1-1.7,1.8c-2.2,2.8-6.5,2.9-9.2,1c-3-2.1-4.8-5-6.3-8.2c-1.1-2.3-2.3-4.6-3.4-6.9V89
			c0.9,2.2,1.8,4.4,2.6,6.7c0.5,1.1,0.7,2.4,0.7,3.6c-0.2,1.9-0.5,3.8-0.8,5.6c-0.3,2-0.6,4.1-0.9,6.1c-0.1,0.7-0.4,1.5,1,2.1
			c1.7-3.1,1.2-6.7,2.4-10.1c0.2,0.4,0.4,0.8,0.6,1.1c1.3,4.2,2.6,8.4,3.7,12.7c0.1,0.8,0.1,1.6-0.2,2.4c-0.6,2.3-1.3,4.6-1.9,7
			c-0.3,1.1-0.6,2.2,0.3,3.3c2.1-1.9,1.6-4.7,2.9-6.9c0.2,0.4,0.4,0.5,0.4,0.8c0.5,2.8,1.1,5.5,1.5,8.3s0.7,5.4-0.9,7.9
			c-0.5,0.9-0.9,1.8-1.2,2.7c-0.3,0.7-0.6,1.4,0.2,2.1c2.1-0.3,1.7-2.8,3.1-3.9l0.9,2.4h0.6c0.2-1.3,0.4-2.5,0.6-3.8
			c1.4,0.4,1.1,2.8,3.3,2c-0.3-1.5-1-2.9-2-4c-1-1.2-2.2-2.2-2.5-3.9c-0.4-3-0.9-6-1.4-9.1c-0.1-0.8-0.1-1.5,0-2.3
			c2.6,1.6,3.9,4.2,6.4,5.2c0.6-0.5,0.7-1.4,0.2-2.1c0-0.1-0.1-0.1-0.2-0.2c-0.6-0.6-1.2-1.2-1.8-1.8c-1.9-1.9-3.8-3.7-5.6-5.7
			c-0.5-0.6-0.8-1.3-1-2c-1.2-4.1-2.4-8.3-3.6-12.4c-0.1-0.4-0.1-0.9-0.3-1.8c1.3,0.9,2.1,1.6,3,2.2c2.1,1.5,4.1,3.1,6.2,4.7
			c0.5,0.2,1,0.4,1.5,0.4c0.5-1.4-0.4-2-1.1-2.5c-3.4-2.6-6.9-5.2-10.3-7.9c-0.4-0.4-0.8-0.8-1-1.4c-0.9-2.2-1.8-4.5-2.6-6.8
			c-0.2-0.4,0.1-1,0.2-1.5c3.2,2.3,6.7,4,10.5,5.1c1.6,0.4,3.3,0.5,4.9,0.3c1-0.3,1.9-0.8,2.6-1.6c1.7-1.7,1.9-4,2.4-6.2l2.2,2.5
			c0,0.5-0.1,0.9-0.2,1.4c-0.9,2.1-0.2,4.5,1.6,5.9c-1.8,5.8-1.9,7.3-1,8.9c1.5-1.6,2.2-3.8,2.4-8.2l2.9,1c1.2,2.4,2.3,5,3.7,7.3
			c1.6,2.6,2.2,5.8,1.7,8.8c-0.3,2.6-0.6,5.3-0.8,7.9c-0.1,0.9-0.2,1.8,1,2.3c1.4-1.6,1-3.5,1.3-5.2s0.2-3.4,1.4-5.4
			c1.3,2.7,2.2,5.3,3.6,7.5s1.5,4.8,1.1,7.3c-0.1,0.5-0.3,1-0.3,1.5c-0.1,1.7-0.5,3.4,0.2,5.1c1.4,0,1.5-0.9,1.6-1.9
			c0.2-1.5,0.4-3.1,0.6-4.6c2.3,4,4,8.1,6.2,12c0.8-0.3,1.3-1.3,0.9-2.1c-0.1-0.1-0.1-0.3-0.2-0.4c-1-2-1.9-4.1-2.8-6.1
			c-0.6-1.3-1.1-2.6-1.9-4.4l4.4,1.6l0.3-0.5c-0.2-0.5-0.5-0.9-0.8-1.3c-0.6-0.5-1.3-0.7-2-1.1c-1.5-1-3.4-1.9-4.2-3.3
			c-2-3.4-3.4-7.2-5.1-10.8l0.1-0.1c1.4,0.4,2.9,0.7,4.2,1.2c1.6,0.6,3.2,1.4,4.8,2.1c0.6,0.1,1.1,0.2,1.7,0.1
			c0.1-0.2,0.1-0.4,0.2-0.6c-0.6-0.6-1.3-1.1-2-1.5c-2.7-1.2-5.5-2.3-8.2-3.6c-1.3-0.6-2.8-1.4-3.6-2.5c-1.6-2.6-2.8-5.4-4.2-8.1
			l9,2.9c3.1,1,4.3-0.1,3.9-3.4c-0.4-3.8-0.7-7.6-0.8-11.4c0.1-1.5,0.3-3,0.8-4.4c0.1-0.3,0.5-0.6,1-1.2c0.6,0.9,1.1,1.8,1.4,2.8
			c0.6,2.2,1.3,4.4,0.8,6.8c-0.3,2-0.3,4,0,6c0.3,2.8,2.6,4.8,6,5.4c0.2,1,0.3,1.9,0.5,2.9c0.2,1-0.5,2,1,2.7
			C59.1,105.8,58.4,103.9,58.7,102.1z"/>
		<path class="st7" d="M0.6,137.5c1.1,2.3,2.2,4.6,3.3,6.9c1.5,3.2,3.3,6.1,6.3,8.2c2.7,1.9,7,1.8,9.2-1c0.5-0.6,1.1-1.2,1.7-1.8
			c3.1,0.8,6.4,1.4,9.3,2.6c3.3,1.4,5.7,4.4,6.1,7.9c0.4,1.8,0.5,3.6,0.4,5.4c-0.2,2.7,1,4.2,3.3,5.2c3.8,1.7,7.2,4.2,10,7.3
			c2.5,2.8,4.3,6.1,5.3,9.8c1.6,5.7,0.1,11.8-4,16c-1.3,1.2-2.7,2.2-4.1,3.2c-5.2,3.3-13.9,3.2-19-2.8c-2.8-3.4-4.9-7.3-6.4-11.4
			c-0.5-1.4-1.2-2.7-1.9-4c-1.3-3-1.7-3.1-4.5-1.7c-0.1,0-0.1,0.1-0.1,0.2c-0.2,0-0.5,0-0.7,0.1c-5,1.8-9.4,0.5-13.4-2.5
			c-0.3-0.2-0.6-0.3-0.8-0.5V162c0.4,0.1,0.8,0.2,1.1,0.4c2.7,1.6,5.4,3.3,8.1,5c0.7,0.4,1.4,0.9,2,1.4c-0.1,2.5-2,4.6-1,7.5
			c2.1-2,1.8-4.8,3.2-6.8c3.1,1,6.5,0.2,9.5,1.6c0,2.5-2,4.4-1.6,7.4c2.6-1.8,2.4-4.5,3.7-6.5c2.5,1.3,4.5,3.3,5.9,5.7
			c-3.5,5-3.5,5-2.9,6.8c1.7-1.1,2-3.6,4.2-4.5c1.7,2.7,3.7,5.1,4.8,7.6c-0.6,2.3-3.3,2.9-2.9,5.4c2-0.2,2.7-2.1,4.2-3
			c0.3,0.4,0.5,0.7,0.8,1c0.4,0.7,0.9,1.4,1.4,2c0.4,0.4,1.2,1,1.5,0.8c0.9-0.4,0.3-1.1,0-1.6s-0.5-0.9-0.8-1.3
			c-1.5-2.6-1.5-2.6,0.4-4.8c0.5-0.5,1.2-1,0.5-2c-1.6-0.3-2.1,1.6-3.7,1.9l-5-8.1c2.2-2.8,2.2-2.8,1-3.8l-1.9,1.5l-7-6.2
			c0.2-0.7,0.5-1.6,0.8-2.5c0.5-1.4,1-2.8,1.5-4.2c0.2-0.7,0.1-1.3-0.9-1.5c-2,2.2-1.9,5.4-3.5,7.8l-9.3-1.3
			c-0.6-2.7,1.2-5.1-0.5-7.8c-1.9,2.1-0.5,4.7-2,6.6c-0.5-0.2-1-0.5-1.5-0.8c-3.5-2-6.9-4-10.3-6.1v-22.1H0.6z M29.6,193.3
			c0.2-0.2,0.7-0.5,0.9-1c0.2-0.6-0.8-1.8-1.6-1.8c-0.4,0.1-0.8,0.4-1,0.8C27.5,192.1,28.4,193.2,29.6,193.3z M23,158.6
			c1.1-1.3,1.3-1.9,1-2.5c-0.2-0.7-0.9-1.1-1.6-0.9c-0.1,0-0.1,0-0.2,0.1c-0.6,0.2-0.9,0.8-0.7,1.3c0,0.1,0.1,0.2,0.1,0.3
			C22.1,157.5,22.6,158,23,158.6L23,158.6z M9.8,181.5c-1-0.5-1.6-1.1-2-1c-0.7,0.2-1.2,0.7-1.5,1.3c-0.1,0.6,0.3,1.2,0.9,1.4
			c0.1,0,0.3,0,0.4,0C8.3,183.1,8.8,182.3,9.8,181.5z M45.6,198.5c-0.6,0.8-1.3,1.3-1.2,1.7c0.2,0.6,0.6,1,1.2,1.2
			c0.8,0.1,1.2-0.6,1-1.3C46.6,199.6,46.1,199.2,45.6,198.5L45.6,198.5z M6.3,178.1c-0.6-0.6-1.2-1.1-1.9-1.6
			c-0.4,0.2-0.7,0.5-0.9,0.9c-0.1,0.8,0.4,1.5,1.1,1.6c0.1,0,0.2,0,0.3,0C5.3,178.9,5.7,178.5,6.3,178.1z M46.6,196.5
			c0.9,0.4,1.5,0.8,2,0.7c0.5-0.2,0.8-0.6,0.9-1.1c0-0.6-0.4-1-1-1c-0.1,0-0.3,0-0.4,0.1C47.7,195.3,47.4,195.8,46.6,196.5
			L46.6,196.5z M20.6,161.4c0.8,0.5,1.2,1.1,1.6,1s0.8-0.6,1.1-1c-0.4-0.3-0.7-0.9-1.1-0.9S21.4,160.9,20.6,161.4L20.6,161.4z
			 M30,197.9c0.5-0.7,1.1-1.1,1.1-1.5s-0.6-0.8-0.9-1.2c-0.4,0.4-0.9,0.7-1,1.1S29.5,197.1,30,197.9L30,197.9z"/>
		<path class="st8" d="M79.6,39.4c-1.1-0.2-2.2-0.4-3.3-0.7c-1.6-0.5-3.1-1.1-4.7-1.7c-5.2-1.9-10.5-3.7-15.7-5.5
			c-1-0.3-2.1-0.5-3.2-0.5c-3.3,0.1-6.6,0.3-9.9,0.4c-2.7,0.1-5.5,0.1-8.2,0c-1.6,0-3.3-0.3-5.5-0.5c0.7,0.7,1,1.2,1.4,1.4
			c3.9,1.6,7,4.4,10,7.3c1.1,1.2,1.9,2.6,2.4,4.2c0.8,2.4-0.6,4-3.1,4.1c-3.4,0.1-6.3-1.4-9-3.2c-3.9-2.4-7.5-5.3-10.7-8.5
			c-1.5-1.6-3.1-3.2-4.7-4.8c-1.2-1.1-2.4-2.3-3.6-3.4c-0.4-0.3-0.8-0.5-1.3-0.6C7.1,27,3.9,26.5,0.6,26v-8c0.2,0,0.5-0.1,0.7-0.1
			c3.4-1.8,6.7-3.7,10.2-5.2c4.5-1.9,9.1-3.6,14.2-3.1c1.8,0.2,3.4,0.6,4.1,2.3s-0.3,3-1.4,4.2c-2.5,2.7-5.9,3.7-9.2,4.8
			c-3.7,1.2-7.4,2-11.4,3.1c0.5,0.3,1.1,0.5,1.7,0.6c4.1,0.9,8.3,1.6,12.4,2.5c3,0.9,6.2,0.2,8.7-1.6c1.6-1.1,3.3-2,5.1-2.6
			c6.2-2.6,12.3-5.4,19-6.8c1.7,0.1,3.4,0,4.8,1.1c0.3,0.2,0.6,0.3,0.8,0.5c2.6,2,2.7,4.1,0.1,6.1c-1.3,0.9-2.7,1.7-4.2,2.2
			c-2,0.7-4.2,1.2-6.2,1.7l-6.1,0.6l0.1,0.6l6.1-0.5c10.4-1.1,20.8-2.2,31.1-4.2c3.1-0.6,6.2-1,8.7-3.2c0.8-0.6,1.7-1.1,2.6-1.5
			l8.2-4.7c4.9-2.5,9.9-4.5,15.5-4.8c1.2,0,2.5,0.2,3.7,0.5c3.6,1.3,4.9,4.1,4,8.2c-1.1,1.8-2.8,3.3-4.8,4l-1.6,0.4L106,25
			c-9.6,0.5-19.2,0.2-28.8,3.1c0.4,0.2,0.9,0.4,1.3,0.6c3,0.8,6.1,1.5,9.1,2.5c1.8,0.7,3.4,1.7,4.8,3c2.5,2.2,1.9,5-1.3,5.8
			c-2.5,0.6-5.1,1.2-7.8,0.1c-0.9-0.4-2.2,0.1-3.2,0.2v0.1L79.6,39.4z"/>
		<path class="st2" d="M0.6,1c7.8,0,15.5,1.1,23,3.2c5.2,1.6,10.6,2.7,15.8,4.4c4.8,1.6,9.4,3.7,14,5.6c0.6,0.2,0.9,1.1,1.3,1.7
			c-6.6,1.5-12.7,4.3-19,6.8c-1.8,0.7-3.5,1.5-5.1,2.6c-2.5,1.9-5.7,2.5-8.7,1.6c-4.1-0.9-8.3-1.7-12.4-2.5
			c-0.6-0.2-1.1-0.4-1.7-0.6c3.9-1.1,7.7-1.9,11.4-3.1c3.3-1.1,6.7-2.1,9.2-4.8c1.1-1.2,2.2-2.5,1.4-4.2s-2.3-2.1-4.1-2.3
			c-5.1-0.5-9.7,1.2-14.2,3.1C8,14,4.7,16,1.3,17.7C1.1,17.9,0.9,18,0.6,18V1z M29.9,19.3c2.6-0.2,4.8-1.5,7.4-2.3
			C35,15.3,32,16.2,29.9,19.3z"/>
		<path class="st9" d="M5.1,38.5c1.5,3.4,3.1,6.8,4.5,10.3c2.2,5.5,4.4,11,6.4,16.5c0.9,2.4,1.6,4.9,2.4,7.3c0.1,0.4,0.1,0.7,0,1.1
			l-0.5,0.2c-0.4-0.8-0.9-1.7-1.2-2.5c-2.2-5.7-4.2-11.6-6.6-17.2c-2.5-5.9-5.3-11.6-8-17.4c-0.2-0.5-1-0.8-1.5-1.2v-2
			C9,38,17.3,42.5,25.7,46.9c2.5,1.3,4.9,2.7,7.4,4.2c1.1,0.7,2.5,0.9,3.7,0.4c7.4-2.4,14.8-4.8,22.3-7.1c2.1-0.7,4.3-1.2,6.5-1.6
			c0.7-0.1,1.5-0.1,2.2,0c0.2,1.3-0.7,1.3-1.4,1.4c-9.7,2.1-18.8,6-28.3,8.8c-0.1,0-0.1,0.1-0.3,0.4c0.4,0.4,0.7,0.7,1.2,1
			c4,2.4,8,4.8,12,7.2c1.4,1,3.1,1.3,4.7,0.9c1.5-0.3,3.1-0.6,4.7-0.6c3.1-0.2,6.1-0.4,9.2-0.6s6-0.4,9-0.5c0.7,0,1.7-0.4,2.2,1
			c-4.1,1.3-8.3,0.9-12.4,1.4s-8.2,0.6-12.7,0.9c0.5,0.6,0.6,1,0.9,1.1c3.4,2,6.9,4.2,10.4,6.2c1.2,0.7,2.6,1.1,4,1.1
			c4.2,0.1,8.3-0.2,12.5-0.2c1,0.1,2,0.3,2.9,0.6c-1,1-2.3,1.5-3.7,1.4H72c0,1.1,0.8,1.5,1.4,1.9c4.4,3.1,8.8,6.2,13.2,9.3
			c0.7,0.5,1.7,0.8,1.2,2.3c-0.5-0.2-1-0.4-1.5-0.6c-4.5-3.1-9-6.3-13.5-9.4c-0.5-0.4-1.2-0.7-1.7-1l-0.2-0.1l0.2,0.1
			c0.2,0.9,0.5,1.7,0.8,2.6c1.5,3.2,3.1,6.4,4.6,9.7c0.2,0.6,0.4,1.3,0.6,1.9l-0.6,0.3c-0.6-0.7-1.2-1.4-1.6-2.2
			c-2.1-4.3-4.2-8.7-6.3-13c-0.6-1.4-1.6-2.5-2.9-3.3c-3.3-2-6.7-4.1-10-6.1c-0.3-0.1-0.6-0.2-1-0.2c1.9,3.7,3.7,7.2,5.4,10.8
			s4,6.8,4.6,10.7l-0.6,0.3c-0.7-1.2-1.6-2.4-2.2-3.7c-2.5-5.1-4.9-10.3-7.5-15.3c-1.7-3.3-3.6-6.4-7.3-8.2
			c-3.2-1.5-6.1-3.6-9.6-5.7c0.1,0.7,0.2,1.4,0.4,2.1c1.5,4.4,3.2,8.7,4.7,13.1c0.6,1.8,1.1,3.7,1.5,5.5c0.1,0.8,0.1,1.6,0,2.4
			c-1.1,0.1-1.2-0.6-1.4-1.2c-2.3-6.9-4.7-13.8-7-20.8c-0.5-1.6-1.6-2.9-3.1-3.7c-2.7-1.4-5.4-3-8.1-4.4c-0.8-0.4-1.7-0.7-2.5-0.9
			c4.3,10.8,9.1,20.7,11.3,31.6c-0.3-0.2-0.8-0.4-1-0.8c-0.6-1.1-1.1-2.3-1.5-3.4c-2.7-8.8-6.7-17.2-10-25.8
			c-0.9-2.4-2.7-4.3-5.1-5.4c-2.6-1.4-5.2-3-7.8-4.4c-0.8-0.3-1.7-0.6-2.6-0.7C5.2,38.4,5.1,38.2,5,38c-0.1,0.1-0.2,0.1-0.2,0.1
			C4.8,38.2,5,38.4,5.1,38.5z"/>
		<path class="st10" d="M0.4,390.1c2.1,0.8,4.2,1.5,6.2,2.4c5.6,2.5,11.2,5.1,16.8,7.7c1,0.5,1.9,1.2,2.6,2.1c2.4,3.1,4.6,6.3,7,9.4
			c0.7,0.9,1.5,1.7,2.3,2.4l0.5-0.3c0-0.5-0.1-1-0.3-1.4c-1.5-2.2-3-4.4-4.5-6.6c-0.6-0.9-1-1.8-1.5-2.8l-0.1-0.2l0.1,0.2l12,4.8
			c2.9,1.2,5.9,2.3,8.8,3.5c1.5,0.5,2.8,1.5,3.5,2.9c1.5,2.6,3.2,5.1,4.8,7.6c0.5,0.7,1,1.3,1.5,1.9c1.3-0.9,0.8-1.7,0.3-2.5
			c-1.5-2.4-2.9-4.8-4.5-7.3c0.8-0.2,1.7-0.1,2.5,0.4c5.7,2.2,11.4,4.5,17.2,6.8c1.5,0.6,2.9,1.2,4.4,1.7c1.4,0.5,2.6,1.4,3.4,2.7
			c1.5,2.2,3,4.4,4.5,6.6c0.3,0.6,0.8,1.1,1.3,1.5c0.3,0.2,0.9,0.1,1.3,0.2c0-0.4,0.1-1-0.1-1.3c-1.3-2-2.8-3.9-4.2-5.9
			c-0.2-0.3-0.3-0.6-0.4-0.9l-0.2-0.3l0.3,0.2c2.3,0.8,4.6,1.4,6.8,2.3c4.7,1.7,9.3,3.5,14,5.3l0.5,0.2c0.6,0.2,1.4,0.6,1.6-0.4
			c0.1-0.3-0.5-1-0.9-1.2c-2.4-1-4.8-2-7.2-2.9c-4.7-1.8-9.4-3.6-14.7-5.6c3.8-1.6,7.8-0.6,10.9-2.5c0-0.2,0-0.5,0-0.8
			c-0.6-0.2-1.1-0.3-1.7-0.3c-3.8,0.5-7.5,1.1-11.3,1.6c-0.8,0.1-1.6,0.1-2.4-0.1c-4.7-1.7-9.3-3.5-14-5.3c-2.6-1-5.2-2.1-7.9-3.1
			c-0.7-0.3-1.4-0.6-2-1.1c3.2-0.8,6.6-0.5,9.8-1.7c-0.3-1.3-1.1-1.4-1.8-1.3c-4.4,0.4-8.7,0.9-13.1,1.3c-0.4,0-0.8,0-1.2-0.2
			c-7-2.8-14-5.6-21-8.9c0.5-0.1,1-0.2,1.5-0.2c2.7-0.2,5.3-0.4,7.9-0.6c0.9-0.1,1.6-0.3,1.7-1.5c-1.2-0.7-2.4-0.4-3.6-0.3
			c-3.7,0.2-7.4,0.6-11.2,0.8c-0.9,0-1.8-0.2-2.6-0.6c-7.2-3.3-14.3-6.6-21.5-10c-0.7-0.3-1.4-0.5-2.1-0.8L0.4,390.1z"/>
		<path class="st10" d="M0.4,382.6c2.6,0.5,5.2,1.1,7.8,1.7c2,0.4,4,1,6.1,1.3c1.5,0.2,2.9,0.9,3.9,2c1.6,1.6,3.3,3.1,5,4.5
			c0.5,0.5,1.2,0.8,1.9,0.9c-0.1-2.7-2.9-3.5-4-5.9c1.5,0.3,2.8,0.5,4.2,0.7c5.8,1,11.6,2,17.4,2.8c2.1,0.3,4.1,1.3,5.7,2.8
			c1.8,1.6,3.6,3.2,5.4,4.8c0.5,0.7,1.4,1,2.2,0.6c-0.8-3-4.4-3.6-5.6-6.7c1.6,0.2,2.9,0.3,4.3,0.6c5,0.8,10,1.6,15,2.3
			c1.8,0.3,3.5,1.1,4.8,2.5c1.2,1.1,2.4,2.1,3.6,3.1c0.4,0.3,0.8,0.5,1.2,0.6c0.5-2.7-2.4-3.3-3-5.6c2.5,0.3,5.1,0.4,7.7,0.5
			c2.5-0.1,5,1,7.4,0.1c0-0.2,0.1-0.4,0.2-0.7c-0.5-0.3-1-0.6-1.6-0.7c-2.7-0.2-5.5-0.4-8.2-0.6c-1.8-0.1-3.6-0.4-5.8-0.6
			c1.8-1.5,4.2-1.5,5.7-3.8c-0.7,0-1.5,0-2.2,0.2c-2.3,0.8-4.5,1.7-6.7,2.7c-1.2,0.5-2.6,0.6-3.9,0.3c-3.7-0.7-7.4-1.2-11.1-1.7
			c-2.5-0.4-4.9-0.8-7.9-1.3l5.8-3c-0.7-0.8-1.9-0.9-2.8-0.4c-0.8,0.3-1.5,0.7-2.3,1c-2.9,1.4-6.3,1.8-9.4,1.2
			c-5.8-1.2-11.8-2.2-17.6-3.2c-0.5-0.1-0.9-0.3-1.3-0.5l3.1-1.4c-0.8-0.5-1.2-0.9-1.6-0.9c-1.2,0-2.5,0.2-3.6,0.6
			c-2.6,1.2-5.2,0.8-7.8,0.1c-3.1-0.9-6.2-1.7-9.4-2.5c-0.8-0.1-1.6-0.2-2.5-0.3L0.4,382.6z"/>
		<path class="st10" d="M35.4,434.6c0.9,0,1.7-0.3,1.6-1.4s-0.2-2.5-0.3-3.7c-0.1-0.9-0.2-1.8-0.2-2.6l0.5-0.3c1.2,1,2.6,2,3.7,3
			c3.6,3.3,7.1,6.7,10.6,10.1c2.2,2.1,2.9,4.9,3.7,7.7c0.5,1.6,0.7,3.2,1.2,4.8c0.3,0.6,0.8,1,1.4,1.3c0.3-2.9-0.7-5.7-1-8.7
			c1.2,0.6,2.3,1.4,3.2,2.3c2.1,2.1,4.1,4.3,6.2,6.5c0.9,1.2,2.2,2,3.6,2.3c0.8-0.8,0.3-1.3-0.2-1.7c-4-3.9-8.1-7.8-12.1-11.8
			c-0.2-0.3-0.3-0.5-0.5-0.8c3.3,0.6,6.2,2,9.6,2c-0.1-1.6-1.2-1.7-2.1-2c-3.6-1.2-7.3-2.2-10.9-3.4c-0.6-0.1-1.1-0.4-1.5-0.7
			c-4.1-3.9-8.2-7.8-12.3-11.7c-0.1-0.1-0.1-0.3-0.2-0.6c2.9-0.1,5.7,1.2,8.7,0.4c-0.5-1.3-1.4-1.4-2.3-1.5
			c-1.9-0.4-3.8-0.7-5.7-0.8c-3.8-0.1-6.5-2.1-9.1-4.5c-5.1-4.6-10.2-9.3-15.4-13.8c-4.2-3.5-8.6-6.7-13-10c-0.6-0.4-1.3-0.7-2-0.8
			v2c0.5,0.2,1,0.5,1.5,0.8c10.8,7.7,20.3,16.9,30.3,25.5c0.8,0.6,1.3,1.5,1.6,2.5C34.5,428.1,34.9,431.4,35.4,434.6L35.4,434.6z"/>
		<path class="st8" d="M35.4,434.6c-0.5-3.3-0.9-6.6-1.6-9.8c-0.2-1-0.8-1.8-1.6-2.5c-10.1-8.5-19.5-17.8-30.4-25.5
			c-0.5-0.3-1-0.6-1.5-0.8v4.5c0.6,0.3,1.1,0.6,1.6,1c6,5.7,12,11.5,17.9,17.3c2.9,2.9,5.6,6.1,8.5,9.1
			C30.7,430.3,33.1,432.4,35.4,434.6z"/>
		<path class="st11" d="M0.4,414.1c0.6,0.2,1.1,0.6,1.6,1c8.2,8,16.2,16.3,22.9,25.7c4.7,6.6,9.2,13.2,13.6,20
			c3.6,5.5,6.8,11.3,10.4,16.7s7.2,10.8,11.7,15.5c3.4,3.6,6.5,7.4,9.8,11c1.6,1.7,3.3,3.3,5.1,4.8c0.6,0.5,1.4,1.3,2.6,0.3
			c-0.3-0.5-0.6-0.9-0.9-1.3c-4.3-3.3-7.6-7.5-11.1-11.4c-1.1-1.2-2.1-2.6-3.2-3.8c-4.4-4.3-7.6-9.5-11.1-14.4
			c-1.9-2.6-3.5-5.5-5.1-8.3c-4.5-7.6-9.3-15-14.5-22.1c-1.5-2-2.8-4.1-4.2-6.2c-4.5-6.4-9.4-12.5-14.9-18.1
			c-3.5-3.6-7.1-7.2-10.8-10.8c-0.6-0.4-1.2-0.7-1.8-1L0.4,414.1z"/>
		<path class="st12" d="M3.6,88.4c-0.1,0.5-0.3,1.1-0.2,1.5c0.8,2.3,1.7,4.5,2.6,6.8c0.2,0.5,0.6,1,1,1.4c3.4,2.6,6.9,5.2,10.3,7.9
			c0.7,0.5,1.6,1,1.1,2.5c-0.5-0.1-1-0.2-1.5-0.4c-2.1-1.5-4.1-3.1-6.2-4.7c-0.8-0.6-1.7-1.3-3-2.2c0.2,1,0.2,1.4,0.3,1.8
			c1.2,4.1,2.4,8.3,3.7,12.4c0.2,0.7,0.5,1.4,1,2c1.8,1.9,3.7,3.8,5.6,5.7c0.6,0.6,1.2,1.2,1.8,1.8c0.6,0.5,0.7,1.4,0.2,2.1
			c0,0.1-0.1,0.1-0.2,0.2c-2.5-0.9-3.7-3.6-6.4-5.2c-0.1,0.8-0.1,1.5,0,2.3c0.4,3,1,6,1.4,9.1c0.2,1.7,1.5,2.7,2.5,3.9
			c1,1.1,1.7,2.5,2,4c-2.1,0.8-1.9-1.6-3.3-2c-0.2,1.3-0.4,2.5-0.6,3.8h-0.6l-0.9-2.4c-1.4,1.1-1,3.5-3.1,3.9
			c-0.8-0.8-0.5-1.5-0.2-2.1c0.3-0.9,0.7-1.9,1.2-2.7c1.6-2.5,1.3-5.2,0.9-7.9s-1-5.5-1.5-8.3c0-0.2-0.2-0.4-0.4-0.8
			c-1.4,2.2-0.9,5-2.9,6.9c-0.9-1.1-0.6-2.2-0.3-3.3c0.6-2.3,1.3-4.6,1.9-7c0.3-0.8,0.3-1.6,0.2-2.4c-1.2-4.2-2.5-8.5-3.7-12.7
			c-0.1-0.4-0.3-0.7-0.4-1c-1.2,3.5-0.8,7.1-2.4,10.2c-1.4-0.6-1.1-1.4-1-2.1c0.3-2,0.6-4.1,0.9-6.1c0.4-1.9,0.7-3.8,0.8-5.6
			c0-1.2-0.3-2.4-0.7-3.6c-0.8-2.2-1.7-4.4-2.6-6.7v-3L3.6,88.4z"/>
		<path class="st11" d="M0.4,408.1c0.6,0.2,1.1,0.5,1.6,0.9c4.3,4.7,8.7,9.4,12.9,14.2c1.5,1.7,3,3.4,4.5,5
			c7.2,7.7,14.1,15.7,21.8,23c4.7,4.4,9.1,9.2,13.8,13.7c6,5.7,12,11.3,18.2,16.7c2.5,2,5.1,3.7,7.8,5.3c0.6,0.4,1.5,1,2.2-0.3
			c-0.2-0.2-0.3-0.6-0.5-0.7c-6.6-3.8-12.2-8.9-17.6-14.3s-10.6-10.6-16-15.8c-4.2-4.1-8.5-7.9-12.6-12.1s-8-8.7-12-13
			c-1.4-1.5-2.8-3.1-4.1-4.7c-4.8-5.4-9.6-10.8-14.5-16.2c-1.3-1.4-2.7-2.7-4.1-4c-0.4-0.3-0.9-0.6-1.5-0.9L0.4,408.1z"/>
		<path class="st13" d="M0.6,159.5c3.4,2.1,6.8,4.1,10.2,6.2c0.5,0.3,1,0.5,1.5,0.8c1.5-1.9,0.1-4.5,2-6.6c1.7,2.6-0.1,5.1,0.5,7.8
			l9.3,1.3c1.5-2.4,1.5-5.6,3.5-7.8c1,0.2,1.2,0.8,0.9,1.5c-0.5,1.4-1,2.8-1.5,4.2c-0.3,0.9-0.6,1.9-0.8,2.5l7,6.2l1.9-1.5
			c1.2,1,1.2,1-1,3.8l5,8.1c1.5-0.3,2-2.2,3.7-1.9c0.6,1-0.1,1.4-0.5,2c-2,2.2-2,2.2-0.4,4.8c0.3,0.4,0.5,0.9,0.8,1.3s0.9,1.3,0,1.6
			c-0.3,0.1-1.1-0.4-1.5-0.8c-0.5-0.6-1-1.3-1.4-2c-0.2-0.3-0.5-0.6-0.8-1c-1.5,0.9-2.1,2.7-4.2,3c-0.4-2.5,2.2-3.1,2.9-5.4
			c-1.1-2.5-3.1-4.9-4.8-7.6c-2.2,0.8-2.5,3.3-4.2,4.5c-0.6-1.8-0.6-1.8,2.9-6.8c-1.4-2.4-3.4-4.4-5.9-5.7c-1.3,2-1.1,4.7-3.7,6.5
			c-0.4-3,1.6-4.9,1.6-7.4c-3-1.3-6.4-0.6-9.5-1.6c-1.4,2-1.1,4.8-3.2,6.8c-1-2.8,0.9-5,1-7.5c-0.6-0.4-1.3-0.9-2-1.4
			c-2.7-1.7-5.4-3.3-8.1-5c-0.3-0.2-0.6-0.3-1-0.5v-2.4H0.6z"/>
		<path class="st11" d="M0.4,420.6c0.6,0.3,1.1,0.6,1.6,1c7.1,8,13.5,16.5,19.2,25.5c4.8,7.4,9.1,15.1,12.9,23.1
			c2.8,5.8,5.2,11.8,7.8,17.8c1.3,3,2.7,6.1,4.1,9.1c0.9,2,1.5,4,2.5,6c0.7,1.1,1.5,2.2,2.4,3.2c0.2-0.2,0.5-0.5,0.7-0.7
			c-0.9-2.2-1.8-4.5-2.8-6.8s-2-4.4-2.9-6.6c-2-4.6-3.9-9.2-5.8-13.8c-4.1-9.5-8.9-18.8-14.2-27.7c-4.3-7.4-9.4-14.3-14.5-21.1
			c-2.9-3.9-6.2-7.4-9.3-11.1c-0.5-0.4-1-0.7-1.6-1L0.4,420.6z"/>
		<path class="st14" d="M0.6,193c1.2,0.9,2.4,1.9,3.5,3c4.5,4.8,9.1,9.5,13.5,14.4c6.2,6.8,12.3,13.8,18.4,20.7c2.7,3,5.4,5.9,7.9,9
			c4,5,7.9,10.1,11.9,15c2.6,3.2,5.3,6.2,7.9,9.3c3.1,3.7,6.1,7.4,9.1,11.2c0.4,0.6,0.8,1.3,1.2,2l-0.5,0.4c-0.5-0.4-1-0.9-1.5-1.4
			c-3.3-4-6.6-8.1-10-12.1c-1.4-1.7-2.8-3.2-4.2-4.9c-2.7-3.4-5.4-6.8-8.1-10.1c-3-3.8-6-7.5-9.2-11.2c-4.4-5.2-8.9-10.3-13.5-15.4
			c-4.2-4.7-8.5-9.3-12.8-14c-4.1-4.5-8.3-8.9-12.4-13.3c-0.4-0.4-0.8-0.7-1.3-1.1V193H0.6z"/>
		<path class="st11" d="M0.4,425.6c0.4,0.2,0.9,0.3,1.2,0.7c1.3,2,2.7,4,3.9,6.1c5.8,9.6,10.2,19.9,13.2,30.6
			c1.2,4.4,2.6,8.8,3.6,13.2s1.5,8.8,2.2,13.3c0.3,2,0.5,4.1,0.9,6.2c0.1,0.5,0.5,0.9,1,1.7c0.5-1.6,0.6-3.2,0.4-4.9
			c-0.4-5.1-1.1-10.1-2.4-15c-1-4.2-2-8.4-3.2-12.5c-1.5-4.8-3-9.7-4.8-14.4c-1.5-3.8-3.1-7.5-5-11.2c-2.6-5.5-5.7-10.7-9.3-15.6
			c-0.5-0.6-1.1-1.2-1.7-1.7L0.4,425.6z"/>
		<path class="st14" d="M0.6,198c0.8,0.4,1.5,0.9,2.2,1.5c6.3,6.2,12,13,16.9,20.3c5.2,7.9,10,16.1,14.5,24.5
			c2,3.8,3.7,7.8,5.7,11.6c4.3,8,6.9,16.6,10.1,25c0.5,1.2,0.7,2.5,1,3.8l-0.5,0.2c-0.3-0.4-0.6-0.7-0.9-1.2c-2-5.3-3.9-10.6-6-15.9
			c-1.5-3.9-3.2-7.6-5-11.4c-4-8.6-8.4-17-13.3-25.1C20,222.8,14.9,214.2,7.9,207c-2.4-2.5-4.9-5-7.3-7.5L0.6,198z"/>
		<path class="st14" d="M0.6,190c0.7,0.2,1.3,0.5,1.9,0.8c11.7,10.2,24.1,19.4,36.4,28.7c8.1,6.1,16.1,12.4,24,18.7
			c4.2,3.3,8.2,6.8,12.2,10.2c0.9,0.5,1.4,1.5,1.2,2.5c-0.5-0.3-1-0.6-1.4-0.9c-4.9-5-10.6-9-16.1-13.4
			c-7.3-5.7-14.5-11.3-21.9-16.9c-4.1-3.1-8.3-6.1-12.4-9.2c-7.1-5.8-14.4-11.7-21.6-17.5c-0.7-0.6-1.5-1-2.3-1.5L0.6,190z"/>
		<path class="st14" d="M0.6,209.5c0.6,0.5,1.2,1,1.7,1.6c2.5,3.8,4.6,7.9,6.3,12.2c2.5,6.8,4.4,13.8,5.6,20.9
			c1.1,6,2.2,12.1,3.2,18.1c0.3,2.3,0.5,4.6,0.5,6.8c-0.8-0.5-1.2-1.3-1.2-2.2c-1.4-8.2-2.7-16.5-4.4-24.7
			c-1.1-5.4-2.6-10.8-4.2-16.1c-1.4-4.5-3.4-8.7-5.9-12.6c-0.5-0.7-1-1.3-1.5-2L0.6,209.5z"/>
		<path class="st0" d="M0.6,219.5c0.5,0.3,0.5,0.7,0,1V219.5z"/>
		<path class="st15" d="M95.1,125.5c-0.1-0.1-0.3-0.2-0.3-0.4c-0.4-3.4-1.5-6.6-3.1-9.6c4.5-0.5,9-1.1,13.6-1.5
			c3.9-0.3,7.8-0.5,11.7-0.5c7.4,0,14.5,2.3,20.5,6.6c1.4,1,2.4,2.6,2.6,4.4c0,0.7-0.2,1.4-0.7,2c-1.8,2.1-4.3,3.5-7.1,3.9
			c-4.2,0.9-8.6,0.9-12.8,0c-3.3-0.8-6.6-1.8-9.8-2.7s-6.3-1.8-9.6-2.5c9.1,7.5,19,14,29,20.2c6.9-3.5,13.9-6.5,21.5-7.8
			c4.1-0.7,8.2-1,12.2,0.8c1.9,0.8,3.6,1.8,4.4,3.8c1.4,3.6,0.3,5.5-3,7.8c-2.1,1.3-4.6,2-7.1,2c-4.6,0.3-9.2-0.1-13.6-1.2
			c-2.1-0.5-4.3-0.8-6.5-0.8c0.6,0.5,1.2,0.9,1.8,1.3c4.4,2.3,8.8,4.6,13.2,6.8c0.3,0.2,0.7,0.4,1.1,0.4c3.2-0.1,6.5-0.2,9.7-0.3
			c2.9-0.1,5.8-0.3,8.7-0.1c2.5,0.1,4.9,0.5,7.4,1c4.1,0.8,7.9,2.7,11,5.5c1.2,0.9,2,2.3,2.2,3.8c0.4,2.6-1.1,5.1-3.6,5.9
			c-2.6,1.1-5.5,1.4-8.2,0.9c-6.1-1.1-11.8-3.3-17.1-6.6c-2.6-1.7-5-3.9-7.5-5.7c-1.2-0.8-2.5-1.6-3.9-2.2c-2.4-1.1-4.8-2.1-7.5-3.2
			c1.9,3,3.6,5.7,5.3,8.4c1.6,2.6,2.6,5.6,2.9,8.6c0.3,2.5-1.4,4.7-3.9,5c-0.9,0.1-1.8,0-2.6-0.5c-2.1-1.1-4-2.8-5.3-4.8
			c-1.5-2.1-2.7-4.4-4.1-6.5c-3.7-5.6-5.8-11.9-8.1-18.1c-0.1-0.5-0.3-0.9-0.7-1.2c-1.9-1.3-4-2.5-6.1-3.4c0.2,0.4,0.3,0.8,0.6,1.1
			c3.5,4.4,5.9,9.6,7.1,15.2c0.5,2.2,0.5,4.6-1.4,6.5c-0.8,0.9-1.9,1.4-3.1,1.3c-1.8-0.1-3.4-0.8-4.7-2c-3.9-3.7-7.3-8-9.9-12.7
			c-2.3-4.2-3.7-8.7-4.3-13.4c-0.2-2.1-0.3-4.3-0.6-6.4c-0.1-0.7-0.4-1.4-0.9-1.9C101.5,130.2,98.3,127.9,95.1,125.5z M119.8,120
			c-0.9,0.2-1.7,0.4-2.6,0.5c-2.3,0.1-4.6,0-6.9,0c-3.4,0-6.8,0-10.2,0c-1.3,0-2.6-0.2-4.4-0.4c0.3,0.3,0.7,0.5,1.1,0.7
			c3.6,1,7.2,1.9,10.8,3c5.2,1.5,10.4,3.3,15.9,4c3.7,0.5,7.2-0.3,10.8-0.9c0.5-0.2,0.9-0.4,1.3-0.8c1.5-1,1.7-1.9,0.3-3.2
			c-1.3-1.3-2.8-2.4-4.4-3.2c-5-1.9-10.2-3.5-15.7-3.3c-2.5,0.1-5,0-7.5,0c-1.8,0.1-3.7,0.3-5.5,0.5c4.6,0.5,9.1,0.7,13.7,1
			C117.8,117.9,119.2,118.7,119.8,120L119.8,120z M118.2,150.5c-2.9-0.8-4-2.9-5.3-4.6s-2-3.9-3.8-5.8c0,0.5,0,1.1,0,1.6
			c1.4,9.1,6.2,16.3,12.6,22.6c1,1,2.3,2.3,4.5,1.3c0.3-1.3,0.4-2.7,0.3-4c-0.9-4.5-2.8-8.7-5.5-12.4c-1.7-2.4-3.7-4.7-5.6-7
			c-0.2-0.3-0.7-0.3-1.3-0.5C115.3,144.8,117.6,147,118.2,150.5z M162,163.6c0.8,0.8,1.7,1.6,2.6,2.4c4.3,3,9.2,4.5,14.2,5.9
			c2.8,0.8,5.7,1.1,8.5-0.5c2.1-1.1,2.5-2.3,0.9-4.1c-2-2.4-4.7-4-7.7-4.8c-2.6-0.6-5.2-1.1-7.8-1.5c-1.6-0.2-3.3-0.2-4.9,0.1
			c0.4,0.4,0.5,0.6,0.6,0.6c2.4,0.8,4.9,1.5,7.3,2.3c0.9,0.3,2,0.6,1.7,2.2c-0.6,0.1-1.3,0.2-1.9,0.1c-2.4-0.5-4.7-1.1-7-1.5
			C166.5,164.5,164.7,163.4,162,163.6L162,163.6z M143.1,147.5c4.1,1.4,8.5,1.9,12.8,1.4c2.3-0.3,4.5-0.9,6.7-1.7
			c1.8-0.6,2.5-2.5,1.6-3.8c-1.1-1.6-2.8-2.7-4.8-2.9c-5.5-0.4-11.1,0.3-16.4,2.1c-1.4,0.5-2.7,1-4,1.6c2.6,0,5.1-0.1,7.7-0.4
			c2.3-0.2,4.6-0.5,6.9-0.7c1.2-0.1,2.1,0.3,2.4,2C152,146.6,147.6,146.3,143.1,147.5z M148.2,176.4c1.2-0.4,1.8-1.7,1.3-2.9
			c0,0,0-0.1-0.1-0.1c-0.9-2.5-1.9-4.9-3.2-7.3c-1.7-2.7-3.5-5.2-5.6-7.6c-1-1.3-2.1-2.7-4-3.4c0.7,3.3,4.4,5.1,3.7,9.1
			c-1.2-0.8-2.1-1.4-3-2c0,0.7,0.3,1.4,0.6,1.9c1.6,2.5,3.2,5,4.7,7.6C143.8,174,145.8,175.6,148.2,176.4z"/>
		<path class="st0" d="M66.8,487.8c0.6,2,2.3,3.2,3.7,4.6c6.5,6.2,13.2,12.2,18.9,19.2c1.2,1.4,2.1,3,2.8,4.7c1.1,3-0.3,4.9-3.5,4.9
			c-1.6-0.1-3.1-0.3-4.7-0.6c0.2,0.4,0.2,0.8,0.5,1c1.4,1.1,2.8,2,4.3,2.9c3.6,2,7.2,4.1,10.8,5.9c3.7,2,7.5,3.8,11.4,5.3
			c4.1,1.4,8.2,3.1,12.8,2.9c3.2-0.1,7-3.6,6-7.7c-0.8-3.4-2.6-6.1-4.3-8.8c-2.1-3.4-4.6-6.6-7.1-9.9c-1.4-1.8-2.9-3.6-4.5-5.3
			c-3.7-3.9-7.5-7.8-11.1-11.7c-1.2-1.3-2.1-2.8-3.2-4.1c-0.5-0.4-1-0.7-1.6-1c-0.3,3.2-1.1,4.1-4.1,4.5c-5.8,0.8-11.3-0.4-16.6-2.7
			c-3.4-1.5-6.8-3-10.2-4.4L66.8,487.8z"/>
		<path class="st0" d="M112.7,225.4c0.6,1.2,1,2.4,1.7,3.5c2.6,4.4,4.4,9.1,5.4,14.1c0.2,1.1,0.3,2.3,0.2,3.5
			c-0.1,1.6-1.4,2.1-2.7,1.1c-0.6-0.5-1-1.1-1.4-1.7c-2.3-3.6-4.6-7.3-7-10.9c-1.2-1.9-2.5-3.8-4.1-6.1c-0.2,0.7-0.3,1.3-0.4,2
			c0,2.3-0.1,4.7,0,7c0,1.6-0.5,3.1-1.4,4.4c-0.5,0.8-1.5,1.1-2.3,0.6c-0.2-0.1-0.4-0.3-0.6-0.5c-0.6-0.8-1-1.7-1.2-2.7
			c-0.8-4.2-1.4-8.5-2-12.7c-0.2-1.3-0.4-2.6-0.7-4.3c-0.3,0.4-0.5,0.9-0.7,1.3c-0.5,1.9-0.9,3.9-1.5,5.7c-0.2,1-1.2,1.6-2.2,1.4
			c-0.4-0.1-0.8-0.4-1.1-0.7c-0.7-0.8-1-1.8-1.1-2.9c-0.3-3.7-0.2-7.5-0.6-11.2c-0.6-5.8-1.5-11.5-4.2-16.8c-0.5-1.1-1-2.3-1.3-3.5
			c-0.6-1.9,0.5-3.3,2.5-2.9c3.3,0.7,6.7,1.4,9.9,2.3c4.6,1.3,9.2,2.9,13.6,4.7c4.5,1.9,8.8,4.4,12.1,8.2c0.4,0.5,0.8,1.1,0.9,1.7
			c0.2,1.2-0.3,2-1.6,2c-1.5,0-3-0.1-4.5-0.3c-2.3-0.3-4.7-0.7-7.2-1c0.1,0.4,0.1,0.8,0.3,0.9c2.8,2.1,5.4,4.4,7.9,6.8
			c2,2.1,4.4,4.1,5.2,7.1c0.4,1,0.2,2.2-0.5,3c-0.8,0.8-1.7,0.5-2.5,0.1c-1.3-0.6-2.5-1.3-3.7-2c-1-0.5-1.9-1.2-2.8-1.8L112.7,225.4
			z"/>
		<path class="st16" d="M98.2,70.5l-1.1-4l0,0c3.2,1.5,5.5,4.3,6.5,7.7c0.7,1.9,1.6,3.7,2.6,5.4c0.3,1,1.4,1.5,2.3,1.2h0.1l-3.1-6.4
			L106,74c1,0.8,2,1.5,3,2.3c2,1.7,4.1,3.4,6.1,5.1c0.5,0.3,1.1,0.5,1.7,0.4c-2.6-3.8-6.5-6.1-10-9.8c1.6,0.3,3.2,0.4,4.8,0.5
			c1.2,0,2.7,1.3,4-0.7c-0.7-0.3-1.4-0.6-2.1-0.8c-2.4-0.4-4.9-0.7-7.4-1.1c-0.7,0-1.3-0.2-1.9-0.5c-2.4-1.6-4.8-3.4-7.5-5.4
			c1.9,0,3.2,0.1,4.4,0c1.1-0.1,2.5,0.6,3.4-0.9c-1.1-1-2.4-0.9-3.6-1c-2.4-0.1-4.8-0.4-7.2-0.5c-0.9-0.1-1.6-0.4-1.7-1.4
			c3.9-0.1,7.8-0.5,11.7-0.4c2.3,0.2,4.6,0.6,6.8,1.1c0.5,0.1,1,0.2,1.4,0.6c0.6,0.6,1.3,1.4,1.4,2.1c0,0.4-1,1.2-1.8,1.4
			c-1.5,0.4-3,0.6-5.2,1c1.6,0.5,2.7,0.8,3.7,1.2c3.4,1.3,6.9,2.5,10.2,4c1.3,0.7,2.5,1.6,3.6,2.7c1.2,1.2,0.8,2.5-0.9,2.9
			c-0.9,0.1-1.8,0.2-2.7,0.1c-0.8,0-1.7-0.2-2.5-0.3c-0.1,0-0.3,0.1-0.6,0.3c2.1,1.8,4.3,3.4,6.3,5.2c1.8,1.8,3.4,3.8,4.9,5.9
			c0.8,0.8,0.8,2,0.1,2.8c-0.9,1-2,0.6-3,0.1c-1.2-0.6-2.3-1.3-3.4-2.1c-3.2-2.2-6.4-4.5-9.9-6.9c0.1,0.8,0.2,1.2,0.3,1.6
			c0.5,1.8,0.8,3.5,1.1,5.3c0.1,1.6-1,2.3-2.5,1.5c-1-0.7-2-1.5-2.7-2.5c-1-1.6-2.1-3.2-3.3-4.7c0,1.2,0,2.4,0,3.6
			c-0.2,3-1.1,3.5-3.7,2c-0.2-0.1-0.3-0.1-0.5-0.1c-0.5-5.1-2.8-9.6-4.1-14.5c-0.2-0.6-0.3-1.3-0.4-1.9l0.6-0.6l0,0
			c0.4,0.7,0.5,1.7,1.8,1.9C99.2,72.2,99.3,71.2,98.2,70.5z"/>
		<path class="st17" d="M57.6,113.9c-0.5-1-1.1-2-1.6-3c-0.3-0.6-0.8-1.3,0.1-1.6c0.3-0.1,1.1,0.5,1.5,0.9c1.3,1.9,2.7,3.9,4,5.9
			l0.6,0.5l0,0c0.3,0.7,0.6,1.4,1,2c2.4,3.4,4.9,6.7,7.2,10.1c1.3,1.9,2.7,3.2,5.2,3.1c1.2,0,2.5,0.1,3.7,0.3l9.3,2.5
			c0.8,0.6,1.7,1.2,2.5,2s1.6,1.4,1,2.5s-1.5,0.9-2.4,0.6c-2.1-0.7-4.3-1.4-6.4-2.2s-4.3-1.9-6.4-2.8c-0.5-0.2-1.1-0.3-1.7-0.4
			c0.4,0.7,0.8,1.3,1.2,1.9c3.3,3.4,6.7,6.7,10,10.2c0.7,0.8,1.8,1.1,2.9,0.8c3-0.5,6.2-0.4,9.2,0.4c0.7,0.1,1.4,0.4,2,0.9
			c0.5,0.5,0.8,1.2,0.8,1.9c-0.1,0.5-1,1.1-1.6,1.2c-0.8,0.1-1.7,0-2.5-0.1c-1.7-0.4-3.4-0.6-5.1-0.5c0.6,0.6,1.3,1.2,1.9,1.8
			c2.3,2.2,4.7,4.3,6.8,6.6c1.2,1.4,2.5,2.9,1.8,5.1c-1.7,0.7-2.6-0.5-3.5-1.4c-2-2-3.7-4-5.5-6c-3.3-3.7-6.7-7.4-10.1-11.1
			c-0.4-0.4-0.9-0.7-1.5-0.8c0.1,0.7,0.2,1.5,0.4,2.2c0.7,3,1,6.1,0.8,9.2c0,0.4,0,0.8-0.2,1.2c-0.3,0.5-0.8,1.2-1.3,1.2
			s-1.1-0.6-1.3-1.1c-0.4-0.9-0.6-1.9-0.7-2.9c-0.4-3.8-0.8-7.6-1.1-11.4c-0.1-1.8-0.8-3.6-2-4.9c-2.9-3.3-5.7-6.7-8.5-10.1
			c-0.7-0.8-1.4-1.6-2.4-2.9c0.1,1.3,0.2,2,0.3,2.6c0.2,2.2,0.4,4.3,0.6,6.5c0,0.5,0,1-0.1,1.5c-0.1,0.9-0.2,1.9-1.3,2.2
			s-1.4-0.6-1.9-1.2c-0.2-2-0.5-3.9-0.7-5.9c-0.2-2.7-0.5-5.4-0.4-8.1c0.1-3.6-1.7-6.2-3.9-8.7l0,0L57.6,113.9z"/>
		<path class="st18" d="M68.6,509.5c-2-2.2-4.1-4.3-6.1-6.5s-4.4-4.5-6.5-6.9c-1.3-1.4-2.5-2.9-3.9-4.2c1,3.5,3,6.5,4.7,9.6
			c0.8,0.4,1.6,0.9,2.3,1.4c2.3,1.8,4.5,3.6,6.8,5.4C66.8,508.8,67.6,509.2,68.6,509.5z"/>
		<path class="st19" d="M143.9,486.9c1.5,0,2.8-1.2,2.8-2.8c-0.1-1.8-1.3-3.3-3-3.8c-1.3-0.5-2.7-0.1-3.6,1c-0.4,0.4-0.6,1-0.6,1.5
			C139.9,485.1,141.7,486.8,143.9,486.9z"/>
		<path class="st19" d="M127,474.1c0,1.7,0.9,3.2,2.4,3.9c0.9,0.6,2.1,0.9,3,0c1-0.8,1.4-2.1,1.2-3.3c-0.6-2.4-2.5-3.8-4.5-3.2
			C127.5,471.9,127,472.6,127,474.1z"/>
		<path class="st14" d="M29.9,541.2c-1.5-0.9-3-1.2-4.6-0.1c-1.1,0.8-1.1,1.7-0.9,2.8c0,1.5,1,2.7,2.5,3.1c1.1,0.4,2.2,0,2.8-1
			l0.8-1.3C30.3,543.5,30.1,542.3,29.9,541.2z"/>
		<path class="st20" d="M56.6,599.5c1.7-0.2,3-1.7,2.9-3.4c0-1.2-2.3-2.9-3.8-2.9c-1.8,0-2.7,1-2.7,2.8c-0.2,1.8,1.1,3.3,2.9,3.5
			C56.1,599.6,56.3,599.6,56.6,599.5z"/>
		<path class="st14" d="M84,172.2c-1.8-0.3-3.1-1.8-3.1-3.6c0.2-1.6,1.4-2.8,3-2.8c1.5,0,3.3,1.6,3.2,2.9
			C87,170.5,85.5,172.2,84,172.2z"/>
		<path class="st19" d="M141.6,469.9c-0.3-1.8-1.8-3.2-3.6-3.4c-1.5,0.1-2.7,1.4-2.7,2.9c0.2,1.9,1.9,3.3,3.8,3.2
			C140.4,472.5,141.6,471.4,141.6,469.9L141.6,469.9z"/>
		<path class="st20" d="M66.5,587.1c0-2.8-0.2-3.1-1.8-3.7c-0.8-0.4-1.7-0.1-2.2,0.6c-1.4,1.8-1.3,4.2,0.1,6
			c0.9,0.9,2.3,0.9,3.1,0.1c0.3-0.3,0.5-0.7,0.6-1.1C66.4,588.3,66.5,587.7,66.5,587.1z"/>
		<path class="st21" d="M155.1,112.5c-1.9-0.2-3.3-1.8-3.3-3.7c0.3-1.2,1.4-2.1,2.6-2.2c1.5,0,3.7,2.2,3.5,3.6
			C157.7,111.6,156.5,112.5,155.1,112.5z"/>
		<path class="st21" d="M168,104.9c-0.4,1.4-1.3,2.5-2.5,3.2c-1,0.6-2.3,0.3-2.9-0.7c-0.1-0.1-0.1-0.3-0.2-0.4c-0.7-1.4-0.3-3.1,1-4
			c1.2-0.9,2.4-0.7,3.7,0.6C167.4,104,167.7,104.5,168,104.9z"/>
		<path class="st20" d="M59.7,314.4c0-2,0.9-2.9,2.8-2.9c1.7,0,2.6,0.8,2.6,2.3c0,1.6-1.2,3-2.8,3.2c-1.3,0.2-2.4-0.8-2.6-2
			C59.7,314.8,59.7,314.6,59.7,314.4z"/>
		<path class="st21" d="M165.7,114.1c1,1.4,2.7,2.4,1.4,4.3c-0.8,1.1-2.1,1.7-3.5,1.4c-1-0.4-1.6-1.3-1.4-2.4
			C162.1,115.7,162.8,115,165.7,114.1z"/>
		<path class="st20" d="M65.3,323.5c1.2,0,2.3,1,2.3,2.2c0,0.1,0,0.3,0,0.4c-0.1,1.5-1.4,2.7-2.9,2.8c-1.2,0-2.5-1.5-2.4-3
			s1.5-2.6,3-2.5C65.2,323.5,65.3,323.5,65.3,323.5z"/>
		<path class="st20" d="M50.1,583.3c1,1.5,2.2,2.8,4.2,2.2c1-0.4,1.5-1.5,1.2-2.5c-0.2-1.4-1.2-2.4-2.6-2.7
			C51.8,580.3,50.9,581.2,50.1,583.3z"/>
		<path class="st20" d="M72,320.5c-1.7,0-2.3-0.6-2.3-2.2s0.9-2.8,2.4-2.8c1.2-0.1,2.4,0.8,2.5,2c0,0.1,0,0.3,0,0.4
			c0.1,1.3-0.8,2.4-2.1,2.6C72.4,320.5,72.2,320.5,72,320.5z"/>
		<path class="st3" d="M54.5,425.1l-1.8-0.9l-0.3,0.5l1.9,1.6C54.4,425.8,54.5,425.5,54.5,425.1z"/>
		<path class="st14" d="M70.6,404.8l-2.2-0.2l-0.1,0.5l2.1,0.5C70.5,405.3,70.5,405,70.6,404.8z"/>
		<path class="st3" d="M59.1,426.9l-1.2-0.5L59.1,426.9z"/>
		<path class="st3" d="M66.7,429.9l-1.3-0.6L66.7,429.9z"/>
		<path class="st3" d="M69.1,431l-1.2-0.6L69.1,431z"/>
		<path class="st22" d="M45.9,335.5c5,1.8,10.4,3.2,15.8,5.4c-2.5,3.5-4.8,6.7-7.2,9.9c-0.9,0.9-1.9,1.6-3,2.2
			c-0.3,0.2-0.8,0.3-1.1,0.6c-2.2,2.4-5.2,2.3-8,2.9c-1.5,0.3-3.1,0.6-4.6,0.9c-1.7,0.3-2,0.2-2.7-1.4c-0.3-1-0.7-2-1.2-3
			c-1.3-1.9-0.6-3.4,0.8-4.9c2.1-2.2,4.2-4.5,6.2-6.8C42.6,339.5,44.1,337.7,45.9,335.5z"/>
		<path class="st22" d="M37.5,360.3c3.8-0.6,7-1.3,10.3-1.7c1.3-0.2,2.7,0,3.9,0.4c4.5,1.7,8.9,3.6,13.4,5.5
			c0.6,0.3,1.2,0.6,1.8,0.9c2.2,1,2.3,1.4,0.5,3.1c-1.4,1.3-2.9,2.5-4.4,3.6c-2.8,2-5.8,3.9-8.8,6c-1-0.6-2-1.1-2.9-1.8
			c-3-2.3-5.9-4.8-9.1-6.8c-2.1-1.3-2.4-3.5-3.4-5.3C38.2,362.8,37.8,361.6,37.5,360.3z"/>
		<path class="st22" d="M36.9,550c3.8,0.6,7,1.3,10.3,1.7c1.3,0.2,2.7,0,3.9-0.4c4.5-1.7,8.9-3.6,13.4-5.5c0.6-0.3,1.2-0.6,1.8-0.9
			c2.2-1,2.3-1.4,0.5-3.1c-1.4-1.3-2.9-2.5-4.4-3.6c-2.8-2-5.8-3.9-8.8-6c-1,0.6-2,1.1-2.9,1.8c-3,2.3-5.9,4.8-9.1,6.8
			c-2.1,1.3-2.4,3.5-3.4,5.3C37.6,547.4,37.2,548.7,36.9,550z"/>
		<path class="st22" d="M55.9,357.3c8.8-1.9,17-3.6,25.1-5.3c0.3,0,0.6,0.1,1.2,0.3c-3.3,4.2-6.8,8.2-10.6,12L55.9,357.3z"/>
		<path class="st22" d="M55.4,553c8.8,1.8,17,3.6,25.1,5.2c0.3,0.1,0.6-0.1,1.2-0.3c-3.3-4.2-6.8-8.2-10.6-12L55.4,553z"/>
		<path class="st22" d="M26.5,330.4c5.7,0.5,10.6,2.5,16,4c-2.8,5.1-7.5,8.2-10.9,13C29.1,342,27.4,336.3,26.5,330.4z"/>
		<path class="st22" d="M55.9,354c2.5-3.6,4.9-7,7.3-10.3c0.5-0.7,1.2-1.6,2.3-1.1c4.5,2,9.2,3.5,13.7,6.5
			C71.3,351.5,63.7,352.7,55.9,354z"/>
		<path class="st14" d="M15.2,301.4c-2,0.1-3.8-1.4-3.9-3.5v-0.1c0-1.6,1.6-3.3,3.2-3.1c2.6,0.3,4.6,1.2,4.5,3.6
			C18.9,300.2,17.4,301.4,15.2,301.4z"/>
		<path class="st23" d="M43.1,374c0.9,0.4,1.7,0.8,2.5,1.3c1.5,1,2.9,2.2,4.3,3.4c1,0.8,1,1.5-0.1,2.2c-1.5,0.9-3,1.7-4.8,2.7
			C43.6,380.5,43.8,377.3,43.1,374z"/>
		<path class="st14" d="M26.2,304.8c-2.5-0.1-4.1-1.4-4-3.5c-0.1-1.7,1.3-3.2,3-3.3c2,0,3.6,1.7,3.5,3.7c0,0.1,0,0.2,0,0.3
			C28.6,303.7,27.6,304.8,26.2,304.8z"/>
		<path class="st14" d="M15.1,313c-0.8-0.4-1.6-0.9-2.3-1.5c-1-1-0.1-2,0.4-2.9c0.1-0.1,0.2-0.3,0.3-0.4c0.9-1.4,2.7-1.9,4.2-1.3
			c1.3,0.6,1.9,2,1.5,3.3C18.6,311.9,16.9,313.1,15.1,313z"/>
		<path class="st14" d="M18.6,557.9c1.2,0,2.6-1.9,2.6-3.5c0-1.3-2.3-3.2-3.8-3c-1.7,0-3,1.3-3,3v0.1
			C14.6,556.5,16.5,558.1,18.6,557.9L18.6,557.9z"/>
		<path class="st14" d="M14.8,536.1c-1.7,0.1-3.1,1.5-3.1,3.3c0,1.1,2.2,2.8,3.7,2.8c1.5,0,2.8-1.2,2.8-2.8v-0.1
			c0-1.8-1.4-3.2-3.2-3.2C14.9,536.1,14.8,536.1,14.8,536.1z"/>
		<path class="st12" d="M41.6,111.5c1.7,3.6,3.1,7.4,5.1,10.8c0.8,1.4,2.8,2.3,4.2,3.3c0.6,0.4,1.4,0.6,2,1.1
			c0.3,0.4,0.6,0.8,0.8,1.3l-0.3,0.5l-4.5-1.5c0.8,1.8,1.3,3.1,1.9,4.4c0.9,2,1.8,4.1,2.8,6.1c0.5,0.7,0.4,1.8-0.4,2.3
			c-0.1,0.1-0.2,0.1-0.4,0.2c-2.1-3.9-3.9-8-6.2-12c-0.2,1.5-0.4,3.1-0.6,4.6c-0.1,0.9-0.2,1.8-1.6,1.9c-0.7-1.7-0.4-3.4-0.2-5.1
			c0-0.5,0.2-1,0.3-1.5c0.4-2.5,0.5-4.9-1.1-7.3s-2.4-4.9-3.7-7.6c-1.2,2-0.5,3.9-0.9,5.7s0,3.7-1.3,5.2c-1.2-0.5-1.1-1.5-1-2.3
			c0.2-2.6,0.5-5.3,0.8-7.9c0.5-3.1-0.1-6.2-1.7-8.8c-1.5-2.3-2.5-4.9-3.7-7.3l2.6,0.9c1.4,2.7,2.6,5.6,4.2,8.2
			c0.7,1.1,2.3,1.9,3.6,2.5c2.7,1.3,5.5,2.4,8.2,3.6c0.7,0.4,1.4,0.9,2,1.5c-0.1,0.2-0.2,0.4-0.2,0.6c-0.6,0-1.1,0-1.7-0.1
			c-1.6-0.6-3.2-1.5-4.8-2.1C44.5,112.2,43.1,111.9,41.6,111.5l-0.2-0.3C41.5,111.4,41.5,111.4,41.6,111.5z"/>
		<path class="st12" d="M70.1,102.5c0,0.5,0.1,1,0.3,1.4c1.6,2.2,3.2,4.3,4.8,6.4c0.9,1.1,2.2,1.4,3.5,1.7c1.7,0.4,3.4,0.8,5,1.4
			c0.5,0.2,1.1,1,1.1,1.3c-0.2,0.9-1,0.6-1.6,0.4c-1.4-0.4-2.8-0.8-4.7-1.2c1.4,3,3.8,4.9,4,8.2c-2-0.5-2.3-2.3-3.2-3.4
			s-1.8-2.2-3-3.7c-0.2,3.2-0.4,5.9-0.7,8.6c0,0.1-0.2,0.2-0.4,0.3c-1.3-0.2-1.2-1.2-1.2-2.1c0-2.7,0-5.3,0-8
			c0.1-1.2-0.4-2.3-1.1-3.2c-1.7-2.1-3.3-4.4-4.9-6.6c-0.2-0.2-0.4-0.5-1-1.2c0,2.9,0,5.3,0,7.6c-0.1,1-0.3,2-0.5,3
			c-1-0.5-1.6-1.6-1.4-2.7l-0.1-8.2L70.1,102.5z"/>
		<path class="st24" d="M26.2,88.5L24,86c0.5-2.4-0.1-4.7-0.6-7.1c-0.3-1.5-0.2-3.1-0.4-5.1c3,2.1,3.7,4.7,4,7.5
			C27.2,83.8,26.9,86.2,26.2,88.5z"/>
		<path class="st8" d="M4.1,60.8c0.6,0.5,1.3,0.8,1.5,1.3c1.7,3.7,3.3,7.4,4.9,11.1c0,0.1-0.1,0.3-0.2,0.7C9.8,73.6,9.2,73.4,9,73
			c-1.8-3.7-3.5-7.5-5.3-11.2C3.7,61.7,3.8,61.5,4.1,60.8z"/>
		<path class="st12" d="M29.1,96.6c-0.2,4.4-0.9,6.7-2.4,8.2c-0.9-1.6-0.8-3,1-8.9L29.1,96.6z"/>
		<path class="st8" d="M47.6,39c1.9-2.8,5.7-4.1,7.7-2.4C52.7,37.2,50.5,38.6,47.6,39z"/>
		<path class="st8" d="M60.9,92.3c-1.9-1.7-2.1-3.6-2.9-5.5c0.7,0,1.3-0.2,1.5,0C60.6,88.4,61.1,90.3,60.9,92.3z"/>
		<path class="st12" d="M58.7,102.1c-0.3,1.8,0.4,3.7-0.6,5.5c-1.5-0.7-0.9-1.8-1-2.7s-0.3-1.9-0.5-2.9L58.7,102.1z"/>
		<path class="st14" d="M97.1,71.5l-0.6,0.6c-1-2.1-2-4.3-3-6.4C95,66.5,96.1,68.4,97.1,71.5z"/>
		<path class="st8" d="M93.8,93.7c-2,0-2.7-0.5-3.5-2.5C92.4,91.3,93,91.7,93.8,93.7z"/>
		<path class="st8" d="M48.5,72.3c-1.5-1.7-1.5-1.7-0.9-3.8c0.3,0.2,0.9,0.4,0.9,0.6C48.4,70.1,49.5,71.2,48.5,72.3z"/>
		<path class="st14" d="M98.2,70.5c1.1,0.7,1,1.7,0.7,2.9c-1.3-0.1-1.4-1.1-1.8-1.9L98.2,70.5z"/>
		<path class="st16" d="M97.1,66.5l-0.2-0.2c0.1,0,0.1,0,0.1,0C97.1,66.4,97.1,66.4,97.1,66.5L97.1,66.5z"/>
		<path class="st22" d="M79.6,39.4l0.6,0.6L79.6,39.4z"/>
		<path class="st14" d="M49.6,208.6c7.2,2.8,13.7,7,20.8,9.8c0.1,0,0.1,0.4,0.1,0.7c-3-0.1-8.6-2.6-19.8-8.9c-0.5-0.3-1-0.7-1.4-1.1
			L49.6,208.6z"/>
		<path class="st14" d="M21.1,196.6c-2.2,0.2-7.4-2.2-9.4-4.3c2.1-0.2,3.5,1.1,5,1.8S20,194.9,21.1,196.6z"/>
		<path class="st18" d="M15.6,187.5c0-0.1,0.1-0.2,0.1-0.2c2.8-1.5,3.2-1.3,4.5,1.7C18.4,189.3,17.1,188.1,15.6,187.5z"/>
		<path class="st22" d="M40.6,213.5l-0.2-0.2c0,0,0.1,0,0.2,0C40.6,213.3,40.6,213.4,40.6,213.5L40.6,213.5z"/>
		<path class="st2" d="M51.6,505.6c-0.2,0.2-0.5,0.5-0.7,0.7l0.8,0.1L51.6,505.6z"/>
		<path class="st0" d="M67,487.5l-0.8-0.3l0.5,0.5L67,487.5z"/>
		<path class="st25" d="M79.2,132c-1.2-0.2-2.5-0.3-3.7-0.3c-2.5,0.1-3.9-1.2-5.2-3.1c-2.3-3.4-4.8-6.8-7.2-10.1
			c-0.4-0.6-0.7-1.3-1-2c0.7,0.3,1.3,0.6,1.9,1.1c2.4,2.3,4.6,4.7,7,7s4.7,4.2,7,6.2C78.4,131.2,78.8,131.6,79.2,132z"/>
		<path class="st18" d="M58.1,114.5c2.2,2.5,4,5.1,3.9,8.7c-0.1,2.7,0.3,5.4,0.4,8.1c-0.5-1.8-1.1-3.6-1.6-5.4
			c-0.8-3.1-1.7-6.2-2.4-9.3C58.3,115.9,58.2,115.2,58.1,114.5z"/>
		<path class="st25" d="M62.1,116.5l-0.6-0.5C62.3,115.5,62.1,116.2,62.1,116.5z"/>
		<path class="st18" d="M57.6,113.9l0.5,0.7L57.6,113.9z"/>
		<path class="st13" d="M29.6,193.3c-1.1-0.1-2-1.2-1.8-2c0.2-0.4,0.6-0.7,1-0.8c0.8,0,1.9,1.1,1.6,1.8
			C30.3,192.8,29.8,193.1,29.6,193.3z"/>
		<path class="st13" d="M23,158.6c-0.5-0.5-0.9-1.1-1.3-1.7c-0.3-0.5-0.2-1.2,0.3-1.5c0.1-0.1,0.2-0.1,0.3-0.1
			c0.6-0.3,1.4,0,1.7,0.6c0,0.1,0.1,0.1,0.1,0.2C24.4,156.7,24.1,157.3,23,158.6z"/>
		<path class="st13" d="M9.8,181.5c-1,0.8-1.5,1.5-2.1,1.7c-0.6,0.1-1.2-0.3-1.3-0.9c0-0.1,0-0.3,0-0.4c0.3-0.6,0.8-1.1,1.5-1.3
			C8.2,180.4,8.8,181,9.8,181.5z"/>
		<path class="st13" d="M45.6,198.5c0.5,0.8,0.9,1.1,1,1.6c0.1,0.7-0.3,1.4-1,1.3c-0.6-0.2-1-0.6-1.2-1.2
			C44.3,199.8,45,199.3,45.6,198.5z"/>
		<path class="st13" d="M6.3,178.1c-0.7,0.5-1,0.9-1.4,0.9c-0.8,0-1.4-0.6-1.4-1.4c0-0.1,0-0.2,0-0.2c0.2-0.4,0.5-0.7,0.9-0.9
			C5.1,177,5.7,177.5,6.3,178.1z"/>
		<path class="st13" d="M46.6,196.5c0.8-0.7,1.1-1.2,1.5-1.3c0.5-0.2,1.1,0,1.3,0.5c0.1,0.1,0.1,0.3,0.1,0.4c-0.1,0.5-0.4,1-0.9,1.1
			C48.1,197.3,47.6,196.9,46.6,196.5z"/>
		<path class="st13" d="M20.6,161.4c0.8-0.5,1.3-0.9,1.7-0.9s0.8,0.6,1.1,0.9c-0.4,0.4-0.7,1-1.1,1S21.4,161.9,20.6,161.4z"/>
		<path class="st13" d="M30,197.9c-0.4-0.8-0.9-1.2-0.8-1.6s0.6-0.7,1-1.1c0.3,0.4,0.9,0.8,0.9,1.2S30.5,197.1,30,197.9z"/>
		<path class="st3" d="M50.1,27.5c0,0.2,0,0.5,0,0.7L44,28.7l-0.1-0.6L50.1,27.5z"/>
		<path class="st8" d="M29.9,19.3c2.1-3.1,5.1-4,7.4-2.3C34.7,17.8,32.6,19.1,29.9,19.3z"/>
		<path class="st2" d="M5.1,38.5c-0.1-0.2-0.2-0.4-0.3-0.6c0,0,0.1-0.1,0.2-0.1c0.1,0.2,0.2,0.4,0.3,0.6L5.1,38.5z"/>
		<path class="st2" d="M71.1,76.5l-0.2-0.1L71.1,76.5L71.1,76.5z"/>
		<path class="st8" d="M86,425.5l-0.3-0.2l0.2,0.3L86,425.5z"/>
		<path class="st22" d="M119.8,120c-0.6-1.3-2-2.1-3.5-2c-4.6-0.2-9.1-0.5-13.7-1c1.8-0.2,3.7-0.4,5.5-0.5c2.5-0.1,5,0.1,7.5,0
			c5.5-0.2,10.7,1.3,15.7,3.3c1.6,0.8,3.1,1.9,4.4,3.2c1.4,1.3,1.2,2.1-0.3,3.2c-0.4,0.3-0.8,0.6-1.3,0.8c-3.6,0.5-7.1,1.4-10.8,0.9
			c-5.5-0.7-10.6-2.5-15.9-4c-3.6-1-7.2-2-10.8-3c-0.4-0.2-0.7-0.4-1.1-0.7c1.8,0.2,3.1,0.4,4.4,0.4c3.4,0,6.8,0,10.2,0
			c2.3,0,4.6,0,6.9,0C118.1,120.4,119,120.2,119.8,120z"/>
		<path class="st22" d="M118.2,150.5c-0.6-3.5-2.9-5.7-4-8.8c0.6,0.2,1.1,0.2,1.3,0.5c1.9,2.3,3.8,4.6,5.6,7
			c2.7,3.7,4.6,7.9,5.5,12.4c0.1,1.3,0,2.7-0.3,4c-2.2,1-3.4-0.3-4.5-1.3c-6.3-6.3-11.2-13.5-12.6-22.6c0-0.5,0-1.1,0-1.6
			c1.8,2,2.4,4.1,3.8,5.8S115.3,149.7,118.2,150.5z"/>
		<path class="st22" d="M162,163.6c2.6-0.3,4.5,0.9,6.5,1.3c2.4,0.5,4.7,1.1,7,1.5c0.6,0,1.3,0,1.9-0.1c0.3-1.6-0.8-1.9-1.7-2.2
			c-2.4-0.8-4.9-1.5-7.3-2.3c-0.1,0-0.2-0.2-0.6-0.6c1.6-0.3,3.3-0.3,4.9-0.1c2.6,0.4,5.2,0.9,7.8,1.5c3,0.7,5.7,2.4,7.7,4.8
			c1.6,1.7,1.1,3-0.9,4.1c-2.8,1.5-5.7,1.2-8.5,0.5c-5-1.4-9.9-2.9-14.2-5.9C163.7,165.3,162.8,164.5,162,163.6z"/>
		<path class="st22" d="M162.1,746.6c2.6,0.3,4.5-0.9,6.5-1.3c2.4-0.5,4.7-1.1,7-1.5c0.6,0,1.3,0,1.9,0.1c0.3,1.6-0.8,1.9-1.7,2.2
			c-2.4,0.8-4.9,1.5-7.3,2.3c-0.1,0-0.2,0.2-0.6,0.7c1.6,0.3,3.3,0.3,4.9,0.1c2.6-0.4,5.2-0.9,7.8-1.5c3-0.7,5.7-2.4,7.7-4.8
			c1.6-1.7,1.1-3-0.9-4.1c-2.8-1.5-5.7-1.2-8.5-0.5c-5,1.3-9.9,2.9-14.2,5.9C163.7,745,162.9,745.8,162.1,746.6z"/>
		<path class="st22" d="M143.1,147.5c4.5-1.2,8.9-0.9,12.9-2.5c-0.3-1.7-1.3-2.1-2.4-2c-2.3,0.2-4.6,0.5-6.9,0.7
			c-2.6,0.3-5.1,0.5-7.7,0.4c1.3-0.5,2.7-1.1,4-1.6c5.3-1.8,10.9-2.5,16.4-2.1c1.9,0.2,3.7,1.3,4.8,2.9c0.9,1.2,0.2,3.1-1.6,3.8
			c-2.2,0.8-4.4,1.4-6.7,1.7C151.6,149.4,147.2,148.9,143.1,147.5z"/>
		<path class="st22" d="M142.4,763c4.5,1.2,8.9,0.9,12.9,2.5c-0.3,1.7-1.3,2.1-2.4,2c-2.3-0.2-4.6-0.5-6.9-0.7
			c-2.5-0.3-5.1-0.5-7.7-0.4c1.3,0.5,2.7,1.1,4,1.6c5.3,1.8,10.9,2.5,16.4,2.1c1.9-0.2,3.7-1.3,4.8-2.9c0.9-1.2,0.2-3.1-1.6-3.8
			c-2.2-0.9-4.4-1.4-6.7-1.7C150.9,761.1,146.5,761.6,142.4,763z"/>
		<path class="st22" d="M148.2,176.4c-2.3-0.8-4.3-2.4-5.4-4.6c-1.5-2.6-3.1-5.1-4.7-7.6c-0.4-0.6-0.6-1.2-0.6-1.9
			c0.9,0.6,1.8,1.1,3,2c0.7-4-2.9-5.9-3.7-9.1c1.9,0.7,2.9,2.2,4,3.4c2,2.4,3.9,4.9,5.6,7.6c1.3,2.3,2.3,4.8,3.2,7.3
			c0.5,1.2-0.1,2.5-1.2,3C148.3,176.4,148.2,176.4,148.2,176.4z"/>
		<path class="st22" d="M147.5,733.6c-2.3,0.8-4.3,2.4-5.4,4.6c-1.5,2.6-3.1,5.1-4.7,7.6c-0.4,0.6-0.6,1.2-0.6,1.9l3-2
			c0.7,4-2.9,5.9-3.7,9.1c1.9-0.7,2.9-2.2,4-3.4c2-2.4,3.9-4.9,5.6-7.6c1.3-2.3,2.3-4.8,3.2-7.3c0.5-1.2-0.1-2.5-1.2-3
			C147.5,733.7,147.5,733.7,147.5,733.6z"/>
		<path class="st26" d="M206.1-1.5l-0.2-0.1h0.1C206.1-1.6,206.1-1.6,206.1-1.5L206.1-1.5z"/>
		<path class="st6" d="M41.6,111.5c-0.1-0.1-0.1-0.2-0.2-0.2L41.6,111.5L41.6,111.5z"/>
		<path class="st27" d="M38.7,630.5c-1.5,5.5-3.6,10.8-5.5,16.2c-1.1,3-2.3,6-3.5,9.1c-1.1,2.8-2.2,5.7-3.2,8.6
			c-1.5,4-3.4,7.9-5.5,11.6c-0.3,0.7-0.7,1.3-1.1,2.1c-0.6-0.5-0.7-1.4-0.3-2.1c1.7-5.4,2-11,2.8-16.6c0.5-2.8,0.8-5.7,0.9-8.6
			c-0.1-5.1-0.5-10.2-1-15.3c-0.2-1.6-0.7-3-1.5-4.4c-1.1-2.2-3.8-3.1-6.1-2c-0.6,0.3-1.2,0.8-1.6,1.4c-1.1,1.6-2,3.4-2.6,5.3
			c-2,5-2.5,10.4-3.5,15.7c-0.9,5.1-1.3,10.3-2.2,15.5c-0.7,4.2-1.6,8.3-2.4,12.4c-0.4,1.9-0.6,3.9-1,5.8c-0.2,1,0,2.3-1.5,2.6
			V460.3l8.4,3c5.8,2,10.8,5.2,15.8,8.7c1.5,1,2.5,2.7,4,3.7c3.5,2.6,5.9,6.1,8.2,9.6c3.3,5.1,5.6,10.7,6.9,16.7
			c0.9,4.2,1,8.4,1.7,12.5c0.1,1,0.1,2-0.1,3c-0.1,1.2-0.2,2.5-0.4,3.7c-0.2,1.5,0.5,2.4,1.8,3.1c3,1.7,6,3.5,8.9,5.4
			c2,1.3,4,2.7,5.9,4.2c3.2,2.4,6.5,4.6,9.4,7.3c3.3,3,6.3,6.4,9.3,9.7c1.4,1.5,2.7,3.1,3.8,4.9c1.9,3,1.8,4.5-1.4,6.6
			c-0.1,0.1-0.3,0.2-0.4,0.2c-3.9,2-7.8,4.1-11.7,6.1c-3,1.5-6,2.8-9.1,4c-5.3,1.9-10.7,3.6-16,5.4c-5.9,2.1-11.9,3.7-18,4.8
			c-1.2,0.2-1.7,0.8-1.4,2.2s0.6,2.9,1,4.3c1.1,4.3,3,8.2,6.4,11.3c2,1.7,3.9,3.7,5.5,5.8c1.9,2.6,3.3,5.5,5,8.3
			c0.5,0.8,1,1.5,1.6,2.2C42.1,621,39.9,625.6,38.7,630.5z M61,569.3c-2.5-3.5-4.8-6.7-7.2-9.9c-0.9-0.9-1.9-1.6-3-2.2
			c-0.3-0.2-0.8-0.3-1.1-0.6c-2.2-2.4-5.2-2.3-8-2.9c-1.5-0.3-3.1-0.6-4.6-0.9c-1.7-0.3-2-0.2-2.7,1.4c-0.3,1-0.7,2-1.2,3
			c-1.3,1.9-0.6,3.4,0.8,4.8c2.1,2.2,4.2,4.5,6.2,6.8c1.6,1.8,3.1,3.7,4.9,5.8C50.2,573,55.6,571.5,61,569.3z M47.1,551.7
			c1.3,0.2,2.7,0,3.9-0.4c4.5-1.7,8.9-3.6,13.4-5.5c0.6-0.3,1.2-0.6,1.8-0.9c2.2-1,2.3-1.4,0.5-3.1c-1.4-1.3-2.9-2.5-4.4-3.6
			c-2.8-2-5.8-3.9-8.8-6c-1,0.6-2,1.1-2.9,1.8c-3.1,2.3-5.9,4.8-9.1,6.8c-2.1,1.3-2.4,3.5-3.4,5.3c-0.5,1.2-0.9,2.5-1.3,3.8
			C40.6,550.6,43.8,551.3,47.1,551.7z M80.3,558.2c0.3,0.1,0.6-0.1,1.2-0.3c-3.3-4.2-6.8-8.2-10.6-12L55.1,553
			C64,554.8,72.1,556.5,80.3,558.2z M41.9,575.9c-2.8-5.1-7.5-8.2-10.9-13c-2.6,5.4-4.3,11.1-5.2,17
			C31.5,579.3,36.4,577.3,41.9,575.9z M62.5,566.5c0.5,0.7,1.2,1.6,2.3,1.1c4.5-2,9.2-3.5,13.7-6.5c-7.8-2.3-15.5-3.5-23.2-4.9
			C57.7,559.8,60.1,563.2,62.5,566.5L62.5,566.5z M10.6,612.5c0,1.6,1.6,3.3,3.2,3.1c2.6-0.3,4.6-1.2,4.5-3.6c0-1.9-1.6-3.1-3.8-3.1
			C12.5,608.8,10.7,610.3,10.6,612.5C10.6,612.4,10.6,612.4,10.6,612.5L10.6,612.5z M44.9,534.9c1.5-1,2.9-2.2,4.3-3.4
			c1-0.8,1-1.5-0.1-2.2c-1.5-0.9-3-1.7-4.8-2.7c-1.4,3-1.2,6.3-1.9,9.5C43.2,535.9,44.1,535.4,44.9,534.9z M21.4,609
			c-0.1,1.7,1.3,3.2,3,3.3c2,0,3.6-1.7,3.5-3.7c0-0.1,0-0.2,0-0.3c-0.1-1.7-1-2.8-2.5-2.8C23,605.6,21.4,607,21.4,609z M12.1,598.8
			c-1,1-0.1,2,0.4,2.9c0.1,0.1,0.2,0.3,0.3,0.4c0.9,1.3,2.7,1.9,4.2,1.3c1.3-0.6,1.9-2,1.5-3.3c-0.5-1.8-2.2-2.9-4-2.9
			C13.5,597.7,12.8,598.2,12.1,598.8z"/>
		<path class="st2" d="M96.2,836.3c-0.2,0.6-0.3,1.3-0.4,2l-3,6.4c1.5-0.9,2.5-2.8,3.6-5.8l0,0l1.1,1l-1.1,4l-0.2,0.2h0.1
			c0-0.1,0.1-0.1,0.1-0.2c3.2-1.6,5.6-4.4,6.5-7.9c0.7-1.9,1.6-3.7,2.6-5.4c0.3-1,1.4-1.5,2.3-1.2h0.1c-1.1,2.2-2.1,4.3-3.1,6.4
			l0.5,0.4c1-0.8,2-1.5,3-2.3c2.1-1.7,4.1-3.4,6.1-5.1c0.5-0.3,1.1-0.5,1.7-0.4c-2.6,3.8-6.5,6.1-10,9.8c1.6-0.3,3.2-0.4,4.8-0.5
			c1.2,0,2.7-1.3,4,0.7c-0.7,0.3-1.4,0.6-2.1,0.8c-2.4,0.4-4.9,0.7-7.4,1.1c-0.7,0-1.3,0.2-1.9,0.5c-2.4,1.7-4.8,3.4-7.5,5.5
			c1.9,0,3.2-0.1,4.5,0c1.1,0.1,2.5-0.6,3.4,0.9c-1.1,1-2.3,0.9-3.6,1c-2.4,0.1-4.8,0.4-7.2,0.5c-1,0.1-1.6,0.4-1.7,1.4
			c-0.9,1.2-1.8,2.5-2.8,3.7c-0.4,0.4-0.9,0.8-1.4,0.9c-3.5,0.6-7,0.4-10.4-0.3c-4.6-1.1-9.4-1.2-14.1-0.1c-1.2,0.1-2.2,0.8-2.9,1.8
			c3.5,1.7,7.3,2.7,11.2,2.7c4.3,0,8.7,0,13-0.2c2.6-0.1,3.5,2.5,2.3,4.4c-0.4,0.6-0.9,1.2-1.5,1.7c-1.8,1.8-3.5,3.7-5.3,5.5l0,0
			l-0.6,0.6c-1.1,0.2-2.2,0.4-3.3,0.7c-1.6,0.5-3.1,1.1-4.7,1.7c-5.2,1.9-10.5,3.7-15.7,5.5c-1,0.3-2.1,0.5-3.2,0.5
			c-3.3-0.1-6.6-0.3-9.9-0.4c-2.8-0.1-5.5,0-8.2,0c-1.6,0-3.3,0.3-5.5,0.5c0.7-0.7,1-1.2,1.4-1.4c3.9-1.6,7-4.4,10-7.3
			c1.1-1.2,2-2.6,2.5-4.2c0.8-2.4-0.6-4-3.1-4.1c-3.4-0.1-6.3,1.3-9,3.2c-3.9,2.4-7.5,5.3-10.7,8.5c-1.5,1.6-3.1,3.2-4.7,4.8
			c-1.2,1.2-2.4,2.3-3.6,3.4c-0.4,0.3-0.8,0.5-1.3,0.6c-3.3,0.6-6.5,1.1-9.8,1.6v-7.5c8.4-4.4,16.7-8.9,25.1-13.3
			c2.5-1.3,5-2.7,7.4-4.2c1.1-0.7,2.5-0.9,3.8-0.4c7.4,2.4,14.8,4.8,22.3,7.2c2.1,0.7,4.3,1.2,6.5,1.6c0.7,0.1,1.5,0.1,2.2,0
			c0.2-1.3-0.7-1.3-1.4-1.4c-9.7-2.1-18.8-6-28.3-8.8c-0.1,0-0.1-0.1-0.3-0.4c0.4-0.4,0.7-0.7,1.2-1c4-2.4,8-4.8,12-7.2
			c1.4-0.9,3.1-1.2,4.7-0.8c1.5,0.3,3.1,0.6,4.7,0.7c3.1,0.2,6.1,0.4,9.2,0.6s6,0.4,8.9,0.5c0.7,0,1.7,0.4,2.2-1
			c-4.1-1.3-8.3-0.8-12.4-1.4s-8.2-0.6-12.7-0.8c0.5-0.6,0.6-1,0.9-1.2c3.5-2.1,6.9-4.3,10.5-6.3c1.2-0.7,2.6-1.1,4-1.1
			c4.2-0.1,8.3,0.2,12.5,0.2c1-0.1,2-0.3,2.9-0.6c-0.9-1-2.3-1.4-3.6-1.3H71.3c0-1.1,0.8-1.5,1.4-1.9c4.4-3.1,8.8-6.2,13.2-9.3
			c0.7-0.5,1.7-0.8,1.2-2.3c-0.5,0.1-1,0.4-1.5,0.6c-4.5,3.1-9,6.3-13.5,9.4c-0.5,0.4-1.1,0.7-1.7,1l0,0c0.2-0.9,0.5-1.7,0.8-2.6
			c1.5-3.2,3.1-6.5,4.6-9.7c0.2-0.6,0.4-1.3,0.6-1.9l-0.6-0.3c-0.6,0.7-1.2,1.4-1.7,2.2c-2.1,4.3-4.2,8.7-6.3,13
			c-0.6,1.4-1.6,2.5-2.9,3.3c-3.3,2-6.6,4.1-10,6.1c-0.3,0.1-0.7,0.2-1,0.2c1.9-3.7,3.7-7.2,5.4-10.8s4-6.8,4.6-10.7l-0.6-0.3
			c-0.7,1.2-1.6,2.4-2.2,3.7c-2.5,5.1-4.8,10.2-7.5,15.2c-1.7,3.3-3.6,6.5-7.3,8.2c-3.2,1.5-6.1,3.6-9.6,5.7
			c0.1-0.7,0.2-1.4,0.4-2.1c1.6-4.4,3.2-8.7,4.7-13.1c0.6-1.8,1.1-3.7,1.5-5.5c0.1-0.8,0.1-1.6,0-2.4c-1.1-0.1-1.2,0.6-1.4,1.2
			c-2.3,6.9-4.7,13.8-7,20.8c-0.5,1.6-1.6,2.9-3.1,3.7c-2.7,1.4-5.4,3-8.1,4.4c-0.8,0.4-1.7,0.7-2.5,0.9
			c4.3-10.8,9.1-20.7,11.3-31.6c-0.3,0.2-0.8,0.4-1,0.8c-0.6,1.1-1.1,2.3-1.5,3.4c-2.7,8.8-6.7,17.2-10.1,25.8
			c-0.9,2.4-2.7,4.3-5.1,5.4c-2.6,1.4-5.2,3-7.8,4.4c-0.8,0.3-1.7,0.6-2.6,0.7L4.3,872c1.5-3.4,3.1-6.8,4.5-10.3
			c2.2-5.5,4.4-11,6.4-16.5c0.9-2.4,1.6-4.9,2.4-7.3c0.1-0.4,0.1-0.7,0-1.1l-0.5-0.2c-0.4,0.8-0.9,1.7-1.2,2.5
			c-2.2,5.7-4.2,11.5-6.6,17.2c-2.5,5.9-5.3,11.6-8,17.4c-0.2,0.5-0.9,0.8-1.5,1.2v-50.5l3-2.5c3.2-2.3,6.7-4,10.5-5.1
			c1.6-0.4,3.3-0.5,4.9-0.3c1.1,0.2,2,0.8,2.7,1.6c1.7,1.7,1.9,4,2.4,6.2c0.5,2.4-0.1,4.7-0.6,7c-0.3,1.5-0.2,3.1-0.4,5.1
			c3-2.1,3.7-4.7,4-7.5c0.2-2.4-0.1-4.8-0.8-7.1c0-0.5,0-1-0.1-1.5c-0.9-2.1-0.2-4.6,1.6-5.9l1.4-0.7l2.9-1l2.6-0.9c3-1,6-2,9-2.9
			s4.3,0.1,3.9,3.4c-0.4,3.8-0.7,7.6-0.8,11.4c0.1,1.5,0.3,3,0.8,4.4c0.1,0.3,0.5,0.6,1,1.2c0.6-0.9,1-1.8,1.4-2.8
			c0.6-2.2,1.3-4.4,0.8-6.8c-0.3-2-0.3-4,0-6c0.3-2.8,2.6-4.8,6-5.4l2.1-0.1l6.4-0.4h5l6.4-0.3c0.2,0,0.6-0.1,0.7,0
			c1.9,1.4,4.2,0.7,6.3,0.9c0.7,0.2,1.3,0.3,2,0.3c3.6-0.5,6.9,0.5,10.3,1.2c4.1,1,6.6,5,5.7,9.1c-0.2,1-0.3,2-0.5,2.9
			C99.7,826.9,97.4,831.4,96.2,836.3z M4.9,848.2c1.7-3.7,3.3-7.4,4.9-11.1c0-0.1-0.1-0.3-0.2-0.7c-0.5,0.3-1.1,0.5-1.3,0.9
			c-1.8,3.7-3.5,7.5-5.3,11.2c0,0.1,0.1,0.3,0.4,1C4,849,4.7,848.7,4.9,848.2z M54.7,873.7c-2.7-0.7-4.9-2-7.7-2.4
			C48.8,874.1,52.6,875.3,54.7,873.7L54.7,873.7z M57.3,823.5c0.7,0,1.3,0.2,1.5,0c1.2-1.6,1.7-3.5,1.4-5.5
			C58.3,819.7,58.1,821.6,57.3,823.5L57.3,823.5z M89.6,819c2,0,2.7-0.4,3.5-2.5C91.2,816.5,90.4,817,89.6,819z M46.8,841.8
			c0.3-0.2,0.9-0.4,0.9-0.6c0-1,1.1-2.1,0-3.2C46.2,839.7,46.2,839.7,46.8,841.8L46.8,841.8z"/>
		<path class="st3" d="M46.5,615.5c4.4-2.7,7.8-1.4,8.4,4c0.3,3.3-0.1,6.7-1.1,9.8c-1.4,4.8-2.9,9.5-4.6,14.2
			c-1.4,3.8-3,7.5-4.5,11.3c-0.3,0.7-0.4,1.4-0.7,2.3c0.5-0.3,0.8-0.3,0.9-0.5c3.2-4.1,6.4-8.2,9.7-12.3c2.7-3.3,5.4-6.5,8.1-9.8
			c3.3-3.9,6.6-7.9,9.9-11.8c1.8-2.2,3.6-4.3,5.6-6.4c1-1.1,2.2-2,3.5-2.7c3.1-1.4,5.1,0.1,5.7,2.8c0.4,2.1,0.1,4.4-1,6.3
			c-1.2,2.2-2.4,4.5-3.6,6.8c-1,2.3-2.2,4.4-3.6,6.5c-3.7,5.1-7.6,10.2-11.6,15.1c-3.7,4.5-7.8,8.9-11.7,13.3
			c-1.8,2-3.6,3.9-5.3,5.9c-0.4,0.7-0.8,1.4-1.2,2.1c0.7-0.3,1.4-0.7,2.1-1.1c4.5-3.5,9.1-7,13.6-10.5c5.3-4,10.7-8,16.2-12
			c1-0.7,2.1-1.3,3.3-1.7c1.5-0.7,3.1-0.6,4.1,0.8s2.3,3,1.4,5.2c-0.9,2.6-2.9,4.3-4.6,6.2c-3.2,3.8-6.8,7.2-10.8,10.1
			c-4.5,3.2-8.7,6.9-13,10.3c-5.2,4.1-10.6,8-15.8,12.1c-2,1.6-3.9,3.3-5.9,4.9l-0.2,0.2h0.1c0-0.1,0.1-0.1,0.1-0.2
			c1.1-0.2,2.1-0.5,3.1-0.8c8-3.7,16.1-7.5,24.1-11.2c1.5-0.7,3-1.3,4.6-1.8c0.9-0.3,1.8-0.2,2.6,0.2c2.3,1.4,3.1,4.4,1.8,6.7
			c-0.2,0.4-0.5,0.7-0.8,1c-2,2.1-4.3,3.9-6.7,5.5c-3.8,2.3-7.8,4.3-11.8,6.5c-2,1.1-4,2.3-5.9,3.5c-1.3-1.2-2.7-2.3-4.1-3.3
			c-5.2-3.3-13.9-3.2-19,2.8c-2.8,3.4-4.9,7.3-6.4,11.4c-0.5,1.4-1.2,2.7-1.9,4c-1.8-0.3-3.1,0.9-4.7,1.5c-0.2,0-0.5,0-0.7-0.1
			c-5-1.8-9.4-0.5-13.4,2.5c-0.3,0.2-0.6,0.3-0.8,0.5v-5.5c0.7-0.2,1.3-0.5,1.9-0.8c11.6-10.1,24-19.3,36.4-28.5
			c8.1-6.1,16.1-12.4,24-18.7c4.2-3.3,8.2-6.8,12.2-10.2c0.9-0.5,1.4-1.5,1.2-2.5c-0.5,0.3-1,0.6-1.4,0.9c-4.9,5-10.6,9-16.1,13.4
			c-7.2,5.7-14.5,11.3-21.9,16.9c-4.1,3.1-8.3,6.1-12.4,9.2c-7.3,5.8-14.5,11.6-21.8,17.5c-0.7,0.5-1.5,1-2.3,1.5v-1.5
			c1.2-0.9,2.4-1.9,3.5-3c4.5-4.8,9.1-9.5,13.5-14.4c6.2-6.8,12.3-13.8,18.4-20.7c2.7-3,5.4-5.9,7.9-9c4-5,7.9-10.1,11.9-15
			c2.6-3.2,5.3-6.2,7.9-9.3c3.1-3.7,6.1-7.4,9.2-11.2c0.4-0.6,0.8-1.3,1.2-2l-0.5-0.4c-0.5,0.4-1,0.9-1.4,1.4
			c-3.3,4-6.6,8.1-10,12.1c-1.4,1.7-2.8,3.2-4.2,4.9c-2.7,3.3-5.4,6.8-8.1,10.1c-3,3.7-6,7.5-9.2,11.2c-4.4,5.2-8.9,10.3-13.5,15.4
			c-4.2,4.7-8.5,9.3-12.8,14c-4.1,4.4-8.3,8.8-12.4,13.3c-0.4,0.4-0.9,0.8-1.3,1.1v-3.5c0.8-0.4,1.5-0.9,2.2-1.5
			c6.3-6.1,12-13,16.9-20.3c5.2-7.9,10.1-16.1,14.5-24.5c2-3.8,3.7-7.8,5.7-11.6c4.3-8,6.8-16.6,10.1-25c0.4-1.2,0.7-2.5,1-3.8
			l-0.5-0.2c-0.3,0.4-0.6,0.7-0.9,1.2c-2,5.3-3.9,10.6-6,15.9c-1.5,3.9-3.2,7.7-5,11.4c-4,8.6-8.4,17-13.3,25.2
			c-5.2,8.5-10.4,17.1-17.4,24.4c-2.4,2.5-4.9,5-7.3,7.5v-10c0.6-0.5,1.2-1,1.7-1.6c2.6-3.8,4.7-7.9,6.3-12.1
			c2.5-6.8,4.4-13.8,5.6-20.9c1-6,2.2-12.1,3.2-18.1c0.3-2.3,0.5-4.6,0.4-6.8c-0.8,0.5-1.2,1.3-1.2,2.2c-1.4,8.2-2.7,16.5-4.4,24.7
			c-1.1,5.4-2.6,10.8-4.2,16.1c-1.4,4.4-3.4,8.7-6,12.6c-0.5,0.7-1,1.3-1.5,2v-8c0.5-0.3,0.5-0.7,0-1v-2c1.4-0.3,1.3-1.6,1.5-2.6
			c0.4-1.9,0.6-3.9,1-5.8c0.8-4.1,1.8-8.2,2.4-12.4c0.8-5.1,1.2-10.3,2.2-15.5c1-5.3,1.5-10.7,3.5-15.7c0.6-1.9,1.5-3.7,2.6-5.3
			c1.5-2,4.3-2.4,6.3-1c0.6,0.4,1,1,1.4,1.6c0.8,1.3,1.4,2.8,1.5,4.4c0.5,5.1,0.9,10.2,1,15.3c-0.1,2.9-0.4,5.8-0.9,8.6
			c-0.8,5.5-1.1,11.1-2.8,16.5c-0.4,0.7-0.2,1.5,0.3,2.1c0.4-0.8,0.8-1.5,1.1-2.1c2.1-3.7,4-7.6,5.5-11.6c1-2.9,2.1-5.7,3.2-8.6
			c1.1-3,2.4-6,3.5-9.1c1.9-5.4,4-10.7,5.5-16.2c1.2-4.9,3.3-9.5,6.2-13.7C45.4,616.3,45.9,615.9,46.5,615.5z M69.6,691.9
			c0.1,0,0.1-0.4,0.1-0.7c-3,0.1-8.6,2.6-19.9,8.9c-0.5,0.3-1,0.7-1.4,1.1l0.3,0.5C56,698.9,62.5,694.7,69.6,691.9z M11,718
			c2.1,0.2,3.5-1.1,5-1.8s3.4-0.8,4.4-2.5C18.2,713.4,13,715.8,11,718z"/>
		<path class="st6" d="M58,808.2l6.4-0.4c0-2.7,0-5.5,0.1-8.2c-0.2-1.1,0.4-2.3,1.5-2.7c0.2,1,0.4,2,0.5,3c0.1,2.4,0,4.7,0,7.6
			c0.6-0.7,0.9-0.9,1-1.2c1.6-2.2,3.2-4.5,4.9-6.6c0.8-0.9,1.2-2,1.1-3.2c-0.1-2.7,0-5.3,0-8c0-0.9-0.1-1.9,1.2-2
			c0.2,0.1,0.4,0.2,0.4,0.3c0.2,2.7,0.4,5.4,0.7,8.6c1.2-1.4,2.1-2.5,3-3.7s1.2-2.9,3.2-3.4c-0.2,3.3-2.6,5.2-4,8.2
			c1.8-0.5,3.3-0.8,4.7-1.2c0.7-0.2,1.4-0.5,1.6,0.4c0.1,0.4-0.6,1.2-1.1,1.3c-1.6,0.6-3.3,1-5,1.4c-1.3,0.3-2.6,0.5-3.5,1.7
			c-1.6,2.1-3.2,4.2-4.8,6.4c-0.2,0.4-0.3,0.9-0.3,1.4l6.4-0.3c0.2,0,0.6-0.1,0.7,0c1.9,1.4,4.2,0.7,6.3,0.9
			c2.1-3.3,4.2-6.5,6.2-9.8c0.7-1.2,1.3-2.5,1.9-3.7c1.6-3,2.7-6.2,3.1-9.6c0-0.1,0.2-0.3,0.3-0.4c-0.4-2.3-0.5-4.6-2.2-6.4
			c-1.2-1.3-2.3-2.6-4.3-2.6l-9.3,2.5c-0.4,0.4-0.8,0.9-1.2,1.2c-2.3,2.1-4.8,4.1-7,6.2s-4.7,4.7-7,7c-0.6,0.4-1.2,0.8-1.8,1.1l0,0
			c0,0.4,0.2,1-0.6,0.5c-1.3,2-2.6,4-4,5.9c-0.3,0.5-1.1,1-1.5,0.9c-0.9-0.3-0.3-1.1-0.1-1.7c0.5-1,1-2,1.6-3l0.5-0.7l0,0
			c0.1-0.7,0.2-1.5,0.3-2.2c0.7-3.1,1.5-6.2,2.4-9.3c0.5-1.8,1-3.6,1.5-5.4c0.2-1.9,0.5-3.9,0.7-5.8c0-2.7,0.1-5.3-0.1-8
			c-0.2-3.3-0.6-6.6-3.4-9.1c-1.7-1.4-3.9-1.8-6-1.1c-3.4,1.4-5.6,4.1-7.3,7.2c-2.9,5.6-5.7,11.3-8.5,16.9c-2.5,5-4.8,10-7.3,15
			c-0.7,1.4-1.6,2.7-2.8,4.5c-0.3-1.1-0.5-2.2-0.7-3.3c-0.1-3.8-0.1-7.6-0.2-11.4c-0.2-6.1-1.3-12.2-3.4-18
			c-0.8-1.8-1.6-3.6-2.5-5.4c-0.6-0.6-1.2-1.2-1.7-1.8c-2.2-2.8-6.5-2.9-9.2-1c-3,2.1-4.8,5-6.3,8.2c-1.1,2.3-2.2,4.6-3.3,6.8v48.5
			c0.9-2.2,1.8-4.4,2.6-6.7c0.5-1.1,0.7-2.3,0.8-3.6c-0.2-1.9-0.5-3.8-0.8-5.7c-0.3-2-0.6-4.1-0.9-6.1c-0.1-0.7-0.4-1.5,1-2.1
			c1.6,3.1,1.2,6.7,2.4,10.2c0.3-0.6,0.5-0.9,0.6-1.2c1.3-4.2,2.5-8.4,3.7-12.7c0.1-0.8,0.1-1.6-0.2-2.4c-0.6-2.3-1.3-4.6-1.9-7
			c-0.3-1.1-0.6-2.2,0.3-3.3c2.1,1.8,1.6,4.7,2.9,6.9c0.2-0.2,0.3-0.5,0.4-0.8c0.5-2.8,1.1-5.5,1.5-8.3s0.7-5.4-0.9-7.9
			c-0.5-0.9-0.9-1.8-1.2-2.7c-0.3-0.7-0.6-1.4,0.2-2.2c2.1,0.3,1.7,2.8,3.1,3.9l0.9-2.4h0.6c0.2,1.3,0.4,2.5,0.6,3.8
			c1.4-0.4,1.1-2.8,3.3-2c-0.4,1.5-1.1,2.9-2.1,4c-1,1.2-2.2,2.2-2.5,3.9c-0.4,3-0.9,6-1.4,9.1c-0.1,0.8-0.1,1.5,0,2.3
			c2.6-1.6,3.8-4.2,6.4-5.2c0.6,0.5,0.7,1.5,0.1,2.1l-0.1,0.1c-0.6,0.6-1.2,1.2-1.8,1.8c-1.9,1.9-3.8,3.7-5.6,5.7
			c-0.5,0.6-0.8,1.3-1,2c-1.2,4.1-2.4,8.3-3.6,12.4c-0.1,0.6-0.2,1.2-0.3,1.8c1.3-0.9,2.1-1.6,3-2.2c2.1-1.5,4.1-3.1,6.2-4.7
			c0.5-0.2,1-0.4,1.5-0.4c0.5,1.4-0.5,2-1.1,2.5c-3.4,2.6-6.9,5.2-10.3,7.9c-0.4,0.4-0.8,0.8-1,1.4c-0.9,2.2-1.8,4.5-2.6,6.8
			c-0.2,0.4,0.1,1,0.2,1.5c3.2-2.3,6.7-4,10.5-5.1c1.6-0.4,3.3-0.5,4.9-0.3c1,0.3,1.9,0.8,2.6,1.7c1.7,1.7,1.9,4,2.4,6.2l2.2-2.5
			c0-0.5,0-1-0.1-1.5c-0.9-2.1-0.2-4.5,1.6-5.9c-1.8-5.8-1.9-7.3-1-8.9c1.5,1.6,2.2,3.8,2.5,8.2l2.9-1c1.2-2.4,2.3-5,3.8-7.3
			c1.6-2.6,2.2-5.8,1.7-8.8c-0.3-2.6-0.6-5.3-0.8-7.9c-0.1-0.8-0.2-1.8,1-2.3c1.4,1.6,1,3.5,1.3,5.2s-0.3,3.7,0.9,5.7
			c1-2.6,2.2-5.1,3.6-7.5c1.6-2.4,1.5-4.8,1.1-7.3c-0.1-0.5-0.3-1-0.3-1.5c-0.1-1.7-0.5-3.4,0.2-5.1c1.4,0,1.5,0.9,1.6,1.9
			c0.2,1.5,0.4,3.1,0.6,4.6c2.3-4,4-8.1,6.2-12c0.9,0.3,1.3,1.3,0.9,2.2c0,0.1-0.1,0.2-0.2,0.3c-1,2-1.9,4.1-2.8,6.1
			c-0.6,1.3-1.1,2.6-1.9,4.4l4.4-1.6l0.3,0.5c-0.2,0.5-0.5,0.9-0.8,1.3c-0.6,0.5-1.3,0.7-2,1.1c-1.5,1-3.4,1.9-4.2,3.3
			c-2,3.4-3.4,7.2-5.1,10.8l0.1,0.1c1.4-0.4,2.9-0.7,4.2-1.2c1.6-0.6,3.2-1.4,4.8-2.1c0.6-0.1,1.1-0.2,1.7-0.1
			c0.1,0.2,0.2,0.4,0.2,0.6c-0.6,0.6-1.3,1.1-2,1.5c-2.7,1.2-5.5,2.3-8.2,3.6c-1.4,0.5-2.6,1.4-3.6,2.5c-1.6,2.6-2.8,5.4-4.2,8.2
			c3-1,6-2,9-2.9s4.3,0.1,3.9,3.4c-0.4,3.8-0.7,7.6-0.8,11.4c0.1,1.5,0.3,3,0.8,4.4c0.1,0.3,0.5,0.6,1,1.2c0.6-0.9,1-1.8,1.4-2.8
			c0.6-2.2,1.3-4.4,0.8-6.8c-0.3-2-0.3-4,0-6c0.3-2.8,2.6-4.8,6-5.4c0.2-1,0.3-1.9,0.5-2.9s-0.5-2,1-2.7
			C58.4,804.5,57.7,806.4,58,808.2z"/>
		<path class="st7" d="M-0.1,750.8c3.4-2.1,6.8-4.1,10.2-6.2c0.5-0.3,1-0.5,1.5-0.8c1.5,1.9,0.1,4.5,2,6.6c1.7-2.7-0.1-5.1,0.5-7.8
			l9.3-1.3c1.5,2.4,1.5,5.6,3.5,7.8c1-0.2,1.2-0.8,0.9-1.5c-0.5-1.4-1-2.8-1.5-4.2c-0.3-0.9-0.6-1.9-0.8-2.5l7-6.2l1.9,1.5
			c1.2-1,1.2-1-1-3.8l5-8.1c1.5,0.3,2,2.2,3.7,1.9c0.6-1-0.1-1.4-0.6-2c-1.9-2.2-2-2.2-0.4-4.8c0.2-0.4,0.5-0.8,0.8-1.3
			s0.9-1.3,0-1.7c-0.3-0.2-1.1,0.4-1.5,0.8c-0.5,0.6-1,1.3-1.4,2c-0.2,0.3-0.5,0.7-0.8,1c-1.5-0.9-2.1-2.7-4.2-3
			c-0.4,2.5,2.2,3.2,2.9,5.4c-1.1,2.5-3.1,4.9-4.8,7.6c-2.2-0.8-2.5-3.3-4.2-4.5c-0.6,1.8-0.6,1.8,2.9,6.8c-1.4,2.4-3.4,4.4-5.9,5.7
			c-1.3-2-1.1-4.7-3.7-6.5c-0.4,3,1.6,4.9,1.6,7.4c-3,1.3-6.4,0.6-9.5,1.6c-1.4-2-1.1-4.8-3.2-6.8c-1,2.8,0.9,5,1,7.5
			c-0.6,0.4-1.3,0.9-2,1.4c-2.7,1.7-5.4,3.3-8.1,5c-0.4,0.2-0.7,0.3-1.1,0.4v-22.5c0.3-0.2,0.6-0.3,0.8-0.5c4.1-3,8.4-4.4,13.4-2.5
			c0.2,0.1,0.5,0.1,0.7,0.1c0,0.1,0.1,0.2,0.2,0.2c2.8,1.5,3.2,1.3,4.5-1.7c0.6-1.3,1.3-2.7,1.9-4c1.5-4.1,3.7-8,6.4-11.4
			c5.1-6.1,13.8-6.1,19-2.8c1.5,1,2.9,2.1,4.2,3.2c4.1,4.2,5.6,10.3,4,16c-0.9,3.6-2.8,7-5.3,9.8c-2.8,3.1-6.2,5.6-10,7.3
			c-2.3,1-3.5,2.6-3.3,5.2c0.1,1.8,0,3.6-0.4,5.4c-0.5,3.5-2.8,6.6-6.1,7.9c-3,1.2-6.2,1.7-9.3,2.6c-0.6-0.6-1.2-1.2-1.7-1.8
			c-2.2-2.8-6.5-2.9-9.2-1c-3,2.1-4.8,5-6.3,8.2c-1.1,2.3-2.2,4.6-3.3,6.8L-0.1,750.8z M27.1,718.9c0.2,0.4,0.6,0.7,1,0.8
			c0.8,0,1.9-1.1,1.6-1.8c-0.2-0.4-0.7-0.7-0.9-1C27.7,717.1,26.8,718.1,27.1,718.9L27.1,718.9z M21,753.4c-0.3,0.5-0.2,1.2,0.3,1.5
			c0.1,0.1,0.2,0.1,0.3,0.1c0.7,0.3,1.4,0,1.7-0.6c0-0.1,0.1-0.1,0.1-0.2c0.3-0.6,0-1.2-1-2.6C21.8,752.2,21.4,752.8,21,753.4z
			 M6.9,727.1c-0.6-0.1-1.2,0.3-1.3,0.9c0,0.1,0,0.3,0,0.4c0.3,0.6,0.8,1.1,1.5,1.3c0.4,0.1,1-0.5,2-1
			C8.1,727.9,7.6,727.2,6.9,727.1z M45.9,710.2c0.2-0.7-0.3-1.4-1-1.3c-0.6,0.2-1,0.6-1.2,1.2c0,0.4,0.6,0.9,1.2,1.7
			C45.4,711,45.8,710.7,45.9,710.2z M4.2,731.3c-0.8,0-1.4,0.6-1.4,1.4c0,0.1,0,0.1,0,0.2c0.1,0.4,0.8,0.9,0.9,0.9
			c0.7-0.5,1.3-1,1.9-1.6C5,731.7,4.6,731.3,4.2,731.3z M47.4,715.1c0.5,0.2,1.1,0,1.3-0.5c0.1-0.1,0.1-0.3,0.1-0.4
			c-0.1-0.5-0.4-1-0.9-1.2c-0.5-0.1-1,0.4-2,0.7C46.7,714.5,47,715,47.4,715.1z M21.5,749.7c0.4,0,0.8-0.6,1.1-0.9
			c-0.4-0.3-0.8-1-1.2-1s-0.9,0.5-1.6,1C20.7,749.3,21.1,749.8,21.5,749.7z M28.4,714c0.1,0.4,0.7,0.7,1,1.1
			c0.3-0.4,0.9-0.8,0.9-1.2s-0.5-0.8-1.1-1.5C28.8,713.2,28.4,713.6,28.4,714z"/>
		<path class="st8" d="M78.9,870.8c-1.1,0.2-2.2,0.4-3.3,0.7c-1.6,0.5-3.1,1.2-4.7,1.7c-5.2,1.9-10.5,3.7-15.7,5.5
			c-1,0.3-2.1,0.5-3.2,0.5c-3.3-0.1-6.6-0.3-9.9-0.4c-2.8-0.1-5.5,0-8.2,0c-1.6,0-3.3,0.3-5.5,0.5c0.7-0.7,1-1.2,1.4-1.4
			c3.9-1.6,7-4.4,10-7.3c1.1-1.2,2-2.6,2.5-4.2c0.8-2.4-0.6-4-3.1-4.1c-3.4-0.1-6.3,1.3-9,3.2c-3.9,2.4-7.5,5.3-10.7,8.5
			c-1.5,1.6-3.1,3.2-4.7,4.8c-1.2,1.2-2.4,2.3-3.6,3.4c-0.4,0.3-0.8,0.5-1.3,0.6c-3.3,0.6-6.5,1.1-9.8,1.6v8c0.2,0,0.5,0.1,0.7,0.2
			c3.4,1.8,6.7,3.7,10.2,5.2c4.5,1.9,9.1,3.6,14.2,3.1c1.8-0.2,3.4-0.6,4.1-2.3s-0.3-3-1.4-4.2c-2.5-2.7-5.9-3.7-9.2-4.8
			c-3.6-1.2-7.4-2-11.4-3.1c0.5-0.2,1.1-0.5,1.7-0.6c4.1-0.8,8.3-1.6,12.4-2.5c3-0.8,6.2-0.2,8.7,1.7c1.6,1.1,3.3,2,5.1,2.6
			c6.2,2.6,12.3,5.4,19,6.8c1.7-0.1,3.4,0,4.8-1.1c0.3-0.2,0.6-0.3,0.8-0.5c2.6-2,2.7-4.1,0.2-6.1c-1.3-0.9-2.7-1.7-4.2-2.2
			c-2-0.7-4.2-1.2-6.2-1.7l-6.2-0.7l0.1-0.6l6.1,0.5c10.4,1.1,20.8,2.2,31.1,4.3c3.1,0.6,6.2,1,8.7,3.2c0.8,0.6,1.7,1.1,2.6,1.5
			l8.2,4.7c4.9,2.4,9.9,4.5,15.5,4.8c1.2,0,2.4-0.2,3.6-0.5c3.6-1.3,4.9-4.1,4-8.2c-1.1-1.8-2.8-3.3-4.8-4l-1.6-0.4l-11.5-1.9
			c-9.6-0.5-19.2-0.2-28.8-3.1c0.4-0.2,0.9-0.4,1.3-0.6c3-0.8,6.1-1.5,9.1-2.5c1.8-0.7,3.4-1.7,4.8-3c2.5-2.2,1.9-5-1.3-5.8
			c-2.5-0.6-5.1-1.2-7.8,0c-0.9,0.4-2.2-0.1-3.2-0.2l0,0L78.9,870.8z"/>
		<path class="st9" d="M4.3,871.7c1.5-3.4,3.1-6.8,4.5-10.3c2.2-5.5,4.4-11,6.4-16.5c0.9-2.4,1.6-4.9,2.4-7.3c0.1-0.4,0.1-0.7,0-1.1
			l-0.5-0.2c-0.4,0.8-0.9,1.7-1.2,2.5c-2.2,5.7-4.2,11.5-6.6,17.2c-2.5,5.9-5.3,11.6-8,17.4c-0.2,0.5-0.9,0.8-1.5,1.2v2
			c8.4-4.4,16.7-8.9,25.1-13.3c2.5-1.3,4.9-2.7,7.4-4.2c1.1-0.7,2.5-0.9,3.8-0.4c7.4,2.4,14.8,4.8,22.3,7.2c2.1,0.7,4.3,1.2,6.5,1.6
			c0.7,0.1,1.5,0.1,2.2,0c0.2-1.3-0.7-1.3-1.4-1.4c-9.7-2.1-18.8-6-28.3-8.8c-0.1,0-0.1-0.1-0.3-0.4c0.4-0.4,0.7-0.7,1.2-1
			c4-2.4,8-4.8,12-7.2c1.4-0.9,3.1-1.2,4.7-0.8c1.5,0.3,3.1,0.6,4.7,0.7c3.1,0.2,6.1,0.4,9.2,0.6s6,0.4,8.9,0.5c0.7,0,1.7,0.4,2.2-1
			c-4.1-1.3-8.3-0.8-12.4-1.4s-8.2-0.6-12.7-0.8c0.5-0.6,0.6-1,0.9-1.2c3.5-2.1,6.9-4.3,10.5-6.3c1.2-0.7,2.6-1.1,4-1.1
			c4.2-0.1,8.3,0.2,12.5,0.2c1-0.1,2-0.3,2.9-0.6c-0.9-1-2.3-1.4-3.6-1.3H71.3c0-1.1,0.8-1.5,1.4-1.9c4.4-3.1,8.8-6.2,13.2-9.3
			c0.7-0.5,1.7-0.8,1.2-2.3c-0.5,0.1-1,0.4-1.5,0.6c-4.5,3.1-9,6.3-13.5,9.4c-0.5,0.4-1.1,0.7-1.7,1l-0.2,0.1l0.2-0.1
			c0.2-0.9,0.5-1.7,0.8-2.6c1.5-3.2,3.1-6.5,4.6-9.7c0.2-0.6,0.4-1.3,0.6-1.9l-0.6-0.3c-0.6,0.7-1.2,1.4-1.7,2.2
			c-2.1,4.3-4.2,8.7-6.3,13c-0.6,1.4-1.6,2.5-2.9,3.3c-3.3,2-6.6,4.1-10,6.1c-0.3,0.1-0.7,0.2-1,0.2c1.9-3.7,3.7-7.2,5.4-10.8
			s4-6.8,4.6-10.7l-0.6-0.3c-0.7,1.2-1.6,2.4-2.2,3.7c-2.5,5.1-4.8,10.2-7.5,15.2c-1.7,3.3-3.6,6.5-7.3,8.2
			c-3.2,1.5-6.1,3.6-9.6,5.7c0.1-0.7,0.2-1.4,0.4-2.1c1.6-4.4,3.2-8.7,4.7-13.1c0.6-1.8,1.1-3.7,1.5-5.5c0.1-0.8,0.1-1.6,0-2.4
			c-1.1-0.1-1.2,0.6-1.4,1.2c-2.3,6.9-4.7,13.8-7,20.8c-0.5,1.6-1.6,2.9-3.1,3.7c-2.7,1.4-5.4,3-8.1,4.4c-0.8,0.4-1.7,0.7-2.5,0.9
			c4.3-10.8,9.1-20.7,11.3-31.6c-0.3,0.2-0.8,0.4-1,0.8c-0.6,1.1-1.1,2.3-1.5,3.4c-2.7,8.8-6.7,17.2-10.1,25.8
			c-0.9,2.4-2.7,4.3-5.1,5.4c-2.6,1.4-5.2,3-7.8,4.4c-0.8,0.3-1.7,0.6-2.6,0.7l-0.3,0.6c-0.1,0-0.2-0.1-0.2-0.2
			C4.1,872.1,4.2,871.9,4.3,871.7z"/>
		<path class="st12" d="M2.9,821.8c-0.1-0.5-0.3-1.1-0.2-1.5c0.8-2.3,1.7-4.5,2.6-6.8c0.2-0.5,0.6-1,1-1.4c3.4-2.6,6.9-5.2,10.3-7.9
			c0.7-0.5,1.6-1,1.1-2.5c-0.5,0-1,0.2-1.5,0.4c-2.1,1.5-4.1,3.1-6.2,4.7c-0.8,0.6-1.7,1.3-3,2.2c0.1-0.6,0.2-1.2,0.3-1.8
			c1.2-4.2,2.4-8.3,3.6-12.4c0.2-0.7,0.5-1.4,1-2c1.8-1.9,3.7-3.8,5.6-5.7c0.6-0.6,1.2-1.2,1.8-1.8c0.6-0.5,0.7-1.5,0.1-2.1
			l-0.1-0.1c-2.5,0.9-3.7,3.6-6.4,5.2c-0.1-0.8-0.1-1.5,0-2.3c0.4-3,1-6,1.4-9.1c0.2-1.7,1.5-2.7,2.5-3.9c1-1.1,1.7-2.5,2.1-4
			c-2.1-0.8-1.9,1.6-3.3,2c-0.2-1.3-0.4-2.5-0.6-3.8h-0.6l-0.9,2.4c-1.4-1.1-1-3.5-3.1-3.9c-0.8,0.8-0.5,1.5-0.2,2.2
			c0.3,0.9,0.7,1.9,1.2,2.7c1.6,2.5,1.3,5.2,0.9,7.9s-1,5.5-1.5,8.3c-0.1,0.3-0.3,0.5-0.4,0.8c-1.3-2.2-0.9-5-2.9-6.9
			c-1,1.1-0.6,2.2-0.3,3.3c0.6,2.3,1.3,4.6,1.9,7c0.3,0.8,0.3,1.6,0.2,2.4c-1.2,4.2-2.5,8.5-3.7,12.7c-0.1,0.3-0.3,0.5-0.6,1.2
			c-1.2-3.5-0.8-7.1-2.4-10.2c-1.4,0.6-1.1,1.4-1,2.1c0.3,2,0.6,4.1,0.9,6.1c0.4,1.9,0.7,3.7,0.8,5.6c0,1.2-0.3,2.4-0.7,3.6
			c-0.8,2.3-1.7,4.4-2.6,6.7v3L2.9,821.8z"/>
		<path class="st13" d="M-0.1,750.8c3.4-2.1,6.8-4.1,10.2-6.2c0.5-0.3,1-0.5,1.5-0.8c1.5,1.9,0.1,4.5,2,6.6c1.7-2.7-0.1-5.1,0.5-7.8
			l9.3-1.3c1.5,2.4,1.5,5.6,3.5,7.8c1-0.2,1.2-0.8,0.9-1.5c-0.5-1.4-1-2.8-1.5-4.2c-0.3-0.9-0.6-1.9-0.8-2.5l7-6.2l1.9,1.5
			c1.2-1,1.2-1-1-3.8l5-8.1c1.5,0.3,2,2.2,3.7,1.9c0.6-1-0.1-1.4-0.6-2c-1.9-2.2-2-2.2-0.4-4.8c0.2-0.4,0.5-0.8,0.8-1.3
			s0.9-1.3,0-1.7c-0.3-0.2-1.1,0.4-1.5,0.8c-0.5,0.6-1,1.3-1.4,2c-0.2,0.3-0.5,0.7-0.8,1c-1.5-0.9-2.1-2.7-4.2-3
			c-0.4,2.5,2.2,3.2,2.9,5.4c-1.1,2.5-3.1,4.9-4.8,7.6c-2.2-0.8-2.5-3.3-4.2-4.5c-0.6,1.8-0.6,1.8,2.9,6.8c-1.4,2.4-3.4,4.4-5.9,5.7
			c-1.3-2-1.1-4.7-3.7-6.5c-0.4,3,1.6,4.9,1.6,7.4c-3,1.3-6.4,0.6-9.5,1.6c-1.4-2-1.1-4.8-3.2-6.8c-1,2.8,0.9,5,1,7.5
			c-0.6,0.4-1.3,0.9-2,1.4c-2.7,1.7-5.4,3.3-8.1,5c-0.4,0.2-0.7,0.3-1.1,0.4L-0.1,750.8z"/>
		<path class="st14" d="M-0.1,717.3c1.2-0.9,2.4-1.9,3.5-3c4.5-4.8,9.1-9.5,13.5-14.4c6.2-6.8,12.3-13.8,18.4-20.7
			c2.7-3,5.4-5.9,7.9-9c4-5,7.9-10.1,11.9-15c2.6-3.2,5.3-6.2,7.9-9.3c3.1-3.7,6.1-7.4,9.2-11.2c0.4-0.6,0.8-1.3,1.2-2l-0.5-0.4
			c-0.5,0.4-1,0.9-1.4,1.4c-3.3,4-6.6,8.1-10,12.1c-1.4,1.7-2.8,3.2-4.2,4.9c-2.7,3.3-5.4,6.8-8.1,10.1c-3,3.7-6,7.5-9.2,11.2
			c-4.4,5.2-8.9,10.3-13.5,15.4c-4.2,4.7-8.5,9.3-12.8,14c-4.1,4.4-8.3,8.8-12.4,13.3c-0.4,0.4-0.9,0.8-1.3,1.1L-0.1,717.3
			L-0.1,717.3z"/>
		<path class="st14" d="M-0.1,712.3c0.8-0.4,1.5-0.9,2.2-1.5c6.3-6.1,12-13,16.9-20.3c5.2-7.9,10.1-16.1,14.5-24.5
			c2-3.8,3.7-7.8,5.7-11.6c4.3-8,6.8-16.6,10.1-25c0.4-1.2,0.7-2.5,1-3.8l-0.5-0.2c-0.3,0.4-0.6,0.7-0.9,1.2c-2,5.3-3.9,10.6-6,15.9
			c-1.5,3.9-3.2,7.7-5,11.4c-4,8.6-8.4,17-13.3,25.2c-5.2,8.5-10.4,17.1-17.4,24.4c-2.4,2.5-4.9,5-7.3,7.5
			C-0.1,711-0.1,712.3-0.1,712.3z"/>
		<path class="st14" d="M-0.1,720.3c0.7-0.2,1.3-0.5,1.9-0.8c11.7-10.3,24.1-19.5,36.5-28.7c8.1-6.1,16.1-12.4,24-18.7
			c4.2-3.3,8.2-6.8,12.2-10.2c0.9-0.5,1.4-1.5,1.2-2.5c-0.5,0.3-1,0.6-1.4,0.9c-4.9,5-10.6,9-16.1,13.4
			c-7.2,5.7-14.5,11.3-21.9,16.9c-4.1,3.1-8.3,6.1-12.4,9.2c-7.3,5.8-14.5,11.6-21.8,17.5c-0.7,0.5-1.5,1-2.3,1.5v1.5H-0.1z"/>
		<path class="st14" d="M-0.1,700.8c0.6-0.5,1.2-1,1.7-1.6c2.6-3.8,4.7-7.9,6.3-12.1c2.5-6.8,4.4-13.8,5.6-20.9
			c1-6,2.2-12.1,3.2-18.1c0.3-2.3,0.5-4.6,0.4-6.8c-0.8,0.5-1.2,1.3-1.2,2.2c-1.4,8.2-2.7,16.5-4.4,24.7c-1.1,5.4-2.6,10.8-4.2,16.1
			c-1.4,4.4-3.4,8.7-6,12.6c-0.5,0.7-1,1.3-1.5,2L-0.1,700.8L-0.1,700.8z"/>
		<path class="st0" d="M-0.1,690.8c0.5-0.3,0.5-0.7,0-1V690.8z"/>
		<path class="st0" d="M103.9,777.7c0.5-0.5,0.8-1.1,0.9-1.8c0.3-2.1,0.3-4.3,0.5-6.4c0.6-4.7,2-9.3,4.3-13.4c2.7-4.7,6-9,9.9-12.7
			c1.3-1.2,2.9-1.9,4.7-2c1.2-0.1,2.3,0.4,3.1,1.3c1.9,1.9,1.9,4.3,1.4,6.5c-1.2,5.5-3.6,10.7-7.1,15.2c-0.2,0.4-0.4,0.7-0.6,1.1
			c2.2-0.9,4.2-2.1,6.1-3.4c0.3-0.3,0.6-0.8,0.7-1.2c2.2-6.2,4.3-12.5,8-18.1c1.4-2.1,2.6-4.5,4.1-6.5c1.3-2,3.2-3.7,5.3-4.8
			c2.2-1.1,4.9-0.3,6.1,1.9c0.4,0.8,0.6,1.7,0.5,2.6c-0.3,3.1-1.3,6-2.9,8.6c-1.7,2.7-3.4,5.4-5.3,8.4c2.7-1.2,5.1-2.2,7.5-3.2
			c1.4-0.6,2.6-1.3,3.9-2.2c2.6-1.8,4.9-4,7.5-5.7c5.2-3.3,11-5.5,17.1-6.6c2.8-0.5,5.7-0.2,8.3,0.9c2.5,0.9,4,3.4,3.6,6
			c-0.2,1.5-1,2.8-2.2,3.8c-3.1,2.8-6.9,4.7-11,5.5c-2.4,0.5-4.9,0.9-7.4,1c-2.9,0.1-5.8,0-8.7-0.1c-3.2-0.1-6.5-0.2-9.7-0.3
			c-0.4,0-0.8,0.2-1.1,0.4c-4.4,2.3-8.8,4.5-13.2,6.8c-0.6,0.4-1.2,0.8-1.8,1.3c2.2,0,4.4-0.3,6.5-0.8c4.4-1.2,9-1.6,13.6-1.2
			c2.5,0,5,0.7,7.1,2c3.3,2.3,4.4,4.1,3,7.8c-0.8,2-2.6,3-4.4,3.8c-4,1.8-8.1,1.5-12.2,0.8c-7.6-1.3-14.6-4.3-21.5-7.8
			c-10,6.3-19.8,12.7-29,20.2c3.3-0.7,6.4-1.6,9.6-2.5s6.5-2,9.8-2.7c4.2-0.9,8.6-0.9,12.8,0c2.8,0.4,5.3,1.8,7.1,3.9
			c0.5,0.6,0.7,1.3,0.7,2c-0.2,1.8-1.2,3.3-2.6,4.4c-6,4.3-13.1,6.6-20.5,6.6c-3.9,0-7.8-0.2-11.7-0.5c-4.5-0.4-9-1-13.6-1.5
			c1.6-3,2.7-6.2,3.1-9.6c0-0.1,0.2-0.3,0.3-0.4C97.6,782.4,100.8,780.1,103.9,777.7z M115.6,792.3c-4.6,0.2-9.1,0.5-13.7,1
			c1.8,0.2,3.7,0.4,5.5,0.5c2.5,0.1,5-0.1,7.5,0c5.5,0.2,10.7-1.3,15.7-3.3c1.6-0.8,3.1-1.9,4.4-3.2c1.4-1.3,1.2-2.1-0.3-3.2
			c-0.4-0.3-0.8-0.6-1.3-0.8c-3.6-0.5-7.1-1.4-10.8-0.9c-5.5,0.8-10.6,2.5-15.9,4c-3.6,1-7.2,2-10.8,3c-0.4,0.2-0.7,0.4-1.1,0.7
			c1.8-0.2,3.1-0.4,4.4-0.4c3.4,0,6.8,0,10.2,0c2.3,0,4.6,0,6.9,0c0.9,0.1,1.8,0.3,2.6,0.5C118.4,791.6,117,792.4,115.6,792.3
			L115.6,792.3z M113.5,768.6c0.6-0.2,1.1-0.2,1.3-0.5c1.9-2.3,3.8-4.6,5.6-7c2.7-3.7,4.6-7.9,5.5-12.4c0.1-1.3,0-2.7-0.3-4
			c-2.2-1-3.4,0.3-4.5,1.3c-6.3,6.3-11.2,13.5-12.6,22.6c0,0.5,0,1.1,0,1.7c1.8-2,2.4-4.1,3.8-5.8s2.4-3.8,5.3-4.6
			C116.9,763.2,114.6,765.5,113.5,768.6L113.5,768.6z M167.7,745.3c2.4-0.5,4.7-1.1,7-1.5c0.6,0,1.3,0,1.9,0.1
			c0.3,1.6-0.8,1.9-1.7,2.2c-2.4,0.8-4.9,1.5-7.3,2.3c-0.1,0-0.2,0.2-0.6,0.7c1.6,0.3,3.3,0.3,4.9,0.1c2.6-0.4,5.2-0.9,7.8-1.5
			c3-0.7,5.7-2.4,7.7-4.8c1.6-1.7,1.1-3-0.9-4.1c-2.8-1.5-5.7-1.2-8.5-0.5c-5,1.3-9.9,2.9-14.2,5.9c-0.9,0.7-1.8,1.5-2.6,2.3
			C164,746.9,165.8,745.7,167.7,745.3L167.7,745.3z M155.3,765.2c-0.3,1.7-1.3,2.1-2.4,2c-2.3-0.2-4.6-0.5-6.9-0.7
			c-2.5-0.3-5.1-0.5-7.7-0.4c1.3,0.5,2.7,1.1,4,1.6c5.3,1.8,10.9,2.5,16.4,2.1c1.9-0.2,3.7-1.3,4.8-2.9c0.9-1.2,0.2-3.1-1.6-3.8
			c-2.2-0.8-4.4-1.4-6.7-1.7c-4.3-0.5-8.7,0-12.8,1.4C146.9,764,151.3,763.6,155.3,765.2L155.3,765.2z M142,738.4
			c-1.5,2.6-3.1,5.1-4.7,7.6c-0.4,0.6-0.6,1.2-0.6,1.9l3-2c0.7,4-2.9,5.9-3.7,9.2c1.9-0.7,2.9-2.2,4-3.4c2-2.4,3.9-4.9,5.6-7.6
			c1.3-2.3,2.3-4.8,3.2-7.3c0.5-1.2,0-2.5-1.2-3c0,0-0.1,0-0.1-0.1C145.1,734.6,143.2,736.3,142,738.4L142,738.4z"/>
		<path class="st0" d="M112,684.8c0.6-1.2,1-2.4,1.7-3.5c2.6-4.3,4.4-9.1,5.4-14.1c0.2-1.1,0.3-2.3,0.2-3.5
			c-0.1-1.6-1.4-2.1-2.6-1.1c-0.6,0.5-1,1.1-1.4,1.7c-2.3,3.6-4.6,7.3-7,10.9c-1.2,1.9-2.5,3.8-4.1,6.1c-0.2-0.7-0.3-1.3-0.4-2
			c0-2.3-0.1-4.7,0-7c0-1.6-0.5-3.1-1.4-4.4c-0.5-0.8-1.5-1.1-2.3-0.6c-0.2,0.1-0.4,0.3-0.6,0.6c-0.6,0.8-1,1.7-1.2,2.7
			c-0.8,4.2-1.4,8.5-2.1,12.7c-0.2,1.3-0.4,2.6-0.7,4.3c-0.3-0.4-0.5-0.9-0.7-1.3c-0.5-1.9-0.9-3.9-1.5-5.7c-0.2-1-1.2-1.6-2.2-1.4
			c-0.4,0.1-0.8,0.4-1.1,0.7c-0.7,0.8-1.1,1.8-1.2,2.9c-0.3,3.7-0.2,7.5-0.6,11.2c-0.6,5.8-1.5,11.5-4.2,16.8
			c-0.5,1.1-0.9,2.3-1.2,3.5c-0.6,1.9,0.5,3.3,2.5,2.9c3.3-0.7,6.7-1.3,9.9-2.3c4.6-1.3,9.2-2.9,13.6-4.7c4.5-1.9,8.8-4.4,12.1-8.2
			c0.4-0.5,0.8-1.1,0.9-1.7c0.3-0.8-0.1-1.6-0.8-1.9c-0.2-0.1-0.5-0.1-0.8-0.1c-1.5,0-3,0.1-4.4,0.3c-2.4,0.3-4.7,0.7-7.2,1
			c0.1-0.4,0.1-0.8,0.3-0.9c2.7-2.3,5.5-4.3,7.9-6.8c2-2.1,4.4-4.1,5.2-7.2c0.4-1,0.2-2.2-0.5-3c-0.8-0.8-1.7-0.5-2.5-0.1
			c-1.3,0.6-2.5,1.3-3.7,2c-1,0.5-1.9,1.2-2.8,1.8L112,684.8z"/>
		<path class="st16" d="M97.5,839.8l-1.1,4l0,0c3.2-1.6,5.5-4.4,6.5-7.8c0.7-1.9,1.6-3.7,2.6-5.4c0.3-1,1.4-1.5,2.3-1.2h0.1
			c-1.1,2.2-2.1,4.3-3.1,6.4l0.5,0.4c1-0.8,2-1.5,3-2.3c2.1-1.7,4.1-3.4,6.1-5.1c0.5-0.3,1.1-0.5,1.7-0.4c-2.6,3.8-6.5,6.1-10,9.8
			c1.6-0.3,3.2-0.4,4.8-0.5c1.2,0,2.7-1.3,4,0.7c-0.7,0.3-1.4,0.6-2.1,0.8c-2.4,0.4-4.9,0.7-7.4,1.1c-0.7,0-1.3,0.2-1.9,0.5
			c-2.4,1.7-4.8,3.4-7.5,5.5c1.9,0,3.2-0.1,4.5,0c1.1,0.1,2.5-0.6,3.4,0.9c-1.1,1-2.3,0.9-3.6,1c-2.4,0.1-4.8,0.4-7.2,0.5
			c-1,0.1-1.6,0.4-1.7,1.4c3.9,0.2,7.8,0.5,11.7,0.4c2.3-0.2,4.6-0.6,6.8-1.1c0.5,0,1-0.2,1.4-0.6c0.7-0.5,1.1-1.3,1.4-2.1
			c0-0.5-1-1.2-1.8-1.4c-1.7-0.4-3.4-0.8-5.2-1c1.6-0.5,2.7-0.8,3.7-1.2c3.4-1.3,6.8-2.5,10.2-4c1.3-0.7,2.6-1.6,3.6-2.7
			c1.2-1.2,0.8-2.5-0.9-2.9c-0.9-0.1-1.8-0.2-2.7-0.1c-0.8,0-1.7,0.2-2.5,0.3c-0.1,0-0.2-0.1-0.6-0.3c2.1-1.8,4.3-3.4,6.3-5.2
			c1.8-1.8,3.4-3.8,4.9-5.9c0.7-0.8,0.8-2,0.1-2.8c-0.9-1-2-0.7-3-0.2c-1.2,0.6-2.3,1.3-3.4,2.1c-3.2,2.2-6.4,4.5-9.9,6.9
			c0.2-0.8,0.2-1.2,0.3-1.6c0.5-1.7,0.8-3.5,1.1-5.3c0.1-1.6-1-2.3-2.5-1.5c-1,0.7-1.9,1.5-2.7,2.5c-1,1.6-2.1,3.2-3.4,4.7
			c0-1.2,0.1-2.4,0-3.6c-0.2-3-1.1-3.5-3.7-2c-0.2,0.1-0.3,0.1-0.5,0.1c-0.5,5.1-2.8,9.6-4,14.5c-0.2,0.6-0.3,1.3-0.4,2l0.7,0.6l0,0
			c0.4-0.7,0.5-1.7,1.8-1.9C98.5,838.1,98.6,839.1,97.5,839.8z"/>
		<path class="st17" d="M56.9,796.4c-0.5,1-1.1,2-1.6,3c-0.3,0.6-0.8,1.3,0.1,1.7c0.3,0.1,1.1-0.5,1.5-0.9c1.4-1.9,2.7-4,4-5.9
			l0.6-0.5l0,0c0.3-0.7,0.6-1.4,1-2c2.4-3.4,4.9-6.7,7.2-10.1c1.3-1.9,2.7-3.2,5.2-3.1c1.2,0,2.5-0.1,3.7-0.3l9.3-2.5
			c0.8-0.7,1.7-1.2,2.6-2s1.6-1.4,1-2.5s-1.5-0.9-2.4-0.6c-2.1,0.7-4.3,1.3-6.4,2.2s-4.2,1.9-6.4,2.8c-0.5,0.2-1.1,0.3-1.7,0.4
			c0.4-0.7,0.8-1.3,1.2-1.9c3.3-3.4,6.7-6.7,10-10.2c0.7-0.8,1.8-1.1,2.9-0.8c3,0.5,6.2,0.4,9.2-0.4c0.7-0.1,1.4-0.4,2-0.9
			c0.5-0.5,0.8-1.2,0.8-1.9c-0.3-0.6-0.9-1.1-1.7-1.2c-0.8-0.1-1.7,0-2.5,0.2c-1.7,0.4-3.4,0.6-5.1,0.5c0.6-0.6,1.3-1.2,1.9-1.8
			c2.3-2.2,4.7-4.3,6.8-6.6c1.2-1.4,2.6-2.9,1.8-5.1c-1.6-0.7-2.6,0.5-3.5,1.3c-1.9,1.9-3.6,3.9-5.4,5.9c-3.3,3.7-6.7,7.4-10.1,11.1
			c-0.4,0.4-0.9,0.7-1.5,0.8c0.1-0.7,0.2-1.5,0.4-2.2c0.7-3,1-6.1,0.8-9.2c0-0.4,0-0.8-0.2-1.2c-0.3-0.5-0.8-1.2-1.3-1.2
			s-1.1,0.6-1.3,1.1c-0.4,0.9-0.6,1.9-0.7,2.9c-0.4,3.8-0.8,7.6-1,11.4c-0.1,1.8-0.8,3.6-2,4.9c-2.9,3.3-5.7,6.7-8.5,10.1l-2.6,3
			c0.1-1.3,0.2-2,0.2-2.7c0.2-2.2,0.4-4.3,0.6-6.5c0-0.5,0-1-0.1-1.5c0-0.9-0.2-1.9-1.2-2.2s-1.4,0.6-1.9,1.2
			c-0.2,2-0.5,3.9-0.7,5.8c-0.2,2.7-0.5,5.4-0.4,8.2c0.1,3.6-1.7,6.2-3.9,8.7l0,0L56.9,796.4z"/>
		<path class="st14" d="M83.2,738.1c-1.8,0.3-3.1,1.8-3.1,3.6c0.2,1.6,1.4,2.7,3,2.8c1.5,0,3.3-1.6,3.3-2.9
			C86.3,739.8,84.8,738,83.2,738.1z"/>
		<path class="st20" d="M59,595.9c0,2,0.9,2.9,2.8,2.9c1.7,0,2.6-0.8,2.6-2.3c0-1.6-1.2-3-2.8-3.2c-1.3-0.2-2.4,0.8-2.6,2
			C59,595.5,59,595.7,59,595.9z"/>
		<path class="st20" d="M64.6,586.8c1.2,0,2.3-0.9,2.3-2.2c0-0.2,0-0.3,0-0.5c-0.1-1.5-1.4-2.7-2.9-2.8c-1.2,0-2.5,1.5-2.4,3
			S63.1,586.9,64.6,586.8L64.6,586.8z"/>
		<path class="st20" d="M71.3,589.7c-1.7,0-2.3,0.6-2.3,2.2s0.9,2.8,2.4,2.8c1.2,0.1,2.4-0.8,2.5-2c0-0.1,0-0.3,0-0.4
			c0.2-1.3-0.8-2.4-2-2.6C71.7,589.7,71.5,589.7,71.3,589.7z"/>
		<path class="st22" d="M45.2,574.7c5-1.8,10.4-3.2,15.8-5.4c-2.5-3.5-4.8-6.7-7.2-9.9c-0.9-0.9-1.9-1.6-3-2.2
			c-0.3-0.2-0.8-0.3-1.1-0.6c-2.2-2.4-5.2-2.3-8-2.9c-1.5-0.3-3.1-0.6-4.6-0.9c-1.7-0.3-2-0.2-2.7,1.4c-0.3,1-0.7,2-1.2,3
			c-1.3,1.9-0.6,3.4,0.8,4.8c2.1,2.2,4.2,4.5,6.2,6.8C41.9,570.7,43.4,572.6,45.2,574.7z"/>
		<path class="st22" d="M25.8,579.8c5.7-0.5,10.6-2.5,16-4c-2.8-5.1-7.5-8.2-10.9-13C28.4,568.2,26.7,573.9,25.8,579.8z"/>
		<path class="st22" d="M55.2,556.2c2.5,3.6,4.8,7,7.3,10.3c0.5,0.7,1.2,1.6,2.3,1.1c4.5-2,9.2-3.5,13.7-6.5
			C70.6,558.8,63,557.6,55.2,556.2z"/>
		<path class="st14" d="M14.5,608.9c-2-0.1-3.8,1.5-3.9,3.5c0,0,0,0,0,0.1c0,1.6,1.6,3.3,3.2,3.1c2.6-0.3,4.6-1.2,4.5-3.6
			C18.2,610.1,16.7,608.8,14.5,608.9z"/>
		<path class="st14" d="M25.4,605.5c-2.5,0.1-4.1,1.4-4,3.5c-0.1,1.7,1.3,3.2,3,3.3c2,0,3.6-1.7,3.5-3.7c0-0.1,0-0.2,0-0.3
			C27.9,606.5,26.9,605.5,25.4,605.5z"/>
		<path class="st14" d="M14.3,597.2c-0.8,0.4-1.6,1-2.3,1.6c-1,1-0.1,2,0.4,2.9c0.1,0.1,0.2,0.3,0.3,0.4c0.9,1.3,2.7,1.9,4.2,1.3
			c1.3-0.6,1.9-2,1.5-3.3C17.9,598.3,16.2,597.2,14.3,597.2z"/>
		<path class="st12" d="M40.9,798.7c1.7-3.6,3.1-7.4,5.1-10.8c0.8-1.4,2.8-2.3,4.2-3.3c0.6-0.4,1.4-0.6,2-1.1
			c0.3-0.4,0.6-0.8,0.8-1.3l-0.3-0.5l-4.4,1.6c0.8-1.8,1.3-3.1,1.9-4.4c0.9-2,1.8-4.1,2.8-6.1c0.5-0.8,0.3-1.8-0.4-2.3
			c-0.1-0.1-0.2-0.1-0.3-0.2c-2.1,3.9-3.9,8-6.2,12c-0.2-1.5-0.4-3.1-0.6-4.6c-0.1-0.9-0.2-1.8-1.6-1.9c-0.7,1.7-0.3,3.4-0.2,5.1
			c0,0.5,0.2,1,0.3,1.5c0.4,2.5,0.5,4.9-1.1,7.3c-1.4,2.4-2.6,5-3.6,7.5c-1.2-2-0.5-3.9-0.9-5.7s0-3.7-1.3-5.2
			c-1.2,0.5-1.1,1.5-1,2.3c0.2,2.6,0.5,5.3,0.8,7.9c0.5,3.1-0.1,6.2-1.7,8.8c-1.5,2.3-2.5,4.9-3.8,7.3l2.6-0.9
			c1.4-2.7,2.6-5.6,4.2-8.2c1-1.1,2.2-2,3.6-2.5c2.7-1.3,5.5-2.4,8.2-3.6c0.7-0.4,1.4-0.9,2-1.5c-0.1-0.2-0.1-0.4-0.2-0.6
			c-0.6,0-1.1,0-1.7,0.1c-1.6,0.6-3.2,1.5-4.8,2.1C43.8,798.1,42.4,798.4,40.9,798.7l-0.2,0.2C40.7,798.9,40.8,798.8,40.9,798.7z"/>
		<path class="st12" d="M69.4,807.7c0-0.5,0.1-1,0.3-1.4c1.6-2.2,3.2-4.3,4.8-6.4c0.9-1.1,2.2-1.4,3.5-1.7c1.7-0.4,3.4-0.8,5-1.4
			c0.5-0.2,1.1-1,1.1-1.3c-0.2-0.9-1-0.6-1.6-0.4c-1.4,0.4-2.8,0.8-4.7,1.2c1.4-3,3.8-4.9,4-8.2c-2,0.5-2.3,2.3-3.2,3.4
			s-1.8,2.2-3,3.7c-0.2-3.2-0.4-5.9-0.7-8.6c0-0.1-0.2-0.2-0.4-0.3c-1.3,0.2-1.2,1.2-1.2,2c0,2.7,0,5.3,0,8c0,1.2-0.4,2.3-1.1,3.2
			c-1.7,2.1-3.3,4.4-4.9,6.6c-0.2,0.2-0.4,0.5-1,1.2c0-2.9,0-5.3,0-7.6c-0.1-1-0.3-2-0.5-3c-1,0.5-1.6,1.6-1.4,2.7
			c0,2.8,0,5.5-0.1,8.2L69.4,807.7z"/>
		<path class="st24" d="M25.5,821.7l-2.2,2.5c0.5,2.4-0.1,4.7-0.6,7c-0.3,1.5-0.2,3.1-0.4,5.1c3-2.1,3.7-4.7,4-7.5
			C26.5,826.4,26.2,824,25.5,821.7z"/>
		<path class="st8" d="M3.4,849.5c0.6-0.5,1.3-0.8,1.5-1.3c1.7-3.7,3.3-7.4,4.9-11.1c0-0.1-0.1-0.3-0.2-0.7
			c-0.5,0.3-1.1,0.5-1.3,0.9c-1.8,3.7-3.5,7.5-5.3,11.2C3,848.6,3.1,848.8,3.4,849.5z"/>
		<path class="st12" d="M28.4,813.7c-0.2-4.4-0.9-6.7-2.5-8.2c-0.9,1.6-0.8,3,1,8.9L28.4,813.7z"/>
		<path class="st8" d="M46.9,871.3c1.9,2.8,5.7,4.1,7.7,2.4C52,873,49.8,871.7,46.9,871.3z"/>
		<path class="st8" d="M60.2,818c-1.9,1.7-2.1,3.6-2.9,5.5c0.7,0,1.3,0.2,1.5,0C59.9,821.9,60.4,820,60.2,818z"/>
		<path class="st12" d="M58,808.2c-0.3-1.8,0.4-3.7-0.6-5.5c-1.5,0.7-0.8,1.8-1,2.7s-0.3,1.9-0.5,2.9L58,808.2z"/>
		<path class="st14" d="M96.4,838.8l-0.7-0.6l-3,6.4C94.3,843.8,95.3,841.9,96.4,838.8z"/>
		<path class="st8" d="M93.1,816.5c-2,0-2.7,0.5-3.5,2.5C91.7,819,92.3,818.5,93.1,816.5z"/>
		<path class="st8" d="M47.7,838c-1.5,1.7-1.5,1.7-0.9,3.8c0.3-0.2,0.9-0.4,0.9-0.6C47.7,840.1,48.8,839,47.7,838z"/>
		<path class="st14" d="M97.5,839.8c1.1-0.7,1-1.7,0.7-2.9c-1.3,0.1-1.4,1.1-1.8,1.9L97.5,839.8z"/>
		<path class="st16" d="M96.4,843.8l-0.2,0.2h0.1C96.3,843.9,96.4,843.8,96.4,843.8L96.4,843.8z"/>
		<path class="st22" d="M78.9,870.8l0.6-0.6L78.9,870.8z"/>
		<path class="st14" d="M48.8,701.7c7.2-2.8,13.7-7,20.8-9.8c0.1,0,0.1-0.4,0.1-0.7c-3,0.1-8.6,2.6-19.9,8.9c-0.5,0.3-1,0.7-1.4,1.1
			L48.8,701.7z"/>
		<path class="st14" d="M20.4,713.6c-2.2-0.2-7.4,2.2-9.4,4.3c2.1,0.2,3.5-1.1,5-1.8S19.3,715.3,20.4,713.6z"/>
		<path class="st18" d="M14.9,722.8c0,0.1,0.1,0.2,0.2,0.2c2.8,1.5,3.2,1.3,4.5-1.7C17.7,721,16.4,722.2,14.9,722.8z"/>
		<path class="st22" d="M39.9,696.8l-0.2,0.2h0.1C39.9,696.9,39.9,696.9,39.9,696.8L39.9,696.8z"/>
		<path class="st25" d="M78.5,778.2c-1.2,0.2-2.5,0.3-3.7,0.3c-2.5-0.1-3.9,1.2-5.2,3.1c-2.3,3.4-4.8,6.8-7.2,10.1
			c-0.4,0.6-0.7,1.3-1,2c0.6-0.3,1.3-0.6,1.8-1.1c2.4-2.3,4.6-4.7,7.1-7s4.7-4.2,7-6.2C77.7,779.1,78.1,778.6,78.5,778.2z"/>
		<path class="st18" d="M57.4,795.8c2.2-2.5,4-5.1,3.9-8.7c-0.1-2.7,0.3-5.4,0.4-8.2c-0.5,1.8-1.1,3.6-1.5,5.4
			c-0.9,3.1-1.7,6.2-2.4,9.3C57.6,794.3,57.5,795.1,57.4,795.8z"/>
		<path class="st25" d="M61.4,793.7l-0.6,0.5C61.6,794.7,61.4,794.1,61.4,793.7z"/>
		<path class="st18" d="M56.9,796.4l0.5-0.7L56.9,796.4z"/>
		<path class="st13" d="M28.8,717c-1.1,0.1-2,1.2-1.8,1.9c0.2,0.4,0.6,0.7,1,0.8c0.8,0,1.9-1.1,1.6-1.8
			C29.6,717.5,29.1,717.2,28.8,717z"/>
		<path class="st13" d="M22.3,751.7c-0.5,0.5-0.9,1.1-1.3,1.7c-0.3,0.5-0.2,1.2,0.3,1.5c0.1,0.1,0.2,0.1,0.3,0.1
			c0.7,0.3,1.4,0,1.7-0.6c0-0.1,0.1-0.1,0.1-0.2C23.7,753.6,23.4,753,22.3,751.7z"/>
		<path class="st13" d="M9,728.7c-1-0.8-1.5-1.5-2.1-1.7c-0.6-0.1-1.2,0.3-1.3,0.9c0,0.1,0,0.3,0,0.4c0.3,0.6,0.8,1.1,1.5,1.3
			C7.5,729.8,8.1,729.3,9,728.7z"/>
		<path class="st13" d="M44.9,711.8c0.5-0.8,0.9-1.1,1-1.6c0.2-0.7-0.3-1.4-1-1.3c-0.6,0.2-1,0.6-1.2,1.2
			C43.6,710.5,44.3,711,44.9,711.8z"/>
		<path class="st13" d="M5.6,732.2c-0.7-0.5-1-0.9-1.4-0.9c-0.8,0-1.4,0.6-1.4,1.4c0,0.1,0,0.1,0,0.2c0.1,0.4,0.8,0.9,0.9,0.9
			C4.4,733.3,5,732.8,5.6,732.2z"/>
		<path class="st13" d="M45.9,713.8c0.8,0.7,1.1,1.2,1.5,1.3c0.5,0.2,1.1,0,1.3-0.5c0.1-0.1,0.1-0.3,0.1-0.4c-0.1-0.5-0.4-1-0.9-1.2
			C47.4,713,46.8,713.4,45.9,713.8z"/>
		<path class="st13" d="M19.9,748.9c0.8,0.5,1.3,0.9,1.7,0.9s0.8-0.6,1.1-0.9c-0.4-0.3-0.8-1-1.2-1S20.7,748.3,19.9,748.9z"/>
		<path class="st13" d="M29.3,712.4c-0.4,0.8-0.9,1.2-0.9,1.6s0.7,0.7,1,1.1c0.3-0.4,0.9-0.8,0.9-1.2S29.8,713.1,29.3,712.4z"/>
		<path class="st2" d="M4.3,871.7c-0.1,0.2-0.2,0.4-0.3,0.6c0,0,0.1,0.1,0.2,0.2l0.3-0.6L4.3,871.7z"/>
		<path class="st2" d="M70.4,833.8l-0.2,0.1L70.4,833.8L70.4,833.8z"/>
		<path class="st22" d="M119.1,790.3c-0.6,1.3-2,2.1-3.5,2c-4.6,0.2-9.1,0.5-13.7,1c1.8,0.2,3.7,0.4,5.5,0.5c2.5,0.1,5-0.1,7.5,0
			c5.5,0.2,10.7-1.3,15.7-3.3c1.6-0.8,3.1-1.9,4.4-3.2c1.4-1.3,1.2-2.1-0.3-3.2c-0.4-0.3-0.8-0.6-1.3-0.8c-3.6-0.5-7.1-1.4-10.8-0.9
			c-5.5,0.8-10.6,2.5-15.9,4c-3.6,1-7.2,2-10.8,3c-0.4,0.2-0.7,0.4-1.1,0.7c1.8-0.2,3.1-0.4,4.4-0.4c3.4,0,6.8,0,10.2,0
			c2.3,0,4.6,0,6.9,0C117.4,789.9,118.2,790.1,119.1,790.3z"/>
		<path class="st22" d="M117.5,759.8c-0.6,3.5-2.9,5.7-4,8.8c0.6-0.2,1.1-0.2,1.3-0.5c1.9-2.3,3.8-4.6,5.6-7
			c2.7-3.7,4.6-7.9,5.5-12.4c0.1-1.3,0-2.7-0.3-4c-2.2-1-3.4,0.3-4.5,1.3c-6.3,6.3-11.2,13.5-12.6,22.6c0,0.5,0,1.1,0,1.7
			c1.8-2,2.4-4.1,3.8-5.8S114.6,760.6,117.5,759.8z"/>
		<path class="st6" d="M40.9,798.7c-0.1,0.1-0.1,0.2-0.2,0.2L40.9,798.7L40.9,798.7z"/>
	</g>
</g>
</svg>
