<svg xmlns="http://www.w3.org/2000/svg" viewBox="0 0 177.09 36.89"><defs><style>.cls-1{isolation:isolate;}.cls-2{fill:#fff;}</style></defs><g id="圖層_2" data-name="圖層 2"><g id="圖層_1-2" data-name="圖層 1"><g id="圖層_2-2" data-name="圖層 2"><g id="圖層_1-2-2" data-name="圖層 1-2"><g class="cls-1"><path class="cls-2" d="M.47,16.31a49.09,49.09,0,0,1,6.75.52,9.72,9.72,0,0,1-.52,3.23A21.9,21.9,0,0,1,0,19.27,10,10,0,0,1,.47,16.31Zm8.39,12a9.27,9.27,0,0,1,1.36,2.77,16.78,16.78,0,0,1-6,2.86,9.91,9.91,0,0,1-1.5-2.86A23.23,23.23,0,0,1,8.86,28.31ZM4.36,3.94a22.14,22.14,0,0,1,7.12,2.25,7.74,7.74,0,0,1-1.17,3A15.91,15.91,0,0,1,3.42,6.89,12,12,0,0,1,4.36,3.94Zm18.8,9.75c-.1-2.25-.16-4.46-.19-6.61-2.66.28-5.31.48-8,.61a6.18,6.18,0,0,1-.66-3.05Q24.33,3,35.2,2.06a9.76,9.76,0,0,1,.38,2.77c-3,.65-5.94,1.22-8.91,1.69q.28,3.6.47,7.17h2.91a51.12,51.12,0,0,1,7,.37,3,3,0,0,1,.19,1.27c0,.78-.06,1.22-.19,1.31-.44.25-2.76.38-7,.38H27.23c.07,1.78.1,3.6.1,5.48q4.41.33,8.25.7,0,8.67-.94,12.61c-1.34.5-5,.75-10.87.75a27.3,27.3,0,0,1-7.69-.94A97,97,0,0,1,15.14,24a22.81,22.81,0,0,1,2.95-.19q.61,4.5.94,9.33,6.95.2,12.75.19,0-2.77.38-7.27-5.91-.37-10.74-1c0-1,0-1.89.1-2.77h2.39c-.22-1.75-.39-3.51-.52-5.29-5.87-.13-9.16-.25-9.84-.38a4.81,4.81,0,0,1-.14-1.31,3.7,3.7,0,0,1,.23-1.45Q18.1,13.68,23.16,13.69Z"/><path class="cls-2" d="M57.72,4.31c.06,1,.12,2,.18,3,3.47.15,6.9.42,10.27.79V9.33a4,4,0,0,1-.28,1.5q-4.92,0-9.75-.19c0,.78.08,1.59.14,2.44a64,64,0,0,1,8,.42q.18,3.51.18,7.64a29.55,29.55,0,0,1-.23,3.94,32.14,32.14,0,0,1-6,.42H58.8c0,.62,0,1.17,0,1.64q3,.2,4.83.42v2.63c-1.38,0-3,.06-4.78.18,0,.6,0,1.29,0,2.07q3.93,0,6.65.18a4.52,4.52,0,0,1,.19,1.5,9.13,9.13,0,0,1-.09,1.32q-3.9.38-12.52.37a22,22,0,0,1-3.47-.19,3.49,3.49,0,0,1-.28-1.5,5.61,5.61,0,0,1,.19-1.5,22.88,22.88,0,0,1,3.75-.18h2.81c-.06-.78-.12-1.47-.19-2.07H50.87a14.32,14.32,0,0,1-.28-2.81q1.83-.22,5.16-.42h0c-.07-.59-.11-1.22-.15-1.87a75.6,75.6,0,0,1-8-.38q-.19-3.33-.19-7.69c0-1.09.06-2.4.19-3.93q3.14-.19,7.36-.19c-.07-.85-.11-1.7-.15-2.58q-4.5-.18-9-.56a9.15,9.15,0,0,1-.18-1.5,9.3,9.3,0,0,1,.09-1.36h9c0-.85,0-1.66-.05-2.44-1.62,0-3.29.06-5,.19a19.42,19.42,0,0,1-.47-2.95q6.38-.61,13.64-1a16.76,16.76,0,0,1,.42,3.05Zm-7,12v1.5h4.5q0-.79-.09-1.5Zm4.74,6c0-.5-.07-1.06-.1-1.69H50.73v1.69Zm3-6q0,.71.09,1.5c1,.13,1.93.25,2.68.38v2.43H58.65c0,.63,0,1.19.05,1.69h4.36v-6Zm18.75,3q-2.53,6.8-5.53,13.5a4.55,4.55,0,0,1-2.58-1.08q2.16-6.61,4.55-13c-1.69-.22-3.39-.39-5.11-.51a7.26,7.26,0,0,1,.56-2.86q2.86.22,5.77.42c.75-1.91,1.51-3.78,2.29-5.63A10.45,10.45,0,0,1,80,11.2q-.8,2.49-1.68,4.92c2.46.26,5,.55,7.45.9V23.2a28.52,28.52,0,0,1-.85,7.36,9.62,9.62,0,0,1-2.29.14,15.46,15.46,0,0,1-3.47-.33A3.5,3.5,0,0,1,79,29.2a8.63,8.63,0,0,1,.28-1.08h2.86c.19-2.75.28-5.43.28-8.06C80.65,19.81,78.92,19.55,77.17,19.27Z"/><path class="cls-2" d="M101.47,24.7q2.25.38,4.68,1c-.47,2.5-1.07,5-1.82,7.64q3.89.42,8.06.79a9.1,9.1,0,0,1-.47,2.77q-5.67-.33-11.34-1.08.73-4.12,1.73-7.87l-5.06-1.32q1.5-3.6,2.76-6.93l-5.58-.8a15.61,15.61,0,0,1,.33-3,68.73,68.73,0,0,1,9.66,1.26A38.28,38.28,0,0,1,101.47,24.7ZM97,6.38a19.92,19.92,0,0,1,7.31,2.39,9.78,9.78,0,0,1-1.08,2.85,15.43,15.43,0,0,1-7.12-2.48A14.6,14.6,0,0,1,97,6.38Zm20.71,9.56V12.7a27.28,27.28,0,0,1-3.14-.18,3.17,3.17,0,0,1-.18-1.32,4.08,4.08,0,0,1,.18-1.26h3.19c0-.91.06-1.8.1-2.67q-4.27-.37-8.58-1.08a13.47,13.47,0,0,1,.28-2.86q4.26.42,8.39.61c.06-1.13.14-2.32.23-3.56a3.21,3.21,0,0,1,1.5-.38,3.12,3.12,0,0,1,1.55.38c0,1.24.06,2.56.09,3.93q3.9.33,7.69.71a10.65,10.65,0,0,1-.42,2.86c-2.38,0-4.78-.07-7.22-.19,0,.72,0,1.47,0,2.25,3,.12,5.83.25,8.48.37a54.2,54.2,0,0,1,.28,7.5c0,3.35-.12,5.28-.37,5.81a45.77,45.77,0,0,1-8.53.57c0,1-.07,1.92-.1,2.76q3.19-.18,6.14-.18a3.5,3.5,0,0,1,.19,1.17,3.56,3.56,0,0,1-.19,1.26A58.71,58.71,0,0,1,121,30c-.06,1.5-.12,2.94-.18,4.31a5.39,5.39,0,0,1-1.65.19,3.87,3.87,0,0,1-1.35-.19c0-1.25,0-2.56,0-3.94-2.06.13-4.38.24-6.94.33a4.64,4.64,0,0,1-.66-2.76,73.48,73.48,0,0,1,7.55-.8V24.37h-1.26q-5.49,0-7.83-.93a32.09,32.09,0,0,1-.38-5.44V11.44A5.72,5.72,0,0,1,110,11.2a4.37,4.37,0,0,1,1.5.24q.47,5.58.47,9.7a13.71,13.71,0,0,0,4.5.42h1.26c0-.87,0-1.76,0-2.67-1.34-.12-2.68-.23-4-.33V17a7,7,0,0,1,.1-1.27C114.93,15.75,116.25,15.81,117.68,15.94Zm3.66,3.14c0,.78,0,1.61,0,2.48,2.6-.15,4.38-.23,5.35-.23a29,29,0,0,0,.19-3.52c0-1.37,0-3-.1-4.92h-5.34v3.23a23,23,0,0,1,2.81.19,18.14,18.14,0,0,1-.23,2.77Z"/><path class="cls-2" d="M147.56,14.44q1.13-1.92,2.44-3.8a12.26,12.26,0,0,1,2.86,1.55q-3,4.83-5.21,9.37a16.86,16.86,0,0,0,4,.38,17.71,17.71,0,0,0-.18-2.67,8.23,8.23,0,0,1,2.53-.38,23,23,0,0,1,.61,5.48,9.31,9.31,0,0,1-3.28.33q-5.4,0-7.93-1.08a28.06,28.06,0,0,1,2.44-6.18q-3.75-1.7-7-3.56a78.42,78.42,0,0,1,8.34-12.19A8.51,8.51,0,0,1,149.86,3q-2.78,4.74-6.19,9.57A23.77,23.77,0,0,1,147.56,14.44Zm-5.44,12.89a2.88,2.88,0,0,1,1.5.42c0,1.5-.08,3.12-.23,4.87a6.46,6.46,0,0,1-1.64.15,2.43,2.43,0,0,1-1.46-.33,32.32,32.32,0,0,1,.28-4.88A4.82,4.82,0,0,1,142.12,27.33Zm6.33.42a8.62,8.62,0,0,1,1.41,4.31,7.42,7.42,0,0,1-2.58.89,10.32,10.32,0,0,1-1.41-4.64A13.37,13.37,0,0,1,148.45,27.75Zm5-1a7.27,7.27,0,0,1,1.36,3.6,4.51,4.51,0,0,1-2.34.71,7.19,7.19,0,0,1-1.27-3.75A9.73,9.73,0,0,1,153.46,26.77ZM164.53,9c-3.07-.25-6.13-.54-9.19-.89a14.08,14.08,0,0,1,.33-3q4.31.18,8.72.42c0-1.25,0-2.56,0-3.94a6.65,6.65,0,0,1,1.83-.23h1.69c.12,1.53.21,3,.28,4.54q4.5.38,9,.71a12.86,12.86,0,0,1-.28,2.81c-2.85,0-5.67-.06-8.49-.19.07,2,.11,4,.14,6,2.16,0,4,.06,5.4.19a7,7,0,0,1,.14,1.5,4.58,4.58,0,0,1-.14,1.36q-.66.38-6.94.37-8.29,0-9.1-.37a5.3,5.3,0,0,1-.18-1.55,4.44,4.44,0,0,1,.28-1.5h7C164.76,13.05,164.62,11,164.53,9Zm3,26.49a49.85,49.85,0,0,1-8-.42A42.29,42.29,0,0,1,159,29.2c-.13-2.09-.19-3.83-.19-5.2a13.65,13.65,0,0,1,1.73-.38,4.22,4.22,0,0,1,1.5.19q.38,4.13.38,8.63h5.15c1.85,0,3.54-.07,5.07-.19,0-2-.13-4-.28-6-1.54-.13-2.94-.25-4.22-.38a15.41,15.41,0,0,1-3.24-.37,11.37,11.37,0,0,1-.14-1.5,5.93,5.93,0,0,1,.14-1.36,58.23,58.23,0,0,1,10.74.8,34,34,0,0,1,.42,5.39q0,4.5-.14,6A38.31,38.31,0,0,1,167.57,35.44Z"/></g></g></g></g></g></svg>