<svg id="Group_346" data-name="Group 346" xmlns="http://www.w3.org/2000/svg" width="231.258" height="231.259" viewBox="0 0 231.258 231.259">
  <ellipse id="Ellipse_5" data-name="Ellipse 5" cx="115.629" cy="113.261" rx="115.629" ry="113.261" transform="translate(0 0)" fill="#e0f2d7"/>
  <path id="Path_38379" data-name="Path 38379" d="M503,186.967c7.975,9.54,13.511,20.983,17.2,32.791,5.091,16.278,6.957,33.492,6.887,50.479-.061,14.946-1.339,30.118-6.064,44.4a98.618,98.618,0,0,1-19.2,33.672,122.266,122.266,0,0,1-29.864,24.48A189.925,189.925,0,0,1,434.4,389.55c-6.249,2.073-12.579,3.894-18.965,5.508a116.588,116.588,0,0,0,33.254,4.811c63.472,0,114.926-50.662,114.926-113.156C563.617,243.561,539.082,206.052,503,186.967Z" transform="translate(-332.358 -173.349)" fill="#d4e6cc"/>
  <path id="Path_38380" data-name="Path 38380" d="M548.984,573.058a187.207,187.207,0,0,1-21.84,32.556,112.884,112.884,0,0,1-29.691,24.871c-13.833,7.865-29.3,12.128-45.013,14.184a258.7,258.7,0,0,1-28.869,1.908q-4.05,1.168-8.134,2.217A115.015,115.015,0,0,0,563.509,543.717C558.906,553.614,554.209,563.472,548.984,573.058Z" transform="translate(-332.358 -427.161)" fill="#c8d9c0"/>
  <path id="Path_38381" data-name="Path 38381" d="M411.086,858.465l.006-.065c0-.135.017-.282.015-.406C411.069,857.93,411,858.046,411.086,858.465Z" transform="translate(-330.19 -647.809)" fill="#cfccca"/>
  <g id="Group_304" data-name="Group 304" transform="translate(60.487 141.919)">
    <path id="Path_38382" data-name="Path 38382" d="M448.08,656.7a58.933,58.933,0,0,0-15.141-16.514c-5.179-3.988-10.8-7.431-16.8-9.3-11.585-3.62-24.591-2.13-35.775,2.4a46.787,46.787,0,0,0-15.14,9.682c-7.406,7.2-12.735,16.9-16.536,27.192-3.105,8.406-7.049,19.634-6.841,29.215a115.054,115.054,0,0,0,116-3.315c-.716-5.638-2.165-11.6-2.92-16.554C453.718,671.573,452.07,663.441,448.08,656.7Zm-98.3,45.181,0-.016.015.057Z" transform="translate(-341.839 -628.859)" fill="#ccc6b4"/>
    <path id="Path_38383" data-name="Path 38383" d="M368.488,873.976l.011.041-.015-.057Z" transform="translate(-360.547 -800.95)" fill="#f1efea"/>
  </g>
  <g id="Group_305" data-name="Group 305" transform="translate(60.487 141.919)">
    <path id="Path_38384" data-name="Path 38384" d="M448.08,656.7a58.933,58.933,0,0,0-15.141-16.514c-5.179-3.988-10.8-7.431-16.8-9.3-11.585-3.62-24.591-2.13-35.775,2.4a46.787,46.787,0,0,0-15.14,9.682c-7.406,7.2-12.735,16.9-16.536,27.192-3.105,8.406-7.049,19.634-6.841,29.215a115.054,115.054,0,0,0,116-3.315c-.716-5.638-2.165-11.6-2.92-16.554C453.718,671.573,452.07,663.441,448.08,656.7Zm-98.3,45.181,0-.016.015.057Z" transform="translate(-341.839 -628.859)" fill="#ccc6b4"/>
  </g>
  <g id="Group_306" data-name="Group 306" transform="translate(68.423 141.919)">
    <path id="Path_38385" data-name="Path 38385" d="M385.6,674.493a30.643,30.643,0,0,0,3.8,5.955,31.467,31.467,0,0,0,2.116,2.419,10.491,10.491,0,0,0,1.172,1.079,52.045,52.045,0,0,1,2.365-5.193c.845-1.569,2.134-3.9,4.235-3.724,1.7.139,2.851,1.837,3.624,3.177a31.689,31.689,0,0,1,2.42,5.716q.751,2.216,1.33,4.485a23.072,23.072,0,0,0,3.916,8.01,63.1,63.1,0,0,0,6.427,6.941c2.548,2.53,4.976,5.177,7.512,7.72.811.813,1.629,1.6,2.472,2.348a115.837,115.837,0,0,0,12.134-.93c.012-.35.029-.7.055-1.057.2-2.723.464-5.5.834-8.206.259-1.9.581-5.788,3.132-6.034.831-.08,1.372.435,2.11.682a2.808,2.808,0,0,0,1.961.08,4.274,4.274,0,0,0,1.673-1.463c.625-.815,1.224-1.654,1.786-2.513a76.107,76.107,0,0,0,5.766-11.413,1.2,1.2,0,0,1,1.489-.745c1.253.474,2.287,1.643,3.7,1.4a7.555,7.555,0,0,0,3.2-1.641c4.16-3.245,7.118-8.054,9.557-12.65a63.445,63.445,0,0,0,3.285-7.255,37.989,37.989,0,0,0-2.453-4.972,58.934,58.934,0,0,0-15.141-16.514c-5.179-3.988-10.8-7.431-16.8-9.3-11.585-3.62-24.591-2.13-35.775,2.4a46.786,46.786,0,0,0-15.14,9.682A63.214,63.214,0,0,0,380.5,659.482C381.993,664.55,383.3,669.717,385.6,674.493Z" transform="translate(-376.921 -628.859)" fill="#bab5a4"/>
    <path id="Path_38386" data-name="Path 38386" d="M368.488,873.976l0-.016.015.057Z" transform="translate(-368.484 -800.95)" fill="#bab5a4"/>
  </g>
  <g id="Group_330" data-name="Group 330" transform="translate(24.249 32.646)">
    <path id="Path_38387" data-name="Path 38387" d="M386.752,286.786a77.231,77.231,0,0,0-22.067-9.328,20.667,20.667,0,0,1,4.342-.12,1.383,1.383,0,0,0,1.424-1.906c-2.155-6.871-9.7-9.231-16.351-11.039a38.548,38.548,0,0,0,5.208-1.783,1.353,1.353,0,0,0,.246-2.331c-5.149-3.564-11.022-3.023-16.913-3.132a4.248,4.248,0,0,0,1.209-1.494c.744-1.7-.756-3-2.129-3.778-3.865-2.176-9.045-.382-13.044.552-8.476,1.98-19.732,3.646-24.516,11.719-10.222-11.043-28.054-5.317-40.412-.01a1.358,1.358,0,0,0,.065,2.5,26.468,26.468,0,0,1,7.237,4.274c-2.309,2.114-5.573,3.095-8.47,4.188-3.248,1.226-6.479,2.58-8.972,5.023a1.357,1.357,0,0,0,.372,2.312,66.942,66.942,0,0,0,7.657,1.976c-3.077,2.208-7.013,3.485-10.01,5.774a111.907,111.907,0,0,0-12.453,10.74,79.486,79.486,0,0,0-16.412,24.395,1.379,1.379,0,0,0,1.509,1.833c2.447-.275,4.752-2.392,7.212-2.111,2.367.27,2.227,2.718,2.058,4.515-.382,4.063-1.084,7.89-.954,12,.263,8.319,1.75,18.577,7.978,24.818a1.42,1.42,0,0,0,2.457-.7,15.614,15.614,0,0,1,4.156-8.1c1.366,6.766,1.223,13.778,3.246,20.425,2.362,7.762,8.16,13.318,12.326,20.107a1.413,1.413,0,0,0,2.647-.405c.233-1.282.305-2.585.425-3.88,2.639,6.261,5.085,15.718,12.744,14.316a1.411,1.411,0,0,0,1.165-1.186,24.042,24.042,0,0,1,.583-3.742,68.748,68.748,0,0,1,3.621,5.922,36.859,36.859,0,0,0,4.791,6.393c4.029,4.367,8.576,8.238,12.965,12.248a82.747,82.747,0,0,1,9.526,10.311c2.018,2.577,4.458,5.841,7.951,6.447a1.4,1.4,0,0,0,1.451-.852c2.517-7.12,4.954-14.364,9.137-20.737a25.666,25.666,0,0,1,1.93,2.365,1.432,1.432,0,0,0,1.649.378c3.717-1.567,6.143-5.526,8.056-8.806a79.352,79.352,0,0,0,4.67-9.475c.768,1.005,1.468,2.062,2.295,3.032a1.462,1.462,0,0,0,1.649.378c9.988-3.424,14.909-15.032,16.752-24.809,2.05,2.879,3.051,6.93,4.2,9.962a1.4,1.4,0,0,0,1.482.78c8.882-1.761,16.6-10.1,20.485-17.709,4.3-8.411,2.894-17.766,1.426-26.739a85.851,85.851,0,0,1,4.727,8.8c.421.808,1.849,1.2,2.389.24a43.348,43.348,0,0,0,4.406-31.837c-2.442-10.142-7.828-19.4-14.62-27.376,2.282-.153,5.583,1.622,7.486,1.815a1.418,1.418,0,0,0,1.538-1.194C401.765,295.63,391.844,289.83,386.752,286.786Z" transform="translate(-222.663 -250.844)" fill="#4f453e"/>
    <path id="Path_38388" data-name="Path 38388" d="M446.717,401.992a73.005,73.005,0,0,1-13.561-2.366c-3.895-1.068-7.692-2.645-11.769-2.835A29.119,29.119,0,0,0,411,398.636c-3.866,1.268-7.632,2.616-11.708,3.042a25.43,25.43,0,0,1-11.838-1.37c-3.651-1.416-6.964-3.671-10.579-5.2-2.24-.949-8.45-3.782-9.546.013a.82.82,0,0,1-.792.634c-.422,3.8.976,7.193,2.878,10.488,1.611,2.79,3.521,5.533,4.292,8.708.91,3.748-.527,7.162-2.216,10.464-3.927,7.679-10.2,14.2-10.727,23.169a1,1,0,0,1,.186.355,54.678,54.678,0,0,0,2.777,6.45,17.5,17.5,0,0,1,1.361,4.8.988.988,0,0,1,.627.869,27.372,27.372,0,0,0,4.164,13.136,58.889,58.889,0,0,0,8.493,9.769c2.924,2.906,5.62,5.942,8.264,9.1a74.976,74.976,0,0,0,8.615,9.194c3.2,2.725,7.4,5.619,11.795,4.548a34.161,34.161,0,0,0,6.682-2.909c2.131-1.04,4.219-2.18,6.255-3.4,7.783-4.643,14.582-10.84,20.959-17.239,4.535-4.55,8.72-9.707,10.988-15.691a.961.961,0,0,1-.1-.447c.088-13.1,9.422-26.493,2.246-39.118a11.191,11.191,0,0,1-2.941-4.174,6.766,6.766,0,0,1,1.186-6.421c1.568-1.991,4.026-3.088,5-5.544.979-2.473.959-5.228,1.151-7.843a1.01,1.01,0,0,1,.055-.257C454.548,403.471,450.7,402.309,446.717,401.992Z" transform="translate(-318.948 -352.491)" fill="#3d3530"/>
    <path id="Path_38389" data-name="Path 38389" d="M295.725,604.281a103.826,103.826,0,0,1,1.473-12.675c.649-3.434,1.429-6.846,1.918-10.305-4.8,5.58-9.709,11.7-10.089,19.186a1.48,1.48,0,0,0,.438-.821,16.023,16.023,0,0,1,4.124-8.236c.992,5.037,1.185,10.208,2,15.269C295.631,605.892,295.674,605.086,295.725,604.281Z" transform="translate(-269.259 -484.775)" fill="#3d3530"/>
    <path id="Path_38390" data-name="Path 38390" d="M359.841,666.51a26.651,26.651,0,0,0-3.107,12.137c-.178,4.768.293,9.53.23,14.3a1.356,1.356,0,0,0,2.216-.872c.231-1.3.3-2.63.422-3.947.484,1.177.962,2.467,1.467,3.776A152.413,152.413,0,0,1,359.841,666.51Z" transform="translate(-316.454 -545.113)" fill="#3d3530"/>
    <path id="Path_38391" data-name="Path 38391" d="M412.1,736.841c-1.534-3.963-2.6-8.105-3.776-12.183-1.069-3.7-2.151-7.391-3.323-11.057-2.962,6.913-1.6,14.862-1.3,22.284a8.158,8.158,0,0,0,1.144-.133,1.419,1.419,0,0,0,1.156-1.206,25.022,25.022,0,0,1,.579-3.806c1.358,1.9,2.424,3.981,3.594,6.024a37.452,37.452,0,0,0,4.754,6.5c.128.142.26.279.389.419A57.964,57.964,0,0,1,412.1,736.841Z" transform="translate(-348.931 -579.086)" fill="#3d3530"/>
    <path id="Path_38392" data-name="Path 38392" d="M558.334,792.463a83.569,83.569,0,0,0,3.553-11.574,90.647,90.647,0,0,0,1.687-10.048c-2.6,6.82-6.635,12.972-9.523,19.662-1.729,4.006-2.061,8.317-3.315,12.451-.942,3.107-2.908,6.362-3.089,9.694a1.269,1.269,0,0,0,.406-.555c2.5-7.242,4.917-14.611,9.067-21.093C557.552,791.464,557.949,791.958,558.334,792.463Z" transform="translate(-450.027 -619.275)" fill="#3d3530"/>
    <path id="Path_38393" data-name="Path 38393" d="M693.1,648.449c.4,4.584,1.077,9.154.87,13.781-.235,5.258-1.048,10.467-1.414,15.712a52.417,52.417,0,0,0,3.027-10.447c2.034,2.928,3.028,7.049,4.173,10.133a1.171,1.171,0,0,0,.4.514C699.044,668.052,696.191,658.171,693.1,648.449Z" transform="translate(-551.462 -532.368)" fill="#3d3530"/>
    <path id="Path_38394" data-name="Path 38394" d="M332.485,360.722c1.25-.461,3.471-1.219,4.216-2.592-5.208-1.073-10.562-.98-15.864-.952a1.21,1.21,0,0,0,.62.447,65.123,65.123,0,0,0,7.6,2.01c-3.054,2.246-6.96,3.545-9.933,5.873l-.018.014c2.554-1.063,5.142-2.039,7.675-3.014C328.639,361.794,330.614,361.412,332.485,360.722Z" transform="translate(-290.133 -326.052)" fill="#3d3530"/>
    <path id="Path_38395" data-name="Path 38395" d="M378.545,307.046a50.914,50.914,0,0,0-10.228-3.415,50.048,50.048,0,0,0-11.066-1.388A1.309,1.309,0,0,0,358,303a26.133,26.133,0,0,1,7.182,4.348,18.979,18.979,0,0,1-6.424,3.512C365.614,310.775,372.549,310.142,378.545,307.046Z" transform="translate(-316.811 -286.932)" fill="#3d3530"/>
    <path id="Path_38396" data-name="Path 38396" d="M585.526,267.987c8.095.632,15.993-1.653,23.965-3.106-4.115-1.444-8.548-1.148-12.991-1.232a4.3,4.3,0,0,0,1.2-1.52,2.217,2.217,0,0,0-.209-2.182,27.392,27.392,0,0,0-5.715,2.841A25.373,25.373,0,0,0,585.526,267.987Z" transform="translate(-476.481 -257.235)" fill="#3d3530"/>
    <path id="Path_38397" data-name="Path 38397" d="M627.476,296.409c6.519.435,13.052.631,19.582.866a43.135,43.135,0,0,0-9.732-3.652c1.482-.489,3.011-.87,4.446-1.482C636.773,292.108,632.083,294.382,627.476,296.409Z" transform="translate(-505.853 -279.839)" fill="#3d3530"/>
    <path id="Path_38398" data-name="Path 38398" d="M657.606,338.5c4.142.334,8.264.856,12.4,1.3q3.584.388,7.173.734a67.212,67.212,0,0,0-14.164-5.205,20.016,20.016,0,0,1,4.309-.122,1.4,1.4,0,0,0,1.413-1.938c-.069-.223-.144-.441-.223-.655-6.654.19-13.067,1.772-19.413,3.695C651.533,337.966,654.723,338.265,657.606,338.5Z" transform="translate(-520.918 -308.256)" fill="#3d3530"/>
    <path id="Path_38399" data-name="Path 38399" d="M760.974,416.223c-5.781-5.146-14.847-7.582-22.151-5.166,5.576,2.575,11.7,4.391,16.73,7.844q-1.525-2.082-3.173-4.063c2.264-.156,5.54,1.65,7.429,1.847A1.321,1.321,0,0,0,760.974,416.223Z" transform="translate(-583.663 -363.513)" fill="#3d3530"/>
    <path id="Path_38400" data-name="Path 38400" d="M769.015,536.815a63.405,63.405,0,0,0-8.23-18.223,47.757,47.757,0,0,0-5.566-7.217,15.439,15.439,0,0,0-3.549-2.953q2.325,3.786,4.382,7.728a103.108,103.108,0,0,1,9.111,23.275c-.211-1.517-.448-3.03-.688-4.532a88.051,88.051,0,0,1,4.691,8.953,1.611,1.611,0,0,0,1.45.811A74.634,74.634,0,0,0,769.015,536.815Z" transform="translate(-592.682 -433.284)" fill="#3d3530"/>
    <path id="Path_38401" data-name="Path 38401" d="M626.31,737.6c-.916,7-2.858,13.9-2.857,20.992,1.123-2.2,2.144-4.449,3.073-6.735.569.763,1.1,1.556,1.675,2.319A115.746,115.746,0,0,0,626.31,737.6Z" transform="translate(-503.124 -595.349)" fill="#3d3530"/>
    <path id="Path_38402" data-name="Path 38402" d="M233.81,498.945a45.449,45.449,0,0,1,4.1-11.7c1.647-3.356,3.434-6.642,4.769-10.134a39.141,39.141,0,0,0-11.274,3.377,54.036,54.036,0,0,0-8.566,4.788c-.026.063-.054.126-.08.189a1.393,1.393,0,0,0,1.5,1.865c2.428-.28,4.715-2.433,7.157-2.147,2.349.275,2.21,2.764,2.043,4.592-.379,4.132-1.076,8.026-.947,12.208.049,1.573.139,3.215.294,4.886A70.238,70.238,0,0,1,233.81,498.945Z" transform="translate(-222.663 -411.054)" fill="#3d3530"/>
    <path id="Path_38403" data-name="Path 38403" d="M455.857,413.652c-2.129-1.759-4.54-2.566-7-3.729-2.6-1.23-3.719-3.272-4.6-5.919a60.777,60.777,0,0,1-1.981-8.563c5.681-.424,11.278-3.612,13.937-8.731,2.719-5.234,1.855-12.657-3.161-16.242-5.831-4.168-16.608-2.639-20.17,3.586-.27-.266-.545-.528-.828-.78-7.846-6.991-18.876-6.8-28.621-4.807a41.923,41.923,0,0,0-15.333,6.424c-3.374-8.182-16.277-13.361-23.345-7.475-4.3,3.578-5.468,10.075-2.213,14.671,2.928,4.134,7.949,6.417,12.671,8.063-3.326,7.167-4.561,15.263-4.529,23.146-4.362,1.632-8.8,3.138-11.872,6.867-3.654,4.431-5.352,10.507-3.422,16.047,2.054,5.9,6.97,10.007,11.614,13.881,2.381,1.986,4.786,3.947,7.009,6.11,2.42,2.354,4.444,5.032,6.655,7.573,4,4.6,8.656,8.7,14.453,10.822a28.332,28.332,0,0,0,16.734.607c5.849-1.538,10.036-4.958,14.509-8.829a180.262,180.262,0,0,1,15.019-11.729c8.859-6.16,20.19-13.355,21.125-25.3A18.987,18.987,0,0,0,455.857,413.652Z" transform="translate(-314.554 -332.236)" fill="#e3dcc8"/>
    <path id="Path_38404" data-name="Path 38404" d="M481.048,547.711a18.194,18.194,0,0,0-6.486-13,32.051,32.051,0,0,0-30.916-5.936c-15.08,5.059-20.611,16.253-16.981,31.257.849,3.51,2.669,6.708,4.206,9.955a123.476,123.476,0,0,1,5.612,13.643,29.672,29.672,0,0,0,8.493,4.9,28.7,28.7,0,0,0,16.734.6,29.475,29.475,0,0,0,10.9-5.738c.153-.717.3-1.433.44-2.143C475.057,571.084,481.82,558.546,481.048,547.711Z" transform="translate(-364.475 -446.867)" fill="#f5edd8"/>
    <path id="Path_38405" data-name="Path 38405" d="M473,524.983c-.612.008-1.164.021-1.642.033-6.533.169-13.82.085-19.386,4.01-5.062,3.57-.183,10.877,3.367,13.439,3.634,2.623,8.006,3.963,12.181,5.443,2.862,1.014,5.945-.39,8.6-1.407,5.344-2.047,13.741-5.082,15.994-10.95C495.975,525.49,480.294,524.89,473,524.983Z" transform="translate(-381.457 -444.882)" fill="#61554c"/>
    <path id="Path_38406" data-name="Path 38406" d="M474.456,532.725c.381,2.042,3.34,3.152,5.05,3.717,5.236,1.731,11.792,1.421,17.035-.157,1.78-.536,5.512-1.842,5.444-4.174a1.431,1.431,0,0,0-.874-1.171c-1.729-.819-4.359-.751-6.238-.858-2.273-.13-4.552-.11-6.826-.031a68.684,68.684,0,0,0-11.88,1.1,2.493,2.493,0,0,0-1.465.689A1.031,1.031,0,0,0,474.456,532.725Z" transform="translate(-398.761 -448.299)" fill="#706258"/>
    <path id="Path_38407" data-name="Path 38407" d="M492.714,546.959c-5.029,6.554-14.923,9.855-22.852,9.483-6.949-.326-16.375-3.906-19.674-10.594-1.6,3.811,2.233,9.158,5.163,11.273,3.634,2.623,8.006,3.963,12.181,5.443a6.452,6.452,0,0,0,2.463.344c.012,2.846.04,5.691,0,8.537-.036,2.4-.05,4.818-.2,7.209a9.884,9.884,0,0,1-1.31,4.745,6.22,6.22,0,0,1-6.46,2.777,11.178,11.178,0,0,1-2.762-1.024,5.714,5.714,0,0,1-2.041-1.3c-.568-.709-1.767.06-1.194.775a9.086,9.086,0,0,0,2.684,1.848,7.919,7.919,0,0,0,6.166,1.126,8.176,8.176,0,0,0,4.78-3.276,8.446,8.446,0,0,0,.957-2.024c-.115.351.616,1.438.8,1.74a7.377,7.377,0,0,0,1.235,1.55c2.931,2.791,8.916,3.3,12,.439a5.271,5.271,0,0,0,1.61-3.067c.142-.9-1.249-1.2-1.392-.3-.605,3.841-5.258,4.312-8.313,3.442-3.171-.9-4.75-3.595-5.076-6.781-.317-3.1.16-6.171.027-9.249-.057-1.318-.088-2.639-.127-3.958-.008-.263-.231-3.334.034-3.386a29.536,29.536,0,0,0,4.718-1.573c5.344-2.047,13.741-5.082,15.993-10.95A7.809,7.809,0,0,0,492.714,546.959Z" transform="translate(-381.469 -459.861)" fill="#4f453e"/>
    <path id="Path_38408" data-name="Path 38408" d="M637.531,399.222c-2.69-.135-5.635.841-6.674,3.01-1.13,2.358-.209,5.15.505,7.488.59,1.928,1.661,4.721,3.992,5,2.855.341,5.879-2.286,7.478-4.379a7.156,7.156,0,0,0-1.306-9.787A6.9,6.9,0,0,0,637.531,399.222Z" transform="translate(-507.883 -355.826)" fill="#4f453e"/>
    <path id="Path_38409" data-name="Path 38409" d="M409.052,387.234c-2.765-3.042-7.36-5.019-11.081-2.374a7.483,7.483,0,0,0-.916,11.3c1.45,1.373,3.267,2.854,5.354,3.147,2.231.313,3.645-1.456,4.68-3.168.555-.917,1.024-1.889,1.618-2.782.637-.957,1.737-1.7,2.028-2.848C411.085,389.128,410.08,388.008,409.052,387.234Z" transform="translate(-343.156 -344.798)" fill="#4f453e"/>
    <path id="Path_38410" data-name="Path 38410" d="M633.412,403.723c2.386-2.911,6.321-3.021,9.551-1.573a7.453,7.453,0,0,0-1.436-1.6,6.9,6.9,0,0,0-4-1.332,8.492,8.492,0,0,0-5.247,1.354.9.9,0,0,1-.4.416c-.057.028-.116.05-.175.074a4.154,4.154,0,0,0-.848,1.166c-1,2.092-.391,4.526.259,6.681A11.88,11.88,0,0,1,633.412,403.723Z" transform="translate(-507.89 -355.8)" fill="#3d3530"/>
    <path id="Path_38411" data-name="Path 38411" d="M412.17,387.234c-2.765-3.042-7.36-5.019-11.081-2.374a7.113,7.113,0,0,0-1.757,1.8,9.315,9.315,0,0,1,3.6-1.163,6.094,6.094,0,0,1,6.053,2.767,12.122,12.122,0,0,1,1.476,7.44c.449-.785.863-1.591,1.364-2.344.637-.957,1.737-1.7,2.028-2.848C414.2,389.128,413.2,388.008,412.17,387.234Z" transform="translate(-346.266 -344.784)" fill="#3d3530"/>
    <g id="Group_310" data-name="Group 310" transform="translate(50.785 69.404)">
      <g id="Group_309" data-name="Group 309">
        <g id="Group_307" data-name="Group 307" transform="translate(15.557)">
          <path id="Path_38412" data-name="Path 38412" d="M450.622,491.343a3.474,3.474,0,0,0-4.183-2.821c-3.2.636-3.745,3.378-3.218,5.546.265,1.09,1.94,4.876,3.694,4.833C449.249,498.843,450.965,492.776,450.622,491.343Z" transform="translate(-443.045 -488.439)" fill="#4f4949"/>
          <path id="Path_38413" data-name="Path 38413" d="M449.232,492.927c-.8-.214-1.377.5-1.61,1.081a2.28,2.28,0,0,0,.1,1.911c.019.041.039.082.063.122.011.02.019.039.03.058a.453.453,0,0,0,.077.1,1.4,1.4,0,0,0,.113.13.554.554,0,0,0,.518.086c.41-.171.432-.429.531-.79a5.026,5.026,0,0,1,.529-1.092C449.881,493.992,450.083,493.154,449.232,492.927Z" transform="translate(-446.143 -491.563)" fill="#fff"/>
          <path id="Path_38414" data-name="Path 38414" d="M450.5,508.1a.465.465,0,1,0,.06.925A.465.465,0,1,0,450.5,508.1Z" transform="translate(-447.947 -502.244)" fill="#fff"/>
        </g>
        <g id="Group_308" data-name="Group 308" transform="translate(60.903 0.459)">
          <path id="Path_38415" data-name="Path 38415" d="M602.849,492.882a3.475,3.475,0,0,0-4.183-2.821c-3.2.636-3.745,3.378-3.218,5.546.265,1.09,1.94,4.876,3.694,4.833C601.476,500.382,603.192,494.315,602.849,492.882Z" transform="translate(-595.272 -489.978)" fill="#4f4949"/>
          <path id="Path_38416" data-name="Path 38416" d="M601.459,494.466c-.8-.214-1.377.5-1.61,1.081a2.281,2.281,0,0,0,.1,1.911c.019.041.04.082.063.122.011.019.019.039.03.058a.442.442,0,0,0,.077.1,1.4,1.4,0,0,0,.113.13.554.554,0,0,0,.518.086c.41-.171.432-.429.531-.79a5.033,5.033,0,0,1,.529-1.092C602.108,495.532,602.31,494.693,601.459,494.466Z" transform="translate(-598.37 -493.102)" fill="#fff"/>
          <path id="Path_38417" data-name="Path 38417" d="M602.731,509.643a.465.465,0,1,0,.06.925A.465.465,0,1,0,602.731,509.643Z" transform="translate(-600.174 -503.784)" fill="#fff"/>
        </g>
        <path id="Path_38418" data-name="Path 38418" d="M401.443,536.955c-2.575-4.307-8.242-1.736-10.054,1.915C387.083,547.545,408.79,549.244,401.443,536.955Z" transform="translate(-390.818 -520.924)" fill="#f0bcbd"/>
        <path id="Path_38419" data-name="Path 38419" d="M634.978,537.639c-2.575-4.307-8.241-1.736-10.054,1.915C620.618,548.228,642.325,549.928,634.978,537.639Z" transform="translate(-554.788 -521.404)" fill="#f0bcbd"/>
      </g>
    </g>
    <g id="Group_311" data-name="Group 311" transform="translate(55.54 19.569)">
      <path id="Path_38420" data-name="Path 38420" d="M407.482,325.656c-.273-.434.248-1.368,1.375-2.609a17.309,17.309,0,0,1,2.222-2.022,16.192,16.192,0,0,1,3.391-2.011,29.886,29.886,0,0,1,8.341-2.2,37.435,37.435,0,0,1,4.194-.276c.669-.01,1.34.006,1.917.021.609.017,1.232.048,1.845.1a11.688,11.688,0,0,1,4.663,1.295,5.58,5.58,0,0,1,2.4,2.389,2.889,2.889,0,0,1,.263,1.061,1.9,1.9,0,0,1-.173.819,2.62,2.62,0,0,1-1.029,1.057,6.156,6.156,0,0,1-1.329.649c-.222.078-.436.138-.648.19s-.427.1-.631.144a4.908,4.908,0,0,1-1.382.1c-.591-.03-1.435-.136-2.8-.257l-1.554-.12-1.739-.128c-1.165-.081-2.384-.145-3.614-.168a45.151,45.151,0,0,0-7.193.377,38.443,38.443,0,0,0-5.607,1.441C408.849,325.965,407.758,326.1,407.482,325.656Z" transform="translate(-407.41 -316.537)" fill="#574c44"/>
    </g>
    <g id="Group_312" data-name="Group 312" transform="translate(82.944 28.974)">
      <path id="Path_38421" data-name="Path 38421" d="M499.665,383.548c-.233-.12-.308-.529-.309-1.138s.018-1.443-.013-2.456-.126-2.217-.279-3.622-.348-3.014-.4-4.875q0-.353,0-.711c0-.244.021-.528.033-.794s.052-.536.08-.807.079-.535.126-.8a18,18,0,0,1,.882-3.11,24,24,0,0,1,1.325-2.876c.5-.918,1.021-1.773,1.589-2.622a27.43,27.43,0,0,1,3.935-4.649,21.266,21.266,0,0,1,4.68-3.375,14.467,14.467,0,0,1,3.5-1.3,11.091,11.091,0,0,1,3.086-.26,8.4,8.4,0,0,1,2.357.462q.243.088.462.178c.145.064.281.135.41.2a4.38,4.38,0,0,1,.679.423,3.449,3.449,0,0,1,.861.876,2.075,2.075,0,0,1,.341.835,2.352,2.352,0,0,1-.283,1.471,3.453,3.453,0,0,1-.917,1.181,3.658,3.658,0,0,1-.656.41,5.968,5.968,0,0,1-.806.31c-.074.022-.148.041-.225.061s-.157.048-.237.069-.163.039-.246.057-.172.047-.26.068c-.353.078-.738.171-1.173.283a15.414,15.414,0,0,0-3.446,1.309,18.558,18.558,0,0,0-3.25,2.2,26.32,26.32,0,0,0-3.282,3.292c-.524.629-1.049,1.3-1.519,1.956a22.215,22.215,0,0,0-1.279,1.992,14.586,14.586,0,0,0-.942,1.989l-.174.492-.145.489c-.038.167-.083.313-.121.5l-.11.57c-.273,1.536-.448,3.149-.7,4.653a19.93,19.93,0,0,1-1.043,4.028,8.1,8.1,0,0,1-1.45,2.473C500.269,383.482,499.89,383.665,499.665,383.548Z" transform="translate(-498.664 -350.134)" fill="#4f453e"/>
    </g>
    <g id="Group_313" data-name="Group 313" transform="translate(73.807 29.513)">
      <path id="Path_38422" data-name="Path 38422" d="M469.784,383.515c-.254.027-.535-.234-.8-.776a7.27,7.27,0,0,1-.581-2.4,16.776,16.776,0,0,1,.11-3.612c.17-1.333.468-2.76.8-4.194a65.971,65.971,0,0,1,2.71-9.217c.3-.782.631-1.556.978-2.313s.694-1.451,1.062-2.157a33.625,33.625,0,0,1,2.353-3.9,14.4,14.4,0,0,1,3.832-3.849,6.576,6.576,0,0,1,3.723-1.174,4.048,4.048,0,0,1,.721.1,3.2,3.2,0,0,1,.576.211,1.862,1.862,0,0,1,.719.623,2.066,2.066,0,0,1,.23,1.478,7.573,7.573,0,0,1-.367,1.43l-.211.634-.186.6a4.535,4.535,0,0,1-.8,1.4c-.47.63-1.189,1.546-2.137,2.879-.647.909-1.344,1.981-2.067,3.162-.357.583-.745,1.236-1.1,1.83-.355.613-.707,1.248-1.056,1.9-1.4,2.606-2.706,5.481-4,8.131-.648,1.315-1.251,2.494-1.76,3.562s-.919,2.018-1.245,2.836-.574,1.5-.8,1.993S470.043,383.488,469.784,383.515Z" transform="translate(-468.346 -349.92)" fill="#4f453e"/>
    </g>
    <g id="Group_314" data-name="Group 314" transform="translate(101.18 30.192)">
      <path id="Path_38423" data-name="Path 38423" d="M579.314,380.265c-.257.028-.544-.192-.85-.6a6.5,6.5,0,0,1-.472-.746q-.121-.218-.243-.466c-.084-.164-.189-.334-.284-.514-.2-.359-.4-.75-.6-1.169-.093-.212-.223-.42-.34-.638l-.362-.668c-.125-.227-.235-.465-.371-.7l-.427-.706-.427-.73c-.147-.245-.323-.481-.482-.727a31.857,31.857,0,0,0-4.693-5.618,38.867,38.867,0,0,0-5.363-4.209q-.46-.3-.861-.583c-.269-.189-.539-.345-.781-.515-.489-.331-.9-.665-1.28-.939a7.7,7.7,0,0,1-.942-.844,5.645,5.645,0,0,1-.641-.773,3.023,3.023,0,0,1-.2-2.95,2.629,2.629,0,0,1,2.266-1.918,4.47,4.47,0,0,1,1.149,0,9.959,9.959,0,0,1,1.464.33,11.1,11.1,0,0,1,1.808.727c.329.162.683.325,1.038.535s.724.445,1.111.7a27.99,27.99,0,0,1,6.351,5.83l.722.919.658.974c.214.327.438.646.637.98l.568,1.018c.181.341.381.667.536,1.016l.464,1.035.223.51a5.218,5.218,0,0,1,.2.512l.352,1.024c.109.338.231.665.318,1l.238.986.213.945c.061.31.093.62.135.917l.1.868a7.438,7.438,0,0,1,.064.817c.011.531.009,1.021-.006,1.466-.01.223-.013.433-.039.634s-.058.391-.091.568a6.3,6.3,0,0,1-.229.9C579.784,379.96,579.57,380.236,579.314,380.265Z" transform="translate(-559.409 -354.215)" fill="#4f453e"/>
    </g>
    <g id="Group_315" data-name="Group 315" transform="translate(108.173 31.268)">
      <path id="Path_38424" data-name="Path 38424" d="M596.754,378.466a7.438,7.438,0,0,0-.064-.817l-.1-.868c-.042-.3-.074-.607-.135-.917l-.213-.945-.238-.986c-.088-.333-.209-.659-.318-1l-.352-1.025a5.243,5.243,0,0,0-.2-.512l-.223-.51-.464-1.035c-.155-.349-.355-.675-.536-1.016l-.568-1.017c-.2-.335-.423-.653-.637-.981l-.658-.974-.722-.919a27.989,27.989,0,0,0-6.351-5.83q-.58-.377-1.111-.7c-.355-.211-.709-.373-1.038-.535l0,0c.913,1.225,1.885,2.416,2.673,3.721,1.667,2.759,3.452,5.48,4.869,8.379a35.554,35.554,0,0,1,2.73,8.946,4.608,4.608,0,0,1,.217.416c.2.419.4.811.6,1.169.095.18.2.349.284.514s.163.32.243.466a6.525,6.525,0,0,0,.472.746c.306.408.593.628.85.6s.471-.3.644-.8a6.347,6.347,0,0,0,.229-.9q.05-.265.091-.568c.026-.2.029-.411.039-.634C596.763,379.487,596.765,379,596.754,378.466Z" transform="translate(-582.811 -357.883)" fill="#574c44"/>
    </g>
    <g id="Group_316" data-name="Group 316" transform="translate(18.155 57.424)">
      <path id="Path_38425" data-name="Path 38425" d="M285.284,484c-.495.039-1.142-1.324-1.481-3.724a22.267,22.267,0,0,1-.158-4.271,28.547,28.547,0,0,1,.769-5.286,32.755,32.755,0,0,1,1.944-5.7c.424-.951.9-1.892,1.418-2.813.251-.466.541-.909.813-1.363.134-.226.285-.451.435-.676s.3-.447.459-.666a32.564,32.564,0,0,1,4.079-4.675,50.482,50.482,0,0,1,4.086-3.478,25.212,25.212,0,0,1,2.791-1.9,14.473,14.473,0,0,1,2.637-1.218,7.906,7.906,0,0,1,4.294-.387,5.65,5.65,0,0,1,.732.236,3.527,3.527,0,0,1,.57.323,2.181,2.181,0,0,1,.4.35,2.018,2.018,0,0,1,.263.386,1.959,1.959,0,0,1,.07,1.5,4.522,4.522,0,0,1-.642,1.353c-.069.1-.14.2-.213.287s-.155.2-.236.289-.163.182-.248.267-.186.194-.283.28a8.508,8.508,0,0,1-.719.59c-.069.045-.148.109-.23.17s-.165.118-.253.175-.186.138-.285.205l-.151.1-.162.117c-.436.3-.961.674-1.583,1.133s-1.337,1-2.2,1.665c-1.192.918-2.47,1.907-3.718,2.973a34,34,0,0,0-3.569,3.486c-.138.158-.277.316-.409.48s-.27.322-.4.5c-.26.346-.543.68-.793,1.037-.516.7-1.009,1.426-1.472,2.161a37.77,37.77,0,0,0-2.416,4.491,39.248,39.248,0,0,0-1.667,4.333c-.441,1.364-.785,2.62-1.052,3.69C286.163,482.561,285.817,483.964,285.284,484Z" transform="translate(-283.61 -447.698)" fill="#574c44"/>
    </g>
    <g id="Group_317" data-name="Group 317" transform="translate(147.315 56.875)">
      <path id="Path_38426" data-name="Path 38426" d="M746.38,482.859c-.485.183-1.494-1.132-2.822-3.382s-2.979-5.423-5.009-8.731c-.513-.823-1.04-1.662-1.606-2.484-.273-.423-.579-.8-.867-1.21l-.437-.6c-.145-.2-.312-.39-.466-.587a37.26,37.26,0,0,0-4.067-4.411c-.711-.692-1.483-1.3-2.216-1.931-.776-.577-1.513-1.175-2.29-1.68-.748-.545-1.534-.991-2.265-1.461l-1.116-.627-.54-.306c-.181-.1-.364-.182-.542-.273l-.759-.387-.363-.19c-.12-.061-.242-.112-.361-.169q-.713-.331-1.34-.648c-.428-.191-.832-.37-1.208-.551l-.546-.268-.521-.233a18.317,18.317,0,0,1-3.014-1.67,2.8,2.8,0,0,1-1.487-2.989c.175-1.017.709-1.866,2.63-2.174a12.365,12.365,0,0,1,3.981.273l.671.141.7.2c.482.142.995.3,1.535.478q.8.305,1.683.672c.147.063.3.122.448.19l.45.219.933.464c.217.111.438.219.658.337l.655.378c.44.258.892.515,1.342.793.879.591,1.806,1.177,2.686,1.878.908.662,1.765,1.433,2.646,2.2.838.814,1.7,1.625,2.481,2.525a36.331,36.331,0,0,1,4.25,5.716c.151.252.314.495.453.752l.416.767c.268.511.561,1.014.794,1.52.5,1.005.927,2.008,1.328,2.987a57.1,57.1,0,0,1,3,10.068C746.779,481.034,746.861,482.677,746.38,482.859Z" transform="translate(-712.488 -445.836)" fill="#574c44"/>
    </g>
    <g id="Group_318" data-name="Group 318" transform="translate(151.578 84.753)">
      <path id="Path_38427" data-name="Path 38427" d="M739.347,586.236c-.52-.068-.806-1.522-1.164-3.822l-.6-4.053c-.221-1.534-.468-3.232-.711-5.055-.245-1.84-.452-3.729-.76-5.531a27.48,27.48,0,0,0-1.336-5.106,55.669,55.669,0,0,0-4.449-9.129l-.8-1.33-.369-.612c-.141-.24-.306-.507-.432-.745a18.618,18.618,0,0,1-1.127-2.488,17.33,17.33,0,0,1-.54-1.719,9.178,9.178,0,0,1-.233-1.225,3.915,3.915,0,0,1,.143-1.738,3.16,3.16,0,0,1,.827-1.251,2.274,2.274,0,0,1,1.333-.7,3,3,0,0,1,2.032.662,7.614,7.614,0,0,1,1.25,1.122,16.023,16.023,0,0,1,1.281,1.632l1.288,1.89c.112.167.221.3.342.481l.469.679q.471.706.959,1.517a43.021,43.021,0,0,1,4.6,10.907,28.794,28.794,0,0,1,.929,6.559c.067,2.119-.035,4.1-.129,5.919-.1,1.839-.217,3.6-.392,5.2a38.2,38.2,0,0,1-.676,4.23C740.549,584.921,739.85,586.3,739.347,586.236Z" transform="translate(-726.797 -541.717)" fill="#574c44"/>
    </g>
    <g id="Group_319" data-name="Group 319" transform="translate(151.577 84.956)">
      <path id="Path_38428" data-name="Path 38428" d="M730.489,591.752c-.248-.1-.363-.539-.435-1.247s-.1-1.682-.167-2.886-.159-2.637-.265-4.29c-.051-.827-.1-1.708-.136-2.65-.023-.917-.047-1.869-.071-2.847-.089-3.856-.187-8.088-.463-12.115s-.708-7.878-1.209-11.045c-.354-2.313-.642-4.125-.8-5.582a16.068,16.068,0,0,1-.092-3.414,3.013,3.013,0,0,1,1.9-2.831c.963-.392,1.969-.4,3.115.987a11.6,11.6,0,0,1,1.731,3.291,31.652,31.652,0,0,1,1.521,6.184,70.026,70.026,0,0,1,.724,12.244,100.957,100.957,0,0,1-1.152,12.693q-.115.731-.228,1.442l-.23,1.357-.437,2.578a35.726,35.726,0,0,1-1.029,4.467,11.588,11.588,0,0,1-1.261,2.867C731.092,591.577,730.727,591.845,730.489,591.752Z" transform="translate(-726.795 -542.616)" fill="#574c44"/>
    </g>
    <g id="Group_320" data-name="Group 320" transform="translate(66.59 144.747)">
      <path id="Path_38429" data-name="Path 38429" d="M466.727,779.9c-.971.424-3.575-3.48-7.221-7.935-1.823-2.234-3.915-4.61-6.046-6.843l-.8-.832-.862-.924c-.561-.624-1.1-1.247-1.6-1.864-1.008-1.232-1.895-2.428-2.663-3.524A28.421,28.421,0,0,1,445.146,754a8.576,8.576,0,0,1-.854-2.618,2.766,2.766,0,0,1,1.243-2.8,2.65,2.65,0,0,1,3.056-.284,8.4,8.4,0,0,1,2.218,1.772,31.492,31.492,0,0,1,2.849,3.612c.734,1.048,1.519,2.188,2.35,3.354.415.584.845,1.169,1.283,1.76l1.438,1.882a54.635,54.635,0,0,1,5.236,8.44,36.17,36.17,0,0,1,2.765,7.352C467.185,778.425,467.193,779.7,466.727,779.9Z" transform="translate(-444.265 -747.95)" fill="#574c44"/>
    </g>
    <g id="Group_321" data-name="Group 321" transform="translate(65.369 144.764)">
      <path id="Path_38430" data-name="Path 38430" d="M451.778,773.616c-.514.09-1.13-.631-1.856-1.805s-1.586-2.805-2.564-4.605-2.064-3.781-3.128-5.72l-.792-1.444-.2-.365-.208-.4c-.138-.266-.263-.524-.39-.783-.492-1.023-.9-1.971-1.246-2.813a16.649,16.649,0,0,1-.953-2.94,4.7,4.7,0,0,1-.057-1.871,2.9,2.9,0,0,1,.621-1.287,4.71,4.71,0,0,1,1.123-.953,3.837,3.837,0,0,1,1.348-.585,2.352,2.352,0,0,1,1.516.231,4.917,4.917,0,0,1,1.673,1.509,13.83,13.83,0,0,1,1.647,3.056c.359.874.708,1.816,1.059,2.761l.548,1.448c.208.535.409,1.085.606,1.641a44.673,44.673,0,0,1,1.833,6.8,22.779,22.779,0,0,1,.4,5.663C452.633,772.621,452.28,773.528,451.778,773.616Z" transform="translate(-440.317 -748.006)" fill="#574c44"/>
    </g>
    <g id="Group_322" data-name="Group 322" transform="translate(130.038 123.147)">
      <path id="Path_38431" data-name="Path 38431" d="M656.715,701.055a.537.537,0,0,1-.379-.167,1.269,1.269,0,0,1-.182-.222,2.268,2.268,0,0,1-.158-.313,4.965,4.965,0,0,1-.253-2.045c.033-.839.2-1.777.316-2.667.014-.111.027-.222.036-.327s.02-.215.024-.316l.01-.158.016-.189q.016-.19.032-.383c.042-.513.086-1.046.13-1.595.085-1.094.167-2.242.231-3.4.03-.576.064-1.175.078-1.734l.006-.784q-.01-.4-.019-.79c-.086-2.109-.41-4.3-.608-6.269a16.592,16.592,0,0,1-.051-3.61,5.47,5.47,0,0,1,.676-2.225,2.741,2.741,0,0,1,2.623-1.271,3.182,3.182,0,0,1,2.661,1.093,5.347,5.347,0,0,1,.908,1.857,18.444,18.444,0,0,1,.621,3.393c.1,1.006.19,2.144.219,3.388a28.688,28.688,0,0,1-.168,3.988l-.149,1.052c-.06.352-.133.706-.2,1.056-.145.666-.309,1.284-.485,1.912-.352,1.247-.758,2.449-1.2,3.569-.219.559-.448,1.1-.682,1.612l-.366.777c-.067.144-.136.278-.205.405s-.138.253-.208.37a22.808,22.808,0,0,1-1.482,2.149c-.419.547-.735.972-1.015,1.3a2.979,2.979,0,0,1-.2.221,1.61,1.61,0,0,1-.19.171A.675.675,0,0,1,656.715,701.055Z" transform="translate(-655.732 -672.589)" fill="#574c44"/>
    </g>
    <g id="Group_323" data-name="Group 323" transform="translate(27.093 57.824)">
      <path id="Path_38432" data-name="Path 38432" d="M317.856,482.221c-.513.072-1.166-.99-1.922-2.793a33.848,33.848,0,0,1-1.159-3.275,28.45,28.45,0,0,1-.955-4.362,21.446,21.446,0,0,1-.075-5.291,20.7,20.7,0,0,1,1.42-5.487,22.927,22.927,0,0,1,2.671-4.773,23.469,23.469,0,0,1,3.3-3.657,16.524,16.524,0,0,1,4.411-2.886q.472-.2.891-.34t.8-.215a5.434,5.434,0,0,1,1.329-.148,3.874,3.874,0,0,1,.534.041,3.086,3.086,0,0,1,.461.117,2.325,2.325,0,0,1,.715.388,2.874,2.874,0,0,1,.835,1.227,3.407,3.407,0,0,1,.273,1.464,2.639,2.639,0,0,1-.158.756,4.076,4.076,0,0,1-.409.791,7.214,7.214,0,0,1-.7.853q-.211.227-.466.459c-.167.162-.346.332-.543.5-.779.694-1.787,1.5-3,2.569a22.671,22.671,0,0,0-4.724,5.788,17.969,17.969,0,0,0-1.559,3.692,21.2,21.2,0,0,0-.735,3.99c-.127,1.351-.168,2.692-.19,3.942s-.047,2.4-.11,3.379C318.681,480.911,318.366,482.15,317.856,482.221Z" transform="translate(-313.617 -448.993)" fill="#574c44"/>
    </g>
    <g id="Group_324" data-name="Group 324" transform="translate(28.01 105.431)">
      <path id="Path_38433" data-name="Path 38433" d="M324.1,641.774c-.465.207-1.314-.456-2.261-1.8a25.323,25.323,0,0,1-2.814-5.719c-.428-1.178-.819-2.44-1.158-3.743-.169-.651-.327-1.313-.466-1.981l-.1-.5-.095-.519q-.1-.52-.17-1.042a31.44,31.44,0,0,1-.17-7.8,15.1,15.1,0,0,1,.872-3.874,5.682,5.682,0,0,1,1.247-2.049,2.776,2.776,0,0,1,2.866-.615,3.006,3.006,0,0,1,2.29,1.789,6.016,6.016,0,0,1,.371,2.137,27.654,27.654,0,0,1-.209,3.4,61.428,61.428,0,0,0-.4,6.478q-.006.439.005.881l.005.444.014.46c.017.614.042,1.23.069,1.842.054,1.224.123,2.43.2,3.577.149,2.295.329,4.348.394,5.877S324.577,641.563,324.1,641.774Z" transform="translate(-316.694 -611.977)" fill="#574c44"/>
    </g>
    <g id="Group_325" data-name="Group 325" transform="translate(10.489 43.005)">
      <path id="Path_38434" data-name="Path 38434" d="M258.131,419.307c-.428-.291-.289-1.382.2-3.017a24.879,24.879,0,0,1,1.076-2.85,22.582,22.582,0,0,1,1.918-3.453,21.208,21.208,0,0,1,1.361-1.781c.244-.3.508-.578.773-.865s.521-.536.787-.807a35.066,35.066,0,0,1,7.093-5.476,32.474,32.474,0,0,1,3.624-1.812,16.318,16.318,0,0,1,4.252-1.181,8.651,8.651,0,0,1,1.519-.044,5.314,5.314,0,0,1,1.144.207,2.625,2.625,0,0,1,1.869,2.339,3.027,3.027,0,0,1-.772,2.834c-.834.883-2.377,1.624-5.133,2.748-.936.4-1.966.844-3.035,1.364s-2.18,1.1-3.295,1.738-2.222,1.333-3.3,2.051c-.262.18-.55.364-.791.536s-.495.34-.728.522c-.482.349-.931.724-1.376,1.1-1.749,1.5-3.253,3.22-4.522,4.385S258.557,419.6,258.131,419.307Z" transform="translate(-257.876 -398.003)" fill="#574c44"/>
    </g>
    <g id="Group_326" data-name="Group 326" transform="translate(70.989 28.05)">
      <path id="Path_38435" data-name="Path 38435" d="M459.44,370.951c-.5-.121-.694-1.52-.661-3.794a30.868,30.868,0,0,1,.346-4.058,23.2,23.2,0,0,1,1.36-5.138,17.707,17.707,0,0,1,3.4-5.4,20.582,20.582,0,0,1,2.467-2.225,23.1,23.1,0,0,1,2.751-1.785,27.215,27.215,0,0,1,5.747-2.324c.945-.27,1.874-.479,2.773-.647s1.785-.288,2.556-.38a19.4,19.4,0,0,1,6.063.1,8.079,8.079,0,0,1,3.725,1.668,5.374,5.374,0,0,1,.505.514,3.734,3.734,0,0,1,.341.52,2,2,0,0,1,.26.925,2.059,2.059,0,0,1-.561,1.391,4.282,4.282,0,0,1-1.134.975,5.323,5.323,0,0,1-.662.326c-.118.048-.237.091-.356.126s-.266.084-.4.116a15.236,15.236,0,0,1-2.313.3c-1.08.093-2.534.221-4.6.467-.737.088-1.429.168-2.158.283s-1.475.246-2.227.415a25.889,25.889,0,0,0-4.495,1.4,20.025,20.025,0,0,0-2.1,1.043,17.058,17.058,0,0,0-1.9,1.288,14.211,14.211,0,0,0-2.954,3.291,27.682,27.682,0,0,0-2.061,3.905c-.575,1.292-1.07,2.508-1.523,3.532C460.721,369.837,459.943,371.073,459.44,370.951Z" transform="translate(-458.775 -345.011)" fill="#4f453e"/>
    </g>
    <g id="Group_327" data-name="Group 327" transform="translate(70.973 28.05)">
      <path id="Path_38436" data-name="Path 38436" d="M459.44,370.951c.212.052.473-.141.772-.531a52.749,52.749,0,0,1,1.725-5.387,32.467,32.467,0,0,1,5.128-9.276,22.59,22.59,0,0,1,6.884-5.37c4.225-2.214,8.848-3.435,13.4-4.81a10.416,10.416,0,0,0-1.1-.283,19.4,19.4,0,0,0-6.063-.1c-.771.092-1.659.209-2.556.38s-1.828.377-2.773.647a27.215,27.215,0,0,0-5.747,2.324,23.1,23.1,0,0,0-2.751,1.785,20.582,20.582,0,0,0-2.467,2.225,17.707,17.707,0,0,0-3.4,5.4,23.2,23.2,0,0,0-1.36,5.138,30.868,30.868,0,0,0-.346,4.058C458.746,369.43,458.94,370.829,459.44,370.951Z" transform="translate(-458.775 -345.011)" fill="#574c44"/>
    </g>
    <g id="Group_328" data-name="Group 328" transform="translate(65.122 1.203)">
      <path id="Path_38437" data-name="Path 38437" d="M439.43,255.481c.175-.481,1.1-.68,2.514-.57a20.362,20.362,0,0,1,5.351,1.318,28.3,28.3,0,0,1,6.23,3.306,22.8,22.8,0,0,1,5.027,4.773,10.733,10.733,0,0,1,1.753,3.272c.07.236.128.457.17.669s.063.417.078.606a3.469,3.469,0,0,1-.063,1.01,2.289,2.289,0,0,1-.777,1.314,3.872,3.872,0,0,1-1.306.67,3.718,3.718,0,0,1-2.817,0,4.045,4.045,0,0,1-1.008-.686c-.115-.1-.236-.214-.353-.337a21.929,21.929,0,0,1-1.64-2.009,38.5,38.5,0,0,0-3.462-3.981c-1.385-1.4-2.959-2.782-4.449-4.015C441.709,258.345,439.081,256.465,439.43,255.481Z" transform="translate(-439.399 -254.881)" fill="#574c44"/>
    </g>
    <g id="Group_329" data-name="Group 329" transform="translate(82.892 30.785)">
      <path id="Path_38438" data-name="Path 38438" d="M499.063,380.672c.152,1.405.248,2.606.279,3.622s0,1.839.013,2.456.077,1.018.309,1.138.6-.066,1.085-.567a5.4,5.4,0,0,0,.467-.592,33.527,33.527,0,0,0,1.018-4.878c.537-3.927.465-7.906.961-11.831a21.058,21.058,0,0,1,7.637-13.705,21.623,21.623,0,0,0-4.2,3.111,27.431,27.431,0,0,0-3.935,4.649c-.568.848-1.092,1.7-1.589,2.622a24,24,0,0,0-1.325,2.876,18,18,0,0,0-.882,3.11c-.048.267-.086.537-.126.8s-.059.539-.08.807-.032.55-.033.794,0,.475,0,.711C498.715,377.658,498.917,379.266,499.063,380.672Z" transform="translate(-498.664 -356.314)" fill="#574c44"/>
    </g>
  </g>
  <g id="Group_335" data-name="Group 335" transform="translate(44.2 183.694)">
    <g id="Group_331" data-name="Group 331" transform="translate(32.087 23.201)">
      <path id="Path_38439" data-name="Path 38439" d="M396.168,847.04c0-.013,0-.03.006-.051l0,.014Z" transform="translate(-396.168 -846.989)" fill="#f1efea"/>
    </g>
    <path id="Path_38440" data-name="Path 38440" d="M344.281,802.683c.576-5.979-1.374-12.9-3.414-17.579-5.4-12.393-18.441-18.391-31.718-15.118-7.378,1.819-22.921,11.28-20.433,20.755,1.449,5.519,7.644,7.868,12.114,10.45,8.436,4.874,17.527,10.638,27.189,12.612,2.782.568,5.728.922,8.453-.076C341.651,811.829,343.81,807.57,344.281,802.683Z" transform="translate(-288.449 -769.103)" fill="#ccc6b4"/>
    <path id="Path_38441" data-name="Path 38441" d="M369.424,797.855a17.193,17.193,0,0,0-4.132-7.17,14.35,14.35,0,0,0-17.182-2.732c-3.233,1.665-9.238,7.6-6.7,11.385,1.476,2.206,4.746,2.48,7.231,3.059,4.692,1.094,9.822,2.494,14.679,2.192a8.112,8.112,0,0,0,3.992-1.041A4.992,4.992,0,0,0,369.424,797.855Z" transform="translate(-325.204 -781.15)" fill="#d6d0bd"/>
    <path id="Path_38442" data-name="Path 38442" d="M363.6,813.791c.576-5.979-1.374-12.9-3.414-17.579A26.467,26.467,0,0,0,351,784.924a24.183,24.183,0,0,1,4.883,15.032c-.1,4.97-2.325,10.28-7.46,11.779a29.921,29.921,0,0,1-8.158.712c-3.526.03-7.023.084-10.543-.2a90.916,90.916,0,0,1-13.755-2.229c1.435.8,2.883,1.529,4.185,2.281,8.436,4.874,17.527,10.638,27.189,12.612,2.782.568,5.728.922,8.453-.076C360.969,822.937,363.128,818.678,363.6,813.791Z" transform="translate(-307.768 -780.211)" fill="#bdb7a7"/>
    <g id="Group_332" data-name="Group 332" transform="translate(3.066 18.574)">
      <path id="Path_38443" data-name="Path 38443" d="M299.817,846.848c-.157.036-.45-.434-.715-1.3a8.584,8.584,0,0,1-.311-1.572,9.409,9.409,0,0,1,.016-2.02,12.408,12.408,0,0,1,.465-2.2,21.933,21.933,0,0,1,.78-2.133,20.5,20.5,0,0,1,1.985-3.721,8.358,8.358,0,0,1,1.513-1.694,4.4,4.4,0,0,1,.664-.452c.1-.056.2-.106.289-.146s.184-.068.267-.092a1.088,1.088,0,0,1,.744-.005.685.685,0,0,1,.345.35.935.935,0,0,1,.107.486,1.38,1.38,0,0,1-.2.584c-.258.453-.807,1.057-1.72,2.364a31.127,31.127,0,0,0-1.953,3.285,19.589,19.589,0,0,0-1.585,3.7,11.278,11.278,0,0,0-.347,1.7c-.061.534-.1,1.026-.111,1.444C300.01,846.267,299.988,846.81,299.817,846.848Z" transform="translate(-298.744 -831.457)" fill="#858075"/>
    </g>
    <g id="Group_333" data-name="Group 333" transform="translate(15.669 25.382)">
      <path id="Path_38444" data-name="Path 38444" d="M341.638,869.63c-.166,0-.326-.506-.444-1.346a18.515,18.515,0,0,1-.119-3.35,18.928,18.928,0,0,1,.683-4.251,14.9,14.9,0,0,1,1.667-3.8q.18-.283.346-.532c.118-.162.238-.309.349-.449s.22-.268.323-.387.214-.219.313-.316a7.006,7.006,0,0,1,.55-.473,2.793,2.793,0,0,1,.468-.273c.56-.256.86-.127,1.094.116a.918.918,0,0,1,.155,1.076,3.677,3.677,0,0,1-.209.432,5.684,5.684,0,0,1-.319.55c-.063.1-.141.2-.211.319s-.148.238-.232.366l-.272.4q-.132.221-.285.462a18.571,18.571,0,0,0-1.6,3.214,26.669,26.669,0,0,0-1.107,3.77c-.271,1.225-.472,2.345-.643,3.157S341.81,869.631,341.638,869.63Z" transform="translate(-341.05 -854.312)" fill="#858075"/>
    </g>
    <g id="Group_334" data-name="Group 334" transform="translate(28.631 31.688)">
      <path id="Path_38445" data-name="Path 38445" d="M386.122,890.348c-.172,0-.34-.463-.574-1.208-.118-.374-.252-.819-.4-1.329s-.3-1.087-.411-1.73a10.542,10.542,0,0,1-.173-2.085,11.209,11.209,0,0,1,.274-2.174,13.7,13.7,0,0,1,1.448-3.707,10.365,10.365,0,0,1,1.122-1.642,3.969,3.969,0,0,1,.855-.788.865.865,0,0,1,1.078-.029.876.876,0,0,1,.339,1.015,4.491,4.491,0,0,1-.393,1.039c-.21.43-.505.951-.871,1.6a16.9,16.9,0,0,0-1.4,3.1,11.715,11.715,0,0,0-.429,1.754,11.485,11.485,0,0,0-.126,1.76c0,.582.026,1.155.041,1.685s.016,1.017-.01,1.424C386.441,889.849,386.287,890.344,386.122,890.348Z" transform="translate(-384.566 -875.483)" fill="#858075"/>
    </g>
  </g>
  <g id="Group_345" data-name="Group 345" transform="translate(138.26 182.385)">
    <g id="Group_337" data-name="Group 337">
      <g id="Group_336" data-name="Group 336">
        <path id="Path_38446" data-name="Path 38446" d="M651.461,780.412c-5.692-13.874-19.659-20.069-34.523-12.336-9.969,5.187-16.043,15.084-15.067,25.634a43.71,43.71,0,0,0,3.335,12.416c4.073,9.919,18.08.064,24.873-2.387,7.046-2.543,18.987-4.136,22.661-11.394C654.623,788.63,652.879,783.867,651.461,780.412Z" transform="translate(-601.769 -764.708)" fill="#ccc6b4"/>
      </g>
    </g>
    <g id="Group_339" data-name="Group 339" transform="translate(6.149 6.244)">
      <g id="Group_338" data-name="Group 338">
        <path id="Path_38447" data-name="Path 38447" d="M645.61,787.832l-.1-.1c-2.588-2.508-6.9-2.466-10.062-1.245a25.129,25.129,0,0,0-12.728,14.105c-.962,3.594.19,12.164,5.833,10.423,3.11-.96,6-4.576,8.322-6.729,2.817-2.613,5.578-5.29,8.161-8.136C647.135,793.831,647.975,790.248,645.61,787.832Z" transform="translate(-622.411 -785.67)" fill="#d6d0bd"/>
      </g>
    </g>
    <g id="Group_341" data-name="Group 341" transform="translate(14.44 0.105)">
      <g id="Group_340" data-name="Group 340">
        <path id="Path_38448" data-name="Path 38448" d="M685.5,780.661c-3.693-9-10.872-14.77-19.518-15.6a17.179,17.179,0,0,1,9.1,6.946c2.668,3.869,4.467,9.137,3.344,13.845-1.537,6.445-6.169,10.666-11.463,14.235a179.512,179.512,0,0,1-16.717,9.858c4.977-1.48,10.378-4.7,13.871-5.959,7.046-2.542,18.987-4.136,22.661-11.394C688.658,788.878,686.915,784.116,685.5,780.661Z" transform="translate(-650.245 -765.062)" fill="#bdb7a7"/>
      </g>
    </g>
    <g id="Group_342" data-name="Group 342" transform="translate(13.941 34.848)">
      <path id="Path_38449" data-name="Path 38449" d="M652.7,895.72c-.165.013-.363-.44-.5-1.207s-.2-1.835-.277-2.965a16.675,16.675,0,0,0-.2-1.7,9.989,9.989,0,0,0-.442-1.642,17.423,17.423,0,0,0-1.352-2.923,20.53,20.53,0,0,1-1.269-2.214.989.989,0,0,1,.111-1.029.785.785,0,0,1,.382-.3.77.77,0,0,1,.288-.036,1.121,1.121,0,0,1,.374.085,4.973,4.973,0,0,1,2.227,2.272,13.494,13.494,0,0,1,1.4,3.517,10.027,10.027,0,0,1,.3,2.071,13,13,0,0,1-.086,1.945c-.143,1.2-.352,2.208-.5,2.938S652.876,895.708,652.7,895.72Z" transform="translate(-648.569 -881.694)" fill="#858075"/>
    </g>
    <g id="Group_343" data-name="Group 343" transform="translate(27.889 29.861)">
      <path id="Path_38450" data-name="Path 38450" d="M699.211,879.5c-.168-.041-.2-.532-.218-1.3a29.275,29.275,0,0,0-.152-2.94,15.234,15.234,0,0,0-.8-3.47,19.5,19.5,0,0,0-1.526-2.987,12.029,12.029,0,0,1-.853-1.706,3.569,3.569,0,0,1-.269-1.154.828.828,0,0,1,.553-.929.923.923,0,0,1,1.027.231,4.742,4.742,0,0,1,.676.8c.266.373.586.862.98,1.539.267.464.561.992.84,1.587a11.491,11.491,0,0,1,.724,1.963,12.9,12.9,0,0,1,.372,4.1,11.53,11.53,0,0,1-.637,3.131C699.649,879.125,699.371,879.543,699.211,879.5Z" transform="translate(-695.396 -864.953)" fill="#858075"/>
    </g>
    <g id="Group_344" data-name="Group 344" transform="translate(41.983 24.586)">
      <path id="Path_38451" data-name="Path 38451" d="M746.64,861.57c-.35-.088-.1-1.953-.349-4.214a16,16,0,0,0-.756-3.471,15.236,15.236,0,0,0-1.4-2.968q-.139-.222-.256-.425c-.08-.135-.168-.255-.242-.374-.151-.236-.271-.456-.394-.639a4.932,4.932,0,0,1-.282-.515,3.759,3.759,0,0,1-.18-.411.92.92,0,0,1,.2-1.043.827.827,0,0,1,1.057-.143,2.351,2.351,0,0,1,.439.253,6.105,6.105,0,0,1,.515.442,5.513,5.513,0,0,1,.592.663c.1.133.218.269.322.425s.21.325.321.5a12.708,12.708,0,0,1,1.471,3.616,13.273,13.273,0,0,1,.319,4.069,11.453,11.453,0,0,1-.653,3.109,4.549,4.549,0,0,1-.413.858C746.827,861.5,746.721,861.591,746.64,861.57Z" transform="translate(-742.708 -847.244)" fill="#858075"/>
    </g>
  </g>
</svg>
