<svg xmlns="http://www.w3.org/2000/svg" viewBox="0 0 126.92 40.69"><defs><style>.cls-1{isolation:isolate;}.cls-2{fill:#fff;}</style></defs><g id="圖層_2" data-name="圖層 2"><g id="圖層_1-2" data-name="圖層 1"><g id="圖層_2-2" data-name="圖層 2"><g id="圖層_1-2-2" data-name="圖層 1-2"><g class="cls-1"><path class="cls-2" d="M9.84,23.44c.1.72.16,1.47.19,2.25a5.83,5.83,0,0,1-2.95.56,17.35,17.35,0,0,1-1-2.81c-2-.16-3.93-.24-5.9-.24A5.39,5.39,0,0,1,0,21.75a10.31,10.31,0,0,1,.09-1.31H5.62A15.44,15.44,0,0,1,5.44,18a28,28,0,0,1,3.14-.19c.25.85.48,1.72.7,2.63,2,0,3.92,0,5.86.14,0-1,.08-2,.14-3a3.51,3.51,0,0,1,1.55-.42,3.42,3.42,0,0,1,1.69.42c0,1,0,2,0,3h6.19a17.69,17.69,0,0,1,1-2.77,9.76,9.76,0,0,1,2.77.38c-.13.75-.28,1.54-.47,2.39,1.5,0,3,.06,4.54.19v1.35a4.44,4.44,0,0,1-.28,1.5c-1.68,0-3.37-.06-5.06-.18-.25,1-.53,1.9-.84,2.81a7.19,7.19,0,0,1-2.91-.56q.2-1.17.42-2.25H18.61c0,1.5.05,2.93.05,4.31H22a43.18,43.18,0,0,1,6.38.37,4.36,4.36,0,0,1,.14,1.32,3.83,3.83,0,0,1-.14,1.26,49,49,0,0,1-6.38.19H18.66a2.12,2.12,0,0,0,0,.42c0,.63,0,1.17,0,1.64h0a38,38,0,0,1,6.33.42,4.16,4.16,0,0,1,.14,1.27A4.54,4.54,0,0,1,25,36a49.55,49.55,0,0,1-6.33.19h-.09c-.06,1.37-.14,2.75-.23,4.12H15.23c-.12-1.37-.21-2.75-.28-4.12A73.77,73.77,0,0,1,7.36,36a6.69,6.69,0,0,1-.14-1.5,3.92,3.92,0,0,1,.23-1.36q3.42,0,7.41-.19V30.89C8.17,30.77,4.45,30.7,3.7,30.7a4.76,4.76,0,0,1-.18-1.5,2.72,2.72,0,0,1,.28-1.26c3.43,0,7.12-.07,11.06-.19,0-1.38.08-2.81.14-4.31ZM14.72,6.33c0-.88-.05-1.74-.05-2.58l-4-.37c0-.88,0-1.77.09-2.68q9.84.38,17.72,1a73.28,73.28,0,0,1-1,14.06q-2.91.55-15.57.56a27,27,0,0,1-7.68-.93Q3.84,9.56,3.75,1.5a24,24,0,0,1,3-.19c.1,1.5.17,3.07.24,4.69Q10.74,6.18,14.72,6.33ZM7,8.77l.09,4.12q4,0,7.83.19c-.06-1.25-.11-2.42-.14-3.52A67.12,67.12,0,0,1,7,8.77Zm11,.79v3.52q3.46.22,6.75.23,0-3.37.33-8.86-3.79-.13-7.22-.33c0,.72,0,1.52.05,2.4l2.9.37a14.44,14.44,0,0,1-.28,2.67Z"/><path class="cls-2" d="M61.61,9.14a14.51,14.51,0,0,0,2.62.24A72.39,72.39,0,0,1,67,1.08a6.41,6.41,0,0,1,3.14,1.17c-.4,1.13-1.22,3.5-2.44,7.13q5.53.18,11.11.56a13.88,13.88,0,0,1-.32,3q-15.19,0-30.14-.51A17.87,17.87,0,0,1,48.62,9q4.88.2,9.8.19A73.89,73.89,0,0,1,59.64,0a14.6,14.6,0,0,1,3.14.33,47.67,47.67,0,0,1-.61,5.29C62,6.88,61.83,8.05,61.61,9.14Zm-6.85,24.8a6.2,6.2,0,0,1,1.88,2.43,29.29,29.29,0,0,1-5.44,3.94,7.62,7.62,0,0,1-1.83-2.44A36.26,36.26,0,0,1,54.76,33.94ZM53.08,1.69A11.08,11.08,0,0,1,55.8,7.5a7.59,7.59,0,0,1-2.86.89,10.34,10.34,0,0,1-2.63-6A9.59,9.59,0,0,1,53.08,1.69ZM65.64,19.5c.12.72.25,1.47.37,2.25q4.32,0,6.33.19a7.85,7.85,0,0,1,.1,1.26v1.32c-.57.25-2.55.43-6,.56.06.65.13,1.28.19,1.87,3.09-.12,6.22-.18,9.37-.18a5.93,5.93,0,0,1,.24,1.73v1.69L67,30.56c.29,3.1.46,6.28.52,9.56a31.63,31.63,0,0,1-7.55.57,11.34,11.34,0,0,1-.28-2.63c1.35,0,2.71-.06,4.08-.19q-.24-3.55-.51-7.17l-10.55.38a19.52,19.52,0,0,1-.28-3.33q5.25-.37,10.54-.61c-.06-.72-.11-1.41-.14-2.06h0a64.5,64.5,0,0,1-8.39-.38,5.61,5.61,0,0,1-.19-1.5,7.93,7.93,0,0,1,.09-1.26q3.33-.2,8.25-.19c-.06-.78-.12-1.59-.19-2.44q-5.25-.22-10.54-.42a4.27,4.27,0,0,1-.19-1.45,3,3,0,0,1,.38-1.5h5.06a13.79,13.79,0,0,1-.33-1.88,20,20,0,0,1,2.77-.56,19.37,19.37,0,0,1,.93,2.62c2.07,0,4.14.07,6.24.19a24.14,24.14,0,0,1,.79-2.62,11.76,11.76,0,0,1,2.86.37,12.49,12.49,0,0,1-.47,2.39c1.41,0,2.8.07,4.18.19V18a7.67,7.67,0,0,1-.19,1.69Q69.81,19.49,65.64,19.5ZM77.73,3.75a5.79,5.79,0,0,1,.8,3.14,57.81,57.81,0,0,1-6.19,1.17,6.48,6.48,0,0,1-.7-3A22.91,22.91,0,0,1,77.73,3.75Zm-3.19,29a31.91,31.91,0,0,1,6.15,3.93A5.72,5.72,0,0,1,79,39.14,23.35,23.35,0,0,1,73,35,11.59,11.59,0,0,1,74.54,32.77Z"/><path class="cls-2" d="M98.37,7.08a27.62,27.62,0,0,1,3.24,1.31q-4,9-8.39,17.48a6.57,6.57,0,0,1-2.86-1.68Q94,15.37,98.37,7.08Zm17.53,9.56q-.09,3.62-.28,7.17c2.31.13,4.74.31,7.27.56a15.75,15.75,0,0,1-.33,3c-2.34,0-4.7-.07-7.08-.23q-.18,3.42-.42,7c2.69.13,5.53.25,8.53.38a16,16,0,0,1-.28,3q-9.33,0-18.38-.8V35.2a6.85,6.85,0,0,1,.1-1.26h6.65q0-3.57,0-7c-2.19-.12-4.34-.29-6.47-.51V24.89a7,7,0,0,1,.1-1.27h6.42q0-3.56.19-7h-9a3.54,3.54,0,0,1-.24-1.69,5.06,5.06,0,0,1,.33-1.64h9q.27-5.06.75-9h1.64a8.47,8.47,0,0,1,1.59.14q0,4.32-.09,8.86l10.92.38v1.45a4.34,4.34,0,0,1-.24,1.69C122.81,16.83,119.21,16.77,115.9,16.64Z"/></g></g></g></g></g></svg>