<svg xmlns="http://www.w3.org/2000/svg" viewBox="0 0 711.55 323.32"><defs><style>.cls-1{fill:#1a1a1a;}.cls-2{fill:#222;}.cls-3{fill:#010101;}.cls-4{fill:#e3e3e3;}.cls-5{fill:#131313;}.cls-6{fill:#151515;}.cls-7{fill:#080808;}.cls-8{fill:#141414;}.cls-9{fill:#2b2b2b;}.cls-10{fill:#191919;}.cls-11{fill:#efefef;}.cls-12{fill:#2c2c2c;}.cls-13{fill:#d2d2d2;}.cls-14{fill:#323232;}.cls-15{fill:#202020;}.cls-16{fill:#020202;}.cls-17{fill:#d8d8d8;}.cls-18{fill:#f0c5d9;}.cls-19{fill:#d8b1c3;}.cls-20{fill:#c09dad;}.cls-21{fill:#d1abbc;}.cls-22{fill:#cfcfcf;}.cls-23{fill:#f0f0f0;}.cls-24{fill:#c4a0b0;}.cls-25{fill:#070707;}.cls-26{fill:#f1f1f1;}.cls-27{fill:#e7e7e7;}.cls-28{fill:#cdcdcd;}.cls-29{fill:#c8a4b4;}.cls-30{fill:#101010;}.cls-31{fill:#f4f1f2;}.cls-32{fill:#ececec;}.cls-33{fill:#e5e5e5;}.cls-34{fill:#c7a2b3;}.cls-35{fill:#d3d3d3;}.cls-36{fill:#ebebeb;}.cls-37{fill:#dcdcdc;}.cls-38{fill:#fafafa;}.cls-39{fill:#d4d4d4;}.cls-40{fill:#dfdfdf;}.cls-41{fill:#d1d1d1;}.cls-42{fill:#ebe7e9;}.cls-43{fill:#c6c6c6;}.cls-44{fill:#f7f7f7;}.cls-45{fill:#f9f5f7;}.cls-46{fill:#d9d9d9;}.cls-47{fill:#fbfbfb;}.cls-48{fill:#e2e2e2;}.cls-49{fill:#c2c2c2;}.cls-50{fill:#eee;}.cls-51{fill:#e0e0e0;}.cls-52{fill:#fefefe;}.cls-53{fill:#d7d7d7;}.cls-54{fill:#e9e9e9;}.cls-55{fill:#ddd;}.cls-56{fill:#dbdbdb;}.cls-57{fill:#f3f3f3;}.cls-58{fill:#ddb5c7;}.cls-59{fill:#787878;}.cls-60{fill:#e1b9cb;}.cls-61{fill:#deb6c8;}.cls-62{fill:#cca7b8;}.cls-63{fill:#e1e1e1;}.cls-64{fill:#d8b2c3;}.cls-65{fill:#cfa9ba;}.cls-66{fill:#dbb3c5;}.cls-67{fill:#f5f5f5;}.cls-68{fill:#fbf8f9;}.cls-69{fill:#f0eaed;}.cls-70{fill:#030303;}.cls-71{fill:#e4e4e4;}.cls-72{fill:#dadada;}.cls-73{fill:#e6e6e6;}.cls-74{fill:#ccc;}.cls-75{fill:#e8e8e8;}.cls-76{fill:#fdfdfd;}.cls-77{fill:#f4f4f4;}.cls-78{fill:#0b0b0b;}.cls-79{fill:#282124;}.cls-80{fill:#2f262b;}.cls-81{fill:#32292e;}.cls-82{fill:#1f191c;}.cls-83{fill:#352b30;}.cls-84{fill:#f8e4ed;}</style></defs><g id="圖層_2" data-name="圖層 2"><g id="圖層_1-2" data-name="圖層 1"><path d="M414.59,228.36c-.1-2.64-.26-5.28-.29-7.93,0-2.09-.09-3.42-2.95-4.07-3.88-.89-1.27-4.54-1.73-6.93,1.68-.9,3.26-.76,5.12.7-1.2-1.67-.05-3.4-1.11-4.77-3.83-2-8.91-2.88-8-9.05.37-.28.72-.58,1.07-.88a5.63,5.63,0,0,0-.94,1c-2.71.32-4.93.33-4.39-3.6.59-4.28-3.63-5.12-5.93-7.26-.54-.5-2.61-.05-2.27-1.14,1.47-4.66-2.07-7.43-4.46-9.65-2.66-2.46-4.86-4.35-4.9-8.24,0-1.25-10.57-1.58-11.07-.28s-.5,2.83,1.27,3.19c3.78.76,2.62,1.81.37,3.25-2.7,1.74-3.53,3.68.26,5a2,2,0,0,1,1.56,2.07c.1,1.36-.72,1.77-1.84,1.69-1.7-.12-1.88.82-1.76,2.16.09,1.06.13,1.89,1.61,1.88,3.22,0,1.87,2.56,1.92,4s1.16,4-2.08,3.9c-1.05,0-1.43.52-1.41,1.52s.47,1.54,1.49,1.45c1.89-.16,2.14.95,2.12,2.49s-.17,2.45-2.08,2.59c-2.83.2-1.41,2.56-1.42,3.87s-1.42,3.85,1.93,4c1.91.07,2.05,2.43,1,2.57-4.71.62-2.75,4-3,6.34a58,58,0,0,0,0,7.46c0,.88-.34,1.8.79,2.57,3.95,2.71,3.92,5.12.09,8-1.66,1.23-1.24,7,.69,7.88,3.37,1.5,3.15,2.89,0,4.27-.59.26-1.68.38-1.44.95,2.21,5.18-3.65,6.48-4.78,10-.43,1.36-2,.63-3.11.84-2.17.4-5.4-1.56-5.73,3-.08,1.13-2.79.8-2.93-.59-.28-2.88-2.07-2.37-3.86-2.44-2.22-.08-4.81,1.08-5.09-3.19-.1-1.65-3.81-.49-5.85-.77-1.19-.16-1.68.37-1.82,1.66-.23,2.16,1.89,1.8,2.45,2.56,2.45,3.34,7.62,5.33,5.68,11.14-1.13,3.35.38,5.35,4.31,4.56,3.07-.62,4.18.66,3.79,3.74-.26,2.11-.51,4.23,3,4.39,1.5.06,1.12,6.28-.61,6.89-1.14.4-2.77.57-2.3,1.9,1.79,5.08-2.47,6.73-5,9.39-1.09,1.16-2.51.49-3.77.6-1.89.16-4.33-.6-3.78,2.82.27,1.69-1.1,1.21-2,1.3-1.22.12-1.82-.43-1.78-1.71s.1-2.84-1.57-2.3c-4.23,1.34-6.69-2.34-10.13-3.12-2.42-.56-1-2.42-1.26-3.66-.47-2,1.09-4.6-2.67-5.37-1.31-.27-2-3.1.62-3.82,1.29-.35,2.3-.4,1.94-2s-1.82-1-2.84-1.19c-.64-.11-1.33.15-2,.09-1.31-.11-3,.7-3.14-1.87-.12-2.83,1.72-2.28,3.28-2.24,4.7.12,6.82-3.65,9.42-6.47.67-.73,1-1.39,2-1.38s1.41.73,1.31,1.62c-.38,3.18,2,2.6,3.56,2.31,2.8-.52,1.19-2.92,1.36-4.44.15-1.33,1.06-3.58-1.92-3.47-1.66.07-3.32-.09-5-.14-2.52-4-6-4.43-9.86-2.39-2.24,1.18-4.44,1.81-6.52.19s-.91-4-.54-6c1.14-6.28.53-7.39-5.32-8.86-7.79-2-8.53-2.52-9.28-10.8-.35-3.77-1.32-5-5.13-3.86-3.06.92-6.13-1.08-9.32-.61-1.15.17-1.55-1.06-1.77-2.05-.42-1.92-1.88-3.06-3.2-4.31-3.86-.54-5.91-2.39-5-6.59.45-2.09-1-2.53-2.64-2.52-2.32,0-4.65.12-7,.1-1.38,0-2.42.36-2,1.94.5,2.05-.27,2.75-2.24,2.71-1.47,0-2.67-.2-2.67-2.07,0-1.16,0-2.4-1.7-2.44-2-.06-2.12,1.18-2,2.64.16,1.62-.81,1.91-2.14,2-1.63.06-2.52-.49-2.43-2.26.07-1.2,0-2.4-1.73-2.34s-1.92,1.1-1.76,2.37c.26,1.94-.87,2.19-2.38,2.23s-2.25-.58-2.1-2c.31-3-1.73-2.78-3.53-2.53s-4.77-1.41-4.83,2.36c0,2.22-1.57,2.56-3,2.13-3.28-1-8.65,3.24-9.66-3.92-.15-1.06-3.56-.94-3.34.67.58,4-2.91,2.67-4.3,4-.55-1.46-.82-3.15-3-3.7,0,2.45,2.75,2,3.11,3.66.86,1.63.79,2.74-1.47,2.71s-4.8,0-7.2-.05c-.51-.54-.91-1.21-1.75-1.34.57.51,1.32.72,1.88,1.2-.5,1.45,1.43,4.38-1.63,4.12-2.1-.18-6.14,2.93-6.38-2.45-.07-1.4-1-1.46-2.07-1.48-1.46,0-2.7.14-2.69,2,0,1,.17,2-1.34,2.1s-2-.78-1.86-2.12c.17-2-1.18-2-2.58-2-2.5,0-5,0-7.48,0-1.85,0-3.9-.34-3.38,2.7.18,1.06-.7,1.35-1.6,1.4-1.09.06-2-.16-1.88-1.55.4-3.54-2.22-2.53-3.94-2.5s-4.38-1.13-4.07,2.43c.08,1-.29,1.73-1.34,1.59-5.14-.73-4,2.94-4,5.71-.05,2,0,4,0,6a8.5,8.5,0,0,1-7.64,8c-1.48.08-3.94-.79-3.78,1.79.13,2.16-1.69,4.83,2,6.54,3.33,1.56,1,5.28,1.39,8,.21,1.29,1.1,3.66-1.75,3.69-1.74,0-1.71,1-1.75,2.27-.06,2.59,1.08,5.75-3.67,5.78-1.27,0-.59,2.58-.4,4l-.49.48c-2.31,1.38-5.48-.4-7.5,2a4.57,4.57,0,0,1-1,.89,3.84,3.84,0,0,1-3.34.05l-.51-.47c1.17-3.15-1.09-3.35-3.1-3.26-2.3.11-3.3-.1-5.06-2.48-2.12-2.85-4.43-5.07-4.4-8.82-6-.72-2.84-5.34-3.38-8.26-.34-1.81-1.07-4.24,2.68-4.35,2.3-.06,1-2.68,1.13-4.11.18-1.95-.43-4.19,2.85-3.73,1,.14,1.8-.59,1.54-1.44-1.29-4.18,2.06-6.4,3.63-9.41.67-1.28,1.5-1.06,2.37-1,1.5,0,2.08-.63,2.06-2.07s-.64-2.13-2.1-2.06c-1.23.05-2.33,0-2.3-1.76s1.23-1.7,2.4-1.7c1.49,0,2-.73,2-2.16,0-1.71-.76-2.38-2.45-2.2-1,.11-2,0-2-1.48s.63-1.72,1.82-1.69c1,0,2.32.17,2.38-1.12.17-3.46.24-6.55,3.58-9.11,1-.73,1.12-2.85,3.33-2.56,1.1.14,1.92-.14,1.92-1.54s-.77-1.68-1.86-1.75c-1.25-.07-3,1.34-3.2-1.46s1.29-2.82,3.33-2.86c2.89-.06,1.41-2.4,1.69-3.76.4-1.94-1.2-4.88,2.89-4.74,1.31,0,.94-1.5.95-2.41.05-2.65,0-5.31,0-8,.06-2.09-1-5,3.05-4.51,1.1.12,1.06-1,1.08-1.81,0-1.05-.08-2.1-1.5-2-1.76.15-2.81-.16-2.7-2.33.1-1.69.67-2.41,2.36-2.35,2.53.09,1.81-1.86,1.82-3.18.06-5.63,0-11.27,0-16.91,0-1.5-.66-3.55,2.19-3.27a2.16,2.16,0,0,0,1.22-.56c-1.71-5.71,6.21-7.87,4.79-14-1.12-4.84,3.61-8.87,8.7-8.88a20.2,20.2,0,0,1,3.48,0c3.83.68,5.15-1,4.59-4.61.49-.35,1-.73,1.41-1.12.12-.1,0-.07-.38.24a7.84,7.84,0,0,0-.89,1c-3.49,0-7,.07-10.47,0-1.16,0-2.87.65-2.81-1.63,0-1.84,1.39-1.45,2.48-1.51.5,0,1.31.16,1.45-.07,2.62-4.23.37-8.88,1-13.29.27-1.77-.39-2.93-2.46-2.72-3.65.39-2.35-2.41-2.45-4.07s-.89-3.92,2.26-3.79a8.89,8.89,0,0,0,2.31-.54c-1.84-5.73,6-8.45,4.39-14.29-.53-2-1.32-4.91,2.92-5.33,2.07-.21,1.06-3.16,1-4.78-.19-4.19-.16-7.8,5.76-6.5.91.2,2.05.16,2.26-1.25s-.28-2.1-1.82-2.2c-3.78-.23-1.9-3.16-2.1-4.94S177,50.5,180.46,51c.7.09,1.64-.33,1.41-.92-1.74-4.39,2.76-5.91,3.91-8.93.64-1.68,1.83-1,2.84-1.16,2.33-.48,5.95,1.7,6.13-3.32,0-.74,3.8-1.66,4,.66.27,3.33,2.38,3.13,4,2.53,2.54-1,7,3.31,7.71-2.68.22-1.78,1.8-1,2.81-1.1,1.23-.08,2.89-.48,2.66,1.74s1.31,2.11,2.86,2.19c4.3.2,8.09,3.83,8.27,7.93.09,2,0,3.84,2.88,3.17,1.56-.36,2,.43,2,1.9s-.28,2.23-1.91,2.09-3,0-3,2.23c0,2,1.53,1.83,2.73,2.6,2.63,1.68,5.39,3.77,5.3,7.61,0,1.91-.59,4.33,2.61,4.16,1.37-.07,2.73-.58,2.78,1.57s-1.66,1.49-2.82,1.66c-.8.11-1.62.15-2.47.23,0,1.77.26,3.32,2.08,3.53,2,.23,3.66.37,3.24,3.07-.11.7.53,1.14,1.29,1.18,3.16.14,7.18-1.24,7.36,4.15,3.52-.05,2.63,2.57,2.75,4.55.12,1.81.52,3.33,2.82,3.24.68,0,1.69.19,1.51.87-1.13,4.31,2.16,6.47,4.22,9.28.45.61.41,1.49,1.42,1.76,5.41,1.47,7.48,5.19,7,10.57a12.51,12.51,0,0,0,0,1.5l-.42.44c-.6.57-1.81.58-1.62,1.83.64.69,1.68.84,2.18,1.68l.28,2.43c4.44-.83,3.16,5.21,7,5.8,1.3.19.26,3.88.57,5.95s-1.15,5.55,3.34,4.9a1.41,1.41,0,0,1,.77.4c-1.77,4.86,4.06,7.14,3.89,11.48-.09,2.2-.74,5.13,3.38,4,1.22-.35,1.77.36,1.73,1.63s.06,2.33-1.68,2.35c-1.5,0-3.4.08-3,2.25.36,1.86,2.31,1.77,3.72,1.57,3.82-.54,5.44.78,4.8,4.74-.28,1.7-.17,3.48,2.49,3,2-.37,1.53,1.17,1.63,2.22.11,1.29-.09,2.31-1.8,2.18-1.17-.09-2.32-.14-2.38,1.64s.73,2.31,2.38,2.25a5,5,0,0,1,1.72.61c-1.83,4.5,2.95,6.34,3.92,9.72.13.44.27,1.28.38,1.27,5.37-.21,3.61,3.76,3.74,6.47.13,2.51,2.12,2.2,3.2,1.77,4.76-1.89,5.79,3.86,9.35,4.46.34.06,1.53,3.62-1.79,3.6-1.07,0-2,.13-1.88,1.59a1.3,1.3,0,0,0,1.58,1.38c3.69-.26,2.11,2.35,2.22,4a2.76,2.76,0,0,1-.88.82c-2.15,1.44-.24,1.92.64,2.64.13.15.26.31.38.47-.57,3.68.58,5.37,4.71,4.94,3.11-.32,7.31,4.32,7.46,7.54,0,.17-.07.4,0,.49a22.12,22.12,0,0,1,4.84,10.49c.24,1.09,4.34.64,6.56.11,2-.48,1.41-2.56,1.16-3.82-.56-2.85,2.4-7.3-3.38-8.26-.18,0-2.35-5.34,1.59-6.57,2.47-.77,1.9-2.45,1.81-3.92-.12-1.73,1.2-4.33-2-4.75s-1.52-2.73-1.73-4.2c-.17-1.25-.76-3.14,1.84-3,2.38.08,1.9-1.83,1.9-3.21,0-4.64-.11-9.28-.18-13.92,0-1.5.15-3.15-2.21-2.94-1.39.12-1.59-.88-1.66-1.92s.22-1.92,1.57-2c2.69-.08,2.41-2.21,2.67-3.95l.55-.48a3,3,0,0,1,3.3.42c.49.42.81,1,1.38,1.38-.42-.48-.9-.91-1.36-1.36a6.56,6.56,0,0,1-1.25-2.27c-.42-1.41-2.07-1.53-2.77-2.64-.93-2.61,1.62-6.68-3.65-7.6-1.55-.27-.36-6.41,1.61-7.19,1.06-.42,1.79-.77,1.77-1.95,0-1.46-.79-2-2.24-1.85s-1.66-.74-1.61-1.87a2.28,2.28,0,0,1,1.45-2.22c3.59-1.87,3.57-6-.1-7.94-2.18-1.13-1.24-2.83-1.28-4.27s-.87-3.21,1.78-3.87c2.14-.53,3.09-6.29,1.33-6.69-5.73-1.32-2.34-5.46-3-8.28.56-.92,1.76-1,2.38-1.84a1.57,1.57,0,0,0-.06-1.5c-.7-.69-1.79-.84-2.33-1.71-.23-2-.1-4.22-3.19-3.83-1.3.16-1.73-.52-1.69-1.75.06-1.53,1.12-1.37,2.09-1.35,1.45,0,2.73-.09,2.63-2s-1.06-2.6-3-2.07c-1.28.35-1.83-.37-1.74-1.62.08-1.07-.37-2.57,1.55-2.38,3.42.35,3.14-2,3.2-4.18s0-4-3-3.69c-2.23.26-1.68-1.52-1.69-2.71-.05-4.81,0-9.63,0-14.44,0-.94-.23-2.72.67-2.6,5.88.76,4.14-3.39,4.34-6.33.25-3.51,3.35-.8,4.62-2.1.45,2.66,1.51,4.17,4.47,2.4-1.29-1.45-3.69-.42-4.62-2.32-1.86-3.39.63-2.93,2.65-3.08s4.71,1.13,5-2.9c.11-1.58,3.54-1.5,3.69-.07.39,3.82,2.86,2.91,5,3,3.65.11,7.52,3.91,7.66,7.7.06,1.83-.37,3.9,2.62,3.54,2.2-.27,1.8,1.34,1.81,2.59a99.75,99.75,0,0,1-.07,10.94c-.57,5.42,2,8.39,6.82,9.85,1.74.53,1.18,1.75,1.22,2.77.08,2.31,0,4.64.05,7,0,1.15-.67,2.83,1.62,2.8,1.35,0,2.4-.39,2.22-1.92-.28-2.5,1.4-2.17,2.86-2.07,2.21.16,1.29,1.92,1.37,3,.17,2.06-.64,4.54,2.93,4.43.94,0,1.09,1,1.12,1.91.05,1.37-.4,2.21-2,2.18-1.06,0-1.95.29-2,1.61-.12,1.76,1.07,1.82,2.28,1.76s1.7.55,1.74,1.76c0,.77.37,2.19.59,2.19,6.59.15,4.12,5.13,4.08,8.23a8.28,8.28,0,0,0,5.13,7.52c3.42.92,2.58,5.6,6.19,5.44a10,10,0,0,1,.32,3.24c-.56,3.67,1.16,4.77,4.49,4.25,3.07-.48,4.66.43,4.16,3.9-.24,1.7-.63,3.83,2.37,3.79,2.19,0,1.71,1.85,1.52,2.94-.79,4.32,1.49,5,5,4.61,2.1-.22,4.58-.58,3.89,3l-.47.49c-1,.69-2.77.49-2.82,2.08s1.72,1.44,2.79,1.9l.53.4c-.08,2.09.72,4.62-3.12,4.14-3-.37-.89,2.9-2.28,3.83-.25.68-1.14,1-1.12,1.85.88-.39.65-1.27.92-1.9l7,.15c.81,0,1.7,0,1.74,1.18,0,.82.1,1.62-1,1.91-4.12,1-2,4.41-1.89,6.49.12,2.6,2.88,1.2,4.42,1.29,2.17.12,4,0,3.49,3.07a1.76,1.76,0,0,0,1.15,2c4,1.12,5.08,2.13,0,3.26-1.28.29-1.2,1.39-1.19,2.39,0,1.39.8,2.4,2.12,2.18,4.53-.74,6.33.51,6.2,5.57-.05,1.77,3.42,4.43,5.77,5.19,1.63.53,6,2.55,6.1-2.56,5.93-.08,4.57-4.45,4.63-7.92.06-3.65,0-7.31,0-10.95,0-1.85-.92-2.23-2.49-2.16-1,0-2,0-2.08-1.44s.88-1.66,1.95-1.57c1.84.15,2.79-.37,2.64-2.45-.13-1.67-.76-2.59-2.45-2.22s-2.11-.25-2.15-1.73.89-1.68,1.94-1.54c3.48.47,2.68-2.06,2.57-3.82s1.24-4.4-2.39-4.11c-1.39.11-2.19-.37-2.14-2,0-1.43.13-2.65,2-2.74,1,0,2.44.38,2.55-1.48.12-2.17-1.38-1.88-2.67-1.84-1.6.05-1.88-.83-1.91-2.2,0-1.68.94-1.86,2.23-1.84,2.16,0,4.32,0,6.49,0a7.55,7.55,0,0,0,1.49,1.63,7.29,7.29,0,0,0-1.64-1.48c-.24-1.58.65-3.22-.29-4.75a3.36,3.36,0,0,0,1.67-.76c-.34,0-.52.31-.77.47a4,4,0,0,1-.82.44c-2.67,1.37-3.93.77-3.81-2.44.15-4,0-8,.07-11.94.05-2-1.16-4.95,2.91-4.78,1.44.06,1-1.41,1.06-2.3.06-1.14-.41-1.91-1.68-1.94a14.73,14.73,0,0,1-2.49-.05c-1.46-.28-3.67,1.18-4.25-1.11-.63-2.52,2.75-1.42,2.84-2.07.58-3.86,7.63-4,5.25-9.39a3.28,3.28,0,0,0,1.68-.74c-.35,0-.52.29-.77.45a4.92,4.92,0,0,1-.82.43c-2.07,1.09-3.74,1.63-3.81-1.8,0-2.28,1.4-5.85-3.52-4.9-.9.17-.94-1.14-1-2-.06-1.28.22-2.3,1.79-2.41,1.24-.09,2.84.34,2.75-1.82-.08-1.78-1.38-1.4-2.5-1.56-4-.58-1.51-3.63-2-5.51-.58-2.31,1-2.79,2.94-2.65,1.16.09,2.33,0,3.49,0s2.09,0,2.06-1.46c0-1.09.41-3-1-3-3.89.07-3-2.5-3-4.66-.05-1.07.36-3-1.11-2.8-4.47.71-3.2-2.33-3.46-4.56-.3-2.57.62-3.7,3.28-3.38,1.11.14,1-.84,1.34-1.6.89-2.15-2.28-5.29,2.44-6.8,2.28-.72,4.12-3.16,7.15-2.72,1.51.22,2.6-.4,2.41-2.24-.13-1.38-.18-2.58,1.9-2.59,1.84,0,2.3.75,2.16,2.37-.11,1.24.32,2.89,1.66,2.37,4.43-1.7,6.49,3.1,10.13,3.31a1.63,1.63,0,0,1,.77.38c-1.92,5,4.27,7.2,4.14,11.57-.05,1.79.87,4-2.58,4.1-2.26,0-1.16,2.34-1.17,3.56-.11,9,0,17.91-.09,26.87,0,2,1.16,5-2.95,4.59-1.21-.11-1.36,1.19-1.38,2.22s.28,1.82,1.29,1.74c3.93-.29,2.88,2.5,3.1,4.66.24,2.32-.5,3.37-3,3.12-1.42-.15-1.46,1-1.43,2,0,1.28.31,2.42,1.91,2.19s2.49-.27,2.49,1.8c0,2.53-1.69,2-3,1.94-1.92-.14-4,.72-5.76-.56-2-1-.83-3.37-2.59-5-.53,2.77.28,4.22,2.68,4.87l-.36,8.57c-2.71,2.12-3.64-1.54-5.73-1.92-.44,1.85,1.44,2,1.9,3-.16,1.49-.2,3.2,1.7,3.3,3,.16,2.09,2.11,2.13,3.72l-.42.49c-2.37,1.28-1.44,2.17.36,3a2.92,2.92,0,0,1,.83,1c.72,1.59.06,3.61,1.5,5.24,2.31-1.26,1.08-3.78,2.24-5.26l.5-.46c2.55-.34,4.26-.29,4.11,3.34-.32,8.11-.09,16.24-.1,24.36,0,1.59.48,3.53-2.29,3.19-1.94-.23-2.08,1.06-2.08,2.52s.35,2.66,2.2,2.42c2.38-.32,2.07,1.28,2.22,2.8.2,2.12-1.43,5.18,3,5.38,1.22.06,1.44,2.59-.33,2.6-3.36,0-2.64,2.12-2.66,4,0,3.81-.09,7.63,0,11.44.07,2.18-1.21,4.9,3,5.42,2,.24.94,6.41-1.45,7.17-1.23.39-1.6.82-1.55,1.95s.18,2.07,1.55,2c1.69-.08,2.37.55,2.31,2.3,0,1.58-.81,2-2.17,2-2.21-.05-1.66,1.63-1.67,2.82q-.09,7,0,13.92c0,1.79.09,3.26-2.48,3.07-2.94-.22-1.95,2.24-1.83,3.54.32,3.36-.65,4.77-4.31,4.46-4.35-.37-6.53,2.93-8.27,6.21-.49.92-.48,1.75-1.78,1.69-1.15-.05-2-.38-1.89-1.67.24-2.78-1.6-3.07-3.5-2.64-3.32.77-4.64-3.12-6-3.23-4.94-.41-3.25-3.58-3.45-6-.12-1.51-.3-2.61-2.18-2.47-.64,0-1.62-.14-1.43-.9,1.93-7.72-7.28-8.7-8.73-14.44-.37-1.45-2.39-.76-3.59-.66-2.8.21-4.69-.35-4.05-3.68.94-4.94-2.31-5.11-5.64-4.83-4.26.34-8.61,1.32-7.42-5.61.42-2.43-1.72-1.78-3.12-1.8-1.48-2.65-.19-5.39-.8-7.94A12.11,12.11,0,0,1,414.59,228.36Z"/><path d="M700.48,121.18c-.68,2-2,3.85,1.36,5.06,2,.74,2.07,7.14,0,7.9-3.91,1.48-1.5,4.44-2,6.67-.2.88.89,1.21,1.79,1.11s1.56-.62,1.42-1.62c-.32-2.27.74-2.84,2.83-2.66,2.49.21,1.72,2,1.76,3.33.09,3.32,0,6.64,0,10,0,1.65-.1,3-2.32,2.83-1.77-.18-2.35.76-2.26,2.39s1.07,1.95,2.38,1.67,2.19,0,2.2,1.65c0,1.41-.38,2.23-1.94,2.17-1.38,0-2.77-.08-2.62,2,.15,1.85,1.54,1.68,2.86,2,1.7.41,4.54-1.52,4.92,1.35.26,2,2,5.05-2.37,6.2-2.21.59-.91,10.92,1.42,12.35,1.88,1.15,1.79,1.95,0,3.14-3.24,2.15-3.09,5.5,0,7.89,1.92,1.5,2.32,4-.21,4.74s-2,2.25-2,3.73c-.07,5.48,0,11,0,16.44,0,1.59.46,3.53-2.2,3.53-1.16,0-2.36-.07-2.37,1.71s1.18,1.73,2.35,1.65c1.76-.11,2.31.69,2.24,2.37-.08,2.13-1.64,1.95-2.84,1.74-4.57-.77-5.29,1.73-5.21,5.45.06,2.66,1.42,6.41-3.66,6.26-.26,0-.83.7-.79,1,.61,4.36-2.56,3-4.78,3.3-1.49.16-3.71-.91-4.05,1.6-.39,2.76,1.9,2.12,3.41,2.15s1.93.78,1.94,2.18c0,1.66-.93,1.87-2.22,1.86-2.17,0-4.35.17-6.49-.05-3.39-.35-5.54.28-4.73,4.39.53,2.7-.9,3.61-3.39,3.23-3.89-.58-5.05,1.38-4.73,4.88.14,1.65.14,3.32.13,5,0,.78.14,2.29-.54,2.17-4.66-.89-7.93,2-11.56,3.9-.26.14-.71-.09-1,0-3.82,1.83-3.6-5.32-6-3.29-1.83,1.55-2.55,4-5.68,3.31-2.35-.49-3.9.26-3.36,3.09.66,3.44-.64,4.76-4.22,4.34-2.23-.27-5.37-1-4.79,3.23-4.07-.45-4.41,5.81-8.92,4.87-2-.42-4.22-.11-3.7,3,.23,1.36-.48,1.73-1.66,1.73-.92,0-1.79-.18-1.65-1.27.6-4.61-2.72-3.45-5.16-3.54-1.66-.06-3.33,0-5,0-1.86-.06-3.37.26-3.25,2.62.07,1.32-.24,2.18-1.87,2.24-1.81.06-1.84-1.05-1.69-2.23.29-2.37-.94-2.79-2.94-2.66a26.4,26.4,0,0,1-5.48,0c-3.65-.52-5.24.63-4.67,4.5.16,1,1,2.81-1,3.33-1.5.41-2-.49-2.8-1.85-1-1.63-3.19-2.48-4.21.45-.82,2.38-2.5,1.91-3.67.89-3.78-3.32-4.74-3.23-8.3-.12-1.35,1.18-3.92,2-4.94-1a1.87,1.87,0,0,0-3.32-.75c-.72,3.6-3.37,2.32-5.39,2.44-1.74.1-3.27-.06-3.23,2.53s-3.21.86-4.09,2.54c-1.32-2.07-2.21-4.47-4.38-5.9-1.18-1.06-2.79-.94-4.16-1.5a2.59,2.59,0,0,1-1-.89c-.55-.64-.16-2.05-1.38-2-.52,0-.48,1-.62,1.58l-.27.6c-3.83.78-6-.17-5.19-4.66a28.22,28.22,0,0,0,0-5.44c0-1.59-.09-3,2.22-2.78,1.21.14,2.41,0,2.09-1.78-.29-1.55-1.54-1.54-2.68-1.55-.81,0-1.63.33-2.45.31-1,0-2.5.53-2.68-1.25-.14-1.3-.36-2.84,1.7-2.81,1.66,0,1.8-1,1.82-2.25s-.76-1.44-1.85-1.65c-3-.56-2.07-3.46-.85-3.6,3.56-.4,2.64-2.66,2.65-4.58,0-2.16-.41-4.42,3.07-3.95,1.11.15,1.77-.67,1.77-1.87,0-1.56-1-2-2.27-1.86-1.88.21-2.68-.34-2.58-2.39.11-2.25,1.65-1.61,2.81-1.64,3.3-.09,6.61-.08,9.92-.11,1.33-4.14,4.12-5,8-3.58,3.14,1.84,5.09,5,8,7.17,1.6,1.2,1.49,3.15,1.66,5s-.67,4,1.12,5.53c5,.59,10.16,2.43,14.42-2.11.58-.63,1.91-1.08,2.25-.63,3.14,4.13,7.09-1.87,10.56,1.1,4.21,3.61,10.88,2.55,16,0,4-2,7.8-4.57,12.3-5.9A54.7,54.7,0,0,0,628.15,257c1.49-.87,3.13-2.4,4.38-1.14,2.83,2.84,4.42.33,6.23-1a77.18,77.18,0,0,0,8.19-7.25c2.25-2.18,4-4.86,7.65-4.94,1.56,0,2.17-1.46,2.24-2.87.21-4,2.78-4.81,6.14-4.85a48.75,48.75,0,0,0,9.14-.38c-1.8-1.93-3.33-3.68-3.15-6.3.19-2.8,2.58-3.62,3.95-5.37,2.07-2.63,4.55-4.82,6.75-7.29,3-3.41,3-6.73-.28-9.89-1.31-1.26-2.67-2.51-3.9-3.83-3.66-3.93-1.57-8.33,4.92-10.59.09-1.47-1.34-1.71-2.1-2.43-4.42-4.21-4.44-4.18-1.26-9.46,1.54-2.55,1.11-10.41-1-12.73-2-2.12-2.32-4-.15-6,2.64-2.36,1.82-6.41,4.67-8.46-.92-1.7-2.45-1.24-3.63-1.62-2.15-.69-3.44-2.49-2.19-4.1,2.47-3.19.39-4.84-1.56-6.53-2.76-2.39-5.26-4.26-.48-7.41,2.33-1.54,1.12-4.64-1.83-5.49-4.84-1.4-8.68-3.87-10.19-9-.51-1.71-2-2.58-3.14-3.79-2.2-2.44-4.83-4.5-4.87-8.3,0-2.4-2.47-3.52-3.93-4.91-4-3.78-7.16-8.76-13.51-9.3-2.4-.2-3.39-1.9-2.45-4.34a14,14,0,0,1,2-2c-.89.48-1.35,1.46-2.24,2-1.83.75-3.13,0-4.32-1.38-1.73-1.94-3.68-2.09-5.54-.25-3.15,3.11-6.66,2.94-10.4,1.42-.49-3-.49-3,1.13-4.88C605.59,86,596.51,84.2,587.5,83.4c-1.56-3.23-4.84-3.11-7.66-3.91-1.15-.6-1.41-2-2.34-2.81-1.47.52-1.4,2.24-2.61,2.78-4.32,1.57-8.91.12-14,1.22,2.55,2.81,3.39,5.52-.1,7.84-.54.36-1.1,1.26-.81,1.71,2.32,3.61,1,8,2.13,11.43,2.3,7,2.25,9-4.67,11,2,3.21,3.48,6.49.49,9.87-.62.7-.89,1.5-.19,2.19,2.81,2.78,1.23,7.63,4.79,10.08.47.32.42,0,.19.37-2.55,4.13,1.31,7.75.84,11.7s-4.76,5-6,8.53c.25,1.1,1.47.72,2.31,1,3.8,1.3,4.39,3.26,1.63,6-1.62,1.62-4.73,4.3-4.15,5,2.21,2.71,1.68,6.36,3.94,8.93a10.43,10.43,0,0,1,.33,13.11c-3.81,4.66-4,9.61-.14,14.62,2,2.57,2.64,4.6-.6,6.48-.9.39-1.42,1.31-2.22,1.74-2.84,1.54-2,2.86.13,4.19a16.65,16.65,0,0,0,3,3.2c1.84,1.56,2,3.53.24,5.1-1.89,1.71-2.41,3.8-2.67,6.11a4.92,4.92,0,0,1-.55,1.29c-.51.93-2.27.88-2.09,2.15.11.8,1.31.52,2.06.64a8.41,8.41,0,0,1,2.23.33c3,1.61,2.85,3.54.59,5.69-.83.54-1.75,1-1.84,2.18-.26,3.09.17,6.17-.1,9.24-.19,2.12-.33,4.37-3.31,4.48-3-1.37-4.71-4.25-7-6.47-1.75-1.41-4.17-.61-6-1.82-1-.93-.16-2.4-1-3.4-1.19-1.79-3-.82-4.56-1-1.71-.19-3.48.51-3.84-2.45s-3.24-.95-4.89-1.52c-1.21-.41-3.2.9-3.41-1.65-.14-1.67.64-2,2.17-2.51,2.33-.77,2.17-2.9,0-3.49s-2.42-1.41-2.13-3c.36-2,2.07-1.06,3.23-1.25.81-.13,1.66,0,2.48,0,1-.12,2.55.52,2.6-1.35a1.73,1.73,0,0,0-2.27-1.91c-2.73.74-2.55-.89-2.52-2.65,0-3,.09-6,0-8.95-.07-1.84,1.16-4.41-2.71-4.35-1.45,0-.74-3.23-.62-3.23,3.22,0,2.79-4.95,6.25-4.47,2,.27,1.94-1.12,2-2.55,0-1.65-.52-2.5-2.27-2.39a15.71,15.71,0,0,1-3,0c-1.14-.16-2.89.78-3.14-1.33-.21-1.78,1.25-1.43,2.32-1.76,2.4-.72,1-2.77,1.16-4.19.24-1.89-.42-3.57,2.77-4,2-.28,2.55-4.22,5.45-4.72a5.1,5.1,0,0,0,.09-1.34c-4.21-.31-3-7.64-8.4-6.48-1.08.23-2.88.76-3.33-1.09-.5-2.06,1.18-1.81,2.46-2.07,1.75-.35,1-1.87,1-2.84q.07-22.65,0-45.29c0-1.45.41-3.07-2.11-2.9-1.75.12-1.44-1.47-1.42-2.55s.76-1.74,1.94-1.73,2.33.06,3.49,0,2.57.36,2.83-1.23c.28-1.83-1-2.29-2.51-2.12-1.78.19-2.25-.55-2.26-2.25,0-2.21,1.44-1.8,2.69-1.79s2.2-.43,2.19-2c0-1.13-.52-2.39-1.48-2.2-5.1,1-2.87-2.84-3.37-4.86l.46-.45a26.41,26.41,0,0,1,3-1.09,14.55,14.55,0,0,0,2.33-2.75c-1.13.19-1.14,1.26-1.75,1.74a3.68,3.68,0,0,1-2.89.49,2.44,2.44,0,0,1-1.27-.86c-.5-1.36,1.64-3.83-1.65-4-1.11-.06-1.94-.23-1.85-1.62.08-1.14.68-1.54,1.73-2,3-1.29,3.1-3,0-4.23-1-.42-1.8-.59-1.73-1.87,0-1-.08-2.19,1.33-2.14,3.65.1,1.78-2.65,2.27-4.18.64-.67,1.7-.76,2.25-1.62-1.1.16-1.48,1.11-2.11,1.76-2.53.31-4.11-.19-3.8-3.35a82.27,82.27,0,0,0,.05-8.46c0-1.66-.24-3,2.29-3.49s1-3,1.26-4.63c.27-2,.41-2.93,2.71-4.43a18.84,18.84,0,0,1,9.59-3.09c.89-.06,1.18-1.07,1-2-.36-1.49.54-1.65,1.64-1.64s2.07-.14,2.1,1.37c0,1.16-.1,2.57,1.66,2.41,5.54-.5,8.46,2.73,11,7,.65,1.12,2.64,1.18,4,0,.49,1.15.43,2.63,2.21,3.39.19-2-2.1-2-2.35-3.31-.5-2.35-1.5-6,.5-6.6,2.25-.64,6.69-3,8.1,2.42.16.63,3.33,1.64,4.24-1.1,1-2.91,2.15-2.34,3.51-.19,1.59,2.48,6.64,2.55,8.15.18s6.95-2.48,8.54-.33c2,2.67,2.39,2.65,4.5-.29,1.06-1.49,7.57-1.68,7.73-.14.38,3.49,2.73,2,4.38,2.31,2.11.34,5.39-1.29,4.87,3.16-.13,1.09.91,1.23,1.76,1.15,1-.1,2.11-.4,1.79-1.76-.77-3.3,1.66-2.66,3.25-2.46s4.34-1.6,4.31,2.11c0,3.1,2.46,2.26,4,2.11,3.5-.33,4.88.89,4.44,4.43-.24,1.94-.47,4,2.78,4,3.43-.07,2.29-2.43,2.56-4.2.2-1.36-.84-3.31.92-4,2.36-.86,1.83,1.57,2.48,2.69.5.86,1.28,1.79,2.34,1.62,2.95-.49,2,1.77,2.41,3.14a17.48,17.48,0,0,1-2.51,1.87A13.93,13.93,0,0,1,658.2,64c-.41,2.38.56,3.44,3,2.95,5.05-1,6.34,1.35,5.7,5.92-.32,2.27.13,4.64-.09,6.93-.29,2.86,1.11,3.43,3.49,3.08l.5.44c1.3,2.37,2.6,2.31,3.87,0q.25-.23.51-.42c2.61-.41,3.46.71,3.26,3.28-.18,2.33-.85,5.38,3.43,4.61.71-.13,1.49.43,1.26,1.08-1.47,4,2,6.26,3.27,9.3.12.3.23.88.34.88,6.06-.18,3.92,5,5.61,7.7,1.26,2,3.77,5.75,8.39,4.62,3.73-.92,2.2,2.65,2.42,4.41s.39,4-2.72,2.59c-.61-.23-1.12-.67-1.74-.89A5.06,5.06,0,0,0,700.48,121.18Z"/><path d="M37.53,211.84c-1.22,2.81-1.61,5.12,2.73,5,1.17,0,1.62,1,1.47,2.05-.14.92-.82,1.27-1.73,1.35-2.41.2-4.87-.5-7.24.44a4.5,4.5,0,0,0-1.38-2.12c.13,1,1.28,1.18,1.53,2a29.77,29.77,0,0,0,.32,3.42c.32,1.45-1.13,3.53,1,4.29,2,.69,2.16-1.25,3.17-2.36,1.59-1.75,4.7-.88,7.06-.44,1.19.22,1.06,1.86.06,2.77-3.94,3.59-3.82,8.26.09,12.35,1,1.05,1.33,2.78-.89,3.27-.94.21-2-.08-3,.11-1.47.31-3.89-1.22-4,2-.1,2.64,1.25,3.06,3.46,2.53a1.63,1.63,0,0,1,1.17.51c-.39,3.86,2.42,6.46,3.57,9.64,1.46,4-3.72,9.59-7.5,9.15-.62-.16-1-.72-1.61-.92a3.2,3.2,0,0,0,1.68.79c-1.44,1.55-.46,3.46-.74,5.18-.15,1-.12,2.74-.36,2.78-5.35.74-2.64,4.85-3.23,7.53-.79,3.64,1.15,4.57,4.33,4.17l-.14-.13c-1.25,3.36-.39,6.86-.63,10.29-.09,1.37,0,2.73,2,2.62,1.5-.09,3.23,0,3.19-2.12,0-1.64.43-2.59,2.19-2.41,5.54.59,7.92-2.77,9.26-7.38.41-1.41,1.52-.91,2.39-1,1.12-.1,1.91.28,1.95,1.6s-.09,2.74,1.94,2.75,1.95-1.31,2.43-2.84c1-3,3.84-1.05,5.83-1.49,2.29-.51,2.27,1.15,2.19,2.72a10.9,10.9,0,0,0,0,2c.23,1.58-.94,4,2.21,3.92,3-.09,2.48-2.25,2.68-4.23.15-1.5-1.37-4.29,1.46-4.24,2.11,0,6.07-2.61,6.31,2.65.09,2,1.88,1.6,3.07,1.47,1.83-.2,4.94,1.14,5.22-1.08.5-3.91,2.83-3.37,5.19-3.2,3,.2,7.33-1.83,7.16,4,6.51.95,3.47,5.28,3.07,8.67-2.84,2.78-3.67-.69-5.37-1.84-.9,1.47-.45,2.7.85,3.21,1.66.64,3.6,1.1,4.36-1.45l9.84.38c1.33,1.16.59,3.22,2.09,4.63.8-2.46-.85-3.42-2.22-4.5l.2-5.62-.12.15c1.72.81,3.57,1.65,3.79-1.34.11-1.52.72-1.92,2.08-2,.75,0,2.11-.4,2.12-.67.29-6.49,5.18-2.74,8-3.62l-.15-.12c1.39,2.71,2.77,2.58,4.15,0l-.13.13c2.48-2.7,6.78-.07,9.13-3.12l-.14.13c1.47.37,3.86-1.58,4.14,1.77.16,1.83,1.77,1.1,2.75,1.12,3.65.09,7.82,1.14,10.85-.24,3.86-1.77,6.6-1.72,10.21.11,1.76.9,4.63-.35,4.67,3.19,0,.47.8,1.05,1.34,1.38,1.19.71,3.9,0,2.95,2.68-.75,2.16-2.87.73-4.34,1s-3.55-.64-3.53,2.15c0,2.38,1.63,2.57,3.37,2.64a27,27,0,0,1,3,0c1.7.27,4.12-1.24,5,.8,1.11,2.63-1.82,1.85-3,2.6a1,1,0,0,0-.3.89c2.42,5.39-4.54,6-5.05,9.95-.1.82-1,.61-1.59.75-2.39.59-6.61-2-6.29,3.59,0,.17-3.13,1.45-3.06-1.14.08-3.12-1.89-2.43-3.59-2.45-3.16,0-6.32,0-9.48,0-1.89,0-4.26-.65-4,2.7.13,1.57-1.2,1.23-2.11,1.25s-2.1.11-2-1.39c.13-3.83-2.79-2.43-4.61-2.51s-4.67-1.08-4.27,2.71c.12,1.15-.83,1.2-1.7,1.2s-1.84-.22-1.77-1.24c.24-3.27-2-2.73-4-2.73-2.11,0-4.51.61-4.25-3,.11-1.61-1.53-1.39-2.66-1.4-2.49,0-5,.05-7.48,0-1.05,0-2.54.63-3-.94-.35-1.27-.16-3-2.18-2.35a2.81,2.81,0,0,0-1.71,3.7c1.24,4.25-1.24,4.28-4.21,4a19,19,0,0,0-4,0c-3.14.43-4.58-.58-4.1-4,.18-1.33.73-3.29-1.33-3.75-1.52-.35-1.8,1.46-2.63,2.14-2,1.66-5.29,1.69-5.72,5.35-.06.51-2.56.37-2.37-1.67s-.87-2.59-2.68-2.54-1.81,1.09-2.26,2.5c-.71,2.24-3.76,3.08-4.18,5.74-1.36-.24-3.53,1.4-3.7-1.57-.06-1.16.13-2.4-1.7-2.27-1.15.08-2.1.58-2,1.7.2,1.73-.22,2.38-2,2.33-1.53,0-2.22-.25-2.52-2.07-.44-2.66-5.07-2.32-4.89-6.06,0-.41-3.54-.77-3.79,2-.21,2.13-.18,4.29-.25,6.43l.12-.13c-2.91.64-7.48-2.89-8.26,3.4-.12,1-1.93.93-2.74-.28-3-4.51-2.93-4.49-5.43-.25-1,1.63-3.25,1.6-3.26.16,0-4.27-2.88-3.46-5-3.12-3.06.49-7.9-2.73-8.65,3.69-.08.61-2.47.82-2.66-1.21-.11-1.15-.06-2.88-1.57-2.45-4.66,1.31-7.15-2.09-10.36-4.12-1.38-.87-.82-1.93-1-2.94C3.87,310,5.46,307.13,1,307c-1.33,0-1.14-6.11-.28-6.27,6.46-1.23,3-6,3.32-9s.69-5.07,4.32-4.58l.53.44c1.37,2,3.32,3.35,5.31,1.48s0-3.19-1.49-4.3l-.43-.53c-.9-3.63.73-4.77,4.14-4.25,2.88.44,4.3-.56,4.13-3.74-.15-2.82-.67-4.79-4.15-4.07S12,271.33,12,267.92c0-2.93,2.51-7.56-3.5-8.29-.14,0-1.39-2.88,1-3.36,1.31-.26,2.64,0,2.7-2s-.86-2.26-2.41-2.2c-1.4.05-1.61-.89-1.53-2,.13-1.77,1.52-1.44,2.6-1.42,3.22.06,6.81.8,6.8-4.25.14-.28.29-.54.45-.8a6.92,6.92,0,0,0-.3.91c-4.93.08-6.41-2.47-5.69-7a28.16,28.16,0,0,0,0-6c-.11-2,0-3.67,2.77-3.22,2.2.37,2.13-1.54,2.7-2.79,1.1-2.11,4.18-.63,5.28-2.83-3.36-1-3.36-1-5.16,2.94-3.66-.39-6.66-1.25-5.64-6.12.34-1.59.23-3,2.43-2.77,1.45.13,2.6-.22,2.56-2.13,0-1.76-.94-2.43-2.51-2.2-2.69.39-2.43-1.37-2.41-3.06,0-3.15-.08-6.3,0-9.45.1-2.91-1.48-6.69,3.83-7.06,1.32-.09,1.4-2,.95-3.41,0-.37.89-.87.48-.8-1.77.3-3.48.73-5.18-.22,0-6.63-.1-13.26-.09-19.89,0-1.34-.62-3,2-3.06,2.29,0,2.89.92,2.73,3-.11,1.32.13,2.67,0,4-.54,4,.36,6.47,5.16,5.52,2.66-.53,3.62.82,3.24,3.35-.56,3.78.84,5.25,4.62,3.88.34,1.9,1.84,1.89,3.41,2-1.1-.94-2.94-.29-3.55-1.88-1.15-2.19-.67-4.57-.48-6.79.34-4.23-.57-6.66-5.53-5.85-1.11.18-3.24,1.11-3.43-1.42-.17-2.28,1.63-1.57,2.79-1.63,4-.22,1.63-3.2,2.07-4.87s0-3.22-2.49-3.08c-2.65.15-5.31.07-8,0-1.06,0-2.46.42-2.49-1.47,0-1.34.31-2.23,1.91-2.21s3.15.16,3-2.18c-.14-1.81-1.35-2.15-2.79-2-1.94.24-2.11-.8-2.12-2.34s.68-2,2.11-1.9c1.28.06,2.85.29,2.78-1.79s-1.75-2.05-3.24-2.08c-1,0-2,.07-3,0s-2.45.53-2.58-1.37c-.09-1.35.14-2.22,1.84-2.08.54.05,1.63-.59,1.63-.9-.08-4.54,3.5-3.53,6-4.09-.1.5.32.89.27,1.38.16-.52-.33-.83-.38-1.28-.9-1.09-.36-3.49-2.93-3.09-1.44.23-2.56-.09-2.57-2s.81-2.31,2.42-2.21c1.46.08,2.6-.22,2.51-2.12-.1-2.27-1.69-2-3.17-2.05a20.32,20.32,0,0,1-2.47,0c-1.26-.18-3,.82-3.26-1.74s1.46-2.4,3.05-2.56c1.06-1,.36-2.58,1.85-3.66,4.1-3,3.91-4-.5-6.53a1.81,1.81,0,0,1-.78-1.18c-.34-2.46.59-5-.54-7.4-1.07-.53-3.3.89-3-1.89.12-1.32-.16-2.76,1.89-2.75,1,0,2-.15,2.05-1.54a1.54,1.54,0,0,0-1.86-1.74c-3,.21-2.1-2-2-3.4s-1.29-4,1.81-4.22c1.37-.1,2.11-.46,2.08-2-.07-4,0-8,0-11.94,0-1.37-.46-2.36-2.05-2-1.86.45-1.92-.72-1.87-1.95,0-1-.5-2.62,1.44-2.42,3.11.32,2.46-1.83,2.48-3.55,0-3.32-.1-6.64,0-9.95.11-2.61-1.49-6.25,3.73-6.08,1.33.05,1.31-3.08.71-3-4.15.71-3.93-4.22-7.1-5-2.75-.67-.92-3.68-1.25-5.62-.2-1.13-.6-2.85,1.65-2.73,3.24.17,2.18-2.3,2.17-3.84s1-4-2.1-4-1.65-2.37-1.68-3.66-1.23-3.61,1.77-3.61c.84,0,2-.2,1.89-1.14-.48-4.23.6-7.07,5-8.94.91-.39,2.13-1.54,3.6-1.71,2-.24,5.07,1.16,4.6-3C25,0,26.1,0,26.92,0a1.63,1.63,0,0,1,1.9,1.74c.05.91-.09,2.66,1.09,2.26,4.52-1.51,6.77,2.94,10.41,3.57.43.08,1.16.48,1.17.74.09,3.67.41,7,3.55,9.83a3.58,3.58,0,0,1-2.34,5.58c-2.27.6-1,10.76,1.45,12.29,1.83,1.16,1.44,2.32.18,3.44-3.58,3.18-3.48,4.64.24,8.37,1,1,1.6,2.62-.86,3.2-3.2.75-2.49,2.63-.74,4.09,3.13,2.62,3.11,5.26-.07,8.09-2.17,1.94-.84,4.69-1,7.07s.69,5.33-3.52,4.66c-1-.16-1.52.47-1.48,1.48,0,.79,0,2.33.6,2.15,4.38-1.32,3.55,4.51,6.81,4.77,1.22.09,1,1.53.89,2.47-.11,1.49-1.32,1.17-2.24,1.2-1.16,0-2.33,0-3.49,0s-2.41,0-2.54,1.63c-.14,1.78.82,2.35,2.46,2.12s2.48.21,2.49,2.07c0,2-1.18,2.07-2.61,2-1.22,0-2.37,0-2.35,1.69s1.16,1.62,2.39,1.64c3.35.06,1.85,3.16,2.88,4.68l.11-.11c-1.91.29-5.12-2.09-5.26,1.8-.08,2.18-2.54,6.44,3.13,6.25,2.39-.08,1.61,2,1.64,3.33.17,6.88.25,13.77.36,20.66l-.62.53a9.69,9.69,0,0,1-7.79-.19c-2.55-1.62-1-4.94-2.77-7.37-1.66,3.58.46,5.27,2.38,7,1.18,1.09.82,2.81,1.84,4.35,2-1.15,3.89-4.14,6.49-1.06.19,3.31-.82,6.83,2,9.61.42.41-.06,1.23-.49,1.76-.39.27-1.13.57-1.11.83.22,4.06-.24,7.68-5,8.93-.06,3.31-3,3.31-5.51,4.38a8.42,8.42,0,0,1,3.07,6.91c2.24-3.26.19-6.68,2.59-8.88,3.93-.64,5.09,3.4,7.77,4.92,1.31.74.08,3.54-2.74,3-1.25,2.39-.24,5-.58,7.41-3.1,1.85-1.15,3.7,0,5.55-.31,3.55.59,7.15-.54,10.65-.65.09-1.29.21-1.93.27-1.09.1-2.47-.27-2.36,1.59.08,1.36,1.06,1.53,2.08,1.39,2.58-.35,3,1,2.9,3.18a85.58,85.58,0,0,0,0,9.34c.25,3.74-1.46,4.19-4.42,3a8.46,8.46,0,0,0-1.28-.54A10.36,10.36,0,0,0,37.53,211.84Z"/><path d="M281.79,229.33a4.31,4.31,0,0,1,4,1.54c3.42,4.38,7,5.37,12.65,3.29,3.08-1.14,4.44.81,4,3-.48,2.44.37,4.55.43,6.81.07,3.38,1.8,4.84,5.56,5.46,8.77,1.45,11.46,1.16,7.79,12.05-.43,1.3-1,2.71.62,3.45,1.41.65,3.07,1.82,4.53.09,1.76-2.09,4.11-1.68,6.42-1.85,3.62-.27,5.36,1.13,4.93,4.86-5.39-1-7.6,3.19-9.74,6.59-1,1.58-1.77,1.46-3,1.52s-1.25-.73-1.32-1.63c-.13-1.58.26-2.6,2.13-2.37s2.32-.72,2.28-2.34c-.06-2.23-1.78-1.73-2.88-1.55-4.35.69-6.18-.87-5.37-5.32a6.66,6.66,0,0,0-.44-2.34c-4.19,1.38-6-3.11-6.84-4.68-1.77-3.3-7.43-3.92-6-9.54.88-3.53-3.05-2.84-4.95-2.65-4.1.4-7.45.61-6.45-5.14.36-2.09-1.07-2.71-2.73-2.39C281.13,237.43,281.15,233.67,281.79,229.33Z"/><path class="cls-1" d="M542.52,245.27c1.16.82.84,2.06.92,3.18,1.15,3.6,5.07,1.84,7.13,3.69a.91.91,0,0,1-.42,1.14c-3-.1-6.22-.52-8,2.84.69-2.36.37-3.83-2.66-3.65-2.14.13-4.32-.42-6.45-.26-3.69.27-4.36-1.34-3.21-4.42l-.1.13c3.59,1.52,7.29.06,10.93.39C543,248.53,542.22,246.5,542.52,245.27Z"/><path class="cls-2" d="M41.15,193.18l.07-11.53a3.86,3.86,0,0,1,0-4.36c.21-2.59-1.4-5.43,1-7.72.28,3.09-2.67,7.15,2.66,8.81.32.1.48,2.12.29,2.2-6.27,2.6-2,8.1-3.38,12C41.73,192.81,41.38,193,41.15,193.18Z"/><path d="M542.5,300.89c1.52,2.29,5.73,3.14,3.84,7.23l.13-.07c-.72.54-1,1.13-.18,1.83-.48,1.92-2.8,1.51-2.92,1-.79-3.3-4.35-2.1-5.9-3.95,1.66-1.13,4-1.69,3.89-4.37A2.62,2.62,0,0,1,542.5,300.89Z"/><path class="cls-3" d="M488.45,161.59c0-1.82,0-3.64-.05-5.46,0-1.16.36-1.93,1.68-1.83.76.07,2-.33,2.12.65.27,1.93.61,4.06.06,5.84s-2.54.63-3.92.69Z"/><path class="cls-3" d="M43.19,149.45c-1.64-3.67-2.6-7.44-1.94-11.49-1.07-1.54.18-2.38,1-3.34l-.14.17c1.17-.15,2.63-1.12,3,1,.22,1.09-.27,1.49-1.4,2C41,139,41,144.31,43.54,146S45.89,148.05,43.19,149.45Z"/><path class="cls-4" d="M658.2,64c-2.9.45-6.77-2.66-8.44,2.54-.35,1.09-2.43.54-3.66.27-1-.23-.8-1.31-.72-2.07.15-1.52,1.29-1.69,2.53-1.68.82,0,1.65,0,2.47-.06C653,63.21,655.85,61.64,658.2,64Z"/><path class="cls-5" d="M339.58,117.7c1.42.16,3.18-.74,4,1.28q-2.35,1.24,0,2.49c-.82,2-2.57,1.12-4,1.28a3.58,3.58,0,0,1-.79-.58c-1.06-1.32-4,1.11-4.09-2s3-.79,4-2A2.88,2.88,0,0,1,339.58,117.7Z"/><path d="M12.22,110.67c-1.65,2.37,1.23,6-2.23,7.89-3.54-1.32-1.34-4.26-1.66-6.41s1.87-1,2.9-1.48c.41-.4.78-.36,1.08.13Z"/><path class="cls-6" d="M343.57,176.48c1.57.34,4-.84,4,2.23a6.81,6.81,0,0,0-3.92,2.85l0-.13c-1.56-.08-3.72,1.39-4.3-1.37C338.7,176.58,342.66,178.24,343.57,176.48Z"/><path class="cls-7" d="M670.26,82.84c.47-1.6-1.24-4.3,2.67-4.08,3.58.2,1.88,2.52,2.21,4.07l.11,0a3.65,3.65,0,0,1-5.13,0Z"/><path class="cls-8" d="M53,319.35c.78-.13,1.55-.3,2.34-.37,1.45-.12,2.56.13,2.52,2,0,1.36-.39,2.19-1.89,2.21s-3.1.33-2.84-2a18.12,18.12,0,0,0,0-2Z"/><path class="cls-9" d="M488.34,161.48l.12,4.12.11-.07a3.73,3.73,0,0,1-5.14,0l.09.11a3,3,0,0,1,0-4.14l-.07.11h5Z"/><path class="cls-10" d="M269,122.76c-1.42-.16-3.22.78-4-1.34,1.23-1,2.9-1.38,3.87-2.75l0,.14c1.66-.19,4.07-1.3,4.45,1.12C273.77,122.91,270.16,121.29,269,122.76Z"/><path class="cls-10" d="M116.28,294.66c-.42.21-.89.65-1.26.58-1.37-.27-3.47,1.26-4-1.35-.26-1.45.16-2.36,2-2.53,2.87-.26,3.38,1.14,3.07,3.46Z"/><path class="cls-3" d="M542.43,302.84c.78,4.3-1.59,4.81-5,4.1V303l.57-.52A4.24,4.24,0,0,1,542.43,302.84Z"/><path class="cls-11" d="M413.63,205.36c1.41,1-.37,4.75,3.41,4,.74-.16,1,1.12.91,2s-.68,1-1.37,1.07c-1,0-2.61.26-2.65-.65-.16-3.51-2.64-2-4.31-2.3C410.87,208,414.25,208.64,413.63,205.36Z"/><path class="cls-12" d="M317.65,216.44a1,1,0,0,1,.94,0c1.45.8,4.51-1.08,4.33,2.26-.15,2.93-2.75,1.17-4.19,1.67l.06.11C317.7,219.31,317,218.06,317.65,216.44Z"/><path class="cls-13" d="M12.27,188.42c1.75-.48,4.7,1.89,5-2.26.06-1,1.65-1,2.5-.46a1.74,1.74,0,0,1,.3,2.58c-.73.69-2,.8-3.06,1.16C15.35,189.33,13.5,190.28,12.27,188.42Z"/><path class="cls-1" d="M529.78,247.79c-1.74,1-3.4,1.37-4-1.17-.28-1.14-.09-2.32,1.58-2.47,3.41-.31,1.52,2.54,2.31,3.78Z"/><path class="cls-14" d="M527.57,177.78c1.52-.23,1.93.64,1.94,2,0,1.06-.13,1.94-1.5,1.85-1.09-.08-2.37.17-2.35-1.59C525.67,178.69,526.11,177.82,527.57,177.78Z"/><path class="cls-8" d="M430.56,172.56c1.69.32,3.47.23,3.31,3s-1.69,2.14-3.28,1.9l0,.15a3.68,3.68,0,0,1,0-5.13Z"/><path class="cls-8" d="M37.55,287.26c-.59-1.58-1.32-3.27,1.5-3.18,1.16,0,3.11-.46,2.71,1.63-.51,2.62-2.83,1.12-4.36,1.41Z"/><path class="cls-15" d="M529.33,94.79l1.14,0c.66,1.38-.3,2.18-1.1,3l0-.16c-1.4.31-3.27,1.11-3.55-1C525.46,93.78,528,95.06,529.33,94.79Z"/><path class="cls-3" d="M42.15,102.86c1.76-.45,3.16-.49,3.1,2,0,1.45-.58,2.24-2,1.83-2.35-.69-1-2.55-1-4Z"/><path class="cls-6" d="M8.32,287.13c-1-4,1.77-3.07,3.92-2.91l0-.15c.83,3.87-1,4.27-4,3Z"/><path class="cls-16" d="M537.47,303c-2.46.42-4-.06-2.91-3l-.19.16a2.14,2.14,0,0,1,3.1,0l-.13-.13a2.17,2.17,0,0,1,0,3.12Z"/><path class="cls-17" d="M12.31,110.8l-1.08-.13v-7.88C13.5,105.21,11.63,108.17,12.31,110.8Z"/><path class="cls-16" d="M546.29,309.88c-1.19.4-2.93,1.12-3-.73-.07-2.29,1.86-1.37,3.17-1.1Z"/><path class="cls-18" d="M240.89,130.72c-.14,2.87-2.27,6.09,2.6,7.74,1.69.58.56,3.83.55,5.88.93,2.45,5.1,1.77,5,5.18,1.81-.17,3.33-.08,3.15,2.45a20.36,20.36,0,0,0,.06,5.94c.63,2.69-2.1,6,3,8.17,2.21.94,4.07,3.54,7.26,3.21,1.72-.17,3.1.35,2.72,2.41s1.52,5.35-1.65,5.9-3,2.28-3,4.48c0,3,0,6,0,8.94,0,1.07.49,2.47-1.45,2.38-1.13-.06-2.67.19-2.83-1.31-.51-4.88-4.28-3-6.42-2.66-2.71.44-1,3.23-1.22,5a11.06,11.06,0,0,1-5.54,0c-3.58-2.46-7.6-.68-11.39-1.15-2-.25-4.56.67-4.57-2.82,0-1-.87-1.3-1.78-1.26s-1.73.32-1.64,1.38c.26,2.85-1.69,3-3.52,2.61-3.61-.8-8.74,2.79-10.59-3.61-.24-.83-2.64-.66-2.62.72.07,4.08-2.79,2.73-4.83,2.94-1.52.17-2.88-.39-3.57,2.15-.79,2.91-4,1.06-6.07,1.33-2.38.3-1.78-1.72-2-3.11s.92-3.65-1.35-4.26c-2.11-.56-3.29.5-3.46,2.85-.09,1.26-2.25,1.23-2.32,1-.92-3.13-5.66-3.56-5.51-6.87.18-4-1.25-5.36-5-5a3.52,3.52,0,0,1-1.52-2.55,1.49,1.49,0,0,1,.53-1.05c1.82-.57,2-2,1.91-3.59-.11-2.35-.94-4.71,3-5.36,1.65-.28,1.58-3-1-3.15-2-.15-2.14-1.11-2-2.55.2-1.69,1.56-1.62,2.65-1.43,5.4.93,5.41-2.38,5.42-6.24,0-2.28-2.11-5.62,2.84-6.37,1.82-.28,1.37-2.85-1-3.16-1.53-.21-2-.77-2-2.16s.74-1.81,2.12-2c2.64-.38,2.39-2.93.81-3.2-5.25-.89-2.2-4.46-2.75-6.82,3.24-1.09,5.31-2.86,4.45-6.73-.38-1.7.37-3,2.38-2.7,4.51.72,6.35-1.06,5.65-5.56a2.54,2.54,0,0,1,.76-1.76,12.94,12.94,0,0,0,2.94-3.9,4.25,4.25,0,0,1,.94-1c2.63-1.54.17-2.23-.55-3.21a1.86,1.86,0,0,1,.12-1.33c.17-3.89,3.61-5.2,6-7.17.85-.7,1.88-1,2-2.24-.59-2.53-5.79-1.42-4.38-5.61.38-1.13-.33-2.73,1.54-3.08,1.62-.3,2.34.6,2.68,2.07.14.65.77,1,1.34,1.33.64.07,1.76,0,1.86.23,1.49,4.07,5.86,4.72,8.58,7.31s.3,5.67,1.56,8.29c1.09,1.11,4,.25,3.42,3.18-.76,3.92,1.19,5,4.72,4.47a4,4,0,0,1,2.88.39c1.33.9.1,3.7,3.11,3.58,2.11-.08,1.66,2.22,1.49,3.55-.45,3.48,1.18,4.3,4.29,4.09,1.81-.13,4.79-1.39,4.12,2.62C244.37,131.24,241.53,129.43,240.89,130.72Z"/><path class="cls-19" d="M197,114.79c-.55.61-1.58,1.23-1.56,1.81.18,4.56-1.22,7-6.45,6.36-2.42-.31-2,2.18-1.93,3.69.31,3.71-1.56,5.06-5,5,2.7-2,4.12-4.29,3.84-8-.21-2.72,2.68-1.42,4.25-1.82,1.4-.35,3.91,1,3.92-1.49,0-2,2.09-5.2-2.14-5.88-1.51-.24-1.6-1.58-1.32-2.73.46-1.88,2.11-1,3.29-1.19a3.61,3.61,0,0,1,1.23,1.48C195.62,113.09,196.55,113.76,197,114.79Z"/><path class="cls-20" d="M231,114.68c-4.33.51-9,1.59-8.27-5.55.16-1.6-2.29-1.13-2.75-2.49,1.68,0,3.47.07,3.24-2.48-.17-1.8.9-2.26,2.44-2.21,1.11,0,2,.46,2.07,1.64s.72,3.09-1.17,3.23c-4.39.33-2.59,3.54-2.54,5.51.07,3,2.73,1.27,4.22,1.67C229.14,114.25,230.22,113.82,231,114.68Z"/><path class="cls-21" d="M208,90.81c-.32,0-.65-.08-1-.14-1.44-.29-.79-3.24-3-2.44-1,.34-.8,1.33-.84,2.12-.1,1.72-.07,3.32,2.28,3.58,1.17.13,1.59,1,1.39,2.17-2.86-1.2-5.66-2.34-4.59-6.44.37-1.41-.21-2.52-2.12-2.44-1.69.06-1.51-1.38-1.55-2.52s.41-1.87,1.7-1.84,2.28,0,2.6,1.55C203.44,87.39,208.17,87.14,208,90.81Z"/><path class="cls-4" d="M157.3,154.62c1-1.36,3.6-.79,3.44-3.82-.12-2.24,2.62-1,4.08-1.16s1.15,1.22,1.23,2.14c.15,1.78-.29,2.85-2.45,2.53a3.25,3.25,0,0,0-3.35,1.63A3.37,3.37,0,0,1,157.3,154.62Z"/><path class="cls-22" d="M174.11,137.11c-.22,1.55.26,3.79-2,4-2.61.2-2.57-2.1-2.55-3.92,0-1.58-.41-3.85,1.82-4C173.87,133,173.91,135.26,174.11,137.11Z"/><path class="cls-23" d="M344.2,66.7c1.8.08,3.6.13,5.4.26a2,2,0,0,1-.15,4.09c-1.92,0-4.18.67-5.63-.13-1.26-.7-.93-3,.52-4.29Z"/><path class="cls-24" d="M240.89,130.72l3.11-2.2a17,17,0,0,1,6.15,5.95,3.92,3.92,0,0,1-1.29,3.2C246.47,135.06,244.47,132,240.89,130.72Z"/><path class="cls-25" d="M230.91,202.42c-1.43-.1-3,.36-4.55-1.36,2.29-1.1,4.56-.23,6.59-.67,2.63-.58,5.73,1.66,8.07-1.6a2,2,0,0,1,2.85,2.64c-2.56,1.79-5.42.88-8.16.8C234.1,202.19,232.48,201.47,230.91,202.42Z"/><path class="cls-26" d="M215.44,225.65c-.14-.1-.27-.27-.4-.27-2.51.08-5,.1-4.93-3.45,0-2.1,1.78-1.58,2.92-1.49,3.83.33,2.88,2.9,2.29,5.25Z"/><path class="cls-27" d="M430.62,172.45c0,1.71,0,3.42,0,5.13-1.85,0-4.44,2.08-5-1.73C425.05,171.43,428.62,173.07,430.62,172.45Z"/><path class="cls-28" d="M180.17,71.11c-2.15,0-2.84-1.44-2.21-2.21A14.34,14.34,0,0,1,184.2,64c1.27-.45,2.26,1,1.64,1.38C183.37,67,181.84,69.38,180.17,71.11Z"/><path class="cls-29" d="M249.08,149.52c-.85-2.53-4.83-2-5-5.18,1.77,1.32,3.51,2.49,4-1,.21-1.6,1.35-1.58,2.52-1.6s1.7.72,1.77,1.83-.18,2.28-1.7,2.43C247.89,146.21,248.65,147.93,249.08,149.52Z"/><path class="cls-30" d="M230.91,202.42c4.18-2.19,8.66-.42,13-1h0c.62.65,1.48.45,2.23.61a.93.93,0,0,1,.82,1c-.06.57-.57.59-1,.43A69.41,69.41,0,0,1,230.91,202.42Z"/><path class="cls-31" d="M166.28,177.5c-.11-1.91-.15-3.83-.32-5.73-.25-2.59,1.3-2.42,3-2.08,1,1.89.4,3.91.46,5.87C169.51,177.87,168.35,178.5,166.28,177.5Z"/><path class="cls-32" d="M260.31,146.06c-.12,1.64.43,3.7-2.23,3.4s-1.57-2.42-1.63-3.82-.72-3.65,1.92-3.55C261.34,142.2,259.89,144.69,260.31,146.06Z"/><path class="cls-33" d="M212.88,51c-1-.33-2.79.7-2.86-1.57-.08-2.51,1.62-2.39,3.33-2.41,1.47,0,2.53.19,2.61,2C216.07,51.68,214.22,50.84,212.88,51Z"/><path class="cls-34" d="M194.19,113.06l-.28-2.44c-.68-3.88,2.88-3.75,4.85-5.11l.15,1a3.16,3.16,0,0,1,0,4.28l.08-.07A9.39,9.39,0,0,1,194.19,113.06Z"/><path class="cls-35" d="M411.87,185.26c1.47,0,2.75.28,2.52,2.15s-1.78,1.57-3.07,1.62-2.28-.39-2.26-1.93C409.1,185.12,410.53,185.26,411.87,185.26Z"/><path class="cls-36" d="M469.73,209.37c-2.09.2-2.24-1-2.24-2.42s.45-2.38,2.18-2.43c2.17-.06,2.25,1.26,2.29,2.82C472,209.09,471.15,209.69,469.73,209.37Z"/><path class="cls-11" d="M480,176.09c.06.75-.24,2-2.39,1.88-1.79-.05-2.15-.95-2.13-2.49s.14-2.88,2.32-2.84C479.67,172.67,479.89,173.77,480,176.09Z"/><path class="cls-32" d="M141.07,250.49c.05,2.36-1.63,1.61-2.79,1.76-1.64.21-2.4-.37-2.29-2.15.12-2.09,1.57-1.6,2.81-1.72C140.52,248.21,141.25,248.93,141.07,250.49Z"/><path class="cls-23" d="M353.64,204.57c1.53-.19,2.45.36,2.5,2.09s-.16,2.88-2.32,2.77c-1.44-.08-2.6-.12-2.55-2C351.31,205.78,351.45,204.39,353.64,204.57Z"/><path class="cls-37" d="M293.85,191.68c.08,1-.26,1.82-1.84,1.84-1.8,0-2.18-1-2.15-2.47s.44-2.52,2.19-2.48C294.08,188.61,293.78,190.07,293.85,191.68Z"/><path class="cls-38" d="M288,185.4c-2.28.23-3.25,0-3.16-2,.1-2.36,1.72-1.83,3.1-1.95,1.58-.13,2.37.33,2.36,2.13C290.22,186.12,288.46,185.33,288,185.4Z"/><path class="cls-13" d="M361.67,137.89c1.44,0,2.66.06,2.81,1.91s-1,2.14-2.43,2.1c-1.11,0-2.38.22-2.41-1.55C359.62,138.9,359.84,137.71,361.67,137.89Z"/><path class="cls-39" d="M382.38,157.63c1.35,0,2.19.46,2.25,2s-.55,2.5-2.24,2.56-1.84-1-1.82-2.28S380.66,157.49,382.38,157.63Z"/><path class="cls-40" d="M166,159.91c0-1.24.19-2.24,1.78-2.25s2.22.88,2.2,2.44-.8,2-2.12,2C166.33,162.1,165.84,161.27,166,159.91Z"/><path class="cls-41" d="M425,185.35c1.8,1,1.58,2.32.29,3.35a3.75,3.75,0,0,1-2.75.23c-.9-.2-1-1.23-.87-2,.39-2.31,2.28-1.17,3.53-1.49Z"/><path class="cls-27" d="M136.11,287.06c-.43,1.68,1.14,4.6-2.06,4.61s-1.21-3.11-2.09-4.6Z"/><path class="cls-42" d="M166.28,177.5c5.25-1.1,1.7-5.24,2.7-7.81,2.05,1.36.75,3.39.94,5.09.17,1.49.05,2.86,2.05,3a5.56,5.56,0,0,0-.08.82,8.13,8.13,0,0,1-1.89,2.71C169,179.81,168.36,177.94,166.28,177.5Z"/><path class="cls-43" d="M171.94,110.66c1.41-.08,2.14.51,2.06,2a1.69,1.69,0,0,1-1.83,1.81c-1.3,0-2.25-.29-2.33-1.83S170.55,110.59,171.94,110.66Z"/><path class="cls-44" d="M467.26,125.2c.33-1.81.11-4,3.16-3.48,2,.37,1.78,2,1.35,3-1.14,2.64-2.93,1.54-4.59.4Z"/><path class="cls-38" d="M469.62,181.51c1.3-.08,2.27.05,2.31,1.71s-.46,2.41-2.2,2.29c-1.2-.07-2.21,0-2.22-1.74S467.9,181.26,469.62,181.51Z"/><path class="cls-45" d="M243.13,194.45a4.62,4.62,0,0,1,5.54,0l.2,2c-1.57,1.23-3.29.47-5,.38A1.62,1.62,0,0,1,243.13,194.45Z"/><path class="cls-32" d="M152.86,246c.18,1.68-.29,2.67-2.06,2.68-1.59,0-1.79-1-1.79-2.25s0-2.67,2-2.53C152.43,244,153.06,244.72,152.86,246Z"/><path class="cls-46" d="M341.64,248.36c1.57.06,2,.95,2,2.29-.07,1.68-1.29,1.61-2.46,1.63-1.4,0-1.5-.9-1.51-1.95C339.64,248.9,340.22,248.16,341.64,248.36Z"/><path class="cls-47" d="M467.48,165.68l2-.13c1.5-.11,2.52.17,2.5,2.06,0,1.54-.65,1.95-2.05,2s-2.63-.17-2.36-2.09c.09-.64.07-1.31.1-2Z"/><path class="cls-27" d="M483.52,161.49v4.14c-1.41-.5-3.95,1.1-4-2S482.09,162,483.52,161.49Z"/><path class="cls-11" d="M467.27,161.08c.57-1.17-.32-3.22,2-3.35.78,0,1.82-.46,2.2.45s.66,2.19.24,2.77c-1.33,1.8-3,1.34-4.51,0Z"/><path class="cls-17" d="M177.86,80.61c.21,1.51-.27,2.33-1.8,2.38-1.37.05-2.22-.31-2.15-1.91.05-1.25.16-2.32,1.79-2.35C177.09,78.71,178,79.21,177.86,80.61Z"/><path class="cls-48" d="M258.18,157.79c-1.66.07-1.94-.91-1.81-2.2s.84-1.61,2-1.63c1.47,0,2,.76,2,2.1C260.35,157.68,259.36,157.89,258.18,157.79Z"/><path class="cls-49" d="M343.68,181.56c-.34-3.2,0-5.43,3.92-2.85,0,.94,0,1.88,0,2.82l.1-.09Z"/><path class="cls-50" d="M206.9,228.17a3.23,3.23,0,0,1-1,.14c-1.4-.23-3.52,1-3.83-1.61-.2-1.61,1.07-1.71,2.25-1.82,2.82-.25,2.78,1.47,2.41,3.43Z"/><path class="cls-50" d="M485.85,188.9c-1.17,0-2.33,0-2.35-1.69s1.06-1.74,2.28-1.73,2.76-.09,2.62,1.91C488.27,189.07,486.94,188.79,485.85,188.9Z"/><path class="cls-51" d="M422.2,193.92c.3,2.16-.49,2.62-1.62,2.55s-2.45.55-2.82-1.08.52-2,1.92-2C420.77,193.45,422,193.21,422.2,193.92Z"/><path class="cls-4" d="M317.65,216.44c1.22,1.1,1,2.61,1.14,4-1.34-.64-3.86,1.27-4.05-1.89C314.6,216.28,316.19,216.47,317.65,216.44Z"/><path class="cls-52" d="M347.64,181.53c1.67-.07,3.49-.29,3.65,2.1.09,1.24-.8,1.74-1.94,1.61-2.74-.31-1.48-2.36-1.61-3.8Z"/><path class="cls-4" d="M192.28,71.08c-1.78-.07-1.52-1.4-1.51-2.52,0-1.34.92-1.58,2-1.5,1.68.12,1.69,1.31,1.6,2.51S193.4,71.15,192.28,71.08Z"/><path class="cls-53" d="M183.73,114.45c1.33,0,2.19.44,2.16,2,0,1.23-.71,1.73-1.83,1.79-1.37.07-2.18-.42-2.12-2C182,115,182.53,114.45,183.73,114.45Z"/><path class="cls-54" d="M174.15,121.7c-.5-1.84-.39-3.29,2.06-3.29,1.23,0,1.89.68,1.7,1.84-.44,2.79-2.5,1.13-3.9,1.31Z"/><path class="cls-55" d="M268.88,118.67c.36,3.23-1,4.09-3.87,2.75C264.94,118.6,266.28,117.74,268.88,118.67Z"/><path class="cls-40" d="M256.19,120.15a1.54,1.54,0,0,1-1.68,1.9c-1.23,0-2.31-.13-2.38-1.76a1.62,1.62,0,0,1,1.74-1.88C255.11,118.33,256.22,118.51,256.19,120.15Z"/><path class="cls-50" d="M405.79,196.44c-.28-1.49-.77-3,1.64-3.18,1.19-.07,2.07.35,2,1.54-.21,2.86-2.35,1.37-3.76,1.51Z"/><path class="cls-27" d="M260.2,109c0,1.23-.77,1.63-1.91,1.67-1.58,0-2-.86-1.88-2.18s.69-1.67,1.88-1.71C259.91,106.77,260.12,107.82,260.2,109Z"/><path class="cls-56" d="M343.58,121.47c-1.22.44-2.51,1.14-3.61-.14a1.68,1.68,0,0,1,0-2.25c1.12-1.21,2.41-.55,3.64-.1Z"/><path class="cls-57" d="M157.3,154.62c1.17,0,2.34.06,2.95,1.32,1.12,2.17-.54,2.13-1.77,2C156.19,157.62,157.1,155.94,157.3,154.62Z"/><path class="cls-25" d="M245.87,203.44c.49-1.82-2-.73-2-2,1.78,0,3.57-.12,5.27,1.4C248.17,203.81,247.39,205,245.87,203.44Z"/><path class="cls-58" d="M248.86,137.67c0-1.21-.05-2.5,1.29-3.2,1.93-.24,2.42.91,2,2.4C251.56,138.7,250.12,138.08,248.86,137.67Z"/><path class="cls-31" d="M170,181.28c0-1.32,0-2.71,1.89-2.72.35.93.71,1.86,1.07,2.79Z"/><path class="cls-25" d="M243.91,196.84l5-.38C247.44,199.44,245.66,197.94,243.91,196.84Z"/><path class="cls-59" d="M362.8,106.47v-3.84c.36,0,.78-.1.85,0C364.38,103.81,364.55,105,362.8,106.47Z"/><path class="cls-18" d="M559.37,209.39c1.19-.58,3.19,0,3.13-2.35,0-1.67-1-1.77-2.31-1.79s-1.59-1-1.66-2.05c-.18-2.85,1.18-6.39-3.59-7.1-.78-.12-.48-2.49.08-2.49,3.06,0,3-2.9,4.5-4.27,4.26-3.89,4.32-8.08-.16-11.82-.92-.77-.74-1.74-.85-2.69-.27-2.29,1.33-5.49-3.16-5.68-1.08-.05-.92-2.88-.59-2.87,3.38.09,3.16-4.14,5.8-4.62,1.47-.26,2.06-.93,1.9-2.31-.25-2-1.76-1.46-3.05-1.44a15.76,15.76,0,0,1-3.44-.15c-1.91-.38-1.5-3-1.18-2.95,3.9.09,2.84-5.22,6.56-5.65,2.07-.23,1.63-6.23-.59-7.06-1.14-.43-2.21-.4-2.26-2,0-1.8.92-2.27,2.47-2.32a1.49,1.49,0,0,0,1.5-1.61c.06-1-.35-1.68-1.36-1.62-2.92.19-2.56-1.83-2.6-3.65-.06-2.28.91-4.79-3.08-5.32-1.66-.22-1.53-3.13.67-3.38,2.92-.33,2.46-2.1,2.39-3.84s.8-3.86-2.27-3.89c-1.53,0-1.82-1.24-1.65-2.5.23-1.76,1.72-1,2.72-1.34,1.77-.54,5,1.57,5.05-1.94.06-2.14,2.31-5.7-2.75-6.45-1.55-.22-2.36-3.34,1-4,1.07-.21,1.94-.42,1.91-1.74s-.86-1.65-2-1.69c-2.74-.11-2-2.24-1.93-3.69.06-1.72-1.12-4.31,2.31-4.35,1.29,0,1.66-.91,1.58-2-.07-.94-.58-1.58-1.58-1.52-2.12.13-2.5-1.1-2.35-2.83.22-2.43,2.13-1.66,3.42-1.67,4.48,0,9,.09,13.45.15l.47.41q1.47,3,2.93,0l.47-.4c1.6-.07,3.21,0,4.79-.22,3.13-.41,4.07.95,3.39,3.83,3.67,2,7.63.49,11.44.84a38.85,38.85,0,0,0,8.42,0c3-.38,4.36,1,5.28,3.45,2.88-1,7.36,2.8,8.75-3.13.37-1.57,7.39-.88,7.59.8.4,3.3,2.69,2.13,4.41,2.45l-.1-.13c.42,1.66-.7,4.82,2.65,3.94,5.18-1.35,6.8,3.34,9.94,5.3,2.66,1.66,3.74,5.32,7.13,6.39.4.13,1,.76.94,1-1.11,6.19,3.31,8.7,7.49,11.4.24.15.55.62.48.79-2.18,5.35,4.25,6,5.33,9.59.35,1.2,2.1.39,3.16.67,1.64.44,4.7-1.38,4.53,2-.12,2.32,2.53,6.38-2.89,6.7-1.65.1-1.63,2.4-1,2.39,3.49,0,3.12,4.7,6.3,4.79,1.29,0,1.59,1,1.63,2.06s-.43,2-1.65,2c-1.8,0-2.41.89-2.12,2.49s1.77,1.09,2.83,1.18a19.89,19.89,0,0,0,3,0c1.85-.1,2.71,2,2,2.32-4.66,1.92-2.35,8.21-6.71,10.13-1.6.71-1.64,2.87-.62,3,5.18.82,2.89,4.66,3.24,7.32a41,41,0,0,1,0,6.46,4.34,4.34,0,0,1-.45,2.37c-.83,1.11-4.35-.31-3.2,2.29a11.85,11.85,0,0,0,5.62,5.29c1.77.83,2.33,1.54,2.1,3.18-.29,2.07-2,1-3.13,1.44-1.6.6-4.67-1.64-4.66,1.73,0,2.17-2.12,5.26,2.59,6.6,4.05,1.16,6.13,8.93,5.34,13.4-.49,2.75-3.06,1.46-4.4,3.06-2.08,2.48-3,6.31-7.06,7.22-2,.46-.87,2.88-1,4.41-.16,1.34-.14,2.81,1.9,2.67,1.65-.11,2.55.54,2.48,2.25-.09,2.44-2,1.71-3.33,1.77-2.32.1-4.66.12-7,0-4-.2-7.84-.52-6.65,5.61.51,2.6-1.83,2.14-3.41,2.21-2.17.1-4.74-.84-4.66,3.12,0,2.14-3.22,1.15-4.39,3.69-1.72,3.73-7,4.82-9.38,8.7-.55.88-3,.72-3-1.67,0-1.64-.87-1.91-2.2-1.84-1.13.05-1.94.3-1.81,1.69s-.75,2.05-2.12,2.1c-2.74.12-6.1-.94-6.63,3.52,0,.25-1.47.4-2.27.5-2.47.3-5.78-1.33-6.29,3.21-.11.91-2.08.55-3.22.61-2,.1-4.61-.73-4.44,2.86,0,1-.75,1.4-1.66,1.41q-6.74,0-13.47,0c-1.69,0-1.7-1.23-1.67-2.42s-.67-1.76-1.83-1.81c-1.44-.05-2.17.51-2,2.06.15,1.34-.26,2.23-1.87,2.22s-2.66-.2-2.51-2.12c.1-1.4-.53-2.19-2-2.15-1.7.05-1.71,1.18-1.64,2.41.13,2.11-1.43,1.85-2.72,1.83-4.48,0-9-.13-13.45-.2-1-2.22-.32-4.57-.49-6.85-.19-2.44,1-5.45-3.26-5.82-1-.09-.93-1.91-.27-3,2,0,3.36-.44,3.21-3.06-.24-3.95,0-7.91,0-11.87,2.08,0,1,1.6,1.3,2.5a4.83,4.83,0,0,0,.83,2.6c-.48-.36-.73-1.54-.79-2.81.16-1.12-.45-2.36.49-3.37,1.24-.09,2.13-.48,2.12-2s-1.11-1.76-2.16-2.13c-1.59-1.23-1.33-3.15-1.79-4.8.41-2.63-1.94-6.35,3.27-7.12,1.11-.16,1.48-3.35-.78-3.53-3.23-.24-2.25-2.57-2.84-4.17l.37-.56c2.48-1.08,1.53-2.46.35-3.88C558.93,211.16,558.7,210.2,559.37,209.39Z"/><path class="cls-60" d="M612.59,86.74c-1.54-2.41-3.65-3.13-6.54-2.95-4.74.28-9.52.13-14.29,0-1.52,0-3.39.7-4.31-1.35,7.4.89,14.83.17,22.24.41,1.46,0,2.7-.11,2.4-2.06-.45-3,1.93-1.9,3.22-2.13,1.53-.27,1.86.79,1.92,2.13.08,1.7-.58,2.45-2.28,2.31C612,82.91,612.36,84.87,612.59,86.74Z"/><path class="cls-61" d="M555.37,256.26c0,.33-.06.86.11,1,5.93,3.7,3.5,9.59,3.91,14.73-1.77-1-1-2.69-.84-3.9.89-5.9-1.92-9.5-6.92-11.87-1.34-.63-1.18-1.85-1.48-2.91l.27-1.15a1.91,1.91,0,0,1,0-2.85C550.87,252.45,555.83,252.44,555.37,256.26Z"/><path class="cls-50" d="M562.82,54.7a2.58,2.58,0,0,0,.46.18c1.93.25,4.57-.73,4.29,2.95-.19,2.39-1.84,2.19-3.18,1.92-3.62-.71-2.15-3.07-1.44-5.13Z"/><path class="cls-23" d="M670.12,82.79h5.13c-.7,1.58,1.22,4.52-2.59,4.51S670.7,84.44,670.12,82.79Z"/><path class="cls-62" d="M559.37,209.39c0,1,0,2.06,0,3.1.7,1.59,0,2.83-1.06,3.94l-.12.09c-1.6.31-3.4,1-3.77-1.55-.29-2,.92-2.57,2.67-2.51C559.33,212.53,557.56,209.64,559.37,209.39Z"/><path class="cls-48" d="M533.45,95c0-.8.15-1.61.12-2.4-.06-1.3.65-1.79,1.8-1.8.78,0,1.88-.27,2,.85s.56,3.11-.6,3c-2.81-.33-2,2.39-3.35,3.15A1.86,1.86,0,0,1,533.45,95Z"/><path class="cls-63" d="M529.57,74.9c0-1.19-.92-2.7.83-3.36,1-.37,2.14-.94,3.2.06a2.14,2.14,0,0,1,.62,2.21c-.32,1.32-1.45,1.06-2.36,1.09a22,22,0,0,1-2.43-.14Z"/><path class="cls-64" d="M575.4,78.87c.41-1.56-1.63-4.39,1.89-4.34,3.12,0,2.21,2.47,2,4.34l.12,0a2.94,2.94,0,0,1-4.1,0Z"/><path class="cls-65" d="M558.4,236.23c-1.87.63-3.71.76-3.91-1.78-.24-3,2.38-1.73,3.82-2.22A3,3,0,0,1,558.4,236.23Z"/><path class="cls-66" d="M633.34,86.86c-.14-1.63-1.46-3.74,1.69-4,1.66-.13,2.53.57,2.29,2.26-.41,2.85-2.33,2-4.08,1.59Z"/><path class="cls-11" d="M700.48,121.18c-.43.18-.91.59-1.29.51-1.38-.29-3.41,1.15-4-1.33a1.51,1.51,0,0,1,1.39-2c2.41-.39,3.59.67,3.8,3A1.48,1.48,0,0,1,700.48,121.18Z"/><path class="cls-67" d="M533.45,95l0,2.78a5.29,5.29,0,0,1-4,.09,4.19,4.19,0,0,1,1.1-3Z"/><path class="cls-23" d="M535.93,185.42a1.65,1.65,0,0,1,1.84,1.76c.06,1.2-.65,1.67-1.81,1.68s-1.8-.51-1.77-1.71S534.64,185.29,535.93,185.42Z"/><path class="cls-68" d="M558.4,236.23l-.09-4a3.45,3.45,0,0,1,.24-.89,6.19,6.19,0,0,1,1.79,4.8Z"/><path class="cls-69" d="M560.38,240.25c0,1.34,0,2.68,0,4-.29.47-.59.47-.89,0-.17-1,0-2.19-1-3C558.5,239.85,559.27,239.77,560.38,240.25Z"/><path class="cls-70" d="M33,310c-3.79-.33-7.58-.73-11.37-1-2-.12-3.92-.08-4.82-2.8,2.77-.15,4.69,2.72,7.37,1.78.79-1,2.1-1.18,3-2l5.32-4.51A9.69,9.69,0,0,1,34.21,307C34.31,308.17,34.29,309.34,33,310Z"/><path d="M18.48,91.09c-2-1.45-6.34,1.94-6.31-2.11,0-3.13,4.29-1.46,6.6-1.88s6.23-.47,6.09,2C24.64,93,20.57,89.66,18.48,91.09Z"/><path d="M8.19,287.07c2.66.75,4.09-.12,4-3,2.31.12,4.69-.7,4.66,3.49,0,4.95-3.22,3.13-5.59,3.64C7,292.12,8.6,288.9,8.19,287.07Z"/><path d="M17.73,225.64c-.53-1.67-1.89-3.71-.15-5s4.17-.56,6.28-.36c1.69.16,1.24,1.68,1.31,2.74.1,1.47-.84,2-2.16,2.12l-5.41.34Z"/><path d="M27,55c2.18-.09,2.22,1.19,2.25,2.61,0,1.77-.92,2.29-2.49,2.21-2.17-.11-1.42-1.78-1.53-2.93C25.06,55.49,25.6,54.64,27,55Z"/><path class="cls-22" d="M50.12,309.06c-.15,2-1.53,1.91-2.89,1.93s-2.13-.58-2.1-2.05c0-2,1.46-1.84,2.8-1.84S50.13,307.68,50.12,309.06Z"/><path class="cls-71" d="M35,154.33c-2.12.16-1.75-1.39-1.85-2.65s.16-2.14,1.81-2.15,2.33.56,2.26,2.28C37.15,153.37,36.73,154.35,35,154.33Z"/><path class="cls-72" d="M169.9,297.66c.12,1.54-.34,2.48-2.12,2.47-1.58,0-1.9-.87-1.82-2.17s-.26-2.73,1.76-2.77C169.46,295.16,170,296.16,169.9,297.66Z"/><path class="cls-32" d="M41.23,177.29c1.18,1.45.66,2.91,0,4.36-1.45-.77-4.38,1.24-4.39-2.12S39.84,178.22,41.23,177.29Z"/><path class="cls-40" d="M32.91,220.53c-1.34-.64-3.41.88-4.19-1.41-.28-.84-.26-1.79.53-2.15a3.93,3.93,0,0,1,2.74-.35c2,.85,1.41,2.5.78,4Z"/><path class="cls-73" d="M37.16,41.53c.06,1.28-.29,2.19-1.79,2.35-1.77.19-2.26-.65-2.23-2.25,0-1.33.34-2.15,1.91-2.06C36.37,39.64,37.27,40,37.16,41.53Z"/><path class="cls-73" d="M26.85,158c-1.58.19-1.69-.91-1.67-2.14s.1-2.23,1.78-2.2,2.24.89,2.23,2.45S28.21,158,26.85,158Z"/><path class="cls-74" d="M103.17,308.93c.08,1.36-.42,2.14-1.92,2.06s-2.14-.66-2.07-2.07a1.78,1.78,0,0,1,1.85-1.81C102.39,307,103.23,307.41,103.17,308.93Z"/><path class="cls-11" d="M20.26,69.45c-.05,1.14.08,2.39-1.68,2.3-2-.11-1.69-1.58-1.75-2.84s.56-2.08,2-2C20.72,67.05,20.12,68.43,20.26,69.45Z"/><path class="cls-23" d="M86.15,297.67c0,1.09.28,2.35-1.52,2.41-1.58.05-2-.8-1.92-2.12s-.12-2.75,1.89-2.72C86.37,295.27,86.07,296.58,86.15,297.67Z"/><path class="cls-75" d="M77.73,295.32c.65,0,.4,1.33.43,2.39s.26,2.31-1.49,2.38c-1.5.06-2-.66-2-2S75,295.5,77.73,295.32Z"/><path class="cls-47" d="M33.21,194.61c-.16,2.29-1.56,1.75-2.58,1.83s-1.89-.29-1.79-1.62c.14-1.81,1.53-1.28,2.56-1.35S33.38,193.68,33.21,194.61Z"/><path class="cls-57" d="M37.53,211.84c-.27.18-.6.57-.8.52-1.22-.32-3.14,1.11-3.52-1.31a1.29,1.29,0,0,1,1.21-1.68c2.2-.41,2.83.79,3,2.6Z"/><path class="cls-38" d="M18.39,51c2.18.1,1.78,1.43,1.84,2.48s-.27,1.84-1.59,1.84c-1.6,0-1.81-1-1.78-2.24S17.2,50.81,18.39,51Z"/><path class="cls-38" d="M20.23,254.18c0,1,0,2-1.43,2s-1.92-.77-2-2.12.58-2.05,2-2S20.24,253.18,20.23,254.18Z"/><path class="cls-76" d="M17.63,137.36c2.27.11,3,1.3,2.56,3.47a1.4,1.4,0,0,1-2.22,1c-1.95-1.29-1.2-3-.24-4.57Z"/><path class="cls-77" d="M17.8,244.54c-.94-1.44-1.84-3,.2-4.13a1.41,1.41,0,0,1,2.24,1c.38,2.15-.59,3-2.6,3Z"/><path class="cls-78" d="M27.22,306.05a3,3,0,0,1-3,2C24.31,306,25.76,306,27.22,306.05Z"/><path class="cls-38" d="M298.16,237.81c.12,1.64-.36,2.56-2.18,2.48-1.3,0-2.28-.16-2.2-1.81.05-1.16-.15-2.42,1.63-2.32C296.64,236.23,298.24,235.74,298.16,237.81Z"/><path class="cls-79" d="M192.78,126c1.57.09,1.79,1.16,1.76,2.41a1.85,1.85,0,0,1-2.19,2c-1.69-.06-1.63-1.28-1.64-2.45C190.69,126.59,191.27,125.8,192.78,126Z"/><path class="cls-80" d="M194.19,113.06c.74-2.55,2.71-2.57,4.81-2.32,0,1.71-.31,3.23-2,4.05C195.79,114.6,194.61,114.43,194.19,113.06Z"/><path class="cls-81" d="M198.92,110.81c0-1.43,0-2.85,0-4.28,1.32.59,3.69-.53,3.67,2.22S200.36,110.51,198.92,110.81Z"/><path class="cls-82" d="M575.29,78.84h4.1c-.61,1.36,1.46,3.89-1.72,4.12C574.13,83.22,575.84,80.35,575.29,78.84Z"/><path class="cls-83" d="M558.32,216.43c.35-1.32.71-2.63,1.06-3.94,1.57.2,3.61,0,3.22,2.47C562.15,217.83,559.84,216.17,558.32,216.43Z"/><path class="cls-84" d="M559.51,244.29h.89c.32,1,1.25,1.89.66,3.22C559.67,246.73,559.56,245.52,559.51,244.29Z"/></g></g></svg>