<svg xmlns="http://www.w3.org/2000/svg" width="342.896" height="261.717" viewBox="0 0 342.896 261.717">
  <g id="Group_155" data-name="Group 155" transform="translate(1113.997 -523.26)">
    <path id="Path_36760" data-name="Path 36760" d="M-795.312,660.834c.484,4.244,2.139,8.193,3.763,12.108a74.971,74.971,0,0,1,3.75,11.236,7.127,7.127,0,0,1-.084,4.592,2.409,2.409,0,0,1-2.23,1.56,1.774,1.774,0,0,1-2.03-1.635c-.319-9.533-6.545-17.183-8.3-26.247-.228-1.174-.443-2.351-.7-3.52-.156-.713-.406-1.48-1.264-1.527-1.114-.062-1.328.862-1.468,1.7a8.853,8.853,0,0,0,.519,4.242c1.711,5.238,3.271,10.533,5.994,15.382a13.994,13.994,0,0,1,1.93,8.629c-.164,1.4-.643,2.7-2.234,2.838-1.643.146-2.289-1.094-2.55-2.48-.855-4.536-2.817-8.649-4.868-12.716-3.983-7.895-3.991-16.714-5.855-25.1-.605-2.723,1.7-4.506,3.766-5.621,3.113-1.678,4.019-4.177,3.985-7.407a21.507,21.507,0,0,1,.307-5.363c.8-3.18-.728-4.352-3.468-5.039-4.535-1.135-9.056-2.342-13.53-3.693a5.737,5.737,0,0,0-5.918,1.484c-3.568,3.142-5.541,7.5-8.558,11.066-.923,1.091-.583,2.53-.015,3.775,2.579,5.66,4.747,11.56,9.07,16.24a7.931,7.931,0,0,1,1.887,6c-.151,4.909,0,9.673,4.994,12.57a3.992,3.992,0,0,1,1.284,1.709,54.806,54.806,0,0,0,11.056,15.772c2.16,2.07,2.808,5.226,2.8,8.337-.015,6.353-.029,12.7.019,19.057.03,3.823-1.464,6.753-4.854,8.575-2.69,1.445-4.629,3.617-6.719,5.8a38.59,38.59,0,0,1-23.021,12.045,7.633,7.633,0,0,1-5.446-1.451c-3.006-2.077-5.9-1.792-8.47.731a31.273,31.273,0,0,1-8.391,5.479,99.212,99.212,0,0,0-21.469,14.229,11.032,11.032,0,0,1-3.032,1.888,86.608,86.608,0,0,1-49.971,4.827c-11.347-2.164-22.493-6.05-34.293-5.614-1.61.06-2.968-.855-4.418-1.412-4.032-1.548-6.786-.636-8.55,3.3A35.471,35.471,0,0,1-994.1,782.4a10.167,10.167,0,0,1-5.6,2.234c-12.229.058-24.544.884-36.666-.273-14.55-1.39-19.353-12.614-14.563-25.581a73.824,73.824,0,0,0,2.825-9.257c.8-3.542-.3-5.971-3.872-7.377a90.891,90.891,0,0,1-18.126-9.483c-3.324-2.275-7.349-2.873-11.068-4.17-2.469-.862-4.428,1.1-4.828,4.8-.341,3.14-.923,4.957-4.1,1.975-1.021-.958-2.267-.539-3.408-.133a13.312,13.312,0,0,1-8.134.109c-6.771-1.82-8.178-3.588-8.18-10.49,0-2.876.074-5.755-.019-8.628a12.1,12.1,0,0,1,2.156-7.807c1.945-2.684,1.725-5.017-.972-7.172-3.076-2.458-3.817-6.271-5.172-9.7a1.8,1.8,0,0,1,.884-2.46c1.057-.487,1.866.106,2.49.893a19.772,19.772,0,0,1,3.228,5.582c1.505,4.2,4.537,6.286,8.889,6.728a37.313,37.313,0,0,1,8.34,2.154c4.48,1.542,7.247,4.282,7.554,9.36a9.233,9.233,0,0,0,6.36,8.414c6.865,2.563,13.522,5.347,19.364,10.012,3.782,3.021,8.813,3.657,13.39,5.033a4.4,4.4,0,0,0,5-2.083,5.378,5.378,0,0,0-.5-6.417c-3.48-3.858-5.5-8.667-8.933-12.563-3.2-3.629-4.4-8.494-5.763-13.046-3.282-11-5.138-22.3-2.776-33.677.953-4.591,1.26-9.7,5.126-13.445,1.763-1.706,2.055-4.387,1.582-6.781a20.2,20.2,0,0,1,.407-9.957c2.28-7.442,4.92-14.817,8.845-21.526,4.641-7.934,13.04-10.547,22.218-6.874,4.816,1.927,7.966,1,11.444-2.563a55.029,55.029,0,0,1,21.524-14.026c7.194-2.42,14.788-4.235,22.618-4.229,5.779,0,11.409-1.477,17.019-2.682a90.439,90.439,0,0,1,21.017-2.3c3.445.076,5.446-1.356,6.451-4.476,1.176-3.65,2.276-7.323,3.49-10.959.589-1.762-.208-2.943-1.268-4.195q-13.345-15.763-26.629-31.579-1.85-2.2-3.562-4.511a3.31,3.31,0,0,1-.336-4.017A3.9,3.9,0,0,1-942.4,523.3a16.623,16.623,0,0,1,3.117.837c30.06,9.93,60.031,20.141,90.229,29.628,8.281,2.6,14.266,7.429,19.793,13.523,5.227,5.764,10.37,11.623,15.878,17.112,13.581,13.536,26.052,28.114,39.5,41.769a13.491,13.491,0,0,1,1.952,2.568c1.814,3.056.547,5.575-2.967,5.693a18.516,18.516,0,0,1-4.962-.627c-3.607-.889-7.176-1.936-10.756-2.932-2.338-.651-4.849-1.574-6.49,1.05a7.179,7.179,0,0,0,.243,8.437,6.984,6.984,0,0,0,2.392,2.129c3.82,1.95,5.031,5.1,4.889,9.2-.253,7.289,2.679,13.787,5.411,20.319,1.71,4.089,3.522,8.169,3.187,12.775-.1,1.427.032,3.147-1.918,3.334-2,.193-2.153-1.474-2.365-2.929-1.194-8.175-5.59-15.249-7.951-23.025a6.929,6.929,0,0,0-1.142-1.687Zm-251.976,20.833c0,3.956.19,7.923-.049,11.865a22.474,22.474,0,0,0,3.363,13.011,57.276,57.276,0,0,0,6.294,9.175c3.726,4.216,7.7,8.242,11.1,12.706,2.945,3.863,4.773,8.213,10.32,9.883,3.318,1,6.5,3.365,9.95,4.758,5.527,2.232,11.394,3.819,15.968,8a8.643,8.643,0,0,0,3.919,1.71c12.341,3.042,24.995,4.413,37.409,7.042,6.24,1.321,13.06-.83,18.864,3.251.745.524,2.11.255,3.182.211,3.824-.155,7.751-1.03,11.448-.44,10.326,1.648,19.576-.932,28.87-5.171,10.062-4.588,17.832-12.551,27.541-17.568a20.423,20.423,0,0,0,5.567-4.513,41.153,41.153,0,0,1,7.861-6.219c5.707-3.8,11.814-7.409,12.7-15.3a3.71,3.71,0,0,1,1.051-1.857c1.847-2.005,1.955-4.414,2.184-6.987,1.327-14.914-2.81-29.522-2.351-44.378a5.81,5.81,0,0,0-1.906-4.9c-5.179-3.931-7-9.538-8.166-15.519-.6-3.063-2.416-5.077-5.456-5.446-9.981-1.215-19.744-3.886-29.871-4.164a128.877,128.877,0,0,0-32.1,3.272,6.834,6.834,0,0,1-4.558-.366c-3.641-1.689-7.145-1.241-10.747.355a22.846,22.846,0,0,1-15.484,1c-2.224-.591-4-1.832-4.637-4.094-.907-3.236-3.1-4.039-6.059-3.555a20.246,20.246,0,0,1-6.784-.416c-1.7-.292-3.274-1.167-3.423-3.172-.14-1.9,1.3-2.808,2.809-3.289,2.967-.944,6.012-1.642,9-2.521,3.722-1.1,7.3-2.47,9.592-5.9,1.261-1.888,2.636-3.016,5.054-1.65,2.216,1.252,3.07,2.872,2.332,5.346a12.283,12.283,0,0,1-2.754,4.982c-.885.953-1.942,2.038-1.153,3.478.7,1.281,2.109,1.556,3.444,1.569a23.036,23.036,0,0,0,10.457-2.236c2.761-1.351,6.146-7.4,5-9.106-3.784-5.616-6.016-11.984-9.043-17.963-1.523-3.007-3.942-4-7.153-3.391-7.039,1.333-13.976,2.977-21.179,3.7-8.854.886-17.292,4.793-26.491,4.04a8.363,8.363,0,0,0-5.641,2.092c-7.341,5.785-14.616,11.656-22.052,17.317-5.071,3.859-8.783,9.256-14.3,12.534-2.261,1.342-3.613,2.961-3.9,5.6a6.945,6.945,0,0,1-3.644,5.464,24.125,24.125,0,0,0-9.528,10.939,7.553,7.553,0,0,1-2.349,3.091c-3.3,2.386-4.5,5.767-4.488,9.707C-1047.268,672.316-1047.279,676.992-1047.288,681.667Zm3.612,82.12c-.041,9.968,3.2,12.775,10.962,11.487a11,11,0,0,1,5.968.391c5.685,2.142,11.452,3.464,17.283.351,1.025-.547,2.1-.147,3.169,0,6.05.813,12.522-2.309,14.868-7.884,3.122-7.417,2.344-9.5-3.981-12.433-8.8-4.076-17.688-7.943-26.559-11.855a21.29,21.29,0,0,0-9.147-1.512c-4.351.081-7.383,2.144-8.845,6.114C-1042.031,754.072-1043.526,759.87-1043.676,763.787ZM-783.2,628.912c1.712-.284,3.544.221,3.98-1.626.482-2.037-1.307-2.539-2.77-3.094-.447-.169-.916-.285-1.378-.411-25.786-7.041-51.586-14.035-77.348-21.159-5.166-1.428-10.505-2.441-15.073-5.639-3.443-2.411-5.5-5.966-8.148-9.029-12.913-14.941-25.729-29.966-38.656-44.9-3.6-4.161-7.453-8.109-11.226-12.121-.836-.888-1.9-1.76-3.124-.758s-1.016,2.344-.313,3.594a9.1,9.1,0,0,0,1.109,1.406c16.491,19.127,33.135,38.125,49.4,57.441,5.978,7.1,12.476,11.932,21.937,14.232,24.68,6,49.05,13.279,73.55,20.029C-788.486,627.645-785.686,628.288-783.2,628.912Zm-28.864,80.121c-.227-2.62-.326-4.9-.651-7.143-.254-1.752-1-3.273-3.183-3.193-2.421.089-6.39,4-5.867,6.322.77,3.417-.723,5.95-2.038,8.809-1.747,3.8-3.147,7.642-6.247,10.741a4.689,4.689,0,0,0-.082,6.849c1.993,1.958,4.16.348,5.8-.941a36.6,36.6,0,0,1,7.082-4.851c3.571-1.657,5.105-4.375,4.761-8.367A27.219,27.219,0,0,1-812.059,709.033Zm-219.722-79.54c3.017.088,8.347-3.616,9.318-6.477a3.662,3.662,0,0,0-3.9-4.916,11.212,11.212,0,0,0-8.022,4.943C-1036.265,626.075-1034.806,629.4-1031.781,629.493Z" transform="translate(0)" fill="#fff"/>
    <path id="Path_36761" data-name="Path 36761" d="M-918.628,792.172c-7.575,1.318-15.948-1.178-24.2-2.674-6.727-1.221-13.135-5.1-18.543-9.759-3.788-3.263-7-7.07-11.486-9.657s-6.154-7.781-9-11.9c-4.165-6.028-2.529-12.6-2.549-19.045a3.133,3.133,0,0,1,2.25-3.334c1.684-.428,2.661.761,3.566,1.9,2.3,2.906,3.764,6.094,3.37,9.935-.682,6.641,1.7,11.252,7.365,15.459,7.559,5.609,14.494,12.073,22.545,17.091,1.462.912,2.831,1.8,4.591,1.749,7.552-.2,15.018.834,22.507,1.536,4.46.418,8.773.6,12.618-2.583,2.73-2.261,6.445-1.737,9.706-2.066,8.726-.883,16.209-4.028,22.133-10.587a5.757,5.757,0,0,1,5.579-1.72c3.152.514,4.218,3.122,2.046,5.444-5.21,5.57-11.062,10.259-18.592,12.409-5.758,1.645-11.526,3.218-16.949,5.894C-906.684,792.74-912.174,792.324-918.628,792.172Z" transform="translate(-36.039 -59.221)" fill="#fff"/>
    <path id="Path_36762" data-name="Path 36762" d="M-851.122,739.143a5.5,5.5,0,0,1-5.465-5.834,4.6,4.6,0,0,1,5.093-4.779,6.287,6.287,0,0,1,5.869,6.157C-845.648,737.23-848.089,739.209-851.122,739.143Z" transform="translate(-71.752 -57.217)" fill="#fff"/>
    <path id="Path_36763" data-name="Path 36763" d="M-938.861,711.012c-4.3-.037-5.612-1.588-5.578-5.386.027-3.143,2.106-5.762,4.646-5.854,2.475-.089,5.337,3.8,5.14,7.2A3.907,3.907,0,0,1-938.861,711.012Z" transform="translate(-47.263 -49.202)" fill="#fff"/>
  </g>
</svg>
