<svg xmlns="http://www.w3.org/2000/svg" viewBox="0 0 846.68 277.57"><defs><style>.cls-1{fill:#010101;}.cls-2{fill:#dcdcdc;}.cls-3{fill:#d3d3d3;}.cls-4{fill:#eaeaea;}.cls-5{fill:#141414;}.cls-6{fill:#b7b7b7;}.cls-7{fill:#131313;}.cls-8{fill:#e4e4e4;}.cls-9{fill:#e8e8e8;}.cls-10{fill:#d7d7d7;}.cls-11{fill:#3e3e3e;}.cls-12{fill:#d5d5d5;}.cls-13{fill:#d6d6d6;}.cls-14{fill:#242424;}.cls-15{fill:#030303;}.cls-16{fill:#1a1a1a;}.cls-17{fill:#363636;}.cls-18{fill:#2a2a2a;}.cls-19{fill:#c2c2c2;}.cls-20{fill:#111;}.cls-21{fill:#181818;}.cls-22{fill:#393939;}.cls-23{fill:#555;}.cls-24{fill:#0e0e0e;}.cls-25{fill:#0c0c0c;}.cls-26{fill:#313131;}.cls-27{fill:#414141;}.cls-28{fill:#222;}.cls-29{fill:#d52582;}.cls-30{fill:#727272;}.cls-31{fill:#de559d;}.cls-32{fill:#f0c5d9;}.cls-33{fill:#dfb7c9;}.cls-34{fill:#f8f5f7;}.cls-35{fill:#faf7f9;}.cls-36{fill:#55464d;}.cls-37{fill:#b097a2;}.cls-38{fill:#e0d9dc;}.cls-39{fill:#dbd5d8;}.cls-40{fill:#d1d1d1;}.cls-41{fill:#ede8eb;}.cls-42{fill:#faf7f8;}.cls-43{fill:#fefefe;}.cls-44{fill:#f8f8f8;}.cls-45{fill:#cfcfcf;}.cls-46{fill:#e3e3e3;}.cls-47{fill:#c9c9c9;}.cls-48{fill:#bcbcbc;}.cls-49{fill:#dedede;}.cls-50{fill:#c7c7c7;}.cls-51{fill:#d9d9d9;}.cls-52{fill:#cbcbcb;}.cls-53{fill:#aaa;}.cls-54{fill:#d8d8d8;}.cls-55{fill:#b5b5b5;}.cls-56{fill:#ededed;}.cls-57{fill:#cdcdcd;}.cls-58{fill:#dfdfdf;}.cls-59{fill:#efefef;}.cls-60{fill:silver;}.cls-61{fill:#f9f9f9;}.cls-62{fill:#fdfafc;}.cls-63{fill:#faeef4;}.cls-64{fill:#fdf9fb;}.cls-65{fill:#e6dde1;}.cls-66{fill:#f2f2f2;}.cls-67{fill:#f7f7f7;}.cls-68{fill:#f0f0f0;}.cls-69{fill:#fdfdfd;}.cls-70{fill:#d0d0d0;}.cls-71{fill:#f1f1f1;}.cls-72{fill:#e0e0e0;}.cls-73{fill:#c5c5c5;}.cls-74{fill:#e5e5e5;}.cls-75{fill:#ebebeb;}.cls-76{fill:#f4f4f4;}.cls-77{fill:#a78997;}.cls-78{fill:#c09dad;}.cls-79{fill:#e1b8ca;}.cls-80{fill:#e3dade;}.cls-81{fill:#f4eff2;}.cls-82{fill:#f6e2eb;}.cls-83{fill:#e5dbdf;}.cls-84{fill:#b0909e;}.cls-85{fill:#d7ccd1;}.cls-86{fill:#fbf3f7;}.cls-87{fill:#ececec;}.cls-88{fill:#f0c4d8;}.cls-89{fill:#fcf7f9;}.cls-90{fill:#ebc1d4;}.cls-91{fill:#e6e6e6;}.cls-92{fill:#e1e1e1;}.cls-93{fill:#f3f3f3;}.cls-94{fill:#e9e9e9;}.cls-95{fill:#efe7ea;}.cls-96{fill:#d6c9cf;}.cls-97{fill:#b4a9ae;}.cls-98{fill:#ddb5c7;}.cls-99{fill:#e9bed1;}.cls-100{fill:#c6c6c6;}.cls-101{fill:#e2d1d9;}.cls-102{fill:#574c51;}.cls-103{fill:#43373d;}.cls-104{fill:#2b2427;}.cls-105{fill:#2a2225;}.cls-106{fill:#0c090b;}.cls-107{fill:#423d3f;}.cls-108{fill:#010102;}.cls-109{fill:#080708;}.cls-110{fill:#1b1619;}.cls-111{fill:#231d20;}.cls-112{fill:#251e22;}.cls-113{fill:#010001;}</style></defs><g id="圖層_2" data-name="圖層 2"><g id="圖層_1-2" data-name="圖層 1"><path d="M345.55,205.44c-2.4-1.63-6.89,1.84-8-3.28-.1-.46-1.46-.44-2.17.18-5,4.29-12.4,3.84-16.16-1.32-2.23-3.06-4-6-8.5-6.13-1.61-.06-3.85-2.13-4.55-3.8-1.58-3.8-4.34-1.38-6.51-1.84-.44,2.32-2.3,4.83,1.47,6.4,1.48.62,1.46,1.81-.47,2.6-2.55,1-2.68,2.29-.05,3.8s2,4.19.42,5.88c-2.6,2.71-2.85,4.66.07,7.06,1.73,1.42.45,3.36,1,4.94.95,2.83-2.8,7.57,3.47,8.4.78.1,1.1,2.66-1,2.59-2.55-.09-2.62,1.26-2.5,3.09.1,1.6-.26,2.82,2.31,3.4,3.74.83.79,4.41,1.63,6.6l-.4.48c-.9.74-2.75,1.28-.53,2.65a3,3,0,0,1,.86.83,22.15,22.15,0,0,0,5.58,12.84c.48.57.83,1.55.54,1.64-4.75,1.33-1.65,7.79-6.12,9.37-.39.14-1.34,1.57-1.66,1.17-4.05-5.21-7.95,2.3-11.88.07-2.75-1.56-5.81-2.29-6.57-6.5a18.46,18.46,0,0,0-5-9.58c-1.37-1.37-1.81-2.45.51-3,2.92-.7,1.35-2.95,1.56-4.49s-.59-2.58-2.42-1.66c-1.3-.45-.79-1.59-.94-2.47-.1-.63.87-2-1.12-1.09-1.45.64-1.77-.8-1.86-2.05-.12-1.44.43-2.95-.48-4.29-.61-1.16-1.71-.63-2.62-.76-1.07-.14-2.49.46-2.94-1.08s.5-2,1.86-2.18c1.13-.14,1.11-1.06.86-1.88-.49-1.61-1.91-1-2.93-1s-2.85-.74-3.15,1.32a15.49,15.49,0,0,0-.07,3c.08,2.09-2.2,2.29-2.45,1.61-.93-2.57-5.11-2.61-4.47-6.28.55-3.19-3.76-3.3-4.28-6,0-.22-1.27-.29-1.27-.42.08-3.52-1.9-6.27-3.36-9.22.29-.35.59-.71.85-1.08-.56.2-.38.82-.68,1.17-3-.12-6.63-2.64-8.3,2.52-.21.66-3.31.4-5.07.57-.45,2.32-1.49,3.61-4.21,3.33a76.39,76.39,0,0,0-8.29-.05,1.85,1.85,0,0,1-.93-.16c-.13-.06-.22-.23-.35-.27-.34-.11-.34,0,0,.15a.48.48,0,0,1-.07.79c-.13,1.59-.49,3.19-2.57,2.56-3.45-1-8.32,2.92-10.5-3.05-.28-.78-2.23-.57-3.14,1-1.45,2.56-1.76,2.54-3.13.13-.84-1.49-1.55-2-3-.84-.35,2.7-2.23,2.79-4.34,2.64-1.84-.14-2.2-1.09-1.7-2.69.1-.3.6-1.24-.07-.94-3,1.34-6.23.1-9.26.81-.92.22-1,1.17-1.05,2-.16,1.42.56,3-.6,4.24-1.08.34-3.05-.61-2.78,1.68.17,1.46-1,3.12,1,4.41,3,1.93,3,5.13.08,7-1.42.88-1.08,1.87-1.13,2.91-.09,1.82-.1,3.66,0,5.48.41,8.56-4.88,14.32-9.94,20.16-.4.47-1.53.38-2.32.45-1,.08-2.59-.34-2.9.13-4.44,6.73-5-1.78-7.59-1.82-5.5-.09-5.76-5.44-8.65-8.12-.74-.69-.9-2-.6-2.11,4.15-2.1,2.94-7.61,6.77-10.09s3.57-4.13,0-6.93c-1.32-1-1.13-3.07-.23-3.2,3.27-.48,2.84-2.64,2.76-4.75-.05-1.41.57-1.79,1.91-2.26,2.32-.8,2.17-2.14-.16-2.92-3.3-1.11-2.37-2.15,0-3.08,2.56-1,1.93-2.08.35-3.5-2.64-2.36-6.27-4.09-5.56-8.66.16-1.07-.74-1.16-1.65-1.28-2.13-.29-1.16-2.88-1.11-2.88,3.72-.16,2.8-2.89,2.82-5,0-1.89,1.35-1.36,2.41-1.56,1.56-.3,3.91,1.18,4.38-1.8-.54-1.46,1.33-2,1.23-3.31-2.28-3.43-1.83-7.07-.89-10.76,3-1,5.06-4.32,8.9-3.34.69.17,1-1.88.85-1.9-5-.51-.52-8.28-6.23-8.12,1.89-2.67-8.18-3.22-1.24-7,.77-.42.62-3.14.37-4.71-.67-4.23,1-5.66,5.08-5,.91.16,2,.58,2.82-.31l-.16.09a12,12,0,0,0-1.19-2.07c-.85-1-3.21-1-2.3-3.08.67-1.51,2.35-.53,3.55-.76.9-.17,2.08.26,2.31-1.18s-.23-2.24-1.73-2.35c-1.93-.13-1.37-1.27-1-2.35.34-.6,1-1,1.2-1.66.11-.82-.57-1.17-1-1.66l-.3-.46c1.49-3.33-4.11-3.1-3.1-6.18,1.91-.85,3.87-.53,5.82-.21.15,0,.37.27.41.24.69-.64-.4-.6-.39-1,.15-1.32.45-2.56-1.56-2.89-2.61-.43-1.25-2.6-1.37-4-.17-2,1.48-1.63,2.75-1.79s2.87.76,3.25-1.15c.34-1.67.29-3.1-2.26-3.27-1.28-.08-.3-2-.68-3,.11-.17.23-.33.33-.49a1.1,1.1,0,0,0,0-1.84c-.1-.17-.2-.33-.29-.5,0-3.66.1-7.32-.06-11-.14-3.22-.25-6.11,4.41-5.15.79.16,1.68,0,1.75-1.16a1.81,1.81,0,0,0-1.39-2.19c-2.66-1-2.64-2.28,0-3.17,1.28-.42,1.57-2,1.3-2-5.46-.59-.48-7.85-5.62-8.72-.8-.13-.81-1.77.53-2.66,2.21-1.45,2.23-1.74.13-3-1.72-1-1.4-2-.34-3,3.11-2.84,3.15-3.79-.16-7-.86-.83-.59-1.8-.6-2.73,0-3.32,0-6.65,0-10,0-1.4.46-3.16-1.94-3.22-1.1,0-1.51-1.44-1-1.64,4.58-1.67,1.78-7.78,6-9.75.52-.25.8-1.68,2-1.45,1.43.27.8,1.54,1,2.39.4,1.41-1.1,4,1.38,4s2.8-2.79,2.31-4.64c-1.08-4,.12-5.61,4.26-4.95,2.71.44,2.48-4.32,6.07-3.2,2,.64,5.42,1.49,6.18-2.51,0-.14.82-.28.84-.24,1.59,3.82,6,1.77,7.89,3.59,1.72,1.65,5.06,3.4,3.73,7.23-.86,2.52,4.05,1,3.2,3.93-3.71.85-3.71.85-7.48-.42a16.65,16.65,0,0,1,1.42,3.88c.2,1.6,3.74,2.18,2.48,2.78-2.26,1.07-2.3,4.79-5.68,4.2-1.41-.24-3.7-1-4.17,1.38-.42,2.1,1.7,1.7,2.88,2.38,1.39.8,1,2.3-.91,2.59-1,.16-2.09.26-2,1.6.06,1.1.84,1.44,1.92,1.81,2.32.8,2.92,3.6,5.06,4.91.6.36.49,3.7-.19,4.09-7,4-1.78,10.31-3,15.35-.65,2.67,2.33,1.21,3.66,1.6,1,.29,2.52-.49,2.69,1.33.2,2.14-1.43,1.77-2.71,1.85-1.57.11-3.77-.47-3.73,2,0,1.77-.48,3.3,2,5.17,3.35,2.5,7.83,5.44,7.72,10.94-.05,2.65,2.09,1.73,3.26,1.61,2.59-.25,3.24.89,2.88,3.14l-.47.47a14.52,14.52,0,0,1-2.88.87c1,.65,2.07.48,2.9,1l.48.47c-.57,3.36,1.23,4,4.06,3.63,1-.13,2.45-.83,2.83.92.29,1.33.12,2-1.62,2.81-2.53,1.1-1.87,4.37-.75,5.83,1.29,1.68,2.32,0,2.61-1.7.06-.31,1.48-.76,1.57-.63,2.25,3.1,6,4.75,7.86,8.17.14.26.17.83,0,1-4.12,3.35-1.05,6.51-.14,10,.81,3.09,4.86,4.77,3.49,8.6a5,5,0,0,0,1.88.44c5.16-1.06,5.58,1.83,5.25,5.84-.14,1.7-1.43,4.59,2.36,4.5.17,0,.54.53.48.73-1.52,5.68,3.54,8.38,6.42,10.72,3.5,2.85,2.51,5.66,2.67,8.68.1,1.75.62,3.64-.5,5.31l-.15-.09c1.9.95,3.92.28,5.88.47.85.09,1.67.13,1.78,1.23a1.42,1.42,0,0,1-1.2,1.73c-3.33,1-1.34,3.8-1.68,5.79-.12.7.64,1,1.36,1.06,2.56.26,1.57-4.3,5-3.39,3.06.82,3.49-1.51,3.24-4-.1-1-.13-1.94,1.12-2.42,3-1.12,3.38-2.26-.11-3.18a1.3,1.3,0,0,1-1-1.42c-.09-2.17.63-4.64-2.88-5.19-.47-.07-.44-3.33-.65-5.11.19-1.4,2.95-2.88-.15-4.16.12-2.14.13-4.3.37-6.43.31-2.74-.57-4.06-3.51-3.64-1.68.25-2.89-.12-2.75-2.32s1.7-1.58,2.88-1.66,2.66,0,4-.05c.9-.05,2.19.46,2.53-.81s-.44-1.95-1.86-2.22c-2.28-.44-1.18-2.42-1.23-3.69-.09-2.68-1.12-3.26-3.39-2l.12.15c-.15-2.67.88-4,3.76-3.6,1.2.19,2.53,0,2.65-1.49.14-1.7-1.06-2.37-2.59-2.12-3.44.56-3.44-1.38-3.73-4-.37-3.29,2.44-7.62-2.8-9.77-.94-.39.39-1.61,1.43-1.66,1.83-.08,3.66-.05,5.49,0,1.36,0,2.35-.48,2.22-2a1.67,1.67,0,0,0-2.07-1.61c-4.48.86-4.16-2-4.21-5,0-2,1.38-4.73-2.44-5.42-1.09-.2-1.5-2.31.69-2.59,1.64-.21,3.32,0,5-.09,1.26,0,3,.41,3.08-1.52,0-1.57,1.14-3.56-1.44-4.59-2.85-1.14-2.8-2.86.08-3.85,1.91-.66,1.2-3.47,4-3.71,1.35-.11.31-2.62-1.44-2.78a23.21,23.21,0,0,0-4.86.55l.1.11c.29-1.13.84-2.7-.13-3.3-2.53-1.58-4.66-2.64-.05-4.3,1-.36.57-2.33-.27-2.38-3.2-.18-1.92-4.82-5.22-4.94-.49,0-.41-2.16,1.28-2.24,2.37-.1,1.86-3.14,4.26-3.87,1.41-.43-.22-2.54-2-2.25-3.81.63-4.2-1.57-3.76-4.35.52-3.3-2-7.6,3-9.58a2.6,2.6,0,0,0-.06-1.78c-6-2.11-.57-4.33.4-5,3.63-2.57,2.14-8,6.12-10.26.62-.36,1-1.76,2.09-1.46,4.11,1.14,5.77-2.76,7.1-4.66,1.69-2.44,3.35-1.69,5-1.65,2.46.06,1.11,2.26,1.34,3.5s-.1,2.47,1.51,2.68c1.21.16,1.91-.12,2.46-1.64,1.12-3.13,4.44-.54,6.38-1.94a4.83,4.83,0,0,0,.54,1.28,1.78,1.78,0,0,0-.44-.75,1.81,1.81,0,0,1-.23-.41c-.31-1.24-1.07-3,1.19-2.72,1.83.22,4.33-1.72,5.5,1.34,1,2.7,2.27,2.7,3.17,0,.3-.88,1.08-1.82,1.27-1.41,1.7,3.79,6.76,1.7,8.41,4.73,1.43,2.64,3.08,2,3.83.42,1.72-3.48,2.36-3.36,3.4.26.46,1.59,1.75,1,2.69.1l-.1-.16c.58,1.67-.44,4.68,2.62,4.35,2.37-.25,5.52,1.94,7.16-2,.84-2,8-1.74,9.66-.4,4.18,3.36,8.59,6.42,12.91,9.61-.57,2.79.27,3.57,2.79,1.94,1.29-.35,1.72-3.36,2.25-2.33,1.37,2.64,5.92,2.89,5.08,6.92-1.38.4-2.86-.41-4.84.44,2.16,1,3.43,0,4.76-.63,3.55-1.29,3.38,3.3,5.86,3.78.16,0-.17,1.27-.95,1.36-1,.12-2-.07-3,.14-2,.44-5.56-1.42-5.43,1.94s3.74,1.63,5.77,1.71c2.4.08,5,.79,7.27-.65l-.09-.1c1.22,1.35-.91,4.53,2.84,4.72,1.11,0,1,2.2-.45,2.48-3.67.7-1.84,3.45-1.78,5.09a1.34,1.34,0,0,0,2.61.4c.42-4,3.27-1.63,4.92-2.18a1.3,1.3,0,0,1,1.84,1.08c.1.92-.1,1.72-1.14,1.83-1.26.14-2.55.34-2.11,2s2,1.18,3.3,1.18,2.78-.78,3,1.44c.2,2-.66,2.75-2.58,2.46-1.05.85-.09,2.31-1,3.22-2,1-2.77-1.08-4.09-1.75a8.89,8.89,0,0,1-2.27-1.46c-3.19-3.54-3.19-3.54-7.3.75-3.11.34-14.65-5.29-15.56-8-1.33-4,1.68-3.84,4.25-3.91a3.94,3.94,0,0,1,2.43,1.28c.14.3.57.4.59.23s-.51-.3-.64-.64c-1.15-.82.16-5.22-3.47-2.35-1.95.63-3-.61-3.93-1.94a8.76,8.76,0,0,0-2.32-2.14c-.71-.55-.95-1.84-2.27-1.41-1.11,1-2.11,2.18-3.86,1.7-.94-.3-1.85-.75-2.89-.3-.89.38-2.5,1.29-2.69.63-1.34-4.58-6.37-2-8.36-4.44-1.83-2.27-.41-4.69,1.72-6.52-5.49,4.61-8.67,5-13.39,1.48-1.19-.89-2.17-1.43-3.55-.44-2.05,1.49-4.81,1.31-6.86,2.89a2.49,2.49,0,0,1-3.63-.27c-3-4.45-6.67-2-10.12-1-2.12.62-3.66,2.24-6.45,1.86-1.42-.2-3.52,3.08-2.56,5.82.4,1.14.9,2.16.21,3.3-2.16,3.58-2.74,7.08.29,10.55a1.87,1.87,0,0,1,.08,2.36c-3.18,3.31-1.46,7.71-2.66,11.44-1.27,2.66-2.77,3.34-5.11.93a18.81,18.81,0,0,1-4.59-6.55c-1.7,2.16.21,3,1.46,4,2.25,2.1,2.12,4.4.6,6.82-.76,1-2.5.94-2.63,2.54-.16,2.11.54,2.8,2.4,1.33.24-.24.5-.44.73-.66,5-5,5-5,7.59,1.59,3.24,2.6,3.83,5.44,1.38,9.08-2.31,3.45-5.17,7-1.66,11.49a3.69,3.69,0,0,1,.13,3.85c-2.55,3.21-.43,7.11-1.95,10.44-1,2.08,1.13,3.21,2.4,3.76,3,1.31,5.64,3.48,8.93,4.24,3.52.82,5.21,3.37,6.83,6.53,2.56,5,2.94,11.7,10.19,13.41,3.28.77,1.56,3.3.63,5.12a2.57,2.57,0,0,0,3.38-.13c2.42-1.8,4.49-2.41,5.69,1.24.23.7.65,1.25,1.43.87,3.4-1.66,5.2,1,6.5,3a14,14,0,0,0,9.95,6.65c2.36,2.16,4.11,4.86,6.3,7.18.8,1.08.7,2.53,1.56,3.95,1.3-2.38-.4-3.39-1.5-4.6-.7-.72-1.37-1.46-2-2.23-1.8-2.23-1.53-4,1.33-4.9a7.33,7.33,0,0,0,3.82-2.12c1.73-1,3.43-.83,4.11,1.11,1.21,3.46,2.55,1.71,4.23.48a65.49,65.49,0,0,1,10.34-6.11,2.8,2.8,0,0,1,1.18.68c1.1,3.13,4.34,2.4,6.51,3.61a29.18,29.18,0,0,0,3.08,3.4c1.36,1.81,3.2,1.81,5.16,1.37,3.1-1.79,3.38-5.07,4.28-8a1.26,1.26,0,0,1,.56-.75c-.88-.18-.62.83-1.11,1.07-2.15,1.79-1.09,5-3.06,6.83a5.25,5.25,0,0,1-5.19,0,14.32,14.32,0,0,1-3-3.31c-1.25-1.3-2.18-3-.66-4.33,3.28-2.79,4.35-6.88,6.73-10.15,1.38-1.9,2.23-3.24,0-4.92-1.59-1.19-1.93-2.86-.65-4.31,4.15-4.75,5.07-11.37,9.58-16,2.6-2.65-1-1.94-1.88-2.67a4.27,4.27,0,0,1-1.24-.76c-.83-1.82-4.16-2.54-2.42-5.48,2.34-1.39,4.41-.41,6.47.73,1.91.56,4,.16,5.84,1.11l.53.54c.14,7.38.61,7.68,8.92,5.7l-.09-.15c-.1,2.79,2,6.29-2.45,7.71-.16.05-.3.83-.24.86,3.3,1.71,1.76,6.36,4.5,7.89a2.34,2.34,0,0,1,1.49,2.39c.16,1.85-1.2,1.47-2.31,1.67-1.28.22-3.18-1-3.67,1.28-.55,2.59,2.1,1.3,2.8,2.24.41.56.19,1.6.25,2.42-1.52,1.35-1.35,2.67.07,4-3.41,3.48-3.45,7.86-3.31,12.3-2.5-1.9-3.17,8.47-6.83,1-.22-.46-4.55-2-6.3,1.63-.69,1.44-2.92,2.71-4.5,3.86-1.09.8-1.91,1.4-1.59,2.53,1.09,3.87-4.14,4-4.21,7.2,0,.39-2.27.61-2.26-.58.05-3.61-2.39-2.78-4.4-2.8-1.13,0-2.45-.21-2.72,1.41s.38,2.48,2.15,2.39c2.65-.14,1.65,1.92,1.71,3.16.06,1,.67,2.51-1,2.81-1.45.24-2.2-.1-3.2-1.82-1.19-2-3.79-2-6.08.45-1.81,2-3.08,5.42-6.89,4.74-.49-.09-1.28.16-1.45-.08-4.72-6.66-11.56-1.79-17.24-3.17-1.63-.4-4.15.51-2.66-2.75l.07-.15Z"/><path d="M137.08,188.92c5.28-1,6.37,1.6,6,6.31-.21,2.64-1.58,5.87,2.79,7.63,2,.81-2.1,8.21-5.27,8.38-2.6.14-3.87.55-4,3.57-.1,3.39,1.73,3.39,4,3.17s2.32,1.16,2.3,2.82c-.05,5-.15,10,0,15,.09,2.06-1.59,5.27,2.6,5.59.19,0,.48,1.16.45,1.17-3.51,1.56-2,6.17-4.77,8-1.53,1-1.89,2.18-.8,3,5.57,4.44,1,10.32,2.37,15.32.18.66-.64,1.24-1.33,1.1-4.34-.88-5.82,2.84-8.1,5.1-1.32,1.31-1.31,1.05-2.65-.22-2.21-2.08-4.09-5.36-8-4.84-1.49.19-2-.5-2-2,0-2,.77-4.44-2.49-5-1-.17-1-1.74-.23-1.89,3-.59,2-3.36,3-4.73,2.24-3.07.41-5.27.27-8-.18-3.59-3.47-4.08-4-7.07-.71-3.84,4.37-3.59,3.54-6.7-1-3.58,2.39-8.05-2.83-11-1.59-.88.55-2.23,2.22-2.27,1.29,0,3,.48,3.58-1,.65-1.74-.59-2.6-2.31-2.92-.29,0-.69-1.2-.53-1.68,1.46-4.4,1.47-4.57-2.39-7.84-1.67-1.42-1.68-2.29.57-3,2.43-.73,2.48-2.06.27-3.05-2.6-1.17-3-2-.14-3.29,1.89-.85,3.3-2.95,4.05-4.25,1.5-2.62-2.71-3.2-4-5.11a21.24,21.24,0,0,1-1.88-3.2A57.5,57.5,0,0,0,111.92,176c-1.7-2.4-.45-8.84,2.56-10.12l.24.39-.38-.26c0-.66-.21-1.82,0-1.91,7.41-3-.48-5-.65-7.48-.06-.88-2.06-.83-2.64,1.07-.68,2.2-2.07,2-3.48.46a6.21,6.21,0,0,0-9.51.1c-1,1.23-2.79,1.35-2.9,0-.19-2.5-4-1.71-3.52-4.58.1-.6-1.72-.61-2.69-.5-1.84.21-1,1.72-1.24,2.71-.26,1.15.73,2.85-1.3,3.22-1.6.29-1.73-.91-2.14-2.06-.49-1.39-2.77-.86-3.14-3.12-.23-1.34-2.32-1.56-3,.74-1.13,4-1.18,3.93-4.42,1.53a4.63,4.63,0,0,0-1.37-.48,4.4,4.4,0,0,1-.87-.43,2.79,2.79,0,0,0,1,.31c-1,1.2-.21,3.38-3.08,3.72-4,.46-5.63-2.44-7.07-4.57s-2.65-2.32-3.41-.8c-2.54,5.05-6.68,5.58-11.57,5.29-2.09-.13-5.44-1.43-5.15,3,0,.75-.76,1-1.48.82-1-.2-1.19-1-1.19-1.85,0-1.32-.31-2.36-2-2-1.27.28-1.32,1.33-1.34,2.33-.06,2.48-.08,5-.11,7.45-.95.92-2,.59-3,.23-.39-.14-.58-.82-1.16-.43A18.2,18.2,0,0,1,33.24,170c-.7,2.35,1.7,6.19-3.44,6.5-1.06.06-.48,2.33.84,2.33,3.42,0,2.13,2.41,2.54,4.1.55,2.26-2,5.81,2.65,6.6.55.09.8,1.87-.83,2.54-2.39,1-3.39,2.21,0,3.37,1.47.51,1.53,1.55.43,2.64-3.33,3.28-3.11,6.56-.05,10,1.52,1.74,1.32,4.28-.12,6.35-.2.28-1.12,0-1.4.3-3.37,3.47,3.06,2.49,2.34,5.11-.47,1.69-6.22,1.57-1.75,4.77.8.56,2.07,1.62,1.63,1.73-4.11,1.05-1.1,6.92-5.35,7.64a1.56,1.56,0,0,0-1.43,1.7c0,3.33-1.27,7.52.28,9.77,2.09,3,4.31,4.58-.3,6.77,1.33,2.75-3.13,7.72,3.34,8.59.64.09.61,2.08.07,2.09-4.31.06-3.33,3.16-3.44,5.64,0,.74-.33,1.43-1.08,1.32-4.43-.64-6.38,2.58-8.63,5.39a4.74,4.74,0,0,1-1.18.78c-1.58-3.34-5.32-2.14-7.38-3.51-1.81-1.2-5.82-2.68-4.55-6.76a1.87,1.87,0,0,0-1.17-2.45c-3.08-1-3.13-1.49-.06-2.9,2.49-1.14,1.7-8.07-1-9.54-1.23-.67-1.38-2.08-1-2.29,5-2.44,3.29-10.28,9.59-11.64,1-.2.65-2.5.13-2.43-2.94.38-2.58-3.06-4.81-3.73S5.73,226.18,8,225c1.09-.59,2.34-.75,1.8-2.27-.43-1.23-1.59-1.45-2.86-1.54s-3.82,1.56-3.65-1.48c.09-1.64-1.85-4.35,2.1-4.94,1.82-.27,1.61-5.45-.1-6.65-3-2.11-2.92-3.94.09-6.16a15.4,15.4,0,0,0,4-4.07c1.51-3-2.6-3.85-4.17-5.59-1.94-2.14-2.41-1.69.11-3.23,1.62-1,1.89-3.67,4.43-3.56,0,0,.12-.89.18-1.36-5.52-.11-.87-7.71-6-8.2-1-.09-.8-1.35-.65-2.12.22-1.1,1.24-.75,2-.92,1.6-.36,4.76,1,4.4-1.44-.31-2.12-2.86-4.17-5.35-5.17-1.28-.52-3.25.89-4-.91-.9-2.15,1.18-2,2.38-2.64,1-.59.82-2.22.15-3.12-3.62-4.86-3.32-5-.15-10.27,1.35-2.28,0-6.08,3.82-7.23.06,0,.1-.35,0-.48-1-1.81-6.25-3.48-.17-5.51C5,132.23,9.44,131,10,128.06a3.13,3.13,0,0,1,2.1-1.41,2.12,2.12,0,0,1,1.22.31c.54.6.79,1.39,1.32,2a1.34,1.34,0,0,0,1.46-.28c1.14-1.1,2.38-1.78,3.94-.93.34,0,.43.75,1,.35a9,9,0,0,0-.72-.56,2.25,2.25,0,0,1-.9-1,7.91,7.91,0,0,1,.11-5.82l.52-.56c3.64.09,7.4,0,6.15,5.55-.34,1.53.9,1.73,2.12,2,1.37.3,1.21,1.95.51,2.15-5.1,1.47-2,5.14-2.29,7.88a3.73,3.73,0,0,1-2.71-.13c-.5-.43.17.18-.34-.25a3.72,3.72,0,0,1-.59-.6c.07.17.23.26.35.42.94,1.33,2.09.89,3.24.44,2.66-1.39,5.51-.27,8.24-.65,1.88-.26,4.26,1.08,5.09-2.31.32-1.29,1.87-1.07,2.51.83.76,2.26,2,2.09,3.44.19,2.16-2.92,4.54-3.15,6.59.09A2.66,2.66,0,0,0,54.79,137c5.42.56,9.53-2.11,13.35-5.44,1.43-1.24,2.39-1.06,3.58.41,2.26,2.77,4.45,2.76,6.38-.07.56-.82,1-1.15,1.87-1.09,1.08.07,1.29.81,1.3,1.7a29,29,0,0,0,0,3.49c.19,1.34-.88,3.22,1.19,3.86,1.89.58,2.14-.83,2.36-2.24,0-.26.84-.67,1.16-.57,4.33,1.27,6.17-2.29,8.74-4.43l-.09-.13a3.29,3.29,0,0,1,.29.94c0,2.17-1.43,4.88.86,6.33,2.65,1.68,2.55-2.06,3.78-3,4.34-3.41,10.2-4.47,13.67-9.14.62-.84,1.26-1.39,1-2.48a4.91,4.91,0,0,1,2.08-2.48c1.55-1.88,3.19-2.85,5.12-.52.4.19.57.06.48-.41,0-.27-.12-.4-.26-.41-3-3.33-4.74-1.16-6.4,1.38-1,1.58-2.13,2.83-4.07,1.16-.63-2.52,2.21-6.47-3.15-7.09-1-.13-.53-1.75.44-2.2,1.12-.51,2.2-.45,3-2,1-1.93,5.44-3,.11-5.36-.88-.39-.35-4-.47-6.13l.53-.44c1.55-.7,2.49.36,3.61,1.44-1-1.66-2.55-2.25-3.75-3.3l-.39-.56c-.56-2.56,2.44-6.6-3-7.22-.25,0-.62-1.17-.51-1.7.32-1.64,1.75-1.12,2.79-1.12,2.36,0,5.07.46,3.46-3.47a6.36,6.36,0,0,0,1.29-.61,2.63,2.63,0,0,0-.75.48c-.53.4.15-.11-.4.27-1.08.26-2.45,1-2.68-.88-.34-2.66,1-6.17-3.6-6.44a8.94,8.94,0,0,1-.14-1.38c5,.12,1.94-6.47,6-7.25.3-.06.72-1.11.66-1.16-3-2.34-1.63-7.12-5-9.1-.72-.42-1.58-.49-1.56-1.47A1.17,1.17,0,0,1,108.94,56c3.16.19,2.55-2.28,2.21-3.76-.48-2.11,2.23-5.66-2.43-6.13-1.08-.11-1.23-.92-1.18-1.81,0-1.13.89-1.28,1.73-1.31,1.66,0,3.33,0,5,0,1.08,0,2.53.51,3-1s0-2.41-1.84-2.67-1.4-1.56-.62-2.56,3.2,0,2.54-2.15c-.59-1.93-2.78-2.78-4.13-4.11s-2,.76-2.15,2.36c-.1,1.2,1.1,3.25-1.51,3.35-2.85.1-2.15-2.13-2-3.54.25-2.18-1.77-5.62,3.05-5.74,1.26,0,.76-6.12-.65-7-3.46-2.09-3.5-4.28,0-6.36a2.16,2.16,0,0,0,1.27-1.82c.57-4.81,2.19-8.83,8-8.51,2.27.12.69-5.06,3.62-2.5.95.83.27,3.49.43,5.3.1,1.1,1,1.14,1.85,1.13a1.56,1.56,0,0,0,1.75-1.87c-.1-1.37.2-2.2,1.86-2.13,1.44.06,1.19,1.65,1.58,1.84,3.83,1.83,1.49,7.33,5.69,9.08,1.53.64.66,2.28-1,2.72-1.87.48-2.07,1.56-.91,2.88,3.7,4.2,2.8,6.26.23,10.93-1.3,2.37-3.64,5.23-3.33,8.59,2.58.46,2.46,2.34,2.64,4.38s-1.5,3.28-1.11,5.14c1.1,3.74.36,7.64.94,11.44.23,1.51-1.65,1.22-2.35,2l0,.12c-1.17,2-.47,4.17-.55,6.25-.17,4.64-.62,5-4.79,3a3.24,3.24,0,0,0-2.31-.58c2,2.67,3.8,3.38,6.2,2.21,1.22-.6,2.49-2.69,3.53-.52.77,1.6,1.29,4.52-.51,5.48-3.47,1.84-2,4.23-1.62,6.65.82.52,2.31.06,2.32,1.78s-1.31,1.46-2.25,1.83c-1.22,1.15,0,3.44-2.25,4.12,4.81-1.34,4.81-1.34,4.5,5.57-2,2.22,1.74,4.77-.41,7l-8.88.23c-.93.66-.38,1.76-.74,2.59-.06.14-.88.57,0,.7.16,0,.42-.43.66-.63,5.69.25,10.37,3,9.06,5.73-1.72,3.54-.85,8.71-5.66,10.64-.46.19-.82,1-1,1.55-.19.81.52,1.13,1.16,1.29,4.77,1.19,9.56.32,14.35.18,1.73,0,1.64-3.26,1.92-2.72,2,3.93,7.63,1.41,9.31,5.49-1.51,1.3-1.53,2.61,0,3.93,0,.82-.16,2.29.09,2.37,5.52,1.69,3,6.46,2.32,9a6.48,6.48,0,0,1-7.52,4.45c-2-.43-5.12-1.28-5.43,2.76-.06.87-1.54.64-2.21.44-3.69-1.13-4,3.46-6.8,4-.62.12-.28,2.28,1.36,2.25,1.89,0,1.63,1.17,1.64,2.32,0,1.83-1.58,1.29-2.51,1.74-1.59,2.08.5,4.87-1.47,7,1.24-.44,2.4-.68,3.47-1.18,1.33-.41.42-3.44,2.79-2.5,1.65.66.9,2.3.93,3.5.09,4.11-.24,8.25.14,12.33.24,2.68-1.21,3.52-3,4.41-.37,1.92-1.78,3.41-2.14,5.37C136.28,191.54,135.85,189.67,137.08,188.92Z"/><path d="M733.12,229c-1.13.1-3.14-.44-3.23.45-.38,3.65-3,2.14-4.84,2.54-2.21.47-5.55-1.7-6.27,2.58,0,.21-1.22.42-1.82.32-1.46-.24-.9-1.51-1-2.38-.13-1.89.64-4.14-2.8-3.87-2.81.22-3.87,1.46-3.19,4,.6,2.26-2,5.7,2.52,6.69.88.19,1,2-.56,2.56-.58.23-1.46.17-1.77.58-2.35,3.14,5.47,2.86,2.25,5s-3.79,2.38-.23,4.08c1.19.56,1,1.5.2,2.31-3.44,3.47-3.44,3.49.07,7.27a2.91,2.91,0,0,1,.48,1.23c-3.47,1.56-2,5.91-3.75,7.51s-3.2,5.55-7.14,3.91a1.47,1.47,0,0,0-2.06.77c-.39,1.35-.08,3.53-2.36,2.75-1.42-.49-.82-2.39-.71-3.61.24-2.83-1.12-3.57-3.57-3.09-2.07.41-2.82-.54-2.54-2.42.55-3.73-1.31-4.69-4.6-4.31-.9.11-2.08.34-2.23-1.18-.13-1.23.36-1.64,1.61-1.88,1.73-.32,4.83,1.31,4.88-1.31,0-1.75-2.33-4.37-4.21-5.15-3.79-1.55-3.61-2,0-3.19,2.16-.72,1.69-2.09,0-3.15C683,246,683,244,686.42,242c1.25-.75,2-8.8.72-9.61a2.1,2.1,0,0,0-2.75.08c-.78,1-1.25,4-2.3,2.36-1.26-2-4.89-2.3-4.18-5.16.92-3.76-3.5-4.18-3.95-7.09-.11-.71-2.1-.44-2.77.85-.37.71-.5,1.66-1.05,2.13-.87.74-2.88.57-1.93,2.57.63,1.35,2,1,3.09.84,4.53-.68,3.37,2.6,3.17,4.77a1.58,1.58,0,0,1-2.86.83c-1.79-5-5.49-1.68-8.27-2.21l-.16-.45.32.35c.81,1,1.23,2.5-.31,2.62s-4,1.41-5.16-1c-.33-.7-.27-2-1.22-1.68-5.11,1.88-8.48-3.2-13.09-3.11-.33,0-.84.12-1,0-2.87-3.75-5.7-6.17-8.62,0-.09.19-1.36.11-1.38,0-1-5.06-7.59-2.57-9.32-6.87-1.14-2.82-5.92-3.62-4.56-8a1.36,1.36,0,0,0-1-1.92,1.89,1.89,0,0,0-2.53,1.58c-.7,2.43-1.38,2.15-2.64,0s-4-3.27-3.29-6.52c.23-1.1-1.34-1.54-2.24-1.32-4.4,1.12-4.5-1.48-4.26-4.6a16.47,16.47,0,0,0-.29-2.95l.1.15c-4.06,2-3.41-3.36-6.1-4.15-1.08-.32,1.73-.92,2.45-1.72,1.39-1.52.92-2.66-1-3.2-2.2-.6-2.95-1.55-.28-2.48,1.27-.45,2.28-.79,2-2.23s-1.54-1.62-2.77-1.52c-2.25.18-3.68-.07-3.69-3.06s1.21-3.75,3.86-3.47c1.17.13,2.44,0,2.64-1.55.15-1.17-.48-1.83-1.66-2a3.89,3.89,0,0,1-1.35-.41c.33-4.53-1.75-6.23-6.21-6-.84,0-.9-1.75.36-2.63,3.48-2.44,3.5-4.56.17-7-1.85-1.36-1.54-8,.63-9.09,2.33-1.13,2.11-2.29.52-3.64-3-2.56-2.72-4.27-.32-7.13,1.78-2.13,5.65-3.3,4.53-7.35a1.29,1.29,0,0,1,1.26-1.73c.87-.06,1.78.08,1.86,1.14.1,1.54.83,2.1,2.26,1.72,1.63-.44,1-1.85,1.14-2.9s-1-2.9,1.34-3c2.7-.1,1.35,2,1.69,3.24.28,1-.69,2.5,1.19,2.71,1.22.14,2.31,0,2.51-1.61s2.33-1.35,2.18-.81c-.8,2.86,5.79,2,2.62,5.27-.81.84-2.64.93-1.94,2.58.48,1.15,2,1,3.13,1s2.47-1,2.83.83c.23,1.25.45,2.43-1.57,2.95-2.42.62-2.24,2.11-.1,3.17,2.58,1.27,2.4,2.09-.07,3.43-2,1.11-2.1,7.73-.36,9.17,3.13,2.6,2.93,4.23-.13,7.31-1.73,1.75-1.88,5,.31,5.77s1.89,4.54,4.93,3.73c.16,2.15,2.3,4.76-1.25,6.08-.8.3-1.65.34-1.59,1.42a6.25,6.25,0,0,0,.41,1.81c5.29-.63.43,8,6.48,7,2.51-.45,6.45,3.55,6.36,6s.36,3.72,3.19,3.43c3.48-.36,4.27,3.14,5.9,5,1.82,2.08,2.83,2.29,3.53-.18a1.82,1.82,0,0,1,2.9-1.19c1.65,5,5.75,2.15,8.68,2.88.77.19,1.55.32,2.33.48l-.1-.1c0,.62-.33,1.54,0,1.81,2.11,1.88,10.87,1,12.9-1.39.66-.76,1.92-1,2-.71,1,2.31,4.56,2.63,4.35,5.76s.72,4.55,4,2.85a4.51,4.51,0,0,1,.11,3.44,4.92,4.92,0,0,1-.53.72c-.23.24-.16.18.24-.23,1.65-1.31.66-2.6.06-3.88-1-3.49,3-3.47,4.07-5.64.18-.37,1.74-.55,2.13-1.59.28-.77.45-1.66,1.6-1.4,1.44.31.91,1.5,1,2.39.23,1.45-.8,3.72,2.07,3.48,2.46-.2,1.28-2.23,1.5-3.5.18-1-.5-2.57,1.46-2.41,1.37.12,1.06,1.34,1.32,2.26.34,1.24-1.17,3.19,1.28,3.66,2,.39,1.76-1.15,2.24-2.34.38-.94,1.69-.91,2.57-.25,4.89,3.66,5.59,3.54,10.71.07,1.16-.79,3.26-.6,4.81-.29s.65,2,.89,3c.5,2.25-1.41,5.42,1.24,6.66,3,1.4,1.85-4.63,5.43-4,.53.1.88-2.47-1-2.7-1.39-.17-2.23-.39-2-2,.29-1.83,1.77-1.06,2.76-1.13,1.49-.11,3,0,4.49,0,.17.12.35.23.53.34,1.6,1.67,3.17,1.63,4.74-.05l.55-.32c3.22-1.67,2.59,3.91,5.16,2.85,1.73-.71,1.95-4.16,4.95-2.91l.5.32a1.12,1.12,0,0,0,1.86,0l.49-.31c2.65,0,6.29,1.14,7.78-.17,5.16-4.55,11.45-1.14,16.42-3.17a51.55,51.55,0,0,0,11.55-6.9c.61-.47.23-2.2.33-3.35s-.37-2.42,1.52-2.45c5.07-.08,7.69-2.71,7.94-7.77,0-.41.43-1.1.73-1.14,5.47-.72,9.73-6.32,16-4,.28.38.58.73.87,1.1a4.79,4.79,0,0,0-1-1c-.74-2.62,1.93-6.54-2.91-7.62a2,2,0,0,1-.14-1.3c4.36-2.13,2.77-8.48,7.86-10.54,2.22-.9,2.32-5-.26-6.51-2-1.17-1.93-2.12-.91-3.23,3.27-3.54,3.36-6.65,0-9.93-1-.91-1-9.75,0-9.82,3.94-.3,1.84-3.14,2.28-4.84.5-2-1.22-4.72,2.62-5.33,1.19-.19,1.26-2-.12-3.13-3.56-2.76-3.55-6.07.08-9.26a2.93,2.93,0,0,0,.83-2.2c.59-4.26,4.24-5.35,7-7.7,4.22-3.52,7,.64,10.37.24,3.17-.37,4.47,3.7,4.64,4.19,1.72,5.22,5.52,10.08,3.9,16.11-.22.81-.18,1.67-1.21,1.86-2.14.4-1.36,2.23-1.88,3.49-1.37,3.28,4.66,3.69,2.75,5.47s-2.73,2.9-2.76,5.33c0,2.24,1.43,5.16-2.69,6.13-1.64.38-.54,8.46,1.36,9.28,2.22,1,1.93,2.77.42,2.93-3.1.33-2.19,2.23-2.32,3.86-.06.82.21,2.27-.09,2.39-4.17,1.7-5.13,3.2,0,4.81a2.32,2.32,0,0,1,0,1.38c-4.9,1.49-3.57,7.87-7.57,9.79-3.21,1.54-4,2.32-.19,4.07,1.72.79,1.18,1.74-.27,3.17-6,5.9-12.54,11.2-17.84,17.76-.17.21,0,.65-.06,1a3.23,3.23,0,0,1-2.81.27c-.36-.07-.56-.79-1-.27a9.32,9.32,0,0,1,1.13,1c-.63,1.06.49,3.3-2.11,3.06a1.34,1.34,0,0,0-1.5,1.91c1.27,3.85-3.34,4.22-4.06,6.9a2.82,2.82,0,0,1-2.2,0c-1.07-.8-1.13-4.41-2.84-2.42s-4.86,2.67-4.56,6.47-2.65,5.86-6.16,6.67c-1.41.32-2.56-.1-3,2.14s-2.68,2-3.67.07c-.52-1-1.48-1.7-1.76-2.28-3-6.29-6.05-1.09-7,.64-3.21,5.76-8,6.2-13.66,6-2.42-.1-5.53-1.69-7.26,2.48-.86,2.07-5,0-5.39-2.78.52-.42-.25-.05.37-.29.17-.07.11.1-.22.43-1.35.3-3.29-.73-3.92,1.16-1.2,3.55-2.33,2.4-3.22,0-.73-1.95-2.23-1.15-3.27-1.06-2.65.24-3.12-1-2.75-3.19.5-.44-.25,0,.36-.31C733.51,228.51,733.45,228.69,733.12,229Z"/><path d="M458.21,153.05c-2.38.37-3.64-.36-3.23-3,.35-2.27-.15-3.88-3-3l-.45-.53a3.44,3.44,0,0,1-.26-1.34,3.63,3.63,0,0,1,.44-1.31,4.86,4.86,0,0,0,2.26-4.59c1.15-3.38,3.33-5.66,6.91-6.37a6.48,6.48,0,0,0,3.49-1.76c.7-.71,1.94-1.85,2.46-1.33,2.88,2.85,6.71-1.93,9.43,1.32.26.31,1,.06,1.39-.23,3.76-2.59,6.78-2.61,8.47,2.34.51,1.48,1.43.82,2.35.38,1.79-.84,3.79-1.2,5.24-2.75,1.12-1.2,2.61-1.82,3.89-.35,2.38,2.75,4.43,2.11,6.69-.14,1.09-1.1,2.4-1,3.44.3,1.2,2.93,4.84,1.87,6.73,4.43-.13-1.82-1.94-3.45.26-4.54a4.88,4.88,0,0,1,5.19.24c1.59,1.14,2.85,2.73,4.54,3.77,2.42.12,3.4-1.79,4.53-3.35a16.06,16.06,0,0,1,4.07-4.3c3.46-2.26,6.68-.7,7.18,3.32-1.18,1.14-3.25,1.73-2.32,4.57,1.27-1.91,1.55-4,3-5.36a4.26,4.26,0,0,0,.54-1.37c.56-2.57,1.56-4.72,4.62-5s3.77,2.08,4.94,4.85c.92-2.35.49-4.26.65-6.08.18-2.1-.11-4.51,2.38-5.49s4.83-.25,6.59,1.93a7.38,7.38,0,0,0,1.13.95c.92.86,1.12,2.23,2.55,3.56-.63-2.11-2.54-3.13-2-5a3.23,3.23,0,0,1,.61-1.16c2.16-1.13,1.58-3.75,2.86-5.32.16-.18.32-.35.46-.48-.13.14-.3.31-.53.52-1.19,1-1.65,2.57-3.05,3.29a3,3,0,0,1-2.78-.3,3.16,3.16,0,0,1-.93-3.2c1.5-3.36.88-6.78.7-10.21,2.28-2.12,2.72-3.89-.66-5.47-4.84-2.26-4.87-3.11-.65-6.36,1.16-.9,2.21-1.95,3.73-2.17,2-.51.5-.62-.13-.79a10.63,10.63,0,0,1-1.32-.42c-.15-.08-.39-.15-.41-.26-1.16-5.39-5.79-7.1-10-8.57-3.77-1.3-5.3-3.44-5.44-7.1-1.62-1.46-1.16-4.09-3-5.38a13,13,0,0,0-2.85,2c-5,4.34-4.77,3.89-11,.92-3.61-1.71-8-1.93-11-5.06-1.53-1.59-4-2.7-3.39-5.58,2.7-3,.68-3.52-1.94-3.65-.19,0-1.32-1.56-.94.34a3,3,0,0,1,0,2.13c-5,1.84-9.64,5.36-15.46,2.52a6.39,6.39,0,0,0-6.6.71A6.34,6.34,0,0,1,482.9,60c-1.11-.35-1.67-1.35-2.44-2.08-1.19-.44-1.71.58-2.44,1.14a5,5,0,0,1-1.78,1c-2.89.55-5.73,1.5-8.5,2.14-3.93.9-7.64-1.87-10.82-4.49-1.21-1.67-3.46-1.06-4.9-2.22,1.82-5.85-4-6.08-6.47-8.75-.15-.18-.28-.36-.42-.55.57-3.42,5.23-5,4.24-9.36-.06-.29,3.85-1.42,5.52.45,2.78,3.09,4.88,3.13,7.26.05,1.07-1.4,3.6-1.43,3.75-3.84a4.9,4.9,0,0,1,1.71-.12c1.54,5.51,6,2.39,9,2.82,3.84.54,8.05,3.7,8.71,7.59-2.34.62-3.13,2.26-2.94,4.51.14,1.74.56,3.26,3.26,3.08-.7-2.7-3.24-5.23-.41-7.76.75-1,3-.16,2.85-2.56-.24-5.31,2.56-8,7.85-7.88,2.26,0,1.29-4.42,4.48-3.07,2.29,1,5.88-2.14,7.12,2.64.37,1.45,8.64.36,9.36-1.33a1.73,1.73,0,0,1,2.2-1.23c1.44.2,1,1.41,1.09,2.32.08,1.87-.65,4.31,2.76,3.69.78,1.46,1.14,2.83-1,3.44s-1.33,3.72-2.62,3.94c2.15-2.3,3.85-1.2,4.72,2.36,3.63,1.25,2.63-1.48,2.8-3.24.12-1.19-.6-2.92,1.43-3.08,1.45-.11,3.85-.32,4.23.38,2.24,4.16,4.77,7.48,10.16,6.91,0,0,.21,1.46.32,2.25a11.39,11.39,0,0,0-5.34,7c3.25-4.73,4.09-4.85,6.25-.79,2.3-.43,2.72-1,3-3.35.17-1.79-1.88-4.7.75-5.07,1.58-.22,4.33,2.2,5.21,4.07,1.55,3.28,2.26,2.38,3.15,0,1-2.61,3-1.21,4.58-1.36,2-.2,1.88,1.51,1.75,2.79-.29,2.86,1,3.53,3.7,3.68,3.73.2,5.94,2.46,5.74,6.49l.09-.13c-2.53-1.54-3,.15-2.73,2,.21,1.63-1.52,4.39,2,4.57,2.66.14,5.33,0,8,.06,1.15,0,3.09-.69,2.85,1.54-.16,1.53,1.42,3.86-1.4,4.45-1.21.26-1.79.61-1.61,1.87.21,1.48,1.41,1,2.28,1.22,1.26.38,3.21-1.18,3.75,1.13.5,2.12-1.61,1.41-2.44,2.1-1.55,1.29-.41,12.46,1.41,13.51,1.45.83,1.34,2.51.79,2.65-4.94,1.24-2.68,5.22-2.47,7.62.27,3.2-3,7.77,2.56,9.62-1.26,3.11-2.46,6.25-3.85,9.3-.14.29-1.75.29-1.88-.84-.19-1.67,0-3.72-2.59-2.93-2.28.68-1,2.82-1.29,4.31a22.22,22.22,0,0,0-.23,2.47l-.51.46a3.39,3.39,0,0,1-1.38.21c-.62,0-1-.63-1.64-.64.41.61,1.09,1,1.44,1.64.51.89,1.43,1.44,2,2.31.58,1.76-.24,2.61-1.89,2.3-5.91-1.14-7.75,1.73-7.24,7.07l.17-.18c-1.55-1-2.77-.86-3.55,1-.72,1.71,1.28,5-1.25,5.06s-.94-3.19-1.39-4.92a1.86,1.86,0,0,0-2.07-1.64c-1.28,0-1.68.79-1.61,2a11,11,0,0,1,0,2c-.15,1.16.63,3-1.58,2.9s-1.24-1.93-1.42-3.09a13.21,13.21,0,0,1,0-2c0-.91-.23-1.63-1.28-1.75s-1.8.25-1.81,1.21c-.14,8.8-6.21,8.95-12.58,8.77a5.93,5.93,0,0,0-1.86.6,3.1,3.1,0,0,1,.1-2.77c1.36-1.49,2.94-2.75,4.22-4.28a1.26,1.26,0,0,1,.67-.49.78.78,0,0,0-.67.48,34.09,34.09,0,0,0-3.65,3.66,2.12,2.12,0,0,0-.52,3.33c.36,2,1.7,4.56-.69,5.56-1.36.57-4.82,1.92-5.14-2.14,0-.25-1.12-.63-1.67-.57-1.64.2-1.12,1.7-1.46,2.71s1.34,2.71-.87,3.2c-1.59.35-1.56-.92-2.13-2-.91-1.63-2.49-1.56-3.34.24-1.38,2.87-2.12,2.79-3.54-.1-1-2.07-8.5-1.66-9.69.41s-2.13,2.1-3.05,0c-1-2.22-2.19-2.37-3.16-.25-1.23,2.69-2.36,2.34-3.44.13s-2.35-1.95-3.26-.12c-1.41,2.82-1.93,2.33-3.15-.19-.83-1.73-2.12-1.89-3.1.56-.77,1.92-8.62,1.9-9.86.14-2.25-3.21-4.39-2.86-6.65-.06-1.75,2.18-5.56,1.55-5.77.73-.91-3.51-3.33-2.58-5.35-2.48-2.82.15-2.22-1.67-2.23-3.24.39-.28.74-.59,1.12-.87A5.15,5.15,0,0,0,458.21,153.05Z"/><path d="M451.92,208c1.05.4,3.11-.9,3,1.34-.08,1.76,1.15,3.79-1.17,5.33-3,2-2.59,4.39-.14,6.82,2.14,2.12,2.68,4.72-.24,6.41-1.74,1-1.75,1.8-.72,2.87,3.28,3.43,3,6.66.12,10.44-1.9,2.52-1.79,7.94-.28,8.79,5,2.79,1.63,6.7,2.45,9.89.9,3.49-.79,6-3,9-2.94,4-8.65,2.75-10.84,7.15-.07.14-.85.15-.94,0-2.57-4.52-11.6-2.81-10.49-10.88.12-.91-.6-1.37-1.38-1.83-2.35-1.41-2.32-1.46-.21-2.74,1.05-.64,5.3-11.4,4.74-11.53-4.47-1-1-7.93-6.36-8.41-.72-.06-1.23-3,1.46-3.34,1.11-.12,1.93-.57,1.71-1.89a1.55,1.55,0,0,0-1.72-1.42c-1.09,0-1.93-.09-1.92-1.54s.79-1.58,1.91-1.56a1.51,1.51,0,0,0,1.73-1.85c-.09-1.09-.89-1.35-1.76-1.21-1.23.19-1.92-.08-1.86-1.46,0-.93.27-1.61,1.37-1.58,2.59.07,2.33-1.79,2.33-3.45,0-4.67-.12-9.33.06-14,.08-2.14-1.46-5.21,2.5-5.82.25,0,.6-1.14.54-1.18-3.09-1.93-2.15-6.29-4.74-8.25-2.86-2.15-3-7.39.16-9.16,2.85-1.57,1.13-4.14,1.39-6.22.18-1.39.87-3.21-1.5-4.14-2.86-1.12-3.18-4.85-.45-5.83,2.24-.8,1.38-4.39,4.32-3.94,1.21-1.11,0-2.82,1-4,0-.05.75-.93-.24-.33a7.12,7.12,0,0,0-.69.66,21.24,21.24,0,0,1-3-.13c-1.1-.19-2.85.88-3.05-1.36-.17-1.86,1.19-1.48,2.3-1.69,2.33-.43,1.08-2.38,1.38-3.65.8-3.31-2-7.48,2.85-10,1.26-.64-.06-3.24-1.86-2.6-3.94,1.42-4.44-3.05-7.1-3.61,1-2.68,3-5.41-.34-7.9.61-.79,1.5-.47,2.29-.54,1.71-.14,4.14.61,4-2.23-.06-1.92,1.66-4.87-2.28-5.42-1.15-.16-4.89-10.21-4.22-11.06,1.05-1.32,3.83-1.35,3-4.09a6.71,6.71,0,0,0,1.61-1.51,6.68,6.68,0,0,0-1.48,1.64c-1.22-.27-3.47.86-3.11-1.7.26-1.8-1.63-4.2,1.47-5.41,1.95-.75,2.38-2.09.1-3.2-2.46-1.19-2.47-2.17,0-3.39,2.17-1.06,1.88-2.62-.23-3.09-1.88-.41-1.68-2.22-1.35-2.37,5.55-2.49,1.75-7.35,2.9-10.9l.55-.44a2.72,2.72,0,0,1,2.62.23c.72,1.39,2.11,2.11,3.19,3.13.27.35.44.79.86,1,0-.42-.33-.63-.52-.94a4.93,4.93,0,0,0-1.57-1.61c-1.11-.67-1.59-1.93-2.56-2.71-.72-.35-1.46-.64-2.15-1l-.41-.43q0-6.19,0-12.38c0-6.86,1.35-8.63,8.14-10.33,1.08-.28,1.7-.63,1.89-1.83.22-1.41,1.53-1.55,2.06-.6,2,3.63,3.39,3.85,4.74-.37.12-.39,1.5-.37,2.29-.54l-.17-.11c1.57,1.35,1.13,3.5,2.08,5.09,1.17,1.64,2.35,3.29-.14,5.66,2.38-1,4-2.31,5.66-.48a6,6,0,0,1-.75,6.52,6.8,6.8,0,0,0-.13,8.32c.55.83,1.56,1.81,1.23,2.62-2,5.08,2.21,7.24,4.61,10.22,2,2.44,1.85,6,4.6,8,.84.63.31,1.89-.45,2.65a1.75,1.75,0,0,0,.06,2.93c.95.88,1.48,2.4.56,3.09-3.48,2.64-2.81,7.84-6.57,10.2-1.74,1.09-1.41,2.31-.2,3.57a3.21,3.21,0,0,1-.69,3.25,6.52,6.52,0,0,0-.21,8.31c1.62,2.28,1.2,4.18-.81,5.6-3.12,2.22-3.05,4.52-.74,7.18.21,1.81.23,3.61-1.51,4.75-2.54,1.65-.41,2.49.54,3.56L452,147a13.08,13.08,0,0,0-.21,3.45c.76,3.79.78,6.74-4.53,5.69-1-.2-2.08.2-1.94,1.59a2,2,0,0,0,2.63,1.58c4-1.09,4.49.91,4.16,4.11-.15,1.37-.1,2.23,1.93,3.07s1.85,4.17-.13,6.1c-2.54,2.48-2.64,8.34,0,10.45,1.35,1.08,1.77,8.66.42,8.8-3.12.33-2.56,2.46-2.18,3.91.85,3.26-4.5,1.84-3.4,4.83s4.39.26,6,1.87c.68.7.95,2.44-.85,2.51-2.63.1-1.61,1.91-1.78,3.2a7.36,7.36,0,0,0-.75.63C451.5,208.51,451.73,208.27,451.92,208Z"/><path d="M23.07,111c-1.23,1.76,3.14,6.29-2.82,5.7l-.26-.36.39.21c-.11,1.19-.22,2.39-.34,3.58l.15-.16c-1.5,1.47-3.28,1.44-5.14,1a5.4,5.4,0,0,1-2.19-1.61,1.6,1.6,0,0,0-2.49-.06c-1.48,1.29-2.95,2.58-3.6,4.51a2.35,2.35,0,0,1-1.71,1C2.53,123.34,2,109.16,4.63,108.2c3.1-1.14,2.84-2,.23-3.1-2.28-1-1.36-4.54-4.62-5.21C-.65,99.71,1.4,98.16,2.91,98c1.18-.11,2.85.84,3.43-1S5.62,95,4.2,94.58c-1.77-.49-.9-2.22-1.05-3.44s.48-2.84-2-3.09c-1.58-.15-1.4-1.85-.2-2.89,3.06-2.69,3.11-4.54,0-7-.59-.47-1-1.47-.77-1.53,4.12-1,1.31-6.39,4.87-7.54a1.75,1.75,0,0,0,1.39-2.19c-.21-1.41-1.26-1.72-2.58-1.71s-2.95.9-3.58-.66c-.78-1.89.88-2,2.24-2.73,1.87-1,.49-11-1.53-12.5-.87-.63-1.15-1.74-.6-2,5-2.17,2.26-6.48,2.61-9.77C3.27,35,3.37,33,6.18,32.24c.68-1.6,1.08-3.62,3.63-2.4,1.08.7,1.19,2,1.79,3.07a2.89,2.89,0,0,0-1.2-2.49c-1-1.3-2.44-1.9-3.77-2.7l-.45-.51c.1-1.78,1.51-4-2.11-4.21-1.76-.12-.63-2.21-.93-3.37s.91-3.3-1.88-2.95c-.89.11-1.26-1.11-1-1.24C3.32,13.51,2.92,9.85,4.3,7.11,6.41,2.9,12.25,4.77,14,.46c.07-.18.6-.19.91-.27,1.16,4.25,5.92,2,8.57,4.92s1,7.9,5.55,9.17a1.78,1.78,0,0,1,.17,1.34c-6.18,3.78-1.56,9.86-3.13,14.6l-.51.41a2.17,2.17,0,0,1-2.25-.3c.06.06-.12-.15-.12-.15l.2.16a19.5,19.5,0,0,0,2.35,2.21c.11.17.22.34.32.51a55.72,55.72,0,0,0,.17,6.85c.34,2.48-1.84,6,2.71,7.14.47.12.15,3.32.2,5.09-2.35,1.58-3.8-.94-5.93-1.34.52,1.67,2.5,1.08,3.1,2.29-.62,2.18,1.16,5.17-2.8,6.3-1.15.33-.21,2.5,1.81,2.71,1.32.14,3.17-1,3.87.93.81,2.22-1.83,1.79-2.4,2.73-.88,1.48-1.16,3.26-3.34,3.36,1,2.86,2.94,5.73-.08,8.55,5.06,1.27,2.19,5,2.43,7.78l.15-.15-3-.25c-.88-1.58-1.78-1.62-2.73,0a14.8,14.8,0,0,1-2.5,2c-2,1.84-3.72,4-6,5.41-.23.27-.39.72-.15.86.5.31.9-.14,1.28-.44,1.53-1.84,3.29-3.42,4.84-5.22,1-.94,1.88-1.93,2.84-2.89a2.23,2.23,0,0,1,2.61.16c.23,3.23-1.54,7.72,4.9,6.74,1.52-.24,1.85,2.32.49,2.67-2.9.74-2.43,2.68-2.31,4.52.19,2.78-4.82,2.88-3.13,6.32l-.47.47c-.84.57-2,.39-2.85,1.07.46,1.67,2,2.53,3,3.76Q22.92,110.75,23.07,111Z"/><path class="cls-1" d="M393.1,87.71c-.05-1-.17-2,1-2.6-.15,1-1.13,2.79.54,2.82,6.63.12,8.95,5.59,12.55,9.52a1.72,1.72,0,0,0,1.24.56c3.31-.4,5.62.22,4.66,4.34-.51,2.17,1.71,5.49-2.56,6.16-.22,0-.51,1.22-.34,1.73.38,1.21,1.55.86,2.49,1,1.25.16,3.34-1.1,3.34,1.42s-2.2,1.13-3.41,1.47c-.86.24-2.13-.39-2.44,1-.27,1.21-.14,2,1.57,2.36,2,.38,1.57,3.77,4.12,4a3.14,3.14,0,0,1,.15,1.86c-2.44,6.36-2.18,6.24-.19,11.23.94,2.36-3.36,2.35-3.59,5,0,.61-2,.22-2.2-1.38-.3-2.27-1.85-1.18-3-1l.13.11c-1.77-2.62-5.29-1.06-7.34-3a18.39,18.39,0,0,1-1.2-1.59c-4.34-6-3.16-9.88,3.91-12.86,2,1.29,2.37,4.13,4.72,5.13.82.81.87,2,1.3,3.35.31-1.91-.17-3.05-1.56-3.76-1.06-1.29-1.66-2.93-3.07-4-.85-1.22-1.64-2.7-3.23-.74-1.3,1.64-3.17,1.71-5,1.65-2.09-.07-4.87.6-5.75-1.8-1-2.78,2.21-3.08,4.92-5-7-.26-13.36-.36-11.42-9.16a11.11,11.11,0,0,0,3.11-4.06c-.13-.42,1-.24.44-.82s.35,0-.28.35c-1.43,1.84-2.32,4.24-5.07,4.57-3.36-2.3-3.76-6.22-5.24-9.56a2.62,2.62,0,0,1,.69-1.19c2-1.36,5-.09,6.48-2.66,2.05-1,3-3.12,4.71-4.47a2.48,2.48,0,0,1,1.94.2C391.2,89.69,392.18,90,393.1,87.71Z"/><path d="M753.05,124.89c-2.1.06-4.08.45-4-2.45,0-1-1-1.16-1.82-1.19-5.13-.17-8.12-2.58-8.21-7.94,0-1.16-.34-1.89-1.68-1.84-1.59,0-1.47-1.84-1.13-1.9,4.76-.93,1.33-7.53,6-8.72.5-.12,1.63-1.75,3.15-1.81s3.82.79,3.91-2.28c0-.81,1.29-.92,2.11-.82,4.15.53,7.12,3.67,10.71,5.06,4.44,1.72,1.2,7.71,6,8.61.5.09.09,1.5-.91,1.72a2.27,2.27,0,0,0-2,2.33c-.43,4.45-2.46,7.49-7.41,7.6-1.13,0-2.07.48-2,1.69C756,125.58,754.08,124.77,753.05,124.89Z"/><path class="cls-1" d="M660.11,96.05c.6,4.64,5.94,1.63,7.06,3.47,1.37,2.24,5.22,3.61,3.91,7.4-.33,1,.32,1.71,1.61,2,2.81.57,2.66,1.66.11,2.49-1.09.35-1.78.7-1.78,1.93,0,5.39-3.45,6.41-7.84,8.48-3.58,1.69-4.51.79-7.47-.19-4.32-1.44-6.53-3.54-7.32-7.65-.22-1.15-.06-2.26-1.72-2.53-2.73-.43-2.63-1.68-.25-2.39a2.29,2.29,0,0,0,2-2.31c.55-4.58,2.82-7.7,7.74-7.58C658.72,99.2,657.07,95.4,660.11,96.05Z"/><path class="cls-2" d="M26.3,53.09c-.81-.06-1.62-.08-2.42-.19-1.46-.2-3.49.7-3.78-1.84-.1-.8,0-2,1-1.81,1.74.36,4.5-1.81,5.09,1.64.39,2.25,1.93,1,3,1.25C28.51,53.42,27.39,53.21,26.3,53.09Z"/><path class="cls-3" d="M211.93,45.39c-.82-.84-.69-2.5-2.6-2.44-1.23,0-1.33-1.26-1.26-2.28a1.35,1.35,0,0,1,1.16-1.38c1-.14,2.35-.32,2.6.79,1,4.48,3.86,2.11,6.16,1.85C217.08,45,212.39,41.52,211.93,45.39Z"/><path class="cls-4" d="M276.1,237.93c1,.66.55,1.74.74,2.64.24,1.16-.81,2.83.93,3.38s1.29-1.4,2-2.12c.89-1,2-1.31,2.89-.19.73.94.87,2.37-.74,2.63-2.72.44-1.93,2-1.38,3.56C277.1,245.39,275,242.38,276.1,237.93Z"/><path class="cls-5" d="M571.75,62.55a9.6,9.6,0,0,1,2.89-.5c1.44.19,3.47-1.12,4.2,1.25.25.8,0,2-1,1.85-1.88-.18-4.36,1.67-5.51-1.39l-.5-1.35S571.75,62.55,571.75,62.55Z"/><path class="cls-6" d="M416.25,173c-1.6,0-3.45.42-3.3-2.2.13-2.3,1.87-1.7,3.23-1.77,1.11-.14,2.39-.77,2.87,1-.86.69-.84,1.37,0,2C418.59,173.78,417.35,173.19,416.25,173Z"/><path class="cls-1" d="M6.15,30.25C4.32,29.09.33,32.13.45,28.38c.08-2.53,3.72-.79,5.73-1.17l-.12-.13A2.24,2.24,0,0,1,6.15,30.25Z"/><path class="cls-7" d="M331.87,38.71c.38-4.25,3.51-2,5.54-2.27.15,0,.56,1.06.64,1.65a1,1,0,0,1-1.16,1.2c-1.71-.19-3.6.82-5.12-.73C331.77,38.55,331.87,38.71,331.87,38.71Z"/><path d="M730.1,209.1c-.86-2.22-.25-3.18,2.27-3.16,2.27,0,4.26-.07,3.55,3.13L736,209a4.4,4.4,0,0,1-6.12,0Z"/><path class="cls-8" d="M153.25,134c-1.15-.43-3.05.73-3.22-1.74-.19-2.76,1.87-1.89,3.23-2.19,1.09-.11,2.27-.46,2.84,1a1.16,1.16,0,0,0,0,2C155.52,134.5,154.34,134.15,153.25,134Z"/><path d="M23.06,105.16c2.22-.49,3.24.07,3.18,2.67,0,2.38-.35,3.85-3.17,3.2l.12.12a4.4,4.4,0,0,1,0-6.12Z"/><path class="cls-9" d="M366.91,52.07c-.13,1.69-2.88-.08-2.67,2,.17,1.68-.83,1.95-2.13,1.92-1.06,0-1.38-.82-1.45-1.66-.11-1.4.56-2.15,2-2.11s1.29-1.16,1.42-2.08C365.06,50.76,365.45,52.18,366.91,52.07Z"/><path class="cls-10" d="M811.23,203a11.79,11.79,0,0,1-2.46-.15c-1.15-.31-1.39-1.31-1.22-2.36a1.39,1.39,0,0,1,1.25-1.32c1.05-.1,2.08,0,2.14,1.36.1,2.38,1.41,2.21,3,1.52C813.5,203.66,812.32,203.18,811.23,203Z"/><path class="cls-11" d="M574.84,131.06c-1.16.22-2.39.57-2.71-1.17.89-1,2-1.89,2.88-2.89l-.06.08c1.25.79,3.82-.33,3.89,1.79C578.93,131.33,576,130,574.84,131.06Z"/><path class="cls-12" d="M133.09,98.07l.77,1a1.36,1.36,0,0,1,.22,2.18c0,1.35.87,2.95-1.05,3.77,0-1.56,1.39-3.59-1.56-4a1.39,1.39,0,0,1-1.09-1.83C130.71,97.56,132.06,98.14,133.09,98.07Z"/><path class="cls-13" d="M273.09,173.13c1.39-.83,3-1.2,3.62.61,1.1,3.13-3,1.63-3.47,3.55a.66.66,0,0,1-.14-.84,2.63,2.63,0,0,1,0-3.48Z"/><path d="M6.15,30.25l-.09-3.17c2.09-.11,4.29-.41,4.41,2.7l0-.1c-1.41.9-3.81.14-4.32,2.56Z"/><path class="cls-14" d="M306,248l-1.14-.14a3.85,3.85,0,0,1,1.27-3.91L306,244c1.14.52,3.16-.36,3.12,2S307.08,247.43,306,248Z"/><path class="cls-15" d="M176.09,143c-.63,1.2-1.74,1-2.8,1-1.18-.94-4-.27-3.26-3,.48-1.71,2-1,3.16-.74L173,140C174,141,175,142.06,176.09,143Z"/><path class="cls-16" d="M111.1,101c-1.4-.18-3.81,1.17-3.56-1.7.19-2.21,2.25-1.09,3.57-1.16l-.06-.15a2.19,2.19,0,0,1,0,3.15Z"/><path class="cls-7" d="M224.08,114.15c1.37.54,4.19-1.23,3.89,1.82-.23,2.34-2.47,1-3.86,1l0,.16a2.18,2.18,0,0,1,0-3.15Z"/><path class="cls-17" d="M86.19,130.6c.89.08,1.61.41,1.65,1.44s-.69,1.45-1.57,1.49c-1.12.06-2-.36-1.88-1.66C84.49,130.9,85.28,130.59,86.19,130.6Z"/><path class="cls-18" d="M403.73,194.09c-.17,1.22-1.3.95-2.2,1.07-1.33.19-1.68-.45-1.56-1.68s1-1.47,2-1.4S403.78,192.7,403.73,194.09Z"/><path class="cls-19" d="M12.54,127.3l-2.5.76c-1.35-.07-2.94.58-3.74-1.2.88-1.56,2.11-2.43,4-2A4.52,4.52,0,0,1,12.54,127.3Z"/><path class="cls-20" d="M176.06,117c-1.18.11-2.85,1.07-3.08-1-.28-2.45,1.79-1.68,3.11-1.84L176,114a2.19,2.19,0,0,1,0,3.13Z"/><path class="cls-21" d="M415.9,142.75c.47-1.16-.14-3.23,2.3-2.74,1.14.23,1.08,1.18.91,1.9-.56,2.47-2,1.23-3.3.7C415.81,142.6,415.9,142.75,415.9,142.75Z"/><path class="cls-5" d="M270.11,150.32c-.11,1.12.81,2.81-1.47,2.75a1.37,1.37,0,0,1-1.39-2c.56-1.79,1.76-1.46,3-.65Z"/><path class="cls-1" d="M569.09,140.13c-.35,1.17.8,3.23-1.77,3.07-2.17-.13-.92-2-1.44-2.95l-.17.17c1.13-.82,2.32-.43,3.5-.17Z"/><path class="cls-5" d="M270,97.93c0,1.27,1.13,3-1.38,3.14-.94,0-1.45-.45-1.4-1.5.1-2.16,1.75-1.35,2.88-1.55Z"/><path class="cls-22" d="M273,95.18c.9,3-1.08,2.89-3.06,2.75l.1.09c.33-1.68-.14-4.25,3.06-2.73Z"/><path class="cls-14" d="M273.1,173v3.48c-.93-.63-2.84.1-2.75-1.95S271.75,172.72,273.1,173Z"/><path d="M25.79,85.45c1.3-.21,2.9-1.39,3.45.94a1.24,1.24,0,0,1-1.12,1.73c-2.52.38-1.83-1.6-2.17-2.82Z"/><path class="cls-23" d="M10.07,125,6.3,126.86c-.12-.84,0-1.82-1.24-2l.91-.8a3,3,0,0,1,3.58-.47A1.21,1.21,0,0,1,10.07,125Z"/><path class="cls-24" d="M426,75c-1.28-.07-3.25.93-3-1.68.22-2.21,1.89-1,3-1.13l0-.18a2.22,2.22,0,0,1,0,3.14Z"/><path d="M383.71,64.75c.52-1.15,0-3.23,2.41-2.67,1.14.26,1.09,1.2.9,1.9-.64,2.36-2.1,1.22-3.4.67Z"/><path class="cls-1" d="M658.46,206.46c-.57-1.33-1.4-2.77.66-3.52a1.28,1.28,0,0,1,1.86.95c.57,2.41-1.46,2-2.63,2.46Z"/><path class="cls-25" d="M746,209c0-1.38-.46-3.16,1.79-3s.93,1.88,1.06,3l.16,0a2.19,2.19,0,0,1-3.12,0Z"/><path class="cls-26" d="M569.21,140.25c.07-1.31-1.06-3.17,1.5-3.33.67,0,1.31.12,1.41,1,.26,2.47-1.86,1.71-3,2.23Z"/><path class="cls-1" d="M26.06,30.22c1.24.08,3.16-1,3.17,1.41s-2,1.28-3.18,1.43l.14.14a2.19,2.19,0,0,1,0-3.12Z"/><path class="cls-1" d="M4.76,237.16c-1.75-.06-1.68-1.08-1.59-2.06S4.13,234,5,234c1,0,1.33.63,1.34,1.56C6.32,236.87,5.62,237.26,4.76,237.16Z"/><path class="cls-27" d="M133.9,49.16c.07-1,.13-2,.2-3.07,1,.27,2.39,0,2.74,1.49s-.7,1.6-1.64,1.9Z"/><path class="cls-28" d="M399.74,197c-.08.95-.77,1.23-1.65,1.24a1.1,1.1,0,0,1-1.24-1.12,1.4,1.4,0,0,1,1.31-1.68C399,195.4,399.59,196,399.74,197Z"/><path class="cls-14" d="M162.07,195.15l.29,1.73a1.2,1.2,0,0,1-.33,1.5c-.95-.27-2.46.31-2.58-1.31C159.31,195.23,160.88,195.36,162.07,195.15Z"/><path class="cls-29" d="M336.3,208.12c.65.38,1.58.72,1.31,1.67a2.07,2.07,0,0,1-1.36,1.27c-1.14.11-1.14-.86-1.13-1.71A1.07,1.07,0,0,1,336.3,208.12Z"/><path class="cls-1" d="M94.76,132.62c.38-1.48,1.22-2.35,2.78-1.63a1.76,1.76,0,0,1,.42,1.64c-1,1.27-2.21,1-3.28-.13Z"/><path d="M1.56,127.78c1.27,0,1.69.64,1.52,1.52s-1.05.95-1.85.9-1.08-.56-1-1.26A1.11,1.11,0,0,1,1.56,127.78Z"/><path d="M156.1,133.08c-1.1,0-2.84,1-2.84-1s1.75-1,2.84-1Z"/><path class="cls-30" d="M162,198.38l.33-1.5a2.5,2.5,0,0,0,3.54,1c-.25,1.76-2.58.77-3,2.27A1.63,1.63,0,0,1,162,198.38Z"/><path class="cls-31" d="M417.78,128c.67.12,1.22.37,1.13,1.19s-.68,1-1.34.94-1.3-.29-1.17-1.16S417.12,128,417.78,128Z"/><path d="M419.06,172.07c-1.19.4-2.44.42-2.44-1.12,0-1.79,1.41-1.14,2.43-.93C419.06,170.71,419.06,171.39,419.06,172.07Z"/><path class="cls-32" d="M402.78,120.39c-3.48-.57-2.45,4.17-5.54,4.78-.85.17-1.51,4.86,2.42,5.71.32.07.21,2.11.31,3.24l-.54.44c-1.78.28-3.66-.58-5.36.51.24,2.23,4.15,2.24,3.16,5.22a4,4,0,0,0-1.42,1.11,7.45,7.45,0,0,1,1.35-1.22c1.47-.12,2.95-.27,4.43-.34.87-.05,1.68.2,1.87,1.2.15.82.26,1.74-.66,2.2-3.57,1.81-4.48,5.73-6.56,8.22s-.49,7.5-5.15,8.36c-1,.18-1.07,2.1.4,3.16,3.19,2.31,3.29,4.25.23,6.48-1,.71-1.46,1.42-1.26,2.41.79,4-2.76,5.53-4.83,7-2.48,1.79-1.59,2.55-.36,4a.84.84,0,0,1-1.33.17c-2.25-1.46-7.83,2.57-6.88-4.17l.35-.29c.17,0,.09.09-.22.42-1.22.4-3.29-.59-3.15,2,.06,1.21-.58,2.05-1.77,1.76-4-1-5.29,2.74-7.67,4.45-.79.56-1,2-2.44,1.71-2-.41-1.35-2-1.35-3.22,0-2-.36-3.34-2.8-2.68-.46,1.85-1.51,2.76-3.54,2.54-1.07-.12-2.24-.3-2.9,1.18-1.84,4.15-2.58.28-3.73-.58-7,1.11-9.11-5.12-12.75-8.79-1.47-1.47-2.13-2.2-2.93-.2-.5,1.27-.72,2.1-2.19,1.88-1.79-.27-1.09-1.72-1.26-2.75-.21-1.21.59-2.92-1.23-3.35s-1.25,1.47-1.87,2.11a5,5,0,0,1-6.33.46c-2.07-1.76-.07-2.94,2-3.4.27-.06.62-.84.53-1.19a2.11,2.11,0,0,0-2.33-1.45c-5,0-7.07-2.61-7.28-7.4-.13-3-5-4.39-3.19-8.28-2.79-1.14-4.91-3.25-8-4.37-3.55-1.29-9.19-2.18-10.47-6.36-.78-2.57-.72-7,.27-9.23,1.69-3.87,2.65-6.25-.52-9.9a3.21,3.21,0,0,1-.67-1.67c2.84-2,2.18-5.93,4.4-8.06,2.79-2.66,2.63-5-1-6.95-.79-1.68-.25-3.47-.43-5.19.45-1.44,1.82-2.88,0-4.35a5.43,5.43,0,0,1,.3-2c-.11-2.49.31-5.15-.44-7.42-1.18-3.55,4.36-2.58,3.24-5.37-.73-1.79-4.13-1.9-3.18-5.06.68-2.24-1.34-5.41,2.65-6.46a1.18,1.18,0,0,0-.24-2.24c-3.36-1.09-3.46-2.2-.27-3.7,2.08-1,.86-2.94,1.18-4.44.16-.78,0-1.74,1-2s1.84-.14,2.24,1.18c.75,2.42,2.15,2.45,2.9.15.66-2,2-1.3,3.16-1.46,1-.13,2.63.21,2.87-.25,4-7.51,4.78,1.71,7.36,1.45.16,0,1.17,1.9,1.3,1.66,1.9-3.54,6.64-1.61,8.62-4.44,1.51-2.17,2.68-2.5,3.5.06.65,2,3.95,1.3,3.64,4,0,.11.52.29.8.44,1.51-3.46,6.45-1.58,7.79-4.88.58-1.43,1.14-1.78,2.41-1.68A1.48,1.48,0,0,1,345,56.86c.05,1.08-.12,2-1.45,2.16-3.34.37-1.73,3-2,4.64a1.42,1.42,0,0,0,1.32,1.76c.83.07,1.91-.14,2-1.06.17-1.5.42-2.81,2.28-2.25s.86,2.24,1.06,3.43-.45,2.52,1.13,2.93,1.41-1.31,2.09-2c2.38-2.37,2.75.31,3.58,1.7,2.45,1.33,2.45,1.33,4,4.41,1.27-2,1.81-5.12,5.13-3.68.42,1.42.18,3.45,2.71,2.87,1.56.5,2.54,1.4,2.21,3.2-1.14.09-2.29.1-3.41.28-1.36.21-1.4,2-1,2.07,2.92.27,3.06,5.07,6.73,3.94.8-.25,2.41-.39,2.44.83.13,5.09,3.88,2.3,6,2.93,2.24-.56,3,.87,3.48,2.62-.14,1.08-1.55,1.48-1.42,2.68.5.83,1.59,1,2.09,1.76.2,1.82-.12,3-2.45,2.88a31.11,31.11,0,0,0-4.7.32c-.27-.56-.71-1-1-1.56a11.45,11.45,0,0,0,1.1,1.49c2.46,2.82,3.13,6.52,4.78,9.74a1.93,1.93,0,0,1,2.18.11c-1.2,3.75,1.76,5.82,3.52,8.28.91,1.29,2.42,1.31,2.65-.71.21-1.73,1.47-2.1,2.33-1.45,1.65,1.26,3.51,2.8,4.19,4.63s-1.52,1.51-2.76,1.65-3.17-.51-3.21,1.33c0,2.19,2.2,1.84,3.42,1.59,2.14-.42,5.25,1.35,6.17-2.32,1.67-1,2.46,0,3.11,1.35A.73.73,0,0,1,402.78,120.39Z"/><path class="cls-32" d="M207.93,134.08c.89.85-.24,3.41,2.4,2.82a4.39,4.39,0,0,1,1.41.17c-.93,3.75,2.37,5.9,3.37,8.91,2.22.84,3.15,2.16,1.64,4.38-.42,1.14.47,1.92.78,2.87.19,1.27-.26,2.61.39,3.83-.14,2.57,1.78,1.88,3.19,2L221,159c-.82,3.74,2.65,6.22,4.42,6.74,2.92.87,2.86,2.27,2.58,4.14-.68,4.5,1.81,7.33,5.24,9.06,2,1-.27,5.08,3.48,4,2.81.08,2,1.72,1.4,3.25l.09-.06c-1.64,1.68.17,4-1.17,5.79a4.37,4.37,0,0,0-3.26,3.15c-1.75,1.25-4-.25-5.74,1v0a3,3,0,0,1-4,0l0,.07c-5.4-.72-10.79-1.44-15.71,1.85l-.26-2c-2.65-.33-5.73-2.11-7,2.11l-2-.19c-.64-1.75-1.51-2.5-3.69-2.08-3.29.65-5.67-1.06-5.71-4.48-.05-5.09-.65-10.22.4-15.29l1.61-.11c1.27-2.57,2.3-5.08-1.31-6.72-.72-.32-.91-1.5-.57-1.62,4.49-1.5,1.81-5.73,3.28-8.33,1.07-.2,2.16-.22,2-1.89-.14-1.47-1.29-1-2-1.35-.91-1.55-.45-3.24-.46-4.86-.07-6.83,0-6.83,5.84-8.28.12-1.14.31-2.2-.72-3.18-2.92-2.76-3.13-6.69-.33-9.14,1.8-1.57,1.38-2.15-.47-3.11-2.56-1.34-1.45-3.87-1.07-5.74s2.55-1.22,3.86-1c3.15.47,1.82,3.17,1.74,4.79C201.21,130.32,204.07,132.5,207.93,134.08Z"/><path class="cls-33" d="M293,101.41c0,2,0,3.9,0,5.85-.17-.45-.33-.89-.49-1.34-.52-1.53,1.13-4-1.17-4.59s-.83,2.31-2,3-2.54.62-3.23,1.91c-1.91-1.44-2.47-3.16-1.07-5.28,1.25-2.32,2.94-4.72-1.06-6.14-1.2-2.21-1.44-4.42,0-6.62.95-.13,2.41-.38,2.31.87-.25,3.13,1.91,4.75,3.25,7.07,2.34,4.06,2.35.31,3.31-.46,0,.75.09,1.51.13,2.26A2.54,2.54,0,0,1,293,101.41Z"/><path class="cls-34" d="M207.93,134.08c-4.33-.38-6.75-2.61-6.87-7.07,0-.66.05-1.33,0-2-.14-1.54.56-3.56-2-3.83-1-.11-2.29-.18-2.59.92-.46,1.68-1.12,3.57,1,4.88,2.48,1.55,1.84,2.59-.16,4.46a4.82,4.82,0,0,0,.13,7.35c1.63,1.37,1.64,2.65,1.65,4.28a.6.6,0,0,1-1,0c0-.82.36-2,0-2.42-3.93-4.35-4-6.44-.36-10.68.79-.91.8-1.69-.57-2.13-4-1.29-1.84-4.55-1.64-6.67s2.79-.92,4.3-1c3.53-.1,2.33,2.83,2.12,4.35C201.19,129.59,204.67,131.7,207.93,134.08Z"/><path class="cls-35" d="M190.09,176c0,4.32,0,8.65,0,13-.05,3.81,1.51,6.07,5.54,6,2.11-.06,3.69.28,3.47,2.9-1.2-.56-2.28-4.8-3.69,0-.4,1.36-1.92,1.25-3.16,0a10.59,10.59,0,0,1-3.15-9.55C189.71,184.26,187.91,180,190.09,176Z"/><path class="cls-36" d="M364.14,68.91c-3-.53-3.19,1.3-3.09,3.52.07,1.32.07,2.79-1.86,2.78s-2-1.54-1.83-2.81c.34-2.15-.81-3.26-2.38-4.22,2.42.44,1.35-2.79,3.15-3a36.54,36.54,0,0,0,3,2.93C362.23,68.11,363.48,67.43,364.14,68.91Z"/><path class="cls-37" d="M347.84,186.16c1.09-.29,1.62,3.46,3.19.34,1.39-2.75,5.64-.29,7-3.48.07,1.89-.34,3.22-2.71,3.17-1.16,0-2.92-.8-3.39,1s1.65,1.18,2.22,2a11.31,11.31,0,0,1,1.06,2.73A1.35,1.35,0,0,1,354,193,10.85,10.85,0,0,1,347.84,186.16Z"/><path class="cls-35" d="M208.36,198c4.82-4.12,10.16-3.86,15.71-1.85a2.34,2.34,0,0,1-.46-.19c-3.39-2-1.65,3.61-4.3,2.86-1.92-.55-1.61-4.09-4.63-3.22-1.22.35-2.35,0-2.8,1.86C211.38,199.55,209.79,199.36,208.36,198Z"/><path class="cls-38" d="M354,193l1.15-1.12c1.21.15,2.93-.4,2.79,1.77-.1,1.61.74,3.53-.66,4.74-1,.89-2.68.91-3.08-.92A24.55,24.55,0,0,1,354,193Z"/><path class="cls-39" d="M285.08,101q.53,2.64,1.07,5.28c.25,2.52-1.64,2.41-2.83,1.74-1.93-1.08-.73-3.25-.92-4.94C282.2,101.19,283.08,100.27,285.08,101Z"/><path class="cls-35" d="M238.15,186.14c-.09-1.24,0-2.57-1.4-3.25.91-1.21-.83-3.94,2.39-3.89,2.11,0,2,1.3,1.86,2.6C240.76,183.52,242.38,186.71,238.15,186.14Z"/><path class="cls-40" d="M374.16,56.47c-1.13,2.49-4.69,3.68-6.32,2a2.5,2.5,0,0,1-.65-1.71,1.55,1.55,0,0,1,1.69-1.44c1.85.1,4-.86,5.36,1.29Z"/><path class="cls-41" d="M217.92,157.06c-1.23-1.16-.69-2.69-.85-4.07a8,8,0,0,0-2-3c2.07-1.32,1.6-2.67,0-4,3.1-.13,3.38,3.58,5.87,4.4.35.12.43,2.52-.46,2.51C217,152.86,218.49,155.52,217.92,157.06Z"/><path class="cls-42" d="M193.1,159.26c-.67,2.77,1.65,6.23-2.19,8.34-1,.56.5,1.06,1,1.59,1.89,2.25,2.13,4.55-.16,6.74.08-2.45,2.31-5.63-2.27-6.55-.23,0-.33-2.17-.23-2.2C193.78,166.11,190.89,161.41,193.1,159.26Z"/><path class="cls-43" d="M400,134.12c2.63.42,7-3.3,7.14,3a17.88,17.88,0,0,0-6.72-.21c-1.34-.85-.95-1.86-.27-2.9Z"/><path class="cls-42" d="M198.06,143.05l1,0c-9,1.06-5.25,8.05-6,13-2-3.81-1.15-8-.64-11.76C192.78,141.81,196.16,143.67,198.06,143.05Z"/><path class="cls-44" d="M224.14,114v3.15c-2.06-.47-5.83,2-5.9-1.44C218.18,112.44,222.18,115,224.14,114Z"/><path class="cls-45" d="M399.29,168.81a11.75,11.75,0,0,0,1.44.26c1.43.09,3.14-.28,3.23,2,0,1.15-.6,1.74-1.74,2-2.29.46-2.1-1.37-2.58-2.64-.21-.55-.86-1-.22-1.63Z"/><path class="cls-46" d="M208,105.11c-1.45-.2-3.51.78-3.68-1.89-.06-1,0-1.84,1.31-2.18,3.06-.76,2.15,2,3,3.2.19.27.36.55.54.82A.74.74,0,0,1,208,105.11Z"/><path class="cls-47" d="M161,208c1.36-.08,2.13.47,2.09,1.93s-.66,2.1-2.06,2a1.73,1.73,0,0,1-1.84-1.78C159.05,208.85,159.46,208,161,208Z"/><path class="cls-48" d="M319,41c0,1.39-.65,2.15-2.07,2.1a1.73,1.73,0,0,1-1.87-1.81,1.8,1.8,0,0,1,2.07-2.11A1.73,1.73,0,0,1,319,41Z"/><path class="cls-49" d="M306.08,265.48c.15,1.68-1,1.7-2.19,1.73-1.5,0-1.95-.69-1.86-2.1s.87-1.93,2.22-1.89S306.17,264.15,306.08,265.48Z"/><path class="cls-2" d="M393.1,87.71c.36,1.41,1.89,3.24-.77,3.8-2.49.52-2.17-1.63-2.37-3.14a2.31,2.31,0,0,1,.08-3.06C391.58,85.45,390.18,89.33,393.1,87.71Z"/><path class="cls-50" d="M208.17,118.72c0,1.12-.23,2-1.62,1.92s-2.36-.36-2.25-2c.08-1.26.95-1.58,2.06-1.64S208.28,117.39,208.17,118.72Z"/><path class="cls-51" d="M306.09,243.92c-.07,1.41.32,3-1.27,3.91-1.69.18-3.1-.11-2.74-2.26C302.5,243,304.83,244.66,306.09,243.92Z"/><path class="cls-52" d="M352.92,58.57c1,.06,1.91.38,1.94,1.67a1.88,1.88,0,0,1-3.74.25C351,59.22,351.74,58.73,352.92,58.57Z"/><path class="cls-53" d="M317.16,49.17c1.27,0,1.76.79,1.65,2a1.59,1.59,0,0,1-1.62,1.54c-1.16,0-1.91-.5-1.91-1.74S316,49.16,317.16,49.17Z"/><path class="cls-54" d="M236,169.15c1.28,0,1.58.94,1.56,2,0,1.42-.82,2-2.21,1.79s-1.28-1.23-1.26-2.19C234.09,169.51,234.8,169,236,169.15Z"/><path class="cls-55" d="M205.08,41.29a1.7,1.7,0,0,1-1.82,1.81,1.8,1.8,0,0,1-2-2.13,1.75,1.75,0,0,1,1.84-1.81C204.54,39.12,205.09,40,205.08,41.29Z"/><path class="cls-42" d="M284,88.24c0,2.21,0,4.41,0,6.62C281.59,92.65,281.27,90.44,284,88.24Z"/><path class="cls-3" d="M171.19,250.92c-1.37-.15-1.67-1.08-1.53-2.13a1.44,1.44,0,0,1,1.8-1.25c.88.12,1.57.52,1.54,1.57A1.65,1.65,0,0,1,171.19,250.92Z"/><path class="cls-45" d="M251.45,215.14c-.72-1.44-1.66-3,.65-3.81,1.06-.36,1.89.27,2,1.52.26,2.33-1.31,2.25-2.86,2.2Z"/><path class="cls-56" d="M208,105.11l1.15,0c1.14.2,2.85-.66,2.87,1.61,0,1.53-1,1.36-2,1.45C207.42,108.38,208.24,106.41,208,105.11Z"/><path class="cls-12" d="M182.33,129.06c-.09,1.06-.42,1.87-1.72,1.8S179,130,179,128.92s.48-1.79,1.71-1.77S182.31,128,182.33,129.06Z"/><path class="cls-57" d="M407.49,150.33c-.91-1.57-1.31-3.08.95-3.77.88-.27,1.52.31,1.68,1.31.39,2.37-1.44,2.08-2.79,2.37Z"/><path class="cls-35" d="M224,196.07l4,0c.05,1.44.29,2.85-2,2.84S223.85,197.62,224,196.07Z"/><path class="cls-2" d="M368.85,201.8c1.46.09,2.22.45,2.1,1.79s-1,1.49-2,1.48-1.81-.51-1.76-1.77C367.2,201.87,368.28,202,368.85,201.8Z"/><path class="cls-58" d="M276.82,206.68c-.05,1.37-1.06,1.36-2,1.39-1.17,0-1.76-.43-1.7-1.69.07-1.41,1-1.42,2-1.4S277,205.34,276.82,206.68Z"/><path class="cls-59" d="M302.41,36c1.19.67,3.55-.88,3.63,1.89,0,1.67-1.18,1.81-2.31,1.62-2.55-.42-1.76-2.09-1.19-3.63Z"/><path class="cls-58" d="M345,48.34c-.07,1-1,1.24-2,1.22s-1.9-.38-1.88-1.65c0-1.55,1-1.81,2.28-1.75S345,46.94,345,48.34Z"/><path class="cls-57" d="M171.14,230.93c1.06,0,1.91.17,1.91,1.52,0,.94-.34,1.56-1.32,1.61s-2,.12-2.15-1.26C169.46,231.64,169.87,230.93,171.14,230.93Z"/><path class="cls-60" d="M306,50.78c.11,1.27-.58,1.78-1.75,1.79s-2-.24-2-1.53.64-1.76,1.79-1.82S305.92,49.53,306,50.78Z"/><path class="cls-10" d="M205,76.64c0,1.42-.92,1.55-2,1.53s-1.82-.56-1.69-1.84c.11-1.12.91-1.23,1.76-1.27C204.19,75,205.08,75.25,205,76.64Z"/><path class="cls-61" d="M176.09,143c-3.08,1.06-3.6-.45-3.05-3C176.16,138.91,176.21,140.89,176.09,143Z"/><path class="cls-61" d="M176,117.14V114c1.13.4,3.17-.73,3.05,1.79S177.37,117.42,176,117.14Z"/><path class="cls-62" d="M221.11,159.07c-.14-1.34-1.14-3.11,1.56-3,1,0,1.43.54,1.41,1.52-.06,2.55-1.6,1.87-3.05,1.39Z"/><path class="cls-63" d="M371,76.24c0-.42.07-.85.1-1.27,1.05.28,2.79-.93,2.94,1.29.06.91.25,2-1.24,2S370.7,77.7,371,76.24Z"/><path class="cls-64" d="M383.94,183.06l1.33-.17c2.78-.41,2,1.55,2,3a1.38,1.38,0,0,0-.44.46C384.76,186.21,383,185.85,383.94,183.06Z"/><path class="cls-65" d="M361.17,68.11c-2.77.84-3.69-.24-3-2.93C360.69,64.56,361.22,66,361.17,68.11Z"/><path class="cls-66" d="M262.44,191.71c1,1.16,1.83,2.44,0,3.49a1.47,1.47,0,0,1-2.29-.88c-.62-2.18,1-2.23,2.41-2.51Z"/><path class="cls-67" d="M375.42,195.39c-1.43,0-1.38-1-1.35-2s.55-1.38,1.54-1.33c1.38.05,1.45,1,1.41,2S376.36,195.42,375.42,195.39Z"/><path class="cls-35" d="M201.09,198.08c.91-5.44,4.19-3,7-2.11C205.37,195.39,202.66,194.85,201.09,198.08Z"/><path class="cls-68" d="M251.09,204.91a10.17,10.17,0,0,1-2.4,0,1.78,1.78,0,0,1-1.55-2.15c.06-.34.62-.73,1-.83,1.09-.28,1.91,0,2.08,1.33A6.7,6.7,0,0,0,251,205Z"/><path class="cls-69" d="M345.55,205.44c-.64-1.27-2-2.7.45-3.47.86-.27,2.07-.36,2.34,1,.48,2.55-1.82,1.7-2.9,2.33Z"/><path class="cls-43" d="M251,205c1.28.19,3.21-.72,3,1.86-.06.84-.56,1.1-1.26,1.11-2.47,0-1.72-1.72-1.68-3.07Z"/><path class="cls-61" d="M260,207.49c.21-2.68,1.29-2.48,2.24-2.42s1.25.81,1.17,1.69c-.12,1.44-1.19,1.27-2.14,1.22S260.05,207.16,260,207.49Z"/><path class="cls-1" d="M400.12,134.05l.27,2.9a7.55,7.55,0,0,0-6.32-1.88C395.72,132.61,398,134,400.12,134.05Z"/><path class="cls-43" d="M399.42,168.72c-1.11.64-2.19.95-2.51-.77a1.16,1.16,0,0,1,.94-1.44c2-.22,1.2,1.39,1.43,2.31Z"/><path class="cls-35" d="M228.07,196c1.66-1.82,3.82-.71,5.74-1C232.1,196.51,229.87,195,228.07,196Z"/><path class="cls-35" d="M237.07,191.87c.35-1.94-1-4.21,1.17-5.79C237.23,187.88,238.79,190.21,237.07,191.87Z"/><path d="M10.14,124.06l-4.17,0c-1.15-3.68,3.58-3.69,4-6.39a2.78,2.78,0,0,0,3.27.13l.84,2.54c2.1,2.16,4,4.49,6,6.72l1,.17c0,.75-.16,1.21-1,.84-2.33-1-2.82,1.08-3.87,2.23a2.46,2.46,0,0,0-2.21.07c-1.4-.76-.66-2.13-.91-3.21A3.92,3.92,0,0,1,12,124.87c-.28-.59.12-2.07-1.4-1.05Z"/><path d="M20.1,127.08c-3.21-1.16-5.81-2.87-6-6.72l6.11-.36Z"/><path d="M13.57,135.17c0,1.1-.39,1.84-1.66,1.89s-2.26-.29-2.24-1.8c0-1.08.44-1.85,1.66-1.95C12.71,133.19,13.49,133.74,13.57,135.17Z"/><path class="cls-70" d="M118.85,58.59c1.09.07,2,.36,2,1.67a1.65,1.65,0,0,1-1.8,1.86c-1.13,0-1.91-.33-2-1.64S117.72,58.71,118.85,58.59Z"/><path class="cls-71" d="M114,84.8c.52-1.28-.83-3.56,1.89-3.65,1.68-.07,1.75,1.24,1.59,2.35-.38,2.7-2.13,1.6-3.61,1.16A1.66,1.66,0,0,0,114,84.8Z"/><path class="cls-59" d="M31.5,156.06c-.88-.1-2.05.28-2.22-1.23-.14-1.29.5-1.81,1.7-1.79.93,0,2.07-.28,2.15,1.25C33.19,155.42,33,156.29,31.5,156.06Z"/><path class="cls-54" d="M123.88,184.44c.11,1.4-.79,1.67-1.89,1.65-.83,0-1.67-.07-1.78-1.21s.28-1.92,1.59-1.9C122.83,183,123.85,183,123.88,184.44Z"/><path class="cls-72" d="M125,61.69c.94.05,1.83.24,2,1.52s-.27,2.23-1.71,2.31c-1,0-1.9-.24-2-1.49S123.51,61.84,125,61.69Z"/><path class="cls-45" d="M123.88,79.6C124,81,123,81.18,122,81.17c-.81,0-1.7,0-1.79-1.15s.34-1.9,1.61-2C122.92,78,123.74,78.34,123.88,79.6Z"/><path class="cls-12" d="M20.09,128.09l1-.84c2.13-.43,2.13,1,2,2.38-.1,1-.88,1.34-1.79,1.2C19.57,130.55,20.17,129.15,20.09,128.09Z"/><path d="M13.15,124.18l-.05,3-.25.21-.31-.09c-1.36-.22-2.46-.71-2.47-2.35a1.2,1.2,0,0,0,.07-.89l-.05.07A2.08,2.08,0,0,1,13.15,124.18Z"/><path class="cls-43" d="M10.24,139.8c2.25-.12,3.11.1,3.21,1.43s-.33,2.21-1.87,2.2a1.58,1.58,0,0,1-1.82-1.77A2.76,2.76,0,0,1,10.24,139.8Z"/><path class="cls-61" d="M37.82,143.41c-1.21,0-1.69-.64-1.69-1.84s.51-1.83,1.69-1.84,1.69.66,1.69,1.84S39,143.4,37.82,143.41Z"/><path class="cls-73" d="M14,130.39c.2-.7.05-1.73,1.08-1.77s.94,1,1.13,1.7C15.51,131.11,14.78,131.27,14,130.39Z"/><path class="cls-67" d="M729.92,209H736c.46,3-1.41,3.13-3.7,3.22C729.66,212.29,729.29,211.11,729.92,209Z"/><path class="cls-74" d="M811,180.21c1.38-.26,3-1.09,3,1.48,0,1-.06,2.14-1.39,2-2.76-.22-1.44-2.25-1.49-3.66Z"/><path class="cls-75" d="M680.83,218.75c.47-1.32-.53-2.89.73-4.07l-.12,0c1.63.44,3.22,1.08,2.51,3.17-.59,1.7-1.89,1.71-3.25.7Z"/><path class="cls-61" d="M733.12,229c0-1.31-1.09-3.1,1.38-3.39,1-.12,1.4.52,1.47,1.46.17,2.59-1.66,1.77-3,1.78Z"/><path class="cls-61" d="M602.75,198.52c0-1.58.18-3.16,2.44-2.5,1,.3,1,1.36.7,2-.79,2.19-2,1.61-3.24.31Z"/><path class="cls-43" d="M680.7,218.6c.76,1.81.39,3.17-1.64,3.68a1.14,1.14,0,0,1-1.36-1c-.49-2.76,1.88-1.92,3.14-2.49Z"/><path class="cls-67" d="M745.92,209l3.12,0c-.25,1.09,1,2.81-1.26,3C745,212.31,746.31,210.13,745.92,209Z"/><path class="cls-66" d="M663.5,232.21c-1.47-.22-3-.45-2.36-2.54.3-.93,1.37-.84,2-.59,2.36.87,1.07,2.09.18,3.22Z"/><path class="cls-76" d="M746.14,232c.15-1.1-1.14-2.79,1.24-3,1.2-.09,1.93.32,1.72,1.66-.34,2.21-2,1.07-3.11,1.17Z"/><path class="cls-32" d="M452,139.05c0-.16,0-.36-.13-.47-3.55-4.09-3.61-4.17,1.52-8.23.81-.64,2.1-1.34,1.33-2-5.43-4.51-3.35-8.65.24-12.9.25-.3.07-1,.09-1.46.09-.16.18-.33.26-.5a1.23,1.23,0,0,0,0-1.86l-.24-.5c0-1.09-.68-2.88.7-3,2.62-.2,2.29-1.77,2.3-3.41,0-1.88-.67-4.21,2.68-3.88,1,.11,1.34-.78,1.23-1.7-.14-1.1-1-1.14-1.84-1.14s-2,.2-2.08-1.34.53-2.16,2-2.11c1.09,0,2-.19,1.91-1.58s-1.2-1.43-2.21-1.36c-1.33.09-1.65-.57-1.73-1.77-.32-4.85-2.37-8.19-7.73-8.49-.7,0-1.3-.25-1.44-1a2,2,0,0,1,.82-2.11c3.15-2.65,2.75-2.89,0-6.39-2.09-2.67-2.12-8-.25-9.1,3.26-2,2.06-4.36,2.59-6.62a7.54,7.54,0,0,1,5.75,0c.47,1.63,1,3,3.24,2.81,1.84-.18,4-.66,4.51,2.28.15.85,1.75,1,2,.36,2-5.09,6.26-1.7,9.32-2.64a1.35,1.35,0,0,1,1.7.4c.53.5.93,1.23,1.84,1,.61-.45,1-1.12,1.69-1.49,2.46-.11,4.66.46,6.66-2.56.91-1.38,6.14-2.41,8.54,1.06.8,1.16,2.21,2.08,2.59,1.19,2.21-5.14,7.11-1.56,10.23-3.45,1.3-.72,2.4,0,3.52.49l.4.48c-1.49,3,2,3,3,4,2.68,2.71,5,6.92,10.08,5.45a2.21,2.21,0,0,1,1,0c3,.53,9.85-1.37,13-3.47.45-.3,1.28,0,1.93,0,.63,2.4,1.37,4.8-.78,6.83-.06.62-.73-.11-.18.27s.59-.34,1-.44a2.11,2.11,0,0,1,2.71,1c2.3.1.4,1.49.6,2.21.24.93-.1,2.55.84,2.63,2.9.27,5.59,3.24,7.08,3.13,5.6-.41,5.79,2.39,5.49,6.34-.06.85.78,1,1.36,1.22,1,.68,2.63.93,2,2.79-3.4-.55-4.82,2.89-6.49,4.4-1.92,1.74,1.58,2,3.11,2.06,2.11,0,3.45.39,3.27,3-.14,2,.31,4.18-2.9,3.53-.42-.37-.8-.78-1.18-1.12-.49.77.65.84.58,1.41a4.22,4.22,0,0,1-1.53,4.35c-.42,1.52,1.58,1.71,1.63,3,.27,1.81-.62,3.73.57,5.43l2.76-.33c1.18,1.1,1,2.31.3,3.56l.2,0c-1.65.56-.15,2.54-1.47,3.25-2.72.61-2.33-3.79-5.51-3.18-2.29.45-3.68.54-3.48,3.36.22,3.3,0,6.62,0,9.92-2.47.2-3.83-.49-3.58-3,.2-2-.11-3.45-2.84-3.47s-3.4,1.28-3.22,3.66c.1,1.33.18,2.86-2,2.43a.76.76,0,0,1-1-.08c-1.31-3-5.46-4.22-6.92-1.76-1.88,3.15-5.65,4.51-7,8.11-.29.79-1.69.74-2.39-.31-2-2.66-3.36-6-7.61-5.61a3.47,3.47,0,0,0-2.88,1.28c-2.26,2.8-4.27,2.44-6.41-.76-1.11-.92-2-.79-2.86.43-2.19,3.07-4.77,3.15-7.06.15-.55-.72-1.71-1.4-1.74-1-.34,5.05-6.76,1-7.83,5.44-.39,1.6-2.37,1.26-3-.87-1.69-6.08-2-5.64-7.07-2.5-1.48.92-5.91-1.14-9,.48-1.4-4.61-2.52-3.22-3.87.08-.19.45-1.8.46-2.75.45-4.38-.06-5.71,3.18-7.09,6.4C453.37,141.18,452.76,139.93,452,139.05Z"/><path class="cls-77" d="M507,131.07c1.64,2,3.58,2.9,5.79,1,4.79-4.08,9.73-2.3,11.11,4.08-2.24-2.17-3.59-5.58-7.52-5.37-.81,0-1.79-.11-2.13.82s.33,1.36,1.23,1.66c2,.67,2.06,2.25.8,3.4-1.1,1-2.6.67-3-1.07-.52-2.23-2.26-1.56-3.59-1.56C507.63,134,506.56,133.3,507,131.07Z"/><path class="cls-78" d="M559,98.09c1.52.58,1,1.83,1,2.93,1.93,3.56,2.37,7.07-.09,10.65-.35.52.09,1.58.16,2.39-2.23-1.72-.77-4.09-1.1-6.14-1-.94-2-1.85-2.94-2.8,1.08-1.25,3.56-1.46,3-4A2.21,2.21,0,0,1,559,98.09Z"/><path class="cls-79" d="M540.24,130.12l1,.08c-1.38.88-1.07,2.29-1.14,3.59s.5,3.16-2,3.2c-1.42,0-2.48-.42-2.14-1.9.39-1.65-1.59-4.24,1.7-4.84A18.71,18.71,0,0,1,540.24,130.12Z"/><path class="cls-80" d="M510,53.14c-1.27-.39-3.26.31-3.14-2.13,0-.85.05-1.66,1.15-1.85,1.7-.28,2.12.58,2.58,2.11s2.3.78,3.54.92,2.78-.37,2.9,1.73c.13,2.36-1.52,2.12-3,2.19l0-.07C513.53,53.85,511,54.49,510,53.14Z"/><path class="cls-81" d="M452,139.05l2.85,1.06c.77,2.45,0,3.86-2.69,4-.18.3-1.17.33-.31,1l.25,2.07c-1.25-.51-3.2.73-3.76-1.42-.51-2,.7-2.37,2.38-2.81C452.66,142.4,451.21,140.25,452,139.05Z"/><path class="cls-82" d="M563.13,117.29l-.3-3.56c-.67-2.57,1-2.78,2.85-2.85l.46.39C565.09,113.26,568.76,117.6,563.13,117.29Z"/><path class="cls-83" d="M510,53.14c1.11,0,2.23,0,3.34,0,3.85.12,1.91,1.59.67,2.9a5.82,5.82,0,0,1-3.9-.9Z"/><path class="cls-52" d="M559.79,126.1c-.2,1.46-1.19,1.84-2.48,1.79s-1.4-1.11-1.45-2.1c-.07-1.65,1-1.87,2.29-1.74A1.75,1.75,0,0,1,559.79,126.1Z"/><path class="cls-84" d="M482.07,58.9c-.05,1.17.57,2.62-1.27,3.05-.76-.8-1.94-1-2.7-1.73L476.84,59l1.09-.86c.84-1,2.34-.94,3.12-2C482.48,56.63,481.89,57.9,482.07,58.9Z"/><path class="cls-58" d="M469.85,46.56a1.67,1.67,0,0,1-1.73-1.87c0-1.49.77-2,2.09-2a1.63,1.63,0,0,1,1.73,1.85C472,46.05,471.17,46.54,469.85,46.56Z"/><path class="cls-85" d="M545.69,69.75l-2.49-.68a2.29,2.29,0,0,1-3.15.07c3.46-1.3,3-4.24,2.94-7C545.08,64.24,542.4,68.05,545.69,69.75Z"/><path class="cls-86" d="M563,88.07l-2-2.79a17.3,17.3,0,0,1,2.38-.16c1.12.08,2.81-.63,2.69,1.57C566,89.15,564.33,88.24,563,88.07Z"/><path class="cls-71" d="M458.21,153.05c-.42-1.86-.17-3.21,2.21-3.21,1.33,0,1.83.66,1.59,1.8-.56,2.66-2.6.94-4,1.26Z"/><path class="cls-74" d="M564.54,71.88c.92-.11,1.53.34,1.53,1.65s-.61,1.7-1.82,1.63-1.94-.34-2-1.64S563.21,72,564.54,71.88Z"/><path class="cls-51" d="M463.58,43c-1.26-.09-1.61-.87-1.58-2,0-1.3.94-1.64,1.95-1.67,1.18,0,1.08,1,1.13,1.73C465.13,42.13,465,43.11,463.58,43Z"/><path class="cls-87" d="M553,59.75c0,1.47-.27,2.14-1.32,2.27-1.21.15-1.92-.33-2-1.55a1.38,1.38,0,0,1,1.34-1.7C552.1,58.67,552.91,59,553,59.75Z"/><path class="cls-69" d="M505.31,46.45c-1.44,0-1.43-1-1.42-2.07,0-1.3.74-1.68,1.92-1.54s1.17.93,1.21,1.79C507.06,45.83,506.63,46.55,505.31,46.45Z"/><path class="cls-43" d="M458,44.79c.05,1.24-.5,1.82-1.78,1.65-1.47-.19-1.16-1.31-1.18-2.24s.49-1.45,1.52-1.45C458.07,42.76,458,43.78,458,44.79Z"/><path class="cls-88" d="M481.05,56.08c-.1,2.13-1.56,2.16-3.12,2C477.66,55.42,479.12,55.38,481.05,56.08Z"/><path class="cls-89" d="M451.85,145.07l-2.16.49c0-.28-.2-.65-.08-.82.64-1,1.66-.55,2.55-.63C452.06,144.43,452,144.75,451.85,145.07Z"/><path class="cls-46" d="M426.2,105.09c.14-1.46-1.8-3.69,1.42-4,1.22-.13,2.2.13,2.19,1.76,0,3-2,2.28-3.75,2.14Z"/><path class="cls-48" d="M437,52.16c1.14-.07,1.93.38,2,1.57s-.17,2.29-1.73,2.36a1.79,1.79,0,0,1-2.09-1.58A1.83,1.83,0,0,1,437,52.16Z"/><path class="cls-72" d="M451.92,208c-.23,1.43,1.12,3.51-1.58,3.9-1.35.2-1.68-.79-1.73-1.83-.14-2.89,2-1.83,3.45-1.93Z"/><path class="cls-90" d="M455.05,114c-1.34.19-3.07,1-3.08-1.41s1.77-1.55,3.08-1.45L455,111a2.17,2.17,0,0,1,0,3.09Z"/><path class="cls-91" d="M429,72.28c0,.94,0,1.88,0,2.83l-3.05.07V72Z"/><path class="cls-92" d="M444.72,150.35c-1.21-.59-3.11-.65-2.37-2.8a1.39,1.39,0,0,1,2-.74c1.85,1,1,2.34.27,3.63Z"/><path d="M10,92.06c2.67-1.67,5.25-3.45,6.93-6.23a2.4,2.4,0,0,1,1.34,2.39l-5.12,6A6.21,6.21,0,0,1,10,92.06Z"/><path class="cls-93" d="M23.11,84.91l-3,.36.13.13c.19-1.5-1.59-4.06,1.38-4.12,2.62-.06,1.15,2.39,1.35,3.77Z"/><path class="cls-58" d="M10,92.06c1.61-.1,3.07,0,3.15,2.17C10.28,95.51,9.78,95.16,10,92.06Z"/><path class="cls-93" d="M20.38,116.58c-1.26.51-2.7,1.92-3.53-.43a1.41,1.41,0,0,1,.95-2c2.29-.6,2.34,1,2.44,2.54Z"/><path class="cls-40" d="M13.24,117.82c-.22,1-.34,2.11-1.68,2s-1.36-1.23-1.59-2.17C11.1,116.84,12.2,116.57,13.24,117.82Z"/><path class="cls-94" d="M18.31,88.22c-1-.5-1-1.53-1.34-2.39.93-1.29,2.13-.64,3.27-.43l-.14-.13C20.17,86.66,20.17,88,18.31,88.22Z"/><path class="cls-76" d="M26.19,30.08V33.2c-2.53.08-4.12-.52-2.49-3.45l-.08.07Z"/><path class="cls-95" d="M407.13,123.82c4.75.3,2.78,3.75,2.83,6.18,0,.7-.82.86-1.54.83a1.48,1.48,0,0,1-1.62-1.48c-.06-1.31.05-2.64.08-4A1.19,1.19,0,0,1,407.13,123.82Z"/><path class="cls-96" d="M407.13,123.82l-.25,1.57c-2.85-.45-3.91-2.37-4.1-5a1.34,1.34,0,0,1,.27-.44.64.64,0,0,1,1.1.1C407.51,119.43,407.2,121.72,407.13,123.82Z"/><path class="cls-97" d="M387,87l1.36,1.35c-.65,2.15-1.5,4.08-4.32,3.73-1.35-.15-3,.63-3.88-1.09,1.19-1.14,2.94-1.54,3.91-3l.08,0C384.94,87.29,385.7,86.44,387,87Z"/><path class="cls-98" d="M383.94,105.07l-2.18-.11c2.84-.4,1.92-5,5.31-4.79q.42.36.3.72c-.09.25-.18.37-.27.37C387.69,103.89,387,105.44,383.94,105.07Z"/><path class="cls-99" d="M387.1,101.26l0-1.09c-.1-1.63.52-2.51,2.3-2.15a1.25,1.25,0,0,1,1,1.41C390.36,101.93,388.29,100.8,387.1,101.26Z"/><path class="cls-100" d="M395.25,104.88c.89.13,1.48.58,1.4,1.55s-.67,1.75-1.87,1.57-1.07-1-1.08-1.81C393.69,105.18,394.34,104.85,395.25,104.88Z"/><path class="cls-101" d="M404.15,120.05l-1.1-.1a3.14,3.14,0,0,0-2.8-1.88C403.56,116.52,403.58,116.53,404.15,120.05Z"/><path class="cls-102" d="M384.06,88c.33,3.14-1.15,3.9-3.91,3-.61-2.53.76-3.15,2.91-3Z"/><path class="cls-103" d="M377,95.22c-1.32-.6-3.62-.17-3-2.84a1.22,1.22,0,0,1,1.45-1c2.62.48,1.41,2.43,1.41,3.91Z"/><path class="cls-104" d="M397.16,140.18c-.91,1,.33,3.32-2,3.32-1.37,0-1.53-1.11-1.36-2.13.43-2.51,2.15-1.21,3.47-1.08Z"/><path class="cls-105" d="M293,101.41,293,98c1.12.23,2.88-.53,2.87,1.55C295.9,101.43,294,100.78,293,101.41Z"/><path class="cls-106" d="M377.19,179c.19-1.09-1-2.76,1.25-3,1.28-.14,1.79.49,1.64,1.7-.28,2.24-1.93,1-3,1.17Z"/><path class="cls-107" d="M215.07,150c2.67-.35,3.6.46,2,3C214.8,153.08,214.71,151.7,215.07,150Z"/><path class="cls-108" d="M387,87l-2.85,1c-.55-2.36.77-2.86,2.72-2.74C386.9,85.89,387,86.45,387,87Z"/><path d="M13.15,124.18l-3.06-.05c.37-1.21-.85-3.39,1.58-3.32C13.92,120.89,13.06,122.86,13.15,124.18Z"/><path class="cls-109" d="M455,114.13V111c1.12.42,3.25-.73,3,1.82C457.78,115,456,113.67,455,114.13Z"/><path class="cls-110" d="M556,105.12c2.24-.39,3.8-.07,2.94,2.8C556.89,108.14,555.35,107.8,556,105.12Z"/><path class="cls-111" d="M559,98.09v3.07c-1.25-.29-3.32.52-3.07-1.91C556.16,97.15,557.93,98.33,559,98.09Z"/><path class="cls-112" d="M540.05,69.14l3.15-.07c-.26,1.1.55,2.87-1.53,2.89S540.09,70.37,540.05,69.14Z"/><path class="cls-113" d="M478.1,60.22c1.07.3,3.28-1.16,2.7,1.73C479.61,61.82,477.85,62.6,478.1,60.22Z"/></g></g></svg>