<svg xmlns="http://www.w3.org/2000/svg" width="328.077" height="107.678" viewBox="0 0 328.077 107.678">
  <g id="Group_154" data-name="Group 154" transform="translate(1307.692 -953.015)">
    <path id="Path_36754" data-name="Path 36754" d="M-1085.612,985.127a2.511,2.511,0,0,0,3.07-.186c1.156-.931,2.595-.669,3.979-.084,1.861.787,3.094,2.317,4.528,3.6.609.545.99,1.273,1.723.186a.722.722,0,0,1,.68-.169,21.167,21.167,0,0,1,4.019,4.04c.389.525-.294.834-.844.951-.725.154-1.549-.215-2.212.388a3.745,3.745,0,0,0,4.515-.112c.373-.376.679-.642,1.122-.322a.749.749,0,0,1,.07,1.188c-.555.52-.814.82-.078,1.485.7.633-.008,1.069-.52,1.5a1.072,1.072,0,0,0-.173,1.424c.51.671.636-.152.946-.361a1.921,1.921,0,0,1,2.337-.028c.877.722-.651,1.044-.5,1.72,2.369.723,2.442.891,1.051,2.767,2.046.158,3.154,1.685,4.47,2.872.6.541.961,1.2,1.939,1.342,1.065.156,1.265,2.812.35,3.971-.149.188-.426.272-.4.619.364.808,1.913-.146,1.889,1.1-.022,1.126-1.367.374-1.908,1.142a7.724,7.724,0,0,0,1.2,1.469c1.01.773,1.057,1.37.16,2.339a2.1,2.1,0,0,0,.01,2.837c.523.628,1,1.124.089,1.685-.589.361-.883,2.011-2,.563-.236-.306-.6-.382-.743.027-.187.549-.289,1.282.42,1.485.839.24,1.846.5,2.528-.291.449-.518.806-1.224,1.452-.529.569.613-.023,1.1-.551,1.564-.769.673-.286,2.046-1.341,2.614a11.42,11.42,0,0,1,1.074,2.52c.967,2.04,1.072,1.99-1.075,2.563.038.164.021.389.124.488,2.153,2.091,2.208,2.14.195,4.175a2.174,2.174,0,0,0-.586,1.914,2.955,2.955,0,0,1-1.076,2.486c-.676.666-.977.771-1.672.075-.773-.774-1.447-.543-2.457.112-1.807,1.173-1.982,3.29-3.317,4.677-.69.717-1.163,1.2-1.937.107-.543-.77-1.314-.51-2.01-.316-.1.844.622.686.858,1.008a1.605,1.605,0,0,1-.006,2.12c-.419.452-1,.282-1.467-.288-.721-.883-1.482-.855-2.164.133-.357.517-.931.81-1.311,1.361a1.466,1.466,0,0,1-2.219.251c-1.029-1.553-2.465-1.245-3.782-1.12a10.086,10.086,0,0,1-6.847-1.994.581.581,0,0,0-.679-.044c-3.227,1.489-4.419,1.224-6.888-1.243-1.547-1.546-3.877-2.062-5.247-3.93a1.158,1.158,0,0,0-1.721.225,1.079,1.079,0,0,0,.182,1.567c.867.621.922,1.164.054,1.8-.3.22-.4.555-.086.809,1.3,1.045,1.025,1.987-.067,3a1.109,1.109,0,0,0-.068,1.59c1.157.945.911,2.169.944,3.368.026.929-.21,1.849,1.091,2.361.771.3.448,1.061-.359,1.349s-.962,1.354-.574,1.505c1.7.663.948,2.664,2.161,3.537a.8.8,0,0,1-.05,1.338c-1.092.891-.846,1.523.065,2.5.656.7.438,2.089,1.529,2.7.087.048.091.5.033.522-1.447.613-.883,2.409-2,3.3-.842.672-1.345,1.767-2.289.185-.235-.394-.515-.123-.76.135-1.748,1.843-4.784.426-5.4-1.95a14.082,14.082,0,0,0-2-3.729c-.333-.527-.465-.909.011-1.335.993-.888.67-1.579-.163-2.41-.789-.789-1.756-1.552-1.663-2.9a.728.728,0,0,0-.6-.684c-1.115-.311-2.409-.474-.861-2,.395-.389-.091-.649-.523-.67-.965-.047-1.188.574-1.217,1.371-.018.48-.143.914-.7,1.009a.947.947,0,0,1-1.076-.619c-1.042-2.133-3-3.7-3.615-6.12-.462-1.836-2.035-2.035-3.679-1.286-1.747.8-3.209,2.522-5.49,2.036a1.931,1.931,0,0,0-2.241.736,1.206,1.206,0,0,1-1.221.433c-1.236-.117-2.642.543-3.661-.6-1-1.129-2.028,1.793-3.012-.086-.191-.365-.512.126-.758.3a1.969,1.969,0,0,1-2.616-.164c-1.518-1.206-2.78-.844-3.469.9a1.635,1.635,0,0,1-.668.889c-.942.589-.964,1.326-.121,2.012,1.23,1,1.217,2.077.09,3.04-.935.8-.653,1.778-.627,2.686a10.183,10.183,0,0,1-3.544,7.907c-.973.936-2.607.444-3.39,1.792-.177.305-.7-.291-1.032-.6-.822-.743-1.45-1.709-2.791-1.82-.924-.077-1.615-3.284-1.273-4.143a11.134,11.134,0,0,1,2.639-4.049,1.037,1.037,0,0,0-.322-1.655c-.954-.558-.555-1.066-.16-1.874.573-1.17,2.255-2.234.844-3.872,1.152-2.78-1.723-4.021-2.33-6.128-.069-.238-.137-.69-.059-.726,1.346-.625.5-3.275,2.8-3.026.314.034.48-.309.292-.716-.971-2.108.6-3.684,1.21-5.453a2.266,2.266,0,0,1,.926-.946c.624-.416,2.086.155,1.984-.612a7.533,7.533,0,0,0-1.734-3.152c-.832-1.1-2.757-1.821-.936-3.594a.512.512,0,0,0,.069-.373c-.234-1.99.36-3.271,2.772-2.948-1.45-2.019-1.4-2.145,1.066-2.724-.517-.571-.958-1.124-1.468-1.6-.58-.545-.943-1.067-.333-1.818.15-.184.374-.553.309-.633-1.677-2.1.539-1.67,1.371-2.122.268-.571-.345-.576-.531-.849-.823-1.206-.478-2.214.974-2.5,1.247-.242,1.371-.571.345-1.341a17.067,17.067,0,0,1-1.254-1.173c-.325-.3-.507-.817-.187-1.008,1.774-1.061,1.01-2.76,1.054-4.188.047-1.5.078-2.775,2.418-2.531-.884-1.081-1.789-2.028-.232-2.861-1.275-.715-.625-2.3-1.446-3.211a2.76,2.76,0,0,0-.453-.309c.673-1.15-.253-2.534.393-3.557.39-.616.786-1.313.376-1.692-1.364-1.261-.954-2.822-1.013-4.317-.04-1.009.22-2.1-.953-2.729-.308-.165-.406-.734-.184-.835,1.555-.71.89-2.656,2.178-3.639,1.042-.8,1.335-.874,1.568.41.067.371.032.777.483.938a1.39,1.39,0,0,0,.317-.247c.644-.963-.743-2.979,1.637-3.064,1.246-.044,1.987-1.675,3.461-1.186a1.5,1.5,0,0,0,.758-.094c.6-.156,1.108-1.4,1.51-.837.941,1.316,2.612.627,3.673,1.812.939,1.049.782,2.5,1.87,3.443.456.4-.407.874-1.019.97-.48.076-1.121.022-.776.87.619,1.521.025,2.553-1.672,2.925-.306.068-.621.1-1.083.169.27.813,1.662,1.548.125,2.33-.563.286-.166.583.224.787.686.359.958,1.127,1.6,1.6a1.454,1.454,0,0,1,.088,2.238c-2.129,1.579-.782,3.684-1.019,5.524-.093.724.721.757,1.311.8.533.036,1.089.107,1.072.82-.016.687-.582.761-1.1.845-.565.091-1.2.051-1.338.834-.141.806.543.973.945,1.435,1.09,1.251,2.624,2.246,2.872,4.1a.927.927,0,0,0,1.08.86c1.18-.04,1.753,1.007,2.464,1.589.951.781-.711,1.009-.842,1.652.247.355.586.3.893.326,1.75.175,1.84.908.69,2.056-.412.411-.6.965-.237,1.386.543.622.668-.241.992-.42a.74.74,0,0,1,.9.038c.862.76,1.716,1.529,2.549,2.32a1.229,1.229,0,0,1,.291,1.44c-1.839,2.73,1.371,4.325,1.431,6.611,0,.121.284.344.421.334,2.447-.18,1.757,1.7,2.261,3.04.744,1.978,1.589,4.109,3.419,5.427a3.354,3.354,0,0,1,1.342,3.327c-.076,1.217-.075,2.317,1.693,2.368,1.032.03,1.121.821.349,1.421s-.8,1.22-.346,2.486c.5-1.876,2.406-1.3,3.157-3.1.8-1.926-.537-2.767-.769-4.109-.291-1.683-2.548-2.931-.858-5.13a1.6,1.6,0,0,0-1.256-2.674.785.785,0,0,1-.791-.9c.022-.69.508-.79,1.055-.868.676-.1,1.418.205,2.179-.411a2.932,2.932,0,0,1-1.092-2.435c-.8-.119-1.091,1.189-1.9.525a.765.765,0,0,1-.226-.677,4.13,4.13,0,0,1,3.111-2.243c-2.2-.382-2.183-1.885-2.074-3.469.04-.569.164-1.243-.257-1.684-1.819-1.909-.207-1.817,1.089-1.942.363-.035.781.1,1.158-.448-1.761-.287-2.207-1.426-2-3a1.506,1.506,0,0,0-.259-1.088c-1.726-1.872-.125-1.667,1.053-1.743.564-.036,1.236.105,1.472-.62a1.367,1.367,0,0,0-.515-1.518c-1.432-1.368.553-1.713.861-2.571.132-.367,1-.45.575-1-.357-.461-.953-.286-1.373.1-.564.515-1.107,1.055-1.641,1.6-.319.327-.675.419-1,.1a.625.625,0,0,1,.089-1c.983-.865.972-1.834,1.132-3.127.22-1.777-.412-2.5-1.253-3.593-.769-1,.673-1.138.971-1.76.314-.657,1.823-1.348-.284-1.515-.874-.068-1.032-.732-.96-1.4.153-1.412-.625-2.992.713-4.2-1.238-1.849,1.026-2.585,1.2-3.736.441-2.949,2.935-3.388,4.685-4.74.362-.279.625-.65.969-.889.73-.507,2.051-.672,2.216.061.715,3.17,2.78.794,3.244.469,1.346-.944,2.337-1.437,3.6-.094a.509.509,0,0,0,.33.154c2.558-.012,2.565-.026,4.684,1.071.355.184.6.171.834-.11.6-.737,1.155-1.008,1.8-.01.291.45.663.249.882-.166a1.123,1.123,0,0,1,1.164-.513c.511,0,1.116-.035,1.245.632.132.683-.4.853-.932.978C-1085.038,984.944-1085.324,985.042-1085.612,985.127Zm23.891,39.659c.441-1.338-.383-2.961,1.176-3.942.27-.17.29-.382.043-.6-1.133-1.016-1.1-1.8.024-3.008,1.38-1.486-2.245-.816-1.306-2.41a.377.377,0,0,0,.074-.177c-.038-1.208-.7-1.711-1.918-1.4a.757.757,0,0,1-.943-.465c-.447-.994-1.419-1.905-.537-3.165.219-.312.057-.99-.422-.759-2.275,1.1-2.643-1.6-4.155-2.046-.521-.154-.543-1.219-.11-1.739.561-.675.933,0,1.384.359.663.531,1.757.68,2.024-.083.469-1.334,2.355-2.33,1.2-4.1-.275-.423-1.059-.49-1.223-.274-1.725,2.286-3.243.963-5.02.011-.95-.51-1.941-1.089-2.129-1.929-.227-1.013,1-.591,1.6-.76.732-.205.631-.764.5-1.245-.261-.956-.673-.441-1.061-.06a.709.709,0,0,1-1.167-.051c-.7-.884-1-.587-1.162.333-.086.5-.1,1.123-.79,1.135s-.652-.648-.832-1.112c-.353-.913-.807-2.241-1.946-1.662-1.489.756-1.491.019-1.607-1-.086-.758-.225-1.393-1.076-.465-.927,1.01-1.428.594-1.607-.557-.245-1.569-1.087-1.66-2.1-.756-.684.608-.958.408-1.558-.117-.532-.466-1.152-1.666-1.669-1.242-.888.729-2.12.469-2.764,1.124-1.129,1.147-1.727.513-2.479-.295-.591-.634-.988-1.267-2.107-.335-.746.622-2.649,1.394-2.932,1.185-1.784-1.319-1.382.133-1.859,1.026s-1.1,1.439-.021,2.3c.27.215-.229.625-.475.927a2.251,2.251,0,0,0,.07,3.269c.4.419.772.925.386,1.334-1.8,1.9-.924,4.229-1.063,6.372-.057.889-.272,1.938.622,2.711.962.832.83,1.641.037,2.647-.778.987-1.865,2.6-1.256,3.443,1.543,2.126.294,4.28.058,6.066-.277,2.094.665,2.368,1.786,2.681a9.086,9.086,0,0,1,6.383,6.1c.516,1.468,1.069,2.55,2.67,2.886.578.121,1.169.384.75,1.2-.2.379-1.137.664-.379,1.149a1.294,1.294,0,0,0,1.881-.292c.248-.42.709-1,.907-.63.646,1.2,1.1,2.213,2.828,1.5.262-.109,1.134,1.206,1.7,1.885a4.8,4.8,0,0,0,6.88.974c1.019-.769,1.316-.436,1.552.566.1.431.177,1.425.748.878,1.2-1.152,2.733-1.7,3.974-2.656.807-.619.881-1.056,1.593-.012s1.545.993,2.444-.076a17.423,17.423,0,0,0,2.991-4.468c.386-.923.857-1.535-.047-2.32-.609-.529-.469-1.021-.031-1.669,1.515-2.239,1.943-5.133,4.46-6.737C-1060.208,1023.128-1060.78,1024.385-1061.721,1024.785ZM-1122,1039.2c-.82.147-1.1,1.99-2,.609-.987-1.51-3.12-2.445-2.585-4.8.089-.391-.34-.625-.6-.913-3.164-3.487-3.406-2.652-3.522-7.352a.417.417,0,0,0-.185-.311c-1.854-.872-1.777-3.149-3.193-4.359-1.488-1.271-3.19-2.438-2.866-4.844.077-.572-.434-.918-1.056-.813-.536.091-.924.7-.692.962,1.4,1.579-.024,3.018-.1,4.51a1.717,1.717,0,0,0,.685,1.683c.6.431.473.983-.136,1.408-1.965,1.371-2.292,2.7-1.1,4.8a1.219,1.219,0,0,1,.127,1.223c-.632,1.585-2.322,3-.855,4.981a1.141,1.141,0,0,1-.138,1.094c-2.1,1.977-.824,4.482-1.069,6.73-.122,1.12,1.509,2,1.743,1.8,1.263-1.079,2.825.541,4.019-.65.285-.284,1.128-.061,1.5.533.188.3.623.545.785.275,1.311-2.177,3.343.756,4.719-.706,1.208,1.683,2.266.036,3.335-.215C-1123.43,1044.434-1121.672,1041.227-1122,1039.2Z" transform="translate(-92.822 -16.386)" fill="#fff"/>
    <path id="Path_36755" data-name="Path 36755" d="M-1302.623,1044.4c-2.94-2.338-3.157-2.946-1.814-4.964-.478-.7-1.908-.056-1.986-1.391a2.843,2.843,0,0,1,.879-2.4,1.23,1.23,0,0,0-.227-1.867c-.987-.894-.954-1.785.07-2.709,1.328-1.2,1.7-2.431-.153-3.54-.666-.4-.753-.984-.055-1.328,2.571-1.268,1.1-3.565.368-4.376-1.927-2.15.034-1.995,1.2-2.435-.712-.826-1.174-1.674-2.3-1.725-.568-.026-1.2-.664-.814-.977,1.3-1.042.247-1.69-.064-2.635-.7-2.138.918-3.783,1.6-5.623.081-.217.473-.519.45-.545-1.853-2.124.544-3.179,1.181-4.651.282-.652-.248-.634-.509-.787-2.313-1.353-2.1-5.543-.906-7.757.586-1.089-.56-1.494-.835-1.768-1.746-1.752-.749-2.12,1.5-2.243-1.726-.98-.91-2.926-2.414-3.667a4.1,4.1,0,0,0,.051-4.725c1.5-.7.474-2.748,2.6-3.591-2.682-.12-3.4-.592-1.887-2.588a3.118,3.118,0,0,0-.37-3.77c-.344-.367-.7-.87-.326-1.15,1.38-1.025.839-2.45.925-3.737.059-.89-.077-1.821,1.061-2.04-.345-.736-.787-.6-1.146-.652-.462-.072-.937-.124-.917-.747.016-.5.4-.613.807-.653,1.528-.152,1.549-.408.538-1.666-.585-.728-1.561-2.239-1.27-2.911.664-1.537,1.152-3.339,2.527-4.458a4.852,4.852,0,0,1,7.591,2.668,2.088,2.088,0,0,0,.909,1.155c.5.386.427.849.055,1.342-1.361,1.8-1.354,3.178.021,5.168.255.368.338.728.048,1.049-1.687,1.865-1.595,3.652.1,5.471.409.438.474,1.355.079,1.624-1.331.909-.911,2.718-2.174,3.518.438.578.936.363,1.354.464,1.131.273,1.152.877.438,1.642a11.852,11.852,0,0,1-1.355,1.323c-.439.339-.722.611-.117,1,.75.486.834.958.028,1.451-.457.279-.48.6-.049.879,1.144.734.275,2.586,1.778,3.151.229.086.122.63-.18.822a.765.765,0,0,1-1.046-.127c-.265-.295-.471-1.036-.928-.332a.96.96,0,0,0,.424,1.469c.347.143.77.086,1.135.2.842.258,1.013.836.4,1.43-.416.406-.868.667-.938,1.349-.116,1.137-1.182,1.907-.193,3.5.8,1.282-1.285,2.953-1.7,4.73,1.182.087,2.163.506,1.973,2.066-.028.233.26.6.5.751,1.007.629.727,1.075-.017,1.759-.931.854-.729,1.743.582,1.811,1.276.067,2.718.594,3.812-.673a.769.769,0,0,1,1.2-.026c.471.489.79.347,1.3,0a2.277,2.277,0,0,1,2.843.2c1.117.816,2.125.6,3.476-.038,1.266-.6,2.662-2.842,4.535-.742a.978.978,0,0,0,1.264-.115c1.887-1.784,1.816-.139,1.979,1.112.041.313.08.626.129,1.006,1.83-.533,3.58-1.009,4.807-2.507.279-.34.648-.491,1.006-.209.465.365.336.816-.059,1.145-.353.294-.762.535-.72,1.059a1.3,1.3,0,0,0,.278.661c.047.059.407-.007.485-.115,1.249-1.737,3.464-2.022,4.981-3.348.793-.693.737-3.708-.292-4.334-1.225-.745-1.238-1-.021-1.765,1.474-.926,1.366-3.4-.2-4.634-.812-.644-.951-.959-.014-1.494.993-.566.951-1.322.192-2.022-.42-.386-1.1-.581-.78-1.325.3-.68,1-.428,1.538-.528.185-.034.366-.091.919-.232-1.609-.853-.513-2.981-2.313-3.635-.291-.105-.3-.763-.031-.819,1.645-.349,1.272-2.02,1.669-2.962a3.386,3.386,0,0,0-1.2-3.328c-.923-.738-.773-1.055.038-1.722a2.01,2.01,0,0,0-.125-3.213c-.406-.3-.724-.525-.594-1.052s.6-.636,1.052-.685c.384-.042.773-.023,1.159-.048a1.4,1.4,0,0,0,1.174-.364c-.691-.7-1.053-1.275-.073-2.287.611-.632-.827-1.049-1.147-1.691a1.891,1.891,0,0,0-.306.178c-.506.536.188,1.686-.94,1.89a.751.751,0,0,1-.947-.726c-.057-.986-.5-2.1.546-2.849,1.306-.934,1.334-1.764-.042-2.645a1.448,1.448,0,0,1-.437-2.063c1.585-1.995,2.421-4.717,5.219-5.6.643-.2,1.01-.071,1.173.543.13.489.177,1,.323,1.87,1.291-2.324,2.028-1.363,3.03-.005.721.979.622,2.367,1.725,3.086a.2.2,0,0,1,.024.18c-1.424,1.1-.039,2.122.167,3.1.38,1.8-.683,3.14-1.411,4.389-1.119,1.919.294,3.069.791,4.468.2.565.641.92.061,1.457-.137.127-.361.383-.324.443,1.311,2.106-.674,3.292-1.281,4.881a2.96,2.96,0,0,0,.332,3.263,1.68,1.68,0,0,1,.009,2.556c-.28.294-.651.622-.518.971.776,2.054.369,4.387,1.457,6.341a2.209,2.209,0,0,1-1.794,3.188c-.718.085-1.545-.313-2.278.538,1.144.443,2.416.411,3.169,1.537.354.53.729,1.127.46,1.561-.851,1.375-.858,3.174-2.574,4.616,2.321-.158,4.3.819,6.131-.709.173-.144.636-.259.674-.2.87,1.343,2.807.655,3.729,2.043.433.652,1.015,1.027.185,1.694-.432.347-.233.549.023.92,1.458,2.118.171,5.771-2.79,5.414-1.576-.19-2.606,1.265-4.015,1.716-.437.14-1.791.938-.339,1.928.406.277.252.988-.257,1.334a1.282,1.282,0,0,0-.444,1.837c1.929-.946,2.107-.849,2.142,1.219.021,1.291-.01,2.583.01,3.874a2.466,2.466,0,0,1-1.564,2.708c2.761.035,2.88,1.462,2.739,3.126a2.649,2.649,0,0,0,.814,2.4c1.03.994-.149,3.2-1.956,3.773-.682.217-1.228.358-1.18,1.213.043.778.576.932,1.2.969.977.059,1.092.74,1.1,1.5.009,1.744-.01,3.487.023,5.23.016.864-.226,1.788.817,2.39a.766.766,0,0,1-.1,1.313c-1.057.7-.557,2.164-1.577,2.97-.369.292.936.833.861,1.705-.115,1.346-.03,2.709-.03,4.064,0,.064-.014.129-.019.193-.038.589-.325,1.1-.924,1.012-1.887-.267-2.662,4.248-4.988,1.268-.9-1.146-2.423-.889-3.214-2.368a4.094,4.094,0,0,1,.258-4.515c1.21-1.8-.165-2.917-.751-4.081-.635-1.259-.795-2.124.036-3.308a3.719,3.719,0,0,0,.057-4.318c-.716-1.066-.853-1.568.526-1.831.786-.149.7-.236.571-1.142-.232-1.657-1.053-3.015-1.383-4.421-.243-1.039-.945-3.685,1.451-4.573a.432.432,0,0,0,.063-.786c-2.351-1.646-2.666-4.522-4.008-6.772-.963-1.613-.23-3.389,1.2-4.615.592-.506,1.1-.873.214-1.387-.437-.255-.54-1.911-1.6-.482-.478.643-1.078.289-1.62-.241a2.115,2.115,0,0,0-2.969-.186c-1.192,1.34-1.654.361-2.428-.281-.636-.527-1.522-2.326-1.883.258-.137.98-.854.926-1.547.282-.552-.514-1.182-.943-1.852-1.468-.364.12-.253.63-.316,1.054-.059.4-.4,1.009-.586.8-1.206-1.325-2.19.211-3.27.149-.583-.034-1.115-.038-1.511-.631-.971-1.459-2.072-1.762-3.152-.108-.472.722-1.144.7-1.859.755-1.328.1-2.7-.392-3.755,1.213-.661,1-.963-.749-1.9-.97a11.732,11.732,0,0,1-1.357,5.189c-1.1,2.193-.272,4.227.888,6.152.188.311.272.713.036.886-.73.536-.91.909-.06,1.563.49.377.057.857-.3,1.3a2.317,2.317,0,0,0,.09,3.4c.441.428.681,1.1.447,1.356-1.2,1.325.571,3.092-.737,4.355-.226.218.01.454.216.631.7.6.321.979-.026,1.719-.79,1.683-2.453,3.2-1.826,5.309.5,1.692,1.225,3.292,0,4.971-.148.2-.036.638.035.947a11.979,11.979,0,0,1-.121,3.991c-.149.45-.3.956-.832.922-1.465-.094-2.063,1.119-2.858,1.924-.605.612-1.059.764-1.574.146-.782-.939-2.075-.611-3.018-1.514-1.09-1.044-.868-2.649-2.086-3.525-.366-.263.222-.727.489-1.087a2.293,2.293,0,0,0-.091-3.264c-.362-.363-.715-.77-.395-1.131C-1304.9,1047.741-1304.8,1045.326-1302.623,1044.4Z" transform="translate(0 0)" fill="#fff"/>
    <path id="Path_36756" data-name="Path 36756" d="M-860.2,987.393a6.293,6.293,0,0,1,6.26-4.783,2.761,2.761,0,0,1,1.889.661,2.386,2.386,0,0,0,3.424-.126c.949-.957,1.552-.561,1.686.519.14,1.131,2.21,2.009.518,3.444-.025.021.7.931,1.083,1.43.117-.055.27-.075.322-.159.427-.686-.35-1.922,1.05-2.183,1.145-.213,1.768.418,2.384,1.223.654.854,1.314,1.7,2.639,1.526.6-.078,1.117.656.675,1-1.734,1.357.35,1.393.458,2.071.465-.106.493-.371.546-.619.164-.776-.417-1.857.557-2.279,1.085-.47,1.431.852,2.124,1.31.554.366.615.655,1.292.075,1.138-.973,2.295-.589,2.7.884.343,1.257,1.531.776,2.11,1.35a6.383,6.383,0,0,0,3.491,2.222.729.729,0,0,1,.586.87.865.865,0,0,1-.731.786c-1.139.336-1.943-.171-2.613-1.413-.531,1.4-.527,2.177.912,2.278.321.023.648-.014.966.026.91.115,2.094-.389,2.6.717a1.959,1.959,0,0,1-.864,2.549c.488.622,1.077.358,1.54.539.559.218.672.649.347,1.068a4.14,4.14,0,0,0,.015,5.524.93.93,0,0,1,0,1.082,5.994,5.994,0,0,0-.042,6.447.825.825,0,0,1-.122,1.2,1.723,1.723,0,0,0-.734,1.294c-.07,1.421-.375,2.268-1.6.582a.354.354,0,0,0-.633,0,1.361,1.361,0,0,0-.052,1.3c.224.6,1.511.893.8,1.679-.732.8-1.515,1.807-2.9,1.64a2.832,2.832,0,0,0-1.326.161.776.776,0,0,0-.36,1.148c.287.54.589.214.876-.092.352-.375.838-.517,1.169-.077.41.545-.05.842-.447,1.239-1.389,1.39-1.358,1.422-2.541.2-.919.493.11,2.252-1.27,2.25-1.335,0-.331-1.777-1.3-2.241-1.061.41.146,2.257-1.257,2.2-1.21-.05-.254-1.645-1.058-2.2-.846.362-.326,1.195-.642,1.677-.755,1.153-1.638,2.1-3.236,1.972-.707-.056-1.555-.268-1.979.736-.844,1.994-1.466,2.114-3.159.7-.551.231-.365.759-.457,1.17-.07.312-.274.876-.422.74-1.229-1.131-2.751.748-4.072-.548a2.317,2.317,0,0,0-3.155.1,3.318,3.318,0,0,0-.368.437c-1.1-1.341-2.635.949-3.719-.441-.328-.421-.618-.431-.871.019-.169.3-.507.7-.685.516-1.388-1.46-2.615.585-3.977.128-.69-.232-1.466.019-2.072-.73-.563-.7-1.3-.582-2,.091a1.873,1.873,0,0,1-2.86.016,2.212,2.212,0,0,0-.769-.515c-2.46-.792-2.669-.979-3.565-3.576-1.016,1.347.711,4.445-3,3.857,3.274,0,2.265,2.99,3.631,4.114.349.287.23,1.333-.346,1.943a2.585,2.585,0,0,0-.062,3.763,2.647,2.647,0,0,1,.33,3.053c-.786,1.005-.687,2.316-1.5,3.163s-.474,1.05.42,1.148c1.1.12,1.635.482.6,1.457-.389.366-.294.556.044.914a1.881,1.881,0,0,1-.1,2.973,1.3,1.3,0,0,0,.01,2.037,1.869,1.869,0,0,1,.07,2.969c-.367.374-.264.527,0,.924a3.305,3.305,0,0,1-.128,4.3,2.536,2.536,0,0,0,0,3.064c2.1,3.225.466,7.919-3.044,9.492a3.664,3.664,0,0,1-3.878-.012c-1.356-.781-1.874-2.025-2.763-3.079-1.92-2.275.419-3.344.894-4.843.279-.88.64-1.457-.112-2.174-.908-.866-.362-2.56-1.775-3.172a.9.9,0,0,1,.085-.712c.641-.6,1.288-1.084.07-1.793-.3-.174-.178-.7.2-.988.2-.148.368-.328.551-.494-2.244-1.5.674-2.567.35-4.031a20.457,20.457,0,0,1-.062-4.632,8.813,8.813,0,0,1,.593-2.31c.327-1.132-.444-2.439-1.235-3.4a2.84,2.84,0,0,1-.177-3.646c1.082-1.485,1.2-2.606-.036-4.01a1.825,1.825,0,0,1,.12-2.6,10.038,10.038,0,0,1,1.058-1.094c1.023-.793,1.039-1.3-.35-1.5-1.15-.162-1.606-.586-.522-1.486a1.649,1.649,0,0,0,.528-1.38,6.754,6.754,0,0,0,0-1.354c-.186-1.1.86-1.994.76-2.785s-1.819-.341-2.418-1.475c-.339-.642-1.044-1-.193-1.691.3-.246.38-.491.084-.793-1.161-1.183-.318-1.485.742-1.65.962-.15,1.339-1.027.887-1.512-.915-.98-.9-2.339-1.716-3.3-.122-.145-.4-.362-.37-.4,1.213-1.971-1.16-4.151.359-6.078.2-.257.564-.515.239-.782-.816-.67-1.049-1.248-.081-1.993.387-.3-.023-.541-.248-.754-.525-.5-.476-.923.021-1.469a2.523,2.523,0,0,0,0-3.717c-.294-.331-.543-.737-.264-1,1.776-1.669.821-3.785.889-5.676a3.439,3.439,0,0,1,2.745-3.584c.987-.292,1.908-1.813,3.015-.186a8.082,8.082,0,0,0,2.89-3.38c.739-1.666,1.505-1.957,2.926-.825a1.614,1.614,0,0,0,2.495-.09c.934-.944,1.826-2.561,3.4-.686.149.177.629.158.934.107C-863.271,984.582-861.634,985.5-860.2,987.393Zm-13.028,39.354c1.53-3.663,1.529-3.607,5.125-3.492a7.587,7.587,0,0,0,4.346-1.188,4.223,4.223,0,0,1,4.483-.352,17.029,17.029,0,0,0,11.632.962c3.609-1.007,7-2.543,10.537-3.692a9.044,9.044,0,0,0,5.8-6.721c.625-2.415-.546-5.227,1.472-7.425a.373.373,0,0,0,0-.354c-1.289-.827-1.465-2.639-3.153-3.229a11.428,11.428,0,0,1-3.992-1.831c-.472-.415-.348-2.221-1.55-.532a1.271,1.271,0,0,1-.818-.314c-.327-.354-.11-.71.226-.977a1.557,1.557,0,0,0,.438-2.147c-.68-.088-.566.616-.867.708-1.1.337-1.568,2.493-3.145,1.294-1.511-1.149-3.337-1.311-5.009-1.914-2.474-.891-2.82-1.434-1.593-3.577a.811.811,0,0,0-1.055-.147c-1.348,1.441-3.085.932-4.688,1-2.253.1-4.51.1-6.765.14-.572.01-1.168-.1-1.622.408-.792.888-2.051.379-2.865.843-1.54.877-1.629-.66-2.338-1.13a3.324,3.324,0,0,0-1.414-.564c-2.958-.411-5.524,2.827-4.437,5.821.474,1.305,1.014,2.436.048,3.684a5.065,5.065,0,0,1,2.941,2.546c.523,1.5,2.744,2.292,1.785,4.4a14.7,14.7,0,0,1-2.709,3.4c-1.8,2.063-2.381,6.177-1.051,8.458.3.521.465.991.056,1.391C-874.969,1023.745-873.12,1024.869-873.224,1026.747Z" transform="translate(-258.925 -18.122)" fill="#fff"/>
    <path id="Path_36757" data-name="Path 36757" d="M-679.72,1112.011c-.517-.581-1.037-1.2-1.6-1.778-.222-.231-.671-.6-.492-.728,1.414-1.032.025-1.889-.091-2.821a1.653,1.653,0,0,1,.674-1.668c.954-.749.513-1.9.427-2.892-.03-.349-.31-.46-.719-.268a2.1,2.1,0,0,1-2.975-1.469c-.817-2.427-1.454-2.584-3.116-.756.4.672,1.054.263,1.582.371.646.132.8.594.8,1.148,0,.506.076,1.081-.513,1.346a.9.9,0,0,1-1.163-.376c-.73-.914-1.5-.748-2.294-.032a1.8,1.8,0,0,1-2.839-.067,1.285,1.285,0,0,0-1-.486,10.266,10.266,0,0,1-5.806-2.151,1.281,1.281,0,0,0-1.094-.145c-2.541,1.521-4.107-.278-5.646-1.737-.911-.863-2.154-1.69-1.8-3.405-1.5,1.141-2.859.618-3.416-1.311-.252-.873-.91-1-1.407-1.459a34.851,34.851,0,0,1-3.594-4.505c1.442-1.014-1.059-2.7.941-3.666-1.116-.482-2.3-.432-2.267-1.924.034-1.416.917-1.666,2.39-1.73-1.392-1.222-.872-3.447-3.205-3.459-.456,0-.238-.8.262-1.175a1.388,1.388,0,0,0,.2-2.193,3.058,3.058,0,0,1-.281-4.126c.343-.556.119-.678-.128-1.087a2.207,2.207,0,0,1,.327-3.08,5.646,5.646,0,0,0,1.769-2.615c.491-1.785,1.38-.071,2.024.1.495-.289.432-.7.424-1.075-.01-.5.073-.921.7-.931s.723.42.775.9c.093.856.081,1.855,1.216.559.533-.608,1.048-.261,1.4.3.334.529,1.582.816.839,1.624-1.117,1.215-.267,1.154.6,1.239.335.033.825.376.732.454-1.415,1.209.779,2.75-.446,4.031a2.243,2.243,0,0,0-.014,3.141,2.023,2.023,0,0,1,.034,3.037c-.784.847-.6,1.448.174,2.276.591.636,1.585.946,1.777,1.925a2.6,2.6,0,0,1,.014,1.146c-.662,2.395-.417,2.9,2.139,4.46.424.26,1,.667,1.054,1.07.288,1.98,2.091,2.525,3.293,3.6.522.467,1.124,1.947,2.224.365.332-.477,1.027-.043,1.448.469.916,1.111,2.084.875,3.116.3.494-.277.751-1.288,1.469-.571s-.439,1.115-.706,1.991c1.712-.052,3.277.8,4.763-.642.7-.681,2.158.26,2.647,1.623.146.407-.04.919.5,1.341.776-.722,1.539-1.5,2.374-2.193,1.748-1.451,1.763-1.432,2.449.8.891-.291.129-1.873,1.3-1.8,1.125.073.535,1.295,1.13,1.974.832-.828,1.614-1.24,2.692-.067a2.045,2.045,0,0,0,2.68-.072,2.079,2.079,0,0,1,2.389-.685c1.006.369.637,1.414.739,2.207.047.37.093.741.174,1.386.742-.682.972-1.616,1.911-1.511-.15-.926-1.422-.6-1.161-1.558.246-.9,1.041-.533,1.612-.689a1.511,1.511,0,0,0,.7-.278c1.266-1.374,2.471-1.229,3.459.239,1.04,1.547,1.968.531,2.749-.113.816-.672,1.255-1.285,2.261-.1a2.17,2.17,0,0,0,2.7.076c1.264-1.318,2.782-1.168,4.1-.888,1.786.378,2.56-1.105,3.861-1.558s2.726-1.105,2.7-2.948c-.005-.45.394-.633.786-.729,1.492-.365,2.1-1.445,2.86-2.725a5.278,5.278,0,0,1,4.095-2.2c.732-.061,1.655.3,2.085-.593.417-.868-.119-1.443-.829-1.911-.3-.2-.39-.707-.165-.853,1.45-.941,1.2-3.013,2.737-3.925,1.135-.675,1.087-1.673.124-2.519-.672-.59-.488-1-.019-1.609a2.421,2.421,0,0,0-.109-3.524,3.035,3.035,0,0,1-.109-3.606,4.323,4.323,0,0,0,.865-2.791c.019-.515,0-1.048.518-1.377.458-.29.583-.532.159-1.055-1.1-1.351-.529-2.578-.035-4.132.807-2.537,3.151-2.979,4.679-4.474.157-.153.609-.284.681-.2,1.445,1.591,4.018,1.539,4.925,4.225.769,2.277,1.359,4.135.015,6.246-.163.256-.352.768-.24.883,1.584,1.638-.311,3.184-.1,4.779a1.787,1.787,0,0,1-.7,1.673,2.019,2.019,0,0,0-.033,3.282c.769.716.894,1.114-.071,1.751-.718.475-.763,3.064-.886,3.949a8.025,8.025,0,0,1-1.514,3.249c-.69.994-2.227,1.554-.9,3.186.411.5-.419.966-.825,1.353-2.823,2.69-5.674,5.347-8.256,8.286-.841.957-.778,2.362-1.912,3.16-.518.365-.983.847-1.475.377-1.817-1.735-2.061.562-2.244,1.125-.54,1.67-1.321,2.847-3.119,3.161a1.177,1.177,0,0,0-.776.509c-.684.925-1.263.846-1.915-.12-1.074-1.591-2.145-1.466-3.215.1a3.951,3.951,0,0,1-3.886,1.885c-1.41-.125-2.989-.455-4.113.959-.119.15-.484.116-.738.144-1.19.131-2.266-1.723-3.626-.113-.287.34-.715-.81-1.4-1.059-2.437-.886-4.591-.27-6.713.879-.942.51-1.316.077-1.371-.83-.046-.756-.3-1.252-1.164-1.166-.914.092-.924.778-.889,1.433.042.794-.3,1.722.691,2.24a.927.927,0,0,1,.316.424c-1.008.983.222,2.176-.1,2.849-.422.881-.44,1.291.11,1.992.256.326-.121.711-.454.944a1.214,1.214,0,0,0-.439,1.7c1.741,2.126-.394,3.312-1.089,4.8-.682,1.462-2.846.78-3.65,2.318-.155.3-.756-.306-.818-.773-.128-.97-.362-1.775-1.582-1.773a.78.78,0,0,1-.768-.748c-.094-1.162-.446-2-1.832-1.94a.589.589,0,0,1-.588-.639c0-.369.23-.56.575-.663C-680.738,1112.4-680.147,1112.656-679.72,1112.011Z" transform="translate(-360.918 -58.466)" fill="#fff"/>
    <path id="Path_36758" data-name="Path 36758" d="M-565.142,1059.659c-1.977-.049-4.309-2.388-5.431-4.23-1.525-2.5.131-3.88,1.361-5.345.92-1.1,2.671-1.1,3.808-2.088a1.248,1.248,0,0,1,1.11.087c2.191,1.347,4.424,2.672,5.389,5.28.422,1.139-.925,1.513-1.06,2.531C-560.144,1057.254-563.814,1059.692-565.142,1059.659Z" transform="translate(-451.099 -58.115)" fill="#fff"/>
    <path id="Path_36759" data-name="Path 36759" d="M-650.711,1053.739c.086,1.026-2.773,4.823-3.574,4.97-.706.129-1.392.161-1.784.918a.577.577,0,0,1-.846.188c-1.41-1.454-3.519-1.819-4.562-4.148-.731-1.632-.217-2.162.24-3.313.56-1.41,1.26-2.443,2.82-2.679a1.231,1.231,0,0,0,1.07-.7.767.767,0,0,1,.747-.5c.956.015,4.462,2.634,4.52,3.629C-652.018,1053.167-650.909,1053.237-650.711,1053.739Z" transform="translate(-395.572 -58.466)" fill="#fff"/>
  </g>
</svg>
