<svg xmlns="http://www.w3.org/2000/svg" width="262.965" height="119.893" viewBox="0 0 262.965 119.893">
  <g id="Group_153" data-name="Group 153" transform="translate(-1413.376 -669.77)">
    <g id="Group_152" data-name="Group 152" transform="translate(1413.376 669.77)">
      <g id="Group_151" data-name="Group 151">
        <path id="Path_36752" data-name="Path 36752" d="M2007.018,771.212a1.112,1.112,0,0,1,.192,1.758c-1.115.779-.831,1.814-.857,2.807-.037,1.411-.011,2.822-.011,4.233,0,1.086.107,2.246-1.85,2.08.705,1.034,2.046.783,1.754,1.98-.244,1-1.123.776-1.81.872-.776.1-1.012.573-1.031,1.267a3.931,3.931,0,0,1-1.341,3.221,5.592,5.592,0,0,1-2.981,1.536c-.093.019-.155.17-.229.259,0,.547.454.488.783.569a.785.785,0,0,1,.668.934c-.055.536-.428.713-.9.735a13.049,13.049,0,0,1-1.655.029c-1.345-.114-2.316.122-2.239,1.8.037.728-.488,1.123-1.212,1.082-1.78-.1-2.113.938-1.836,2.356.277,1.448-.03,2.3-1.714,2.146a1.571,1.571,0,0,0-1.212.31c-1.909,1.555-2.641,1.526-4.163-.151-.3.369-.569,1.027-.883,1.045-1.573.1-2.733.488-2.637,2.39.007.118-.388.4-.554.369-2.239-.384-3,1.6-4.289,2.685-.532.447-1.226.329-1.64.646-1.322,1.019-2.283,1.551-3.886.111a2.551,2.551,0,0,0-3.76,1,.719.719,0,0,1-1.326-.111c-.99-1.969-2.667-.879-4.056-.9-.569-.011-.55.7-.6,1.189-.048.469-.362,1.352-.5,1.178-1.3-1.662-3.14.931-4.491-.676a1.484,1.484,0,0,0-2.264.225c-.45.7-1.211.835-1.533.513-.935-.923-1.707-.011-2.449-.066-2.043-.155-2.589,1.618-3.841,2.412-.587.373-.861.632-1.54.273-1.854-.971-2.785-2.988-4.72-3.937-1.02-.5-.2-4.362.953-5.127-.27-.743-.916-.4-1.4-.462s-1.016-.063-1.167-.672a.991.991,0,0,1,.546-1.226c.935-.495.679-.805-.136-1.156-.547-.236-.658-1.008-.27-1.215,1.219-.658,1.189-1.714,1.234-2.815.015-.421.384-.584.717-.757.787-.41.746-.772-.1-1.016a.778.778,0,0,1-.587-.983c.081-.665.606-.7,1.1-.713.919-.033,1.843-.022,2.763-.059.391-.015.753-.177.7-.654-.041-.347-.351-.484-.676-.5a5.9,5.9,0,0,0-1.651-.011c-1.684.429-2.46-.964-3.509-1.721a.85.85,0,0,1,.222-1.4c.466-.266.868-.144,1.193.428.513.909,3.42,1.418,4.185.824a.547.547,0,0,0,.236-.632.63.63,0,0,0-.724-.447c-1.92.428-2.848-2.054-4.78-1.622-.107.026-.447-.469-.432-.48,1.156-1.152.329-2.257.015-3.417-.118-.432.524-.55.968-.617.517-.078,1.119.185,1.67-.469-1.57-.447-1.337-1.688-1.4-2.866-.07-1.363.336-2.674-1.112-3.941-1.16-1.016,1-1.533,1.433-2.442.207-.432,1.341-.218,1.156-1.123-.2-.953-1.064-.6-1.677-.694-.428-.066-.908-.041-1.012-.591-.085-.44.243-.621.573-.827.24-.151.587-.451.565-.654-.218-2.157,1.773-2.9,2.667-4.344-1.027-.886-1.485-2.534-3.394-2.416-.595.037-.731-.916-.085-1.208.983-.443.905-1.193.905-1.987q0-7.452-.011-14.908c0-.587.214-1.308-.432-1.684-.583-.336-1.067-.672-.861-1.411.247-.886,1.045-.672,1.684-.761.288-.041.573-.118,1.182-.244-1.418-.953-2.338-1.858-.266-2.719.233-.1.126-.609-.037-.624-1.13-.114-1.116-1.348-1.862-1.817-.931-.587-1.075-1.108.055-1.688.717-.366.606-.831-.1-1.167-1-.48-.946-1.09-.089-1.6.957-.576.695-.894-.07-1.393-.816-.536-.828-1.182.125-1.651.672-.329.791-.635.173-1.2-1.281-1.182-1.352-4.865-.136-6.05.27-.262.591-.465.6-.872.052-2.593,1.843-3.092,3.927-3.749,1.278-.4,1.821-.975,3.439-.129a25.778,25.778,0,0,1,4.392,2.981c.488-.2.425-.6.451-.96.052-.654-.122-1.492.8-1.625s1.995-.491,2.674.576c.532.831.909.846,1.411-.052.458-.816,1.038-.661,1.577.007.938,1.153,1.854,1.112,2.837,0a2.315,2.315,0,0,1,3.361.037c.609.743.846.809,1.451-.011a1.8,1.8,0,0,1,2.859-.185c.691.82,1.511.609,2.172.971a3.319,3.319,0,0,0,3.742,0,1.417,1.417,0,0,1,2.005.765c.1.244.428.573.646.569,1.618-.026,2.574.536,2.419,2.342-.037.4.317.65.742.658a.7.7,0,0,0,.75-.661c.07-.484.026-.99.133-1.463.141-.628.824-.872,1.049-.388.462.994,1.636,1.068,2.113,1.95.107.2.347.521.476.5,1.887-.332,2.826,1.972,4.769,1.64.89-.152.9.794.953,1.474.107,1.363-.21,2.77.307,4.318.72-.621.99-2,1.961-1.337a4.213,4.213,0,0,1,2.013,2.334c.2.879,0,1.891,1.318,2.035.129.015.344.421.3.6a2.337,2.337,0,0,0,1.437,2.671c2.128.813,1.485,3.206,2.885,4.392a2.692,2.692,0,0,0,1.518.8c1.7.211,2.246,1.732,1.045,3.084-.462.521-.625.757-.107,1.322a2.338,2.338,0,0,1-.045,3.527,1.648,1.648,0,0,0-.2,2.091c.547.015.6-.3.68-.595.174-.643.668-.635,1.175-.58.632.07.783.554.794,1.064.026,1.348-.033,2.7.029,4.048.055,1.149-1.174,1.06-1.736,1.769,1.385.7,2.944,1.26.477,2.538-.713.366.114.691.565.787,2.105.443,2.386,1.341,1.226,3.166a3.412,3.412,0,0,0,.1,4.2c.613.728.5,1.056-.066,1.647A1.5,1.5,0,0,0,2007.018,771.212Zm-10.184-1.821c.107-.783-.894-.669-1.031-.957-.436-.923-2.663-1.019-1.37-2.737.683-.909,1.152-4.51.491-5.359-.576-.742-1.463-1.237-.188-2.142.857-.609.044-2,1.06-2.6.44-.259,1.23-.292.946-1.071-.24-.657-.946-.414-1.466-.477-.706-.089-1.732-.44-1.071-1.119,1.906-1.954-.428-2.482-1.112-3.166-.812-.812-1.208-1.056.089-1.47,1.031-.329.72-1.141.764-1.828.033-.525-.166-1.223-.694-1.082-1.78.48-2.25-1.621-3.723-1.729-.547-.041-.543-.728-.617-1.215-.063-.418-.015-1.02-.27-1.215a14.236,14.236,0,0,1-3.3-4.311c-1.3-2.161-3.025-4.51-6.117-4.713-.233-.018-.5-.336-.654-.576-.569-.857-1.64-1.064-2.29-1.935a1.431,1.431,0,0,0-2.3.469,1.806,1.806,0,0,1-2.914.406c-.868-1.5-2.039-1.086-3.173-1.123-1.6-.059-3.195-.007-4.794-.026a1.687,1.687,0,0,1-1.67-.783,1.452,1.452,0,0,0-2.641.055c-.38.569-.953.968-1.271.466-1.429-2.25-3.576-.791-5.349-1.171a.741.741,0,0,0-.905.466c-.14.432.174.62.521.827,1.038.617.768,1.068-.085,1.743a1.491,1.491,0,0,0,.052,2.586c.805.569.809.931.1,1.526-.6.5-.565.986.125,1.47.879.613.558,1.566.44,2.371-.141.931-1,.695-1.64.768-.351.044-.761-.07-.964.358,1.666,1.788,1.669,1.788.048,3.9-.281.369-.247.813.115.938,1.888.643.414,3.269,2.349,3.912.207.07-.144.62-.521.779-.805.34-.872.776-.17,1.333,1.389,1.1,1.281,2.094-.078,3.228a3.378,3.378,0,0,0-1.06,2.032c-.107.916.931.473,1.393.765.791.5.739,1.012-.03,1.522-.835.554-1.828,1.614-1.37,2.271.864,1.241-.048,3.243,1.825,3.952.151.059.137.561.192.861.429,2.39-1.145,3.7-2.841,5.134.514.613,1.492.628,1.418,1.633-.066.9-.129,1.8,1.1,2.22.539.185.351.931-.093,1.4-1.485,1.577-1.481,2.526.03,4.163.281.3.5.8.3.968-1.1.89-1.234,2.22-1.743,3.383-.155.347-1.115.211-.931.894s.912.436,1.433.5c.477.059,1.038-.026,1.2.61a.831.831,0,0,1-.558,1.031c-.816.336-.717,1.049-.728,1.718-.018,1.042.414,2.526-.114,3.044-1.544,1.514-.251,2.586.063,3.889.221.912.6,1.267,1.462,1.26.676,0,1.356-.037,2.028.018,1.644.137,3.491-.488,4.717,1.285.244.351.639.207.861-.218.632-1.215,1.2-1.064,1.71.1a.7.7,0,0,0,.724.473c1.832-.38,4.074,1.171,5.507-1.167.115-.185.561-.229.853-.233,1.825-.015,2.737-2.416,4.794-1.821.033.007.166-.185.188-.3.185-.942.927-.805,1.592-.838.421-.018,1,.114,1.182-.318.994-2.327,1.74-.938,2.63.425.307-1.562,1.7-1.533,2.549-2.257,1.629-1.393,2.508-3.845,5.186-3.864a.683.683,0,0,0,.628-.787c-.259-2.2,1.175-2.139,2.674-2.068.857.044,1.721.011,2.578,0,.369-.007.8-.011.879-.469s-.314-.576-.672-.717a1.428,1.428,0,0,1-.584-2.467c1.721-.9,2.043-3.01,3.882-3.771,1.06-.436.61-3.417-.421-4.052a6.9,6.9,0,0,1-1.8-1.444,1.849,1.849,0,0,1,1.33-2.892C1996.041,769.986,1996.731,770.167,1996.834,769.391Z" transform="translate(-1744.595 -698.464)" fill="#fff"/>
        <path id="Path_36753" data-name="Path 36753" d="M1541.714,765.441c-.185-.687-.824-.632-1.378-.624-.417.007-.934-.092-1.116.421-.207.576.329.632.68.872,1.448.994,2.508,2.19,2.128,4.167-.214,1.127.292,1.765,1.533,1.64,1.042-.1,1.655.3,1.644,1.43,0,.628.041,1.234.772,1.511.414.159.4.562.451.931.34,2.493-2.235,6-4.7,6.338-.583.078-1.008.17-1.252.827-.417,1.13-1.145,1.123-1.6.081a1.379,1.379,0,0,0-1.385-.909c-2.168-.192-3.081-1.042-3.528-3.147-.063-.284-.155-.683-.358-.8-1.8-.983-.838-1.839.155-2.641-.473-.624-1.078-.384-1.6-.432-.628-.055-1.075-.236-1.06-.968a.873.873,0,0,1,.927-.931c1.666-.052,2.7-1.09,3.672-2.246.513-.609,1.049-.728,1.415.044.27.565.5,1.053,1.186.791.668-.259.462-.92.484-1.448.029-.768-.4-.986-1.119-1.141-2.117-.443-3.561.528-4.706,2.105-.354.484-.606.912-1.278.761a.673.673,0,0,1-.558-.635c-.074-.6.229-.9.783-1.045.318-.078.576-.288.5-.654-.1-.454-.5-.528-.872-.495-1.382.122-1.939-.388-2.006-1.862-.066-1.426-1.987-1.389-2.563-2.6-.6-1.263-2.475-1.655-2.29-3.564.1-1.027-.983-.92-1.688-.887-1.455.063-2.763.1-2.648-1.991.052-.949-.817-.949-1.492-.912-1.167.066-1.718-.432-1.71-1.6,0-.565-.081-1.152-.761-1.311-.706-.166-.772-.676-.813-1.252-.044-.7.159-1.7-.923-1.666-1.034.03-2.32-.72-3.018.89-.543,1.249-1.455,1.156-2.227.115-.277-.369-.539-.9-.89-.255-1.149,2.083-1.817.569-2.626-.421-.82,1.337-1.547,2.2-2.733.3-.469-.757-1.622-.672-2.39.166a3.687,3.687,0,0,1-5.064.052c-.436-.451-.562-.436-.938.041-.938,1.186-1.954,2.286-3.712,2.046-.454-.059-.754.2-1.027.613-.986,1.488-2.227,1.485-3.295-.007-.558-.783-.912-.669-1.278.126-.473,1.02-.949,1.175-1.64.111-.857-1.326-3.66-1.248-4.6.089-.588.835-1.034.916-1.614-.029-.8-1.3-1.592-.853-2.781-.118-2.283,1.415-1.625,3.424-1.876,5.359a3.021,3.021,0,0,1-2.733,2.622c-.591.1-1.3-.059-1.489.754a2.033,2.033,0,0,0,.506,1.869,3.568,3.568,0,0,1-.2,4.905,1.844,1.844,0,0,0-.4,1.174,4.257,4.257,0,0,1-.255,1.234c-.225.5-1.6.51-1.012,1.138s1.271,1.647,2.279,1.536c1.788-.188,3.815.92,5.352-.872a.54.54,0,0,1,.513-.092c1.655,1.053,3.845,1.3,5.023,3.007.713,1.031-.2,1.337-1.093,1.466-.5.07-1.341-.185-1.341.569,0,.813.849.694,1.441.735a6.956,6.956,0,0,0,.92-.033c.543-.044,1.164-.247,1.507.347.4.7-.2.949-.68,1.234a1.078,1.078,0,0,0-.458.949c-.159,2.054-1.684,2.641-3.295,3.406-1.437.68-2.4,1.348-4,.052-.776-.632-2.49-.114-3.782-.107a1.046,1.046,0,0,0-1.038.606c-.68,1.352-1.315.99-2.124.026a1.564,1.564,0,0,0-2.726.078c-.277.373-.72.9-.916.62-.894-1.271-2.726-.942-3.446-1.832-.846-1.049-1.67-.986-2.678-1.064-.872-.066-1.788.244-2.556-.628-.565-.639-.857.044-.835.536.089,2.046-1.392,1.614-2.549,1.629-1.182.018-2.6.355-2.493-1.673.041-.742-.369-1.093-.986-.369s-1.939.41-2.238,1.688c-.111.473-.916.432-1.186-.1-.812-1.588-1.208-1.012-1.81.174a6.6,6.6,0,0,1-1.134,1.348c-1.189,1.234-1.877-.912-2.334-.672-.824.436-1.367,1.8-2.4.587-.487-.569-1.13-.89-1.573-1.452-.3-.384-.384-1.3-1.112-.75-.672.506-.473,1.341-.078,2.006a1.517,1.517,0,0,0,.761.458.926.926,0,0,1,.6,1.178.775.775,0,0,1-.772.657,1.1,1.1,0,0,1-1.164-.657c-.783-1.326-1.839-1.341-2.685-.026-.635.99-1.1.846-1.574-.052-.569-1.1-.986-1.141-1.514.059-.421.953-1,.916-1.607.048a2.916,2.916,0,0,0-4.529.14c-.491.739-1.141.665-1.415,0a1.657,1.657,0,0,0-2.039-1.108c-1.3.211-1.854-1.108-2.154-1.622-.827-1.411-2.2-2.7-2.043-4.573.033-.362,0-.827.41-.953,1.2-.373.842-1.319.853-2.135.011-1.267-.148-2.431,1.441-3.2,1.4-.676,1.932-2.755,4.044-2.571.65.059.635-.768.609-1.33-.026-.587-.336-.99-.912-.92-2.246.284-2.342-1.119-2.257-2.733.03-.543.1-1.186-.41-1.537-1.034-.713-1.174-1.326-.033-2.072.473-.307.354-.772-.1-1.034-.495-.284-.776-.628-.528-1.182s.809-.469,1.285-.513c.307-.03.613-.026.92-.052.325-.026.613-.137.669-.5a.637.637,0,0,0-.48-.694c-2.427-1-.953-3.081-1.259-4.654-.233-1.2.639-1.71,1.884-1.817-2.4-1.26-2.585-2.619-.691-4.155.646-.528.562-.975-.2-1.138-1.023-.214-1-.964-1.019-1.688-.033-1.348-.022-2.7,0-4.048.011-.761.092-1.489,1.083-1.651a.758.758,0,0,0,.72-.72c-.015-.473-.477-.5-.824-.569-.868-.192-.964-.868-.971-1.559-.018-1.965-.022-3.93,0-5.891.011-.768.141-1.518,1.208-1.455.953.055.993.754,1.027,1.448.026.613.022,1.226.033,1.84.011.635.277,1.152.953,1.1,1.655-.126,2.213.669,2.065,2.2a.474.474,0,0,0,.421.517c1.212-2.1.691-3.609-1.415-4.078-.484-.107-1.016-.155-1.042-.82-.018-.576.4-.694.85-.761.835-.118.875-.72.854-1.374-.03-.783-.506-1.057-1.212-1.075-.491-.015-.986.022-1.474-.033-.742-.081-1.725.3-2.083-.706-.41-1.156.983-1,1.344-1.559-.052-.65-.617-.558-.946-.779a1.078,1.078,0,0,1-.266-1.607c.259-.466,1.555.026,1.086-1-.281-.617-1.134-.192-1.718-.3-1-.2-1.359-1-.606-1.518.946-.65,1.171-2.013,2.674-2.113-1.119-.946-3.04-1.566-.484-2.811.683-.336-.111-.75-.576-.787-1.647-.122-2.94-.362-1.119-2.227.262-.266-.074-.5-.277-.739a2.086,2.086,0,0,1,.114-3.173,1.605,1.605,0,0,0-.022-2.552c-.329-.307-.861-.713-.61-.983,1.167-1.241-.059-2.345-.063-3.505a2.218,2.218,0,0,1,.2-1.241c1.6-2.091,1.71-4.126,0-6.205-.284-.347-.336-1-.044-1.212,1.88-1.33.883-3.258,1.075-4.913.152-1.315-.284-2.829,1.906-3.092-1.629-1.352-3.9-2.364-3.014-4.322.905-1.991.525-3.372,0-5.271-.672-2.434,2.345-5.707,4.916-6.05.24-.033.646-.015.691-.129.964-2.419,1.74-1.429,2.807-.011.425.561,1.529.277,2.36.609,2.213.883,1.684,3.254,2.925,4.628a1.883,1.883,0,0,1-.192,2.087c-1.271,1.636-1.4,3.213.015,4.85a.875.875,0,0,1-.3,1.4,1.267,1.267,0,0,0-.51,1.625c.477,1.056,1.707,1.984.078,3.106-.181.126.218.48.432.7a2.254,2.254,0,0,1,.133,3.136,3.2,3.2,0,0,0-.72,2.161c-.022,1.012.222,2.1-1.33,2.383-.62.111-.562.864.1.99.809.155,1.027.72,1.422,1.263.377.517,1.193.805.853,1.633-.321.79-1.127.572-1.769.669-.347.052-.761-.022-.9.5.3.643,1.511,0,1.585,1.112.078,1.219-1.182.846-1.7,1.636,1.485.133,1.7,1.555,2.6,2.3a.828.828,0,0,1-.041,1.3.707.707,0,0,1-1.1-.24c-.314-.469-.591-1.43-1.271-.672-.543.609-.668,1.906.277,2.2,1.47.458,1.248,1.452,1.271,2.453.022,1.289,0,2.578.007,3.867a4.493,4.493,0,0,0,.011.92c.325,1.455,1.544,2.9.007,4.366a.351.351,0,0,0,0,.351c1.718,1.529.163,3.018-.044,4.521a2.194,2.194,0,0,1-.225.875,1.965,1.965,0,0,0,.148,2.275c.9.931,1.876,1.725.292,3.036a1.577,1.577,0,0,0,.421,2.275c.477.332.724.982.344,1.241-1.3.879-.986,2.157-.938,3.317.055,1.226-.779,1.485-1.743,1.754,1.455.986,2.345,4.735,1.573,6.172a1.028,1.028,0,0,1-.51.477c-1.489.473-1.7.927-.026,1.448a.7.7,0,0,1,.528.853c-.148.739-.779.713-1.315.694-1.134-.044-1.987.159-1.795,1.585.044.355-.059.8.4.931.351.1.51-.233.683-.484.606-.879,1.526-.705,2.353-.583,1,.148,1.226.68.506,1.5a3.106,3.106,0,0,0-.222,4.011c1.1,1.455.672,1.725-.776,1.873-.514.055-1.245-.166-1.352.6-.1.709.639.558,1.034.776.735.414,2.065,4.661,1.662,5.36a2.761,2.761,0,0,1-.972,1.064c-1.758.964-1.706,3.136-3.062,4.418-.669.635-.347,1.9-.155,2.84.133.65.654.41.935,0a1.264,1.264,0,0,1,1.466-.473.889.889,0,0,1,.528.425.511.511,0,0,1-.318.742c-2.312.683-.909,2.552-1.23,3.863-.037.148.2.491.377.543a.687.687,0,0,0,.849-.517c.273-.883.935-1.016,1.729-1.038,1.429-.041,1.995-1.289,2.671-2.194.816-1.086,1.381-1.1,2.024-.011.344.576.683.824,1.008.115.621-1.356,1.766-.9,2.722-.8,1.067.114.683,1.115.787,1.784.066.421.022.938.609.96s.62-.473.694-.9c.133-.735-.159-1.754.994-1.88,1-.107,1.936-.24,2.671.986.506.842,1.706.794,2.516-.122,1.193-1.352,3.5-1.16,4.809.007,1,.894,1.784,1.647,1.71,3.081-.03.591.554.746,1.082.742.48,0,1.071.174,1.374-.292.414-.628-.107-.864-.61-1.008-.595-.166-1.02-.436-.909-1.149a.77.77,0,0,1,.735-.694c.6-.077,1.086.037,1.308.706.148.451.58.908.905.38a6.4,6.4,0,0,1,4.61-3.132c-1.337-.428-2.652-.565-3.483-1.906-.336-.536-.846-.912-.871-1.64a1.782,1.782,0,0,0-.333-1.012c-1.544-1.876-1.558-3.4.022-5.142a1.745,1.745,0,0,0,.336-1.208c.03-.668-.044-1.374.864-1.6a.869.869,0,0,0,.643-1c-.174-1.755,1.123-2.549,2.271-3.361.765-.536.827-.835-.011-1.249-1.108-.547-1.012-1.082-.007-1.647.938-.528.79-.938-.133-1.311-.831-.332-.85-.99-.166-1.356.861-.462.85-1.164,1.093-1.928a4.63,4.63,0,0,1,2.97-3.125c-.011-.617-.462-.547-.794-.591a.771.771,0,0,1-.761-.853c-.011-.458.059-.946.565-1.027,1.156-.177.883-1.256,1.311-1.821,1.429-1.884.55-4.218,1.389-5.973.6-1.256,1.293-1.792-.125-2.77-.288-.2-.074-1.071.473-1.2,1.285-.307,1.13-1.249,1.13-2.165s.018-1.843-.007-2.763c-.074-2.678.377-5.138,2.667-6.918.428-.332.27-.916.288-1.4.115-3.317.979-4.159,4.211-4.233.65-.018,1.806.4,1.817-.587s-1.145-.539-1.806-.635c-.421-.063-.861.018-1.289-.022-.565-.052-1.352.214-1.481-.672-.115-.761.561-.827,1.089-.971.307-.089.661-.225.665-.55,0-.975-.115-1.95-.111-2.925s-.148-1.677-1.278-2.105c-.923-.347-.886-2.519.048-2.992s.872-1.514,1.333-1.921c1.895-1.666.443-4.621,2.575-6.091.192-.129.251-.565.236-.853-.1-1.854.07-3.454,2.9-3.01-1.141-.9-1.614-1.766-1.407-2.929.107-.617.122-1.245.923-1.389.716-.126.709-.683.813-1.249a3.235,3.235,0,0,1,3.029-3.021c.429-.041.923.011,1.2-.358.9-1.2,1.511-.986,2.623-.033a2.62,2.62,0,0,0,3.516-.251c.864-.831,1.673-.979,2.449.059a1,1,0,0,0,.909.525c1.54-.27,2.157,1.031,2.907,1.847.772.846.425,2.493,1.917,3,.089.033.122.761-.008.838-2.63,1.522.329,2.083.65,2.973.2.558.85,1.064.875,1.843.011.3.044.735.233.857,1.115.724,3.047,1.319.137,2.283-.07.022-.081.462-.066.462,1.193.262,1.407,1.936,2.633,1.969,1.991.059,2.534,1.463,3.088,2.933a3.585,3.585,0,0,0,.369,1.019c1.692,2.032,2.715,4.621,4.986,6.161a1.906,1.906,0,0,1,.913,1.828,1.076,1.076,0,0,0,.772,1.115c1.193.477,1.274,1.042.107,1.721-.513.3-.606.632-.011,1.108,1.282,1.034,2.342,2.22,2.091,4.1a1.483,1.483,0,0,0,1.082,1.869c.318.085.609.362.554.654-.31,1.692,1.729,2.641,1.341,4.355-.067.3.181.547.469.724,1.906,1.182,1.906,1.186.141,2.4.1.576.587.595.99.58,1.112-.044,1.78.31,1.677,1.559a1.118,1.118,0,0,0,.392.979c1.74,1.525,1.732,1.559-.381,2.918,2.212.469,1.566,2.792,2.855,3.941.99.883,2.165,1.8,2.054,3.476-.03.41.676.432,1.1.417a2.489,2.489,0,0,1,2.054.9c1.429,1.466,1.5,1.633-.3,2.844,1.415.192,1.488,1.758,2.752,2.161.517.163.388.983-.292,1.263-.44.185-1.068.185-.879.9.137.51.672.414,1.075.532,1.729.517,3.2,1.175,3.576,3.339.185,1.075,1.219,1.946,1.344,3.214.052.547.905.469,1.459.425s.99-.281,1.027-.86c.067-1.016.288-2-.6-2.918a2.138,2.138,0,0,1,.03-3.117,1.724,1.724,0,0,0-.007-2.707,2.128,2.128,0,0,1-.2-2.844c1.256-1.876,1.241-5.836-.2-7.487-1.1-1.256.813-1.636.68-2.3s-1.8-1.093-.628-2.083c1.333-1.13,1.234-1.928-.085-2.885-.24-.177-.318-.646-.377-.994-.248-1.426,1.47-2.826.067-4.292-.052-.059.144-.488.321-.613,1.326-.957,1.341-1.684.044-2.874a2.142,2.142,0,0,1,.262-3.25c.857-.739,1-1.4.026-2.057a1.957,1.957,0,0,1-.761-1.762c-.022-.425.037-1.079-.2-1.226-1.293-.813-1.969-1.537-.085-2.419-1.178-1.1-1.149-2.183.059-3.247a2,2,0,0,0-.421-.318c-1.37-.543-1.2-1.2-.181-1.961,1.167-.864,1.333-1.747-.074-2.508a1.054,1.054,0,0,1-.632-1.008c-.011-1.843-.007-3.683-.007-5.522,0-.122,0-.332.055-.351,2.187-.779,1.5-3.594,3.295-4.628.307-.177.668-.258,1-.406,1.762-.794,3.409-1.566,5.36-.118.591.44,1.455.572,1.943,1.344,1.193,1.88,2.866,3.539,2.619,6.046-.055.547.052,1.112-.022,1.655-.2,1.5.122,2.863,1.562,3.487,1.584.691,1.374,1.928,1.418,3.191.018.576-.329,1.378.343,1.677.639.281.558-.657.942-.886a2.094,2.094,0,0,1,.842-.258c.495-.044,1.068.351.9.676-.861,1.644,2.94,2.043.994,3.808-.558.5-.746.51-.026,1.093,1.422,1.16,2.778,2.453,2.294,4.654-.262,1.182,1.034,1.607,1.607,2.235,1.182,1.3,2.829,2.128,2.885,4.244.019.761.942.632,1.529.646.957.026,1.507.417,1.552,1.415.066,1.544,2,2.257,1.765,3.993-.048.358.709.458,1.115.377,1.356-.266,2.12.787,2.671,1.544,1.149,1.577-.993,1.987-1.477,3.025-.137.3-1.082.174-.872.887.177.591.813.406,1.281.458s1.038-.081,1.223.558c.144.5-.17.8-.561,1.038-.731.443-.65,1.16-.5,1.806.192.82.968.7,1.529.628,1.311-.181,1.282,1.038,1.9,1.581.909.8,1.068,1.193.107,2.124-.739.713.107,1.112.772,1,1.234-.2,1.758.3,1.729,1.459-.03,1.286,1.193,1.666,1.847,2.331.846.864,1.814.321,2.493-.764.321-.517,1.474-.321,1.433-1.381a39.709,39.709,0,0,0-.148-5.5.647.647,0,0,0-.354-.391c-1.271-.51-1.913-.96-.078-1.673.739-.284.65-.816-.1-1.138-1.459-.624-1.415-1.082.044-1.755a1.352,1.352,0,0,0,.255-2.3c-1.721-1.684-1.784-1.622.129-2.781-1.589-1.012-1.843-1.766-.728-2.146.728-.247,1.6.218,2.275-.417-2.342-2.3-.934-5.138-1.2-7.723,2.545-2.216.358-1.9-1.075-2.013a.667.667,0,0,1-.654-.547.61.61,0,0,1,.539-.794c.517-.111,1.056-.377,1.042-.894-.018-.787,2.733-1.086.344-2.316-.8-.414.262-2.157-1.429-2.586-1.1-.277-.721-1.367.886-2.22-.155-.805-1.311-.414-1.5-1.363-.321-1.622.148-2.4,1.932-2.645.41-.055.957.074,1.086-.469.107-.462-.37-.569-.683-.724-.628-.314-.554-.9-.58-1.441a1.291,1.291,0,0,0-.772-1.3,1.7,1.7,0,0,1-.018-3.151,1.178,1.178,0,0,0,.779-1.093,3.025,3.025,0,0,1,3.177-3.158c1.337-.052,1.075-1.88,2.379-1.6.968.207,1.016,1.5,2.279,1.6,1.714.144,3.151,1.078,3.158,3.166,0,.55.307.82.754,1.138.912.646,1.049,2.464.151,2.959-.934.513-.912,1.189-.912,1.984,0,3.132,0,6.261-.008,9.393,0,.787.118,1.607-.894,1.991-.528.2-.524.5-.044.934,1.352,1.212,1.33,2.094-.037,3.228-.654.543-.54.942.17,1.167a.9.9,0,0,1,.746,1.071c-.081.743-.687.857-1.226.827-1.466-.074-2.209.484-2.054,2.024a1.183,1.183,0,0,1-.24.669c-.236.366-1.256.458-.783.949.532.554.875,1.4,1.544,1.662.753.3.78-.513.868-1.042.107-.65.022-1.433.964-1.537.38-.041.8.089.861.513.122.82.51,1.836-.362,2.364-1,.61-1.348.909,0,1.444.642.255.48.942.484,1.466.018,2.822.007,5.648.007,8.47,0,.122.048.3-.015.362-1.448,1.433-1.064,2.855.019,4.27s.894,2.619.125,4.248c-.595,1.256-.122,3.014-.115,4.547a1.47,1.47,0,0,0,.443,1.145c1.485,1.448,1.392,2.471-.366,3.764,1.164.872,2.246,1.791.263,2.936-.473.27-.336.883-.344,1.367-.015,1.226,0,2.453-.011,3.683-.011.776-.772,1.555-.813,1.913-.388,3.457-4.647,2.726-5.618,5.411a.673.673,0,0,1-1.1.159c-.871-1.869-3.346-1.027-4.4-2.678a6.112,6.112,0,0,1-.831-1.249c-.849-2.253-1.692-4.514-3.616-6.157-.89-.761-1.559-1.762-3-1.622-.654.063-.761-.731-.732-1.282.078-1.385-.724-1.651-1.865-1.588-1.57.085-2.966.273-3.154-2.146-.07-.938-1.341-1.95-1.489-3.258-.04-.347-.587-.414-.956-.381-1.618.144-1.788-.864-1.755-2.1.026-.912.056-1.718-1.056-2.275a1.625,1.625,0,0,1,.192-2.892c1.178-.576.92-.842-.011-1.418s-1.544-1.814-2.283-2.349c-1.877-1.363-1.559-4.392-4.148-5.016a.71.71,0,0,1-.369-.576c.159-2.024-1.5-2.789-2.674-3.864a1.428,1.428,0,0,1-.624-1.064c.052-1.6-.927-1.766-2.176-1.684-1.1.074-1.684-.089-.864,1.489.506.979-.439,2.715.236,4.089-1.736.717-1,1.3.041,2.009.24.163.229.809.2,1.223-.085,1.149-1.725,2.275-.033,3.45.026.015.019.144-.015.174-1.577,1.322-1.825,2.652-.063,4.037a.568.568,0,0,1-.115.491c-1.913,1.016-.975,2.8-1.152,4.27a1.782,1.782,0,0,0,.794,1.862,1.773,1.773,0,0,1,.059,2.855c-1.212,1.034-1.282,1.825-.048,2.748.388.288.713.687.521,1.071-.565,1.138-1.134,2.327-1.743,3.365a7.184,7.184,0,0,1-3.047,2.065c-1.854.805-3.11.3-4.651-.181C1542.56,766.121,1541.929,766.243,1541.714,765.441ZM1510.1,735.663c.739-.214,1.444-.277,1.171-1.4-.236-.953-.609-1.463-1.7-1.537-1.552-.1-3.14-2.035-3.18-3.613-.03-1.1.318-2.478-.211-3.243-1.123-1.625-2.711-2.844-3.4-4.883-.38-1.123-.794-2.032.011-2.955,1.042-1.2.454-1.492-.717-1.444s-1.71-.343-1.954-1.6a3.615,3.615,0,0,0-2.338-2.77c-2.058-.691-2.323-1.3-1-3,.259-.329.465-.65.1-.931-.31-.24-.543.059-.676.358-.258.576-.683.916-1.311.691a1.023,1.023,0,0,1-.565-1.245,2.239,2.239,0,0,0-1.4-2.508,7.744,7.744,0,0,1-3.225-2.937.873.873,0,0,0-.96-.362c-.439.1-.539.462-.547.846-.018.794-.17,1.655.975,1.858.314.055.539.273.624,1a2.457,2.457,0,0,0-.447.174,4.2,4.2,0,0,0-2.408,3.683,1.1,1.1,0,0,1-.58,1.075c-1.141.465-1.241,1.381-1.141,2.423.1,1.064-.174,1.839-1.478,1.725-1.056-.092-1.392.391-1.651,1.44-.421,1.71-2.427,3.291-.085,5.031-.912,1-1.4,2.006-.055,3.066a.97.97,0,0,1-.321.576c-1.094.447-.865,1.378-.831,2.205.052,1.415-.033,2.648-1.976,2.464-.366-.037-.765.059-.853.517-.07.366.222.506.495.672.857.532.894,1.171.026,1.666a1.346,1.346,0,0,0-.658,1.385c0,.691-.015,1.37-.857,1.636-.3.1-.583.281-.517.65.081.465.488.547.853.51,1.315-.126,1.836.44,1.98,1.755.115,1.075,1.577,1.348,1.88,2.49.085.31.691-.015.768-.406a1.044,1.044,0,0,1,1.345-.9c.846.129.717.857.779,1.448.055.473.27,1.359.654,1,1.507-1.4,3.978-.314,5.245-2.2.34-.513.776-.3,1.138.236.986,1.463,4,1.489,4.946.048.4-.613,1-.846,1.193-.166.4,1.407,1.407,1.082,2.338,1.145,1.278.085,2.852-.536,3.764.307,1.477,1.356,1.791.942,1.887-.7.033-.595.14-1.13.831-1.237a2.011,2.011,0,0,1,2.053.417c.292.329.181,1.178.868.946.643-.214.391-.949.417-1.47.041-.857,0-1.718.03-2.575C1509.432,736.483,1509.446,735.851,1510.1,735.663Z" transform="translate(-1413.376 -669.77)" fill="#fff"/>
      </g>
    </g>
  </g>
</svg>
