<?xml version="1.0" encoding="UTF-8" standalone="no"?>
<svg
   viewBox="0 0 177.09 36.89"
   version="1.1"
   id="svg28441"
   sodipodi:docname="memory.svg"
   inkscape:version="1.1 (c68e22c387, 2021-05-23)"
   xmlns:inkscape="http://www.inkscape.org/namespaces/inkscape"
   xmlns:sodipodi="http://sodipodi.sourceforge.net/DTD/sodipodi-0.dtd"
   xmlns="http://www.w3.org/2000/svg"
   xmlns:svg="http://www.w3.org/2000/svg">
  <sodipodi:namedview
     id="namedview28443"
     pagecolor="#ffffff"
     bordercolor="#666666"
     borderopacity="1.0"
     inkscape:pageshadow="2"
     inkscape:pageopacity="0.0"
     inkscape:pagecheckerboard="0"
     showgrid="false"
     inkscape:zoom="7.4820714"
     inkscape:cx="88.544998"
     inkscape:cy="39.828543"
     inkscape:window-width="1920"
     inkscape:window-height="1051"
     inkscape:window-x="-9"
     inkscape:window-y="-9"
     inkscape:window-maximized="1"
     inkscape:current-layer="圖層_2-8" />
  <defs
     id="defs28425">
    <style
       id="style28423">.cls-1{isolation:isolate;}.cls-2{fill:#fff;}</style>
  </defs>
  <g
     id="圖層_2-8"
     data-name="圖層 2"
     transform="matrix(0.9714854,0,0,0.9714854,53.286367,8.442257)">
    <g
       id="圖層_1-2-8"
       data-name="圖層 1">
      <g
         id="圖層_2-2-2"
         data-name="圖層 2"
         style="fill:#ffffff;fill-opacity:1">
        <g
           id="圖層_1-2-2-4"
           data-name="圖層 1-2"
           style="fill:#ffffff;fill-opacity:1">
          <g
             class="cls-1"
             id="g22493"
             transform="translate(3.7422792,-41.699682)"
             style="fill:#ffffff;fill-opacity:1">
            <g
               aria-label="回憶時光"
               id="text25260"
               style="font-size:45.3333px;line-height:1.25;letter-spacing:1.21463px">
              <path
                 d="m -31.618129,46.686885 q 0.841145,5.179684 0.841145,10.624992 -4.604163,1.372395 -10.270826,1.460937 -1.372395,-3.364581 -1.68229,-10.802076 5.135413,-1.195311 11.111971,-1.283853 z m -6.153641,8.632806 3.187497,-0.664062 -0.664062,-4.515621 -3.364581,0.486978 z m 9.606764,-18.549466 q 4.072913,0 7.481765,0.619791 0.398437,10.846347 0.398437,19.611966 0,6.773433 -0.796874,10.005201 -4.205726,0.486979 -11.200513,0.486979 -14.476552,0 -20.010403,-0.354166 -0.486978,-10.757805 -0.752603,-24.127588 0.796874,-0.221354 1.815103,-0.309895 1.328124,0 1.992186,0.309895 0.486979,10.536451 0.841145,20.763007 12.1302,0 23.596338,-0.08854 V 40.931681 q -1.947916,-0.132813 -4.117185,-0.265625 -9.651035,0.177083 -17.66405,0.177083 -0.177083,-0.841145 -0.177083,-1.68229 0.08854,-1.018229 0.08854,-1.682291 6.330725,-0.53125 18.505196,-0.708333 z"
                 style="font-family:DFWaWaW7-B5;-inkscape-font-specification:DFWaWaW7-B5"
                 id="path53134" />
              <path
                 d="m -1.5832066,43.499387 q 1.28385331,0 1.77083213,0.265625 0.17708321,2.611977 0.30989562,5.401038 1.99218615,0.221354 3.85155985,0.53125 0,1.770832 -0.4427081,3.408851 -1.5937489,-0.04427 -3.23176854,-0.177083 0.13281241,4.205726 0.13281241,8.677077 -0.48697883,0.177084 -1.85937367,0.177084 H -2.822789 q -0.5312496,-9.651035 -0.5312496,-17.929675 0.3541664,-0.177084 1.770832,-0.354167 z m -5.135413,4.205726 q 1.1953116,0.08854 1.5937489,0.265625 -0.1770832,4.559893 -1.1067701,9.164056 -0.442708,0.265625 -1.8593737,0.265625 -1.1953117,0 -1.9036445,-0.354166 0.3098956,-4.869789 1.2838533,-9.252598 0.9296868,0 1.9921861,-0.08854 z M 6.7397043,61.207708 Q 8.4662656,62.181666 9.5287648,63.244165 8.6876196,64.439477 7.5808495,65.501976 7.0938707,66.121767 6.4298087,66.653017 5.898559,67.184266 5.1902262,67.715516 3.7735605,66.918642 2.6667905,65.413434 4.3933518,63.332707 6.7397043,61.207708 Z m 6.1979127,2.656248 q 1.018228,0 1.770832,0.08854 0.265624,1.726561 0.57552,3.541664 2.656248,0 5.710934,-0.221354 0.309895,0.664062 0.309895,1.416666 0,1.062499 -0.08854,1.638019 -1.195312,0.53125 -5.046872,0.53125 -3.276039,0 -4.338538,-0.309896 -0.664062,-3.408851 -0.664062,-6.463537 1.10677,-0.132812 1.770832,-0.221354 z m 6.64062,-2.390623 q 1.593749,1.903644 2.302082,3.364581 -0.664062,0.664062 -2.479165,1.328124 -1.328124,-1.195312 -2.479165,-3.32031 1.10677,-0.796875 2.656248,-1.372395 z m 7.437495,0.221354 q 1.062499,1.903644 1.460936,3.763018 -1.593749,0.664062 -3.32031,0.664062 -0.752604,-1.859374 -1.10677,-3.85156 1.460936,-0.398437 2.966144,-0.57552 z M 18.294384,33.361373 q 0.309895,1.460937 0.486978,2.966144 4.471352,0.04427 7.260412,0.442708 0.132812,0.398437 0.132812,1.505208 0,1.15104 -0.132812,1.549478 -0.796874,0.309895 -8.101557,0.309895 -10.6249923,0 -11.5989499,-0.309895 Q 6.119913,39.205119 6.119913,38.275433 6.2084546,37.257204 6.4298087,36.548871 10.458452,36.416059 15.062615,36.371788 14.79699,35.043664 14.575636,33.71554 16.43501,33.449915 18.294384,33.361373 Z m -5.312497,7.880203 q 0.354167,1.593749 0.575521,3.27604 2.833331,-0.08854 5.755204,-0.177084 0.575521,-1.947915 1.726561,-3.807289 1.593749,0.398438 3.143227,1.0625 -0.221354,1.505207 -0.752603,2.656248 2.21354,-0.04427 4.559892,-0.08854 0.177084,0.575521 0.177084,1.593749 0,1.328124 -0.08854,1.859374 Q 16.700635,48.103551 4.7475182,48.103551 4.4818934,46.509802 4.4818934,44.73897 7.1381415,44.650428 9.927202,44.606157 9.5730356,43.10095 9.3516816,41.640013 11.166785,41.374389 12.981887,41.241576 Z m -2.877602,14.697907 q 0,0.796874 0,1.416665 0.973958,0.221354 5.135413,0.221354 5.268226,0 6.773433,-0.04427 0.177083,-1.593749 0.177083,-4.072914 0,-0.354167 -0.08854,-0.841146 -4.914059,0 -9.252598,-0.354166 -0.221354,-0.486979 -0.221354,-1.416666 0.08854,-0.841145 0.221354,-1.372395 6.950516,0 12.661449,0.309896 0.398438,0.664062 0.398438,3.674477 0,5.755204 -0.486979,6.596349 -2.74479,0.664062 -10.182285,0.664062 -6.0650996,0 -8.8098893,-1.062499 -0.4427081,-2.302082 -0.4427081,-5.976558 0.088542,-1.549478 0.4427081,-3.098956 0.885416,-0.177084 1.9036445,-0.265625 0.9739576,0 1.7265608,0.265625 0,1.328124 0.04427,2.523435 2.921873,0.08854 6.109371,0.486979 0,1.460937 -0.486979,2.611977 -3.408852,0 -5.622392,-0.265624 z"
                 style="font-family:DFWaWaW7-B5;-inkscape-font-specification:DFWaWaW7-B5"
                 id="path53136" />
              <path
                 d="m 44.167851,40.975951 q 4.249997,0.486979 8.057286,1.195312 0.398437,3.940102 0.398437,6.153642 0,8.190098 -0.752604,11.333325 -1.372395,0.664062 -4.825517,0.664062 -4.294268,0 -7.747391,-0.664062 -0.531249,-4.338539 -0.531249,-10.669263 0.08854,-4.205727 0.265625,-7.348954 1.018228,-0.265624 1.770832,-0.398437 0.752603,0 1.593749,0.221354 0.221354,3.85156 0.354166,7.083329 1.992186,0.177083 3.85156,0.486978 0,1.283854 -0.309896,2.966144 -1.68229,0 -3.408852,-0.177083 0.04427,2.346353 0.04427,4.382809 1.151041,0.177084 4.117185,0.177084 1.372395,0 1.68229,-0.354167 0.177084,-1.770832 0.177084,-10.580722 -2.434895,-0.57552 -4.91406,-1.10677 -0.132812,-1.15104 -0.132812,-1.68229 0.132812,-0.664062 0.309896,-1.682291 z m 13.104157,5.002601 q 2.877602,0 6.109371,0.08854 -0.221354,-2.16927 -0.354167,-4.338539 -7.304682,-0.04427 -8.101556,-0.309896 -0.265625,-0.708332 -0.265625,-1.726561 0.08854,-1.10677 0.309895,-1.903644 3.718748,-0.08854 7.880203,-0.177084 -0.132812,-1.815102 -0.177083,-3.585935 0.973958,0 2.169269,-0.177083 1.195312,0 2.036457,0.08854 0.132813,1.815103 0.265625,3.585935 5.091142,0.08854 8.234369,0.53125 0.132813,0.486978 0.132813,1.638019 0,1.283853 -0.132813,1.726561 -0.752603,0.309896 -8.057286,0.309896 0.08854,2.257811 0.08854,4.515622 2.877602,0.132812 5.976558,0.354166 0,1.726562 -0.265625,3.718748 -8.013015,0 -16.02603,-0.708333 V 47.52803 q 0.177083,-0.796874 0.177083,-1.549478 z m -2.479165,8.190099 q 4.294268,0 10.580722,-0.08854 h 1.726561 q -0.04427,-1.151041 -0.132812,-2.257811 1.593749,-0.221354 3.143227,-0.309896 0.177083,1.372395 0.398437,2.567707 3.895831,0.04427 5.843746,0.177083 v 3.187498 q -0.841145,0.354166 -5.401038,0.486979 0.752604,6.463537 0.752604,9.828118 -1.505208,0.57552 -3.453123,0.57552 -1.283853,0 -2.434894,-0.177083 -0.309896,-1.151041 -0.398437,-2.434894 0.973957,-0.354166 2.390623,-0.442708 -0.221354,-3.674477 -0.442708,-7.304682 h -2.080728 q -7.21614,0 -10.315097,-0.442708 -0.265624,-0.664063 -0.265624,-1.682291 0.08854,-0.929687 0.08854,-1.68229 z m 0.398437,6.419266 q 2.656249,0.354166 5.710934,2.302082 -0.309896,1.68229 -1.239583,3.187497 -3.054685,-0.221354 -5.489579,-2.169269 0.442708,-1.815103 1.018228,-3.32031 z"
                 style="font-family:DFWaWaW7-B5;-inkscape-font-specification:DFWaWaW7-B5"
                 id="path53138" />
              <path
                 d="m 115.50744,40.754597 q 1.10677,1.63802 1.63802,3.364581 -2.34636,1.815103 -5.22396,2.434895 -1.23958,-1.682291 -1.77083,-3.27604 2.65625,-1.505207 5.35677,-2.523436 z m 1.94791,10.934889 q 0.22135,0.708332 0.22135,1.903644 0,1.549478 -0.13281,2.169269 -14.03384,1.10677 -28.687478,1.195312 -0.354166,-1.859374 -0.354166,-3.940101 5.799475,-0.309896 12.174474,-0.664062 -0.17709,-2.567707 -0.17709,-5.401038 0.0885,-5.843746 0.39844,-12.174471 0.79688,-0.177083 1.85937,-0.265625 1.19532,0 1.99219,0.265625 0.39844,6.463537 0.39844,11.864575 0,3.098956 -0.35417,5.53385 6.10937,-0.265624 12.66145,-0.486978 z M 88.059538,41.861367 q 2.833331,0.354167 6.109371,2.257811 -0.309896,1.63802 -1.239583,3.098957 -3.231768,-0.177084 -5.888016,-2.124999 0.442708,-1.726561 1.018228,-3.231769 z m 18.283842,19.124987 q 0.7526,0 1.8151,0.265625 0.26563,2.656248 0.26563,4.914059 h 3.40885 v -1.593749 q 0.84114,0 1.41666,-0.08854 0.88542,0 1.63802,0.08854 0.22136,1.505207 0.22136,2.789061 0,1.15104 -0.22136,1.593748 -1.28385,0.53125 -4.29426,0.53125 -4.64844,0 -6.0651,-0.53125 0,-3.763018 -0.17709,-7.791661 0.57552,-0.08854 1.99219,-0.177083 z m -11.908846,0.265625 q 1.593748,0.442708 3.453122,1.239582 -1.062499,3.585935 -3.364581,7.1276 -1.947915,-0.442708 -3.276039,-1.505208 1.460936,-3.674476 3.187498,-6.861974 z"
                 style="font-family:DFWaWaW7-B5;-inkscape-font-specification:DFWaWaW7-B5"
                 id="path53140" />
            </g>
          </g>
        </g>
      </g>
    </g>
  </g>
</svg>
