<?xml version="1.0" encoding="utf-8"?>
<!-- Generator: Adobe Illustrator 25.3.1, SVG Export Plug-In . SVG Version: 6.00 Build 0)  -->
<svg version="1.1" id="圖層_1" xmlns="http://www.w3.org/2000/svg" xmlns:xlink="http://www.w3.org/1999/xlink" x="0px" y="0px"
	 viewBox="0 0 387 327.7" style="enable-background:new 0 0 387 327.7;" xml:space="preserve">
<style type="text/css">
	.st0{clip-path:url(#SVGID_2_);}
	.st1{fill:#008C83;}
	.st2{fill:#242477;}
	.st3{fill:#C5BA9F;}
	.st4{fill:#3D3B83;}
	.st5{fill:#F4AF4C;}
	.st6{fill:#FF5D2A;}
	.st7{fill:#203D69;}
	.st8{fill:#FF7F62;}
	.st9{fill:#EA9C2F;}
	.st10{fill:#0D120E;}
	.st11{fill:#DC911B;}
	.st12{fill:#0E1B1E;}
	.st13{fill:#FFFFFF;}
	.st14{fill:#F3892E;}
	.st15{fill:#3156AA;}
</style>
<g id="圖層_2_1_">
	<g id="圖層_1-2">
		<g id="圖層_2-2">
			<g id="Object">
				<g>
					<defs>
						<rect id="SVGID_1_" x="-52.7" width="439.7" height="812"/>
					</defs>
					<clipPath id="SVGID_2_">
						<use xlink:href="#SVGID_1_"  style="overflow:visible;"/>
					</clipPath>
					<g class="st0">
						<path class="st1" d="M-78.8,966.1L-78.8,966.1C-78.8,966.1-79,966.1-78.8,966.1L-78.8,966.1C-78.9,966-78.8,966-78.8,966.1z"
							/>
						<path class="st2" d="M278.4,259c-1.5,7.7-2.7,15.5-3.7,23.2c-0.5,3.8-0.9,7.7-1.1,11.5v0.5c-0.2,0.7,0.2,1.3,0.9,1.5
							s1.3-0.2,1.5-0.9c0-0.2,0-0.4,0-0.6c0.6-9.6,1.8-19.1,3.5-28.5c3.6-21.3,9.7-42.1,18.2-61.9c4.9-11.3,11.1-22.1,18.3-32.2
							c3.7-5.1,7.7-9.9,12-14.4c5-5.1,10.4-9.5,15.6-14.3c20-18.3,37.1-39.4,50.9-62.8c4.4-7.3,8.3-14.9,11.8-22.7
							c1.7-3.7,3.3-7.5,4.6-11.3l0.2-0.5c0.3-0.6,0.2-1.3-0.4-1.7c-0.6-0.3-1.3-0.2-1.7,0.4c-0.1,0.2-0.1,0.3-0.2,0.5
							c-0.9,2.8-1.8,4.9-3,7.7c-3,7.1-6.5,14-10.2,20.7c-12.7,22.7-28.6,43.4-47.2,61.5c-5.5,5.4-11.4,10.3-17.1,15.5
							c-4.6,4.3-8.9,8.9-12.8,13.8c-7.7,9.7-14.3,20.3-19.7,31.4C289.2,215.7,282.7,237.4,278.4,259z"/>
						<path class="st3" d="M372.6,173.8c10.9-24.3-6.3-52.8-6.3-52.8C359.2,130.3,361.7,198.1,372.6,173.8z"/>
						<path class="st3" d="M343.1,144.9c-6.2,8.2-4,67.9,5.6,46.5S343.1,144.9,343.1,144.9z"/>
						<path class="st3" d="M329.2,203.2c8.5-19-5-41.2-5-41.2C318.8,169.3,320.7,222.2,329.2,203.2z"/>
						<path class="st3" d="M316,216c2.9-15.8-12-28.6-12-28.6C301.1,194.1,313,231.9,316,216z"/>
						<path class="st3" d="M306.3,236.4c2.7-14.7-11.2-26.6-11.2-26.6C292.3,215.9,303.5,251.1,306.3,236.4z"/>
						<path class="st3" d="M298.2,255.1C298.6,242.5,285,235,285,235C283.5,240.5,297.8,267.8,298.2,255.1z"/>
						<path class="st3" d="M292,275.1c0.4-11.2-11.6-17.8-11.6-17.8C279,262.2,291.6,286.2,292,275.1z"/>
						<path class="st3" d="M277.7,281.5c-1.1,4,9.1,23.5,9.4,14.4S277.7,281.5,277.7,281.5z"/>
						<path class="st3" d="M274.9,288.1c-3.1,4.1-2.1,34,2.7,23.3S274.9,288.1,274.9,288.1z"/>
						<path class="st3" d="M372,112.7c0,0-26.3-17.8-47.6-4.7S364,121,372,112.7z"/>
						<path class="st3" d="M350.7,135.6c0,0-25.3-11.9-42.9,2.3S344.4,143.8,350.7,135.6z"/>
						<path class="st3" d="M294.3,162.5c15.6,7.6,38-9.9,38-9.9C326.7,147.1,278.7,154.9,294.3,162.5z"/>
						<path class="st3" d="M314.8,171.4c-5.2-3.1-42,11.3-28.6,14.2S314.8,171.4,314.8,171.4z"/>
						<path class="st3" d="M301.1,192.5c-5.6-0.8-35.5,24.2-22.4,21.9S301.1,192.5,301.1,192.5z"/>
						<path class="st3" d="M287.9,222.2c-5-0.2-29.4,23-18.1,20.1S287.9,222.2,287.9,222.2z"/>
						<path class="st3" d="M263.9,266.8c9.9-0.9,17.9-15.2,17.9-15.2C277.5,250.6,253.9,267.7,263.9,266.8z"/>
						<path class="st3" d="M265.5,291.7c7.9-3.5,11-16.4,11-16.4C272.8,275.8,257.7,295.2,265.5,291.7z"/>
						<path class="st4" d="M5.7,140c-0.7-0.3-1.4-0.4-2.2-0.5C2.8,139.6,3.7,140,5.7,140z"/>
						<path class="st4" d="M211.7,0.7c-6.3,2.5-12.4,5.2-18.4,8.2c-2.9-3-10.9-11.1-17.4-14.2c-8.1-3.9-26.5-12-26.5-12
							c8.2,28.3,29.4,29.5,39.5,28.4c-6.5,3.4-12.9,7.2-19.1,11.2l-1.5-0.7l-0.1-0.1l0,0c-3.7-2.1-11.1-5.9-16.5-6.8
							c-7.5-1.3-24.5-3.7-24.5-3.7c13.1,19.6,29.7,17.3,38.1,14.4c-4,2.7-7.9,5.6-11.7,8.5c-1.9,1.5-3.7,3-5.6,4.6H148l-0.1,0.2
							l-0.2,0.2c-2.8-1.7-11.8-6.6-18.1-7.7c-7.6-1.3-24.6-3.7-24.6-3.7c14.4,21.4,32.7,16.8,40.1,13.7c-5.4,5-10.6,10.2-15.7,15.4
							c-1.7-1-11.8-6.8-18.6-8c-7.6-1.3-24.6-3.7-24.6-3.7c16.3,24.3,37.8,15,42.6,12.5c-3,3.1-6.1,6.1-9.2,9.1
							c-3.4,3.2-6.8,6.4-10.4,9.5c-1.8-1-11.4-6.6-18.1-7.8c-7.4-1.3-23.9-3.7-23.9-3.7c15.4,23,35.6,15,40.9,12.3
							c-6.8,6-13.8,11.8-20.8,17.5C84.3,92.5,76,88,70.1,87C62.6,85.8,46,83.3,46,83.3c13.2,19.6,29.8,16.9,37.8,13.9
							c-2.9,2.4-5.8,4.7-8.8,7c-2.8,2.3-5.7,4.6-8.5,6.9c-2.8-1.6-8.7-4.7-13-5.4c-5.8-1-19-2.9-19-2.9c9.5,14.1,21.1,13.6,28,11.6
							c-3.1,2.5-6.2,5-9.4,7.3c-10.4,4-20.5,8.6-30.4,13.8c-5.2,3-11,4.5-17,4.5c6.7,1.9,27,7.1,50.1-18.5c1.8-1.5,3.7-2.9,5.5-4.4
							c-4.1,5.3-9.2,16.1,3.5,29.4c0,0,1.7-12.3,2.2-17.8c0.5-4.7-1.6-12-2.3-14.2l2.3-1.8c0.7-0.4,1.1-0.6,1.1-0.6l-0.2-0.1
							c5.3-4.1,10.5-8.3,15.7-12.6c-4.9,7.2-9.4,20.2,5.6,35.6c0,0,2.1-15.6,2.8-22.6c0.6-5.7-1.9-14.5-2.8-17.7
							c5.1-4.3,10.2-8.6,15.2-13c-4.8,7.1-8.9,19.9,5.8,35c0,0,2.1-15.5,2.8-22.3c0.5-5.8-2-14.8-2.9-17.8
							c6.2-5.8,12-11.9,17.9-17.9c-5.4,6.2-13.9,21,3.6,39.2c0,0,2.1-15.9,2.8-23.1s-3.3-19.3-3.3-19.3l0,0c2.9-2.8,5.8-5.6,8.8-8.3
							c2.3-1.9,4.5-3.9,6.9-5.8c-2.2,7-4.9,24.7,21,34.4c0,0-5.4-14.9-8-21.6c-2.1-5.2-8.2-12-10.8-14.7c5.4-4.3,10.9-8.3,16.7-12
							c-2.3,8.1-2.7,22.7,18.9,32.8c0,0-4-15.4-6-22.2c-1.3-4.5-5.3-10.2-8-13.7c6.7-4.1,13.6-7.9,20.6-11.4
							c-4,7.9-10.6,28.6,17.9,44.4c0,0-3.3-18.7-5.1-27c-1.4-6.4-7-15.3-9.6-19l1-0.5c6-2.8,12.2-5.3,18.4-7.6
							c0.3,6.9,4.4,37.8,50.5,36.2c0,0-16.7-16.5-24.5-23.6c-6.3-5.8-19.4-11.4-24.2-13.3c6.7-2.3,13.5-4.3,20.4-6
							c5.4,8.5,22.9,28.7,61.4,12.4c0,0-22.7-8.9-33-12.6c-4.7-1.4-9.5-2.3-14.4-2.6c11.7-1.9,23.5-2.7,35.3-2.3
							c1.7,0,3.3-5.1,4-5.1c-25.4-0.6-50.7,3.7-74.4,12.7c-0.8-5.3-2.9-17.9-7-24.8c-5.2-8.9-17.6-28.4-17.6-28.4
							C177.3-16.3,202.1-2.9,211.7,0.7z"/>
						<path class="st5" d="M194-7.4c-2.8,0.3-5.5,0.8-8.2,1.7c-1.9,0.6-3.6,1.6-4.2,3.6c-0.1,0.3,0.2,0.6,0.5,0.8
							c5,2.6,10.7,1.6,16,1.5c6.2-0.1,12.4,0.1,18.5,0.8c10.9,1.4,21.7,3.9,32.1,7.5c10,3.5,20.4,5.7,31,6.4
							c16,0.8,31.8-1.7,47.2-5.6c-5.5,8-9.2,17.1-12.5,26.2c-3.2,8.9-6.4,17.9-9.3,26.9c-2.7,8.7-4.8,17.5-6.9,26.5
							c-1.9,8.5-4.1,17-8,24.8s-9.7,14.6-12.8,22.9c-0.1,0.4,1.5,1.5,1.9,1.4c5.3-2,9.2-6.7,12.9-10.8c3.7-4.2,7.2-8.6,10.4-13.2
							c5.5-7.9,10.6-16.5,13.5-25.7c3-9.6,1.7-19.6,3.1-29.4c0.7-5.3,1.9-10.6,2.9-15.9s2-10.4,3-15.5c1.6-8,4.7-17.1,12.3-20.9
							l3.2-0.9c0.9-0.3,0.7-1,0.2-1.3l1.4-1.1c0.9-0.3,1.8-0.6,2.7-0.9c1.5-0.5,0.1-2-1-1.6c-11.5,4.2-23.7,6.6-35.9,7.3
							c-10.9,0.3-21.8-1.2-32.2-4.6c-10.4-3.2-20.6-7.3-31.3-9.6c-10.9-2.3-22.1-2.5-33.2-2.1C205.5-8.1,199.7-8,194-7.4z
							 M328.9,8.9l0.8-0.2L329.1,9L328.9,8.9z"/>
						<path class="st5" d="M302.7,22.4l0.7-0.1c-3.7,1.6-7.1,4-9.9,6.9l-1.1,0.6c-0.1-0.6-0.3-1-0.6-1c-1.7,0.6-3.3,1.4-4.8,2.4
							l-0.1-0.5l0.7-0.1c0.2,0-1.1-1.7-1.7-1.6c-13.2,2.9-26.6,4.4-40.1,4.5c-24.6,0.3-48.5-5.4-72.9-7.5c-11.7-1.2-23.4-1-35,0.7
							c-5.7,0.9-11.3,2.3-16.8,4.3c-2.6,0.9-5.1,2-7.5,3.2c-2,1-4.4,2.1-4.9,4.5c-0.1,0.5,1.3,1.5,1.8,1.5
							c6.4-0.2,12.3-2.9,18.2-5.2c5.6-2.3,11.5-3.6,17.5-3.9c10.9-0.4,21.5,2.2,32.1,3.9c12,1.9,24.3,2.2,36.5,2.8
							c12.5,0.6,25.1,1.5,37.6,0.8c6.1-0.3,12.2-1,18.2-1.9c-4.6,1.7-9.3,3.3-14,4.8c-7.8,1.8-15.8,2.7-23.8,2.6
							c-9.3,0-18.5-0.7-27.8-1.1c-10.1-0.5-20.3-0.5-30.4-0.2c-9.9,0.2-19.9,0.3-29.6,2c-10.1,1.7-19.8,5.5-28.4,11.1
							c-0.3,0.2-0.2,0.4-0.2,0.7c0.7,2,2.9,2.6,4.8,2.3c3-0.5,6-1.3,8.9-2.2c5.9-1.7,12-2.8,18.1-3.3c10.5-0.8,21,0.2,31.6,0.5
							c10.7,0.3,21.5-0.1,32.2-1.2c15.5-1.6,30.7-4.7,45.6-9.3c2.5-0.6,4.9-1.3,7.3-2.2c0.1,0,0.2-0.2,0.2-0.3
							c3.1-1.1,6.2-2.2,9.3-3.4c0.5-0.2,0.1-0.9-0.5-1.4c2.9-0.5,5.7-1.1,8.6-1.8c-0.9,0.8-1.8,1.6-2.7,2.5
							c-0.7,0.4-1.3,0.8-1.9,1.2l-7.6,3c-0.5-0.4-1.3-0.5-1.8-0.1c-7,5.7-11.8,13.3-15.4,21.5c-3.4,7.5-5.8,15.3-8.8,22.9
							c-3.4,8.5-7.4,16.8-12,24.8c-9.1,16.2-20,31.4-30.9,46.5c-0.5,0.7,0.4,1.2,1.1,1.1c5.4-0.3,8.7-5.2,11.7-9.1
							c3.4-4.2,6.8-8.5,10-12.8C236,120.5,247,104.4,255.3,87c2.1-4.3,3.9-8.7,5.6-13.2c0.8-2.2,1.6-4.4,2.3-6.6
							c-0.6,2-1.2,4.1-1.6,6.2c-1.1,4.9-1.8,9.8-3.2,14.6c-1.3,4.5-3,8.9-4.9,13.2c-4,8.8-8.5,17.4-13.6,25.7
							c-4.5,7.5-10.5,14.8-13,23.3c-0.1,0.4-0.2,2,0.5,2c5.5,0.1,8.9-5.9,11.7-9.8c3.5-4.8,6.8-9.7,9.9-14.7
							c5.7-9.1,11-18.4,16.2-27.8c5-9,9.4-18.1,12.2-28c2.7-9.7,4.4-19.9,8.9-29c3.4-7.2,8.7-13.9,15.8-17.5
							c-3.2,4.8-5,10.9-6.7,16.1c-3.2,10-6.5,20.1-10.5,29.8c-3.8,8.9-8.2,17.5-13,25.9c-9.1,16.3-18.8,32.5-23.9,50.7
							c-0.2,0.7,0.4,2.1,1.4,1.6c4.6-2.9,8.6-6.7,11.8-11c3.5-4.4,6.8-8.9,9.9-13.4c5.6-8.1,10.3-16.8,14-25.9
							c3.8-9.4,6.9-19.2,10.2-28.8s6.9-19.6,9.9-29.5c1.4-4.5,2.4-9.2,4-13.7c0.9-2.8,2.4-5.4,4.5-7.5h0.2c0.4-0.1,0.7-0.4,0.8-0.7
							c0.7-0.5,1.5-0.9,2.3-1.2c0.9-0.4,0.7-1.7,0-2.1l1.4-0.6c0.9-0.4-0.7-2.2-1.4-1.9c-12.1,4.9-25,7-38,6.2
							c-11.4-0.7-22.5-3.4-33.6-5.6c-10.9-2.2-22-3.6-33.1-4.3c-11.1-0.7-22.3-0.6-33.4,0.2c-5.5,0.4-11,1-16.4,1.7
							c-5.2,0.8-10.9,1.9-14.2,6.2c-0.5,0.6,0.6,1.6,1.1,1.8c5.2,2,10.7,1.8,16.1,1.4c6.3-0.5,12.6-1.1,18.9-1.1
							c22.2,0.1,43.7,6.6,65.8,7.6c11.5,0.5,23-0.9,34.4-2.5L302.7,22.4z M266,59.7L266,59.7c1.4-3.9,3.2-7.5,5.3-11
							C269.3,52.2,267.5,55.8,266,59.7L266,59.7z"/>
						<path class="st5" d="M134.3,63.5c-8.1,0.5-17.3,0.2-24.2,5c-0.6,0.4,0,2.2,0.7,2.2c8.3,1,16.6-0.4,24.8-0.7
							c3.8-0.2,7.6,0,11.4,0.6c3.9,0.6,7.7,1.4,11.6,1.9c7.4,1,14.9,1.3,22.4,0.9c12-0.6,23.9-2.8,35.2-6.7
							c-5.5,4.7-10.1,10.4-13.6,16.8c-6.9,12.2-10.6,25.8-16.8,38.3c-3.2,6.4-7.2,12.4-11.9,17.8c-5.1,5.9-10.6,11.4-16,17.1
							c-0.6,0.6,0.5,2.4,1.2,2c9.8-3.9,18-10.8,25.3-18.2c5.9-6,11.5-12.4,15.4-20s5.5-15.4,7.4-23.3s4.4-16,9.3-22.9
							c4.8-6.8,11.2-12.3,18.6-16c0.4-0.2,0.2-0.8-0.1-1.2h0.1c0.7-0.2,1.4-2.9,0.6-2.6c-8.6,2.8-18.6,6.1-27.4,8.2
							c-7.8,2-15.8,3.2-23.8,3.6c-8.4,0.3-16.5-1.2-24.7-2.3C151.4,63,142.8,62.9,134.3,63.5z M225.6,61.6c-0.3,0.2-0.6,0.5-0.9,0.7
							v-0.1L225.6,61.6z M217.4,66.4c1.5-0.5,3.1-1.1,4.6-1.7l0,0l-4,2.4C217.9,66.8,217.7,66.6,217.4,66.4L217.4,66.4z"/>
						<path class="st5" d="M145.1,81.5c6.9,0.5,13.7,1.5,20.6,1.6c6.3,0.1,12.7-0.5,18.9-1.8l4.2-1.3c0.6-0.2,1.2-0.1,1.7,0.2
							c0.1,0.1,0.2,0.3,0.3,0.4c0.3,0.3,0.3,0.7-0.5,0.8c-1.5,0.4-3,0.7-4.5,1c-11,3.4-22.1,6.6-33.6,7.9c-13,1.5-26.1-0.6-38.8,2.5
							c-7.3,1.8-14.3,4.4-21.7,5.6c-0.5,0.1-2.5-0.4-1.5-1.1c10.3-8.1,22.6-13.4,35.5-15.4C132.1,81.1,138.6,80.9,145.1,81.5z"/>
						<path class="st5" d="M118.7,105.9c6.5-1.8,13.1-3,19.7-4.4c7.4-1.6,18.3-3.9,24.6-8.4c0.6-0.5-1.2,1.8-1.8,2.2
							c-0.4,0.2-0.7,0.5-1.1,0.7l-0.3,1.9l0.1,0.1c1.6-1,3.1-2,4.7-3c0.3-0.2,0.6,0,0.8,0.4c2.1-2.1,4.2-4.2,6.3-6.4
							c0.6-0.6,1.3,1.6,0.8,2.2c-18.9,19.6-39.6,37.5-61.8,53.3c-3.1,2.2-6.1,4.4-9.3,6.4c-2.7,2-6,3.2-9.4,3.6
							c-0.9,0-1.1-1.6-0.7-2.1c6.3-9.9,14-18.8,23-26.3c7.8-6.2,16.2-11.7,25-16.4c-3.7,1-7.6,1.7-11.3,2.5c-6,1.2-12,2.6-17.9,4.4
							c-6,1.8-11.8,4.1-17.6,6.4c-6.6,2.7-13.1,5.7-19.5,8.7c-0.3,0.1-0.9-0.4-1.1-0.6c-1.7-1.7-0.4-3.4,1.2-4.6
							c2.8-1.8,5.6-3.6,8.5-5.2c11.7-6.6,24.1-11.7,37-15.3V105.9z"/>
						<path class="st5" d="M182.2,86l12.6-6.1c1.9-1.6,3.9-3,6.1-4.2c0,0,0.6,2.1,0,2.4c-6.2,3.5-11.4,8.6-15,14.8
							c-3.6,6.2-5,13.2-7.6,19.8s-7,11.9-11.9,17c-5.4,5.6-11.1,11-16.9,16.1s-12,9.9-19.1,13.1c-1.6,0.8-3.3,1.4-5.1,1.9
							c-1.2,0.4-2.5,0.3-3.6-0.3c-1.9-1.5-0.4-4.7,0.8-6c2.4-2.4,5.2-4.3,8.2-5.8c3.4-1.8,6.6-3.9,9.6-6.4
							c5.4-4.8,10.2-10.3,14.2-16.3c9.3-13.7,16-29.2,27.6-41.2C182.1,85.2,182.2,85.6,182.2,86z"/>
						<path class="st5" d="M218.4,84.9c2.8-6.6,7-12.5,11.4-18.2c5.1-6.5,10.5-12.8,17.5-17.4c0.2-0.1,0.7,0.2,1.2,0.6l1.5-0.7
							c1.9-1.9,4.2-3.4,6.8-4.1c0.5-0.2,1.9,1.4,1.8,1.4c-7.9,2.3-11.6,10.3-13.7,17.5s-4.3,14.8-7.1,22
							c-5.6,14.3-13.2,27.8-22.4,40.2c-5.5,7.4-11.6,14.7-20.1,18.6c-0.3,0.1-2.1-1.1-2-1.4c7.3-12.2,14.7-24.6,19-38.3
							C214.5,98.6,215.7,91.5,218.4,84.9z"/>
						<path class="st5" d="M303.2,131.4c-0.3-0.1-1-0.4-0.7-0.9c9.7-16.8,22.9-32.1,28.6-50.9c2.6-8.7,2.8-17.4,2.3-26.4
							s-1.5-17.8,0-26.6c1.6-9.7,6.4-18.6,13.5-25.4c0.6-0.3,1.3-0.3,1.9,0l0.6-0.3c0.8-0.7,1.6-1.3,2.5-1.8c0.7-0.4,2.9,0.3,2,0.9
							c-8.7,5.4-11.4,16.1-11.7,25.9c-0.4,11.4,1,22.8,0.9,34.2c0,9.7-1.7,19.4-5,28.6c-3.2,8.6-7.6,16.7-13.1,24.1
							c-3.2,4.3-6.6,8.3-10.4,12c-1.8,1.7-3.5,3.4-5.4,5S305.4,132.2,303.2,131.4z"/>
						<path class="st5" d="M335,110.7c8.5-12.4,10.2-27.8,11.4-42.5c0.7-8.8,1.4-17.6,2-26.4c0.6-8.3,1.1-16.6,2.1-24.8
							c0.7-6.4,2.4-12.7,5.1-18.6l0,0c-10.7,1.5-21.5,2.6-32.2,3.2c-9.6,0.6-19.1,1-28.5-1.4c-16.1-4.2-30.7-14.2-47.4-15.8
							c-4.8-0.3-9.7-0.2-14.5,0.4c-2.5,0.2-5,0.4-7.5,0.5c-1.9,0-4.6,0.3-6.3-0.9c-1.1-0.8-1.4-2.3-0.6-3.5c0.2-0.2,0.4-0.4,0.6-0.6
							c1.7-1.5,4.4-2.1,6.6-2.5c4.6-0.9,9.3-1.4,14-1.4c18.8-0.3,37.1,5.3,55,10.6S331.4-2.5,350.3-4c2.3-0.2,4.6-0.5,6.9-0.9h0.1
							l0.3-0.5c-11.7,0.5-23.5-1.2-34.6-5.1c-7.3-2.5-14.4-5.6-21.7-8.1c-7.7-2.7-15.5-4.9-23.4-6.8c-9.3-2.3-18.6-4.4-27.9-6.6
							c-0.5-0.1-1.1-2-0.8-2.3c6.3-5.5,15.7-3.3,23.1-1.8c7.9,1.6,15.6,3.6,23.3,5.9c7.8,2.4,15.5,5.2,23.1,8.3
							c7.8,3.2,15.2,7.1,23.6,8.7c7.9,1.4,19.1,2,27.1,2.9c-0.5-0.3-4.1-0.3-4.6-0.6c-11.5-1.7-22.6-5.5-33.4-9.8
							C318-26,304.6-31.7,291.6-38c-3.4-1.7-6.7-3.4-10-5.2c-1.5-0.8-3-1.5-4.4-2.5c-0.9-0.6-2.1-1.6-2-2.8s1.4-1.5,2.4-1.7
							c1.4-0.5,2.9-0.7,4.4-0.8c2.9-0.1,5.9,0.2,8.7,1c6.5,1.7,12.8,4.7,18.9,7.5c6.5,2.9,13,5.9,19.3,9.1c12.7,6.4,25,13.4,36.9,21
							c5.3,2.8,5.6,1.8,7.1,1.9s-1.2,0.4-2.8,0.3l0,0v0.6l0.4,0.2l2.8-0.9c1-0.8,2.1-1.6,3.3-2.3c1.1-0.7,2.3,1.3,1.1,2.1
							C370.8-6,365.6,0.6,362.8,8.4c-1.4,3.8-2.1,7.9-2.1,11.9c0,4.8,1.2,9.5,1.2,14.3s-1.1,9.7-1.6,14.5s-0.8,9.8-1.1,14.7
							c-0.6,9.2-1.3,18.6-4.7,27.4s-9.1,17-17.9,21.1C335.6,112.8,334.4,111.6,335,110.7z"/>
						<path class="st6" d="M138.9,107c1.9-1.4,3.9-2.7,5.9-3.8c33.1-18.3,58.6-32,92.6-49.7c17.4-9,34.8-17.9,52.3-26.7
							C307.1,18,324.5,9.2,342.2,1c19.5-9,39.5-17.1,60.3-22.6c1.6-0.4,5,3.6,3.3,4.1c-37.4,9.8-71.9,27.9-106.3,45.1
							c-35.2,17.6-70.1,35.7-104.9,54.3c-19.6,10.4-35.5,18.3-54.9,29C138.3,111.6,135.3,109.8,138.9,107L138.9,107z"/>
						<path class="st2" d="M281,119.4c-0.1,0.1-0.1,0.2,0,0.2c0,0,0.1,0,0.1,0c0.7,0.5,1.5,0.9,2.3,1.2c2.2,1.1,4.5,2.1,6.8,2.9
							c3.7,1.4,7.5,2.5,11.4,3.4c5.2,1.2,10.5,2,15.8,2.5c6.9,0.6,13.8,0.8,20.7,0.5c8.4-0.3,16.8-1.2,25.1-2.7
							c10.1-1.8,20.2-4.3,30-7.3c11.8-3.7,23.3-8,34.5-13c13.5-6,26.7-12.7,39.5-20.1c15.2-8.7,30-18.3,44.4-28.4
							c3.9-2.7,7.7-5.5,11.5-8.3c0.1-0.1,0.1-0.2,0-0.3c-1.3-1.8-2.6-3.5-3.9-5.3c-0.1-0.1-0.2-0.1-0.3,0c0,0,0,0,0,0l0,0
							c-1.2,1-2.3,2-3.5,3c-3.3,2.8-6.6,5.4-9.9,8c-5.2,4-10.4,7.9-15.7,11.6c-6.7,4.7-13.5,9.3-20.5,13.7c-8,5-16.2,9.7-24.5,14.2
							c-9.1,4.8-18.4,9.3-27.8,13.3c-9.9,4.2-20,7.8-30.3,10.8c-10.4,3.1-21,5.3-31.7,6.8c-10.8,1.5-21.8,2-32.7,1.4
							c-11.1-0.6-22.1-2.5-32.8-5.6c-2.7-0.8-5.3-1.7-8-2.7c0-0.1-0.1-0.1-0.1-0.1C281,119.3,281,119.3,281,119.4z"/>
						<path class="st1" d="M278.9,44.6c-3.4,2.7-6.4,5.8-9.1,9.2c-2.3,2.8-1.2,7.1-0.3,10.3c1.8,5,3.9,9.8,6.5,14.4
							c2.5,4.6,4.8,9.4,6.6,14.3c1,3,2.2,7.3-0.7,9.6c-0.9,0.8-2,1.3-3.2,1.2c-1-0.2-1.8-0.8-2.2-1.7c-0.7-1.2-1.1-2.5-1.4-3.9
							c-0.4-1.8-0.7-3.6-1-5.3c-0.6-4.4-1.1-8.8-1.7-13.3c-0.5-4.5-1.5-9-2.9-13.4c-0.6-1.8-2.6-6.4-5.1-3.8
							c-0.2,0.2-0.4,0.4-0.5,0.7c-0.6,1-1.1,2.1-1.6,3.2c-1.7,3.5-3,7.1-4,10.9c-1.6,6.2-2,12.7-1.1,19c0.7,5.2,2.3,10.2,4.6,14.9
							c1.7,3.5,3.7,6.7,6.1,9.8c1.1,1.4,2.2,2.7,3.5,3.9c1.9,1.9,4.4,3.1,7,3.4c2.5,0.1,4.9-0.5,7-1.7c1.9-0.9,3.9-2.3,6.1-2.5
							c0.7-0.2,1.5,0,2.1,0.5c0.7,0.9,0.3,2.3,0,3.2c-0.7,2.2-1.9,4.2-2.7,6.4c-1.5,4.4-2.1,9-1.6,13.7c0.2,3.6,1.6,7.1,3.9,9.9
							c2.6,3,6.1,5.1,9.4,7.1c3.5,2.2,7.4,3.8,11.4,4.9c6.5,1.7,13.2,2,19.8,1c2.7-0.4,5.4-1.4,7.8-2.7c1.2-0.7,4-2.4,2.9-4.1
							c-0.8-0.9-1.9-1.5-3-1.6c-1.9-0.4-3.8-1-5.6-1.6c-3.8-1.5-7.2-3.6-10.3-6.2c-3.5-3.1-6.6-6.6-9.1-10.5
							c-0.5-0.7-3.2-4.7-1.2-5.1c0.5-0.1,1,0,1.4,0.1c0.8,0.2,1.2,1,1.8,1.6c2.9,3.2,6.1,6.2,9.4,9c4.5,3.9,9.7,7,15.3,9
							c3.8,1.3,7.9,1.5,11.8,0.6c3.3-0.9,6.4-2.5,9-4.7c2.4-2.1,4.7-4.3,6.8-6.7c0.9-1,1.8-2,2.8-3c1.9-1.7,3.7-3.5,5.2-5.6
							c0.6-1,1.3-2.6,0-3.3c-0.4-0.2-0.8-0.3-1.2-0.3c-0.5,0-0.9,0.1-1.3,0.4c-5.5,2.2-11.6,2.5-17.2,0.9c-5.7-1.6-11-4.3-15.7-8
							c-4-3-7.4-6.8-9.8-11.2c-0.9-1.5-1.3-3.3-1.4-5.1c0-1,0.2-2.5,1.4-2.8s2.4,0.5,3.2,1.1c1.6,1.1,3.2,2.3,4.7,3.6
							c4,3.3,7.9,6.8,12.3,9.7s9.3,5.6,14.6,6.1c6.2,0.6,12.3-2.5,17-6.2c4.8-3.8,8.6-8.7,11.1-14.3c0.7-1.6,2.6-7.4-1.2-6.5
							c-0.8,0.2-1.6,0.6-2.4,1c-0.9,0.4-1.7,0.7-2.7,0.9c-2.3,0.5-4.7,0.8-7.1,0.8c-5.8,0.1-11.5-0.5-17.2-1.7
							c-4.7-0.7-9.4-2.2-13.7-4.3c-1-0.5-2.4-1.3-2.7-2.5s1.3-2.1,2.3-2.5c2.4-0.8,4.9-1,7.4-0.4c2.8,0.6,5.6,1.4,8.3,2.5
							c5.5,2,11.2,4.4,17,4.4c2.5,0.1,5-0.7,7.1-2.1c3-2,5.4-4.7,6.9-8c0.7-1.7,1.2-4.3-0.2-5.8c-1.9-1.8-5.1-0.6-7,0.4
							c-3.8,1.9-7.9,2.9-12.1,2.9c-3.3,0.2-6.5-0.6-9.3-2.4c-1.7-1.2-3.3-3.6-1.5-5.4c0.9-0.8,1.9-1.4,3-1.8c1.4-0.6,2.8-1,4.3-1.4
							c3.4-0.9,7-1.6,10.4-2.3c1.6-0.3,3.2-0.7,4.8-1.1c1.3-0.3,2.6-0.7,3.8-1.3c4.3-2.4,3.8-9,3.3-13.1c-0.3-2.4-0.8-4.8-1.5-7.1
							c-0.2-0.7-0.4-1.4-0.6-2.1c-0.1-0.2-0.1-0.5-0.3-0.7c-0.3-0.2-0.6-0.4-0.9-0.6l-2.1-1.3c-2.3-1.4-4.7-2.8-7.1-4
							c-2.8-1.5-5.7-2.8-8.7-4c-2.6-1.1-5.3-1.7-8.1-1.9c-1.7-0.2-3.4,0.4-4.6,1.6c-1.5,1.5-2.6,3.3-3.5,5.2c-2.5,5-4.1,10.4-6,15.6
							c-0.9,2.5-2,4.9-3.2,7.2c-0.8,1.8-2.1,3.4-3.6,4.6c-1.2,0.9-2.8,0.9-4,0c-1.1-0.9-1-2.6-0.9-3.8c0.3-2.1,1-4.2,1.9-6.2
							c1.1-2.5,2.2-4.9,3.6-7.2c2.7-4.8,5.6-9.4,8.8-13.9c1.1-1.5,2.2-3.1,3.5-4.6c1-0.9,1.8-2,2.5-3.2c0.5-1.4,0-2.9-1.2-3.7
							c-2.2-1.6-5.3-2-8-2.1c-2.2-0.1-4.5-0.1-6.7,0.1c-0.9,0-1.8,0.2-2.6,0.5c-1.5,0.7-2.7,1.7-3.6,3c-2.7,3.4-4,7.9-5.1,12
							c-1.4,5.4-2.4,10.9-3.3,16.4c-0.9,5.2-1.7,10.5-2.8,15.6c-0.4,2-1,4-1.7,6c-0.5,1.4-1.2,2.8-2.2,3.9c-0.7,0.9-1.8,1.3-2.9,1.1
							c-1.1-0.3-1.9-1.2-2.2-2.3c-0.5-1.7-0.8-3.5-0.7-5.3c0-2.4,0.2-4.8,0.6-7.2c0.9-5.7,2.2-11.3,3.9-16.8
							c1.5-5.2,3.5-10.3,5.8-15.2c0.8-1.8,1.8-3.4,3-5c0.9-1.2,2-2,2.8-3.3c1.5-2.1,1.6-4.8,0.4-7c-1.7-2.7-5.2-3.1-8.1-2.8
							c-2.6,0.3-5.1,1-7.5,2c-3.5,1.5-6.8,3.3-9.9,5.4c-3.1,1.9-6,4.2-8.6,6.7c-2,2.1-3.8,4.4-5.2,6.9c-2.5,4.6-4.1,9.7-4.7,14.9
							c-0.5,4.6-0.6,9.3-0.2,14c0.2,3.2,0.8,6.4,0.8,9.6c0,0.5,0.1,1.6-0.4,2s-1.2-0.3-1.6-0.6c-4.4-3.6-5.6-9.2-5.5-14.6
							c0.2-6.1,1.8-12,3.2-17.9c0.6-2.4,2.6-9.3-1.9-9.1c-1.2,0.1-2.3,0.5-3.3,1.1C281.7,42.5,280.3,43.5,278.9,44.6z"/>
						<path class="st2" d="M315.5,129.5c1.8,2.2,3.8,4.2,6,6l0.1,0.1l0,0c1.8,0.8,7,2.8,6.9-1c-0.1-1.4-0.6-2.8-1.4-4
							c-0.9-1.6-2-3-3.3-4.3c-2.3-2.2-5.7-4.5-9-3.3S314.1,127.8,315.5,129.5z"/>
						<path class="st2" d="M304.5,38.8c-1.2,1.1-2.2,2.3-3,3.7c-1.3,2.2-2.5,4.5-3.3,6.9v0.1c-0.8,1.6-0.6,3.6,0.5,5
							c0.4,0.5,1,0.8,1.6,0.9c0.8-0.1,1.5-0.5,2-1.1c0.5-0.6,0.9-1.2,1.4-1.9l1.6-2.2c1.2-1.5,2.2-3.1,3.2-4.8
							c0.9-1.4,1.3-2.9,1.3-4.5c-0.1-1.3-0.9-2.4-2.1-2.9C306.5,37.7,305.3,38,304.5,38.8z"/>
						<path class="st2" d="M291.6,123.5c-0.3,0.2,1.1-0.4,2.1,0.7c0.7,0.6,0.8,1.6,0.3,2.4l0.7-0.6c1.9-1.8,29.4-28.4,61.7-49.9
							C334.7,89.6,301.5,111.3,291.6,123.5z"/>
						<path class="st7" d="M356.5,76c11.7-7.2,20.1-12.2,20.1-12.2C369.8,67.5,363.1,71.7,356.5,76z"/>
						<path class="st8" d="M433.3,173c-0.8-1.8-2.2-3.2-3.9-4.2c-2.3-1.4-4.9-2.2-7.6-2.1c-6.3,0-12.4,2.5-18.3,4.6
							c-1.6,0.6-3.1,1.1-4.7,1.7c-1.4,0.5-2.9,0.9-4.4,1.2c-2.2,0.4-4.5-0.1-6.4-1.3c-2-1.4-3.6-3.4-4.4-5.8
							c-1.6-6.2-4.1-12.2-7.3-17.8c-2-3.5-4.6-6.6-7.8-9c-1.8-1.5-4-2.3-6.3-2.3c-1.5,0-2.8,0.9-3.3,2.3c-0.2,1.2-0.1,2.5,0.4,3.6
							c0.7,2,1.6,3.8,2.7,5.6c3.3,5.6,7,10.9,9.9,16.7c0.5,0.7,0.8,1.6,1,2.5v0.2l-0.5-0.1c-2.1-1.1-4-2.4-5.7-3.9
							c-5.5-4.3-10.8-9.1-16.9-12.5c-1.8-1-4.2-2.4-6.4-1.9c-1.1,0.3-2,0.9-2.8,1.7c-0.7,0.6-1.3,1.4-1.7,2.3
							c-0.4,1.7,0.1,3.5,1.5,4.7c1.8,1.8,3.9,3.4,6.2,4.5c5.5,3.1,11.3,5.4,17,8.1c0.8,0.4,9,4,6.3,5.6c-1,0.5-2.1,0.7-3.2,0.6
							c-1.5,0-3.1-0.1-4.6-0.4c-4-0.8-7.8-1.8-11.7-3.1c-4.2-1.3-8.3-2.8-12.5-4.2c-3.6-1.3-7.2-2.4-10.9-3.2c-2-0.4-4.7-1-6.6,0
							c-1.8,0.9-1.7,3-0.6,4.4c1.9,2.4,5.4,3.3,8.2,4.1c4.1,1.1,8.4,1.8,12.6,2.5c4,0.6,7.9,1.5,11.7,2.7c1.3,0.4,2.5,1,3.6,1.9
							c0.3,0.3,0.8,0.8,0.6,1.2s-1,0.4-1.4,0.5c-1.1,0.2-2.2,0.2-3.3,0.2c-3.2,0.1-6.4,0-9.6-0.1c-7.1-0.2-14.5-0.7-21.6,0.4
							c-2.4,0.2-4.8,0.9-6.8,2.2c-0.7,0.5-1.2,1.2-1.4,1.9c-0.3,1.4-0.2,2.9,0.5,4.2c0.6,1.1,1.8,1.7,3,1.7c1.8,0.1,3.7-0.1,5.5-0.4
							c2.7-0.4,5.3-0.8,8-0.9c3.3-0.1,6.6,0.1,9.8,0.5c6.2,0.6,12.5,0.5,18.8,1c1,0.1,2,0.2,3,0.4c0.6,0.1,1.2,0.3,1.8,0.7
							c1.1,0.9-0.9,2.3-1.5,2.7c-2.1,1-4.3,1.6-6.7,1.8c-3.6,0.6-7.2,0.9-10.8,1.2c-8.5,0.7-17,1.2-25.4,2.4
							c-3.5,0.4-7,1.1-10.5,2.1c-2.4,0.6-4.7,1.7-6.5,3.3c-1.3,1.1-1.7,2.9-1,4.4c0.8,1.5,2.8,2.1,4.4,2.5c2.7,0.5,5.4,0.6,8.1,0.5
							c3.5-0.1,6.9-0.4,10.4-0.9c7.2-0.9,14.3-2.1,21.5-3.3c2.6-0.4,5.2-0.9,7.8-1.1c0.8-0.1,1.7-0.2,2.5-0.1c0.3,0,1,0,1.2,0.2
							c0.5,0.8-2.6,2-3,2.2c-3.3,1.2-6.8,2-10.4,2.3c-8.6,1.2-17.3,1.5-25.9,2.5c-3.3,0.3-6.5,0.9-9.7,1.9c-1.5,0.5-3.9,1.4-4.1,3.3
							s1.7,3.2,3.3,3.6c2.9,0.6,5.8,0.7,8.7,0.3c7.2-0.7,14.3-2.4,21.4-3.5c1.3-0.2,2.6-0.4,3.9-0.4c0.8-0.1,1.6,0,2.3,0.2
							c1.6,0.7-0.8,2.8-1.5,3.3c-2.7,1.8-5.8,3.1-9,3.9c-4.2,1.2-8.4,2.2-12.7,3.2s-8.5,1.9-12.8,3c-3.5,0.8-6.9,1.9-10.2,3.4
							c-1.9,0.9-4.3,2.1-5,4.2c-0.2,1.3-0.1,2.6,0.5,3.7c0.4,1,0.9,2.1,2.1,2.2c1.3,0,2.7-0.3,3.9-0.8c2.4-0.8,4.8-1.5,7.3-2.1
							c3.1-0.7,6.3-1,9.4-1.7s6-1.6,8.9-2.4c2.3-0.7,4.5-1.4,6.8-1.9c0.5-0.1,2.8-0.8,2.7,0.4c-0.2,0.7-0.6,1.3-1.2,1.8
							c-0.4,0.5-0.9,1-1.4,1.4c-1.2,1.2-2.6,2.3-3.9,3.5c-6.6,5.7-13.9,10.9-19.6,17.5c-1.7,2-4.1,4.7-4.1,7.5
							c0.2,2.1,1.9,3.6,4,3.5l0.4,0c2.7-0.4,5-2.6,6.8-4.5c2.4-2.6,4.7-5.4,6.8-8.3c1-1.2,2-2.5,3-3.7c0.6-0.8,1.4-1.5,2.3-2
							c2-0.9,2,3,1.8,4c-0.6,3.2-2.7,6.2-4.5,8.8c-2.4,3.5-5,6.9-7.3,10.4c-2.3,3.1-4.2,6.6-5.7,10.2c-1,2.7-1.5,5.9,0.2,8.5
							c1.5,2.2,3.8,3.6,6.4,3.8c2.1,0,4-0.9,5.5-2.3c1.9-1.9,3.4-4.1,4.4-6.5c1.4-2.9,2.5-5.9,3.5-9c2-6.2,3.4-12.6,5.2-18.8
							c0.5-2,1.1-4,2-5.9c0.1-0.3,0.3-0.5,0.5-0.8l0.2-0.2l0,0c0.3,0,0.6,0.4,0.8,0.7c0.8,1.6,1.4,3.3,1.7,5c0.4,2.1,0.8,4.3,1,6.4
							c0.5,4.4,0.8,8.8,1.5,13.1c0.2,1.5,0.6,3,1.2,4.4c0.4,0.7,0.9,1.4,1.8,1.4c2.4-0.2,3.1-3,3.3-5c0.2-3.7,0-7.5-0.7-11.2
							c-0.6-4.4-1.2-8.9-1.6-13.3c-0.2-3.3-0.6-7.1,0.7-10.1c0.4-0.9,1.1-2,2.1-2.2c0.8,0,1.5,0.4,1.8,1.1c0.6,1.1,1,2.2,1.2,3.4
							c0.4,1.7,0.7,3.4,0.9,5.1c0.6,4.1,0.9,8.3,1.4,12.5c0.4,4,1.1,7.9,2.1,11.8c0.6,2.1,1.5,4.8,3.6,5.9c1,0.6,2.2,0.5,3.1-0.3
							c1.1-1.1,1.2-3,1.1-4.4c-0.3-2.5-0.7-5-1.4-7.5c-1.8-8.1-3.7-16.1-5.2-24.2c-0.7-3.8-1.2-7.7-1.4-11.6
							c-0.1-2.4-0.2-5.4,1.1-7.4c1-1.7,3.1-1.2,4.3,0c2,1.9,3.1,4.9,4,7.4c2.7,7.6,4.2,15.6,6.2,23.4c0.7,3.2,1.8,6.4,3,9.5
							c0.6,1.5,1.7,3.7,3.6,3.7c3-0.1,3.5-3.5,3.4-5.8c-0.3-4.3-1.2-8.6-2.7-12.7c-1.9-6.1-4.4-12.1-6.4-18.2
							c-1.3-4.1-2.5-8.2-3.6-12.4c-1-3.5-1.6-7.1-1.8-10.7c-0.1-1,0.1-2,0.5-2.8c0.4-0.5,1.1-0.1,1.5,0.2c0.6,0.7,1.2,1.4,1.5,2.3
							c0.5,1.2,1,2.5,1.4,3.8c2.3,7.8,3.5,15.8,5.2,23.7c0.8,4,1.9,7.9,3.1,11.8c0.7,2.8,2,5.5,3.8,7.8c1.7,1.9,4.6,2.2,6.7,0.8
							c2.8-1.9,3.4-6.1,3.6-9.2c0.1-1.8,0-3.6-0.3-5.4c-0.1-1.2-0.5-2.4-1.1-3.6c-1.2-2.2-2.5-4.5-3.7-6.8c-4.2-8.2-8.1-17-9.8-26.2
							c-0.7-4-1.1-8.5,0.4-12.4c0.5-1.2,1.5-4.1,3.2-3s2.5,3.5,3.2,5.2c1.2,3,2.2,6.2,3.2,9.4c2,6.7,3.7,13.7,6.4,20.1
							c0.7,1.7,1.5,4,3.1,5.1c1,0.4,2,0.4,3,0c1.5-0.3,2.9-1,3.9-2.1c1-1.3,1.4-3,1.1-4.6c-0.5-2.8-1.6-5.6-3.1-8
							c-1.8-3.1-3.6-6.1-5.3-9.3c-2.1-4.1-4.1-8.2-5.8-12.4c-1.7-3.7-2.8-7.5-3.3-11.5c-0.1-1.5,0.4-5.7,2.9-4.2
							c1,0.7,1.7,1.6,2.2,2.7c0.8,1.5,1.5,3.1,2.2,4.8c1.5,3.8,2.9,7.7,4.7,11.4c1.4,2.8,3.2,6.2,6.3,7.4c1.8,0.9,4.1,0.2,5-1.7
							c0,0,0,0,0,0c0.2-0.3,0.3-0.7,0.3-1c0.3-1.6,0.2-3.2-0.1-4.8c-0.4-2.1-0.9-4.2-1.6-6.2c-1.3-4-3.1-7.8-5.5-11.3
							c-0.5-0.6-1-1.2-1.5-1.8c-0.3-0.2-0.6-0.5-0.9-0.9c-0.3-0.5,0-1,0.5-1.2c0.9-0.5,1.8-0.9,2.7-1.1c1.4-0.4,2.8-0.8,4.1-1.1
							c3.3-0.8,6.6-1.5,9.9-2.4c2.9-0.6,5.6-1.7,8.1-3.2C432.5,176.5,433.9,175,433.3,173z"/>
						<path class="st4" d="M391.4,173.9c-0.5,0-1,0.1-1.4,0.4c-6.1,5.2-11.6,11-16.6,17.3c-5.3,6.6-10.3,13.5-14.8,20.6
							c-4.2,6.5-8.2,13.2-12,20c-2.8,5.1-5.6,10.2-8.2,15.4c-0.8,1.6-1.6,3.2-2.4,4.8l-0.7,1.5c-0.1,0.2-0.3,0.5-0.4,0.8
							c0,0,0,0.1,0,0.1c-0.1,0.3,0.7,0.2,0.8,0.2s1.1-0.1,1.2-0.4c0.9-1.9,1.8-3.8,2.8-5.7c2.5-4.9,5-9.7,7.6-14.5
							c3.7-6.6,7.5-13.2,11.6-19.5c4.5-7.1,9.3-14,14.5-20.6c4.9-6.5,10.4-12.5,16.4-18c0.7-0.6,1.4-1.2,2.1-1.9
							C392.2,173.9,391.6,173.9,391.4,173.9z"/>
						<path class="st9" d="M301.6,131.3c-1.1-0.7-2.3-1.2-3.5-1.5c-8-2.3-50.4-13.5-72.3,1.9c0,0-8.1,4.1-7.2,12.6l4.6-3l64.2,9.4
							c6.5-4.6,12-10.6,15.9-17.6C303.5,132.7,302.6,131.9,301.6,131.3z"/>
						<path class="st10" d="M247.1,129.5c-0.5-1.5-2-2.6-4.3-3.3c-2.7-0.8-5.5-0.7-8.1,0.2c-3.9,1.2-7.5,2.9-10.8,5.2
							c-4,3.2-6.2,8.1-5.8,13.3v0.2l2.8-3.3c0.2-0.3,0.6-0.4,0.9-0.4l15.8,2.3c0.8,0.1,7.5-7.2,7.8-7.7l0,0
							C247.1,133.4,247.7,131.2,247.1,129.5z"/>
						<path class="st11" d="M285.9,139.9h-0.2c-0.1,0-13.5-1.2-28.3-1.7c-19.8-0.5-32.4,0.7-37.5,3.6l0,0l-2.6,4l4.4-2.4l67.6,7.8
							L285.9,139.9z"/>
						<path class="st12" d="M285.5,150.8l-2.1-4.2c0-0.1-0.1-0.1-0.2-0.2c-0.1,0-0.2,0-0.2,0c-0.3,0.1-4.9,1.9-7.9,3
							c-0.2,0.1-0.2,0.3-0.1,0.5c0,0.1,0.1,0.1,0.2,0.2l0,0l10,1.1c0.1,0,0.2,0,0.3-0.1C285.6,151,285.6,150.9,285.5,150.8z"/>
						<path class="st12" d="M351.6,190.9c-5.3-10.2-23.3-16.7-26.1-27.5c-0.3-1.8-0.2-3.6,0.3-5.3c0.9-4.1,0.7-8.3-0.5-12.3
							c-3.4-9.7-11.7-15-21.2-17.2c-6.5-1.5-11.5,2.9-15.4,7.8c-2.6,3.3-6.8,10.6-4,14.7c0.6,0.8,1.3,1.5,2,2.1
							c4.2,4,6.9,9.2,7.7,14.9c0.8,5.5-1,10.8-1.7,16.2c-1.4,10.2-3.5,20.6-2.5,30.9c1,10.7,9.6,31.2,22.2,32.9
							c0.3,0,0.5,0.2,0.6,0.5c0.1,0.2,0.1,0.5,0,0.8c-2.9,5.1-10.2,18.2-16.6,31.2c-8.2,16.8-11.6,26.8-10,29.9
							c0.3,0.7,0.9,1.2,1.7,1.2c4.9,0,16.1-21.1,21-30.7c-3.5,10.6-11.2,36.6-7.3,42.8c0.8,1.2,1.6,1.9,2.5,1.9c0.1,0,0.3,0,0.4,0
							c5.6-1.4,8.7-35.1,9.5-44.7c1.2,7.5,5.2,28.5,11.6,29.1c0.7,0.1,1.3-0.2,1.8-0.7c3.7-4.2-1.6-27.7-5.5-45
							c-1.8-7.8-3.2-13.9-3.2-16.1c0-0.3,0.1-0.6,0.2-0.6c19.5-2.8,32.1-9.4,37.3-19.7C363.5,213.7,354.5,196.5,351.6,190.9z"/>
						<path class="st13" d="M318.7,247.7c-0.1-0.3-0.6-0.3-1-0.2c-2.5,0.4-4.2,0.2-5.5,2.5c-1.9,3.4-4.4,8.5-2.9,12.4
							c1,2.5,3.2,2.1,4.5,0.1v-0.1c0,2,0.4,3.7,1.8,3.8c1.2,0.1,1.9-0.8,2.3-2.1c0.3,1,0.8,1.8,1.6,2.4c1.5,0.8,2.1-0.6,2.1-1.9
							C321.6,259.1,319.9,253.2,318.7,247.7z"/>
						<path class="st13" d="M342,196.6c-0.1-0.6-2-0.1-1.9,0.5c0.7,4.4,0.9,8.9,0.4,13.4c-0.1,1.4-0.2,5.4-2,2.3
							c-0.9-1.5-1.1-4-1.5-5.6c-0.1-0.6-2-0.1-1.9,0.5c0.1,1.5,0.2,3,0.2,4.5c0,1.1,0.3,4.9-0.5,5.9c-0.4,0.6-0.4-0.1-0.6-0.8
							c-0.2-0.7-0.4-1.4-0.5-2.2c-0.3-1.7-0.5-3.3-0.6-5c0-0.6-1.9-0.1-1.9,0.4c-0.4,2.5-0.8,5-1.2,7.4c-0.2,1.1-0.2,5.5-1.1,6.2
							c-0.6,0.5-0.3,0.3-0.4-0.7c-0.1-1.5-0.1-2.9,0-4.4c0.1-2.2,0.4-4.4,0.9-6.5c0.1-0.6-1.8-0.3-1.9,0.3
							c-0.9,4.4-1.2,8.9-0.8,13.4c0,0.2,0.5,0.2,0.6,0.2c1.6,0.1,3.1-1,3.5-2.6c0.6-1.9,1-3.8,1.2-5.8c0.5,1.4,1.4,2.2,2.9,1.7
							s1.7-2.2,1.9-3.6c0.1-0.7,0.2-1.4,0.2-2.2c0.9,1.5,2.1,2.2,3.9,0.8s1.5-5.6,1.6-7.7C342.8,203.7,342.6,200.1,342,196.6z"/>
						<path class="st14" d="M306,136.2c-8-14.4-18.1,1.4-19.1,3.1c0,0.1-0.7,3.2-0.7,3.3C279.8,161.2,314.4,151.4,306,136.2z"/>
						<path class="st10" d="M306.6,134.3c-2.8-4.2-8.3-5.7-12.8-3.4c-4.5,2.7-7.9,6.9-9.3,12c-0.8,3.2-0.2,6.5,1.7,9.2
							c0.2,0.3,1.8,0,1.6-0.3c-3.6-5.9-1.4-11.7,2.8-16.7c3-3.6,7.3-6.4,11.7-3.1c1,0.7,1.9,1.7,2.7,2.7
							C305.2,135,306.8,134.6,306.6,134.3z"/>
						<path class="st15" d="M295,144c1.3,1,3.1,0.7,4.1-0.6c1-1.3,0.7-3.1-0.6-4.1s-3.1-0.7-4.1,0.6c0,0,0,0,0,0l0,0
							C293.4,141.2,293.7,143,295,144C295,144,295,144,295,144L295,144z"/>
						<path d="M296,141.6c0.2-0.9,0.6-1.6,1.1-1.5s0.5,1,0.3,1.9s-0.6,1.6-1.1,1.5S295.8,142.5,296,141.6z"/>
						<path class="st13" d="M312.2,138.9c-1.5-0.6-3.2-0.3-4.4,0.9c-3.1,2.7-2.8,7.5-6.3,10c-2.1,1.3-4.5,2-7,1.9
							c-1.2,0-2.7-0.2-3.7,0.6s-0.9,1.8-0.4,2.9c1,2.5,2.8,4.7,3.9,7.3c3.1,5.7,9.9,3.3,13.7-0.3s5.8-9.3,6.5-14.6
							C314.8,144.9,315.4,140.4,312.2,138.9z"/>
					</g>
				</g>
			</g>
		</g>
	</g>
</g>
</svg>
