<?xml version="1.0" encoding="utf-8"?>
<!-- Generator: Adobe Illustrator 25.3.1, SVG Export Plug-In . SVG Version: 6.00 Build 0)  -->
<svg version="1.1" id="圖層_1" xmlns="http://www.w3.org/2000/svg" xmlns:xlink="http://www.w3.org/1999/xlink" x="0px" y="0px"
	 viewBox="0 0 439 812" style="enable-background:new 0 0 439 812;" xml:space="preserve">
<style type="text/css">
	.st0{clip-path:url(#SVGID_2_);}
	.st1{fill:#B92B74;}
	.st2{fill:#3D3B83;}
	.st3{fill:#008C83;}
	.st4{fill:#242477;}
	.st5{fill:#C5BA9F;}
	.st6{clip-path:url(#SVGID_4_);}
	.st7{fill:#FF7F62;}
	.st8{fill:#F4AF4C;}
	.st9{fill:#FF5D2A;}
	.st10{fill:#203D69;}
	.st11{fill:#FDBCBC;}
	.st12{fill:#292F38;}
	.st13{fill:#0E1B1E;}
	.st14{fill:#FFFFFF;}
	.st15{fill:#EA9C2F;}
	.st16{fill:#0D120E;}
	.st17{fill:#F3892E;}
	.st18{fill:#3156AA;}
	.st19{fill:#DC911B;}
</style>
<g id="圖層_2_1_">
	<g id="Object">
		<g>
			<defs>
				<rect id="SVGID_1_" x="-0.7" width="439.7" height="812"/>
			</defs>
			<clipPath id="SVGID_2_">
				<use xlink:href="#SVGID_1_"  style="overflow:visible;"/>
			</clipPath>
			<g class="st0">
				<path class="st1" d="M63.9,735.1c-3.9,3.1-7.3,6.9-9.7,11.2C51.4,751.1,49,756,47,761c-2.4,5.5-4.6,11-6.6,16.7
					c-2,5.6-3.8,11.3-5.5,17.1c-0.9,3.2-2,6.5-3.3,9.6c-0.6,1.5-1.4,3-2.1,4.5c-0.8,1.4-1.4,3-1.5,4.6c0,0.8-1.1,1.2-1.8,1.1
					c-0.7,0-1.3-0.7-1.3-1.4c0,0,0,0,0-0.1c0.2-3.1,2.1-5.8,3.3-8.5c1.2-2.7,2.2-5.5,3-8.3c1.8-5.8,3.5-11.7,5.5-17.4
					s4.2-11.6,6.7-17.2c2.1-5.2,4.5-10.2,7.2-15.1c2.8-5.2,6.7-9.8,11.4-13.5c0.7-0.5,1.6-0.4,2.1,0.2c0.4,0.5,0.4,1.3-0.2,1.7
					C63.9,735.1,63.9,735.1,63.9,735.1L63.9,735.1z"/>
				<path class="st2" d="M8.2,670.8c0.3-0.1,0.7-0.1,1,0.2c4,5.2,7.2,10.9,9.5,17c1.2,3.2,2.2,6.4,3.1,9.6c0.8,3.4,1.9,6.7,3.2,9.9
					c0.3,0.8,0.7,1.5,1.1,2.2c0.3,0.5,0.7,1.2,1.4,1.1c1.1-0.1,2-1.1,1.9-2.3c0,0,0,0,0,0c-0.1-0.8-0.4-1.6-0.7-2.4
					c-0.2-0.9-0.5-1.7-0.7-2.6c-0.4-1.7-0.8-3.4-1.2-5.1c-0.7-3.3-1.2-6.6-1.4-9.9c-0.2-3.2-0.1-6.5-0.4-9.8c-0.1-1.8-0.5-3.6-1-5.4
					c-0.5-1.5-1.2-3.1-1.9-4.5c-1.4-2.8-2.8-5.6-2.5-8.8c0-0.4,0.9-0.2,1.1-0.1c4.8,2.6,6.7,7.9,7.9,12.9c0.7,3,1.2,6,2,9
					c0.8,3.3,1.8,6.6,2.8,9.9c0.5,1.6,1.1,3.3,1.7,4.9c0.3,0.8,0.6,1.5,0.9,2.3l0.5,1.1c0.1,0.2,0.2,0.4,0.2,0.6
					c0,0.1,0.1,0.2,0.2,0.3h0.1c0.4-0.5,0.1-1.4,0.1-2c-0.1-0.9-0.1-1.8-0.2-2.7c-0.1-1.7-0.1-3.4-0.1-5.1c0.1-6.8,0.7-13.6,1-20.5
					c0.2-3.8,0.3-7.6,0.1-11.4c-0.1-3.6-1.2-7.9,0.9-11.2c0.2-0.2,1.1-0.2,1.2,0.1c1.3,7.1,2.6,14.2,3.5,21.4
					c0.8,6.7,1.5,13.4,0.7,20.1c-0.1,1-0.2,2.1-0.2,3.1c0,0.9-0.1,2.3,0.5,3c0.3,0.4,0.8,0.4,1.1,0.2c0,0,0,0,0,0
					c0.5-0.3,0.7-0.9,0.6-1.5c-0.2-1.8,0-3.8-0.2-5.6c-0.9-6.1-1.6-12.1-0.4-18.2c1.3-6.7,3.5-13.2,5.2-19.8
					c0.1-0.4,1.1-0.2,1.2,0.1c2.8,6.8,1.1,14.3,0.5,21.4c-0.3,2.7-0.4,5.4-0.3,8.1c0.1,1.3,0.5,2.6,1,3.9c0.5,1.2,0.9,2.3,1.3,3.5
					c0.1,0.2,0.3,0.3,0.5,0.2c0.2-0.1,0.3-0.2,0.3-0.4c-0.1-0.4-0.2-0.7-0.3-1.1c-1.2-2.8-1.8-5.8-2-8.9c-0.3-3.7-0.1-7.5,0.8-11.1
					c0.9-3.5,2.2-6.8,3.8-10c2-4.1,4.4-8,6.6-12c0.2-0.3,1.2-0.2,1.2,0.2c0.2,3-1,5.9-1.8,8.8c-0.4,1.4-0.7,2.8-0.7,4.3
					c0,1.5,0,3.1-0.1,4.7c-0.2,2.2-0.5,4.5-0.9,6.7c-0.4,1.8-0.5,3.6-0.5,5.4c0,0.9,0.2,1.9,0.4,2.8c0.2,1.1,0.6,2,1.2,2.9
					c0.6,0.6,1.7,0.7,2.4,0.2c0.8-0.6,1.3-1.6,1.1-2.6c-0.2-2.9-0.7-5.8-0.7-8.7c0-3.1,0.4-6.3,1.1-9.3c1.5-6.9,4.5-13.4,7.7-19.7
					c0.2-0.3,1.2-0.2,1.2,0.2c0.3,6.5-1.2,13-2.5,19.3c-0.5,2.7-1,5.4-1.5,8c-0.4,1.4-0.5,2.9-0.5,4.3c0.1,0.5,0.2,1.1,0.4,1.6
					c0.2,0.5,0.8,0.7,1.3,0.5c0.3-0.1,0.5-0.3,0.6-0.6c0.9-3.9,2.1-7.7,3.6-11.4c2-4.7,4.5-9.3,6.6-14c0.7-1.6,1.4-3.2,2.1-4.9
					c0.5-1.3,1.3-2.5,2.5-3.3c0.2-0.2,1-0.1,1.1,0.2c0.7,2,0.6,4.2-0.3,6.2c-0.9,2.3-2.1,4.5-3.1,6.8c-2.3,5.2-4.2,10.5-5.7,16
					c-0.3,1-0.6,2-0.8,3.1c-0.1,0.4,0.2,0.8,0.5,0.8c0.3,0.1,0.6,0,0.7-0.3c6.7-9.7,13-19.7,16.1-31.1c1-3.6,1.6-7.5,3.8-10.7
					c0.2-0.3,1-0.2,1.2,0.1c2.4,5.9,0.7,12.3-2,17.7c-1.6,3.2-3.6,6.2-5.4,9.4s-3.6,6.4-5.1,9.7c-0.9,2-1.8,4-2.6,6
					c-0.1,0.3,0.1,0.7,0.4,0.8c0.2,0.1,0.4,0,0.6-0.2c5.7-6.7,10.8-13.9,15.2-21.6c1.5-2.7,3-5.4,4.3-8.1c0.2-0.3,0.8-0.1,1,0
					c1.4,0.7,1.1,2.6,0.9,3.9c-0.2,1.8-0.6,3.7-1.1,5.4c-0.9,3.5-2.3,6.9-4.1,10.1c-1.8,3.3-4,6.4-6.6,9.2c-2.6,2.8-5.7,5.1-8.4,7.9
					c-2.1,2-3.6,4.6-4.4,7.3c-0.2,0.6,0.1,1.2,0.7,1.4c0.4,0.1,0.8,0,1.1-0.2c4.4-3.6,8.9-7.2,13.2-11.1c4.7-4.2,9.2-8.9,11.8-14.7
					c0.9-2.1,1.7-6,4.8-5.2c0.1,0,0.4,0.1,0.4,0.3c-1.2,7.8-2.5,16-7.6,22.3c-4.6,5.7-11.4,9-16.5,14.2c-1.9,2-3.7,4.1-5.1,6.5
					c-0.2,0.3-0.1,0.7,0.2,0.9c0.2,0.1,0.5,0.1,0.7,0l14.7-11c2.9-2,5.6-4.3,8-6.8c1.1-1.3,2.1-2.7,2.8-4.2c0.7-1.5,1.3-2.9,1.8-4.5
					c1.1-3.1,2.3-6.4,5.2-8.4c0.3-0.2,0.8-0.1,1.1,0.1c1.4,1.3,0.8,3.4,0.4,5c-0.5,2.3-1,4.6-1.6,6.9c-1.2,4.6-2.4,9.7-5.4,13.4
					c-2.6,3.2-6.3,5.2-9.9,7.2c-3.9,2.1-7.6,4.6-11,7.5c-1.9,1.7-3.7,3.4-5.4,5.3c-0.8,0.8-1.4,1.6-2,2.6l0,0
					c-0.1,0.3,0,0.7,0.4,0.8c0.2,0.1,0.5,0.1,0.6-0.1c5.6-4.9,11.6-9.5,17.8-13.5c1.7-1.1,3.4-2.2,5.2-3.2s3.4-2,4.9-3.1
					c1.6-1.1,3-2.4,4.1-4c0.9-1.4,1.7-2.9,2.3-4.4c1.4-3.3,2.8-7,6.1-8.9c0.2-0.1,1.2-0.1,1.1,0.3c-2.3,11.6-8.7,21.9-18.1,29.1
					c-3.2,2.5-6.8,4.6-10.2,6.8s-7.2,4.6-10.6,7.2c-0.9,0.7-1.8,1.3-2.6,2c-0.7,0.5-1.2,1.1-1,2c0.1,0.3,0.3,0.6,0.5,0.8
					c0.4,0.3,0.9,0.1,1.4-0.1c0.9-0.3,1.9-0.7,2.8-1c3.8-1.6,7.5-3.5,11-5.7c3.4-2,6.8-4.1,10-6.4c3.2-2.1,6.1-4.9,8.3-8
					c2-2.9,3.4-6.8,7.3-7.5c0.8-0.1,1.5-0.1,2.3,0.1c0.1,0,0.5,0.2,0.4,0.4l-14.2,18.5c-2,2.7-4.2,5.3-6.6,7.7
					c-2.3,2.2-5,3.9-7.9,5.1c-3,1.3-6.2,2.2-9.3,3.3c-1.1,0.4-3.3,0.8-3.1,2.3c0,0.5,0.4,1.2,1,1.2c0.4-0.1,0.9-0.2,1.3-0.3l1.5-0.4
					c3.6-0.9,7.2-2,10.7-3.2c3.2-0.9,6.1-2.4,8.8-4.3c3.1-2.5,4.8-6.2,7.4-9c2.5-2.7,5.5-5,8.8-6.6c0.3-0.1,1.1-0.1,1.1,0.3
					c0.3,3.2-2.8,5.2-4.8,7.2c-2.2,2.4-4.1,4.9-5.8,7.6c-1.7,2.6-3.7,5-5.9,7.2c-2.1,1.9-4.4,3.5-6.9,4.9
					c-11.2,6.1-24.2,12.2-36.6,13.4c-3.7,0.3-6.4,1.7-10.2,1.6c-9.6-0.4-8.3-0.5-10.4-0.8c-0.1,0.4-2.8-1-3.1-1.2s-4-3.2-4.2-3.5
					c-2.2-2.6-2.5-2.1-4.3-5.5c-1.8-3.2-4.3-5.4-6.7-8.2c-2.2-2.5-1.7-3.5-4.5-5.7c-2.3-1.9-4.2-4.2-5.6-6.8
					c-6.1-11.2-3.9-24.5-7.2-36.4c-0.9-3.4-2.4-6.6-4.5-9.5c-1-1.3-2.5-2.6-2.9-4.3C6.3,672.9,6.9,671.5,8.2,670.8z"/>
				<path class="st3" d="M49.9,745.4L49.9,745.4z"/>
				<path class="st3" d="M48.4,753.3L48.4,753.3C48.4,753.3,48.3,753.3,48.4,753.3L48.4,753.3C48.4,753.2,48.5,753.2,48.4,753.3z"/>
				<path class="st1" d="M28.8,717.8c0.2,1.7,0.5,3.3,1,4.9c0.5,1.6,1.4,3,2.5,4.1c1.2,1.2,2.5,2.2,3.9,3.2c1.2,0.9,2.3,1.9,3.3,2.9
					c4.1,4.2,7,9.5,8.2,15.2c0.3,1.5,0.6,3.1,0.7,4.6c0,0,0,0,0.1,0c0,0,0,0,0,0c0.1-0.3,0.2-0.7,0.3-1.1l0,0
					c0.1-2.1,0.2-4.2,0.2-6.2c0.2-3.6,0-7.3-0.7-10.9c-0.9-3.4-2.2-6.7-3.8-9.9c-1.5-3.1-3.2-6.1-5-9c-1.8-2.9-3.6-5.9-4-9.4
					c-0.1-0.6,0.9-0.5,1,0c0.3,3.1,1.9,5.9,3.5,8.5c1.8,2.9,3.5,5.9,5,9c1.6,3.1,2.9,6.3,3.9,9.7c0.8,3.5,1.1,7.1,1,10.7
					c0,1.3,0,2.6-0.1,3.9l0,0c0.1-0.2,0.2-0.5,0.3-0.8l0,0c0.6-1.6,1-2.5,1.7-4.1c0-0.2,0-0.3,0.1-0.5c0-0.1,0.2-0.6,0.2-0.7
					c0.2-0.5,0.2-1,0.5-1.5l0,0c0.6-3.8,1-7.7,1.1-11.6c0.3-4.3,0.2-8.6-0.2-12.9c-0.6-3.9-1.6-7.7-2.8-11.5
					c-1.2-4.1-2.2-8.2-1.9-12.5c0-0.3,1-0.6,1-0.2c-0.6,7.8,3.3,15,4.5,22.6c0.6,4.3,0.7,8.6,0.4,12.9c-0.1,2.1-0.2,4.3-0.3,6.4
					l0.1-0.5c0.7-3.2,1.2-6.5,2.1-9.7s2.5-6.2,3.7-9.3c1.1-3,1.7-6.2,1.9-9.4c0.2-3.7,0.2-7.3-0.1-11c0-0.1,0.8,0.3,0.8,0.6
					c0.3,6.3,0.5,12.9-1.4,19c-1,3.2-2.7,6.1-3.7,9.2c-0.9,3.2-1.7,6.5-2.2,9.8c-0.1,0.6-0.2,1.1-0.3,1.7c0,0,0,0,0.1,0c0,0,0,0,0,0
					c0.7-1.5,1.4-3,2.2-4.5c4.7-8.9,11.1-16.7,15.8-25.5c2.8-4.9,4.7-10.3,5.6-15.8c0-0.2,0.9,0.2,0.9,0.5
					c-1.4,10-6.9,18.7-12.4,26.9c-2.8,4.2-5.7,8.4-8.1,12.8c-1,1.9-2,3.8-2.9,5.7c0,0,0,0,0.1,0c0,0,0,0,0,0c1.6-2,3.4-3.8,5.4-5.4
					c4.3-3.4,9.3-5.8,13.2-9.8c2.2-2.5,4.2-5.1,6-8c0.1-0.1,0.8,0.5,0.7,0.7c-1.6,2.5-3.3,4.9-5.2,7.1c-1.9,2.1-4.1,3.9-6.4,5.4
					c-2.3,1.5-4.6,3-6.8,4.6c-2.2,1.7-4.2,3.6-5.9,5.7c-1.3,1.6-2.4,3.3-3.3,5.1l0,0l-0.4,1.9c0,0,0,0.1,0,0.1c0,0,0.1,0,0.1,0l0,0
					c2-2.2,4.3-4,6.9-5.4c2.5-1.4,5.1-2.4,7.8-3.2c3-0.8,6-1.7,8.9-2.9c3.1-1.4,5.9-3.6,8-6.4c0.2-0.3,1.2,0,0.9,0.3
					c-1.8,2.4-4,4.3-6.6,5.7c-2.7,1.4-5.6,2.4-8.6,3.1c-2.8,0.7-5.5,1.7-8.2,2.9c-2.5,1.2-4.8,2.8-6.8,4.6c-1.4,1.3-2.6,2.7-3.6,4.3
					l0,0c-0.5,1.7-1,3.3-1.5,5c0,0,0,0.1,0,0.1c0,0,0.1,0,0.1,0l0.5-0.5c2.3-2.1,4.8-4,7.5-5.5c5.5-3.1,11.5-5.2,17.7-6.2
					c1.8-0.3,3.6-0.5,5.3-0.8c1.9-0.1,3.9-0.6,5.7-1.2c0.2-0.1,0.9,0.7,0.6,0.8c-3.1,1.3-6.5,1.2-9.8,1.8c-3,0.5-6.1,1.2-9,2.1
					c-6,1.8-11.5,4.8-16.2,8.8c-1.1,1-2.2,2-3.2,3.2l0,0c-0.1,0.3-0.2,0.6-0.3,0.9c0,0,0,0.1,0.1,0.1c0,0,0,0,0,0
					c2.3-1.3,4.8-2.1,7.4-2.5c4.8-0.8,9.8-1.3,14.7-2.1c2.5-0.3,5-1,7.3-2.1c0.2-0.1,0.6,0.4,0.8,0.6c0,0,0,0,0,0.1c0,0,0,0,0,0
					c-1.9,1-4,1.6-6.2,1.9c-2.3,0.4-4.7,0.7-7.1,1c-2.6,0.3-5.1,0.7-7.6,1.1c-2.3,0.3-4.6,0.9-6.8,1.8c-1.1,0.5-2.1,1-3,1.7v0.1
					c-0.4,0.3-0.6,0.7-1,1c0,0-0.1,0-0.1,0.1l0,0h-0.1h-0.1l0,0c-0.3,0.1-0.9,0.3-1.1,0l-0.1-0.1c-0.1-0.1-0.1-0.3-0.2-0.5
					c0,0,0-0.1,0-0.1l0,0c-1.1-2.7-2.5-5.2-4.3-7.5c-1.1-1.5-2.3-2.9-3.5-4.3s-2.4-2.7-3.4-4.1c-1.1-1.5-1.9-3.3-2.1-5.1
					c0-0.5,0.9-0.2,1,0.2c0.3,3.5,3.1,6.2,5.3,8.8c2.4,2.7,4.5,5.6,6.3,8.7c0.4,0.7,0.8,1.5,1.1,2.2c0,0,0,0,0.1,0c0,0,0,0,0,0
					c-0.1-4.7-1.3-9.4-3.4-13.6c-1.3-2.6-3-5.1-5-7.2c-1-1.1-2.2-2.2-3.4-3.1c-1.2-1-2.5-1.9-3.7-3c-1.3-1.2-2.4-2.8-3-4.5
					c-0.6-1.7-0.9-3.5-1.1-5.3C27.8,717.5,28.8,717.5,28.8,717.8z"/>
				<path class="st4" d="M336.1,183.9c-1.2,6.2-2.2,12.5-3,18.7c-0.4,3.1-0.7,6.2-0.9,9.3v0.4c-0.1,0.5,0.2,1.1,0.7,1.2
					s1.1-0.2,1.2-0.7c0-0.2,0-0.3,0-0.5c0.5-7.7,1.4-15.4,2.8-22.9c2.9-17.2,7.8-33.9,14.7-49.9c4-9.1,8.9-17.8,14.7-25.9
					c3-4.1,6.2-8,9.7-11.6c4-4.1,8.4-7.7,12.6-11.5c16.1-14.7,29.9-31.8,41-50.5c3.5-5.9,6.7-12,9.5-18.3c1.4-3,2.6-6,3.7-9.1
					l0.1-0.4c0.3-0.5,0.1-1.1-0.3-1.4c-0.5-0.3-1.1-0.1-1.4,0.3c-0.1,0.1-0.1,0.3-0.1,0.4c-0.7,2.2-1.5,3.9-2.4,6.2
					c-2.5,5.7-5.2,11.3-8.2,16.7c-10.2,18.2-23,34.9-38,49.5c-4.5,4.4-9.2,8.3-13.8,12.5c-3.7,3.4-7.1,7.1-10.3,11.1
					c-6.2,7.8-11.5,16.3-15.9,25.3C344.8,149.1,339.5,166.5,336.1,183.9z"/>
				<path class="st5" d="M411.9,115.3c8.8-19.6-5.1-42.5-5.1-42.5C401.1,80.3,403.2,134.9,411.9,115.3z"/>
				<path class="st5" d="M388.1,92c-5,6.6-3.2,54.6,4.5,37.4S388.1,92,388.1,92z"/>
				<path class="st5" d="M377,139c6.8-15.3-4-33.2-4-33.2C368.6,111.7,370.1,154.3,377,139z"/>
				<path class="st5" d="M366.3,149.3c2.4-12.7-9.6-23-9.6-23C354.3,131.6,363.9,162.1,366.3,149.3z"/>
				<path class="st5" d="M358.5,165.7c2.2-11.9-9-21.4-9-21.4C347.3,149.2,356.3,177.6,358.5,165.7z"/>
				<path class="st5" d="M352,180.8c0.3-10.2-10.6-16.2-10.6-16.2C340.2,169,351.7,191,352,180.8z"/>
				<path class="st5" d="M347,196.9c0.3-9-9.3-14.3-9.3-14.3C336.6,186.5,346.7,205.9,347,196.9z"/>
				<path class="st5" d="M335.5,202c-0.9,3.2,7.4,18.9,7.6,11.6S335.5,202,335.5,202z"/>
				<path class="st5" d="M333.2,207.3c-2.5,3.3-1.7,27.3,2.2,18.7S333.2,207.3,333.2,207.3z"/>
				<path class="st5" d="M411.5,66.1c0,0-21.2-14.4-38.3-3.7S405,72.8,411.5,66.1z"/>
				<path class="st5" d="M394.3,84.6c0,0-20.4-9.6-34.5,1.9S389.2,91.1,394.3,84.6z"/>
				<path class="st5" d="M348.9,106.2c12.6,6.1,30.6-8,30.6-8C375,93.8,336.3,100.1,348.9,106.2z"/>
				<path class="st5" d="M365.4,113.3c-4.2-2.5-33.8,9.1-23,11.4S365.4,113.3,365.4,113.3z"/>
				<path class="st5" d="M354.3,130.4c-4.5-0.6-28.6,19.5-18,17.6S354.3,130.4,354.3,130.4z"/>
				<path class="st5" d="M343.7,154.3c-4-0.2-23.7,18.5-14.6,16.2S343.7,154.3,343.7,154.3z"/>
				<path class="st5" d="M324.4,190.2c8-0.7,14.4-12.3,14.4-12.3C335.4,177.2,316.3,190.9,324.4,190.2z"/>
				<path class="st5" d="M325.7,210.2c6.3-2.8,8.8-13.2,8.8-13.2C331.6,197.5,319.4,213.1,325.7,210.2z"/>
				<path class="st2" d="M116.5,88.1c-0.6-0.2-1.2-0.3-1.8-0.4C114.1,87.8,114.9,88.1,116.5,88.1z"/>
				<path class="st2" d="M282.4-24.1c-5,2-10,4.2-14.9,6.6c-2.3-2.5-8.8-8.9-14-11.4c-6.5-3.1-21.3-9.6-21.3-9.6
					c6.6,22.8,23.6,23.8,31.8,22.9c-5.3,2.8-10.4,5.8-15.4,9.1l-1.1-0.6l-0.1-0.1l0,0c-3-1.7-8.9-4.7-13.3-5.5
					c-6.1-1.1-19.8-3-19.8-3C224.9,0,238.2-1.8,245-4.2c-3.2,2.2-6.4,4.5-9.4,6.9c-1.5,1.2-3,2.4-4.5,3.7H231L231,6.5l-0.2,0.1
					c-2.3-1.3-9.5-5.3-14.6-6.2c-6.1-1.1-19.8-3-19.8-3c11.6,17.2,26.3,13.5,32.3,11c-4.4,4-8.5,8.2-12.7,12.4
					c-1.4-0.8-9.5-5.5-15-6.5c-6.1-1.1-19.8-3-19.8-3c13.1,19.6,30.4,12.1,34.3,10.1c-2.4,2.5-4.9,4.9-7.4,7.3
					c-2.7,2.6-5.5,5.2-8.3,7.7c-1.4-0.8-9.2-5.3-14.6-6.2c-5.9-1-19.2-2.9-19.2-2.9c12.4,18.5,28.6,12.1,32.9,9.9
					c-5.5,4.8-11.1,9.5-16.7,14.1c-2.5-1.4-9.2-5.1-14-5.9c-6-1-19.4-3-19.4-3c10.6,15.8,24,13.6,30.4,11.2
					c-2.3,1.9-4.7,3.8-7.1,5.7c-2.3,1.8-4.6,3.7-6.9,5.6c-2.3-1.3-7-3.8-10.5-4.3c-4.7-0.8-15.3-2.3-15.3-2.3
					c7.6,11.4,17,10.9,22.5,9.4c-2.5,2-5,4-7.6,5.9c-8.4,3.2-16.5,6.9-24.4,11.1c-4.2,2.4-8.9,3.6-13.7,3.6
					c5.4,1.5,21.8,5.8,40.3-14.9c1.5-1.2,2.9-2.4,4.4-3.5c-3.3,4.2-7.4,13,2.9,23.6c0,0,1.3-9.9,1.8-14.4c0.4-3.7-1.3-9.7-1.9-11.4
					l1.8-1.4c0.6-0.3,0.9-0.5,0.9-0.5l-0.2-0.1c4.3-3.3,8.5-6.7,12.7-10.2c-4,5.8-7.5,16.2,4.5,28.7c0,0,1.7-12.6,2.2-18.2
					c0.4-4.5-1.5-11.7-2.3-14.2c4.1-3.4,8.2-6.9,12.3-10.5c-3.8,5.7-7.2,16,4.6,28.2c0,0,1.7-12.5,2.2-18c0.4-4.6-1.6-11.9-2.3-14.3
					c5-4.7,9.6-9.6,14.4-14.4c-4.3,5-11.2,16.9,2.9,31.5c0,0,1.7-12.8,2.3-18.6S217.5,20,217.5,20l0,0c2.3-2.3,4.6-4.5,7.1-6.7
					c1.8-1.6,3.7-3.1,5.5-4.7c-1.8,5.6-3.9,19.9,16.9,27.7c0,0-4.3-12-6.4-17.4c-1.7-4.2-6.6-9.6-8.7-11.8c4.3-3.4,8.8-6.7,13.4-9.7
					c-1.9,6.5-2.2,18.3,15.2,26.4c0,0-3.2-12.4-4.8-17.9c-1.1-3.6-4.3-8.3-6.4-11c5.4-3.3,10.9-6.4,16.6-9.1
					c-3.2,6.4-8.5,23,14.4,35.8c0,0-2.7-15.1-4.1-21.8c-1.1-5.2-5.7-12.3-7.7-15.3l0.8-0.4c4.9-2.3,9.8-4.3,14.8-6.1
					c0.3,5.5,3.5,30.5,40.7,29.2c0,0-13.5-13.2-19.7-19c-5-4.6-15.6-9.1-19.5-10.7c5.4-1.9,10.9-3.5,16.4-4.8
					c4.3,6.9,18.4,23.1,49.5,10c0,0-18.2-7.2-26.5-10.1c-3.8-1.2-7.7-1.9-11.6-2.1c9.4-1.5,18.9-2.2,28.5-1.9c1.3,0,2.6-4.1,3.2-4.1
					c-20.5-0.5-40.8,3-59.9,10.3c-0.6-4.2-2.4-14.4-5.6-20c-4.2-7.2-14.2-22.9-14.2-22.9C254.7-37.8,274.6-27,282.4-24.1z"/>
				<g>
					<defs>
						<path id="SVGID_3_" d="M301.4,584.7c-0.7-1.2-6.7-7.9-15.7-7.4s-21.3-4.8-25.5,1.1s-9.6,4.5-19.1,18.8s-17.9,15.7-26.7,29.7
							s-8.2,21.4-18.9,34.6s-25.9,26.8-26.5,48.1s-9.3,18.2-12.5,33.2s-3.5,11.8-6.9,28.4s-18.2,23.4-15.5,47.4s0.1,36.5,16,57.2
							c0,0,2.9,7.6,24-7.2s33.8-6.8,58.5-46.7s28.5-44.1,33.9-59.4s12.6-29.2,14.5-45.4s14.5-27.1,15.6-54.1c0,0,7.6-22.5,6.3-41.7
							S308.4,596.7,301.4,584.7z"/>
					</defs>
					<clipPath id="SVGID_4_">
						<use xlink:href="#SVGID_3_"  style="overflow:visible;"/>
					</clipPath>
					<g class="st6">
						<path class="st7" d="M301.4,584.7c-0.7-1.2-6.7-7.9-15.7-7.4s-21.3-4.8-25.5,1.1s-9.6,4.5-19.1,18.8s-17.9,15.7-26.7,29.7
							s-8.2,21.4-18.9,34.6s-25.9,26.8-26.5,48.1s-9.3,18.2-12.5,33.2s-3.5,11.8-6.9,28.4s-18.2,23.4-15.5,47.4s0.1,36.5,16,57.2
							c0,0,2.9,7.6,24-7.2s33.8-6.8,58.5-46.7s28.5-44.1,33.9-59.4s12.6-29.2,14.5-45.4s14.5-27.1,15.6-54.1c0,0,7.6-22.5,6.3-41.7
							S308.4,596.7,301.4,584.7z"/>
						<path class="st8" d="M251.2,576c2,4.2,4.7,8,8.1,11.2c1.7,1.7,3.5,3.3,5.4,4.8c1.9,1.7,3.9,3.2,6.1,4.6
							c0.4,0.2-0.6,0.9-0.9,0.7c-2-1.2-3.9-2.7-5.7-4.2c-1.9-1.6-3.8-3.2-5.6-4.9c-3.5-3.3-6.3-7.2-8.4-11.5
							C249.9,576.1,251,575.6,251.2,576z"/>
						<path class="st8" d="M259.5,567.9c0.1,0.2,0.1,0.4,0,0.5c0.2,0.3,0.6,0.9,0.7,1l0.8,1.2c0.5,0.9,1.1,1.7,1.7,2.6
							c1.1,1.6,2.2,3.1,3.4,4.5c2.5,3,5.3,5.7,8.3,8.2c0.2,0.2,0.2,0.6,0,0.8c0,0,0,0,0,0h1.1l4.1-9.9c-1.1,3.3-2.2,6.6-3.3,9.9
							c0.5,0,1.1,0,1.6-0.1c1.1-0.2,2.2-0.9,3.3-1.1c1.3-0.2,2.5-0.7,3.7-1.4c1.2-0.7,2.3-1.5,3.5-2.3c4.5-3.1,9.2-5.7,14.2-7.9
							c0.3-0.1,1.1,0.5,0.9,0.6c-5.2,2.3-10.2,5.1-14.9,8.4c-1.1,0.8-2.3,1.6-3.5,2.3c-1,0.5-2.1,0.9-3.2,1.1
							c-1.1,0.4-2.3,0.8-3.5,1.1c-0.7,0.1-1.5,0.1-2.2,0.1l-0.6,1.9c1.3-0.1,2.5,0,3.8,0.3c1,0.1,2.2,0.5,3.2-0.1
							c0.6-0.3,1.1-0.8,1.7-1.2c0.8-0.5,1.6-0.8,2.5-0.9c1.6-0.2,2.7-1.2,4.2-1.8c1.3-0.6,2.6-1,3.9-1.5c3.1-1.3,6-2.9,8.7-4.9
							c0.3-0.2,1,0,1.1,0c-2.5,1.7-5.1,3.2-7.8,4.5c-1.3,0.6-2.6,1-3.9,1.5s-2.4,1.4-3.6,1.9s-2.4,0.3-3.6,1c-1,0.5-1.9,1.5-2.9,1.8
							c-0.7,0.2-1.4,0.2-2.2,0.1l-2-0.2c-0.6-0.1-2.5-0.6-3.1,0.1c0,0-0.1,0.1-0.2,0.1c-0.1,0.5-0.3,0.9-0.5,1.3
							c2.5,0.1,4.9,0,7.4-0.2c3-0.4,5.9-1.1,8.8-2c2.9-0.8,5.7-2,8.3-3.5c2.2-1.4,4.6-2.5,7.1-3.2c0.8-0.2,0.5,0.8-0.1,1
							c-2.8,0.6-5.3,2.3-7.9,3.8c-2.5,1.3-5.2,2.3-8,3c-2.9,0.9-5.9,1.6-8.9,1.9c-2.4,0.2-4.7,0.2-7.1,0.2c-0.1,0.4-0.3,0.8-0.4,1.2
							c2.1-0.1,4.2,0.3,6.1,0.9c2.8,0.8,6.1-0.1,9.1-0.9c3.1-0.8,6.1-1.9,9-3.3c2.7-1.2,5.4-2.9,8.2-3.5c0.7-0.2,0.3,1.1-0.3,1.2
							c-3,0.6-5.8,2.5-8.7,3.8c-2.7,1.2-5.6,2.2-8.5,3c-2.7,0.7-5.8,1.7-8.4,1.2c-2.3-0.5-4.6-1.3-7-1.2c-0.4,1.2-0.8,2.4-1.2,3.6
							c1.3,0.7,2.7,1.2,4.1,1.5c1.5,0.4,3,0.7,4.6,0.7c1.4-0.1,2.8-0.3,4.2-0.7c1.4-0.3,2.9-0.7,4.3-1.2c2.9-1.1,5.6-3.2,8.4-4.5
							c3-1.4,6.1-2.5,9.1-3.7c0.3-0.1,0.8,0.7,0.8,0.7c-3.4,1.2-6.7,2.5-9.9,4.1c-3.1,1.6-6,3.7-9.2,4.7c-2.9,0.9-6,1.6-8.8,1.2
							c-2.7-0.4-5.3-1.2-7.6-2.4l-1.4,3.9c5.6,1.2,11.3,1.4,16.9,0.7c3.4-0.4,6.7-1.2,9.9-2.2c1.6-0.5,3.3-1,4.9-1.4
							c1.6-0.2,3.1-0.5,4.6-0.9c0.5-0.2,1.1,0.7,0.4,1c-1.5,0.6-3.2,0.5-4.8,0.9s-3.4,0.9-5.1,1.4c-3.2,1-6.5,1.7-9.8,2.1
							c-5.8,0.7-11.6,0.5-17.3-0.8c-0.1,0.4-0.3,0.8-0.4,1.2l0.6,0.2c1.7,0.6,3.4,1.3,5,2.1c1.6,1,3.4,1.6,5.2,1.8
							c0.9,0,1.8-0.2,2.7-0.5c0.8-0.4,1.6-0.8,2.4-1.2c1.5-0.5,3,0,4.5,0c1.9-0.1,3.8-0.3,5.6-0.8c3.6-0.8,7.3-1.3,11-1.3
							c0.6,0,0.8,0.8,0,0.8c-3.6,0-7.2,0.5-10.7,1.3c-1.7,0.4-3.4,0.6-5,0.8c-1.6,0.1-3.3-0.5-4.9,0s-2.9,1.6-4.5,1.7
							c-1.3,0.1-2.6-0.1-3.9-0.6c-1.6-0.6-3.1-1.5-4.7-2.2c-0.8-0.3-1.6-0.6-2.4-0.9c-0.2-0.1-0.6-0.2-1-0.4l-1.4,4.2
							c1,0,2,0.1,3,0.3c1.5,0.3,3,0.8,4.5,1.5c1.6,0.7,3.4,1.2,5.2,1.4c1.7,0.1,3.4,0.1,5.1,0c3.6-0.1,7.1-0.7,10.6-1.8
							c3.2-0.9,6.4-1.3,9.7-1.2c0.3,0,0.6,0.9,0.6,0.9c-3.5-0.1-7,0.4-10.3,1.4c-3.3,1-6.6,1.5-10,1.6c-3.3,0.1-6.4,0-9.4-1.1
							c-1.7-0.7-3.4-1.3-5.1-1.8c-1.3-0.2-2.7-0.4-4.1-0.4c-0.3,0.9-0.6,1.8-1,2.7c3,0.6,6.1,0.7,9,1.3c3.4,0.7,6.5,2.3,9.9,3
							c3.3,0.5,6.7,0.4,10-0.4c1.6-0.3,3.2-0.6,4.8-0.9c1.8-0.2,3.5-0.5,5.3-0.9c0.5-0.2-0.5,0.5-0.7,0.6c-1.5,0.4-3.1,0.6-4.6,0.8
							c-1.7,0.3-3.5,0.7-5.2,1c-3.2,0.7-6.5,0.9-9.7,0.6c-3.6-0.5-6.8-2.3-10.3-3.1c-2.9-0.7-5.8-0.7-8.7-1.2
							c-0.6,1.7-1.2,3.4-1.8,5.1c3.1,0.9,6.2,1.5,9.4,1.8c1.9,0.3,3.8,0.4,5.7,0.5c1.7,0,3.5-0.2,5.2-0.3s3.6-0.2,5.5-0.2
							c1.8,0.1,3.6,0.1,5.3,0c3.3-0.5,6.5-2.1,9.4-0.3c0.5,0.3,0.3,1.2-0.3,0.8c-3-1.9-7.3,0.7-10.7,0.6c-3.6,0-7.2-0.1-10.9,0.2
							c-3.4,0.2-6.8,0.1-10.1-0.5c-3-0.3-5.9-0.9-8.8-1.8c-0.3,0.8-0.5,1.5-0.8,2.3c3,0.4,6,1,8.9,1.7c3.7,0.8,7.3,1.9,11.1,2.2
							c7,0.5,14.7-3.3,21.2-0.2c0.4,0.2,0.7,1.2,0,0.8c-6.6-3.1-14.6,1.1-21.7,0.3c-6.8-0.8-13.1-3.4-20-4c-0.4,1-0.7,2.1-1.1,3.1
							c6.5,2.1,13.2,3.2,20,3.5c3.7,0.1,7.4,0,11.1-0.4c3.6-0.4,7.3-0.9,10.6,0.5c0.6,0.2,0.4,1.3-0.2,1c-3.4-1.4-7.2-0.8-11-0.4
							c-3.8,0.4-7.5,0.5-11.3,0.3c-6.7-0.3-13.2-1.5-19.6-3.5c-0.5,1.4-1,2.8-1.5,4.2c3.3,0.7,6.5,1.1,9.9,1.3c4,0.4,8,1,11.9,1.8
							c4,0.7,7.8,0.2,12-0.7c3.8-0.8,7.7-1.4,11.1-0.1c0.4,0.2-0.4,1.2-0.8,1.1c-3.8-1.5-8-0.4-12.2,0.4c-3.8,0.9-7.7,1-11.5,0.3
							c-3.8-0.8-7.7-1.4-11.6-1.7c-3-0.2-6-0.6-9-1.3l-0.8,2.3c3.5,0.5,6.9,1.2,10.3,1.7c4,0.6,8.1,1,12.1,1.2c2,0.1,4.1,0.1,6.1,0
							c2-0.1,4-0.6,6-0.8c3.6-0.6,7.3-0.1,10.6,1.3c0.5,0.2,0.5,1.3-0.1,1c-3.7-1.7-7.7-1.7-11.9-1c-3.6,0.6-7.3,0.8-11,0.5
							c-3.9-0.2-7.9-0.6-11.7-1.2c-3.6-0.6-7.2-1.3-10.8-1.7l-0.8,2.2c1.1,0.5,2.1,1.2,3.2,1.7c2,0.7,4.1,1.1,6.3,1.4
							c4,0.7,8.1,1.1,12.2,1.3c8.2,0.3,16.7-0.2,24.6,1.7c0.7,0.2,0.1,1.2-0.5,1.1c-7.9-1.9-16.3-1.4-24.6-1.7
							c-4.1-0.2-8.3-0.6-12.3-1.3c-1.9-0.3-3.9-0.7-5.8-1.2c-1.3-0.5-2.5-1.1-3.7-1.8c-0.4,1.1-0.8,2.1-1.1,3.2
							c0.9,0.2,1.8,0.4,2.6,0.7c1.9,0.7,4,1.2,6,1.4c4.1,0.5,8.1,1.3,12.1,2.2c8.6,1.8,17.3,3.1,26,3.9c0.6,0,0.8,1.1,0,1
							c-8.4-0.8-16.7-2-25-3.7c-4.1-0.8-8.1-1.9-12.3-2.3c-1.9-0.2-3.8-0.5-5.6-1.1c-1.4-0.5-2.8-0.9-4.2-1.2
							c-0.5,1.3-0.9,2.6-1.4,3.8c2.9,0.7,5.2,3,8,4.2c4,1.7,8.5,1.9,12.9,2.2c8.7,0.6,17.3,1.9,25.7,4c0.7,0.2,0,1.3-0.6,1.1
							c-8.4-2.1-16.9-3.4-25.5-4c-4.1-0.3-8.2-0.5-12-1.8c-1.8-0.7-3.5-1.6-5.1-2.7c-1.2-0.8-2.4-1.5-3.8-1.9
							c-0.5,1.2-0.9,2.5-1.4,3.7c3.9,0.3,6.7,2.6,9.9,4.5c3.6,2.2,7.7,3.5,11.9,3.8c4.3,0.3,8.7,0.1,12.9,0.6
							c4.3,0.5,8.5,1.5,12.6,3c0,0-0.8,0.8-1,0.7c-4-1.5-8.1-2.5-12.3-3c-4.3-0.6-8.8-0.3-13.2-0.6c-4.1-0.3-8.1-1.6-11.7-3.7
							c-3.1-1.8-5.8-4.1-9.3-4.6c-0.7,2-1.4,4-2.2,5.9c1.3,0.4,2.6,0.8,3.9,1.3c3.4,1.1,6.8,2.2,10.3,3.3c7.1,2.1,14.3,3.8,21.6,5.1
							c4,0.8,8,1.5,12,2.2c0.7,0.1,0.1,0.8-0.4,0.7c-8.7-1.6-17.5-3.1-26-5.3c-4.2-1-8.3-2.3-12.4-3.6c-2-0.7-4.1-1.3-6.1-2
							c-1-0.3-2.1-0.7-3.1-1l-1.9,5.1c3.8,1.3,7.6,2.6,11.3,3.8c2,0.8,4.2,1.3,6.3,1.5c2.1,0.2,4.3,0.1,6.5,0.1
							c8.7,0.2,16.6,3.1,24.5,6c0.7,0.2,0.1,1.3-0.5,1.1c-8-3-16.2-5.9-25.1-6c-2.2,0-4.4,0-6.5-0.2c-2-0.2-3.9-0.7-5.8-1.3
							c-3.8-1.2-7.5-2.5-11.3-3.8c-0.7,1.9-1.4,3.8-2.1,5.7c0.6,0.2,1.1,0.5,1.7,0.7c1.8,0.8,3.6,1.6,5.4,2.3
							c3.4,1.4,6.9,2.2,10.5,2.5c7.1,0.5,14.6-1,21.6,0.2c3.9,0.7,7.6,2,11,3.9c0.2,0.1,0.7,0.9,0.5,0.9c-6.2-3.3-13.2-4.8-20.3-4.3
							c-7.3,0.3-14.3,0.7-21-1.6c-1.8-0.6-3.5-1.3-5.2-2.1l-3.1-1.3c-0.5-0.2-1-0.4-1.5-0.6l-2.1,5.5c3.9,1.1,7.7,2.2,11.6,3.2
							c4.5,1.2,9.1,2.5,13.9,2.5c4.4,0,8.9-0.9,13.2-0.6c4.3,0.4,8.7,1.1,12.9,2c0.5,0.1,0.8,0.8,0.1,0.7c-3.4-0.6-6.8-1.3-10.2-1.7
							c-3.6-0.4-7.3-0.4-10.9,0c-3.5,0.4-7,0.3-10.5-0.3c-3.5-0.6-6.8-1.5-10.2-2.4s-6.8-1.8-10.2-2.8l-1.4,3.6
							c2.7,0.7,5.4,1.1,8.1,1.2c1.8,0,3.5,0.2,5.2,0.7c1.8,0.5,3.5,1.2,5.4,1.8c7.3,2.1,15.1,1.8,22.8,1.9c2.1,0,4.2,0.1,6.3,0.2
							c1.9,0.1,3.8,0.2,5.2,1.4c0.5,0.5-0.2,1.2-0.7,0.8c-1.5-1.3-3.8-1.1-5.7-1.2s-3.8-0.1-5.7-0.2c-3.7,0-7.5,0-11.1-0.2
							c-3.5-0.1-7-0.6-10.5-1.5c-1.8-0.5-3.4-1.1-5.1-1.7c-1.9-0.6-3.8-0.9-5.8-1c-3-0.2-5.9-0.6-8.8-1.3c-0.5,1.3-1,2.6-1.5,3.8
							c6.3,1.1,11.8,5,18,6.5c3.7,0.9,7.5,1.2,11.2,1c3.9-0.2,7.8-1.4,11.6-1.5c2.1,0,4.1,0.2,6.2,0.6c2.1,0.3,4.1,0.9,5.9,1.8
							c0.2,0.1-0.6,1.1-0.9,1c-1.8-0.9-3.7-1.5-5.6-1.8c-1.8-0.4-3.7-0.6-5.6-0.7c-3.7,0-7.6,1.2-11.3,1.5c-3.8,0.3-7.6,0-11.3-0.8
							c-3.6-0.8-7-2.1-10.4-3.7c-2.6-1.3-5.4-2.3-8.3-2.9c-0.4,1.2-0.9,2.4-1.4,3.5c6.6,1,12.7,3.4,18.9,5.5c3.7,1.4,7.5,2.4,11.4,3
							c3.8,0.4,7.7,0.5,11.5,0.2c3.7-0.2,7.4,0.2,11,1.2c0.7,0.2,0,0.3-0.4,0.2c-6.7-2.1-14.4-0.4-21.5-1.3s-13.4-3.6-19.9-5.8
							c-3.7-1.3-7.4-2.3-11.3-2.8l-1.1,2.7c0.4,0.2,0.7,0.3,0.9,0.3c1.9,0.5,3.9,1,5.8,1.5c3.6,1.1,7.2,2.6,10.5,4.4
							c3.5,1.9,7.4,2.9,11.4,3.1c3.6,0.2,7.3,0,11,0.1c3.9,0,7.7,0.8,11.2,2.3c0.3,0.1,0.9,1,0.2,0.7c-6.2-3-13.7-2-20.7-2.3
							c-3.2,0-6.4-0.6-9.4-1.6c-3.5-1.3-6.6-3.5-10.1-4.8c-2.2-0.8-4.4-1.4-6.7-2c-1.5-0.5-3-0.9-4.5-1.2l-2.5,6.4
							c3.5,1.3,7.2,2.2,10.8,3.4c2.1,0.6,4.1,1.4,6.1,2.3c2,0.9,3.8,2.2,5.8,3c2.3,0.8,4.8,1.2,7.2,1.2c2.3,0.1,4.6,0.2,7,0.4
							s4.6,0.5,6.9,0.8c2,0.1,4,0.5,5.8,1.2c0.4,0.2,0.7,0.9,0,0.6c-2.1-1-4.7-1-7-1.3s-4.6-0.5-6.9-0.7c-4.3-0.3-9,0.1-13-1.6
							c-2-0.8-3.8-2-5.8-3c-2.2-1-4.4-1.8-6.7-2.5c-3.5-1.1-7-2-10.4-3.3l-1.7,4.4c6.3,2.3,12,5.8,18.4,8c3.5,1.3,7.2,2,10.9,2
							c3.7-0.2,7.4-0.1,11,0.3c4,0.7,7.9,2,11.6,3.8c0.2,0.1-0.7,0.9-1,0.7c-3.3-1.7-6.9-2.9-10.5-3.5c-3.7-0.6-7.5-0.7-11.2-0.5
							c-7.4,0.2-14.1-2.8-20.5-5.9c-2.9-1.4-5.9-2.8-8.9-4c-0.7,1.9-1.5,3.8-2.2,5.6c3.4,0.6,6.2,2.4,9.1,4.2c2.9,2,6.2,3.4,9.6,4.1
							c3.7,0.5,7.5,0.7,11.3,0.5c3.7,0,7.3,0.3,10.9,0.9c4.1,0.7,8.1,1.9,11.9,3.5c0.3,0.1-0.6,1.1-0.9,0.9
							c-6.9-2.9-14.3-4.4-21.9-4.4c-3.5,0.1-7.1,0-10.6-0.3c-3.6-0.5-7-1.7-10-3.6c-3.1-1.9-6.2-4-9.8-4.8c-1,2.6-2.1,5.2-3.1,7.8
							c2.5-0.1,5.1-0.8,7.5-0.7c3.8,0.1,7.3,1.6,10.8,2.8c3.7,1.3,7.6,1.9,11.5,1.9c3.9,0,7.9,0.3,11.8,0.9
							c4.6,0.8,9.2,1.7,13.8,2.6c0.7,0.1,0.4,1.3-0.3,1.2c-8-1.5-16-3.4-24.4-3.5c-3.8,0.1-7.5-0.4-11.1-1.4
							c-3.8-1.2-7.4-2.9-11.4-3.3c-2.9-0.2-5.9,0.5-8.8,0.7c-0.5,1.1-0.9,2.3-1.4,3.4c3.5,0.9,7.3,0.7,11,0.6
							c3.5-0.1,7.1,0.2,10.6,1c3.7,0.8,7.2,2,10.9,3c3.8,1,7.7,1.6,11.6,1.8c4.2,0.2,8.5,0.4,12.3,2.2c-0.1,0-0.8,0.4-1.1,0.2
							c-3.5-1.7-7.4-1.9-11.3-2.1c-3.7-0.1-7.3-0.6-10.9-1.5c-3.7-0.9-7.2-2.1-10.9-3c-3.9-1-7.9-1.5-11.9-1.4
							c-3.5,0.1-7,0.3-10.4-0.4c-0.2,0.6-0.5,1.3-0.8,1.9c0.2,0,0.3,0,0.5,0.1c1,0.2,2,0.6,3.1,0.8c1.9,0.4,3.8,0.8,5.8,1
							c3.8,0.5,7.7,0.8,11.5,1.3c3.7,0.6,7.4,1.5,11,2.7c2,0.5,4,0.8,6.1,0.8c1.9,0.1,3.8,0.3,5.6,0.6c4.1,0.8,8.1,2.2,11.8,4.2
							c0.6,0.3-0.4,0.7-0.7,0.5c-3.3-1.8-6.9-3.2-10.7-3.9c-1.9-0.4-3.8-0.6-5.7-0.7c-1.7,0-3.3-0.1-5-0.3c-1.8-0.4-3.4-1.1-5.1-1.6
							c-1.7-0.5-3.5-0.9-5.3-1.2c-3.7-0.6-7.5-0.9-11.2-1.3c-2-0.2-3.9-0.5-5.9-0.8c-1-0.2-1.9-0.4-2.9-0.6
							c-0.5-0.1-1.1-0.3-1.6-0.4c-0.2,0-0.4-0.1-0.6-0.2l-0.3-0.1l0,0l-0.1,0.1c-0.2,0.2-0.5,0.2-0.8,0.1l-1.7,4.1
							c2.9,0.6,5.9,1.3,8.8,1.8c2,0.4,4,0.6,6.1,0.7c1.8,0,3.6,0.2,5.4,0.4c3.6,0.7,6.8,2.4,10.3,3.5c3.7,1.2,7.7,1.5,11.5,2.2
							c4.1,0.8,8,2.1,11.7,3.9c0.4,0.2,0.7,0.8,0,0.5c-3.5-1.7-7.2-2.9-11-3.7c-3.6-0.7-7.3-1-10.9-2s-6.8-2.8-10.4-3.6
							s-7.6-0.5-11.3-1.1s-7.1-1.4-10.6-2.2l-1,2.5c2.7,0.3,5.2,1.5,7.8,2.1c1.7,0.2,3.5,0.4,5.2,0.4c1.7,0.2,3.4,0.6,5.1,1.1
							c7.1,2.1,14.2,4.4,21.3,6.5c4.1,1.3,8.2,2.5,12.3,3.9c0.3,0.1,0.8,1,0.2,0.8c-8.8-3.1-17.8-5.6-26.7-8.3
							c-4.5-1.4-9-3.1-13.8-3.2c-1.9-0.1-3.8-0.4-5.6-1.1c-1.9-0.8-3.9-1.3-6-1.4c-0.4,0.9-0.8,1.8-1.1,2.7c2.8-0.4,5.2,0.6,7.9,1.1
							c1.7,0.3,3.5,0.2,5.2,0.7c1.6,0.5,3.1,1.2,4.5,2c3.3,2,6.5,4.2,10.1,5.5c3.5,1.3,7.2,1.8,10.8,2.6c4.3,1,8.4,2.2,12.5,3.8
							c0.4,0.1-0.7,0.7-0.9,0.7c-3.4-1.3-6.9-2.3-10.4-3.2c-3.5-0.9-7.1-1.4-10.5-2.4c-3.4-1-6.6-2.5-9.6-4.4
							c-3.1-1.9-6.1-4-9.9-4.3c-1.7-0.1-3.4-0.4-5-0.8c-1.6-0.5-3.3-0.7-5-0.7l-2.1,5.1c3.9,2.1,8,3.8,12.3,5
							c2.1,0.5,4.2,0.5,6.3,0.9c2.1,0.5,4.3,1.1,6.3,1.9c4.3,1.2,8.9,1.5,13.3,2.3c4.6,0.8,9,2.3,13,4.7c0.4,0.3-0.4,1.3-0.8,1.1
							c-4-2.3-8.4-3.9-13-4.7c-4.4-0.8-9-1.1-13.3-2.3c-2.2-0.8-4.4-1.4-6.6-1.9c-2-0.3-4-0.4-6-0.9c-4.2-1.1-8.2-2.8-12-4.8
							l-3.1,7.4c3.3,0.4,6.6,1.1,9.8,2c3.4,1,6.8,2.2,10.4,2.5c3.6,0.2,7.3,0.6,10.9,1.2c3.5,0.7,7,1.7,10.5,2.6l6,1.5
							c1.8,0.4,3.5,1,5,2c0.5,0.3-0.5,1.2-0.9,0.9c-1.9-1.3-4.1-1.7-6.3-2.3l-6.8-1.8c-4.3-1.3-8.8-2.2-13.3-2.8
							c-2.2-0.2-4.4-0.2-6.6-0.4c-2.3-0.3-4.5-0.8-6.7-1.5c-4.1-1.3-8.2-2.3-12.4-2.9c-0.5,1.3-1.1,2.5-1.6,3.8l8.8,1.6
							c3.8,0.7,7.7,1.2,11.4,2.1s6.9,2.7,10.5,3.6c3.6,0.7,7.2,1.3,10.9,1.6c4,0.4,7.8,1.4,11.5,3c0.2,0.1-0.8,0.7-1.1,0.6
							c-6.5-3.2-14.1-2.8-21.2-4.3c-3.6-0.8-6.8-2.4-10.2-3.5c-3.7-1-7.5-1.7-11.4-2.2l-9.6-1.7c-0.3,0.6-0.5,1.2-0.8,1.8
							c7,2.4,14.2,4.4,21.4,6c7.2,1.6,14.7,1.6,21.8,3.3c2,0.5,4,1.1,6,1.8c1.4,0.5,2.7,1.4,3.6,2.6c0.4,0.5-0.7,0.4-0.9,0.1
							c-1.4-2-4.2-2.5-6.4-3.2c-2.2-0.6-4.4-1.1-6.7-1.5c-4.4-0.8-8.9-1-13.4-1.7c-8.8-1.4-17.4-4-25.8-6.8c-0.8,2-1.6,3.9-2.5,5.8
							c3.8,1.1,7.8,1.1,11.8,1.5c4.6,0.6,9.2,1.7,13.7,3.1c4.7,1.2,9.4,2.2,14.1,2.9c4.8,0.6,9.5,1.7,14,3.3c0.3,0.1-0.6,1-0.9,0.9
							c-4.5-1.6-9.2-2.7-14-3.2c-4.8-0.7-9.5-1.7-14.1-2.9c-4.7-1.5-9.5-2.5-14.4-3.1c-3.5-0.3-7.2-0.4-10.5-1.3l-1.3,3
							c4.1-0.1,7.9,0.9,11.8,1.8c4.6,1.1,9.1,2.3,13.6,3.7s8.7,2.9,13.2,3.7s9.2,0.8,13.4,2.7c0,0-0.7,1.1-0.9,1
							c-4.1-1.9-8.7-2-13.1-2.6s-8.7-2.2-13-3.5s-8.7-2.5-13.1-3.6c-3.9-0.9-7.9-2-12.1-2c-0.9,2-1.8,4-2.6,6c4-0.2,8-0.1,12,0.3
							c4.5,0.5,8.8,1.9,13.1,3c8.9,2.4,17.9,4.6,26.9,6.7c0.6,0.2-0.1,1.2-0.6,1.1c-8.9-2.1-17.8-4.3-26.6-6.6
							c-4.2-1.3-8.5-2.3-12.9-3c-4.2-0.4-8.4-0.6-12.6-0.4c-0.7,1.7-1.4,3.3-2.1,4.9c4,0.1,8,0.2,12,0.4c4.2,0.3,8.2,1.2,12.1,2.7
							c8.4,2.8,17.1,4.6,26,5.4c0.6,0,0.8,1.2,0,1.1c-8.7-0.7-17.2-2.4-25.4-5.2c-4.1-1.4-8.2-2.7-12.7-2.9
							c-4.2-0.2-8.4-0.3-12.5-0.4c-0.6,1.5-1.3,2.9-1.9,4.4c4,0.7,8.1,0.3,12.2,0.7c4.3,0.5,8.5,1.4,12.7,2.5
							c4.1,1,8.1,2.2,12.1,3.4c4.1,1.3,8.4,2.5,13,1.8c0.7-0.1,0.7,0.5,0,0.6c-4.2,0.6-8.1-0.2-11.9-1.3c-4.3-1.3-8.6-2.6-12.9-3.7
							c-4.3-1.2-8.7-2.1-13.1-2.7c-4.1-0.4-8.3-0.1-12.3-0.7c-0.7,1.7-1.5,3.3-2.2,4.9c3.8,1.5,8.5,0,12.6,0.4s7.9,2.2,12,2.7
							c2,0.2,3.9,0.4,5.9,0.8c1.9,0.4,3.7,1,5.5,1.6c4.3,1.4,8.7,2.5,13.2,3.2c0.2,0,1.1,0.5,0.7,0.4c-3.6-0.5-7.1-1.3-10.5-2.3
							c-3.6-1.1-7-2.4-10.8-2.9c-3.2-0.3-6.4-0.9-9.5-1.7c-1.9-0.6-3.9-1.1-5.9-1.3c-1.8-0.1-3.5,0-5.3,0.2c-2.7,0.3-5.4,0-8-0.8
							l-2.4,5.3c8.7-1,17.2,0.5,25.5,1.5c2.2,0.2,4.3,0.7,6.4,1.3c1.9,0.6,3.7,1.5,5.5,2.2c2,0.9,4.2,1.4,6.4,1.7
							c2.2,0.1,4.5,0.4,6.6,0.9c0.5,0.1-0.5,1-0.8,0.9c-3.9-1.1-8.2-0.7-12-2.2c-2-0.7-3.9-1.7-5.8-2.4c-2.2-0.7-4.4-1.2-6.7-1.5
							c-4.3-0.6-8.6-1-12.9-1.5c-4.2-0.5-8.5-0.5-12.7-0.1c-0.6,1.3-1.2,2.7-1.8,3.9c3.6-0.2,7.3-0.1,10.9,0.2
							c4.4,0.2,8.9,0.6,13.3,1.3c8.8,1.5,16.9,5.2,25.9,5.9c0.3,0,0.6,0.1,0.6,0.4c0,0.3-0.1,0.6-0.4,0.6c-0.1,0-0.2,0-0.3,0
							c-8.9-0.7-16.8-4.3-25.4-5.8c-4.4-0.7-8.8-1.1-13.3-1.4c-3.9-0.3-7.8-0.4-11.7-0.2c-0.7,1.6-1.4,3.2-2.1,4.7
							c6.4-1.5,12.2,0.5,18.3,0.5c3.4,0,7-0.5,10.4,0c3.6,0.5,6.5,2.7,9.8,4.1c4,1.7,8.3,2.5,12.6,2.5c0.7,0-0.3,0.4-0.6,0.4
							c-4.3,0-8.5-0.8-12.4-2.3c-2.1-0.8-4-2-6-3c-2.1-1-4.3-1.5-6.6-1.5c-4.3-0.1-8.6,0.4-12.9-0.2s-8.4-1.4-12.8-0.2
							c-1.4,3.1-2.8,6.1-4.2,9c9,0.3,17.9,0.7,26.5,2.6c4.2,0.9,8.2,2.1,12.2,3.4c4.1,1.4,8.4,2.2,12.8,2.4c0.5,0,0.8,1.1,0,1.1
							c-4.2-0.1-8.3-0.8-12.2-2.2c-4.2-1.3-8.4-2.6-12.8-3.6c-8.7-1.9-17.6-2.3-26.6-2.6c-0.1,0-0.3-0.1-0.3-0.2l-1.5,3.2
							c4.3,1.2,8.7,2.6,13.1,3.5s8.9,0.5,13.4,0.6c4.3,0.2,8.5,1,12.5,2.3c2.1,0.7,4.1,1.4,6.1,2.2c2,0.7,4,1.5,5.8,2.5
							c0.6,0.3,0.2,1.1-0.4,0.8c-2-1.1-4.1-2-6.3-2.7c-2-0.8-3.9-1.5-5.9-2.1c-4.2-1.3-8.6-2-13-2.1c-4.3-0.1-8.6,0.1-12.7-0.7
							c-4.4-0.9-8.7-2.3-13-3.5l0,0l-1.7,3.6c4,1.2,8.2,1.2,12.3,2.1s7.9,3.1,11.9,4.4c4.2,1.4,8.9,1.5,13.3,2.5
							c4.2,0.9,8,2.8,12.4,3c0,0-0.7,0.8-1,0.8c-4.5-0.2-8.4-2.2-12.8-3c-4.1-0.8-8.5-1-12.5-2.3c-4.3-1.4-8.2-3.7-12.6-4.6
							c-3.8-0.8-7.7-0.9-11.4-1.9c-0.9,1.9-1.8,3.8-2.7,5.6c1.4,0.3,3,0.4,4.5,0.5c2.1,0.3,4.1,0.7,6.1,1.3c4,1.2,8,2.6,12,3.8
							s8.2,2.3,12.4,3.4c2,0.6,4.1,0.9,6.2,1c1.5,0,2.9-0.3,3.9,1c0.4,0.5,0.3,0.7-0.1,0.2c-0.6-0.7-2.1-0.3-2.9-0.2
							c-1,0-2-0.1-2.9-0.2c-2-0.3-4-0.9-6-1.4c-3.9-1-7.8-2.1-11.7-3.3c-3.8-1.2-7.5-2.5-11.3-3.6c-1.9-0.5-3.8-0.9-5.8-1.1
							c-1.5-0.1-3.1-0.3-4.6-0.7l-2.7,5.5c1.5,0.2,3,0.2,4.5,0c1.7-0.2,3.4,0,5.1,0.5c3.7,1.2,6.9,3.5,10.5,4.9
							c7.5,3,15,5.8,23.2,6.7c0.3,0,0.7,0.8,0.7,0.8c-8.2-0.8-15.8-3.7-23.3-6.7c-1.7-0.7-3.4-1.5-5.1-2.3c-1.9-1.1-3.8-2-5.8-2.7
							c-3.2-1-6.9,0.3-10.1-0.7c-0.6,1.2-1.1,2.4-1.7,3.5c3,0.4,6,1.2,8.9,2.2c3.3,1.2,6.5,2.6,9.7,4c3.3,1.5,6.6,3.4,10,4.7
							s7,0.9,10.8,0.5c0.6-0.1,0.8,1,0.1,1.1c-3.6,0.4-7,0.9-10.3-0.2s-6.6-3-9.8-4.5c-3.4-1.6-6.9-3-10.4-4.3
							c-3.1-1.1-6.3-1.8-9.5-2.3c-1.1,2.3-2.2,4.4-3.2,6.4c1-0.5,2.1-0.6,3.2-0.4c1.5,0.4,2.9,1,4.2,1.8c3.4,1.6,7,2.5,10.7,2.7
							c6.6,0.3,14.1,0.5,19.2,5c0.4,0.4-0.6,0.5-0.9,0.3c-4.9-4.3-12.3-4.3-18.7-4.6c-2.9-0.1-5.7-0.7-8.4-1.7
							c-1.3-0.5-2.5-1.1-3.8-1.7c-0.7-0.4-1.4-0.7-2.2-0.9c-1.1-0.2-2.2,0-3.2,0.5c-0.2,0-0.4,0-0.6-0.1l-2,4c0,0,0,0,0,0.1
							l-0.4,0.7c2.6,0,5.3,0.4,7.8,1c3.1,0.7,6.2,1.2,9.3,1.6c1.5,0.2,3,0.4,4.6,0.5c1.6,0.1,3.3,0,4.9-0.1c2.7-0.2,5.3,0.7,7.4,2.3
							c0.3,0.2,0.5,1.3-0.1,0.9c-2.6-2-5.4-2.2-8.7-2c-2.7,0-5.5-0.2-8.2-0.6c-2.9-0.4-5.7-0.8-8.5-1.5s-5.6-1.5-8.6-1.3
							c-0.1,0-0.3-0.1-0.3-0.2l-1.8,3.6c1.6,1.7,3.9,2.5,6,3c2.7,0.7,5.3,1.3,8.1,1.7c2.5,0.4,5.1,0.6,7.6,0.8
							c2.5,0.1,4.9,0.7,7.1,1.8c0.2,0.1,0.6,1.2,0.3,1c-2.5-1.4-5.4-1.7-8.4-1.9c-2.9-0.2-5.7-0.6-8.6-1.1
							c-4.2-0.8-9.4-1.4-12.3-4.8c-1.1,2.2-2.2,4.2-3,5.9h0.4c0.6,0,1.2,0.1,1.8,0.3c0.9,0.3,1.8,0.4,2.7,0.5c0.8,0,1.6,0,2.4,0
							c3.4-0.1,6.8,0.1,10.2,0.3c0.4,0-0.3,0.7-0.5,0.7c-3.5-0.2-7-0.5-10.5-0.3c-1.5,0.1-3.1,0-4.6-0.4c-0.7-0.2-1.4-0.3-2.2-0.3
							c-0.7,1.3-1.4,2.7-2.2,4h0.1l-1.2,2.3l-0.2-0.1c-3.6,5.9-7.5,11.6-11,17.5c-10.8,18.1-26.1,33-41.2,47.8
							c-5.3,5.1-10.6,10.3-16.7,14.3c-1.8,1.3-3.8,2.3-6,2.8c-1.2,0.3-2.5-0.4-2.8-1.6c-0.1-0.3-0.1-0.6,0-0.9
							c0.3-1,0.9-1.9,1.6-2.6c9.1-10.5,19-20.3,28.8-30.2c10-10.1,19.4-20.8,28.1-32.1c4.7-6.1,14.1-17.2,14.1-17.2
							c0.4-0.5,0.8-1.1,1.2-1.7c-0.1,0-0.1-0.1-0.2-0.1l0.2,0.1c0.9-1.4,2-3.3,3.3-5.8c-0.6-0.2-1.2-0.4-1.8-0.7
							c-1.4-0.6-2.7-1.4-4-2.2c-1.4-0.8-2.6-2-4-2.7c-0.9-0.5-1.9-0.3-2.9-0.5c-0.6-0.1-1.1-0.3-1.7-0.6c-0.4-0.2-0.7-0.9,0-0.6
							c1.4,0.7,3.1,0.3,4.5,1.1c1.6,0.9,3.1,2.2,4.7,3.1c1.7,1,3.5,1.9,5.4,2.6h0.1c0.5-0.9,1-1.9,1.5-2.9c-2.7-0.7-5.4-1.5-8-2.6
							c-1.8-0.9-3.5-1.9-5.2-3c-1.9-1.2-3.7-2.7-5.9-3.3c-0.3-0.1,0.6-1,0.9-1c1.8,0.7,3.5,1.6,5,2.8c1.9,1.3,4,2.6,6.1,3.6
							c2.5,1,5,1.9,7.6,2.5c0.5-1,1-2,1.5-3c-2.8-1.9-6.6-2.3-9.8-3.5c-2.3-0.9-4.2-2.5-6.4-3.7s-4.5-1.9-6.5-3.4
							c-0.3-0.2,0.7-1.1,1-0.9c2,1.5,4.4,2.1,6.5,3.4s4.3,3,6.8,3.9c2.9,1.1,6.3,1.5,8.9,3.1l1.5-3c-1.4-0.5-2.8-0.9-4.2-1.2
							c-1.4-0.4-2.6-1-4-1.4c-1.1-0.2-2.1-0.6-3.1-1.1c-1.2-0.7-2.2-1.5-3.4-2.2s-2.5-1.3-3.8-2c-2.3-1.3-4.6-2.8-6.7-4.5
							c-0.2-0.1,0.8-0.1,1,0.1l0.3,0.2l0,0c2.1,1.7,4.4,3.2,6.7,4.4c1.2,0.7,2.5,1.3,3.7,2c1.2,0.9,2.4,1.7,3.8,2.4
							c1.2,0.5,2.6,0.6,3.8,1.1c0.8,0.4,1.6,0.6,2.4,0.9c0.6,0.1,1.3,0.2,1.9,0.3c0.6,0.1,1.2,0.3,1.7,0.6c0.5-1,1-2.2,1.6-3.3
							c-1.8-0.6-3.6-1.1-5.3-1.8c-2.9-1.1-5.6-2.5-8.3-4c-2.8-1.6-5.5-3.3-8.2-5c-1.3-0.8-2.7-1.7-4-2.6c-0.7-0.5-1.7-0.9-1.9-1.9
							c0-0.1,0-0.2,0-0.3l0.1-0.1c0.1-0.1,0.3,0.1,0.4,0.2l0,0c0.1,0.1,0.2,0.2,0.2,0.4c0,0,0.1,0,0.2,0.1l0.5,0.4l1.1,0.8l1.8,1.2
							c1.3,0.8,2.5,1.6,3.8,2.4c2.5,1.6,5.1,3.2,7.7,4.5c2.7,1.4,5.4,2.6,8.3,3.6c1.3,0.4,2.6,0.8,3.8,1.3l1.4-3
							c-1.6-0.8-3.3-1.5-5-2.1c-3.1-1.1-6.2-2.1-9.3-3.3c-3-1.1-5.8-2.5-8.4-4.3c-2.7-2-5.1-4.3-7.3-6.8c-0.4-0.4,0.6-1.3,0.9-0.9
							c2.2,2.5,4.6,4.8,7.3,6.8c2.8,1.9,5.8,3.4,9,4.5c3.1,1.2,6.2,2.1,9.3,3.3c1.4,0.5,2.7,1.1,4,1.7c0.6-1.4,1.3-2.8,2-4.2
							c-1.9-0.6-3.9-1.4-5.7-2.2c-3.4-1.8-6.3-4.3-9.8-5.8c-6.1-2.6-13.1-4.2-17.1-10.5c-0.4-0.6,0.5-0.3,0.7,0
							c4.3,6.9,12.7,7.6,19.1,11.1c3.2,1.8,6,4.2,9.4,5.5c1.2,0.5,2.5,0.9,3.7,1.4l2.2-4.8c-2.3-0.9-4.6-1.7-6.9-2.7
							c-3.6-1.5-6.8-4-10.3-5.7c-6.3-3.1-13.4-4.8-17.9-11c-0.4-0.5-0.3-0.7,0.1-0.1c4.6,6.3,12.7,7.6,19,11.1
							c3.1,1.7,5.9,3.8,9.2,5c2.4,0.9,4.7,1.7,7,2.7c0.9-2,1.9-4.1,2.8-6.2c-0.8-0.2-1.7-0.4-2.4-0.6c-1.7-0.5-3.5-0.8-5.2-1.3
							c-3.6-1-7-2.4-10.2-4.3c-6.7-3.8-13.5-7.3-19.7-11.9c-0.4-0.3-0.4-1.3,0.2-0.8c6.3,4.6,13.3,8.3,20.1,12.1
							c3.4,1.9,7,3.4,10.8,4.3c1.9,0.5,3.7,0.9,5.6,1.4l1.2,0.3c0.9-2.1,1.9-4.3,2.9-6.5c-0.9-0.3-1.8-0.4-2.8-0.4
							c-2,0.1-3.9-0.1-5.9-0.4c-3.9-0.7-7.7-1.9-11.4-3.4c-7.5-3-15.2-6-21.6-11.3c-0.4-0.3,0-0.5,0.3-0.4l0.6,0.2
							c0.2,0.1,0.4,0.3,0.4,0.5c6.3,5,13.9,7.9,21.3,10.8c3.7,1.5,7.6,2.6,11.6,3.1c1.9,0.2,3.8,0,5.7,0.1c0.6,0.1,1.3,0.3,1.8,0.6
							l1.6-3.6c-3-1.5-6.5-2-9.9-2.5c-3.9-0.5-7.6-1.6-11.2-3.1c-7.4-3.2-14.4-7.1-21.4-11h-0.1l-0.8-0.5c-0.1-0.1,0.8-0.1,1,0
							c7.6,4.2,15.3,8.6,23.3,11.9c4.1,1.7,8.5,2.2,12.9,3c2.2,0.3,4.3,0.9,6.4,1.8c0.5-1,0.9-2.1,1.4-3.1c-2.6-1.4-5.3-2.7-8-3.8
							c-3.9-1.6-8.1-2.2-12.1-3.4s-7.7-3.6-11.4-5.5s-7.7-3.7-11.7-5.3c-0.3-0.1,0.6-1.1,0.9-1c4,1.6,7.9,3.3,11.7,5.3
							s7.3,4.3,11.4,5.5s8.2,1.8,12.1,3.4c2.6,1.1,5.2,2.3,7.7,3.7l1.1-2.5c-2.9-1.3-5.6-3-8.3-4.6c-3.7-2.1-7.7-3.6-11.8-4.8
							c-8.1-2.3-16-5.4-23.5-9.2c-0.4-0.2-0.5-0.9,0.2-0.7l0.6,0.2c0.2,0,0.3,0.2,0.4,0.3c7.4,3.7,15.2,6.7,23.2,9
							c3.7,1,7.4,2.5,10.8,4.3c2.9,1.7,5.8,3.5,8.8,4.9c0.6-1.3,1.2-2.7,1.8-4.1c-1.2-0.4-2.5-0.8-3.6-1.3c-1.9-0.8-3.7-2-5.6-2.8
							s-4.2-1.3-6.3-2c-2.1-0.7-4.2-1.6-6.3-2.5c-4.1-1.9-7.9-4.1-12-6c-2-0.9-4.1-1.4-6.1-2.3c-1.8-0.8-2.7-2.8-4.5-3.7
							c-0.6-0.3,0.2-1.3,0.7-1c1.8,0.9,2.6,2.9,4.5,3.7s3.9,1.3,5.9,2.2c4,1.8,7.8,4,11.8,5.8c2,1,4.1,1.8,6.2,2.5
							c2,0.7,4,1.2,6,1.9c1.9,0.8,3.8,1.7,5.6,2.7c1.4,0.6,2.8,1.2,4.2,1.6l2.1-4.9c-2.4-1-4.7-2.1-7.1-3c-3.4-1.5-6.8-2.7-10.3-3.8
							c-3.3-1-6.5-2.4-9.5-4.2c-3.3-1.8-6.8-3.4-10.3-4.8c-1.9-0.8-3.8-1.6-5.7-2.5c-0.9-0.5-2.8-0.9-3-2.2c0-0.1,0-0.1,0-0.2
							c0.1-0.1,0.3-0.1,0.4,0c0.3,0.1,0.5,0.4,0.6,0.7c0.9,0.5,1.9,1,2.9,1.4c1,0.5,2.1,0.9,3.1,1.4c2,0.8,4,1.6,5.9,2.5
							c3.9,1.7,7.4,4.1,11.3,5.7s8.4,2.5,12.4,4.1c3.2,1.3,6.4,2.7,9.6,4.1c0.5-1.3,1.1-2.5,1.6-3.8c-2.2-1.2-4.3-2.4-6.4-3.7
							c-3.4-2.1-6.6-4.4-10.8-4.5c-1.6,0-3.2-0.1-4.7-0.2c-1.6-0.3-3-1-4.4-1.9c-3.2-1.9-6.6-3.4-10.1-4.4
							c-3.6-1.1-7.3-2.4-10.3-4.8c-0.4-0.3-0.5-1.1,0.1-0.7c5.5,4.3,12.9,4.6,18.8,8.1c1.6,1.1,3.3,2,5.2,2.6
							c1.8,0.3,3.7,0.4,5.5,0.3c3.4,0.2,6.1,1.7,8.9,3.5s5.6,3.4,8.6,5l2-4.7c-3-2-6.8-2.6-10.1-3.9c-4.2-1.6-8.2-3.7-12.3-5.7
							c-4-2.1-8.1-3.9-12.4-5.5c-4.2-1.5-8.5-2.7-12.4-5c-0.6-0.4,0.3-1,0.8-0.7c3.3,1.8,6.7,3.2,10.3,4.2c3.4,1.1,6.6,2.4,9.8,3.9
							c6.4,3,12.6,6.6,19.4,8.8c2.5,0.7,4.9,1.6,7.1,2.8l1.9-4.3c-2.4-1.1-4.8-2.4-7.1-3.7c-3-1.7-6.2-3.1-9.5-4.2
							c-3.4-1.2-6.7-2.7-9.8-4.4c-3.2-1.7-6.4-3.1-9.8-4.4c-3.8-1.5-7.7-2.8-11.5-4.1c-0.4-0.1,0.6-0.8,0.9-0.7
							c6.8,2.1,13.5,4.8,20,7.9c3.1,1.8,6.4,3.3,9.8,4.7c3.3,1.1,6.5,2.4,9.6,4c2.6,1.4,5.2,2.9,7.8,4.2l1.7-3.9
							c-6-2-10.8-6.3-16.6-8.9c-3.4-1.5-7-2.4-10.4-3.8s-6.6-3-10.1-4.2c-2.1-0.8-4.2-1.3-6.4-1.7c-1.8-0.2-3.9,0-5.3-1.2
							c-0.4-0.4,0.5-1.3,0.8-1c1.4,1.2,3.4,0.9,5.1,1.2c1.8,0.3,3.6,0.7,5.3,1.3c3.4,1.1,6.6,2.7,9.8,4s6.7,2.4,10,3.6
							c3.3,1.3,6.5,3,9.5,5c2.7,1.8,5.6,3.3,8.7,4.5l2.1-4.8c-2.7-1-5.3-2.3-7.8-3.6c-3.2-1.7-6.6-3-10.1-3.8
							c-1.7-0.3-3.4-0.8-5-1.3c-1.7-0.7-3.3-1.5-4.8-2.5c-3.1-1.9-6.3-3.5-9.6-4.9c-3.9-1.6-7.9-2.8-11.9-4.1c0.1,0,0.8-0.4,1.1-0.3
							c7,2.2,13.9,4.5,20.2,8.2c3,1.9,6.2,3.4,9.6,4.2c3.5,0.7,6.8,1.8,10,3.3c2.8,1.4,5.5,2.9,8.4,4.1l1.7-4.1
							c-6.4-1.8-12.6-4.2-18.6-7.2c-3.4-1.7-6.7-3.6-10.1-5.3c-3.4-1.7-6.9-3.1-10.4-4.2c-3.8-1.2-7.5-2.4-10.6-4.9
							c-0.3-0.2,0.7-0.9,1-0.8l0.6,0.3c0.1,0,0.1,0.1,0,0.2c2.8,1.9,5.9,3.3,9.1,4.2c3.4,1,6.7,2.2,9.8,3.7c6.6,3.2,12.9,7,19.8,9.7
							c3.2,1.3,6.5,2.4,9.8,3.3l1.6-3.9c-2.6-1.7-5.4-3-8.3-3.9c-3.6-1.2-7.3-2.4-10.9-3.6c-7.3-2.4-14.3-5.4-21.1-8.8
							c-1.9-1-3.7-2-5.5-3.2c-0.9-0.5-1.7-1.1-2.6-1.7c-0.5-0.2-0.8-0.7-0.9-1.2c0-0.1,0-0.2,0-0.3c0.1-0.1,0.2-0.2,0.4-0.1
							c0.3,0,0.6,0.5,0.6,0.8l0,0l0.1,0.1c0.3,0.2,0.5,0.3,0.8,0.5s0.8,0.5,1.2,0.8c0.8,0.5,1.6,1,2.3,1.4c1.6,1,3.3,1.9,5,2.7
							c3.3,1.7,6.7,3.2,10.2,4.6c7,2.8,14.2,4.9,21.3,7.4c2.7,0.9,5.3,2.2,7.7,3.8l1.6-3.8c-6.3-2-12.5-4.5-18.5-7.3
							c-6.8-3.2-13.3-7-20.5-9.6c-3.7-1.4-7.2-3.3-10.4-5.6c-0.5-0.4-0.2-1,0.4-0.6c3,2.2,6.2,4,9.7,5.3c3.3,1.1,6.5,2.5,9.6,4
							c6.5,3.2,12.9,6.6,19.6,9.3c3.5,1.4,7,2.7,10.6,3.8l1.9-4.5c-6.6-1.3-13-3.4-19.2-6.1c-7-3-13.5-6.8-20.3-10
							c-4-1.7-8.1-3.2-12.3-4.3c-0.2-0.1,0.7-0.9,1-0.8c3.6,1,7.2,2.2,10.7,3.7c3.4,1.5,6.6,3.3,9.8,4.9c6.6,3.5,13.5,6.5,20.6,9
							c3.3,1.1,6.6,2,9.9,2.7l2.2-5.2c-6.2-3.2-13.7-3.2-20.4-5.1c-7.2-2-14-5.2-20.7-8.2c-3.7-1.6-7.3-3.6-10.6-6
							c-0.2-0.3-0.4-0.6-0.6-0.9h0.5c0.2,0,0.4,0.5,0.5,0.7c5.8,4.1,12.6,6.7,19.1,9.5c3.5,1.5,7,2.8,10.6,3.9
							c3.6,1,7.2,1.7,10.9,2.3c3.8,0.5,7.5,1.7,10.9,3.5l1.3-3.1c-2.8-1.2-6-1.5-8.9-2.4c-3.7-1.1-7.3-2.5-10.7-4.2
							c-6.9-3.3-13.5-7.2-20.5-10.2c-3.9-1.5-7.5-3.4-11-5.6h-0.1c-0.1-0.1,0.7-1,0.9-0.9l0.6,0.3c0.1,0,0.1,0.1,0,0.2
							c3,1.9,6.3,3.5,9.6,4.8c3.5,1.5,6.9,3.1,10.2,4.8c6.7,3.5,13.3,7.2,20.6,9.5c3.1,1,6.7,1.3,9.7,2.5l1.1-2.6
							c-6.8-2.5-13.4-5.4-19.7-8.8c-3.2-1.8-6.4-3.9-9.7-5.6c-3.4-1.5-6.9-2.9-10.4-4.1c-3.8-1.3-7.4-3.1-10.7-5.5
							c-0.2-0.2,0.8-0.3,1-0.2c5.7,4.5,12.9,5.9,19.4,8.8c3.4,1.6,6.6,3.4,9.8,5.4c3.2,1.9,6.4,3.5,9.8,5c3.5,1.6,7.1,3,10.8,4.4
							l1.6-3.8c-2.4-2.3-5.9-3.1-8.8-4.4c-3.5-1.6-6.9-3.5-10.4-5s-7.5-2.4-11.4-3.4c-3.6-1.1-7-2.7-10.2-4.6
							c-3.7-1.9-7.1-4.3-10.1-7.1c-0.3-0.3,0.8-0.9,1.1-0.7c2.8,2.6,6,4.9,9.4,6.7c3.2,2,6.6,3.6,10.1,4.8c3.8,1.1,7.7,1.8,11.4,3.3
							s6.9,3.3,10.4,5c2.9,1.4,6.4,2.2,9,4.3c0.8-1.8,1.5-3.6,2.3-5.5c-0.5-0.3-1.1-0.5-1.7-0.7c-0.9-0.4-1.8-0.8-2.7-1.2
							c-1.9-0.8-3.8-1.4-5.7-2c-3.6-1.2-7.2-2.2-10.8-3.5s-7.1-2.9-10.6-4.6c-3.3-1.5-6.6-3.1-9.8-4.9c-1.7-0.9-3.3-1.9-4.8-3.1
							c-0.8-0.6-1.6-1.2-2.4-1.9c-0.4-0.4-1.6-1.1-1.8-1.8c-0.1,0.1-0.3,0.1-0.4,0h-0.1c-0.3-0.1-0.4-0.4-0.5-0.7V709
							c0-0.2,0.1-0.2,0.2-0.3c0.5-0.1,0.8,0.3,1.1,0.6c0.8,0.8,1.6,1.5,2.4,2.2c1.5,1.2,3.1,2.3,4.7,3.3c3.5,2,7.2,3.9,10.9,5.5
							c3.8,1.8,7.6,3.5,11.5,5s8.3,2.6,12.4,4c2,0.7,4,1.5,6,2.4c0.7,0.3,1.5,0.6,2.2,1c0.6-1.5,1.2-2.9,1.9-4.4
							c-1.2-1-2.6-1.8-4.1-2.1c-1.9-0.5-3.8-0.6-5.7-1.1c-3.6-0.9-7.1-2.2-10.4-3.8c-3.5-1.6-6.8-3.4-10.3-5.1s-7-2.8-10.4-4.3
							c-1.8-0.8-3.5-1.9-4.9-3.3c-1.4-1.6-2.9-3-4.6-4.4c-0.6-0.4,0-1.4,0.5-1c2.9,2.1,5,5.4,8.2,7.1c3.3,1.8,7.1,2.8,10.5,4.3
							c7.1,3.3,13.9,7.5,21.6,9.3c2.1,0.5,4.2,0.7,6.3,1.2c1.4,0.4,2.6,1.1,3.7,2l1.7-4c-1.4-0.6-2.9-1.1-4.5-1.3
							c-1.8-0.5-3.5-1-5.3-1.6c-3.5-1.2-6.9-2.7-10.3-4.2c-6.8-3-13.4-6.4-19.7-10.2c-1.7-1-3.3-2.2-4.9-3.4c-1.6-1.3-3-2.9-4.9-3.6
							c-0.7-0.2,0-1.3,0.6-1.1c1.5,0.7,2.8,1.7,4,2.9c1.5,1.2,3,2.3,4.6,3.4c3.2,2,6.4,3.8,9.8,5.4c6.7,3.6,13.6,6.7,20.7,9.4
							c2.1,0.8,4.3,1.4,6.4,2c1.3,0.2,2.7,0.6,3.9,1.1l2.3-5.4c-3.2-0.9-6.4-1.7-9.6-2.2c-3.5-0.5-6.9-1.5-10.2-3
							c-6.7-3.2-13.4-6.6-19.9-10.2c-3.7-2.1-7.4-4.3-11-6.6c-0.6-0.4,0.3-1.2,0.8-0.9c6.2,4,12.7,7.7,19.3,11
							c3.2,1.7,6.5,3.3,9.7,4.9c1.7,0.9,3.5,1.7,5.4,2.4c1.7,0.5,3.5,0.9,5.3,1.2c3.6,0.7,7.2,1.5,10.8,2.4c0.6-1.4,1.2-2.8,1.7-4.1
							c-3.1-1-6-2.6-9.3-3.3c-1.7-0.4-3.5-0.5-5.2-1c-1.7-0.6-3.3-1.3-4.8-2.2l-19.7-9.6l-11.1-5.4c-0.1,0,0.8-0.8,1-0.7l19.5,9.5
							l9.9,4.8c1.6,0.8,3.2,1.6,4.8,2.3c1.6,0.6,3.4,1,5.1,1.3c3.6,0.6,6.7,2.2,10.1,3.4c0.5-1.2,1-2.4,1.5-3.6
							c-3.1-1.5-6.6-2-9.9-3s-6.5-2.9-9.6-4.6c-6.6-3.7-14-5.7-21-8.4c-3.3-1.3-6.4-2.8-8.7-5.8c-0.3-0.3,0.8-0.4,1-0.1
							c2.2,2.9,5.4,4.4,8.6,5.6c3.4,1.3,6.9,2.5,10.3,3.8c3.3,1.1,6.6,2.5,9.7,4.1c3.2,1.7,6.2,3.7,9.7,4.8s6.9,1.6,10.1,3.1
							c0.6-1.5,1.2-2.9,1.8-4.4c-7.7-4-16.1-6.5-24.3-9.2c-4.3-1.4-8.5-2.9-12.6-4.7c-2.1-0.8-4.1-1.8-5.9-3.1c-1.7-1.3-3.1-3-5-3.9
							c-0.6-0.3,0.4-1.1,0.8-0.9l0.5,0.2c0.1,0,0.2,0.1,0.2,0.2c1.6,1,2.9,2.4,4.4,3.5c1.8,1.3,3.8,2.3,5.9,3.1
							c4.1,1.8,8.4,3.2,12.6,4.7c8.1,2.7,16.4,5.2,24,9l1.6-3.9c-1.8-0.6-3.5-1.3-5.1-2.2c-1.1-0.6-2.3-0.9-3.5-0.9
							c-1,0-2-0.2-3-0.4c-3.8-0.8-7.2-2.8-10.5-4.8c-7.4-4.8-15.2-9-23.4-12.5c-0.7-0.3,0-0.6,0.4-0.4c7.8,3.3,15.3,7.2,22.4,11.8
							c3.7,2.3,7.6,4.8,12,5.5c1.9,0.3,3.8,0.2,5.5,1s3.5,1.7,5.4,2.4c0.6-1.4,1.2-2.8,1.8-4.2c-3.3-2-7.6-2-11.2-3.2
							c-4-1.4-7.9-3.1-11.7-5.1c-3.5-1.8-6.6-4.1-9.9-6.3c-3.6-2.3-7.3-4.3-11.2-6c-0.2-0.1,0.6-1,0.9-0.9c3.8,1.6,7.4,3.5,10.8,5.7
							c3.6,2.3,6.9,4.9,10.8,6.8c3.8,2,7.7,3.6,11.7,5c3.4,1.1,7.2,1.2,10.4,2.8c0.4-1,0.9-2,1.3-3l0,0c-3.3-2.7-7.5-3.5-11.6-4.4
							c-3.8-0.7-7.4-2.2-10.7-4.2c-3.4-2.3-6.9-4.5-10.6-6.4c-3.7-1.6-7.2-3.5-10.6-5.7c-0.6-0.4,0.1-1,0.6-0.7
							c3.5,2.4,7.3,4.1,11.1,6c3.5,1.8,6.8,3.9,10.1,6.2c3.6,2.3,7.5,3.3,11.6,4.3c3.7,0.8,7.3,1.8,10.3,4.1l1.4-3.3
							c-3.8-1.3-7.6-2.6-11.3-4.1c-3.8-1.7-7.4-3.6-10.9-5.8c-3.8-2.2-7.8-3.9-12-5.2c-3.5-1.1-6.8-2.8-9.6-5.1
							c-0.4-0.3,0.6,0,0.8,0.2c3.2,2.8,7.2,4,11.1,5.4c3.4,1.1,6.7,2.6,9.8,4.5c3.5,2.2,7.2,4.2,10.9,5.8c3.7,1.5,7.5,2.8,11.3,4.1
							c0.4-1,0.8-1.9,1.2-2.8c-3.4-2.2-7.4-3.5-11-5.2s-7.5-3.4-11.2-5.2s-7.4-3.6-11.1-5.4c-3.6-1.6-6.9-3.6-10-6
							c-0.6-0.5,0.4-0.6,0.7-0.3c3.2,2.7,6.9,4.4,10.6,6.2s7.4,3.6,11.1,5.3s7.4,3.5,11.2,5.1c3.3,1.5,6.9,2.7,10,4.7l1.3-3
							c-2-1-4.1-1.5-6.2-2.3c-1.8-0.7-3.6-1.5-5.3-2.5c-4-2.2-7.7-5-11.8-7c-7.1-3.3-15.1-5.3-20.7-11.4c-0.1-0.1,0.8,0.1,0.9,0.3
							c5.8,6.3,14.2,8,21.4,11.7c3.6,1.8,6.9,4.2,10.4,6.3c2.1,1.2,4.4,2.2,6.7,3c1.6,0.5,3.1,1.1,4.6,1.8l1.2-2.9
							c-3.4-2.3-7-4.2-10.7-5.8c-3.8-1.4-7.4-3-11-4.8c-7.3-4-14.3-8.4-21.3-12.8c-0.6-0.3-0.2-1.1,0.4-0.8
							c7.1,4.3,14.1,8.8,21.3,12.8c3.7,2,7.6,3.4,11.5,5c3.5,1.6,6.9,3.5,10.1,5.6l1.1-2.5c-3.4-1.6-6.5-3.9-9.7-5.8
							c-3.8-2.2-7.9-3.5-11.9-5.4c-7.8-3.7-15.1-8.5-21.6-14.1c-0.4-0.3,0.7-0.9,1-0.7c6.6,5.7,14,10.4,21.8,14.2
							c3.8,1.8,7.7,3,11.3,5.1c3.2,1.9,6.2,4.1,9.5,5.7l1.8-4.2c-7.2-3.4-15.2-5-21.8-9.7c-3.6-2.6-6.9-5.6-10.6-8
							s-7.2-4.7-10.9-6.9c-0.4-0.3,0.4-1.3,0.8-1.1c3.6,2.3,7.3,4.6,10.9,6.9s6.7,5.1,10,7.6c6.6,4.9,14.8,6.5,22.1,10l1.6-3.8
							c-1.8-1-4-1.1-6-1.6c-1.7-0.5-3.3-1.2-4.8-2.2c-3.7-2.2-7.2-4.8-10.9-7.1l-11-7.2c-3.4-2.1-6.7-4.4-9.8-7
							c-0.5-0.5,0.4,0,0.6,0.1c3.3,3,7.2,5.2,10.8,7.6l11,7.2l5.5,3.6c1.9,1.3,3.8,2.5,5.8,3.6c2.8,1.3,6.1,1.3,8.8,2.8l1.4-3.5
							c-4-1.4-7.8-3.2-11.5-5.3c-3.5-2-6.5-5-9.9-7.2c-6.8-4.4-14.6-7.1-19.7-14.1c-0.4-0.6,0.7-0.8,0.9-0.5c5,6.9,12.8,9.6,19.5,14
							c3.4,2.2,6.4,5.2,10,7.2c3.5,2,7.2,3.6,11,5c0.5-1.3,1-2.5,1.6-3.8c-2.8-0.6-5.5-1.3-8.2-2.2c-3-1.1-5.7-2.9-7.9-5.1
							c-5.2-4.8-10.8-9.2-16.8-13c-1.5-0.9-2.9-2-4.2-3.1c-0.7-0.6-1.3-1.3-1.9-2c-0.3-0.3-0.9-0.7-0.7-1.3c0.1-0.2,0.3-0.2,0.4-0.2
							h0.1c0.2,0,0.6,0.1,0.6,0.4v0.2c2.5,3.2,5.9,5.1,9.1,7.2c3.4,2.2,6.6,4.7,9.7,7.4c3,2.6,5.8,6,9.4,7.8
							c3.3,1.7,7.1,2.4,10.8,3.2c0.6-1.5,1.2-2.9,1.8-4.4c-3.6-1.1-7.4-1.8-10.6-3.8c-3.2-2.1-6.2-4.3-9.1-6.7
							c-6-4.8-11.5-10.1-16.7-15.7c-0.5-0.5,0.5-1.2,0.9-0.8c5.1,5.6,10.6,10.8,16.5,15.5c2.9,2.3,5.8,4.5,8.8,6.5s7,2.8,10.6,3.9
							l1.3-3.1c-7-1.9-13.5-5.3-19-10.1c-3-2.6-6.1-5.2-9.1-7.9c-2.7-2.3-5.4-4.7-7.4-7.9c-0.2-0.3,0.9-0.6,1.1-0.2
							c1.9,3.2,4.7,5.6,7.4,7.9l8.6,7.5c5.3,4.7,11.7,8.2,18.6,10.1l1.6-3.9c-1.4-1-2.9-1.8-4.6-2.3c-1.7-0.6-3.3-1.3-4.9-2.2
							c-3.3-1.7-6.4-3.7-9.3-6c-2.9-2.2-5.6-4.5-8.3-7c-2.6-2.2-4.8-4.8-6.4-7.8c0.1,0.1,1-0.4,1.1-0.1c1.7,3.1,4,5.9,6.8,8.2
							c2.7,2.4,5.4,4.7,8.2,6.8c2.8,2.2,5.8,4.1,8.9,5.8c1.6,0.8,3.2,1.5,4.9,2.2c1.3,0.4,2.6,1,3.8,1.7l1.1-2.6
							c-5.7-2.7-11.1-6-16-10c-2.7-2.1-5.1-4.4-7.4-6.9c-2.5-2.7-4.7-5.7-7.4-8.1c-0.3-0.3-0.4-1.4,0.1-0.9c2.4,2.3,4.6,4.8,6.7,7.4
							c2.4,2.7,5,5.1,7.8,7.4c5.1,4.1,10.6,7.5,16.5,10.3l1.6-3.9c-0.9,0-1.8-0.3-2.5-0.9c-1.5-0.9-3-1.8-4.6-2.7
							c-2.9-1.7-5.7-3.7-8.4-5.8c-2.7-2.4-5.2-5-7.4-7.8l-7.5-8.7c-0.4-0.4,0.7-0.9,1-0.6l6.7,7.7c2.1,2.6,4.4,5.1,6.8,7.4
							c2.4,2.2,5,4.2,7.8,5.9c1.3,0.8,2.7,1.7,4,2.5l2.1,1.3c0.4,0.2,1.6,1.3,2.1,1c0.1,0,0.1-0.1,0.2-0.1c0.4-0.9,0.7-1.8,1.1-2.7
							l-8.4-5c-2.7-1.7-5.2-3.6-7.5-5.7c-5.2-4.3-10-9.1-14.1-14.4c-0.4-0.6,0.5-0.3,0.7,0c4,5.1,8.6,9.8,13.6,13.9
							c2.5,2.2,5.1,4.2,7.9,6l8,4.8c0.4-0.9,0.7-1.8,1.1-2.6c-0.8-0.4-1.6-0.8-2.3-1.4c-0.8-0.5-1.6-1-2.5-1.5
							c-3.1-1.9-6.2-4-9.1-6.2c-6.1-4.7-11-10.8-15.7-17.2c-0.1-0.1,0.9-0.9,1.1-0.7c4,5.5,8.3,10.9,13.3,15.2
							c2.6,2.2,5.4,4.3,8.3,6.2c1.3,0.9,2.7,1.7,4,2.5l2.1,1.3c0.2,0.2,0.7,0.5,1.2,0.8l1.3-3.1c-1.3-0.5-2.4-1.3-3.4-2.3
							c-1.2-1-2.6-1.9-3.9-2.8c-2.6-1.5-5.1-3.3-7.3-5.4c-2.3-2.4-4-5.3-6.4-7.6s-5.2-4.5-7.8-6.7c-0.2-0.2-0.6-1.3-0.2-0.9
							c2.4,2,4.8,3.9,7.1,6c2.3,2.3,4.4,4.8,6.4,7.4c2.1,2.6,4.8,4.3,7.5,6c1.3,0.8,2.6,1.6,3.8,2.6s2.4,2.3,4,2.7
							c0.1,0,0.3,0.3,0.4,0.5l1.2-2.9l-7-5.3c-2.7-1.8-5.3-3.8-7.8-5.9c-4.7-4.5-8.8-9.8-13.8-13.8c-0.6-0.4,0.4-1.2,0.9-0.8
							c5,3.9,9,9.1,13.6,13.5c2.5,2.2,5.1,4.2,7.8,6l6.9,5l1.1-2.8c-2.7-0.7-5-2.6-7.2-4.2c-2.5-1.7-4.9-3.7-7.1-5.7
							c-4.6-4.3-8.9-9-13.3-13.7c-0.3-0.3,0.8-0.9,1.1-0.6c4.2,4.4,8.3,9,12.7,13.1c2.2,2,4.4,3.9,6.8,5.6c2.3,1.7,4.7,3.7,7.5,4.6
							l1.4-3.5c-2.4-1.9-5.3-3-7.9-4.7c-2.5-1.6-4.8-3.4-6.9-5.4c-2.2-2.1-4.3-4.3-6.3-6.6c-2.1-2.2-4.1-4.6-5.8-7.2
							c0.1,0.1,1-0.4,1.1-0.2c1.7,2.5,3.6,4.8,5.6,7c2.1,2.3,4.2,4.6,6.5,6.8c2.2,2.2,4.7,4.1,7.4,5.7c2.2,1.3,4.5,2.3,6.6,3.8
							l0.8-2c-0.1,0-0.1,0-0.2,0.1c-0.4,0.3-1.3-0.2-0.8-0.6c0.3-0.3,0.8-0.4,1.2-0.3c-4.6-3.3-10.3-4.4-14.8-7.8
							c-2.2-1.9-4.1-4-5.7-6.4c-1.7-2.4-3.4-4.9-4.9-7.5c-0.2-0.4,0.8-0.9,1-0.7l0.4,0.2c0.1,0.1,0.1,0.2,0,0.3
							c1.5,2.5,3,4.9,4.7,7.2c1.6,2.4,3.6,4.5,5.8,6.3c4,3,9,4.1,13.2,6.8c0-0.2,0.1-0.5,0.4-0.5c0.1,0,0.1,0,0.2,0l0.6,0.2l0.8-1.9
							c-0.2,0.2-0.4,0.4-0.5,0.3c-4.8-2.3-9.5-4.8-13.4-8.6c-3.9-3.9-7.4-8.2-10.5-12.8c0.3-0.3,0.7-0.5,1.1-0.7l0.4,0.1
							c-0.1,0-0.1,0-0.2,0.1c3,4.5,6.4,8.8,10.3,12.6c3.9,3.7,8.5,6.2,13.1,8.4l2-4.8l-0.4,0.1c-0.6,0.2-0.4-0.6,0-1
							c-4.1-2-7.3-5.7-10.5-9c-1.8-1.8-3.5-3.7-5.2-5.6c-0.9-1-1.7-1.9-2.5-2.9c-0.5-0.6-1.3-1.1-1.2-2.1c0-0.2,0.2-0.4,0.4-0.4
							c0.3-0.1,0.6,0,0.7,0.3c0.1,0.2,0.1,0.4,0,0.6c0.2,0.3,0.8,0.8,0.9,0.9l1,1.4c0.7,0.9,1.5,1.7,2.2,2.6
							c1.6,1.7,3.2,3.4,4.8,5.1c3.1,3.2,6.3,6.8,10.4,8.5l0.4-0.9h-0.7c-0.7,0-0.1-1,0.4-1c-1.7-0.9-3.3-2.1-4.7-3.5
							c-1.7-1.5-3.2-3.1-4.7-4.8c-3.1-3.5-5.8-7.2-8.1-11.2c-0.2-0.4,0.8-0.2,1,0c2.2,3.7,4.7,7.2,7.5,10.4c1.3,1.5,2.7,3,4.1,4.4
							c1.6,1.6,3.3,3.3,5.4,4.2c0.1,0,0.2,0.1,0.3,0.2l1.6-3.8h-0.5c-0.3-0.1-0.5-0.2-0.7-0.5c-0.1,0-0.2,0-0.3-0.1
							c-3.3-2.7-6.4-5.7-9.1-9c-1.4-1.7-2.6-3.4-3.8-5.2c-0.6-1-1.2-2-1.8-3c-0.3-0.5-0.8-1-0.6-1.8c0.1-0.2,0.2-0.3,0.4-0.4
							C259.1,567.5,259.4,567.6,259.5,567.9z"/>
						<path class="st8" d="M225.4,822.6c-4.2-1.5-8.4-2.7-12.7-3.7c-4.3-0.9-8.7-1.4-13.1-1.6c-4.6-0.4-9.3-0.5-13.9-0.3
							c-0.3,0,0.5-0.8,0.8-0.9c4.2-0.2,8.5-0.1,12.7,0.2c4.4,0.2,8.8,0.6,13.2,1.4c4.3,0.9,8.6,2.1,12.7,3.5c2,0.7,4,1.3,6.1,1.9
							s4,1.3,6.1,0.4c0.5-0.2-0.4,0.7-0.6,0.8c-1.6,0.6-3.3,0.7-4.9,0.1C229.7,823.9,227.6,823.2,225.4,822.6z"/>
					</g>
				</g>
				<path class="st8" d="M152,862.2c1.9-1.3,3.6-2.7,5.1-4.4c1.1-1.2,1.9-2.5,1.5-4.2c-0.1-0.3-0.4-0.4-0.7-0.4
					c-4.5,0.1-8.1,3-11.8,5.2c-4.3,2.5-8.7,4.8-13.3,6.7c-8.2,3.3-16.8,5.8-25.5,7.3c-8.5,1.6-16.6,3.8-24.4,7.7
					c-11.5,5.7-21.7,13.7-31,22.5c0.7-7.8-0.2-15.6-1.5-23.3c-1.2-7.5-2.5-15.1-4-22.6c-1.5-7.2-3.5-14.2-5.6-21.3
					c-2-6.7-3.8-13.6-4.1-20.6s1.1-14.1,0-21.1c0-0.3-1.7-0.5-1.9-0.2c-3,3.5-3.8,8.3-4.8,12.7c-1,4.4-1.7,8.8-2.1,13.3
					c-0.7,7.7-1,15.8,0.6,23.4c1.7,7.9,6.5,14.4,9.4,21.8c1.6,4,2.9,8.2,4.2,12.3s2.7,8,4,12.1c2,6.2,3.4,13.9-0.4,19.5
					c-0.6,0.6-1.2,1.2-1.9,1.9s-0.2,1,0.4,1l-0.6,1.3l-1.5,1.7c-0.8,0.9,0.7,1.4,1.3,0.7c6.5-7.5,14-13.9,22.4-19.2
					c7.5-4.5,15.7-7.7,24.3-9.4c8.6-1.8,17.3-2.9,25.8-5.5c8.6-2.7,16.5-7,24.2-11.6C144.2,867.2,148.2,864.8,152,862.2z
					 M50.8,903.7l-0.5,0.5l0.4-0.5L50.8,903.7z"/>
				<path class="st8" d="M63.9,883.9l-0.5,0.3c2-2.6,3.4-5.6,4.2-8.8l0.5-0.8c0.3,0.4,0.6,0.6,0.8,0.4c0.9-1.1,1.8-2.3,2.5-3.5
					l0.3,0.3l-0.4,0.4c-0.2,0.1,1.5,0.7,1.8,0.4c8.1-7.2,17-13.5,26.4-19c17.2-9.8,36.2-15.3,54.2-23.3c8.7-3.7,16.8-8.5,24.4-14.2
					c3.7-2.9,7.1-6.1,10.1-9.6c1.4-1.7,2.8-3.4,4-5.3c1-1.5,2.3-3.2,1.7-5.1c-0.1-0.4-1.5-0.6-1.9-0.4c-4.4,2.7-7.5,6.9-10.7,10.8
					c-3,3.8-6.7,7.1-10.8,9.7c-7.5,4.5-16,6.9-24.1,9.9c-9.2,3.4-17.9,8-26.7,12.4c-9,4.5-18.2,8.8-26.8,14.2
					c-4.2,2.6-8.2,5.5-12.1,8.5c2.6-3.1,5.2-6,8-8.9c4.8-4.3,10-8.1,15.7-11.2c6.5-3.7,13.3-6.8,20-10.1c7.3-3.6,14.4-7.6,21.5-11.8
					c6.9-4,13.8-8,20-13c6.4-5.2,11.7-11.6,15.5-19c0.1-0.2,0-0.3-0.1-0.5c-1.3-1.2-3.1-0.7-4.3,0.2c-1.9,1.6-3.7,3.2-5.4,5
					c-3.5,3.5-7.3,6.7-11.4,9.5c-7.1,4.7-14.9,8.2-22.4,12c-7.7,4-15.1,8.5-22.2,13.5c-10.2,7.2-19.7,15.5-28.3,24.5
					c-1.5,1.4-2.9,2.9-4.3,4.4c-0.1,0.1-0.1,0.2,0,0.3c-1.8,2-3.5,4-5.2,6.1c-0.3,0.3,0.3,0.7,0.9,0.8c-1.8,1.5-3.6,3-5.3,4.6
					c0.3-0.9,0.7-1.8,0.9-2.8c0.3-0.5,0.6-1.1,0.8-1.7l4.1-5.2c0.5,0.1,1.1-0.2,1.3-0.6c2.7-6.7,3-14,2.4-21.1
					c-0.6-6.6-1.9-13-2.7-19.6c-0.9-7.3-1.4-14.7-1.3-22.1c0-15,1.8-29.9,3.5-44.8c0.1-0.7-0.8-0.6-1.2-0.4c-3.7,2.3-4,7-4.7,11
					c-0.7,4.3-1.4,8.6-2,12.9c-2.2,15.4-3.7,31-2.6,46.5c0.3,3.8,0.7,7.7,1.2,11.5c0.3,1.9,0.6,3.7,0.9,5.6c-0.3-1.7-0.8-3.3-1.3-5
					c-1.1-3.8-2.6-7.6-3.5-11.5c-0.8-3.7-1.4-7.4-1.7-11.2c-0.6-7.8-0.8-15.6-0.5-23.4c0.2-7.1,1.6-14.5,0-21.5
					c-0.1-0.4-0.7-1.5-1.2-1.2c-3.9,2.1-3.9,7.7-4.4,11.5c-0.6,4.7-0.9,9.5-1.2,14.2c-0.4,8.6-0.5,17.2-0.4,25.8
					c0,8.3,0.5,16.4,2.4,24.5c1.9,7.9,4.7,15.7,5.1,23.9c0.3,6.4-0.7,13.2-4.3,18.5c0.3-4.6-0.8-9.7-1.6-14
					c-1.7-8.3-3.3-16.6-4.3-25.1c-0.8-7.7-1.2-15.5-1.1-23.3c0-15,0.4-30.3-3.1-45c-0.1-0.6-1.2-1.3-1.6-0.6c-2.1,3.8-3.4,8-4,12.4
					c-0.7,4.4-1.3,8.9-1.7,13.3c-0.8,7.9-0.7,15.8,0.3,23.7c1,8.1,2.7,16.2,4.2,24.2s2.9,16.4,4.7,24.5c0.8,3.7,1.9,7.4,2.5,11.2
					c0.5,2.3,0.4,4.7-0.2,7c0,0-0.1,0.1-0.1,0.1c-0.2,0.2-0.3,0.5-0.2,0.8c-0.3,0.6-0.7,1.2-1.1,1.8c-0.5,0.6,0.2,1.5,0.9,1.5
					c-0.3,0.3-0.5,0.6-0.8,0.9c-0.5,0.6,1.3,1.3,1.7,0.8c6.6-8.1,14.9-14.7,24.3-19.3c8.3-4,17.2-6.4,25.9-9.2
					c17.1-5.5,33.4-13.3,48.4-23.2c3.7-2.4,7.3-5,10.9-7.7c3.4-2.5,6.9-5.6,7.6-10c0.1-0.6-1.1-0.8-1.5-0.8
					c-4.4,0.6-8.2,2.9-11.9,5.4c-4.2,2.8-8.4,5.7-12.9,8.2c-15.7,8.7-33.3,12.5-49.3,20.5c-8.4,4.3-15.8,9.8-23.3,15.3L63.9,883.9z
					 M75.1,843.3C75.1,843.3,75.1,843.4,75.1,843.3c0.5,3.3,0.7,6.5,0.6,9.8C75.7,849.8,75.5,846.6,75.1,843.3z"/>
				<path class="st8" d="M166.2,788.9c5.5-3.5,12.1-6.9,15.1-13c0.3-0.5-0.9-1.5-1.4-1.3c-6.2,2.5-11.5,6.8-17.2,10.2
					c-2.6,1.6-5.4,3-8.2,4.1c-2.9,1.1-6,2.1-8.9,3.2c-5.6,2.2-11,5-16.1,8.2c-8.2,5.1-15.7,11.3-22.2,18.5c2-5.5,3.1-11.3,3-17.2
					c0-11.2-2.7-22.3-3.2-33.5c-0.3-5.8,0.2-11.6,1.4-17.2c1.3-6.2,3-12.2,4.6-18.3c0.2-0.6-1.3-1.5-1.7-0.9
					c-5.3,6.6-8.4,14.6-10.6,22.7c-1.8,6.5-3.2,13.3-3,20.1c0.2,6.7,2.1,13,4,19.3s3.2,13,2.5,19.8c-0.7,6.6-3,13-6.8,18.5
					c-0.2,0.2,0.2,0.6,0.6,0.9l0,0c-0.4,0.5,0.2,2.6,0.6,2.1c4.9-5.4,10.7-11.6,16.1-16.5c4.7-4.5,9.8-8.4,15.3-11.8
					c5.8-3.5,12.1-5.5,18.3-8.1C154.5,795.9,160.5,792.7,166.2,788.9z M102.7,826c0.1-0.3,0.2-0.6,0.3-0.8l0.1,0.1L102.7,826z
					 M106.6,819.5c-0.9,1-1.8,2-2.6,3l0,0l1.9-3.2C106.1,819.3,106.4,819.4,106.6,819.5L106.6,819.5z"/>
				<path class="st8" d="M151.5,780.5c-5,2.3-10.2,4.3-15.1,7c-4.5,2.4-8.7,5.3-12.5,8.7l-2.4,2.6c-0.3,0.4-0.8,0.6-1.3,0.5
					c-0.1,0-0.3-0.1-0.3-0.2c-0.3-0.1-0.4-0.3,0-0.8c0.9-0.9,1.8-1.7,2.7-2.5c6.4-6.7,13-13.3,20.5-18.8c8.5-6.1,18.6-9.8,26.3-17
					c4.4-4.1,8.3-8.7,13.1-12.5c0.3-0.2,1.9-0.7,1.5,0.2c-4.1,9.8-10.6,18.3-18.9,24.8C160.8,775.7,156.3,778.4,151.5,780.5z"/>
				<path class="st8" d="M160.5,753c-3.9,3.8-8,7.3-12.1,10.8c-4.6,4-11.3,9.9-14,15.5c-0.3,0.6,0.1-1.7,0.4-2.2
					c0.2-0.3,0.3-0.6,0.5-0.9l-0.5-1.5h-0.1c-0.7,1.3-1.4,2.6-2.1,3.9c-0.1,0.3-0.4,0.2-0.7,0c-0.7,2.3-1.3,4.7-1.9,7
					c-0.2,0.7-1.6-0.6-1.4-1.3c5.6-21.2,13.1-41.9,22.5-61.7c1.3-2.7,2.6-5.5,4-8.1c1.1-2.5,2.9-4.6,5.2-6.2
					c0.6-0.4,1.4,0.7,1.3,1.2c-0.5,9.4-2.5,18.7-5.9,27.5c-2.9,7.5-6.9,14.5-11.2,21.4c2.3-2.2,4.6-4.2,7-6.2
					c3.8-3.2,7.4-6.6,10.9-10.2c3.5-3.6,6.7-7.5,9.8-11.4c3.6-4.5,6.9-9.1,10.3-13.7c0.2-0.2,0.8-0.1,1,0c1.9,0.5,1.7,2.2,0.9,3.7
					c-1.2,2.4-2.6,4.7-3.9,7C174.8,736.9,168.1,745.4,160.5,753z"/>
				<path class="st8" d="M123.7,791.9l-6.4,9.2c-0.7,1.9-1.6,3.6-2.7,5.3c0,0-1.2-1.2-1-1.7c3-4.9,4.7-10.5,4.8-16.3
					c0.1-5.7-1.7-11.2-2.4-16.9s0.2-11.2,1.7-16.6c1.6-6.1,3.5-12.1,5.6-18.1s4.5-11.7,8.3-16.7c0.9-1.2,1.8-2.3,2.8-3.3
					c0.7-0.8,1.7-1.2,2.7-1.2c2,0.3,2.1,3.1,1.8,4.6c-0.8,2.6-1.9,5-3.5,7.3c-1.7,2.6-3.1,5.4-4.2,8.2c-2,5.5-3.2,11.2-3.6,17
					c-1.2,13.2,0.2,26.8-3.3,39.8C124,792.4,123.8,792.1,123.7,791.9z"/>
				<path class="st8" d="M98.6,806.8c0.7,5.7,0,11.5-0.9,17.2c-1,6.6-2.4,13.1-5.5,19.1c-0.1,0.2-0.6,0.2-1.1,0l-0.8,1.1
					c-0.6,2.1-1.7,4-3.2,5.6c-0.3,0.3-1.9-0.2-1.8-0.3c4.7-4.7,4.1-11.8,2.8-17.7c-1.4-6.1-2.8-12.1-3.6-18.3
					c-1.6-12.3-1.6-24.7,0-37c1-7.3,2.4-14.9,6.8-21c0.2-0.2,1.9-0.1,1.9,0.2c-0.3,11.5-0.7,23.1,1.6,34.4
					C96,795.7,97.9,801.1,98.6,806.8z"/>
				<path class="st8" d="M20.8,807.4c0.3,0,0.9-0.1,0.9,0.3c-0.2,15.6-3.5,31.5,0,47c1.6,7.1,4.9,13.4,8.7,19.5s8,12,10.5,18.7
					c2.7,7.5,2.8,15.6,0.5,23.2c-0.1,0.4-0.8,0.7-1.3,0.8l-0.4,0.5c-0.3,0.8-0.6,1.5-1,2.2c-0.3,0.5-2.2,0.9-1.7,0.2
					c4-7.3,1.7-15.9-1.9-22.8c-4.2-8.1-9.6-15.6-14-23.7c-3.8-6.8-6.5-14.3-7.7-22c-1.1-7.3-1.2-14.8-0.2-22.1
					c0.6-4.2,1.4-8.4,2.6-12.5c0.5-1.9,1.1-3.8,1.8-5.7C17.9,809.3,18.9,807.7,20.8,807.4z"/>
				<path class="st8" d="M6.5,834.5c-1,12.1,3.7,23.6,8.7,34.3c3,6.5,6,12.9,8.9,19.4c2.8,6.1,5.8,12.1,8.3,18.3
					c2,4.8,3.3,9.9,3.8,15.1l0,0c6.9-5.3,14-10.2,21.3-14.9c6.5-4.2,13.1-8.2,20.6-10.2c13-3.4,27.1-2,39.6-7.5
					c3.5-1.7,6.9-3.7,10-6c1.6-1.1,3.3-2.2,5.1-3.2c1.3-0.8,3.1-2,4.7-1.9c1.1,0.1,1.9,1.1,1.8,2.2c0,0.2-0.1,0.4-0.2,0.6
					c-0.6,1.7-2.3,3.2-3.6,4.4c-2.9,2.4-6,4.6-9.2,6.5c-13.1,7.6-28.2,10.8-42.8,14.1s-29.9,7-42.6,15.4c-1.6,1-3.1,2.1-4.5,3.3l0,0
					c0,0.2,0,0.3,0,0.5c8.1-5,17-8.4,26.3-10c6.1-1.1,12.3-1.8,18.5-2.8c6.4-1.1,12.8-2.7,19.1-4.4c7.4-2,14.8-4.2,22.2-6.4
					c0.3-0.1,1.6,0.9,1.4,1.3c-2.3,6.4-9.8,8.5-15.5,10.3c-6.2,2-12.4,3.6-18.7,5c-6.4,1.4-13,2.5-19.5,3.2c-6.8,0.8-13.5,1-20,3.2
					c-6.1,2.1-14.2,6.1-20.2,8.5c0.5,0,3-1.4,3.4-1.4c8.8-3.4,18-5,27.3-6.2c11.6-1.5,23.2-2.7,34.8-3.3c3-0.2,6-0.3,9.1-0.3
					c1.3,0,2.7-0.1,4,0c0.9,0,2.1,0.3,2.5,1.2s-0.4,1.6-1,2.2c-0.8,0.9-1.8,1.7-2.8,2.3c-2,1.2-4.2,2.2-6.5,2.7
					c-5.3,1.4-10.8,1.7-16.2,2.2c-5.7,0.5-11.5,0.9-17.2,1.2c-11.4,0.5-22.8,0.4-34.2-0.3c-4.8,0.1-4.7,1-5.8,1.5s0.7-0.8,1.8-1.3
					l0,0l-0.2-0.4h-0.3l-1.6,1.7c-0.4,1-0.9,2-1.4,2.9s-2.2,0-1.6-1c3.1-5.9,4.1-12.6,3-19.1c-0.5-3.3-1.6-6.4-3.2-9.3
					c-1.9-3.4-4.6-6.2-6.5-9.6s-3-7.2-4.6-10.8s-3.3-7.2-5-10.8c-3.2-6.7-6.4-13.6-7.5-21.1s-0.1-15.6,4.4-21.9
					c0.4-0.4,1-0.5,1.4-0.1C6.4,834,6.5,834.2,6.5,834.5z"/>
				<path class="st9" d="M145.9,760.1c-0.8,1.7-1.7,3.4-2.6,5c-16.1,25.8-28.6,45.5-45.6,71.3c-8.7,13.2-17.4,26.3-26.3,39.3
					c-8.8,13-17.5,26-26.8,38.7c-10.2,14-21,27.5-33.5,39.5c-1,1-5-0.6-3.9-1.6c22.4-21.5,39.6-47.8,57-73.4
					c17.8-26.2,35.3-52.6,52.4-79.3c9.6-15,17.8-26.8,27.2-41.9C144.4,756.7,147.2,756.7,145.9,760.1L145.9,760.1z"/>
				<path class="st4" d="M115,715.8c0-0.1-0.1-0.1-0.1-0.1c0,0,0,0-0.1,0c-0.7,0.1-1.3,0.3-2,0.5c-1.9,0.5-3.7,1.1-5.5,1.9
					c-2.9,1.2-5.7,2.5-8.4,4c-3.7,2-7.2,4.3-10.6,6.8c-4.3,3.2-8.5,6.8-12.3,10.5c-4.7,4.6-9.1,9.6-13.2,14.8
					c-5,6.4-9.6,13.1-13.7,20c-4.9,8.3-9.4,16.9-13.4,25.8c-4.8,10.6-9,21.5-12.6,32.5c-4.3,13.1-8,26.5-11.1,39.9
					c-0.8,3.6-1.6,7.3-2.4,10.9c0,0.1,0,0.2,0.1,0.2c0,0,0,0,0,0l5.1,1.1c0.1,0,0.2,0,0.2-0.1c0,0,0,0,0,0c0.1-1.2,0.3-2.4,0.5-3.6
					c0.5-3.3,1-6.6,1.6-9.9c0.9-5.1,2-10.1,3.1-15.1c1.4-6.3,3.1-12.5,4.9-18.7C27.2,830,29.5,823,32,816c2.8-7.6,5.9-15.1,9.3-22.4
					c3.6-7.7,7.6-15.1,12-22.3c4.5-7.3,9.5-14.2,15-20.7c5.5-6.6,11.7-12.6,18.4-18c6.8-5.5,14.2-10.2,22.1-14c2-1,4-1.8,6.1-2.7
					C115,715.9,115,715.9,115,715.8C115,715.8,115,715.8,115,715.8z"/>
				<path class="st3" d="M155.2,758.5c0.5-3.4,0.7-6.8,0.5-10.2c-0.1-2.9-3-4.8-5.2-6.2c-3.6-2-7.4-3.6-11.3-5
					c-3.9-1.4-7.7-3-11.3-4.9c-2.1-1.2-5.1-3.1-4.6-6c0.1-0.9,0.5-1.8,1.2-2.5c0.7-0.4,1.5-0.4,2.2-0.2c1,0.4,2,0.9,2.8,1.5
					c1.2,0.8,2.3,1.7,3.4,2.6c2.7,2.2,5.2,4.6,7.9,6.9c2.7,2.4,5.6,4.5,8.7,6.3c1.3,0.7,4.9,2.4,5-0.4c0-0.2,0-0.4-0.1-0.7
					c-0.2-0.9-0.4-1.8-0.7-2.7c-0.8-2.9-2-5.8-3.4-8.5c-4.2-8.2-11.2-14.5-19.7-17.9c-2.8-1.1-5.7-2-8.7-2.5c-1.3-0.3-2.7-0.4-4-0.5
					c-2.1-0.1-4.2,0.5-5.9,1.7c-1.5,1.2-2.6,2.9-3.2,4.7c-0.6,1.5-1.1,3.4-2.2,4.7c-0.3,0.5-0.9,0.8-1.5,0.8
					c-0.9-0.1-1.4-1.2-1.7-1.9c-0.7-1.7-1.1-3.5-1.8-5.2c-1.4-3.4-3.6-6.4-6.3-8.8c-2-2-4.6-3.4-7.5-3.8c-3.1-0.4-6.2,0.2-9.2,0.8
					c-3.2,0.6-6.3,1.6-9.2,3.1c-4.7,2.4-8.8,5.7-12.1,9.8c-1.3,1.7-2.4,3.6-3.1,5.7c-0.3,1-1.1,3.5,0.5,3.9c0.9,0.1,1.9-0.1,2.6-0.6
					c1.3-0.8,2.7-1.4,4.1-2c3-1.1,6.1-1.7,9.3-1.7c3.7-0.1,7.3,0.4,10.8,1.3c0.6,0.2,4.3,1,3.3,2.3c-0.3,0.3-0.6,0.5-0.9,0.7
					c-0.6,0.2-1.3,0.2-1.9,0c-3.4-0.3-6.8-0.4-10.1-0.3c-4.7,0-9.3,0.9-13.7,2.7c-2.9,1.2-5.4,3.3-7.2,5.8c-1.5,2.3-2.5,4.8-2.8,7.5
					c-0.3,2.5-0.5,5-0.5,7.5c0,1.1,0,2.2,0,3.2c-0.3,2-0.3,4-0.1,6c0.1,0.9,0.6,2.2,1.7,1.9c0.3-0.1,0.6-0.2,0.9-0.5
					c0.3-0.2,0.5-0.6,0.6-0.9c2-4.2,5.4-7.6,9.6-9.6c4.2-2.1,8.7-3.3,13.3-3.6c3.9-0.4,7.9,0.1,11.6,1.4c1.3,0.5,2.5,1.2,3.4,2.2
					c0.5,0.6,1.2,1.6,0.7,2.4c-0.7,0.6-1.5,1-2.4,1c-1.5,0.2-3.1,0.4-4.6,0.4c-4.1,0.2-8.2,0.2-12.2,0.8s-8.4,1.6-11.7,4.1
					c-4,2.9-5.9,7.9-6.7,12.6c-0.8,4.7-0.5,9.6,0.9,14.1c0.5,1.3,2.3,5.7,4.1,3.2c0.4-0.6,0.6-1.2,0.9-1.9c0.3-0.7,0.6-1.4,1.1-2
					c1.1-1.5,2.3-3,3.7-4.2c3.3-3.1,7-5.7,10.9-8c3.2-2.1,6.6-3.6,10.2-4.6c0.8-0.2,2.1-0.5,2.9,0s0.3,1.9,0,2.6
					c-1,1.7-2.4,3.2-4.1,4.1c-2,1.2-4,2.2-6.1,3c-4.2,1.8-8.8,3.3-12.2,6.3c-1.5,1.3-2.5,3-3,4.9c-0.7,2.7-0.7,5.6,0.2,8.3
					c0.5,1.4,1.5,3.2,3.2,3.3c2,0.1,3.3-2.3,3.9-3.9c1.2-3.1,3.1-5.8,5.6-8.1c1.8-1.8,4.2-3.1,6.7-3.5c1.6-0.2,3.8,0.4,3.7,2.4
					c-0.1,0.9-0.4,1.8-0.8,2.6c-0.5,1.1-1.1,2.1-1.8,3.1c-1.5,2.3-3.2,4.6-4.9,6.8c-0.8,1-1.5,2.1-2.2,3.2c-0.6,0.9-1.1,1.8-1.5,2.8
					c-1.2,3.7,2.4,7.3,4.9,9.4c1.4,1.2,3,2.4,4.6,3.4c0.5,0.3,1,0.6,1.5,0.9c0.1,0.1,0.3,0.2,0.5,0.3c0.3,0,0.6-0.1,0.8-0.1
					c0.7-0.1,1.3-0.2,2-0.3c2.1-0.4,4.2-0.8,6.2-1.4c2.4-0.6,4.8-1.3,7.2-2.2c2.1-0.7,4-1.8,5.7-3.1c1.1-0.8,1.8-2,1.9-3.3
					c0.1-1.6-0.2-3.3-0.7-4.8c-1.2-4.2-3-8.2-4.6-12.3c-0.8-1.9-1.4-3.9-1.9-5.9c-0.5-1.5-0.6-3.1-0.3-4.6c0.2-1.1,1.2-2,2.3-2.1
					c1.1,0,2,1,2.5,1.8c0.9,1.4,1.6,3,2.1,4.6c0.7,2,1.2,4,1.7,6.1c1,4.2,1.7,8.5,2.2,12.7c0.2,1.5,0.3,3,0.4,4.5
					c-0.1,1.1,0,2.2,0.2,3.2c0.4,1.1,1.5,1.7,2.7,1.5c2.1-0.2,4.1-1.7,5.8-3c1.4-1.1,2.7-2.3,3.9-3.6c0.5-0.5,0.9-1,1.2-1.7
					c0.5-1.2,0.7-2.4,0.6-3.7c-0.2-3.4-1.8-6.7-3.3-9.7c-2-3.9-4.3-7.6-6.7-11.3c-2.2-3.5-4.5-7-6.5-10.6c-0.8-1.4-1.5-2.9-2.1-4.4
					c-0.5-1.1-0.8-2.3-0.8-3.5c0-0.9,0.4-1.7,1.1-2.2c0.8-0.4,1.8-0.3,2.6,0.2c1.2,0.7,2.2,1.6,3.1,2.7c1.2,1.4,2.4,3,3.4,4.6
					c2.5,3.8,4.6,7.8,6.5,11.9c1.8,3.9,3.3,7.8,4.5,12c0.4,1.5,0.7,3,0.9,4.5c0.1,1.1-0.1,2.2,0.1,3.4c0.2,2,1.6,3.6,3.4,4.3
					c2.4,0.7,4.7-0.9,6.2-2.6c1.4-1.5,2.5-3.3,3.3-5.2c1.3-2.7,2.3-5.5,3-8.4c0.8-2.7,1.3-5.6,1.5-8.4c0.1-2.3-0.1-4.5-0.6-6.8
					c-0.9-4-2.6-7.8-5-11.2c-2.1-3-4.5-5.8-7.2-8.3c-1.8-1.7-3.8-3.3-5.4-5.2c-0.3-0.3-0.9-0.9-0.9-1.4s0.9-0.5,1.2-0.5
					c4.4-0.2,8.1,2.4,10.8,5.6c3.1,3.7,5.2,8,7.5,12.2c0.9,1.7,3.3,6.8,5.9,4.3c0.6-0.7,1.1-1.5,1.4-2.4
					C154.8,760.9,155.1,759.7,155.2,758.5z"/>
				<path class="st4" d="M89.5,728c-2.2-0.3-4.4-0.5-6.6-0.4h-0.2c-1.5,0.5-5.5,2-3.5,4.2c0.8,0.8,1.8,1.3,2.9,1.6
					c1.4,0.4,2.8,0.7,4.2,0.8c2.5,0.1,5.7-0.4,7-2.8S91.2,728.3,89.5,728z"/>
				<path class="st4" d="M143.3,775.3c0.1-1.3,0.1-2.5-0.2-3.8c-0.4-2-0.9-3.9-1.7-5.8c0,0,0-0.1,0-0.1c-0.4-1.3-1.5-2.4-2.9-2.6
					c-0.5-0.1-1,0-1.4,0.4c-0.4,0.5-0.7,1.1-0.6,1.7c0,0.6,0.1,1.2,0.2,1.9l0.2,2.1c0.1,1.5,0.3,3,0.7,4.5c0.2,1.2,0.8,2.4,1.6,3.3
					c0.7,0.7,1.8,0.9,2.8,0.6C142.8,777.1,143.3,776.2,143.3,775.3z"/>
				<path class="st4" d="M106.6,719c0.1-0.2-0.4,0.8-1.6,0.7c-0.7,0-1.3-0.5-1.4-1.2c0,0-0.1,0.7-0.1,0.7c-0.2,2-2.3,32.1-10,61.6
					C99.2,761.4,107.2,731.3,106.6,719z"/>
				<path class="st10" d="M93.5,780.8c-3,10.4-5.4,17.7-5.4,17.7C90.2,792.8,92,786.9,93.5,780.8z"/>
				<path class="st8" d="M268.1-30.6c-2.2,0.2-4.4,0.6-6.6,1.3c-1.5,0.5-2.9,1.3-3.4,2.9c-0.1,0.3,0.2,0.5,0.4,0.6
					c4,2.1,8.6,1.3,12.9,1.2c5-0.1,9.9,0.1,14.9,0.7c8.8,1.1,17.5,3.2,25.9,6.1c8.1,2.8,16.5,4.6,25,5.2c12.8,0.7,25.6-1.4,38-4.5
					c-4.4,6.5-7.4,13.8-10.1,21.1c-2.6,7.2-5.2,14.4-7.5,21.7c-2.2,7-3.9,14.1-5.5,21.3c-1.5,6.8-3.3,13.7-6.5,20
					s-7.8,11.8-10.3,18.4c-0.1,0.3,1.2,1.2,1.5,1.1c4.3-1.6,7.4-5.4,10.4-8.7c3-3.4,5.7-6.9,8.3-10.6c4.4-6.4,8.6-13.3,10.9-20.7
					c2.4-7.7,1.4-15.8,2.5-23.6c0.6-4.3,1.5-8.6,2.3-12.8s1.6-8.4,2.4-12.5c1.3-6.4,3.8-13.8,9.9-16.9l2.5-0.7
					c0.8-0.2,0.6-0.8,0.2-1.1l1.1-0.9c0.7-0.2,1.4-0.5,2.1-0.7c1.2-0.4,0.1-1.6-0.8-1.3c-9.3,3.4-19.1,5.3-28.9,5.8
					c-8.8,0.3-17.5-1-25.9-3.7c-8.4-2.6-16.6-5.9-25.2-7.7c-8.8-1.9-17.8-2-26.8-1.7C277.4-31.2,272.7-31.1,268.1-30.6z M376.8-17.5
					l0.7-0.2L376.8-17.5L376.8-17.5z"/>
				<path class="st8" d="M355.7-6.6l0.6-0.1c-3,1.3-5.7,3.2-8,5.6l-0.9,0.5c-0.1-0.5-0.3-0.8-0.5-0.8c-1.3,0.5-2.6,1.1-3.8,1.9
					L343,0.1l0.6-0.1c0.2,0-0.9-1.4-1.4-1.2c-10.6,2.3-21.5,3.5-32.3,3.7c-19.8,0.2-39.1-4.3-58.7-6c-9.4-1-18.9-0.8-28.2,0.6
					c-4.6,0.7-9.1,1.8-13.5,3.4c-2.1,0.8-4.1,1.6-6.1,2.6c-1.6,0.8-3.6,1.7-3.9,3.6c-0.1,0.4,1.1,1.2,1.4,1.2
					c5.2-0.2,9.9-2.3,14.6-4.2c4.5-1.9,9.3-2.9,14.1-3.2c8.7-0.3,17.3,1.8,25.9,3.1c9.7,1.5,19.5,1.8,29.4,2.2
					C294.9,6.3,305,7,315.1,6.5c4.9-0.3,9.8-0.8,14.7-1.5c-3.7,1.4-7.5,2.7-11.3,3.9c-6.3,1.4-12.7,2.1-19.1,2.1
					c-7.5,0-14.9-0.5-22.4-0.9c-8.2-0.4-16.3-0.4-24.5-0.2c-8,0.2-16,0.2-23.8,1.6c-8.1,1.4-15.9,4.4-22.8,9
					c-0.2,0.1-0.2,0.3-0.1,0.5c0.5,1.6,2.3,2.1,3.9,1.9c2.4-0.4,4.8-1,7.2-1.7c4.8-1.4,9.7-2.3,14.6-2.7c8.5-0.6,16.9,0.1,25.4,0.4
					c8.7,0.3,17.3-0.1,25.9-1c12.4-1.3,24.7-3.8,36.7-7.5c2-0.5,4-1,5.9-1.7c0.1,0,0.2-0.1,0.2-0.2c2.5-0.9,5-1.8,7.5-2.8
					c0.4-0.2,0.1-0.8-0.4-1.1c2.3-0.4,4.6-0.9,6.9-1.4c-0.8,0.6-1.5,1.3-2.2,2c-0.5,0.3-1,0.7-1.5,1l-6.2,2.4
					c-0.4-0.3-1-0.4-1.5-0.1c-5.6,4.6-9.5,10.7-12.4,17.3c-2.7,6-4.7,12.3-7.1,18.4c-2.7,6.9-6,13.6-9.6,20
					c-7.4,13.1-16.1,25.3-24.9,37.4c-0.4,0.6,0.4,0.9,0.9,0.9c4.4-0.2,7-4.2,9.5-7.3c2.7-3.4,5.4-6.8,8.1-10.3
					c9.5-12.3,18.3-25.3,25-39.4c1.6-3.5,3.2-7,4.5-10.6c0.6-1.8,1.3-3.5,1.9-5.3c-0.5,1.6-0.9,3.3-1.3,5c-0.9,3.9-1.4,7.9-2.5,11.8
					c-1.1,3.6-2.4,7.2-4,10.6c-3.2,7.1-6.9,14-10.9,20.7c-3.6,6.1-8.5,11.9-10.5,18.8c-0.1,0.4-0.1,1.6,0.5,1.6
					c4.4,0.1,7.2-4.8,9.4-7.9c2.8-3.9,5.4-7.8,8-11.9c4.6-7.3,8.8-14.8,13-22.4c4-7.2,7.6-14.6,9.8-22.6c2.2-7.8,3.6-16,7.1-23.4
					c2.8-5.8,7-11.2,12.8-14.1c-2.6,3.9-4,8.8-5.4,13c-2.6,8.1-5.2,16.1-8.5,24c-3.1,7.1-6.6,14.1-10.4,20.8
					c-7.3,13.1-15.1,26.2-19.2,40.8c-0.2,0.6,0.4,1.7,1.1,1.3c3.7-2.4,6.9-5.4,9.5-8.9c2.8-3.5,5.4-7.2,8-10.8
					c4.5-6.5,8.3-13.5,11.3-20.8c3.1-7.6,5.6-15.4,8.2-23.2s5.4-15.7,7.9-23.7c1.1-3.7,1.9-7.4,3.2-11c0.7-2.3,1.9-4.3,3.6-6h0.2
					c0.3-0.1,0.5-0.3,0.6-0.6c0.6-0.4,1.2-0.7,1.8-1c0.7-0.3,0.5-1.4,0-1.7l1.1-0.4c0.7-0.3-0.5-1.8-1.1-1.5
					c-9.7,3.9-20.1,5.6-30.6,5c-9.2-0.6-18.1-2.8-27.1-4.6c-8.8-1.7-17.7-2.9-26.7-3.5c-9-0.6-18-0.5-26.9,0.1
					c-4.4,0.3-8.8,0.8-13.2,1.4c-4.2,0.6-8.7,1.5-11.5,5c-0.4,0.5,0.5,1.3,0.9,1.4c4.2,1.6,8.6,1.5,13,1.1
					c5.1-0.4,10.1-0.9,15.2-0.9c17.9,0.1,35.2,5.3,53,6.2c9.3,0.4,18.5-0.7,27.7-2L355.7-6.6z M326.1,23.4L326.1,23.4
					c1.1-3.1,2.6-6.1,4.2-8.9C328.7,17.4,327.3,20.3,326.1,23.4L326.1,23.4z"/>
				<path class="st8" d="M220,26.5c-6.5,0.4-13.9,0.2-19.5,4c-0.5,0.4,0,1.7,0.6,1.8c6.7,0.8,13.3-0.3,20-0.6c3.1-0.1,6.1,0,9.2,0.4
					c3.1,0.5,6.2,1.1,9.4,1.5c6,0.8,12,1,18,0.7c9.7-0.5,19.2-2.3,28.4-5.4c-4.4,3.8-8.2,8.4-10.9,13.5c-5.5,9.8-8.5,20.8-13.5,30.8
					c-2.6,5.2-5.8,10-9.6,14.4c-4.1,4.7-8.6,9.2-12.9,13.7c-0.4,0.5,0.4,1.9,1,1.6c7.9-3.2,14.5-8.7,20.4-14.7
					c4.7-4.8,9.2-10,12.4-16.1s4.5-12.4,6-18.8s3.5-12.9,7.5-18.5c3.9-5.5,9-9.9,15-12.9c0.3-0.1,0.2-0.6-0.1-1h0.1
					c0.6-0.2,1.1-2.3,0.5-2.1c-6.9,2.3-15,4.9-22.1,6.6c-6.3,1.6-12.7,2.6-19.1,2.9c-6.8,0.2-13.2-1-19.9-1.8
					C233.8,26.1,226.9,26,220,26.5z M293.5,25c-0.2,0.2-0.5,0.4-0.7,0.6v-0.1L293.5,25z M286.9,28.8c1.2-0.4,2.5-0.9,3.7-1.4l0,0
					l-3.2,1.9C287.3,29.1,287.1,29,286.9,28.8L286.9,28.8z"/>
				<path class="st8" d="M228.7,41c5.5,0.4,11,1.2,16.6,1.3c5.1,0.1,10.2-0.4,15.2-1.5l3.4-1.1c0.5-0.2,1-0.1,1.4,0.2
					c0.1,0.1,0.2,0.2,0.2,0.4c0.2,0.2,0.2,0.5-0.4,0.7c-1.2,0.3-2.4,0.6-3.6,0.8c-8.9,2.8-17.8,5.3-27.1,6.4
					c-10.4,1.2-21-0.5-31.3,2c-5.9,1.4-11.5,3.6-17.5,4.5c-0.4,0.1-2-0.3-1.2-0.9c8.3-6.5,18.2-10.8,28.6-12.4
					C218.2,40.7,223.5,40.5,228.7,41z"/>
				<path class="st8" d="M207.5,60.6c5.2-1.5,10.5-2.4,15.9-3.5c6-1.2,14.7-3.2,19.8-6.7c0.5-0.4-1,1.4-1.4,1.8
					c-0.3,0.2-0.6,0.4-0.9,0.6l-0.3,1.5l0.1,0.1c1.3-0.8,2.5-1.6,3.8-2.4c0.3-0.2,0.5,0,0.6,0.3c1.7-1.7,3.4-3.4,5.1-5.2
					c0.5-0.5,1.1,1.3,0.6,1.8C235.5,64.6,218.9,79,201,91.8c-2.5,1.8-4.9,3.5-7.5,5.2c-2.2,1.6-4.8,2.6-7.5,2.9
					c-0.7,0-0.9-1.3-0.6-1.7c5.1-8,11.3-15.1,18.5-21.2c6.3-5,13.1-9.4,20.2-13.2c-3,0.8-6.1,1.4-9.1,2c-4.9,0.9-9.7,2.1-14.4,3.5
					c-4.8,1.5-9.5,3.3-14.1,5.2c-5.3,2.2-10.5,4.6-15.7,7c-0.3,0.1-0.7-0.3-0.9-0.5c-1.4-1.4-0.4-2.8,1-3.7c2.2-1.5,4.5-2.9,6.9-4.2
					C187.1,67.8,197.1,63.6,207.5,60.6L207.5,60.6z"/>
				<path class="st8" d="M258.6,44.6l10.1-4.9c1.5-1.3,3.2-2.4,4.9-3.4c0,0,0.5,1.7,0,1.9c-5,2.8-9.2,6.9-12.1,11.9
					c-2.9,5-4,10.7-6.1,15.9s-5.6,9.6-9.6,13.7c-4.4,4.5-8.9,8.9-13.6,13s-9.7,8-15.4,10.5c-1.3,0.6-2.7,1.1-4.1,1.5
					c-1,0.4-2,0.3-2.9-0.2c-1.6-1.2-0.4-3.8,0.7-4.9c1.9-1.9,4.2-3.5,6.6-4.6c2.7-1.5,5.3-3.2,7.7-5.1c4.4-3.8,8.2-8.2,11.4-13.1
					c7.5-11,12.9-23.5,22.2-33.1C258.5,44,258.6,44.3,258.6,44.6z"/>
				<path class="st8" d="M287.8,43.8c2.2-5.3,5.6-10.1,9.2-14.6c4.1-5.2,8.5-10.3,14.1-14c0.2-0.1,0.6,0.2,1,0.5l1.2-0.5
					c1.5-1.6,3.4-2.7,5.5-3.3c0.4-0.1,1.5,1.1,1.5,1.1c-6.4,1.8-9.3,8.3-11,14.1s-3.4,11.9-5.7,17.7c-4.5,11.5-10.6,22.4-18,32.4
					c-4.4,5.9-9.4,11.9-16.2,15c-0.3,0.1-1.7-0.9-1.6-1.1c5.9-9.8,11.9-19.8,15.3-30.8C284.6,54.8,285.6,49,287.8,43.8z"/>
				<path class="st8" d="M356,81.2c-0.3-0.1-0.8-0.3-0.6-0.7c7.8-13.5,18.4-25.8,23-41c2.1-7,2.3-14,1.9-21.3s-1.2-14.4,0-21.5
					c1.3-7.8,5.1-15,10.9-20.5c0.5-0.2,1.1-0.2,1.5,0l0.5-0.2c0.6-0.5,1.3-1,2-1.4c0.5-0.3,2.3,0.3,1.6,0.7c-7,4.4-9.2,13-9.4,20.8
					c-0.3,9.2,0.8,18.3,0.7,27.5c0,7.8-1.3,15.6-4,23c-2.6,6.9-6.1,13.5-10.6,19.4c-2.5,3.4-5.3,6.6-8.4,9.6
					c-1.4,1.4-2.9,2.8-4.4,4.1S357.8,81.8,356,81.2z"/>
				<path class="st8" d="M381.7,64.5c6.8-10,8.2-22.4,9.2-34.2c0.6-7.1,1.1-14.2,1.6-21.3c0.5-6.7,0.9-13.4,1.7-20
					c0.6-5.2,2-10.2,4.1-15l0,0c-8.7,1.2-17.3,2.1-26,2.6c-7.7,0.5-15.4,0.8-22.9-1.2c-13-3.4-24.7-11.5-38.2-12.7
					c-3.9-0.3-7.8-0.1-11.7,0.3c-2,0.2-4,0.3-6,0.4c-1.5,0-3.7,0.3-5.1-0.7c-0.9-0.6-1.1-1.9-0.5-2.8c0.1-0.2,0.3-0.3,0.5-0.5
					c1.4-1.2,3.5-1.7,5.3-2c3.7-0.7,7.5-1.1,11.2-1.2c15.2-0.2,29.9,4.3,44.3,8.5s29.5,8.5,44.8,7.3c1.9-0.1,3.7-0.4,5.6-0.7h0
					l0.2-0.4c-9.5,0.4-18.9-1-27.8-4.1c-5.9-2-11.6-4.5-17.5-6.5c-6.2-2.2-12.5-3.9-18.9-5.5c-7.5-1.8-15-3.5-22.5-5.3
					c-0.4-0.1-0.9-1.6-0.6-1.8c5.1-4.5,12.6-2.6,18.6-1.4c6.3,1.3,12.6,2.9,18.8,4.8c6.3,1.9,12.5,4.2,18.6,6.7
					c6.3,2.6,12.2,5.7,19,7c6.4,1.2,15.4,1.6,21.8,2.4c-0.4-0.3-3.3-0.2-3.7-0.5c-9.3-1.3-18.2-4.4-26.9-7.9
					c-10.8-4.4-21.6-9-32.1-14.1c-2.7-1.3-5.4-2.7-8.1-4.2c-1.2-0.6-2.4-1.2-3.5-2c-0.7-0.5-1.7-1.2-1.6-2.2s1.2-1.2,1.9-1.4
					c1.2-0.4,2.4-0.6,3.6-0.7c2.4-0.1,4.7,0.2,7,0.8c5.2,1.4,10.3,3.8,15.2,6c5.3,2.3,10.4,4.8,15.6,7.4
					c10.2,5.1,20.1,10.8,29.7,16.9c4.3,2.2,4.5,1.4,5.7,1.5s-1,0.3-2.2,0.2l0,0v0.5l0.3,0.2l2.2-0.8c0.8-0.7,1.7-1.3,2.6-1.9
					s1.9,1.1,0.9,1.7c-5.6,3.6-9.8,9-12,15.2c-1.1,3.1-1.7,6.3-1.7,9.6c0,3.9,0.9,7.7,1,11.5s-0.9,7.8-1.3,11.7s-0.7,7.9-0.9,11.9
					c-0.5,7.4-1.1,15-3.8,22.1s-7.4,13.7-14.4,17C382.1,66.2,381.2,65.2,381.7,64.5z"/>
				<path class="st9" d="M223.7,61.5c1.5-1.1,3.1-2.2,4.8-3.1c26.6-14.7,47.2-25.8,74.6-40c14-7.3,28-14.4,42.1-21.5
					c14-7,28-14.1,42.2-20.7c15.7-7.3,31.8-13.8,48.5-18.2c1.3-0.3,4,2.9,2.6,3.3c-30.1,7.9-57.9,22.4-85.6,36.3
					c-28.3,14.2-56.5,28.8-84.4,43.7C252.8,49.7,240,56,224.4,64.6C223.3,65.2,220.9,63.8,223.7,61.5L223.7,61.5z"/>
				<path class="st4" d="M338.2,71.5c0,0,0,0.1,0,0.2c0,0,0,0,0.1,0c0.6,0.4,1.2,0.7,1.8,1c1.8,0.9,3.6,1.7,5.5,2.4
					c3,1.1,6.1,2,9.2,2.7c4.2,0.9,8.5,1.6,12.8,2c5.5,0.5,11.1,0.7,16.6,0.4c6.8-0.3,13.5-1,20.2-2.1c8.2-1.5,16.2-3.4,24.1-5.9
					c9.5-3,18.7-6.5,27.8-10.5c10.9-4.8,21.5-10.2,31.8-16.2c12.3-7,24.2-14.7,35.7-22.9c3.1-2.2,6.2-4.4,9.3-6.7
					c0.1-0.1,0.1-0.2,0-0.2c-1-1.4-2.1-2.8-3.1-4.3c-0.1-0.1-0.2-0.1-0.3,0c0,0,0,0,0,0c-0.9,0.8-1.9,1.6-2.8,2.4
					c-2.6,2.2-5.3,4.4-8,6.5c-4.1,3.2-8.4,6.3-12.7,9.4c-5.4,3.8-10.9,7.5-16.5,11c-6.4,4-13,7.8-19.7,11.4
					c-7.3,3.9-14.8,7.5-22.4,10.7c-8,3.4-16.1,6.3-24.4,8.7c-8.4,2.5-16.9,4.3-25.5,5.5c-8.7,1.2-17.6,1.6-26.4,1.1
					c-9-0.5-17.8-2-26.4-4.5c-2.2-0.7-4.3-1.4-6.4-2.1C338.3,71.4,338.2,71.4,338.2,71.5z"/>
				<path class="st3" d="M336.5,11.3c-2.7,2.2-5.2,4.7-7.4,7.4c-1.9,2.3-1,5.7-0.2,8.3c1.4,4,3.2,7.9,5.2,11.6
					c2,3.7,3.8,7.6,5.3,11.5c0.8,2.4,1.8,5.9-0.6,7.7c-0.7,0.7-1.6,1-2.6,1c-0.8-0.2-1.4-0.7-1.8-1.4c-0.5-1-0.9-2-1.1-3.1
					c-0.3-1.4-0.6-2.9-0.8-4.3c-0.5-3.5-0.9-7.1-1.4-10.7c-0.4-3.7-1.2-7.3-2.3-10.8c-0.5-1.5-2.1-5.2-4.1-3.1
					c-0.2,0.2-0.3,0.4-0.4,0.5c-0.5,0.8-0.9,1.7-1.3,2.6c-1.4,2.8-2.4,5.7-3.2,8.8c-1.3,5-1.6,10.2-0.9,15.3c0.6,4.2,1.9,8.2,3.7,12
					c1.4,2.8,3,5.4,4.9,7.9c0.8,1.1,1.8,2.2,2.8,3.1c1.5,1.5,3.5,2.5,5.6,2.8c2,0.1,3.9-0.4,5.7-1.4c1.5-0.7,3.1-1.8,4.9-2
					c0.6-0.1,1.2,0,1.7,0.4c0.6,0.7,0.2,1.8,0,2.6c-0.6,1.8-1.5,3.4-2.1,5.2c-1.2,3.5-1.7,7.3-1.3,11c0.2,2.9,1.3,5.7,3.1,8
					c2.1,2.4,4.9,4.1,7.5,5.7c2.8,1.8,5.9,3.1,9.2,3.9c5.2,1.4,10.6,1.6,15.9,0.8c2.2-0.4,4.3-1.1,6.2-2.2c1-0.5,3.2-1.9,2.3-3.3
					c-0.6-0.7-1.5-1.2-2.5-1.3c-1.5-0.4-3-0.8-4.5-1.3c-3-1.2-5.8-2.9-8.3-5c-2.8-2.5-5.3-5.3-7.4-8.4c-0.4-0.6-2.6-3.8-0.9-4.1
					c0.4,0,0.8,0,1.1,0.1c0.7,0.2,1,0.8,1.5,1.3c2.4,2.6,4.9,5,7.5,7.2c3.6,3.2,7.8,5.6,12.3,7.2c3,1,6.3,1.2,9.5,0.5
					c2.7-0.7,5.1-2,7.2-3.8c2-1.7,3.8-3.5,5.5-5.4c0.8-0.8,1.5-1.6,2.3-2.4c1.5-1.3,3-2.8,4.2-4.5c0.5-0.8,1.1-2.1,0-2.7
					c-0.3-0.2-0.7-0.2-1-0.3c-0.4,0-0.7,0.1-1.1,0.3c-4.4,1.8-9.3,2-13.9,0.7c-4.6-1.3-8.9-3.5-12.6-6.4c-3.3-2.4-5.9-5.5-7.9-9
					c-0.7-1.2-1.1-2.6-1.1-4.1c0-0.8,0.2-2,1.1-2.2s1.9,0.4,2.6,0.9c1.3,0.9,2.6,1.8,3.8,2.9c3.2,2.7,6.4,5.4,9.9,7.8
					s7.5,4.5,11.8,4.9c5,0.5,9.9-2,13.7-5c3.9-3,6.9-7,8.9-11.5c0.6-1.3,2.1-5.9-1-5.2c-0.7,0.2-1.3,0.5-1.9,0.8
					c-0.7,0.3-1.4,0.6-2.1,0.8c-1.9,0.4-3.8,0.7-5.8,0.7c-4.6,0-9.3-0.4-13.8-1.4c-3.8-0.6-7.5-1.8-11-3.5c-0.8-0.4-2-1.1-2.2-2
					s1.1-1.7,1.8-2c1.9-0.7,4-0.8,5.9-0.3c2.3,0.5,4.5,1.1,6.7,1.9c4.4,1.6,9,3.6,13.7,3.6c2,0.1,4-0.5,5.7-1.7
					c2.4-1.6,4.4-3.8,5.6-6.5c0.6-1.4,1-3.5-0.2-4.7c-1.5-1.5-4.1-0.5-5.6,0.3c-3,1.5-6.4,2.3-9.8,2.4c-2.6,0.1-5.3-0.5-7.5-1.9
					c-1.4-1-2.6-2.9-1.2-4.4c0.7-0.6,1.5-1.1,2.4-1.5c1.1-0.4,2.3-0.8,3.5-1.1c2.8-0.7,5.6-1.2,8.4-1.8c1.3-0.3,2.6-0.6,3.9-0.9
					c1.1-0.2,2.1-0.6,3.1-1c3.5-1.9,3.1-7.2,2.6-10.5c-0.3-1.9-0.7-3.8-1.2-5.7c-0.1-0.6-0.3-1.1-0.5-1.7c0-0.2-0.1-0.4-0.2-0.5
					c-0.2-0.2-0.5-0.3-0.7-0.5l-1.7-1.1c-1.9-1.1-3.8-2.2-5.7-3.2c-2.3-1.2-4.6-2.3-7-3.2c-2.1-0.9-4.3-1.4-6.5-1.6
					c-1.4-0.1-2.7,0.3-3.7,1.3c-1.2,1.2-2.1,2.6-2.8,4.2c-2,4-3.3,8.4-4.9,12.5c-0.7,2-1.6,3.9-2.5,5.8c-0.7,1.4-1.7,2.7-2.9,3.7
					c-1,0.7-2.2,0.7-3.2,0c-0.9-0.7-0.8-2.1-0.7-3.1c0.3-1.7,0.8-3.4,1.5-5c0.9-2,1.8-3.9,2.9-5.8c2.1-3.9,4.5-7.6,7-11.2
					c0.9-1.2,1.8-2.5,2.8-3.7c0.8-0.8,1.5-1.6,2-2.6c0.4-1.1,0-2.4-1-3c-1.8-1.3-4.3-1.6-6.4-1.7c-1.8-0.1-3.6-0.1-5.4,0.1
					c-0.7,0-1.4,0.2-2.1,0.4c-1.2,0.5-2.2,1.4-2.9,2.4c-2.1,2.8-3.2,6.3-4.1,9.7c-1.1,4.3-1.9,8.8-2.6,13.2
					c-0.7,4.2-1.3,8.4-2.3,12.6c-0.3,1.6-0.8,3.3-1.4,4.8c-0.4,1.1-1,2.2-1.7,3.1c-0.6,0.7-1.5,1-2.4,0.9c-0.9-0.3-1.6-1-1.8-1.9
					c-0.4-1.4-0.6-2.8-0.5-4.2c0-1.9,0.2-3.9,0.5-5.8c0.7-4.6,1.8-9.1,3.2-13.5c1.2-4.2,2.8-8.3,4.7-12.2c0.7-1.4,1.5-2.7,2.4-4
					c0.7-0.9,1.6-1.6,2.2-2.7c1.2-1.7,1.3-3.8,0.3-5.6c-1.4-2.1-4.2-2.5-6.5-2.3c-2.1,0.3-4.1,0.8-6.1,1.6c-2.8,1.2-5.5,2.6-8,4.3
					c-2.5,1.5-4.8,3.3-7,5.4c-1.6,1.7-3,3.5-4.2,5.6c-2,3.7-3.3,7.8-3.8,12c-0.4,3.7-0.5,7.5-0.2,11.3c0.2,2.5,0.6,5.1,0.6,7.7
					c0,0.4,0.1,1.3-0.3,1.6s-1-0.2-1.3-0.5c-3.5-2.9-4.5-7.4-4.4-11.7c0.1-4.9,1.5-9.7,2.6-14.4c0.5-1.9,2.1-7.5-1.5-7.4
					c-0.9,0.1-1.9,0.4-2.7,0.9C338.7,9.7,337.5,10.4,336.5,11.3z"/>
				<path class="st4" d="M365.9,79.7c1.4,1.8,3.1,3.4,4.8,4.8l0.1,0.1l0,0l0,0c1.5,0.7,5.6,2.2,5.6-0.8c-0.1-1.2-0.5-2.3-1.1-3.2
					c-0.7-1.3-1.6-2.4-2.7-3.4c-1.9-1.8-4.6-3.6-7.3-2.7S364.9,78.3,365.9,79.7z"/>
				<path class="st4" d="M357,6.6c-1,0.9-1.8,1.9-2.4,3c-1.1,1.8-2,3.6-2.7,5.6c0,0,0,0.1,0,0.1c-0.6,1.3-0.5,2.8,0.4,4
					c0.3,0.4,0.8,0.7,1.3,0.7c0.7,0,1.2-0.4,1.6-0.9c0.4-0.5,0.8-1,1.1-1.5l1.3-1.7c0.9-1.2,1.8-2.5,2.6-3.8
					c0.7-1.1,1.1-2.4,1.1-3.7c-0.1-1-0.8-1.9-1.7-2.3C358.7,5.7,357.7,6,357,6.6z"/>
				<path class="st4" d="M346.7,74.8c-0.2,0.2,0.9-0.3,1.7,0.6c0.5,0.5,0.6,1.3,0.3,1.9l0.6-0.5c1.5-1.5,23.7-22.9,49.7-40.2
					C381.4,47.5,354.7,65,346.7,74.8z"/>
				<path class="st10" d="M399,36.6c9.4-5.8,16.2-9.8,16.2-9.8C409.7,29.7,404.2,33.1,399,36.6z"/>
				<path class="st7" d="M460.8,114.7c-0.7-1.4-1.8-2.6-3.1-3.4c-1.8-1.2-3.9-1.8-6.1-1.7c-5.1,0-10,2-14.7,3.7
					c-1.3,0.5-2.5,0.9-3.8,1.3c-1.2,0.4-2.3,0.8-3.5,1c-1.8,0.3-3.6-0.1-5.1-1.1c-1.6-1.1-2.9-2.8-3.5-4.7c-1.3-5-3.3-9.9-5.8-14.4
					c-1.6-2.8-3.7-5.3-6.3-7.3c-1.4-1.2-3.2-1.8-5.1-1.9c-1.2,0-2.2,0.7-2.6,1.9c-0.2,1,0,2,0.3,2.9c0.6,1.6,1.3,3.1,2.2,4.5
					c2.7,4.5,5.6,8.8,8,13.5c0.4,0.6,0.7,1.3,0.8,2c0,0,0,0.1,0,0.1l-0.4-0.1c-1.7-0.9-3.2-1.9-4.6-3.2c-4.4-3.5-8.7-7.3-13.6-10.1
					c-1.5-0.8-3.4-1.9-5.1-1.5c-0.9,0.3-1.6,0.7-2.3,1.4c-0.6,0.5-1.1,1.1-1.4,1.8c-0.3,1.4,0.1,2.8,1.2,3.8c1.5,1.5,3.2,2.7,5,3.7
					c4.4,2.5,9.1,4.4,13.7,6.6c0.6,0.3,7.3,3.3,5.1,4.5c-0.8,0.4-1.7,0.5-2.6,0.5c-1.2,0-2.5-0.1-3.7-0.3c-3.2-0.6-6.3-1.4-9.4-2.5
					c-3.4-1.1-6.7-2.3-10-3.4c-2.9-1-5.8-1.9-8.8-2.6c-1.6-0.3-3.8-0.8-5.4,0c-1.4,0.7-1.4,2.4-0.5,3.6c1.5,1.9,4.4,2.7,6.6,3.3
					c3.3,0.9,6.8,1.4,10.2,2c3.2,0.4,6.3,1.2,9.4,2.2c1.1,0.3,2,0.8,2.9,1.5c0.2,0.2,0.7,0.6,0.5,1s-0.8,0.3-1.2,0.4
					c-0.9,0.1-1.8,0.2-2.6,0.2c-2.6,0.1-5.1,0-7.7-0.1c-5.8-0.2-11.7-0.5-17.4,0.3c-1.9,0.1-3.8,0.8-5.5,1.8c-0.5,0.4-1,0.9-1.2,1.6
					c-0.3,1.1-0.1,2.3,0.4,3.4c0.5,0.9,1.4,1.4,2.4,1.4c1.5,0,3-0.1,4.4-0.4c2.1-0.3,4.3-0.6,6.4-0.7c2.6-0.1,5.3,0.1,7.9,0.4
					c5,0.5,10.1,0.4,15.1,0.8c0.8,0.1,1.6,0.2,2.5,0.3c0.5,0.1,1,0.3,1.4,0.5c0.9,0.8-0.7,1.8-1.2,2.2c-1.7,0.8-3.5,1.3-5.4,1.5
					c-2.9,0.4-5.8,0.7-8.7,1c-6.8,0.6-13.6,1-20.4,1.9c-2.8,0.4-5.7,0.9-8.4,1.7c-1.9,0.5-3.7,1.4-5.3,2.7c-1,0.9-1.3,2.3-0.8,3.6
					c0.7,1.2,2.2,1.7,3.5,2c2.2,0.4,4.4,0.5,6.5,0.4c2.8-0.1,5.6-0.4,8.4-0.7c5.8-0.7,11.5-1.7,17.3-2.7c2.1-0.3,4.2-0.7,6.3-0.9
					c0.7-0.1,1.3-0.1,2-0.1c0.2,0,0.8,0,1,0.2c0.4,0.6-2.1,1.6-2.4,1.7c-2.7,1-5.5,1.6-8.3,1.9c-6.9,0.9-13.9,1.2-20.8,2
					c-2.6,0.2-5.3,0.7-7.8,1.5c-1.2,0.4-3.1,1.2-3.3,2.6s1.4,2.6,2.7,2.9c2.3,0.5,4.7,0.6,7,0.2c5.8-0.5,11.5-1.9,17.2-2.8
					c1-0.2,2.1-0.3,3.1-0.4c0.6-0.1,1.3,0,1.9,0.2c1.3,0.6-0.6,2.3-1.2,2.7c-2.2,1.5-4.6,2.5-7.2,3.1c-3.4,1-6.8,1.8-10.2,2.6
					s-6.9,1.5-10.3,2.4c-2.8,0.7-5.6,1.6-8.3,2.7c-1.5,0.7-3.5,1.7-4,3.4c-0.2,1-0.1,2.1,0.4,3c0.3,0.8,0.7,1.7,1.7,1.8
					c1.1,0,2.1-0.2,3.1-0.7c1.9-0.7,3.9-1.2,5.9-1.7c2.5-0.5,5.1-0.8,7.6-1.4s4.8-1.2,7.2-1.9c1.8-0.5,3.6-1.1,5.5-1.6
					c0.4-0.1,2.3-0.6,2.1,0.3c-0.2,0.6-0.5,1.1-1,1.4c-0.4,0.4-0.7,0.8-1.1,1.1c-1,1-2.1,1.9-3.2,2.8c-5.4,4.5-11.2,8.7-15.8,14.1
					c-1.4,1.6-3.3,3.8-3.3,6c0.1,1.7,1.6,2.9,3.2,2.8c0.1,0,0.2,0,0.3,0c2.2-0.3,4-2.1,5.5-3.6c1.9-2.1,3.8-4.4,5.5-6.7
					c0.8-1,1.6-2,2.5-3c0.5-0.7,1.1-1.2,1.9-1.6c1.6-0.7,1.6,2.4,1.4,3.2c-0.5,2.6-2.2,5-3.6,7.1c-1.9,2.8-4,5.5-5.9,8.3
					c-1.9,2.5-3.4,5.3-4.6,8.2c-0.8,2.2-1.2,4.8,0.2,6.9c1.2,1.7,3.1,2.9,5.2,3.1c1.7,0,3.2-0.7,4.4-1.9c1.5-1.5,2.7-3.3,3.6-5.2
					c1.1-2.3,2-4.8,2.8-7.2c1.6-5,2.8-10.1,4.2-15.2c0.4-1.6,0.9-3.2,1.6-4.7c0.1-0.2,0.2-0.4,0.4-0.6l0.1-0.1l0,0
					c0.2,0,0.5,0.3,0.6,0.6c0.7,1.3,1.1,2.6,1.4,4c0.4,1.7,0.6,3.4,0.8,5.2c0.4,3.5,0.6,7.1,1.2,10.5c0.1,1.2,0.5,2.4,0.9,3.5
					c0.3,0.6,0.8,1.2,1.5,1.1c1.9-0.2,2.5-2.4,2.6-4c0.1-3,0-6-0.5-9c-0.5-3.6-1-7.1-1.3-10.7c-0.2-2.6-0.5-5.7,0.6-8.2
					c0.3-0.7,0.9-1.6,1.7-1.8c0.6,0,1.2,0.3,1.5,0.9c0.5,0.8,0.8,1.8,1,2.7c0.3,1.3,0.6,2.7,0.7,4.1c0.5,3.3,0.7,6.7,1.1,10.1
					c0.3,3.2,0.9,6.4,1.7,9.5c0.5,1.7,1.2,3.9,2.9,4.7c0.8,0.5,1.8,0.4,2.5-0.3c0.9-0.9,1-2.4,0.9-3.5c-0.2-2-0.6-4-1.1-6
					c-1.4-6.5-3-13-4.2-19.5c-0.6-3.1-1-6.2-1.1-9.3c-0.1-1.9-0.2-4.3,0.9-6c0.9-1.4,2.5-0.9,3.5,0c1.6,1.6,2.5,3.9,3.3,6
					c2.2,6.1,3.4,12.6,5,18.9c0.6,2.6,1.4,5.2,2.5,7.6c0.5,1.2,1.4,3,2.9,3c2.4-0.1,2.8-2.8,2.7-4.7c-0.3-3.5-1-6.9-2.1-10.2
					c-1.5-4.9-3.5-9.7-5.1-14.7c-1.1-3.3-2-6.6-2.9-10c-0.8-2.8-1.3-5.7-1.4-8.6c-0.1-0.8,0.1-1.6,0.5-2.3c0.3-0.4,0.9-0.1,1.2,0.2
					c0.5,0.5,0.9,1.1,1.2,1.8c0.4,1,0.8,2,1.1,3.1c1.9,6.2,2.8,12.7,4.2,19.1c0.7,3.2,1.5,6.3,2.5,9.4c0.6,2.3,1.6,4.4,3,6.3
					c1.4,1.5,3.7,1.8,5.4,0.6c2.3-1.6,2.7-4.9,2.9-7.4c0.1-1.5,0-2.9-0.2-4.4c-0.1-1-0.4-2-0.9-2.9c-1-1.8-2-3.6-3-5.5
					c-3.4-6.6-6.5-13.7-7.9-21.1c-0.6-3.2-0.9-6.8,0.3-10c0.4-1,1.2-3.3,2.6-2.4s2,2.8,2.6,4.2c1,2.5,1.8,5,2.6,7.6
					c1.6,5.4,3,11,5.1,16.2c0.6,1.4,1.2,3.2,2.5,4.1c0.8,0.3,1.6,0.3,2.4,0c1.2-0.2,2.3-0.8,3.2-1.7c0.8-1.1,1.1-2.4,0.9-3.7
					c-0.4-2.3-1.3-4.5-2.5-6.4c-1.4-2.5-2.9-4.9-4.3-7.5c-1.7-3.3-3.3-6.6-4.7-10c-1.4-2.9-2.2-6.1-2.6-9.3
					c-0.1-1.2,0.3-4.6,2.3-3.4c0.8,0.6,1.4,1.3,1.8,2.2c0.7,1.2,1.2,2.5,1.7,3.9c1.2,3.1,2.3,6.2,3.8,9.2c1.1,2.2,2.6,5,5.1,6
					c1.5,0.7,3.3,0.1,4-1.4c0.1-0.2,0.2-0.5,0.3-0.8c0.2-1.3,0.2-2.6-0.1-3.8c-0.3-1.7-0.7-3.4-1.3-5c-1-3.2-2.5-6.3-4.5-9.1
					c-0.4-0.5-0.8-1-1.2-1.4c-0.3-0.2-0.5-0.4-0.7-0.7c-0.2-0.4,0-0.8,0.4-1c0.7-0.4,1.4-0.7,2.2-0.9c1.1-0.3,2.2-0.6,3.3-0.9
					c2.7-0.6,5.3-1.2,8-1.9c2.3-0.5,4.5-1.4,6.5-2.6C460.1,117.5,461.3,116.2,460.8,114.7z M384.6,185.7L384.6,185.7z"/>
				<path class="st2" d="M427,115.4c-0.4,0-0.8,0.1-1.1,0.3c-4.9,4.2-9.4,8.9-13.4,13.9c-4.3,5.3-8.3,10.8-11.9,16.6
					c-3.4,5.2-6.6,10.6-9.7,16.1c-2.3,4.1-4.5,8.2-6.6,12.4c-0.6,1.3-1.3,2.6-1.9,3.9l-0.6,1.2c-0.1,0.2-0.2,0.4-0.3,0.6
					c0,0,0,0.1,0,0.1c-0.1,0.2,0.5,0.1,0.6,0.1s0.9-0.1,1-0.3c0.7-1.6,1.5-3.1,2.2-4.6c2-3.9,4.1-7.9,6.2-11.7
					c3-5.3,6-10.6,9.3-15.7c3.6-5.7,7.5-11.3,11.6-16.6c4-5.2,8.4-10,13.2-14.4c0.6-0.5,1.1-1,1.7-1.5
					C427.7,115.4,427.2,115.4,427,115.4z"/>
				<path class="st1" d="M190.4,750.5c-2.3,2.8-4.2,5.9-5.9,9.1c-1.4,2.7,0.2,6,1.5,8.4c2.3,3.7,4.9,7.3,7.7,10.6
					c2.9,3.3,5.5,6.8,7.8,10.5c1.3,2.2,3.1,5.6,1.1,7.9c-0.6,0.8-1.4,1.4-2.4,1.6c-0.8,0-1.6-0.4-2.1-1c-0.7-0.9-1.4-1.9-1.8-2.9
					c-0.6-1.4-1.2-2.8-1.7-4.2c-1.3-3.5-2.4-7-3.7-10.5c-1.2-3.6-2.7-7.1-4.6-10.4c-0.8-1.4-3.2-4.8-4.8-2.2
					c-0.1,0.2-0.2,0.4-0.3,0.6c-0.3,0.9-0.5,1.9-0.8,2.9c-0.8,3.1-1.2,6.3-1.4,9.5c-0.4,9.7,2.6,19.3,8.7,26.9
					c2,2.5,4.2,4.8,6.7,6.9c1.1,0.9,2.2,1.8,3.5,2.5c1.9,1.2,4.1,1.8,6.3,1.6c2-0.4,3.9-1.3,5.4-2.6c1.4-1.1,2.8-2.5,4.5-3.1
					c0.6-0.3,1.3-0.2,1.8,0.1c0.7,0.6,0.6,1.8,0.6,2.6c-0.2,1.9-0.8,3.8-1.1,5.7c-0.5,3.8-0.1,7.7,1,11.4c0.8,2.9,2.5,5.5,4.8,7.5
					c2.6,2,5.8,3.1,8.9,4.2c3.2,1.2,6.7,1.9,10.1,2c5.6,0.2,11.1-0.6,16.3-2.6c2.1-0.8,4.1-2,5.9-3.6c0.8-0.8,2.8-2.6,1.6-3.8
					c-0.8-0.6-1.8-0.9-2.8-0.8c-1.6,0-3.2-0.1-4.9-0.4c-3.3-0.6-6.5-1.7-9.5-3.3c-3.4-1.9-6.5-4.2-9.2-6.9c-0.5-0.5-3.4-3.2-1.8-3.9
					c0.4-0.1,0.8-0.2,1.2-0.1c0.7,0,1.2,0.6,1.8,1c2.9,2.1,6,4,9.1,5.7c4.3,2.5,9.1,4.1,14,4.7c3.3,0.4,6.7-0.2,9.7-1.6
					c2.5-1.3,4.7-3.2,6.5-5.4c1.6-2.1,3.1-4.3,4.4-6.6c0.6-1,1.1-2,1.8-3c1.1-1.8,2.5-3.4,3.3-5.4c0.3-0.9,0.6-2.3-0.5-2.7
					c-0.3-0.1-0.7-0.1-1,0c-0.4,0.1-0.7,0.3-1,0.5c-4.1,2.8-9,4.1-13.9,3.7c-4.9-0.3-9.7-1.6-14.2-3.8c-3.8-1.7-7.2-4.2-9.9-7.4
					c-1-1.1-1.7-2.4-2-3.9c-0.1-0.8-0.2-2.1,0.6-2.5s2,0,2.8,0.3c1.5,0.6,3,1.3,4.4,2.1c3.8,2,7.6,4.1,11.6,5.8s8.5,3,13,2.4
					c5.2-0.6,9.6-4.1,12.8-8.1c3.2-3.9,5.5-8.5,6.6-13.5c0.3-1.5,0.9-6.5-2.1-5.1c-0.6,0.4-1.2,0.8-1.8,1.3c-0.6,0.5-1.3,0.9-2,1.2
					c-1.8,0.8-3.7,1.5-5.7,1.9c-4.7,1-9.4,1.6-14.2,1.6c-3.9,0.1-8.1,0-11.9-1.1c-0.9-0.3-2.2-0.7-2.6-1.6s0.7-1.9,1.4-2.4
					c1.8-1.1,3.8-1.6,5.9-1.6c2.4,0,4.8,0.1,7.2,0.5c4.8,0.6,9.8,1.6,14.6,0.7c2.1-0.4,4-1.4,5.4-2.9c2.1-2.1,3.6-4.8,4.3-7.8
					c0.3-1.5,0.3-3.8-1.2-4.7c-1.8-1.2-4.2,0.4-5.6,1.5c-2.8,2.2-6,3.7-9.4,4.5c-2.6,0.6-5.5,0.8-8-0.3c-1.6-0.7-3.3-2.4-2.2-4.2
					c0.6-0.8,1.3-1.5,2.1-2c1-0.7,2.1-1.3,3.2-1.9c2.6-1.3,5.4-2.5,8.1-3.7c1.2-0.6,2.5-1.1,3.7-1.8c1-0.5,2-1,2.9-1.7
					c3.1-2.7,1.6-8,0.4-11.2c-0.7-1.9-1.5-3.7-2.4-5.5c-0.3-0.5-0.6-1.1-0.9-1.6c-0.1-0.2-0.2-0.4-0.3-0.5c-0.3-0.1-0.5-0.2-0.8-0.3
					l-2-0.7c-2.1-0.7-4.3-1.4-6.5-2c-2.5-0.7-5.1-1.3-7.8-1.7c-2.3-0.4-4.6-0.5-6.9-0.2c-1.4,0.2-2.7,0.9-3.5,2.1
					c-0.9,1.5-1.6,3.1-1.9,4.8c-1.1,4.5-1.5,9.2-2.2,13.7c-0.3,2.2-0.7,4.3-1.3,6.5c-0.4,1.6-1.1,3.1-2.2,4.4
					c-0.8,0.9-2.1,1.2-3.2,0.7c-1-0.6-1.3-1.9-1.4-3c-0.1-1.8,0.1-3.6,0.5-5.3c0.4-2.2,1-4.4,1.6-6.5c1.3-4.4,2.9-8.7,4.8-12.8
					c0.6-1.5,1.3-2.9,2-4.3c0.7-0.9,1.1-1.9,1.5-3c0.2-1.2-0.5-2.4-1.6-2.8c-2.1-1-4.7-0.7-6.9-0.3c-1.9,0.3-3.7,0.7-5.5,1.3
					c-0.7,0.2-1.4,0.5-2,0.9c-1.1,0.8-1.9,1.9-2.5,3.1c-1.6,3.3-1.9,7.1-2.1,10.7c-0.2,4.7-0.1,9.3,0.1,13.9
					c0.2,4.4,0.4,8.8,0.4,13.2c0,1.7-0.1,3.5-0.4,5.2c-0.1,1.3-0.5,2.5-1.1,3.6c-0.4,0.8-1.3,1.4-2.2,1.4c-1-0.1-1.8-0.7-2.3-1.6
					c-0.7-1.3-1.2-2.7-1.4-4.2c-0.4-2-0.6-4-0.7-6c-0.2-4.8-0.1-9.6,0.3-14.4c0.3-4.5,1.1-9,2.1-13.4c0.4-1.6,0.9-3.1,1.6-4.6
					c0.6-1,1.2-2.1,1.7-3.2c0.8-1.9,0.5-4.2-0.9-5.8c-1.9-1.9-4.8-1.6-7.1-0.9c-2.1,0.7-4,1.7-5.8,3c-2.6,1.8-5,3.9-7.2,6.1
					c-2.2,2.1-4.2,4.5-5.8,7c-1.3,2-2.3,4.2-3,6.5c-1.3,4.2-1.7,8.6-1.3,13c0.4,3.9,1.1,7.7,2.2,11.5c0.7,2.5,1.7,5,2.3,7.6
					c0.1,0.4,0.4,1.3,0.1,1.7s-1.1,0-1.4-0.2c-4.2-2.1-6.2-6.5-7-10.9c-0.9-5-0.6-10.1-0.4-15.1c0-2,0.6-8-3.1-7.1
					c-0.9,0.3-1.8,0.8-2.5,1.5C192.3,748.5,191.3,749.5,190.4,750.5z"/>
				<path class="st11" d="M234.8,813.2c1.8,1.5,3.8,2.8,5.9,3.8l0.1,0.1l0,0h0.1c1.6,0.3,6.1,1,5.5-2c-0.3-1.1-1-2.2-1.8-3
					c-1-1.1-2.2-2.1-3.4-2.9c-2.3-1.4-5.4-2.7-7.9-1.1S233.4,812.1,234.8,813.2z"/>
				<path class="st11" d="M210.2,741.3c-0.8,1.1-1.4,2.3-1.8,3.6c-0.7,2-1.2,4.1-1.5,6.2c0,0,0,0.1,0,0.1c-0.4,1.5,0.1,3,1.3,4
					c0.4,0.3,1,0.5,1.5,0.4c0.6-0.2,1.2-0.7,1.4-1.3c0.3-0.6,0.5-1.2,0.8-1.8s0.6-1.3,0.9-2c0.7-1.5,1.3-3,1.8-4.5
					c0.5-1.3,0.6-2.6,0.3-3.9c-0.3-1-1.2-1.8-2.3-2C211.7,740,210.8,740.5,210.2,741.3z"/>
				<path class="st11" d="M214.3,812.5c0.6-0.2,1.3-0.1,1.9,0.2c0.6,0.4,0.9,1.2,0.7,1.9l0.5-0.6c1.2-1.8,19.1-28.3,41.7-51.4
					C243.5,777.4,220.3,800.9,214.3,812.5z"/>
				<path class="st11" d="M259,762.5c8.3-8,14.3-13.5,14.3-13.5C268.4,753.3,263.6,757.8,259,762.5z"/>
				<path class="st12" d="M151,766.1c-17.9-2.8-35.9,0.5-53.8,1.2c-18.3,0.7-36.6,0.1-54.8-0.5c-1.5,0-0.1,1.6,0.3,1.9
					c1.2,1,2.6,1.6,4.1,1.7c18,0.6,36,1.2,53.9,0.5c17.8-0.7,35.9-4,53.6-1.3c1.2,0.2,1.5-0.6,0.7-1.5
					C154,767,152.6,766.3,151,766.1L151,766.1z"/>
				<path class="st13" d="M127.1,763.4l-8.8,0.5c1.7-0.9,3.6-1.5,5.3-2.2c0.8-0.3,0.1-0.8-0.5-0.5c-2.1,0.8-4.1,1.6-6.1,2.6
					c-0.3-0.4-0.6-0.7-0.9-1c-0.8-0.9-1.6-1.9-2.4-2.8c-3.1-3.6-6.5-7.1-9.5-10.8c-0.2-0.2-0.8,0-0.6,0.3c2.7,3.3,5.7,6.5,8.5,9.7
					c1.3,1.5,2.5,3.5,4,4.7c0.1,0.1,0.2,0.2,0.2,0.3l0,0c-0.3,0.1-0.9,0.2-1,0.3c-1,0.3-1.9,0.7-2.9,1c-0.4,0.2,0,0.4,0.3,0.3
					c1.2-0.3,2.5-0.7,3.7-1.1h0.1l6.5,1.7c0.3,0.1,1.5-0.4,1-0.5l-5-1.3l7.5-0.5C127,764,128,763.4,127.1,763.4z"/>
				<path class="st13" d="M110.4,761.2l-8.9,0.5c1.7-0.9,3.6-1.5,5.3-2.2c0.8-0.3,0.1-0.8-0.5-0.5c-2.1,0.8-4.1,1.6-6.1,2.6
					c-0.3-0.4-0.6-0.7-0.9-1c-0.8-0.9-1.6-1.9-2.4-2.8c-3.1-3.6-6.5-7.1-9.5-10.8c-0.2-0.2-0.8,0-0.6,0.3c2.7,3.3,5.7,6.5,8.5,9.7
					c1.3,1.5,2.5,3.5,4,4.7c0.1,0.1,0.2,0.2,0.2,0.3l0,0c-0.3,0.1-0.9,0.2-1,0.2c-1,0.3-1.9,0.7-2.9,1c-0.4,0.2,0,0.4,0.3,0.3
					c1.2-0.3,2.5-0.7,3.7-1.1h0.1l6.5,1.7c0.3,0.1,1.5-0.4,1-0.5l-5-1.3l7.5-0.5C110.3,761.8,111.2,761.1,110.4,761.2z"/>
				<path class="st13" d="M127.6,719.2c-0.2-2.8-0.2-5.7,0.1-8.5v-0.1l-12.7-9.7c-0.6-2.1-1.8-4-3.4-5.5c-1.7-1.5-2.3-3.8-1.7-6
					c0.4-1.2,1.6-2.7,4.5-2.7v-0.4c-0.2,0-4.6-0.8-7.1,1.8c-1.5,1.5-2,3.8-1.5,6.8c0.5,3.2,0.8,4,1.1,4.6c0.5,4-2.9,5.3-10.8,7.2
					c-0.7,0.2-1.6,0.4-2.5,0.6c-7.3,1.6-19.6,4.4-25.5,14.9c-4.5,8.2-4.3,19.6,0.7,33.9c-1.2,1-11.8,10-22.2,19.2
					C24.6,795,25.2,796.4,25.4,797c0.1,0.2,0.2,0.3,0.7,0.3c3.7-0.3,13.5-8.5,20-14.4c-1.6,1.7-3.4,3.6-5.1,5.6
					c-7.4,8.3-10.6,13.5-9.7,15.3c0.4,0.7,1.2,0.9,2.7,0.7c7.8-1.3,15.5-14.3,19.6-22.6c-0.9,2.3-1.8,5-2.8,7.7
					c-3.2,9.5-4.2,15.1-2.9,16.6c0.2,0.3,0.6,0.5,1,0.4c0.2,0,0.4,0,0.5-0.1c6.4-1.7,20.4-42.8,22-47.5c1.8,1.9,4.2,3,6.8,3.3
					c9.5,1.4,21.1-5.7,29.2-11.9C128.4,734.4,128,727.7,127.6,719.2z"/>
				<path class="st14" d="M102.1,736.7c-0.7,2.5-1.7,4.9-3,7.1c-0.4,0.7-1.5,3-2.4,1.9c-0.5-0.6,0.4-3.5,0.5-4.3
					c0.1-0.5-1.2-0.2-1.3,0.2c-0.3,0.7-2.1,5.7-2.9,5.7c-1.4-0.1,0.5-4.4,0.8-5c0.2-0.4-1.1-0.1-1.2,0.1l-2.4,3.3
					c-0.7,0.9-1.5,2.7-2.4,3.3c-1.8,1.3-0.2-1.4,0.1-2.1c0.8-1.5,1.7-2.8,2.8-4.1c0.3-0.4-1-0.3-1.2,0c-1.8,2.3-3.3,4.8-4.2,7.5
					c0,0.1,0,0.2,0.1,0.2c1.2,0.3,2.4-0.1,3.2-1c1-1.1,1.9-2.2,2.7-3.4c-0.3,1.3-0.1,2.4,1.2,2.3s2.2-1.2,3-2.6
					c0.1,0.9,0.9,1.5,1.8,1.4c0.3,0,0.6-0.2,0.8-0.4c1.4-0.8,2.2-2.7,3-4c1.1-2,1.9-4.1,2.6-6.3
					C103.5,736.2,102.2,736.3,102.1,736.7z"/>
				<path class="st14" d="M72.1,758.2c-0.2-0.8-1.6-1.8-2.2-2.4c-0.2-0.2-0.7-0.1-1,0.1h-0.1c-3.3,2.7-6.9,5.4-9.7,8.7
					c-0.7,0.8-1.3,1.8,0.3,1.6c1-0.2,1.9-0.6,2.6-1.2c-0.8,1.5-1.4,3-0.2,3.2c1.1,0,2.2-0.5,2.8-1.4c0,0.3,0,0.6,0,0.8
					c0,2.1,2,1.7,3.3,0.7c2.4-1.7,3.3-5.2,3.8-8C72,759.6,72.1,758.9,72.1,758.2z"/>
				<path class="st14" d="M128.8,696.9c-0.6-1.6-1.4-3.4-3.2-4c-1.5-0.4-3.1,0.1-4.2,1.1c-0.1,0-0.1,0.1-0.1,0.1
					c-1.8,1.8-3.8,3.1-5.7,4.7c-1.2,0.9-1.6,2.6-1,4c0.7,1.4,1.9,2.6,2.7,4c1.1,1.9,1.8,4,2.3,6.1c1.1,5.1-0.5,9.9-0.7,15.1
					c-0.1,1.7-0.2,4.6,1.4,5.7c3,2,5.3-2.4,6.1-4.5c2.5-6.4,3.9-13.2,4.2-20.1C130.8,705,130.2,700.9,128.8,696.9z"/>
				<path class="st15" d="M142,646.5c-19.8,5.8-33.3,36.8-35.7,42.8c-0.4,0.9-0.6,1.8-0.8,2.8c-0.1,0.9-0.1,1.8,0.4,1.9
					c6.1,1,12.3,0.5,18.2-1.2l24.9-43.4l3.7-0.2C149.8,646.6,145.8,645.5,142,646.5z"/>
				<path class="st16" d="M152.8,649.2c-2.9-2.7-7-3.7-10.8-2.8c-3,0.9-5.8,2.3-8.3,4.1c-1.8,1.2-3.2,2.9-4,4.8
					c-0.7,1.7-0.7,3.2-0.1,4.2s2.3,1.9,4.7,2h0.1c0.9,0,8.1-0.5,8.3-1l6.1-10.6c0.1-0.2,0.4-0.4,0.7-0.4L152.8,649.2L152.8,649.2z"
					/>
				<path class="st15" d="M156.6,654.1c-10,4-32.4,38.8-32.4,38.8l5,7.1l27.4-44.4l2.5-0.6L156.6,654.1z"/>
				<path class="st16" d="M135,690.2c-0.3-0.3-1.2,0.4-1.4,0.5c-1.5,1-2.5,2.3-4.2,2.9c-1.6,0.4-3.4,0.1-4.8-0.8h-0.1
					c-0.3-0.1-0.7-0.1-1,0.1c0,0-0.1,0.1-0.1,0.1c0.8,1.5,1.7,3,2.7,4.4c0.6,0.8,1.7,2.5,2.8,2.6c0.7,0,1-0.4,1.3-1
					c1-1.5,2-3.1,2.9-4.7C133.4,693.8,135.6,690.9,135,690.2z"/>
				<path class="st17" d="M120.3,687.6c-0.1,0-2.3-1.2-2.3-1.2c-1.5-0.2-15.7-1.7-10.8,10C112.4,708.8,134.6,692.6,120.3,687.6z"/>
				<path class="st16" d="M122.3,687.8c-3.7-1.7-7.9-2.2-11.8-1.3c-4.1,0.9-6.2,3.6-4.4,9.5c0.1,0.3,0.7-0.8,0.6-1
					c-1.1-2.8-0.4-6.5,2.6-7.7c3.6-1.4,8.9-0.7,12.3,1.2c1.5,0.8,2.7,4.2,2.9,6.5c0,0.3,0.6-0.9,0.7-1.2
					C126.4,690.2,124,688.7,122.3,687.8z"/>
				<ellipse class="st18" cx="114.7" cy="693.5" rx="2.3" ry="2.2"/>
				<path d="M115,693c-0.6-0.2-1.3-0.3-1.4,0s0.4,0.8,1,1s1.3,0.3,1.4,0S115.7,693.3,115,693z"/>
				<path class="st15" d="M354.7,81.1c-0.9-0.5-1.8-0.9-2.8-1.2c-6.5-1.9-40.5-10.9-58.2,1.6c0,0-6.5,3.3-5.8,10.2l3.7-2.4l51.7,7.6
					c5.3-3.7,9.6-8.5,12.8-14.1C356.3,82.2,355.5,81.6,354.7,81.1z"/>
				<path class="st16" d="M310.9,79.7c-0.4-1.2-1.6-2.1-3.5-2.7c-2.1-0.6-4.4-0.6-6.5,0.1c-3.1,0.9-6,2.4-8.7,4.2
					c-3.3,2.5-5,6.6-4.7,10.7v0.1l2.3-2.7c0.2-0.2,0.5-0.3,0.8-0.3l12.7,1.9c0.6,0.1,6-5.8,6.3-6.2l0,0
					C310.9,82.8,311.3,81,310.9,79.7z"/>
				<path class="st19" d="M342.1,88h-0.1c-0.1,0-10.9-1-22.8-1.4c-15.9-0.4-26.1,0.5-30.2,2.9l0,0l-2.1,3.3l3.6-1.9l54.4,6.3
					L342.1,88z"/>
				<path class="st13" d="M341.8,96.8l-1.7-3.4c0-0.1-0.1-0.1-0.1-0.1c-0.1,0-0.1,0-0.2,0c-0.2,0.1-3.9,1.5-6.4,2.4
					c-0.1,0-0.2,0.2-0.1,0.3c0,0.1,0.1,0.2,0.2,0.2l0,0l8.1,0.9c0.1,0,0.2,0,0.2-0.1C341.8,97,341.8,96.9,341.8,96.8z"/>
				<path class="st13" d="M395,129.1c-4.3-8.2-18.8-13.4-21-22.2c-0.2-1.4-0.2-2.9,0.2-4.3c0.7-3.3,0.6-6.7-0.4-9.9
					c-2.8-7.8-9.4-12.1-17.1-13.8c-5.2-1.2-9.3,2.3-12.4,6.3c-2.1,2.7-5.5,8.5-3.2,11.8c0.5,0.6,1,1.2,1.6,1.7
					c3.4,3.2,5.6,7.4,6.2,12c0.6,4.5-0.8,8.7-1.4,13.1c-1.2,8.2-2.8,16.6-2,24.9c0.8,8.6,7.8,25.1,17.9,26.5c0.2,0,0.4,0.2,0.5,0.4
					c0.1,0.2,0.1,0.4,0,0.6c-2.3,4.1-8.2,14.6-13.4,25.1c-6.6,13.5-9.3,21.6-8.1,24.1c0.2,0.6,0.7,0.9,1.3,0.9
					c3.9,0,13-17,16.9-24.7c-2.8,8.5-9,29.5-5.9,34.5c0.6,1,1.3,1.6,2,1.6c0.1,0,0.2,0,0.3,0c4.5-1.1,7-28.2,7.6-36
					c1,6,4.2,22.9,9.3,23.4c0.5,0.1,1.1-0.1,1.4-0.6c3-3.4-1.3-22.3-4.5-36.2c-1.4-6.3-2.5-11.2-2.6-12.9c0-0.3,0.1-0.5,0.2-0.5
					c15.7-2.3,25.8-7.6,30-15.8C404.6,147.5,397.4,133.6,395,129.1z"/>
				<path class="st14" d="M368.5,174.8c0-0.2-0.5-0.2-0.8-0.1c-2,0.3-3.4,0.1-4.4,2c-1.5,2.7-3.6,6.8-2.3,9.9c0.8,2,2.6,1.7,3.6,0.1
					c0,0,0-0.1,0-0.1c0,1.6,0.4,3,1.5,3.1c1,0.1,1.5-0.6,1.8-1.7c0.2,0.8,0.7,1.4,1.3,1.9c1.2,0.7,1.7-0.5,1.7-1.5
					C370.8,184,369.5,179.2,368.5,174.8z"/>
				<path class="st14" d="M387.3,133.6c-0.1-0.4-1.6-0.1-1.5,0.4c0.6,3.6,0.7,7.2,0.3,10.8c-0.1,1.1-0.2,4.4-1.6,1.9
					c-0.7-1.2-0.9-3.2-1.2-4.5c-0.1-0.5-1.6-0.1-1.5,0.4c0.1,1.2,0.2,2.4,0.1,3.6c0,0.9,0.2,3.9-0.4,4.7c-0.4,0.4-0.3-0.1-0.5-0.6
					c-0.2-0.6-0.3-1.2-0.4-1.8c-0.2-1.3-0.4-2.7-0.5-4c0-0.4-1.5-0.1-1.5,0.3c-0.3,2-0.6,4-1,6c-0.1,0.9-0.2,4.4-0.9,5
					c-0.5,0.4-0.2,0.2-0.3-0.6c-0.1-1.2-0.1-2.3,0-3.5c0.1-1.8,0.3-3.5,0.7-5.3c0.1-0.5-1.4-0.2-1.5,0.2c-0.8,3.5-1,7.2-0.6,10.8
					c0,0.2,0.4,0.2,0.5,0.2c1.3,0.1,2.5-0.8,2.8-2.1c0.5-1.5,0.8-3.1,1-4.7c0.4,1.1,1.2,1.8,2.4,1.4s1.4-1.8,1.5-2.9
					c0.1-0.6,0.1-1.2,0.2-1.7c0.7,1.2,1.7,1.8,3.2,0.6s1.2-4.6,1.3-6.2C387.9,139.4,387.8,136.5,387.3,133.6z"/>
				<path class="st17" d="M358.3,85c-6.4-11.6-14.5,1.1-15.4,2.5c0,0.1-0.5,2.6-0.6,2.7C337.2,105.2,365,97.2,358.3,85z"/>
				<path class="st16" d="M358.8,83.5c-2.2-3.4-6.7-4.6-10.3-2.7c-3.7,2.1-6.3,5.6-7.5,9.6c-0.6,2.6-0.1,5.3,1.3,7.4
					c0.2,0.3,1.5,0,1.3-0.2c-2.9-4.7-1.1-9.4,2.3-13.5c2.5-2.9,5.9-5.1,9.4-2.5c0.8,0.6,1.6,1.3,2.1,2.2
					C357.6,84.1,359,83.8,358.8,83.5z"/>
				<path class="st18" d="M349.4,91.3c1,0.8,2.5,0.6,3.3-0.5c0.8-1,0.6-2.5-0.5-3.3c-1-0.8-2.5-0.6-3.3,0.5c0,0,0,0,0,0
					C348.2,89,348.4,90.5,349.4,91.3C349.4,91.3,349.4,91.3,349.4,91.3z"/>
				<path d="M350.2,89.4c0.2-0.7,0.5-1.3,0.9-1.2s0.4,0.8,0.2,1.5s-0.5,1.3-0.9,1.2S350,90.1,350.2,89.4z"/>
				<path class="st14" d="M363.3,87.2c-1.2-0.5-2.6-0.2-3.5,0.7c-2.5,2.2-2.3,6-5,8c-1.7,1.1-3.6,1.6-5.6,1.5c-1,0-2.2-0.2-3,0.5
					s-0.7,1.4-0.4,2.3c0.9,2,2.3,3.8,3.1,5.8c2.5,4.6,7.9,2.7,11-0.2s4.7-7.5,5.3-11.8C365.4,92,365.9,88.5,363.3,87.2z"/>
			</g>
		</g>
	</g>
</g>
</svg>
