<svg xmlns="http://www.w3.org/2000/svg" viewBox="0 0 833.36 758.12"><defs><style>.cls-1{fill:#c97946;}.cls-2{fill:#806f51;}.cls-3{fill:#998b72;}.cls-4{fill:#ffdea6;}.cls-5{fill:#b56d3f;}.cls-6{fill:#a16138;}.cls-7{fill:#d3bdaf;}.cls-8{fill:#b8a498;}.cls-9{fill:#d33541;}.cls-10{fill:#855027;}.cls-11{fill:#494949;}.cls-12{fill:#c7e4eb;}.cls-13{fill:#f2f2f2;}.cls-14{fill:#fff;}</style></defs><g id="圖層_2" data-name="圖層 2"><g id="Layer_1" data-name="Layer 1"><path class="cls-1" d="M273.36,279.73a12.48,12.48,0,0,1-11.58-7.8c-.8-2-19.7-49.6-19.7-132.28,0-42.18,5.54-69.78,18.53-92.27,10-17.28,24.46-36,56.23-44.2,33.64-8.63,64.48.49,84.61,25,19.71,24,25.1,58.26,13.09,83.22-13.34,27.73-42.32,36.25-63.62,32.44-21.79-3.91-36.54-19.3-38.5-40.17a12.5,12.5,0,1,1,24.89-2.34c1.27,13.46,13,17,18,17.9,12.26,2.2,29-2.7,36.67-18.67s3.43-40.28-9.89-56.53c-8.05-9.82-26.43-25-59.07-16.66-21.54,5.53-31.57,16.53-40.79,32.49-10.64,18.42-15.18,42.27-15.18,79.76,0,77.36,17.7,122.47,17.88,122.92a12.51,12.51,0,0,1-11.6,17.16Z"/><path class="cls-2" d="M133.66,656.35c16.42,58.08,120.92,50.7,120.92,50.7s104.5,7.38,120.92-50.7Z"/><path class="cls-3" d="M247,726.82a49,49,0,0,1-16.45,22.63c-24.6,18.47-66.3,1.67-66.3,1.67s3-44.9,30.25-59a47.65,47.65,0,0,1,22.1-5.28,62.54,62.54,0,0,1,18.25,2.9,68.58,68.58,0,0,1,15.87,7v0A70.38,70.38,0,0,1,247,726.82Z"/><path class="cls-3" d="M344.91,751.12s-41.73,16.8-66.3-1.67a48.78,48.78,0,0,1-16.4-22.5,70.82,70.82,0,0,1-3.78-30.15v0a70,70,0,0,1,16.3-7.2,62.47,62.47,0,0,1,17.8-2.75,47.65,47.65,0,0,1,22.1,5.28C342,706.22,344.91,751.12,344.91,751.12Z"/><path class="cls-2" d="M250.73,696.8a70.38,70.38,0,0,1-3.72,30c-11.55-2.75-20-11.32-20-21.5,0-6.07,3-11.55,7.83-15.6a68.58,68.58,0,0,1,15.87,7Z"/><path class="cls-2" d="M282.73,705.32c0,10.33-8.7,19-20.52,21.63a70.82,70.82,0,0,1-3.78-30.15v0a70,70,0,0,1,16.3-7.2C279.68,693.65,282.73,699.2,282.73,705.32Z"/><circle class="cls-3" cx="254.88" cy="703.44" r="24.29" transform="translate(-154.8 77.38) rotate(-13.28)"/><path class="cls-2" d="M227.15,703.44a55,55,0,0,0-10,1.84,69.41,69.41,0,0,0-9.46,3.35,83.16,83.16,0,0,0-8.93,4.65c-2.91,1.72-5.7,3.64-8.59,5.57,1.11-1.32,2.3-2.58,3.52-3.83a47.42,47.42,0,0,1,4-3.36,46.82,46.82,0,0,1,9-5.32,43.2,43.2,0,0,1,10.06-3A28.68,28.68,0,0,1,227.15,703.44Z"/><path class="cls-2" d="M230.59,715a20.46,20.46,0,0,1-2.51,7.56,33.57,33.57,0,0,1-4.64,6.52,36.94,36.94,0,0,1-6,5.21,31.8,31.8,0,0,1-7,3.69c1.94-1.82,3.93-3.46,5.8-5.21s3.7-3.53,5.42-5.38A62.55,62.55,0,0,0,230.59,715Z"/><path class="cls-2" d="M282.73,703.37a42.11,42.11,0,0,1,20.42-.16,32,32,0,0,1,9.57,4.13,21.68,21.68,0,0,1,6.87,7.68,34.56,34.56,0,0,0-7.87-6,45.25,45.25,0,0,0-9.17-3.38,68.56,68.56,0,0,0-9.76-1.64C289.48,703.68,286.14,703.42,282.73,703.37Z"/><path class="cls-2" d="M279.18,715a62.11,62.11,0,0,0,9,12.39c1.73,1.85,3.53,3.64,5.42,5.38s3.86,3.39,5.8,5.21a31.8,31.8,0,0,1-7-3.69,36.94,36.94,0,0,1-6-5.21,33.57,33.57,0,0,1-4.64-6.52A20.27,20.27,0,0,1,279.18,715Z"/><path class="cls-1" d="M344.12,296.23s63.8-10.43,85.83-59c10.51-23.17,10.44-104.25,41.76-103.37,32.65.92,30.16,56.83,23.2,96.27s-31.32,96.27-121.79,111.35Z"/><path class="cls-1" d="M189.86,278.84s-22.24-29.39-31.32-102.07c-7-55.68,25.52-110.2-13.92-117.15s-65,58-51,139.18c9.41,54.89,58,118.31,58,118.31Z"/><path class="cls-1" d="M392,427.1c-7.22,52.83-24.37,94.15-24.37,94.15H141.54s-17.18-41.32-24.4-94.12c-3.18-23.3-4.43-48.83-1.43-74.05C125.56,270.73,203,239.4,254.59,239.4s129,31.33,138.85,113.68C396.44,378.28,395.19,403.8,392,427.1Z"/><circle class="cls-1" cx="58.58" cy="528.66" r="58.58"/><circle class="cls-4" cx="58.58" cy="528.66" r="37.53"/><circle class="cls-1" cx="450.58" cy="528.66" r="58.58"/><circle class="cls-4" cx="450.58" cy="528.66" r="37.53"/><path class="cls-5" d="M392,427.1c-7.22,52.83-24.37,94.15-24.37,94.15H141.54s-17.18-41.32-24.4-94.12a174.72,174.72,0,0,1,274.87,0Z"/><path class="cls-1" d="M436.79,550.93c0-100.63-81.58-178.16-182.21-178.16S72.37,450.3,72.37,550.93,154,684.55,254.58,684.55,436.79,651.56,436.79,550.93Z"/><path class="cls-4" d="M328.61,432.73c-47.23-2.85-74,26-74,26s-26.8-28.82-74-26c-68.3,4.11-84.89,90.93-78.51,132.8,5.92,38.82,31.75,98.94,152.54,98.94s146.62-60.12,152.54-98.94C413.5,523.66,396.91,436.84,328.61,432.73Z"/><circle cx="162.35" cy="513.39" r="18"/><circle cx="346.81" cy="513.39" r="18"/><path class="cls-1" d="M19,571.3s20.88,24.36,47.56,0,31-48.43,61.29-37S151.8,616.91,102,649c-41.3,26.65-82,15.92-93.5-9C-8.87,602.13,19,571.3,19,571.3Z"/><path class="cls-6" d="M111.08,643.64a1.24,1.24,0,0,1-1-.45,1.25,1.25,0,0,1,.16-1.76C137.65,618.7,148,583.26,144.12,560c-2.1-12.52-8-21.22-16.74-24.5-20.88-7.89-28.62,1.37-41.46,16.71a195.68,195.68,0,0,1-18.55,20c-8.68,7.92-17.71,11.65-26.79,11.1C27.07,582.5,18.39,572.54,18,572.12a1.25,1.25,0,0,1,1.9-1.63c.08.1,8.39,9.59,20.85,10.34,8.37.49,16.77-3,24.92-10.45A193.76,193.76,0,0,0,84,550.6c12.6-15.07,21.7-26,44.26-17.44,9.56,3.61,16.06,13,18.32,26.43,3.89,23.23-5.31,59.35-34.71,83.76A1.2,1.2,0,0,1,111.08,643.64Z"/><path class="cls-1" d="M490.19,571.3s-20.88,24.36-47.56,0-31-48.43-61.29-37-24,82.58,25.79,114.71c41.3,26.65,82.05,15.92,93.5-9C518,602.13,490.19,571.3,490.19,571.3Z"/><path class="cls-6" d="M398.08,643.64a1.2,1.2,0,0,1-.8-.29c-29.4-24.41-38.6-60.53-34.71-83.76,2.26-13.43,8.76-22.82,18.33-26.43,22.54-8.51,31.65,2.37,44.25,17.44a192.72,192.72,0,0,0,18.33,19.78c8.14,7.44,16.54,11,24.92,10.45,12.44-.75,20.76-10.24,20.84-10.34a1.25,1.25,0,0,1,1.9,1.63c-.37.42-9.05,10.38-22.56,11.21-9.13.56-18.11-3.18-26.79-11.1a196,196,0,0,1-18.56-20c-12.83-15.33-20.58-24.58-41.45-16.7-8.7,3.28-14.64,12-16.74,24.5-3.9,23.26,6.48,58.7,33.84,81.43a1.25,1.25,0,0,1,.16,1.76A1.24,1.24,0,0,1,398.08,643.64Z"/><path class="cls-7" d="M254.58,446A1621.72,1621.72,0,0,1,418.71,454a167.91,167.91,0,0,0-328.27,0A1621.78,1621.78,0,0,1,254.58,446Z"/><path class="cls-3" d="M417.74,449.76A166.05,166.05,0,0,0,410.48,427C373,416.6,317,410,254.58,410s-118.38,6.6-155.9,17a166.09,166.09,0,0,0-7.27,22.75Z"/><path class="cls-8" d="M254.58,321.58a137.08,137.08,0,0,0-25.33,16.92,149.54,149.54,0,0,0-11.1,10.24c-1.71,1.85-3.47,3.64-5.19,5.47l-4.8,5.82-1.22,1.43L205.83,363,203.61,366l-2.21,3c-.78,1-1.33,2.13-2,3.18l-4,6.39-3.58,6.67-1.81,3.34c-.62,1.11-1,2.31-1.58,3.45l-3.16,6.94-.81,1.74-.66,1.79-1.35,3.59q-1.37,3.58-2.85,7.18c.45-2.53.93-5.07,1.46-7.6l.8-3.8.42-1.9.56-1.85c1.67-4.89,3-10,5.29-14.65,1-2.38,2.07-4.78,3.24-7.11l3.86-6.82a63.59,63.59,0,0,1,4.28-6.56l2.25-3.21,1.14-1.6,1.25-1.51a111.68,111.68,0,0,1,22.7-21.48C235.24,329.23,244.57,324.24,254.58,321.58Z"/><path class="cls-8" d="M254.58,321.58c10,2.66,19.33,7.65,27.8,13.69a111.73,111.73,0,0,1,22.71,21.48l1.24,1.51,1.14,1.6,2.25,3.21a63.59,63.59,0,0,1,4.28,6.56l3.86,6.82c1.17,2.33,2.19,4.73,3.25,7.11,2.31,4.67,3.62,9.76,5.28,14.65l.56,1.85.42,1.9.8,3.8c.53,2.53,1,5.07,1.46,7.6q-1.49-3.6-2.85-7.18l-1.35-3.59-.66-1.79-.81-1.74-3.15-6.94c-.56-1.14-1-2.34-1.59-3.45l-1.81-3.34-3.58-6.67-4-6.39c-.71-1-1.26-2.19-2-3.18l-2.22-3L303.32,363l-1.11-1.53L301,360l-4.79-5.82c-1.72-1.83-3.49-3.62-5.19-5.47-3.52-3.6-7.24-7-11.11-10.24A137.34,137.34,0,0,0,254.58,321.58Z"/><path class="cls-7" d="M254.58,472.83c87.87,0,178.47,5.19,241.41,13.84C490.5,453.45,379,427,254.58,427S18.67,453.45,13.17,486.67C76.11,478,166.71,472.83,254.58,472.83Z"/><path class="cls-9" d="M230.29,598s4.55,44.41,24.28,44.41S278.87,598,278.87,598s-23.69-5-24-30.38C254.88,567.6,250.09,598.49,230.29,598Z"/><path d="M230.28,601.73c-9.91,0-18.93-5.14-25.4-14.48A3.75,3.75,0,1,1,211,583c5.1,7.36,11.75,11.25,19.24,11.25,12.34,0,20.55-6.09,20.55-35.8a3.75,3.75,0,1,1,7.5,0C258.33,578.59,255.14,601.73,230.28,601.73Z"/><path d="M278.88,601.73c-24.86,0-28-23.14-28-43.3a3.75,3.75,0,1,1,7.5,0c0,29.71,8.21,35.8,20.55,35.8,7.48,0,14.14-3.89,19.23-11.25a3.75,3.75,0,0,1,6.17,4.27C297.81,596.59,288.79,601.73,278.88,601.73Z"/><ellipse cx="254.58" cy="558.43" rx="24.29" ry="16.2"/><path class="cls-10" d="M589.33,69.27c-239.84,0-492.42-13.36-506.75-14.14l5.74-39.84c4.72.25,475.18,25.15,738,7.7l7.08,39.76C761.69,67.51,676.35,69.27,589.33,69.27Z"/><path class="cls-1" d="M323.05,27.4C339.47,23.19,352.27,25,362,29c7,.07,25.77.25,40.22.19-.25-.31-.48-.65-.74-1-20.13-24.54-51-33.66-84.61-25-31.77,8.16-46.25,26.92-56.23,44.2-13,22.49-18.53,50.09-18.53,92.27,0,82.68,18.9,130.29,19.7,132.28A12.5,12.5,0,0,0,285,262.57c-.18-.45-17.88-45.56-17.88-122.92,0-37.49,4.54-61.34,15.18-79.76C291.48,43.93,301.51,32.93,323.05,27.4Z"/><path class="cls-1" d="M394.36,69.59c2.46,11,1.86,22.27-2.35,31-7.68,16-24.41,20.87-36.67,18.67-5-.9-16.76-4.44-18-17.9a12.5,12.5,0,1,0-24.89,2.34c2,20.87,16.71,36.26,38.5,40.17,21.3,3.81,50.28-4.71,63.62-32.44,6-12.57,7.67-27.48,5.29-42.27C414.26,69.3,404.53,69.51,394.36,69.59Z"/><path d="M254.58,443.29c-31.94,0-67.55,2.36-85.7,6.73l68.79,77s2-19.24,16.91-19.24,16.91,19.24,16.91,19.24l68.79-77C322.13,445.65,286.52,443.29,254.58,443.29Z"/><circle class="cls-11" cx="340.28" cy="519.25" r="69.23" transform="translate(-267.5 392.7) rotate(-45)"/><circle class="cls-12" cx="340.28" cy="519.25" r="54.44" transform="translate(-267.5 392.7) rotate(-45)"/><circle class="cls-11" cx="254.58" cy="474.94" r="22.52" transform="translate(-261.27 319.12) rotate(-45)"/><path class="cls-13" d="M254.58,492.72a17.78,17.78,0,1,1,17.78-17.78A17.79,17.79,0,0,1,254.58,492.72Zm0-32.93a15.15,15.15,0,1,0,15.15,15.15A15.17,15.17,0,0,0,254.58,459.79Z"/><circle class="cls-11" cx="168.88" cy="519.25" r="69.23" transform="translate(-317.7 271.5) rotate(-45)"/><circle class="cls-12" cx="168.88" cy="519.25" r="54.44" transform="translate(-375.47 476.56) rotate(-67.5)"/><circle class="cls-14" cx="137.63" cy="495.39" r="8.74" transform="translate(-372.72 432.96) rotate(-67.5)"/><circle class="cls-14" cx="310.71" cy="495.39" r="8.74" transform="translate(-265.87 592.86) rotate(-67.5)"/></g></g></svg>