<?xml version="1.0" encoding="utf-8"?>
<!-- Generator: Adobe Illustrator 25.3.1, SVG Export Plug-In . SVG Version: 6.00 Build 0)  -->
<svg version="1.1" id="圖層_1" xmlns="http://www.w3.org/2000/svg" xmlns:xlink="http://www.w3.org/1999/xlink" x="0px" y="0px"
	 viewBox="0 0 466.1 48" style="enable-background:new 0 0 466.1 48;" xml:space="preserve">
<style type="text/css">
	.st0{enable-background:new    ;}
	.st1{fill:#041F60;}
</style>
<g id="圖層_2_1_">
	<g id="圖層_1-2">
		<g class="st0">
			<path class="st1" d="M22.4,3.3c1.1,0.6,2.3,1.5,3.6,2.6c-2.8,3.7-6.4,8.2-10.6,13.5c2.5,0.4,8.4,0.8,17.6,1.4
				c0,1.1-0.2,2.2-0.5,3.6c-9.6-0.2-15.6-0.4-18.1-0.8c-3.4-0.4-5.4-0.9-6.2-1.5c0.4-0.8,2-3.1,4.7-6.8C15.2,12.1,18.4,8.1,22.4,3.3
				z M23.2,28c4.8,0,9.6,0.4,14.3,1c0.3,0.9,0.5,3,0.5,6.3c0,3.1-0.1,5.4-0.2,6.9c-2.2,0.4-6,0.7-11.3,0.7c-4,0-7.7-0.3-11.2-1
				c-0.5-1.2-0.8-3.4-0.8-6.5c0-1.2,0.1-3.4,0.1-6.6c0.5-0.1,1.1-0.2,1.9-0.3c0.7,0,1.3,0.1,1.9,0.3c0,1.3,0.1,4.5,0.3,9.7
				c5,0.3,10,0.5,15,0.5c0.2-0.8,0.3-2,0.3-3.6c0-0.8-0.1-1.6-0.2-2.5c-5.6-0.4-9-0.7-10.4-0.9c-0.2-0.4-0.3-1.1-0.3-2.2
				C23.1,29.2,23.2,28.6,23.2,28z M37.5,13.5c1.6,2.1,3.1,4.3,4.5,6.7c-0.7,0.8-1.8,1.5-3.4,2c-1.7-2.1-3.2-4.4-4.5-6.8
				C35.2,14.6,36.4,14,37.5,13.5z"/>
			<path class="st1" d="M65.1,9.3c1.3,0,2.6,0.2,3.8,0.5c0,1.9-0.2,6.5-0.6,13.8c-0.2,4.6-0.5,9.1-1,13.7c-1.2,0-2.4-0.1-3.5-0.3
				v-1.7c-3.4,0.6-6.7,0.9-10.1,0.9c-0.3-1.1-0.4-2.2-0.4-3.4c3.3-0.5,6.8-0.7,10.5-0.8c0.1-3.2,0.2-6.9,0.5-11.2
				c-4.4-0.1-8.5-0.5-12.5-1.3c0.1-1.2,0.1-2.5,0.1-3.6c4.1,0.1,8.3,0.4,12.7,0.9C64.7,14.6,64.9,12,65.1,9.3z M77.1,14.2
				c1,0.2,2,0.3,3.1,0.5c-0.1,1.8-0.2,3.6-0.3,5.3c3.2,0.2,6.6,0.5,9.9,1c0,1-0.1,2.1-0.4,3.4c-3.4,0-6.7-0.3-9.8-0.8
				c-0.2,3.2-0.4,6.3-0.6,9.4c1.1,0.5,2.3,0.8,3.5,1.1c0.2-0.5,0.4-1,0.7-1.7c1,0.1,2,0.2,3.1,0.5c0,1.6-0.3,3.3-0.9,5
				c-0.6,0-1.8-0.3-3.6-0.8c-3.7-0.7-6.1-1.3-7.3-1.9C75.3,27.2,76.2,20.2,77.1,14.2z"/>
			<path class="st1" d="M100.3,11.7c5,0,10,0.1,15,0.2c0.1-2.3,0.2-4.2,0.4-5.5c0.7-0.1,1.4-0.1,2.1-0.2c0.7,0,1.4,0.1,2,0.3
				c0,1.8-0.1,3.6-0.2,5.5c5.2,0.2,10.4,0.4,15.6,0.7v1.7c0,0.8-0.1,1.4-0.2,1.8c-14.4,0-26-0.3-34.7-0.8c-0.2-0.3-0.3-0.9-0.3-1.8
				C100,13,100.2,12.4,100.3,11.7z M117.5,17.9c0.9,0,1.5,0.1,1.9,0.3c0.1,1.5,0.2,3,0.3,4.5c4,0.2,7.9,0.5,11.8,0.9
				c0,5.3-0.3,10.2-0.8,14.7c-1.7,0-3.5-0.2-5.4-0.5c-0.1-0.6-0.1-1-0.1-1.5c0.1-0.5,0.1-0.8,0.1-1c0.8-0.1,1.4-0.1,2-0.2
				c0.1-2.2,0.1-4.9,0.1-8.2c-2.5,0-4.9-0.1-7.4-0.2c0.2,4.9,0.3,10.1,0.3,15.5c-0.4,0.1-1,0.2-1.9,0.2h-1.9
				c-0.3-5.6-0.6-10.9-0.7-15.9c-2.6-0.2-5.1-0.4-7.6-0.8c0.5,3.9,0.8,7.8,1,11.7c-0.6,0.2-1.3,0.3-2,0.3h-1.9
				c-0.6-5.1-1-10.3-1.4-15.7c1.1-0.2,2.4-0.3,3.8-0.5c0,0.2,0.1,0.5,0.1,0.7c2.7,0,5.3,0.1,8,0.2c0-1.5,0-2.9,0-4.3
				C115.9,18.2,116.5,18,117.5,17.9z"/>
			<path class="st1" d="M144.5,20.5c2.8,0.1,5.5,0.1,8.3,0.2c0.1-1.9,0.2-3.8,0.3-5.8c0.5-0.1,1.2-0.2,1.9-0.3c0.7,0,1.4,0.1,2,0.3
				c0.1,2.1,0.2,4.1,0.3,6c2.6,0.1,5.1,0.2,7.6,0.3v1.5c0,0.8-0.1,1.5-0.2,2.1c-2.4,0-4.9-0.1-7.3-0.1v3.2c2,0.5,4,1,6,1.5
				c0,1-0.2,2.2-0.6,3.7c-2-0.2-3.8-0.6-5.5-1.2c-0.1,2.8-0.3,5.3-0.5,7.6c-0.3,0.1-0.9,0.2-1.8,0.2c-0.8,0-1.4-0.1-1.7-0.2
				c-0.2-2.3-0.4-4.7-0.5-7.2c-2,1.2-4.4,2.4-7.3,3.8c-0.8-1-1.3-2.1-1.7-3.3c3-1.9,6-3.7,8.9-5.3V27c0-0.8,0-1.5,0-2.3
				c-2.8-0.1-5.6-0.2-8.5-0.3c-0.1-0.4-0.2-1.1-0.2-2C144.1,21.8,144.2,21.2,144.5,20.5z M163.8,8.4c0.5,1.1,0.8,2.3,0.8,3.7
				c-6.7,1.2-13,2-19.1,2.6c-0.4-1-0.6-2.1-0.6-3.3C151.1,9.7,157.5,8.7,163.8,8.4z M171.5,17.2c1.3,0.1,2.6,0.3,3.8,0.8
				c-0.8,5-2,9.9-3.5,14.8c2.3,0.4,4.6,0.8,6.9,1.2c0,1.3-0.2,2.5-0.5,3.6c-3.8-0.1-7.7-0.8-11.7-2.1c0.2-1.1,1-4.4,2.5-10.1
				C169.7,22.4,170.6,19.7,171.5,17.2z M181.5,27.8c1,2,1.7,4.1,2,6.1c-1.2,0.5-2.5,0.7-3.8,0.7c-0.8-2-1.4-4-1.7-6.2
				C179.2,28.1,180.4,27.9,181.5,27.8z"/>
			<path class="st1" d="M210.1,5.3c1.8,1.9,3.3,4,4.8,6.2c-0.8,0.7-1.7,1.3-2.7,1.8c4.5,0.2,8.9,0.5,13.2,0.8v1.8
				c0,0.8-0.1,1.4-0.2,1.8c-12.4,0-22.4-0.3-29.9-1c-0.2-0.3-0.3-0.9-0.3-1.9c0.1-0.6,0.2-1.3,0.3-2.1c5.4,0,10.8,0.1,16.1,0.4
				c-1.8-1.8-3.3-3.8-4.6-5.9C207.8,6.6,208.9,5.9,210.1,5.3z M195.6,34.3c10.5,0.2,20.9,0.6,31.4,1.1c0.2,0.6,0.3,1.3,0.3,2.2
				c0,0.6-0.1,1.2-0.3,1.9c-10.6-0.1-21.1-0.4-31.4-1c-0.3-0.8-0.4-1.5-0.4-2.2C195.3,35.6,195.4,35,195.6,34.3z M203.6,23.1
				c1.4,2.1,2.4,5.2,3,9.3c-1.1,0.7-2.2,1-3.2,1c-1.5-2.5-2.5-5.7-2.9-9.5C201.4,23.6,202.4,23.3,203.6,23.1z M219.5,22.6
				c1.2,0.3,2.5,0.7,3.6,1.3c-0.8,2.9-2,6.2-3.4,9.7c-1.4-0.1-2.6-0.4-3.7-1.1C217,29,218.2,25.7,219.5,22.6z"/>
			<path class="st1" d="M241.1,16.6c0.4,4.5,0.8,8.9,1.1,13.3c-1.2,0.2-2.5,0.3-3.8,0.3c-0.7-4.4-1.2-8.8-1.3-13.3
				C238.4,16.8,239.7,16.7,241.1,16.6z M247.7,11.3c0.3,2.4,0.5,4.9,0.7,7.3c1.6,0.2,3.2,0.5,4.8,1c0,1.1-0.1,2.2-0.4,3.6
				c-1.4,0-2.8-0.2-4.1-0.6c0.2,4.2,0.4,8.4,0.4,12.5c-0.4,0.2-1,0.3-1.8,0.3c-0.6,0-1.1-0.1-1.5-0.2c-1-8-1.6-15.9-1.7-23.7
				c0.7-0.1,1.3-0.1,1.8-0.2H247.7z M262.4,14.7c0.7-2.2,1.4-4.5,2.2-6.8c1.5,0.2,2.7,0.6,3.8,1.2c-0.4,1.4-0.9,3.2-1.6,5.6
				c2.3,0.1,4.7,0.3,7.2,0.7c0.5,2.6,1,6,1.4,10.2c-1.2,0.3-2.5,0.5-4,0.5c-0.6-2.7-1.1-5-1.6-7.2c-1.5,0-2.9,0-4.2-0.1
				c-0.7,2.4-1.4,5-2.2,8c1.8,0,3.6,0,5.4,0c3.4,0,6.2,0.2,8.2,0.5c0.1,0.3,0.1,0.8,0.1,1.5c0,0.8,0,1.4-0.1,1.6
				c-0.5,0.2-3.3,0.3-8.2,0.3h-6.4c-0.8,3-1.8,6.2-2.7,9.6c-1.3-0.2-2.5-0.6-3.5-1.1c0.5-2.7,1.1-5.5,1.8-8.5
				c-3.5-0.1-5.5-0.1-6-0.2c-0.2-0.4-0.2-1-0.2-1.6c0.1-0.7,0.2-1.2,0.4-1.7c2.2-0.1,4.5-0.1,6.8-0.1c0.7-2.7,1.5-5.4,2.3-8.2
				c-2.1-0.1-4-0.3-5.5-0.5c-0.2-1-0.2-2-0.2-3.1C257.8,14.9,260.2,14.8,262.4,14.7z M267,32.7c2.3,1.1,4.7,2.3,7.1,3.7
				c-0.2,0.6-0.5,1.2-0.8,1.7c-0.3,0.5-0.7,1.1-1.2,1.6c-2.4-0.7-4.8-1.9-7.2-3.6C265.5,34.8,266.2,33.7,267,32.7z"/>
			<path class="st1" d="M291.2,15.1c0.9,0.5,1.8,1.1,2.6,1.7c-1.2,2.5-2.7,5.1-4.3,7.8c0,0.4,0.6,0.6,1.8,0.6
				c0.2-0.9,0.4-1.8,0.5-2.8c0.8-0.2,1.6-0.4,2.5-0.5c0.2,1.5,0.4,3.5,0.5,5.8c0,0.4-2,0.6-6,0.6c-2.4-0.3-3.9-1-4.5-2.2
				c0.8-1.6,1.7-3.2,2.7-4.8c-1.4-1.4-2.6-3.1-3.7-4.9c1.8-2.4,3.7-5,5.8-7.7c1,0.6,1.8,1.4,2.4,2.4c-1,1.8-2,3.7-3,5.4
				c0.3,0.4,0.6,0.8,0.8,1.2C289.8,16.9,290.5,16,291.2,15.1z M298.4,36.1c1,0.8,1.7,1.9,2.2,3.2c-1.2,0.8-2.4,1.6-3.8,2.4
				c-0.7,0.4-1.3,0.8-1.9,1.2c-0.7,0.4-1.4,0.8-2.1,1.2c-1-1-1.7-2-2.2-3.2c0.5-0.4,1.1-0.9,1.8-1.4c0.7-0.4,1.3-0.8,1.9-1.2
				c0.6-0.4,1.2-0.8,1.9-1.1C297.1,36.8,297.8,36.5,298.4,36.1z M292.1,31.5c2.9,0,6.6,0,10.9-0.1c0.2,0,0.4,0,0.7,0
				c-0.1-0.5-0.1-1-0.1-1.5c1.2-0.2,2.4-0.3,3.6-0.4c0.1,0.6,0.2,1.2,0.3,1.8c3.7,0,6.4,0.1,8.2,0.2v3.2c-0.7,0.3-3.3,0.5-7.6,0.5
				c0.6,4,0.9,7,0.9,9c-1.1,0.3-2.4,0.5-3.8,0.5c-1.1,0-2.1-0.1-3-0.2c-0.3-0.8-0.4-1.6-0.5-2.4c0.8-0.2,1.8-0.4,3-0.5
				c-0.2-2.2-0.4-4.3-0.5-6.4c-0.4,0-0.7,0-1.1,0c-4.9,0-8.5-0.2-10.6-0.5c-0.2-0.5-0.3-1-0.3-1.7C292,32.6,292.1,32,292.1,31.5z
				 M301.2,10.4c3.9,0.1,7.4,0.3,10.6,0.7c0.2,2.5,0.3,4.4,0.3,5.7c0,3.9-0.2,7.9-0.5,11.8c-1.2,0.4-3.7,0.6-7.5,0.6
				c-3.2,0-5.9-0.3-8.2-0.8c-0.3-1.1-0.5-3-0.6-5.9c0.1-3.3,0.2-6.8,0.5-10.4c0.5-0.1,1.2-0.2,1.9-0.2c0.8,0,1.4,0.1,2,0.2v5.2
				c1.7,0.2,3.4,0.5,5.1,1c0,1.1-0.1,2.3-0.4,3.6c-1.6,0-3.2-0.2-4.7-0.6v3.7c3,0.1,5.6,0.1,7.9,0.1c0.1-3.2,0.1-6.8,0.2-10.9
				c-2.4,0-4.7-0.2-6.8-0.5C301.1,12.7,301.1,11.5,301.2,10.4z M302.7,3.7c1.7,0.7,3.2,1.7,4.7,3C307,8,306.2,9.1,305,9.9
				c-1.5-0.8-3-1.8-4.4-3C301.2,5.8,301.9,4.7,302.7,3.7z M313.9,36.6c1.8,0.9,3.6,1.9,5.5,3c-0.2,0.6-0.4,1.2-0.8,1.7
				c-0.3,0.5-0.7,1.1-1.2,1.6c-1.9-0.5-3.8-1.5-5.5-2.9C312.3,38.8,313,37.6,313.9,36.6z M320.5,14.9c1,0.6,1.9,1.2,2.8,1.8
				c-1.3,2.5-2.8,5.1-4.5,7.8c0,0.4,0.7,0.6,2,0.6c0.2-0.9,0.3-1.8,0.3-2.8c0.7-0.2,1.6-0.4,2.5-0.5c0.3,1.5,0.5,3.5,0.7,5.8
				c0,0.4-2.1,0.6-6.2,0.6c-2.5-0.3-4.1-1-4.8-2.2c0.8-1.6,1.7-3.2,2.7-4.7c-1.4-1.5-2.6-3.1-3.7-5c1.9-2.5,3.9-5.1,6-7.8
				c1.1,0.7,1.9,1.5,2.5,2.5c-1,1.8-2.1,3.6-3.2,5.4c0.2,0.4,0.5,0.8,0.8,1.2C319.1,16.8,319.8,15.8,320.5,14.9z"/>
			<path class="st1" d="M340.6,9.3c1.3,0.5,2.4,1.3,3.2,2.4c-2.5,3.6-5,6.9-7.4,9.8c1.4,0.6,3.1,1.4,5.2,2.3c0.8-1.6,1.6-3.2,2.5-5
				c1.2,0.4,2.3,0.9,3.4,1.5c-1.8,4.4-3.7,8.7-5.7,12.7c1.3,0.1,2.6,0.1,3.8,0.2c0.1-0.7,0.1-1.6,0.1-2.7c1-0.2,2-0.4,3.1-0.5
				c0.5,1.8,0.8,3.9,1,6.3c-1.1,0.5-2.8,0.7-5.2,0.7c-3.4,0-6.2-0.4-8.4-1.3c0.8-2.4,2-5.2,3.5-8.5c-3.2-1.4-6.5-3.1-9.6-5
				c0.4-0.6,1.1-1.4,2-2.6c0.8-1.2,1.7-2.4,2.7-3.6C336.9,13.9,338.7,11.6,340.6,9.3z M351.7,19.6c2,0.2,4,0.3,6,0.6
				c0.6-1.7,1.3-3.3,2-4.9c1.4,0.3,2.6,0.7,3.6,1.3c-0.5,1.4-0.9,2.8-1.4,4.1c2.1,0.3,4.3,0.6,6.4,1v7.9c0,1.8-0.4,3.2-1.1,4.1
				c-0.1,0.2-0.2,0.3-0.6,0.3c-1.7,0-3.2-0.2-4.4-0.5c-0.2-0.5-0.2-0.9-0.2-1.4c0.1-0.6,0.2-1,0.3-1.4h1.4c0.2-1.7,0.3-3.5,0.3-5.3
				c-1.2-0.2-2.4-0.4-3.5-0.6c-1.6,4.3-3.3,8.7-5.2,12.9c-1.2-0.2-2.3-0.6-3.3-1.5c1.4-4.2,2.9-8.2,4.4-12.2
				c-1.8-0.3-3.5-0.6-5.3-0.8C351,22,351.2,20.8,351.7,19.6z"/>
			<path class="st1" d="M396.2,4.8c0.4,1.1,0.6,2.3,0.7,3.8c-5.3,1.4-10.8,2.4-16.3,3.2c-0.3-1.2-0.5-2.5-0.7-3.8
				C385.6,6.8,391,5.8,396.2,4.8z M401.7,18.5c2.8,0.2,5.4,0.4,8,0.8c0.1-1.8,0.2-3.5,0.2-5c-2.7-0.2-5.7-0.7-9-1.5
				c0-1.1,0.1-2.3,0.3-3.7c4.1,0.3,8.4,0.9,12.8,1.6c0,9.4-0.4,16.4-1.3,21c-11.1,0-21.9-0.6-32.4-1.7c0-5.2,0.5-10.7,1.6-16.5h2.2
				c0.7,0,1.4,0,2.1,0.1c0,1.3,0,2.6-0.1,3.9c2.4,0.2,4.7,0.4,7,0.7c0,1-0.1,2.2-0.4,3.5c-2.3,0-4.6-0.1-7-0.4
				c-0.2,1.7-0.5,3.4-0.8,5.2c10.7,0.6,18.8,1,24.3,1.2c0.2-1.7,0.3-3.3,0.4-4.9c-1,0-2.1,0-3.1-0.1c-1.6-0.1-3.3-0.4-5-0.7
				C401.4,20.9,401.6,19.7,401.7,18.5z M388.5,33.7c1.2,0.3,2.4,0.7,3.8,1.2c-0.8,2.6-2.1,5.2-3.9,7.9c-1.4-0.3-2.5-0.8-3.5-1.6
				C386,38.5,387.2,36,388.5,33.7z M401,33.7c0.5,0,1.2,0.1,1.9,0.3c0.2,1.9,0.3,3.6,0.3,5.2h3.6v-1.7c0.6,0,1.1,0,1.5-0.1
				c0.6,0,1.2,0,1.8,0.1c0.1,1.1,0.2,2,0.2,3c0,0.8-0.1,1.4-0.2,1.7c-0.9,0.4-2.5,0.6-4.6,0.6c-3.3,0-5.4-0.2-6.4-0.6
				c0-2.7-0.1-5.4-0.2-8.2C399.3,33.8,400,33.8,401,33.7z"/>
			<path class="st1" d="M450,4.4c4.5,0,8.7,0.2,12.4,0.5c0.3,7.5,0.5,14.2,0.5,20.2c0,7.8-0.3,13.4-0.8,17.1
				c-3.8,0.4-8.9,0.6-15.2,0.6c-10.2,0-17.2-0.1-21-0.4c-0.4-9.2-0.7-19.4-0.8-30.8c0.5-0.1,1.1-0.2,1.8-0.3c0.8,0,1.5,0.1,2,0.3
				c0.4,9.2,0.7,18.3,0.9,27.2c9.8,0,19.3,0,28.5-0.1V8.5c-2.8-0.1-5.8-0.1-8.9-0.2c-6.6,0.1-12.7,0.2-18.3,0.2
				c-0.1-0.6-0.1-1.2-0.1-1.7c0-0.7,0-1.3,0-1.7C435.3,4.7,441.6,4.5,450,4.4z M445,20.5c2.6,0,4.7,0.1,6.4,0.2
				c0.1,1,0.2,2.1,0.2,3.3c0,1.6-0.1,3.1-0.3,4.5c-1.5,0.2-3.7,0.3-6.6,0.3c-1.2,0-2.3,0-3.3-0.1c0.6,0.9,0.9,1.9,1,2.9
				c-0.7,0.4-1.4,0.8-2.2,1.1c0.1,0.6,0.2,1.2,0.2,1.9c0.9,0,1.8,0,2.5-0.1c0.2,0.8,0.3,1.7,0.3,2.8c-1.9,0.4-4,0.6-6.2,0.6
				c-0.3-0.7-0.6-2-0.7-3.9c-0.5,0.2-1.1,0.3-1.6,0.4c-0.7-0.7-1.3-1.8-1.6-3.2c2.1-1,4.4-1.8,6.9-2.5c-0.8-0.1-1.5-0.2-2.1-0.3
				c-0.2-1-0.2-2.1-0.2-3.3c0.1-1.2,0.1-2.7,0.2-4.5C439.9,20.6,442.3,20.5,445,20.5z M436.4,10.7c1.6,0.1,3.2,0.1,4.7,0.2
				c0.1-0.7,0.1-1.2,0.2-1.7c0.7-0.1,1.4-0.1,2.2-0.2c0.8,0,1.5,0.1,2.1,0.3c0,0.7,0,1.4,0,2.1c1.2,0.1,2.4,0.3,3.6,0.4
				c0,1-0.1,2.1-0.4,3.3c-1.2,0-2.3,0-3.4-0.1c0,0.3,0,0.6,0,0.8c2.5,0.1,4.5,0.2,6.1,0.4c0.1,0.3,0.1,0.8,0.1,1.5
				c0,0.8,0,1.3-0.1,1.5c-0.5,0.2-3.1,0.3-8,0.3c-5.5,0-8.4-0.1-8.9-0.3c-0.2-0.4-0.3-0.9-0.3-1.5c0.1-0.7,0.2-1.3,0.3-1.7
				c2-0.1,4.1-0.1,6.3-0.2c0-0.4,0-0.8,0-1.2c-1.6-0.2-3.2-0.4-4.7-0.7C436.4,12.8,436.4,11.7,436.4,10.7z M441.6,23.7v2.1h5.9v-2.1
				H441.6z M449,28.9c1.1,0.3,2.3,0.8,3.6,1.2c-0.4,1.1-1,2.2-1.8,3.3c0.8,0.4,1.5,0.7,2.2,1.1c-0.2,1.1-0.7,2.1-1.5,3.1
				c-3.2-0.9-6-2.2-8.3-4c0.4-1.2,0.8-2.3,1.4-3.2c0.9,0.4,1.9,0.9,2.8,1.3C447.8,30.7,448.3,29.8,449,28.9z"/>
		</g>
	</g>
</g>
</svg>
