<?xml version="1.0" encoding="utf-8"?>
<!-- Generator: Adobe Illustrator 25.3.1, SVG Export Plug-In . SVG Version: 6.00 Build 0)  -->
<svg version="1.1" id="圖層_1" xmlns="http://www.w3.org/2000/svg" xmlns:xlink="http://www.w3.org/1999/xlink" x="0px" y="0px"
	 viewBox="0 0 370.1 48" style="enable-background:new 0 0 370.1 48;" xml:space="preserve">
<style type="text/css">
	.st0{enable-background:new    ;}
	.st1{fill:#041F60;}
</style>
<g id="圖層_2_1_">
	<g id="圖層_1-2">
		<g class="st0">
			<path class="st1" d="M22.5,13.2c0,1.6-1.5,5.4-4.4,11.3l-5.8,11.9c0.8,0.1,1.7,0.1,2.7,0.1c1.6,0,3.3-0.2,5.1-0.5
				c0.6,1.5,0.8,2.8,0.6,3.9c-1.4,0.9-3.6,1.3-6.7,1.3c-3.2,0-5.6-0.7-7.4-2c0.7-2.2,2.9-7.1,6.5-14.8c3.2-6.8,4.9-10.5,4.9-11.1
				c0-1.1-1.1-1.6-3.4-1.6c-3,0-6.8,1.6-11.4,4.7c-1.1-1.3-1.7-2.5-1.8-3.6c1.7-1.6,3.8-3,6.2-4.1c2.6-1.2,4.9-1.7,7-1.7
				c2.2,0,4,0.4,5.3,1.3C21.7,9.5,22.5,11.1,22.5,13.2z"/>
			<path class="st1" d="M45.2,25.4c0,3.4-0.7,6.7-2.1,9.8c-1.9,4.2-4.7,6.3-8.2,6.3c-3.3,0-5.9-1.5-7.9-4.5c-2-2.9-3-7-3-12.4
				c0-4.2,0.7-8,2.1-11.2C27.9,9.2,30.7,7,34.4,7c1.2,0,2.3,0.3,3.5,0.9c1.1,0.6,2,1.4,2.6,2.3c-0.4,1-1.3,2-2.7,3.1
				c-1.2-1.1-2.4-1.7-3.4-1.7c-1.6,0-2.9,1.2-4,3.6c-1.2,2.5-1.8,5.7-1.8,9.6c0,3.7,0.6,6.6,1.8,8.8c1.2,2,2.7,3,4.5,3
				c1.6,0,3-1.3,4.3-4c1.2-2.5,1.8-5.1,1.8-7.6c0-2.3-0.1-4-0.4-5.3c-0.3-1.5-0.9-3.3-1.9-5.4c0.9-0.9,2.1-1.6,3.4-2.3
				c1.3,2.2,2.2,4.3,2.6,6.4C45,20.1,45.2,22.4,45.2,25.4z"/>
			<path class="st1" d="M67.8,13.2c0,1.6-1.5,5.4-4.4,11.3l-5.8,11.9c0.8,0.1,1.7,0.1,2.7,0.1c1.6,0,3.3-0.2,5.1-0.5
				c0.6,1.5,0.8,2.8,0.6,3.9c-1.4,0.9-3.6,1.3-6.7,1.3c-3.2,0-5.6-0.7-7.4-2c0.7-2.2,2.9-7.1,6.5-14.8c3.2-6.8,4.9-10.5,4.9-11.1
				c0-1.1-1.1-1.6-3.4-1.6c-3,0-6.8,1.6-11.4,4.7c-1.1-1.3-1.7-2.5-1.8-3.6c1.7-1.6,3.8-3,6.2-4.1c2.6-1.2,4.9-1.7,7-1.7
				c2.2,0,4,0.4,5.3,1.3C66.9,9.5,67.8,11.1,67.8,13.2z"/>
			<path class="st1" d="M85.7,8.3c0,2.8-1.3,13.6-3.8,32.6c-0.7,0.2-1.2,0.3-1.8,0.3c-1,0-1.8-0.2-2.6-0.6c0.6-8,1.6-17.2,3-27.7
				c-1.8,0.5-3.7,0.9-5.5,1.2c-0.7-1.4-1-2.8-1-4c1.4-0.6,3.3-1.2,5.6-1.9c2.7-0.7,4.4-1.1,5.1-1.1C85.3,7.1,85.7,7.5,85.7,8.3z"/>
			<path class="st1" d="M101.4,6.9c1.1,0.3,2.2,0.8,3.3,1.5c-1.3,3.3-2.8,6.6-4.5,9.8c1,0.6,1.9,1.2,2.7,1.7
				c0.7-1.1,1.3-2.3,2.1-3.4c1.2,0.5,2.4,1.2,3.5,1.9c-1.5,3.1-3,6-4.4,8.7c0.5,0.2,1.2,0.4,2.2,0.4c0-0.7,0.1-1.4,0.3-2.1
				c0.9-0.1,2-0.3,3.1-0.4c0.2,1.7,0.3,3.5,0.3,5.3c-0.3,0.2-1.4,0.4-3.3,0.4c-3.6,0-6.2-0.4-8-1.1c0.4-1.8,1.2-3.8,2.2-5.9
				c-2.4-1.2-4.6-2.4-6.7-3.8C96.4,15,98.9,10.7,101.4,6.9z M97.5,33.5c0.6,0,1.2,0.1,1.8,0.2c0,1.5-0.1,3.1-0.4,4.9
				c-0.3,0.1-1,0.2-1.9,0.2c-0.9,0-1.5-0.1-2-0.4c0-2,0.1-3.6,0.4-4.7C96.1,33.6,96.7,33.5,97.5,33.5z M103.9,33.7
				c0.7,1,1.2,2.5,1.5,4.4c-1.1,0.6-2.1,0.9-3.2,1c-0.8-1.2-1.3-2.7-1.5-4.5C101.7,34.2,102.7,34,103.9,33.7z M108.9,32.7
				c0.7,0.8,1.2,2.1,1.4,3.7c-1,0.6-1.9,0.9-2.9,0.9c-0.8-1-1.2-2.3-1.4-3.8C106.9,33.2,107.8,33,108.9,32.7z M111.2,28.7
				c3.1,0.6,6,1.3,8.6,2.2c-0.4,1.8-0.8,3.6-1.4,5.2c-0.7,2.4-1.3,4-1.8,4.6c-1.3-0.2-2.4-0.5-3.3-0.9c0.4-2.1,0.9-4.1,1.3-6
				c-1.6-0.4-3.1-0.9-4.4-1.5C110.5,30.9,110.8,29.7,111.2,28.7z M124.4,5.6c0.7,0,1.4,0.1,2,0.2c0,1-0.1,2.1-0.2,3.2
				c2.1,0.2,4,0.4,5.8,0.6c0,6.7-0.4,11.6-1.2,14.8c-1,0.5-3.6,0.8-7.8,0.8c-3.9,0-7.2-0.4-9.9-1.3c-0.4-3.7-0.7-8.2-0.9-13.5
				c1.2-0.1,2.5-0.2,3.7-0.3c0.2,1.4,0.3,2.8,0.4,4.3c1.3-0.1,2.8-0.2,4.5-0.3c1.1,0,1.9,0.1,2.4,0.2V18c-1.7,0.2-3.9,0.3-6.6,0.4
				c0.1,0.8,0.1,1.7,0.2,2.5c3.9,0.2,7.4,0.3,10.7,0.3c0-2,0.2-4.7,0.5-8.1c-3.4-0.2-6.5-0.7-9.5-1.3c0.1-1.2,0.1-2.4,0.1-3.4
				c1.2,0.1,2.4,0.1,3.5,0.2c0.1-1.2,0.2-2.2,0.4-2.9C122.9,5.7,123.6,5.6,124.4,5.6z M124.5,25.9c0.7,5.4,1.2,11,1.4,16.7
				c-0.5,0.4-1.4,0.6-2.7,0.6c-1.8,0-3.1-0.1-4-0.2c-0.3-0.9-0.4-1.8-0.4-2.7c1-0.1,2-0.1,2.9-0.2c-0.7-4.6-1-9.2-1.1-13.9
				C121.8,26.1,123.1,25.9,124.5,25.9z M133,26.8c0.9,1,1.4,2.1,1.4,3.3c-1.2,0.9-3.7,1.9-7.5,2.9c-0.5-0.8-0.9-1.8-1.2-2.9
				C127.9,28.7,130.4,27.6,133,26.8z M127.6,35.4c1.9,0.5,3.8,1.1,5.9,1.9c-0.1,1-0.4,2.1-1,3.3c-2.1-0.2-4-0.8-5.9-1.8
				C126.8,37.6,127.1,36.5,127.6,35.4z"/>
			<path class="st1" d="M157.5,8.6c0.8,0,1.5,0.2,2.2,0.5c0.1,2.4,0.1,4.7,0.1,7c2.9-0.1,6-0.2,9.3-0.2c3.9,0,7,0.2,9.3,0.5
				c0.1,0.3,0.2,0.9,0.2,1.7c0,0.9-0.1,1.5-0.2,1.8c-0.6,0.2-3.7,0.4-9.3,0.4c-4.3,0-7.4,0-9.3-0.1c0,2.3,0,4.5,0,6.7
				c0,3-0.1,5.9-0.3,8.7c4.1,0.1,8.1,0.3,12.1,0.6v1.7c0,0.6-0.1,1.3-0.3,2c-8.6,0-17.2-0.3-25.9-0.9c-0.2-0.7-0.3-1.3-0.3-1.8
				c0.1-0.6,0.1-1.2,0.1-1.8c3.4,0,6.8,0,10.1,0.1c-0.2-2.7-0.3-5.4-0.3-8.2c0.1-6,0.3-12,0.6-18.1C156.4,8.9,157,8.7,157.5,8.6z"/>
			<path class="st1" d="M191.1,24h5.2c-0.1-0.7-0.1-1.3-0.1-2c1.3-0.2,2.6-0.3,3.8-0.3c0.2,0.8,0.5,1.6,0.7,2.3c1.8,0,3.6,0,5.3,0
				c0-0.9,0.1-1.8,0.1-2.6c0.7-0.2,1.3-0.4,1.8-0.4c0.8,0,1.5,0.1,2.1,0.4c0,0.9,0,1.8,0,2.7h5.6c0.2-0.9,0.5-1.7,0.8-2.5
				c1.2,0.1,2.4,0.2,3.4,0.5c-0.1,0.7-0.2,1.4-0.4,2c1.4,0,2.8,0,4.1,0v1.6c0,0.6-0.1,1.2-0.3,1.9h-4.8c-0.2,0.8-0.5,1.6-0.8,2.4
				c-1.2,0-2.4-0.2-3.5-0.7c0.1-0.6,0.2-1.2,0.4-1.7c-1.6,0-3.1,0-4.6,0c0,1.2,0,2.4,0,3.6h1.3c3.3,0,6,0.2,8,0.5
				c0.1,0.3,0.2,0.8,0.2,1.5c0,0.8-0.1,1.3-0.2,1.5c-0.5,0.2-3.1,0.3-8,0.3h-1.2v1.4c2.4,0.1,4.4,0.2,5.9,0.4
				c0.1,0.3,0.1,0.8,0.1,1.5c0,0.8,0,1.3-0.1,1.6c-0.4,0.2-2.4,0.2-6,0.3c0,1.3-0.1,2.6-0.3,3.8H206c-0.3-1.2-0.5-2.5-0.5-3.8
				c-4.2,0-6.5-0.1-7-0.3c-0.2-0.4-0.2-0.9-0.2-1.6c0.1-0.6,0.2-1.2,0.3-1.7c2.2-0.1,4.5-0.1,6.9-0.1c0-0.5,0-1,0-1.5
				c-6.4,0-10-0.1-10.7-0.3c-0.2-0.4-0.3-0.9-0.3-1.5c0.1-0.7,0.2-1.2,0.3-1.7c3.4-0.1,7-0.1,10.7-0.2c0-1.2,0.1-2.4,0.1-3.7
				c-1.5,0-3,0-4.5,0c0.1,0.7,0.1,1.3,0.1,1.9c-0.7,0.4-1.9,0.6-3.6,0.6c-0.4-0.8-0.7-1.7-0.9-2.5c-1.9,0-3.8,0-5.6,0
				c-0.2-0.7-0.3-1.3-0.3-1.8C191.1,25.1,191.1,24.6,191.1,24z M205.4,8.1c-1.2-0.2-2.5-0.3-3.6-0.5c0.1-1.1,0.1-2.2,0.1-3.2
				c6.8,0.2,12.8,0.6,18.2,1.1c0,6.5-0.4,11.4-1.2,14.5c-1.8,0.4-6.6,0.6-14.2,0.6c-3.8,0-7-0.4-9.7-1.1c-0.3-3.9-0.5-8.5-0.7-14
				c1.2-0.1,2.5-0.2,3.7-0.3c0.1,1.5,0.2,3,0.3,4.5c2.3,0.1,4.7,0.2,7.1,0.4C205.5,9.4,205.4,8.7,205.4,8.1z M198.6,13.2
				c0.1,1.1,0.2,2.2,0.2,3.3c2.4,0.1,4.7,0.2,6.9,0.2c-0.1-1-0.1-1.9-0.1-2.9C203.1,13.7,200.8,13.5,198.6,13.2z M209.5,16.8
				c2.1,0,4.1,0,6,0c0-2,0.1-4.7,0.4-8.1c-2.3-0.1-4.5-0.2-6.6-0.4c0,0.7,0,1.4,0,2c0.8,0.1,1.6,0.2,2.4,0.3c0,1-0.1,2.1-0.3,3.4
				c-0.7,0-1.4,0-2.1,0C209.5,15,209.5,15.9,209.5,16.8z"/>
			<path class="st1" d="M250.4,3.8c1.3,0,2.6,0.2,3.8,0.5c0,0.8-0.2,2.6-0.5,5.3c-0.1,1.1-0.3,2.2-0.6,3.3c0.7,0,1.3,0,1.9,0
				c0.6-2.3,1.5-4.9,2.6-8c1.6,0.2,2.9,0.7,3.9,1.3c-0.4,1.1-1.2,3.4-2.3,6.8c3.6,0.1,7.2,0.3,10.7,0.5c0,1.3-0.1,2.5-0.3,3.7
				c-10,0-20.1-0.2-30.1-0.7c0-1.3,0.1-2.6,0.4-3.9c3.2,0,6.3,0.1,9.4,0.1C249.4,10.5,249.8,7.5,250.4,3.8z M245.5,37.5
				c1,0.7,1.8,1.7,2.3,3c-1,1.2-2.8,2.6-5.3,3.9c-0.9-0.9-1.7-1.9-2.2-3C242,40.1,243.7,38.8,245.5,37.5z M244.5,5.5
				c1.3,1.3,2.3,3.2,2.8,5.7c-1.2,0.7-2.3,1-3.5,1.1c-1.5-1.5-2.4-3.5-2.7-5.9C242,6.1,243.1,5.8,244.5,5.5z M243.3,19.4
				c1.5,0,3,0.1,4.5,0.1c-0.1-0.5-0.2-1-0.3-1.5c1.1-0.2,2.2-0.4,3.4-0.6c0.4,0.8,0.7,1.5,0.9,2.2c1.9,0.1,3.8,0.1,5.7,0.2
				c0.2-0.8,0.5-1.6,0.8-2.4c1.1,0.1,2.3,0.2,3.5,0.5c-0.1,0.7-0.2,1.4-0.3,2c1.2,0.1,2.4,0.1,3.6,0.1v1.6c0,0.8-0.1,1.5-0.2,2.1
				c-2.6,0-5.2-0.1-7.8-0.1c0.1,0.6,0.1,1.1,0.2,1.7c3,0,5.1,0.1,6.3,0.2v3.2c-0.5,0.4-2.4,0.6-5.8,0.6c0.1,0.4,0.1,0.8,0.1,1.2
				c3.1-0.1,6.2-0.2,9.3-0.3c0.2,0.6,0.3,1.2,0.3,1.9v2.2c-3.1,0.2-6.2,0.3-9.2,0.4c0.2,3.1,0.4,6.1,0.4,9c-1.2,0.7-3.6,1.1-7.3,1.1
				c-0.2-0.9-0.4-2-0.4-3.2c0.9-0.1,1.9-0.2,3-0.4c-0.1-2.1-0.1-4.2-0.2-6.3c-3.2,0.2-6.5,0.3-9.8,0.3c-0.2-1.3-0.3-2.7-0.4-4.1
				c3.3-0.2,6.6-0.3,10-0.4c0-0.5,0-0.9,0-1.4c-3.6-0.1-6.2-0.2-7.9-0.5c-0.2-0.5-0.3-1-0.3-1.7c0.1-0.7,0.1-1.3,0.1-1.7
				c2.2,0,4.8,0,7.8,0c0-0.6-0.1-1.2-0.1-1.8c-3.3-0.1-6.7-0.2-10.1-0.4c-0.1-0.5-0.2-1.1-0.2-2C242.9,20.6,243.1,20,243.3,19.4z
				 M268.8,7.4c0.6,1.2,0.9,2.5,0.9,4c-2.2,0.4-4.2,0.8-6.2,1c-0.5-1.2-0.7-2.4-0.7-3.7C264.8,8,266.8,7.5,268.8,7.4z M265.8,36.4
				c2.1,1,4.1,2.3,6.1,4c-0.4,1.2-1.1,2.1-2.2,2.9c-2.1-1.1-4-2.4-5.8-4C264.5,38.3,265.1,37.3,265.8,36.4z"/>
			<path class="st1" d="M289.3,10.7c0.8,0,1.4,0.1,2,0.3c0.2,3,0.3,5.7,0.3,8.3c1.6,0,3.2,0.1,4.7,0.1c0-1.9,0-3.7,0-5.2
				c-0.9-0.1-1.8-0.2-2.6-0.3c-0.1-0.7-0.2-1.3-0.2-1.8c0.1-0.6,0.2-1.1,0.3-1.6c0.9,0,1.7,0.1,2.6,0.1c0-1.5,0.1-2.9,0.1-4.1
				c0.6,0,1.2-0.1,1.9-0.1c0.6,0,1.2,0.1,1.8,0.2v4.1c1,0.1,2,0.1,3,0.1c0-1.7,0.1-3.1,0.1-4.4c0.6,0,1.2-0.1,1.8-0.1
				c0.6,0,1.2,0.1,1.7,0.2v4.5c3.1,0.2,6.1,0.4,9,0.6c0,5.9-0.3,11.7-0.9,17.4c1.4-0.1,2.8-0.1,4.2-0.1c0.2,0.6,0.2,1.2,0.2,1.8v2.1
				c-11.9,0.7-24,1.1-36.2,1.4c-0.2-1.3-0.3-2.6-0.4-4c1.5-0.1,3-0.1,4.5-0.2c-0.2-2.2-0.2-4.4-0.2-6.8c0.1-3.8,0.2-7.8,0.4-12
				C288,10.8,288.6,10.8,289.3,10.7z M292.9,34.2c1.2,0.3,2.5,0.8,3.8,1.3c-0.8,2.2-2.1,4.4-3.8,6.7c-1.4-0.3-2.6-0.9-3.5-1.7
				C290.5,38.3,291.6,36.2,292.9,34.2z M291.3,29.7c3.2-0.1,6.5-0.2,9.7-0.4c3.3-0.1,6.7-0.2,10-0.4c0.3-4.3,0.4-8.9,0.4-13.5
				c-1.5,0-3-0.1-4.5-0.2c0,1.6-0.1,3.2-0.1,4.9c1,0.1,2,0.1,3,0.2c0,1-0.1,2.1-0.3,3.3c-0.9,0-1.8,0-2.7,0c0,0.9,0,1.7,0,2.6
				c-0.3,0.1-0.9,0.1-1.7,0.1c-0.8,0-1.4-0.1-1.8-0.4v-2.5c-1.1,0-2.1-0.1-3.1-0.1c0,1-0.1,2-0.1,3c-0.4,0.1-1,0.2-1.8,0.2
				c-0.8,0-1.5-0.1-1.9-0.4v-3c-1.6-0.2-3.1-0.3-4.6-0.5v0.1C291.6,25.3,291.5,27.6,291.3,29.7z M300.2,14.6c0,1.7-0.1,3.4-0.1,5
				c1,0.1,2,0.1,3,0.2c0-1.7,0-3.4,0-4.9C302.2,14.8,301.2,14.7,300.2,14.6z M311.2,34.3c1.4,1.6,2.6,3.4,3.8,5.3
				c-0.9,0.8-2,1.5-3.2,2c-1.4-1.6-2.6-3.3-3.7-5.2C308.9,35.7,310,35,311.2,34.3z"/>
			<path class="st1" d="M327.5,19.7c3,0,6.7,0,11.2-0.1c1.6,0,2.6,0.1,3.2,0.2v3.4c-0.2,0.4-1.3,0.6-3.3,0.6h-1.7
				c0.1,1.2,0.1,2.3,0.1,3.4c1.8,0.7,3.5,1.4,5.2,2.2c-0.3,1.1-0.7,2.1-1.5,3.1c-1.3-0.3-2.5-0.7-3.5-1.1c0.1,2.2,0.1,4.3,0.1,6.3
				c-0.4,0.2-1.1,0.3-2,0.3c-0.8,0-1.3-0.1-1.8-0.2c-0.2-2.2-0.3-4.3-0.5-6.3c-1.1,0.7-2.3,1.4-3.8,2.1c-1-1-1.7-2-2.2-3.1
				c1.7-1.3,3.6-2.6,5.7-3.8c0-1-0.1-2-0.1-3c-2.2-0.1-3.8-0.2-5.1-0.4c-0.2-0.5-0.2-1.1-0.2-1.8C327.4,20.8,327.5,20.2,327.5,19.7z
				 M329.2,11.3c3,0,6.7,0,11.1-0.1c0.2,0,0.4,0.1,0.5,0.2v3.3c-0.1,0.4-0.3,0.6-0.6,0.6c-5,0-8.7-0.2-10.9-0.5
				c-0.2-0.5-0.2-1.1-0.2-1.7C329.2,12.4,329.2,11.8,329.2,11.3z M350.6,13.5c-0.1-0.7-0.2-1.3-0.2-1.8c-0.5,0-0.8-0.1-1.1-0.1
				c-0.2-0.3-0.2-1-0.2-2c0.1-0.5,0.1-1,0.1-1.6h0.9c-0.1-0.8-0.1-1.7-0.1-2.5c1.2-0.1,2.5-0.2,3.8-0.3c0.1,1,0.2,1.9,0.3,2.9
				c1.2,0,2.3,0.1,3.5,0.1c0.1-1.1,0.2-2.2,0.3-3.3c1.1,0,2.3,0.1,3.5,0.3c0,1.1,0,2.1,0,3.2c2.1,0.1,4.1,0.2,6.1,0.4
				c0.3,0.9,0.5,2.9,0.5,6c0,2.9-0.1,5-0.2,6.4c-2.7,0.3-7.1,0.5-13.3,0.5c-3.5,0-6.9-0.3-10-0.9c-0.4-1.1-0.7-3.1-0.7-6
				c0-1.1,0.1-3.1,0.2-6c0.5-0.1,1-0.2,1.7-0.3c0.6,0,1.2,0.1,1.8,0.3c0,0.8,0,2.5,0.1,4.8C348.6,13.7,349.6,13.6,350.6,13.5z
				 M359.1,36.1c1.1,0.3,2.2,0.7,3.2,1.1c-0.1,0.7-0.3,1.3-0.6,1.8c1.7,0,3.1,0,4.2,0v3.3c-5.1,0.3-12,0.5-20.8,0.5
				c-0.1-1.1-0.2-2.2-0.3-3.4c1.1-0.1,2.5-0.2,4.3-0.4c-0.2-0.8-0.3-1.6-0.4-2.4c1.1-0.2,2.3-0.4,3.7-0.6c0.4,1,0.7,1.9,0.9,2.9h3.9
				C357.7,38,358.3,37,359.1,36.1z M351.6,26.6c5.2,0,9.1,0.5,11.9,1.5c0.2,1,0.3,2.2,0.3,3.6c0,1.4-0.1,2.4-0.4,2.9
				c-0.5,0.8-1.7,1.2-3.6,1.2c-6.8,0-11.1-0.4-12.8-1.3c-0.3-1.8-0.4-3.3-0.4-4.6c0.1-0.6,0.2-1.2,0.3-2c0.6-0.1,1.2-0.2,1.8-0.2
				c0.8,0,1.4,0,1.7,0.1c0.3,1.8,0.4,3.1,0.4,4c2.1,0.3,5,0.4,8.9,0.4c0.1,0,0.2-0.1,0.2-0.4c0.1-0.2,0.1-0.4,0.1-0.7
				c-0.6-0.2-3.4-0.6-8.4-1.2c-0.1-0.5-0.1-1.1-0.1-1.8C351.6,27.6,351.6,27.2,351.6,26.6z M361.7,12.8c0.1,0.4,0.1,0.9,0.1,1.5
				c0,0.8,0,1.4,0,1.7c-0.4,0.1-0.8,0.1-1.2,0.1c-0.1,0.5-0.1,1.1-0.2,1.6c-1,0-2.2-0.1-3.4-0.2v-1.1c-0.8,0.1-1.5,0.1-2.2,0.1
				c0,0.3,0,0.6,0,0.9c-1.2,0.2-2.3,0.3-3.6,0.3c-0.1-0.3-0.1-0.7-0.1-1c-1.2,0-2.3,0.1-3.4,0.1c0,0.4,0,0.7,0,1.1
				c5.4,0.3,10.8,0.5,16.1,0.5c0.2-0.8,0.3-1.9,0.3-3.5c0-0.8-0.1-1.6-0.2-2.5c-1.1,0-2.1-0.1-2.9-0.1c0,0.2,0,0.4,0,0.6
				C361.2,12.8,361.4,12.8,361.7,12.8z M353.9,22.3c4.1,0,7.1,0,9,0.1v3.3c-3.7,0.2-8.8,0.4-15.1,0.4c-0.1-1.1-0.2-2.2-0.3-3.4
				C349.1,22.5,351.3,22.4,353.9,22.3z M357,13.1c0-0.4,0-0.8,0-1c-1.1-0.1-2-0.1-2.8-0.1c0.1,0.4,0.1,0.9,0.1,1.3
				C355.3,13.2,356.2,13.2,357,13.1z"/>
		</g>
	</g>
</g>
</svg>
