<svg xmlns="http://www.w3.org/2000/svg" viewBox="0 0 452.35 543.84"><defs><style>.cls-1{fill:#d66322;}.cls-2{fill:#315434;}.cls-3{fill:#b48d61;}.cls-4{fill:#502a15;}.cls-5{fill:#fddabc;}.cls-6{fill:#f98f80;opacity:0.46;}.cls-11,.cls-6{isolation:isolate;}.cls-10,.cls-11,.cls-7,.cls-8,.cls-9{fill:none;}.cls-7,.cls-8{stroke:#f98f80;}.cls-11,.cls-7,.cls-8,.cls-9{stroke-linecap:round;stroke-miterlimit:10;}.cls-8,.cls-9{stroke-width:2px;}.cls-9{stroke:#502a15;}.cls-11{stroke:#5e3622;stroke-width:0.75px;opacity:0.54;}.cls-12{fill:#5e3622;}</style></defs><g id="圖層_2" data-name="圖層 2"><g id="OBJECTS"><g id="Group_149" data-name="Group 149"><path id="Path_36725" data-name="Path 36725" class="cls-1" d="M33.19,203.08c22.47-13.3,37.08-24.17,46.59-32.75a50.62,50.62,0,0,1,12.6-65.44C91.71,63,108.27,48.82,108.27,48.82s-22.83-7,14.57-14.33A32.73,32.73,0,0,1,188,28.81C213,32,233.17,46.57,247.57,67.42c.91,1.33,1.81,2.7,2.71,4.08,19.64,4.86,34.82,22.51,36.28,44.56a50.73,50.73,0,0,1-4.08,23.64c2.82,8.28,5.28,16.45,7.33,24.29,7.18,27.37,8.13,57-2.87,83.2-9.51,22.66-27.47,41.6-48.5,55.77s-45.09,23.9-69.58,31.72c-29.35,9.37-60.61,16.23-91.22,11.65C42,341,12.21,318.61,2.89,285.32-5.51,255.31,4.33,220.17,33.19,203.08Z"/><path id="Path_36726" data-name="Path 36726" class="cls-2" d="M11.6,378.25,73.84,273.57a55.74,55.74,0,0,1,3.83-6.44l0-.08h0c8.83-12.71,22.7-21,38.37-21.08l92.92-.75c14.74-.12,27.08,1.53,36.92,5.68,13.05.29,33.56,3.75,63.38,16.45q5.78,2.46,12,5.39c6.24,2.93-15.82,62.74-27.38,81.77-.38.64-.77,1.21-1.14,1.74l6.58,18a52.79,52.79,0,0,1-4.7,45.93l-11.51,18.23-6.85,105.42H69.69L68.5,398.28l-45.41-16Z"/><g id="Group_129" data-name="Group 129"><g id="Group_125" data-name="Group 125"><g id="Group_124" data-name="Group 124"><ellipse id="Ellipse_1" data-name="Ellipse 1" class="cls-3" cx="231.04" cy="411.76" rx="55.43" ry="46.31" transform="translate(-220.6 549.41) rotate(-77.65)"/><rect id="Rectangle_12" data-name="Rectangle 12" class="cls-3" x="238.44" y="349.03" width="18.9" height="18.9" transform="translate(-168.45 487.42) rotate(-72.54)"/><rect id="Rectangle_13" data-name="Rectangle 13" class="cls-4" x="246.44" y="333.88" width="11.06" height="23.23" rx="0.94" transform="translate(-153.14 482.38) rotate(-72.57)"/><ellipse id="Ellipse_2" data-name="Ellipse 2" class="cls-4" cx="240.79" cy="413.89" rx="55.43" ry="46.31" transform="translate(-215.02 560.6) rotate(-77.65)"/></g><path id="Path_36727" data-name="Path 36727" class="cls-3" d="M239.61,394.29l-15.77-15.14L228.18,402l-20,1.7,17,13.28-12.51,17.54,19.66-4.05,2.31,23.11,10.84-19,15.77,15.14-4.34-22.82,20-1.7-17-13.27,12.51-17.54-19.66,4-2.31-23.11Z"/></g><g id="Group_128" data-name="Group 128"><g id="Group_127" data-name="Group 127"><path id="Path_36728" data-name="Path 36728" class="cls-5" d="M6.86,475.3l14.3-91.1,1.93-1.9,66.75,23.5-6.37,41.58c31.85.39,81.61,1.11,81.61,1.11l2.42-6.86a65,65,0,0,1,13.43-22.3l3.33-3.73,2.45,7.95a4.7,4.7,0,0,0,5.86,3.1,5.24,5.24,0,0,0,1-.44l38.55-22.7,9.91-8.36a6,6,0,0,1,8.38.72l.4.46a6,6,0,0,1,.33,7.18l.58-.18.8-.67a6,6,0,0,1,8.37.72l.4.47a6,6,0,0,1-.72,8.37l-.11.1a5.81,5.81,0,0,1,3.53,1.89l.41.46a6,6,0,0,1-.5,8.39l-2.33,2.06c-.05.15-.08.27-.13.43,0,0,0,.12,0,.3a5.3,5.3,0,0,1,5,1.38l.38.39a5.28,5.28,0,0,1,0,7.46l-6.76,6.7a17.66,17.66,0,0,1-.69,1.75c-3.44,7.57-34,48.76-49.33,56.61,0,0-8.51,9.41-46.56,14.38-37.78,5-158.37,24.75-156.8-27.78A36.58,36.58,0,0,1,6.86,475.3Z"/><path id="Path_36729" data-name="Path 36729" class="cls-6" d="M15.05,448.78l71-18-1.67,17.43Z"/><g id="Group_126" data-name="Group 126"><line id="Line_1" data-name="Line 1" class="cls-7" x1="251.15" y1="403.07" x2="230.44" y2="420.52"/><line id="Line_2" data-name="Line 2" class="cls-7" x1="257.98" y1="413.65" x2="237.27" y2="431.1"/><line id="Line_3" data-name="Line 3" class="cls-7" x1="261.05" y1="425.87" x2="240.87" y2="443.94"/></g></g></g></g><g id="Group_143" data-name="Group 143"><g id="Group_131" data-name="Group 131"><g id="Group_130" data-name="Group 130"><path id="Path_36730" data-name="Path 36730" class="cls-5" d="M136.31,143.4h0A13.52,13.52,0,0,1,142,144c2.23.74,4.95,2,5.65,3.76s4.12-7.53,6.06-7.63c20.4-1.08,42.07-36,42.07-36,7.25,16.66,40.29,10.58,59.2,5.53.28,1.5.5,3,.65,4.56l5.58,57.91A54.1,54.1,0,0,1,251,209.27h0a54.7,54.7,0,0,1-40.69,27.36v25.86a30.34,30.34,0,0,1-30.25,30.24H177a30.33,30.33,0,0,1-30.24-30.24V204.92c0-.58.06-1.15.09-1.73a54.93,54.93,0,0,1-3.67-15.11l0-.55-2.49.24a21.25,21.25,0,0,1-23.13-19.07l-.21-2.17A21.25,21.25,0,0,1,136.31,143.4Z"/></g><path id="Path_36731" data-name="Path 36731" class="cls-6" d="M147.92,186.4a54.31,54.31,0,0,0,58.84,45.5l5.57-.53A54.18,54.18,0,0,0,251,209.27a54.72,54.72,0,0,1-40.83,27.37l.14,25.84-45.56-35.84h0a54.66,54.66,0,0,1-21.64-38.56S147.75,185.3,147.92,186.4Z"/></g><g id="Group_142" data-name="Group 142"><path id="Path_36732" data-name="Path 36732" class="cls-8" d="M132.11,155.75l8.86,10-8.39,5.39"/><g id="Group_133" data-name="Group 133"><g id="Group_132" data-name="Group 132"><path id="Path_36733" data-name="Path 36733" class="cls-8" d="M214,208.6s4.74-3.79,9.71-.61"/></g></g><g id="Group_134" data-name="Group 134"><path id="Path_36734" data-name="Path 36734" class="cls-8" d="M224.32,143.09l6.6,27.44a2.54,2.54,0,0,1-1.87,3.06l-6.46,1.57"/></g><g id="Group_141" data-name="Group 141"><g id="Group_140" data-name="Group 140"><g id="Group_139" data-name="Group 139"><g id="Group_136" data-name="Group 136"><g id="Group_135" data-name="Group 135"><path id="Path_36735" data-name="Path 36735" class="cls-1" d="M193.36,131a9.53,9.53,0,0,0,3.92-.63c1.36-.4,2.73-.77,3.93-1.05s2.6-.56,4-.8A9.61,9.61,0,0,0,209,127.3c.93-.68,1.06-2-.53-3.28s-4.89-2.16-8.88-1.23-6.56,3.26-7.31,5S192.21,130.77,193.36,131Z"/></g></g><g id="Group_138" data-name="Group 138"><g id="Group_137" data-name="Group 137"><path id="Path_36736" data-name="Path 36736" class="cls-1" d="M252.25,128.13a9.5,9.5,0,0,1-3.91-.68c-1.35-.43-2.72-.82-3.92-1.12s-2.59-.6-4-.86a9.33,9.33,0,0,1-3.77-1.24c-.92-.69-1-2,.58-3.27s4.92-2.09,8.9-1.1,6.51,3.36,7.23,5.13S253.4,128,252.25,128.13Z"/></g></g></g></g></g><path id="Path_36737" data-name="Path 36737" class="cls-8" d="M190.51,173.86s-1.84,11.14,19.65,13.5"/><path id="Path_36738" data-name="Path 36738" class="cls-9" d="M209.55,149.68s-4.17-2.7-10.15.57"/></g><path id="Path_36739" data-name="Path 36739" class="cls-3" d="M116.61,252.16s6.38-13.47,18.94-12.85c-5.26-3.6-10.24-10.05-10.18-21.6,0,0,14.72,4.49,20.5,19.74a5.47,5.47,0,0,1,1.7-.21L210,240.56a5.28,5.28,0,0,1,5,5.28v10.62a5.28,5.28,0,0,1-5.28,5.29l-.42,0-62.45-4.9a5.29,5.29,0,0,1-4.87-5.27V248.8C137.11,251.91,128.86,254.87,116.61,252.16Z"/></g><g id="Group_148" data-name="Group 148"><g id="Group_144" data-name="Group 144"><path id="Path_36740" data-name="Path 36740" class="cls-5" d="M294,354.51c11.56-19,27.38-81.76,27.38-81.76-1.64-.78,18,5.81,42.33,14.07l-35.22-97.71-4.92-5.61c-10.53-5.26-18.17-19.74-22.59-30.65l7.71-3s30.71-52.84,35.61-47c4.59,5.46,24.12,42.25,27,59.85,11.51,22.4,30.4,60.54,34.78,67.73l27.32,44.89c11.07,18.2,21.18,34.74,18.58,56.86-2.15,18.14-13.13,35.86-33.37,35.29a38.19,38.19,0,0,1-11.88-2.26Z"/><path id="Path_36741" data-name="Path 36741" class="cls-6" d="M384.05,343.38a37.24,37.24,0,0,0,2.12,4.41l-.06,0-41.85-67.22,19.49,6.51Z"/></g><g id="Group_145" data-name="Group 145"><path id="Path_36742" data-name="Path 36742" class="cls-10" d="M340,144.47l2.7,9.33L340,144.48Z"/><path id="Path_36743" data-name="Path 36743" class="cls-4" d="M249.83,158.76l-3.32-14.84a3.36,3.36,0,0,0-1.83-2.3l69.79-27.87,9.89,33.55-74.75,13.58A3.36,3.36,0,0,0,249.83,158.76Z"/><path id="Path_36744" data-name="Path 36744" class="cls-4" d="M340,144.48l-10.65-36.65h0L340,144.47Z"/><path id="Path_36745" data-name="Path 36745" class="cls-4" d="M329.34,107.82l-1.73-6L405.42,76l15.48,61.87L342.67,153.8l-2.7-9.33Z"/><path id="Path_36746" data-name="Path 36746" class="cls-3" d="M405.42,76l-.85-3.4a9.44,9.44,0,0,1,6.86-11.45h0l12.2-3A9.44,9.44,0,0,1,435.08,65l17,67.91a9.44,9.44,0,0,1-6.86,11.45l-12.2,3a9.44,9.44,0,0,1-11.44-6.87h0l-.66-2.63Z"/><path id="Path_36747" data-name="Path 36747" class="cls-3" d="M238.11,142.82l4-1.37a3.43,3.43,0,0,1,4.35,2.14l.09.32,3.32,14.85a3.41,3.41,0,0,1-2.59,4.06l-3.76.83a3.41,3.41,0,0,1-4-2.51l-3.52-14.29A3.41,3.41,0,0,1,238.11,142.82Z"/><path id="Path_36748" data-name="Path 36748" class="cls-3" d="M314.74,105.56l12.69-4.2,1.88,6.48L340,144.48l2.71,9.32-11.88,2a4.3,4.3,0,0,1-4.84-3l-1.6-5.42-9.88-33.56L313,108.84A2.65,2.65,0,0,1,314.74,105.56Z"/><line id="Line_4" data-name="Line 4" class="cls-11" x1="422.72" y1="57.86" x2="429.43" y2="83.8"/><line id="Line_5" data-name="Line 5" class="cls-11" x1="411.43" y1="61.19" x2="414.44" y2="73.59"/><line id="Line_6" data-name="Line 6" class="cls-11" x1="428.32" y1="119.43" x2="434.58" y2="147.01"/><path id="Path_36749" data-name="Path 36749" class="cls-12" d="M405.42,76,392,80.49l17.14,59.81,11.76-2.38Z"/><path id="Path_36750" data-name="Path 36750" class="cls-12" d="M314.47,113.75l9.89,33.56-7.28,1.32L306.85,116.8Z"/><line id="Line_7" data-name="Line 7" class="cls-11" x1="321.33" y1="103.38" x2="326.66" y2="126.15"/></g><g id="Group_147" data-name="Group 147"><g id="Group_146" data-name="Group 146"><rect id="Rectangle_14" data-name="Rectangle 14" class="cls-5" x="326.96" y="89.42" width="12.27" height="33.08" rx="3.23" transform="translate(-16.39 99.38) rotate(-16.57)"/><rect id="Rectangle_15" data-name="Rectangle 15" class="cls-5" x="315.19" y="92.92" width="12.27" height="33.08" rx="3.23" transform="translate(-17.87 96.14) rotate(-16.56)"/><rect id="Rectangle_16" data-name="Rectangle 16" class="cls-5" x="303.43" y="96.42" width="12.27" height="33.08" rx="3.23" transform="translate(-19.36 92.96) rotate(-16.57)"/><rect id="Rectangle_17" data-name="Rectangle 17" class="cls-5" x="338.12" y="88.63" width="12.27" height="24.79" rx="3.23" transform="translate(-14.52 102.35) rotate(-16.57)"/></g><path id="Path_36751" data-name="Path 36751" class="cls-5" d="M319.83,159.43s14.27-17.11,6.77-32.2c0,0-4.45-6.77-9.15.27s-11.45,19.34-16,22.69c-2,1.48.73,5,.73,5Z"/></g></g></g></g></g></svg>