<svg xmlns="http://www.w3.org/2000/svg" width="647.431" height="158.141" viewBox="0 0 647.431 158.141">
  <g id="Group_527" data-name="Group 527" transform="translate(-636.284 -1345)">
    <g id="Group_526" data-name="Group 526" transform="translate(150.221 1207.385)">
      <path id="Path_41452" data-name="Path 41452" d="M486.063,249.137c66.728-18.9,123.661,42.161,188.563,22.591L693.782,179.7c-64.9,19.567-121.834-41.491-188.563-22.593C558.657,210.852,530.139,217.836,486.063,249.137Z" transform="translate(0 20.108)" fill="#fbc192"/>
      <g id="Group_523" data-name="Group 523" transform="translate(588.13 139.573)">
        <path id="Path_41453" data-name="Path 41453" d="M617.486,290.74c7.649-29.67,11.414-51.623,19.156-82.568-25.215-16.291-44.342-43.542-66.136-69.7L530.99,212.732C560.147,247.721,583.447,270.316,617.486,290.74Z" transform="translate(-530.99 -138.477)" fill="#e5a373"/>
      </g>
      <path id="Path_41454" data-name="Path 41454" d="M887.331,248.275c-66.729-18.9-123.661,42.158-188.563,22.589l-19.156-92.032c64.9,19.57,121.834-41.488,188.563-22.591C814.737,209.988,843.255,216.972,887.331,248.275Z" transform="translate(246.163 19.012)" fill="#fbc192"/>
      <g id="Group_524" data-name="Group 524" transform="translate(925.775 137.615)">
        <path id="Path_41455" data-name="Path 41455" d="M698.768,289.876c-7.649-29.668-11.414-51.621-19.156-82.568,25.215-16.291,44.34-43.54,66.136-69.693l39.516,74.255C756.107,246.859,732.807,269.452,698.768,289.876Z" transform="translate(-679.612 -137.615)" fill="#e5a373"/>
      </g>
      <g id="Group_525" data-name="Group 525" transform="translate(587.798 138.199)">
        <path id="Path_41456" data-name="Path 41456" d="M935.413,137.872l40.4,73.589a466.733,466.733,0,0,1-224.028,57.457A466.975,466.975,0,0,1,530.844,213.14l39.848-73.894a382.757,382.757,0,0,0,181.1,45.718A382.579,382.579,0,0,0,935.413,137.872Z" transform="translate(-530.844 -137.872)" fill="#fbc192"/>
      </g>
    </g>
    <text id="_2021" data-name="2021" transform="translate(805.908 1429.377) rotate(11)" fill="#223c40" font-size="52" font-family="DFWaWa-W7-WIN-BF, DFWaWaW7-B5" letter-spacing="0.03em"><tspan x="0" y="0">2021</tspan></text>
    <text id="_畢業生" data-name=" 畢業生" transform="translate(950.014 1457.617) rotate(-11)" fill="#223c40" font-size="52" font-family="DFWaWa-W7-WIN-BF, DFWaWaW7-B5" letter-spacing="0.03em"><tspan x="0" y="0" xml:space="preserve"> 畢業生</tspan></text>
    <text id="_." data-name="." transform="translate(938 1439)" fill="#223c40" font-size="52" font-family="DFWaWa-W7-WIN-BF, DFWaWaW7-B5" letter-spacing="0.03em"><tspan x="0" y="0">.</tspan></text>
  </g>
</svg>
