<?xml version="1.0" encoding="utf-8"?>
<!-- Generator: Adobe Illustrator 25.3.1, SVG Export Plug-In . SVG Version: 6.00 Build 0)  -->
<svg version="1.1" id="圖層_1" xmlns="http://www.w3.org/2000/svg" xmlns:xlink="http://www.w3.org/1999/xlink" x="0px" y="0px"
	 viewBox="0 0 647.4 158.1" style="enable-background:new 0 0 647.4 158.1;" xml:space="preserve">
<style type="text/css">
	.st0{fill:#FBC192;}
	.st1{fill:#E5A373;}
	.st2{enable-background:new    ;}
	.st3{fill:#223C40;}
	.st4{font-family:'DFWaWa-W7-WIN-BF';}
	.st5{font-size:52px;}
	.st6{letter-spacing:1;}
</style>
<g id="Group_527" transform="translate(-636.284 -1345)">
	<g id="Group_526" transform="translate(150.221 1207.385)">
		<path id="Path_41452" class="st0" d="M486.1,269.2c66.7-18.9,123.7,42.2,188.6,22.6l19.2-92c-64.9,19.6-121.8-41.5-188.6-22.6
			C558.7,231,530.1,237.9,486.1,269.2z"/>
		<g id="Group_523" transform="translate(588.13 139.573)">
			<path id="Path_41453" class="st1" d="M86.5,152.3c7.6-29.7,11.4-51.6,19.2-82.6C80.4,53.4,61.3,26.2,39.5,0L0,74.3
				C29.2,109.2,52.5,131.8,86.5,152.3z"/>
		</g>
		<path id="Path_41454" class="st0" d="M1133.5,267.3c-66.7-18.9-123.7,42.2-188.6,22.6l-19.2-92c64.9,19.6,121.8-41.5,188.6-22.6
			C1060.9,229,1089.4,236,1133.5,267.3z"/>
		<g id="Group_524" transform="translate(925.775 137.615)">
			<path id="Path_41455" class="st1" d="M19.2,152.3C11.5,122.6,7.7,100.6,0,69.7C25.2,53.4,44.3,26.2,66.1,0l39.5,74.3
				C76.5,109.2,53.2,131.8,19.2,152.3z"/>
		</g>
		<g id="Group_525" transform="translate(587.798 138.199)">
			<path id="Path_41456" class="st0" d="M404.6,0L445,73.6c-68.7,37.6-145.7,57.4-224,57.5C143.8,131,67.9,111.8,0,75.3L39.8,1.4
				c55.7,30,117.9,45.7,181.1,45.7C285.1,47,348.3,30.9,404.6,0z"/>
		</g>
	</g>
	<g>
		<g class="st2">
			<path class="st3" d="M833.6,1403.8c-0.5,1.6-3.3,5.1-8.5,10.2c-4.1,4.1-6.3,6.1-10.6,10.1c0.9,0.4,1.8,0.8,2.9,1.1
				c1.8,0.6,3.7,1,5.8,1.4c0.2,1.8-0.1,3.2-0.7,4.3c-1.9,0.4-4.5,0-7.9-1.1c-3.5-1.2-6-2.8-7.4-4.8c1.6-2,5.9-6.1,12.6-12.6
				c5.9-5.8,8.9-9.1,9.1-9.7c0.4-1.1-0.6-2.1-3-2.8c-3.2-1-7.6-0.8-13.6,0.7c-0.6-1.8-0.8-3.2-0.5-4.4c2.3-1,5-1.6,7.9-1.9
				c3.1-0.3,5.7,0,7.8,0.7c2.3,0.7,4,1.8,5.1,3.1C833.9,1399.6,834.3,1401.5,833.6,1403.8z"/>
			<path class="st3" d="M857.5,1424.1c-1,3.6-2.7,6.8-5.2,9.6c-3.4,3.8-7.2,5.2-11.3,4.1c-3.7-1-6.2-3.4-7.5-7.1
				c-1.2-3.6-0.9-8.2,0.9-13.8c1.4-4.4,3.4-8,5.8-10.9c3.3-3.8,6.8-5.2,10.8-4.1c1.2,0.3,2.4,1,3.4,2c1,0.9,1.7,2,2.1,3.2
				c-0.7,0.9-2,1.7-3.8,2.5c-1-1.5-2-2.4-3.2-2.7c-1.7-0.5-3.5,0.4-5.4,2.5c-2.1,2.3-3.7,5.4-4.9,9.4c-1.2,3.8-1.5,7.1-0.8,9.7
				c0.6,2.5,2,4,4,4.6c1.8,0.5,3.8-0.5,6.1-2.9c2.1-2.3,3.6-4.8,4.3-7.4c0.7-2.4,1-4.3,1.1-5.6c0.1-1.6,0-3.7-0.5-6.2
				c1.3-0.6,2.7-1.1,4.3-1.5c0.8,2.6,1.2,5.1,1.1,7.4C858.8,1418.5,858.3,1421,857.5,1424.1z"/>
			<path class="st3" d="M888.7,1417.2c-0.3,1.7-2.7,5.4-7.4,11.2c-3.7,4.5-5.6,6.8-9.5,11.2c0.9,0.3,1.9,0.6,3.1,0.8
				c1.8,0.4,3.9,0.6,6,0.7c0.4,1.7,0.3,3.2-0.2,4.3c-1.9,0.6-4.6,0.6-8.2-0.1c-3.7-0.8-6.4-2.1-8.1-3.9c1.4-2.2,5.3-6.8,11.2-14
				c5.3-6.4,7.9-10,8-10.7c0.2-1.2-0.9-2-3.4-2.5c-3.3-0.7-7.9,0.1-13.7,2.3c-0.8-1.7-1.2-3.1-1.1-4.3c2.2-1.2,4.8-2.2,7.7-2.8
				c3.1-0.6,5.8-0.7,8-0.2c2.4,0.5,4.2,1.3,5.6,2.5C888.6,1413,889.2,1414.9,888.7,1417.2z"/>
			<path class="st3" d="M912.7,1415.6c-2.4,11.7-6.4,23.1-10.1,34.4c-0.8,0.1-1.5,0.1-2.2,0c-1.2-0.2-2.1-0.5-2.9-1.1
				c2.7-9.8,5.7-19.5,8.7-29.2c-2.1,0.2-4.3,0.3-6.4,0.3c-0.5-1.7-0.8-4-0.4-4.4c0.5-0.6,3.9-0.8,6.5-1.1c3.1-0.4,5.1-0.5,5.8-0.4
				C912.5,1414.2,912.9,1414.7,912.7,1415.6z"/>
		</g>
	</g>
	<g>
		<g class="st2">
			<path class="st3" d="M996.4,1418.1c-1.4,0.1-2.8,0.2-4.1,0.2c-0.2-1.2-0.4-2.3-0.6-3.4c7.5-1.1,14.2-2.1,20.2-2.8
				c1.6,6.9,3.1,14.3,2.2,15.6c-0.6,0.8-7.2,2.2-15.7,3.8c-4.3,0.8-8,1-11.1,0.7c-1.1-4.1-2.3-9-3.5-14.8c1.4-0.4,2.7-0.7,4-1
				c0.4,1.6,0.8,3.1,1.2,4.7c2.6-0.4,5.3-0.7,7.9-1C996.7,1419.5,996.6,1418.8,996.4,1418.1z M983.7,1437.9c2.4-0.4,3.5-0.6,5.9-1
				c-0.2-0.7-0.4-1.4-0.5-2.1c1.5-0.4,2.8-0.8,4.2-1.1c0.5,0.8,0.9,1.6,1.2,2.4c2.1-0.4,4.1-0.7,6-1.1c-0.2-1-0.3-1.9-0.4-2.8
				c0.7-0.4,1.4-0.7,2-0.8c0.9-0.2,2.2-0.2,2.5,0c0.3,0.3,0.4,1.9,0.7,2.8c2.5-0.5,3.8-0.8,6.3-1.3c0.1-1,0.1-2.6,0.3-2.8
				c0.4-0.4,2.7-0.3,3.9-0.3c0.1,0.7,0.1,1.5,0.1,2.2c1.6-0.3,3.2-0.6,4.6-1c0.2,0.7,0.3,1,0.4,1.7c0.2,0.6,0.2,1.3,0.2,2
				c-2.1,0.5-3.2,0.7-5.4,1.2c-0.1,0.9-0.1,1.8-0.2,2.7c-1.4,0.3-2.8,0.3-4.2,0.1c0-0.7,0-1.3,0-1.9c-1.8,0.3-3.6,0.7-5.3,1
				c0.3,1.3,0.6,2.5,0.9,3.8c0.6-0.1,0.9-0.2,1.4-0.3c3.8-0.8,6.9-1.2,9.2-1.4c0.2,0.3,0.4,0.8,0.6,1.5c0.2,0.8,0.3,1.4,0.2,1.7
				c-0.5,0.3-3.5,1.1-9.1,2.2c-0.6,0.1-0.8,0.2-1.4,0.3c0.1,0.6,0.2,0.9,0.3,1.5c2.8-0.5,5.1-0.8,6.9-0.9c0.2,0.3,0.4,0.8,0.5,1.6
				c0.2,0.9,0.3,1.4,0.2,1.7c-0.5,0.3-2.7,0.8-6.8,1.7c0.3,1.4,0.5,2.8,0.6,4.1c-1.8,0.4-2.7,0.5-4.5,0.9c-0.6-1.3-1.1-2.6-1.5-3.9
				c-4.9,0.9-7.6,1.3-8.2,1.2c-0.3-0.4-0.5-0.9-0.6-1.6c-0.1-0.6-0.1-1.3-0.1-1.9c2.5-0.5,5.2-1,8-1.6c-0.1-0.5-0.2-1.1-0.3-1.6
				c-7.4,1.4-12,2.1-12.4,1.9c-0.3-0.1-0.6-1-0.7-1.6c-0.1-0.7,0-1.4,0-1.9c3.9-0.7,8-1.5,12.3-2.4c-0.2-1.3-0.5-2.6-0.7-3.9
				c-1.7,0.3-3.4,0.6-5.1,0.9c0.3,0.7,0.4,1.3,0.6,2c-0.7,0.6-2,1-3.9,1.4c-0.6-0.8-1.1-1.6-1.6-2.5c-2.2,0.4-4.3,0.7-6.4,1
				c-0.4-0.7-0.6-1.4-0.7-1.8C983.9,1439.1,983.8,1438.5,983.7,1437.9z M989.9,1425c0.3,1.1,0.6,2.3,0.9,3.5
				c2.7-0.4,5.3-0.8,7.8-1.2c-0.3-1-0.5-2-0.8-3C995.1,1424.6,992.5,1424.8,989.9,1425z M1002.8,1426.6c2.3-0.4,4.6-0.8,6.7-1.3
				c-0.5-2.1-1-5-1.4-8.6c-2.6,0.5-5,0.8-7.3,1.1c0.2,0.8,0.4,1.5,0.5,2.1c0.9-0.1,1.8-0.2,2.8-0.2c0.2,1.1,0.4,2.3,0.4,3.7
				c-0.8,0.2-1.6,0.3-2.3,0.4C1002.4,1424.6,1002.6,1425.6,1002.8,1426.6z"/>
			<path class="st3" d="M1041.2,1405.2c1.8,1,3.3,2.7,4.6,5.1c-1.1,1-2.2,1.7-3.4,2.1c-2-1.2-3.5-3-4.6-5.4
				C1038.7,1406.5,1039.8,1405.9,1041.2,1405.2z M1047,1401.7c1.4-0.4,3.7-0.9,4.1-0.6c0.3,0.2,0.6,2.7,1.1,5.7
				c0.2,1.2,0.3,2.4,0.4,3.6c0.7-0.2,1.4-0.3,2.1-0.5c-0.1-2.6,0-5.6,0.3-9.1c1.7-0.2,3.2-0.2,4.6,0.2c-0.1,1.3-0.2,3.9-0.3,7.8
				c3.9-1,7.7-2,11.5-2.9c0.4,1.3,0.7,2.6,0.9,3.9c-10.9,3.2-21.6,5.9-32.7,8.4c-0.4-1.3-0.6-2.8-0.6-4.2c3.4-0.8,6.8-1.7,10.2-2.5
				C1047.9,1409,1047.5,1405.7,1047,1401.7z M1044,1420c1.6-0.4,3.3-0.8,4.9-1.2c-0.3-0.5-0.6-1-0.8-1.5c1.1-0.6,2.3-1.1,3.5-1.6
				c0.7,0.7,1.2,1.3,1.7,2.1c2.1-0.5,4.2-1,6.2-1.6c0-0.9-0.2-2.5,0.1-2.7c0.3-0.4,3.6-0.8,3.9-0.6c0.2,0.2,0.3,1.5,0.3,2.2
				c1.3-0.3,2.6-0.7,3.9-1c0.2,0.7,0.3,1,0.5,1.6c0.3,0.8,0.4,1.5,0.5,2.2c-2.8,0.8-5.6,1.6-8.5,2.3c0.2,0.6,0.5,1.1,0.7,1.7
				c3.2-0.9,5.5-1.5,6.9-1.8c0.4,1.3,0.6,2,1.1,3.3c-0.4,0.6-2.5,1.4-6.1,2.5c0.2,0.4,0.4,0.8,0.5,1.2c3.3-1.1,6.7-2.2,10-3.3
				c0.4,0.5,0.8,1.1,1,1.8c0.3,0.9,0.4,1.3,0.7,2.2c-3.3,1.2-6.7,2.4-10,3.5c1.2,3.1,2.4,6.2,3.4,9.2c-1.1,1.1-3.7,2.3-7.8,3.4
				c-0.5-0.9-1-1.9-1.5-3.2c1-0.4,2.1-0.8,3.2-1.4c-0.7-2.2-1.5-4.3-2.3-6.4c-3.5,1.2-7.1,2.3-10.7,3.3c-0.6-1.3-1.2-2.7-1.7-4.2
				c3.6-1.2,7.3-2.3,10.9-3.4c-0.2-0.5-0.3-0.9-0.5-1.4c-3.9,1-6.9,1.6-8.8,1.8c-0.3-0.4-0.7-1-0.8-1.7c-0.2-0.7-0.3-1.3-0.4-1.8
				c2.4-0.6,5.3-1.4,8.6-2.4c-0.2-0.6-0.4-1.2-0.7-1.8c-3.7,0.9-7.4,1.8-11.2,2.6c-0.3-0.5-0.6-1.2-0.8-2
				C1043.8,1421.5,1043.8,1420.7,1044,1420z M1051.8,1438.3c1.3,0.5,2.5,1.3,3.5,2.4c-0.8,1.6-2.3,3.5-4.8,5.7
				c-1.3-0.7-2.5-1.5-3.4-2.5C1048.6,1442,1050.1,1440.2,1051.8,1438.3z M1067.5,1399.8c1,1,1.7,2.3,2.2,3.8c-2.2,1.2-4.2,2.2-6.2,3
				c-0.9-1-1.5-2.2-1.9-3.6C1063.5,1401.7,1065.5,1400.6,1067.5,1399.8z M1073.9,1430.7c2.6,0.3,5.3,1,8.1,2.1
				c0,1.3-0.5,2.6-1.4,3.7c-2.7-0.4-5.3-1.1-7.8-2.2C1073.1,1433.1,1073.4,1431.9,1073.9,1430.7z"/>
			<path class="st3" d="M1092.8,1395.4c1.7,0,3.2,0.1,4.6,0.3c-0.5,7.1-1.2,13.9-2.3,20.6c-1.7,0.1-3.2-0.1-4.4-0.6
				C1091.2,1408.9,1091.9,1402.1,1092.8,1395.4z M1100.2,1399.5c3-1.1,6-2.2,9-3.3c-1.1-3.4-1.9-6.3-2.6-9c0.7-0.3,1.4-0.6,2-0.9
				c0.7-0.3,1.4-0.4,2.1-0.5c1.1,2.8,2.2,5.7,3.3,8.7c3.6-1.3,7.2-2.7,10.8-4c0.3,0.8,0.5,1.1,0.8,1.9c0.4,0.8,0.5,1.5,0.6,2
				c-3.8,1.6-7.4,3-10.6,4.2c0.8,2.2,1.6,4.5,2.4,6.7c2.4-0.8,4.8-1.6,7.3-2.3c0.5,1.1,0.9,2.4,1.2,3.8c-2.4,1-4.7,1.8-7.1,2.6
				c0.7,2.1,1.4,4.3,2.1,6.4c2.8-1,5.7-2,8.8-3c0.5,1.2,0.9,2.4,1.3,3.8c-6.5,2.6-13.1,4.9-19.8,6.8c-0.3-0.9-0.5-1.3-0.8-2.1
				c-0.1-0.5-0.3-1-0.5-1.5c2.1-0.8,4.3-1.5,6.6-2.4c-0.9-2.3-1.7-4.4-2.5-6.4c-2.2,0.7-4.4,1.3-6.6,1.8c-0.3-0.8-0.5-1.3-0.8-2.1
				c-0.1-0.5-0.3-1-0.5-1.5c2-0.7,4.1-1.5,6.3-2.3c-0.9-2.3-1.6-4.5-2.3-6.5c-3.4,1.3-6.4,2.4-9,3.3c-0.3-0.2-0.8-0.9-1.1-1.9
				C1100.4,1401.2,1100.3,1400.4,1100.2,1399.5z"/>
		</g>
	</g>
	<text transform="matrix(1 0 0 1 938 1439)" class="st3 st4 st5 st6">.</text>
</g>
</svg>
