<?xml version="1.0" encoding="utf-8"?>
<!-- Generator: Adobe Illustrator 25.3.1, SVG Export Plug-In . SVG Version: 6.00 Build 0)  -->
<svg version="1.1" id="圖層_1" xmlns="http://www.w3.org/2000/svg" xmlns:xlink="http://www.w3.org/1999/xlink" x="0px" y="0px"
	 viewBox="0 0 647.4 158.1" style="enable-background:new 0 0 647.4 158.1;" xml:space="preserve">
<style type="text/css">
	.st0{fill:#FBC192;}
	.st1{fill:#E5A373;}
	.st2{enable-background:new    ;}
	.st3{fill:#223C40;}
	.st4{font-family:'DFWaWa-W7-WIN-BF';}
	.st5{font-size:52px;}
	.st6{letter-spacing:1;}
</style>
<g id="Group_527" transform="translate(-636.284 -1345)">
	<g id="Group_526" transform="translate(150.221 1207.385)">
		<path id="Path_41452" class="st0" d="M486.1,269.2c66.7-18.9,123.7,42.2,188.6,22.6l19.2-92c-64.9,19.6-121.8-41.5-188.6-22.6
			C558.7,231,530.1,237.9,486.1,269.2z"/>
		<g id="Group_523" transform="translate(588.13 139.573)">
			<path id="Path_41453" class="st1" d="M86.5,152.3c7.6-29.7,11.4-51.6,19.2-82.6C80.4,53.4,61.3,26.2,39.5,0L0,74.3
				C29.2,109.2,52.5,131.8,86.5,152.3z"/>
		</g>
		<path id="Path_41454" class="st0" d="M1133.5,267.3c-66.7-18.9-123.7,42.2-188.6,22.6l-19.2-92c64.9,19.6,121.8-41.5,188.6-22.6
			C1060.9,229,1089.4,236,1133.5,267.3z"/>
		<g id="Group_524" transform="translate(925.775 137.615)">
			<path id="Path_41455" class="st1" d="M19.2,152.3C11.5,122.6,7.7,100.6,0,69.7C25.2,53.4,44.3,26.2,66.1,0l39.5,74.3
				C76.5,109.2,53.2,131.8,19.2,152.3z"/>
		</g>
		<g id="Group_525" transform="translate(587.798 138.199)">
			<path id="Path_41456" class="st0" d="M404.6,0L445,73.6c-68.7,37.6-145.7,57.4-224,57.5C143.8,131,67.9,111.8,0,75.3L39.8,1.4
				c55.7,30,117.9,45.7,181.1,45.7C285.1,47,348.3,30.9,404.6,0z"/>
		</g>
	</g>
	<g>
		<g class="st2">
			<path class="st3" d="M809.7,1392.6c-0.8,1.5-4.1,4.5-10.2,8.6c-4.9,3.3-7.4,4.9-12.5,7.9c0.8,0.6,1.7,1.1,2.7,1.7
				c1.7,0.9,3.6,1.7,5.7,2.4c-0.1,1.8-0.6,3.1-1.5,4.1c-2,0-4.7-0.8-8-2.6c-3.4-1.8-5.6-3.9-6.7-6.2c2-1.6,7.2-4.8,15.1-9.9
				c7-4.6,10.4-7.3,10.8-7.9c0.6-1-0.3-2.1-2.5-3.3c-3-1.6-7.5-2.1-13.6-1.9c-0.3-1.8-0.2-3.3,0.3-4.4c2.5-0.5,5.2-0.6,8.1-0.4
				c3.1,0.3,5.6,1,7.6,2.1c2.1,1.1,3.6,2.4,4.5,3.9C810.7,1388.5,810.8,1390.5,809.7,1392.6z"/>
			<path class="st3" d="M831,1416.3c-1.4,3.4-3.6,6.4-6.6,8.8c-4,3.3-8.2,4.1-12.2,2.3c-3.7-1.6-6-4.4-6.7-8.3
				c-0.7-3.8,0.4-8.3,3-13.5c2.1-4.1,4.6-7.4,7.5-9.8c3.9-3.3,7.6-4.1,11.4-2.5c1.2,0.5,2.2,1.3,3.1,2.4c0.9,1.1,1.4,2.2,1.7,3.4
				c-0.9,0.8-2.2,1.4-4.2,1.9c-0.8-1.6-1.7-2.7-2.8-3.2c-1.6-0.7-3.5-0.1-5.8,1.7c-2.4,1.9-4.5,4.8-6.4,8.5
				c-1.8,3.6-2.6,6.8-2.3,9.5c0.3,2.5,1.5,4.3,3.5,5.2c1.7,0.8,4,0.1,6.6-2c2.5-1.9,4.3-4.2,5.4-6.7c1-2.3,1.6-4.1,1.9-5.4
				c0.3-1.6,0.5-3.7,0.4-6.2c1.4-0.5,2.9-0.8,4.5-0.9c0.5,2.7,0.5,5.2,0.1,7.5C833,1411,832.2,1413.4,831,1416.3z"/>
			<path class="st3" d="M863.7,1413.2c-0.5,1.7-3.3,5.2-8.7,10.3c-4.3,4.1-6.5,6.1-11.1,10.1c0.9,0.4,2,0.8,3.1,1.1
				c1.9,0.6,4,1,6.3,1.3c0.2,1.8,0,3.2-0.7,4.3c-2,0.4-4.9,0.1-8.6-1.1c-3.8-1.2-6.5-2.9-8-4.9c1.7-2,6.3-6,13.3-12.5
				c6.2-5.8,9.1-9.1,9.3-9.8c0.4-1.1-0.7-2.1-3.2-2.8c-3.3-1-8-0.7-14.2,0.7c-0.6-1.8-0.8-3.2-0.6-4.4c2.4-1,5.2-1.6,8.2-1.8
				c3.2-0.3,5.9,0,8.1,0.6c2.4,0.7,4.2,1.7,5.4,3C863.9,1409,864.4,1410.9,863.7,1413.2z"/>
			<path class="st3" d="M888.4,1413.5c-3.3,11.6-8.3,22.6-13.1,33.6c-0.9,0-1.6,0-2.3-0.2c-1.2-0.3-2.2-0.7-3-1.4
				c3.7-9.5,7.6-18.9,11.4-28.4c-2.2,0.1-4.4,0-6.6-0.2c-0.4-1.7-0.5-4.1-0.1-4.5c0.6-0.5,4-0.5,6.8-0.6c3.2-0.1,5.3-0.1,6,0
				C888.3,1412.1,888.6,1412.6,888.4,1413.5z"/>
		</g>
	</g>
	<g>
		<g class="st2">
			<path class="st3" d="M954.8,1417.7c-1.5-0.1-2.9-0.2-4.2-0.3c0-1.2-0.1-2.4-0.1-3.5c7.8-0.1,14.8-0.2,21-0.1
				c0.7,7.1,1.3,14.6,0.3,15.8c-0.7,0.8-7.6,1.3-16.6,1.7c-4.5,0.2-8.3,0-11.5-0.7c-0.6-4.2-1.2-9.3-1.7-15.2
				c1.4-0.2,2.8-0.3,4.2-0.4c0.2,1.6,0.4,3.2,0.6,4.8c2.7,0,5.5,0,8.3,0.1C955,1419.1,954.9,1418.4,954.8,1417.7z M939.3,1435.6
				c2.5-0.1,3.7-0.1,6.1-0.2c-0.1-0.7-0.2-1.4-0.3-2.2c1.5-0.2,3-0.4,4.4-0.5c0.4,0.9,0.7,1.7,1,2.5c2.2-0.1,4.3-0.2,6.3-0.3
				c-0.1-1-0.1-1.9-0.1-2.9c0.8-0.3,1.5-0.5,2.1-0.6c0.9-0.1,2.3,0,2.5,0.3c0.3,0.4,0.2,1.9,0.3,2.9c2.7-0.2,4-0.3,6.6-0.4
				c0.2-1,0.4-2.5,0.7-2.8c0.5-0.4,2.8,0,4.1,0.2c0,0.8-0.1,1.5-0.2,2.2c1.7-0.1,3.3-0.2,4.9-0.4c0.1,0.7,0.1,1.1,0.2,1.8
				c0.1,0.6,0.1,1.3-0.1,2.1c-2.3,0.2-3.4,0.3-5.7,0.5c-0.2,0.9-0.4,1.7-0.6,2.7c-1.5,0.1-2.9,0-4.3-0.4c0-0.7,0.1-1.3,0.2-1.9
				c-1.9,0.1-3.7,0.2-5.5,0.3c0.2,1.3,0.3,2.6,0.4,3.9c0.6,0,0.9-0.1,1.5-0.1c4-0.3,7.2-0.3,9.6-0.2c0.2,0.3,0.3,0.8,0.4,1.6
				c0.1,0.8,0.1,1.4,0,1.7c-0.5,0.3-3.7,0.7-9.6,1.1c-0.6,0-0.9,0.1-1.5,0.1c0.1,0.6,0.1,0.9,0.2,1.5c3-0.1,5.3-0.1,7.2,0
				c0.2,0.3,0.3,0.9,0.4,1.6c0.1,0.9,0.1,1.5,0,1.7c-0.5,0.2-2.9,0.5-7.2,0.8c0.1,1.4,0.2,2.8,0.1,4.1c-1.9,0.1-2.8,0.2-4.7,0.3
				c-0.5-1.3-0.8-2.7-1.1-4.1c-5.1,0.2-8,0.2-8.5,0.1c-0.2-0.4-0.4-1-0.4-1.7c0-0.6,0.1-1.3,0.2-1.9c2.6-0.2,5.5-0.4,8.4-0.6
				c0-0.5,0-1.1-0.1-1.6c-7.8,0.4-12.5,0.5-13,0.2c-0.2-0.2-0.5-1-0.5-1.7c0-0.7,0.1-1.3,0.3-1.9c4.1-0.2,8.4-0.5,12.9-0.8
				c-0.1-1.3-0.2-2.6-0.2-4c-1.8,0.1-3.6,0.2-5.4,0.2c0.2,0.7,0.3,1.4,0.3,2c-0.8,0.5-2.2,0.8-4.2,0.8c-0.5-0.9-0.9-1.8-1.3-2.7
				c-2.3,0.1-4.5,0.1-6.7,0.2c-0.3-0.8-0.5-1.4-0.5-1.9C939.3,1436.9,939.3,1436.2,939.3,1435.6z M947.3,1423.6
				c0.2,1.1,0.3,2.3,0.5,3.5c2.8,0,5.5-0.1,8.2-0.1c-0.2-1-0.3-2.1-0.4-3.1C952.6,1423.9,949.9,1423.8,947.3,1423.6z M960.3,1426.9
				c2.4-0.1,4.8-0.3,7.1-0.4c-0.2-2.2-0.3-5.1-0.4-8.8c-2.7,0.1-5.2,0.2-7.7,0.1c0.1,0.8,0.2,1.5,0.2,2.1c0.9,0,1.9,0.1,2.8,0.1
				c0.1,1.1,0.1,2.3,0,3.7c-0.8,0.1-1.6,0.1-2.4,0.1C960.1,1424.9,960.2,1425.9,960.3,1426.9z"/>
			<path class="st3" d="M1002.2,1410.5c1.7,1.2,3.1,3.1,4.1,5.7c-1.2,0.9-2.5,1.4-3.8,1.7c-1.9-1.4-3.3-3.4-4-5.9
				C999.5,1411.5,1000.8,1411,1002.2,1410.5z M1008.6,1407.7c1.5-0.2,3.9-0.5,4.3-0.1c0.2,0.2,0.3,2.8,0.4,5.8
				c0.1,1.2,0.1,2.4,0,3.6c0.8-0.1,1.5-0.2,2.2-0.3c0.2-2.5,0.7-5.5,1.4-9c1.8,0,3.3,0.2,4.6,0.7c-0.2,1.3-0.7,3.9-1.3,7.7
				c4.1-0.5,8.1-1,12.1-1.6c0.3,1.4,0.4,2.7,0.4,4c-11.5,1.9-22.8,3.4-34.5,4.5c-0.2-1.4-0.3-2.8-0.1-4.3c3.6-0.4,7.2-0.8,10.7-1.3
				C1008.7,1415.1,1008.6,1411.8,1008.6,1407.7z M1003.3,1425.6c1.7-0.2,3.5-0.4,5.2-0.6c-0.2-0.5-0.5-1.1-0.7-1.6
				c1.2-0.4,2.5-0.8,3.8-1.2c0.6,0.7,1.1,1.5,1.5,2.3c2.2-0.3,4.4-0.5,6.6-0.8c0.1-0.9,0.1-2.5,0.4-2.7c0.4-0.3,3.8-0.4,4.1-0.1
				c0.2,0.2,0.1,1.5,0,2.2c1.4-0.2,2.8-0.3,4.1-0.5c0.1,0.7,0.2,1,0.3,1.7c0.2,0.8,0.2,1.6,0.2,2.2c-3,0.5-6,0.9-9,1.3
				c0.2,0.6,0.4,1.2,0.6,1.8c3.4-0.5,5.8-0.9,7.3-1c0.3,1.4,0.4,2.1,0.7,3.4c-0.5,0.5-2.7,1.1-6.6,1.8c0.2,0.5,0.3,0.9,0.4,1.3
				c3.5-0.7,7.1-1.4,10.7-2.1c0.4,0.6,0.7,1.2,0.8,1.9c0.2,0.9,0.3,1.4,0.5,2.3c-3.6,0.8-7.1,1.6-10.7,2.3c0.9,3.3,1.7,6.4,2.4,9.6
				c-1.3,1-4.1,1.9-8.5,2.5c-0.4-0.9-0.8-2.1-1.2-3.4c1.1-0.3,2.3-0.6,3.5-1c-0.5-2.2-1-4.4-1.6-6.7c-3.8,0.7-7.6,1.4-11.4,2
				c-0.5-1.4-0.9-2.8-1.2-4.4c3.9-0.7,7.7-1.4,11.6-2.1c-0.1-0.5-0.2-1-0.3-1.4c-4.2,0.6-7.3,0.8-9.3,0.8c-0.3-0.5-0.6-1.1-0.6-1.8
				c-0.1-0.7-0.1-1.4-0.2-1.9c2.6-0.4,5.6-0.8,9.1-1.4c-0.2-0.7-0.3-1.3-0.5-1.9c-3.9,0.5-7.8,0.9-11.8,1.2
				c-0.2-0.5-0.5-1.2-0.6-2.1C1002.9,1427,1003,1426.3,1003.3,1425.6z M1009.1,1444.6c1.3,0.6,2.4,1.5,3.3,2.8
				c-1,1.5-2.8,3.2-5.6,5.1c-1.3-0.8-2.3-1.8-3.1-2.9C1005.3,1448,1007.1,1446.3,1009.1,1444.6z M1029.8,1408.2
				c0.9,1.1,1.5,2.5,1.8,4.1c-2.4,0.9-4.6,1.7-6.7,2.3c-0.8-1.1-1.3-2.4-1.5-3.8C1025.5,1409.6,1027.6,1408.8,1029.8,1408.2z
				 M1032.7,1439.7c2.7,0.6,5.4,1.6,8.1,3c-0.2,1.3-0.8,2.5-1.8,3.6c-2.7-0.7-5.3-1.7-7.8-3.1
				C1031.6,1442,1032.1,1440.8,1032.7,1439.7z"/>
			<path class="st3" d="M1056.3,1406.5c0.8-0.2,1.6-0.3,2.2-0.2c1,3.1,1.8,6,2.5,8.7c1.8-0.4,3.6-0.8,5.3-1.1c-0.5-2-1-3.8-1.4-5.5
				c-1,0.1-2,0.2-3,0.3c-0.3-0.7-0.6-1.3-0.7-1.8c-0.1-0.6-0.1-1.2-0.1-1.8c1-0.2,1.9-0.4,2.8-0.6c-0.4-1.6-0.7-3.1-1-4.4
				c0.6-0.2,1.3-0.4,2-0.6c0.6-0.2,1.3-0.2,2-0.2c0.5,1.7,0.7,2.6,1.1,4.3c1.1-0.2,2.3-0.4,3.4-0.7c-0.4-1.7-0.8-3.3-1.1-4.7
				c0.6-0.2,1.3-0.4,1.9-0.7c0.6-0.2,1.3-0.2,1.9-0.2c0.5,1.9,0.8,2.8,1.3,4.7c3.4-0.7,6.7-1.4,9.9-2.1c1.8,6.1,3.3,12.2,4.4,18.4
				c1.5-0.5,3.1-1,4.6-1.5c0.4,0.5,0.6,1.1,0.9,1.8c0.3,0.9,0.4,1.3,0.7,2.2c-13.3,4.6-26.8,8.5-40.5,11.7c-0.6-1.3-1-2.7-1.5-4.1
				c1.7-0.4,3.4-0.9,5-1.3c-0.8-2.2-1.5-4.6-2.1-7.2c-0.9-4-1.8-8.3-2.7-12.7C1054.9,1407,1055.6,1406.7,1056.3,1406.5z
				 M1063.5,1426c3.6-1,7.2-2,10.8-3c3.7-1.1,7.4-2.2,11.1-3.3c-1-4.6-2.3-9.4-3.7-14.2c-1.6,0.4-3.3,0.8-5,1.1
				c0.4,1.7,0.9,3.4,1.3,5.1c1.1-0.2,2.2-0.4,3.3-0.6c0.3,1,0.5,2.2,0.6,3.5c-1,0.3-2,0.5-3,0.7c0.3,0.9,0.5,1.8,0.7,2.8
				c-0.3,0.2-0.9,0.4-1.9,0.7c-0.9,0.2-1.6,0.3-2.1,0.1c-0.3-1-0.4-1.6-0.7-2.6c-1.2,0.3-2.4,0.5-3.5,0.7c0.3,1.1,0.5,2.1,0.8,3.2
				c-0.4,0.2-1,0.5-1.9,0.7c-0.9,0.2-1.7,0.3-2.2,0.1c-0.3-1.3-0.5-1.9-0.9-3.2c-1.8,0.3-3.6,0.5-5.3,0.7c0,0,0,0.1,0,0.1
				C1062.7,1421.2,1063.2,1423.7,1063.5,1426z M1066.6,1430.3c1.5,0,3.1,0.1,4.7,0.3c-0.3,2.5-1.1,5.2-2.4,8c-1.7,0-3.2-0.3-4.5-0.9
				C1065,1435.2,1065.8,1432.7,1066.6,1430.3z M1069.3,1407.8c0.4,1.8,0.9,3.5,1.3,5.3c1.2-0.2,2.3-0.4,3.4-0.7
				c-0.5-1.8-0.9-3.5-1.4-5.2C1071.5,1407.4,1070.4,1407.6,1069.3,1407.8z M1087.3,1425.1c2.1,1.3,4,2.7,5.9,4.3
				c-0.7,1.1-1.7,2.1-3,3.1c-2.1-1.2-4-2.6-5.8-4.3C1085.2,1427.3,1086.2,1426.3,1087.3,1425.1z"/>
			<path class="st3" d="M1103.6,1404c3.2-1,7.2-2.3,12-4c1.7-0.6,2.8-0.9,3.5-1c0.5,1.4,0.7,2.1,1.2,3.4c-0.1,0.5-1.2,1.1-3.4,1.8
				c-0.7,0.2-1.1,0.4-1.9,0.6c0.5,1.2,0.9,2.3,1.4,3.5c2.2,0.1,4.3,0.2,6.4,0.4c0.1,1.2,0,2.5-0.4,3.7c-1.5,0.2-2.9,0.2-4.2,0.1
				c0.9,2.2,1.7,4.3,2.4,6.4c-0.4,0.4-1.1,0.7-2.1,1c-0.8,0.3-1.5,0.4-2,0.5c-1-2.1-1.9-4.2-2.8-6.3c-1,1.1-2.1,2.3-3.4,3.5
				c-1.4-0.7-2.6-1.5-3.5-2.5c1.4-1.9,3-3.9,4.8-5.9c-0.4-1-0.8-2-1.1-3c-2.4,0.7-4.2,1.1-5.6,1.4c-0.4-0.5-0.7-1.1-0.9-1.8
				C1103.9,1405.1,1103.8,1404.4,1103.6,1404z M1102.6,1394.7c3.1-1,7.1-2.3,11.7-3.9c0.3-0.1,0.5-0.1,0.6,0.1
				c0.5,1.4,0.7,2,1.2,3.4c0.1,0.4-0.1,0.7-0.4,0.8c-5.3,1.8-9.2,2.8-11.7,3.2c-0.3-0.5-0.7-1.1-0.8-1.7
				C1102.9,1395.8,1102.8,1395.2,1102.6,1394.7z M1125.9,1389.4c-0.3-0.6-0.7-1.2-0.9-1.8c-0.5,0.1-0.9,0.3-1.2,0.3
				c-0.3-0.3-0.7-1-1-1.9c-0.1-0.5-0.3-1.1-0.5-1.7c0.4-0.1,0.6-0.2,1-0.3c-0.4-0.8-0.7-1.7-1.1-2.5c1.2-0.6,2.5-1.1,3.8-1.7
				c0.5,0.9,0.9,1.9,1.4,2.8c1.2-0.4,2.4-0.8,3.6-1.2c-0.3-1.2-0.6-2.3-0.9-3.5c1.1-0.4,2.4-0.8,3.7-1c0.4,1.1,0.8,2.2,1.2,3.2
				c2.1-0.7,4.3-1.4,6.4-2c0.7,0.8,1.6,2.7,2.9,5.8c1.2,2.9,2,5,2.4,6.5c-2.6,1.4-7.2,3.4-13.7,5.8c-3.7,1.4-9.2,3.5-10.9,2.8
				c-0.6-0.2-1.8-2.9-2.9-5.8c-0.4-1.1-1-3.2-2-6.2c0.4-0.3,1-0.6,1.7-0.9c0.6-0.2,1.3-0.3,2-0.4c0.3,0.9,0.9,2.5,1.9,4.9
				C1123.9,1390.3,1124.9,1389.8,1125.9,1389.4z M1137.2,1384.4c0.3,0.4,0.5,0.8,0.7,1.4c0.3,0.8,0.5,1.4,0.6,1.7
				c-0.4,0.2-0.8,0.4-1.2,0.6c0.1,0.6,0.3,1.1,0.4,1.7c-1.1,0.4-2.3,0.8-3.7,1.1c-0.2-0.4-0.3-0.7-0.4-1.1c-0.8,0.4-1.6,0.7-2.3,1
				c0.1,0.3,0.3,0.6,0.4,0.9c-1.1,0.7-2.3,1.2-3.6,1.7c-0.2-0.3-0.4-0.6-0.5-0.9c-1.2,0.5-2.4,0.9-3.6,1.4c0.2,0.4,0.3,0.7,0.5,1.1
				c5.8-1.7,11.5-3.6,17.1-5.8c-0.1-0.8-0.5-2-1.1-3.6c-0.3-0.8-0.7-1.6-1.2-2.5c-1.1,0.4-2.1,0.8-3,1.1c0.1,0.2,0.1,0.4,0.2,0.6
				C1136.7,1384.6,1136.9,1384.5,1137.2,1384.4z M1132.8,1397c4.2-1.6,7.5-2.7,9.6-3.4c0.5,1.3,0.8,2,1.4,3.3
				c-3.8,1.8-9.1,3.9-15.9,6.3c-0.6-1.1-1.1-2.2-1.6-3.3C1127.8,1399.1,1130.1,1398,1132.8,1397z M1132.1,1402.3
				c5.5-2,9.9-3.1,13.2-3.3c0.6,1,1.2,2.1,1.8,3.5c0.6,1.4,0.9,2.4,0.8,3.1c-0.2,1-1.3,1.9-3.4,2.7c-7.4,2.8-13.4,4.4-14.3,3.7
				c-0.9-0.6-1.7-3.2-2.2-4.6c-0.1-0.6-0.3-1.3-0.4-2.1c0.6-0.3,1.2-0.7,1.8-0.9c0.8-0.3,1.5-0.5,1.9-0.6c1,1.7,1.7,3,2,3.9
				c2.3-0.5,5.6-1.5,9.7-3.1c0.1,0,0.1-0.2,0-0.5c0-0.2-0.1-0.4-0.2-0.7c-0.8,0-3.9,0.8-9.5,2.1c-0.3-0.5-0.6-1.1-0.8-1.8
				C1132.4,1403.3,1132.3,1402.8,1132.1,1402.3z M1143.8,1408.9c1.3-0.2,2.6-0.2,3.9-0.2c0.2,0.7,0.2,1.4,0.1,2.1
				c1.8-0.7,3.3-1.3,4.6-1.7c0.6,1.3,0.8,2,1.4,3.3c-5.4,2.5-12.9,5.5-22.5,8.9c-0.6-1.1-1.1-2.2-1.6-3.4c1.2-0.6,2.7-1.2,4.5-2
				c-0.5-0.8-1-1.5-1.4-2.3c1.1-0.6,2.4-1.3,3.8-2c0.8,0.8,1.5,1.7,2.1,2.5c1.7-0.6,2.6-0.9,4.3-1.6
				C1143.1,1411.3,1143.3,1410.1,1143.8,1408.9z M1132.5,1386.5c-0.1-0.4-0.2-0.8-0.4-1.1c-1.1,0.3-2.1,0.7-3,0.9
				c0.2,0.4,0.4,0.8,0.6,1.3C1130.7,1387.3,1131.6,1386.9,1132.5,1386.5z"/>
		</g>
	</g>
	<text transform="matrix(1 0 0 1 901.6551 1438.125)" class="st3 st4 st5 st6">.</text>
</g>
<text transform="matrix(1 0 0 1 -343.7485 -243.9229)" style="fill:#041F60; font-family:'DFWaWa-Md-HKP-BF'; font-size:48px; letter-spacing:-1;">畢業生</text>
<text transform="matrix(1 0 0 1 -67.7939 -249.2031)" style="fill:#041F60; font-family:'DFWaWa-Md-HKP-BF'; font-size:48px; letter-spacing:-1;">典禮倒數</text>
<text transform="matrix(1 0 0 1 698 -18)" class="st4" style="fill:#041F60; font-size:48px; letter-spacing:-1;">2021線上畢業典禮</text>
<text transform="matrix(1 0 0 1 715.5859 -126.6602)" class="st4" style="fill:#041F60; font-size:48px; letter-spacing:-1;">台北市私立快樂幼兒園</text>
<text transform="matrix(1 0 0 1 289.957 -249.2031)" style="fill:#041F60; font-family:'DFWaWa-Md-HKP-BF'; font-size:48px; letter-spacing:-1;">活動連結</text>
</svg>
