<?xml version="1.0" encoding="UTF-8" standalone="no"?>
<!-- Generator: Adobe Illustrator 25.3.1, SVG Export Plug-In . SVG Version: 6.00 Build 0)  -->

<svg
   version="1.1"
   id="圖層_1"
   x="0px"
   y="0px"
   viewBox="0 0 647.4 158.1"
   style="enable-background:new 0 0 647.4 158.1;"
   xml:space="preserve"
   sodipodi:docname="tag3.svg"
   inkscape:version="1.1 (c68e22c387, 2021-05-23)"
   xmlns:inkscape="http://www.inkscape.org/namespaces/inkscape"
   xmlns:sodipodi="http://sodipodi.sourceforge.net/DTD/sodipodi-0.dtd"
   xmlns="http://www.w3.org/2000/svg"
   xmlns:svg="http://www.w3.org/2000/svg"><defs
   id="defs89" /><sodipodi:namedview
   id="namedview87"
   pagecolor="#ffffff"
   bordercolor="#666666"
   borderopacity="1.0"
   inkscape:pageshadow="2"
   inkscape:pageopacity="0.0"
   inkscape:pagecheckerboard="0"
   showgrid="false"
   inkscape:zoom="1.0217794"
   inkscape:cx="287.24399"
   inkscape:cy="188.39683"
   inkscape:window-width="1536"
   inkscape:window-height="841"
   inkscape:window-x="-8"
   inkscape:window-y="-8"
   inkscape:window-maximized="1"
   inkscape:current-layer="Group_527" />
<style
   type="text/css"
   id="style50">
	.st0{fill:#FBC192;}
	.st1{fill:#E5A373;}
	.st2{enable-background:new    ;}
	.st3{fill:#223C40;}
	.st4{font-family:'DFWaWa-W7-WIN-BF';}
	.st5{font-size:52px;}
	.st6{letter-spacing:1;}
</style>
<g
   id="Group_527"
   transform="translate(-636.284 -1345)">
	<g
   id="Group_526"
   transform="translate(150.221 1207.385)">
		<path
   id="Path_41452"
   class="st0"
   d="M486.1,269.2c66.7-18.9,123.7,42.2,188.6,22.6l19.2-92c-64.9,19.6-121.8-41.5-188.6-22.6    C558.7,231,530.1,237.9,486.1,269.2z" />
		<g
   id="Group_523"
   transform="translate(588.13 139.573)">
			<path
   id="Path_41453"
   class="st1"
   d="M86.5,152.3c7.6-29.7,11.4-51.6,19.2-82.6C80.4,53.4,61.3,26.2,39.5,0L0,74.3     C29.2,109.2,52.5,131.8,86.5,152.3z" />
		</g>
		<path
   id="Path_41454"
   class="st0"
   d="M1133.5,267.3c-66.7-18.9-123.7,42.2-188.6,22.6l-19.2-92c64.9,19.6,121.8-41.5,188.6-22.6    C1060.9,229,1089.4,236,1133.5,267.3z" />
		<g
   id="Group_524"
   transform="translate(925.775 137.615)">
			<path
   id="Path_41455"
   class="st1"
   d="M19.2,152.3C11.5,122.6,7.7,100.6,0,69.7C25.2,53.4,44.3,26.2,66.1,0l39.5,74.3     C76.5,109.2,53.2,131.8,19.2,152.3z" />
		</g>
		<g
   id="Group_525"
   transform="translate(587.798 138.199)">
			<path
   id="Path_41456"
   class="st0"
   d="M404.6,0L445,73.6c-68.7,37.6-145.7,57.4-224,57.5C143.8,131,67.9,111.8,0,75.3L39.8,1.4     c55.7,30,117.9,45.7,181.1,45.7C285.1,47,348.3,30.9,404.6,0z" />
		</g>
	</g>
	<g
   id="g71"
   transform="translate(-11.449,-1.442)">
		<g
   class="st2"
   id="g69">
			<path
   class="st3"
   d="m 833.6,1403.8 c -0.5,1.6 -3.3,5.1 -8.5,10.2 -4.1,4.1 -6.3,6.1 -10.6,10.1 0.9,0.4 1.8,0.8 2.9,1.1 1.8,0.6 3.7,1 5.8,1.4 0.2,1.8 -0.1,3.2 -0.7,4.3 -1.9,0.4 -4.5,0 -7.9,-1.1 -3.5,-1.2 -6,-2.8 -7.4,-4.8 1.6,-2 5.9,-6.1 12.6,-12.6 5.9,-5.8 8.9,-9.1 9.1,-9.7 0.4,-1.1 -0.6,-2.1 -3,-2.8 -3.2,-1 -7.6,-0.8 -13.6,0.7 -0.6,-1.8 -0.8,-3.2 -0.5,-4.4 2.3,-1 5,-1.6 7.9,-1.9 3.1,-0.3 5.7,0 7.8,0.7 2.3,0.7 4,1.8 5.1,3.1 1.3,1.5 1.7,3.4 1,5.7 z"
   id="path61" />
			<path
   class="st3"
   d="m 857.5,1424.1 c -1,3.6 -2.7,6.8 -5.2,9.6 -3.4,3.8 -7.2,5.2 -11.3,4.1 -3.7,-1 -6.2,-3.4 -7.5,-7.1 -1.2,-3.6 -0.9,-8.2 0.9,-13.8 1.4,-4.4 3.4,-8 5.8,-10.9 3.3,-3.8 6.8,-5.2 10.8,-4.1 1.2,0.3 2.4,1 3.4,2 1,0.9 1.7,2 2.1,3.2 -0.7,0.9 -2,1.7 -3.8,2.5 -1,-1.5 -2,-2.4 -3.2,-2.7 -1.7,-0.5 -3.5,0.4 -5.4,2.5 -2.1,2.3 -3.7,5.4 -4.9,9.4 -1.2,3.8 -1.5,7.1 -0.8,9.7 0.6,2.5 2,4 4,4.6 1.8,0.5 3.8,-0.5 6.1,-2.9 2.1,-2.3 3.6,-4.8 4.3,-7.4 0.7,-2.4 1,-4.3 1.1,-5.6 0.1,-1.6 0,-3.7 -0.5,-6.2 1.3,-0.6 2.7,-1.1 4.3,-1.5 0.8,2.6 1.2,5.1 1.1,7.4 0,1.6 -0.5,4.1 -1.3,7.2 z"
   id="path63" />
			<path
   class="st3"
   d="m 888.7,1417.2 c -0.3,1.7 -2.7,5.4 -7.4,11.2 -3.7,4.5 -5.6,6.8 -9.5,11.2 0.9,0.3 1.9,0.6 3.1,0.8 1.8,0.4 3.9,0.6 6,0.7 0.4,1.7 0.3,3.2 -0.2,4.3 -1.9,0.6 -4.6,0.6 -8.2,-0.1 -3.7,-0.8 -6.4,-2.1 -8.1,-3.9 1.4,-2.2 5.3,-6.8 11.2,-14 5.3,-6.4 7.9,-10 8,-10.7 0.2,-1.2 -0.9,-2 -3.4,-2.5 -3.3,-0.7 -7.9,0.1 -13.7,2.3 -0.8,-1.7 -1.2,-3.1 -1.1,-4.3 2.2,-1.2 4.8,-2.2 7.7,-2.8 3.1,-0.6 5.8,-0.7 8,-0.2 2.4,0.5 4.2,1.3 5.6,2.5 1.9,1.3 2.5,3.2 2,5.5 z"
   id="path65" />
			<path
   class="st3"
   d="m 912.7,1415.6 c -2.4,11.7 -6.4,23.1 -10.1,34.4 -0.8,0.1 -1.5,0.1 -2.2,0 -1.2,-0.2 -2.1,-0.5 -2.9,-1.1 2.7,-9.8 5.7,-19.5 8.7,-29.2 -2.1,0.2 -4.3,0.3 -6.4,0.3 -0.5,-1.7 -0.8,-4 -0.4,-4.4 0.5,-0.6 3.9,-0.8 6.5,-1.1 3.1,-0.4 5.1,-0.5 5.8,-0.4 0.8,0.1 1.2,0.6 1,1.5 z"
   id="path67" />
		</g>
	</g>
	<g
   id="g81"
   transform="translate(-233.16205,226.96145)"
   inkscape:transform-center-x="-35.232652"
   inkscape:transform-center-y="-136.03718">
		<g
   class="st2"
   id="g79">
			<path
   class="st3"
   d="m 996.4,1418.1 c -1.4,0.1 -2.8,0.2 -4.1,0.2 -0.2,-1.2 -0.4,-2.3 -0.6,-3.4 7.5,-1.1 14.2,-2.1 20.2,-2.8 1.6,6.9 3.1,14.3 2.2,15.6 -0.6,0.8 -7.2,2.2 -15.7,3.8 -4.3,0.8 -8,1 -11.1,0.7 -1.1,-4.1 -2.3,-9 -3.5,-14.8 1.4,-0.4 2.7,-0.7 4,-1 0.4,1.6 0.8,3.1 1.2,4.7 2.6,-0.4 5.3,-0.7 7.9,-1 -0.2,-0.6 -0.3,-1.3 -0.5,-2 z m -12.7,19.8 c 2.4,-0.4 3.5,-0.6 5.9,-1 -0.2,-0.7 -0.4,-1.4 -0.5,-2.1 1.5,-0.4 2.8,-0.8 4.2,-1.1 0.5,0.8 0.9,1.6 1.2,2.4 2.1,-0.4 4.1,-0.7 6,-1.1 -0.2,-1 -0.3,-1.9 -0.4,-2.8 0.7,-0.4 1.4,-0.7 2,-0.8 0.9,-0.2 2.2,-0.2 2.5,0 0.3,0.3 0.4,1.9 0.7,2.8 2.5,-0.5 3.8,-0.8 6.3,-1.3 0.1,-1 0.1,-2.6 0.3,-2.8 0.4,-0.4 2.7,-0.3 3.9,-0.3 0.1,0.7 0.1,1.5 0.1,2.2 1.6,-0.3 3.2,-0.6 4.6,-1 0.2,0.7 0.3,1 0.4,1.7 0.2,0.6 0.2,1.3 0.2,2 -2.1,0.5 -3.2,0.7 -5.4,1.2 -0.1,0.9 -0.1,1.8 -0.2,2.7 -1.4,0.3 -2.8,0.3 -4.2,0.1 0,-0.7 0,-1.3 0,-1.9 -1.8,0.3 -3.6,0.7 -5.3,1 0.3,1.3 0.6,2.5 0.9,3.8 0.6,-0.1 0.9,-0.2 1.4,-0.3 3.8,-0.8 6.9,-1.2 9.2,-1.4 0.2,0.3 0.4,0.8 0.6,1.5 0.2,0.8 0.3,1.4 0.2,1.7 -0.5,0.3 -3.5,1.1 -9.1,2.2 -0.6,0.1 -0.8,0.2 -1.4,0.3 0.1,0.6 0.2,0.9 0.3,1.5 2.8,-0.5 5.1,-0.8 6.9,-0.9 0.2,0.3 0.4,0.8 0.5,1.6 0.2,0.9 0.3,1.4 0.2,1.7 -0.5,0.3 -2.7,0.8 -6.8,1.7 0.3,1.4 0.5,2.8 0.6,4.1 -1.8,0.4 -2.7,0.5 -4.5,0.9 -0.6,-1.3 -1.1,-2.6 -1.5,-3.9 -4.9,0.9 -7.6,1.3 -8.2,1.2 -0.3,-0.4 -0.5,-0.9 -0.6,-1.6 -0.1,-0.6 -0.1,-1.3 -0.1,-1.9 2.5,-0.5 5.2,-1 8,-1.6 -0.1,-0.5 -0.2,-1.1 -0.3,-1.6 -7.4,1.4 -12,2.1 -12.4,1.9 -0.3,-0.1 -0.6,-1 -0.7,-1.6 -0.1,-0.7 0,-1.4 0,-1.9 3.9,-0.7 8,-1.5 12.3,-2.4 -0.2,-1.3 -0.5,-2.6 -0.7,-3.9 -1.7,0.3 -3.4,0.6 -5.1,0.9 0.3,0.7 0.4,1.3 0.6,2 -0.7,0.6 -2,1 -3.9,1.4 -0.6,-0.8 -1.1,-1.6 -1.6,-2.5 -2.2,0.4 -4.3,0.7 -6.4,1 -0.4,-0.7 -0.6,-1.4 -0.7,-1.8 0.2,-0.8 0.1,-1.4 0,-2 z m 6.2,-12.9 c 0.3,1.1 0.6,2.3 0.9,3.5 2.7,-0.4 5.3,-0.8 7.8,-1.2 -0.3,-1 -0.5,-2 -0.8,-3 -2.7,0.3 -5.3,0.5 -7.9,0.7 z m 12.9,1.6 c 2.3,-0.4 4.6,-0.8 6.7,-1.3 -0.5,-2.1 -1,-5 -1.4,-8.6 -2.6,0.5 -5,0.8 -7.3,1.1 0.2,0.8 0.4,1.5 0.5,2.1 0.9,-0.1 1.8,-0.2 2.8,-0.2 0.2,1.1 0.4,2.3 0.4,3.7 -0.8,0.2 -1.6,0.3 -2.3,0.4 0.2,0.8 0.4,1.8 0.6,2.8 z"
   id="path73" />
			<path
   class="st3"
   d="m 1041.2,1405.2 c 1.8,1 3.3,2.7 4.6,5.1 -1.1,1 -2.2,1.7 -3.4,2.1 -2,-1.2 -3.5,-3 -4.6,-5.4 0.9,-0.5 2,-1.1 3.4,-1.8 z m 5.8,-3.5 c 1.4,-0.4 3.7,-0.9 4.1,-0.6 0.3,0.2 0.6,2.7 1.1,5.7 0.2,1.2 0.3,2.4 0.4,3.6 0.7,-0.2 1.4,-0.3 2.1,-0.5 -0.1,-2.6 0,-5.6 0.3,-9.1 1.7,-0.2 3.2,-0.2 4.6,0.2 -0.1,1.3 -0.2,3.9 -0.3,7.8 3.9,-1 7.7,-2 11.5,-2.9 0.4,1.3 0.7,2.6 0.9,3.9 -10.9,3.2 -21.6,5.9 -32.7,8.4 -0.4,-1.3 -0.6,-2.8 -0.6,-4.2 3.4,-0.8 6.8,-1.7 10.2,-2.5 -0.7,-2.5 -1.1,-5.8 -1.6,-9.8 z m -3,18.3 c 1.6,-0.4 3.3,-0.8 4.9,-1.2 -0.3,-0.5 -0.6,-1 -0.8,-1.5 1.1,-0.6 2.3,-1.1 3.5,-1.6 0.7,0.7 1.2,1.3 1.7,2.1 2.1,-0.5 4.2,-1 6.2,-1.6 0,-0.9 -0.2,-2.5 0.1,-2.7 0.3,-0.4 3.6,-0.8 3.9,-0.6 0.2,0.2 0.3,1.5 0.3,2.2 1.3,-0.3 2.6,-0.7 3.9,-1 0.2,0.7 0.3,1 0.5,1.6 0.3,0.8 0.4,1.5 0.5,2.2 -2.8,0.8 -5.6,1.6 -8.5,2.3 0.2,0.6 0.5,1.1 0.7,1.7 3.2,-0.9 5.5,-1.5 6.9,-1.8 0.4,1.3 0.6,2 1.1,3.3 -0.4,0.6 -2.5,1.4 -6.1,2.5 0.2,0.4 0.4,0.8 0.5,1.2 3.3,-1.1 6.7,-2.2 10,-3.3 0.4,0.5 0.8,1.1 1,1.8 0.3,0.9 0.4,1.3 0.7,2.2 -3.3,1.2 -6.7,2.4 -10,3.5 1.2,3.1 2.4,6.2 3.4,9.2 -1.1,1.1 -3.7,2.3 -7.8,3.4 -0.5,-0.9 -1,-1.9 -1.5,-3.2 1,-0.4 2.1,-0.8 3.2,-1.4 -0.7,-2.2 -1.5,-4.3 -2.3,-6.4 -3.5,1.2 -7.1,2.3 -10.7,3.3 -0.6,-1.3 -1.2,-2.7 -1.7,-4.2 3.6,-1.2 7.3,-2.3 10.9,-3.4 -0.2,-0.5 -0.3,-0.9 -0.5,-1.4 -3.9,1 -6.9,1.6 -8.8,1.8 -0.3,-0.4 -0.7,-1 -0.8,-1.7 -0.2,-0.7 -0.3,-1.3 -0.4,-1.8 2.4,-0.6 5.3,-1.4 8.6,-2.4 -0.2,-0.6 -0.4,-1.2 -0.7,-1.8 -3.7,0.9 -7.4,1.8 -11.2,2.6 -0.3,-0.5 -0.6,-1.2 -0.8,-2 -0.1,-0.4 -0.1,-1.2 0.1,-1.9 z m 7.8,18.3 c 1.3,0.5 2.5,1.3 3.5,2.4 -0.8,1.6 -2.3,3.5 -4.8,5.7 -1.3,-0.7 -2.5,-1.5 -3.4,-2.5 1.5,-1.9 3,-3.7 4.7,-5.6 z m 15.7,-38.5 c 1,1 1.7,2.3 2.2,3.8 -2.2,1.2 -4.2,2.2 -6.2,3 -0.9,-1 -1.5,-2.2 -1.9,-3.6 1.9,-1.3 3.9,-2.4 5.9,-3.2 z m 6.4,30.9 c 2.6,0.3 5.3,1 8.1,2.1 0,1.3 -0.5,2.6 -1.4,3.7 -2.7,-0.4 -5.3,-1.1 -7.8,-2.2 0.3,-1.2 0.6,-2.4 1.1,-3.6 z"
   id="path75" />
			<path
   class="st3"
   d="m 1092.8,1395.4 c 1.7,0 3.2,0.1 4.6,0.3 -0.5,7.1 -1.2,13.9 -2.3,20.6 -1.7,0.1 -3.2,-0.1 -4.4,-0.6 0.5,-6.8 1.2,-13.6 2.1,-20.3 z m 7.4,4.1 c 3,-1.1 6,-2.2 9,-3.3 -1.1,-3.4 -1.9,-6.3 -2.6,-9 0.7,-0.3 1.4,-0.6 2,-0.9 0.7,-0.3 1.4,-0.4 2.1,-0.5 1.1,2.8 2.2,5.7 3.3,8.7 3.6,-1.3 7.2,-2.7 10.8,-4 0.3,0.8 0.5,1.1 0.8,1.9 0.4,0.8 0.5,1.5 0.6,2 -3.8,1.6 -7.4,3 -10.6,4.2 0.8,2.2 1.6,4.5 2.4,6.7 2.4,-0.8 4.8,-1.6 7.3,-2.3 0.5,1.1 0.9,2.4 1.2,3.8 -2.4,1 -4.7,1.8 -7.1,2.6 0.7,2.1 1.4,4.3 2.1,6.4 2.8,-1 5.7,-2 8.8,-3 0.5,1.2 0.9,2.4 1.3,3.8 -6.5,2.6 -13.1,4.9 -19.8,6.8 -0.3,-0.9 -0.5,-1.3 -0.8,-2.1 -0.1,-0.5 -0.3,-1 -0.5,-1.5 2.1,-0.8 4.3,-1.5 6.6,-2.4 -0.9,-2.3 -1.7,-4.4 -2.5,-6.4 -2.2,0.7 -4.4,1.3 -6.6,1.8 -0.3,-0.8 -0.5,-1.3 -0.8,-2.1 -0.1,-0.5 -0.3,-1 -0.5,-1.5 2,-0.7 4.1,-1.5 6.3,-2.3 -0.9,-2.3 -1.6,-4.5 -2.3,-6.5 -3.4,1.3 -6.4,2.4 -9,3.3 -0.3,-0.2 -0.8,-0.9 -1.1,-1.9 -0.2,-0.6 -0.3,-1.4 -0.4,-2.3 z"
   id="path77" />
		</g>
	</g>
	<text
   class="st3 st4 st5 st6"
   id="text83"
   x="921.3623"
   y="1440.9573">.</text>
<text
   xml:space="preserve"
   style="font-style:normal;font-weight:normal;font-size:48px;line-height:1.25;font-family:sans-serif;fill:#223c40;fill-opacity:1;stroke:none"
   x="455.4343"
   y="1664.9012"
   id="text987"
   transform="matrix(0.96316257,-0.26891982,0.31640387,0.94990478,0,0)"><tspan
     sodipodi:role="line"
     id="tspan985"
     x="455.4343"
     y="1664.9012"
     style="font-style:normal;font-variant:normal;font-weight:normal;font-stretch:normal;font-size:48px;font-family:DFWaWaW7-B5;-inkscape-font-specification:DFWaWaW7-B5;fill:#223c40;fill-opacity:1"
     rotate="0 0 0 0 0">回憶時光</tspan></text></g>
</svg>
