<svg xmlns="http://www.w3.org/2000/svg" viewBox="0 0 436.41 184.26"><defs><style>.cls-1{fill:#688b6d;}.cls-2,.cls-20,.cls-3,.cls-4,.cls-8,.cls-9{fill:none;stroke-miterlimit:10;}.cls-2,.cls-3{stroke:#f1e2b7;}.cls-3,.cls-9{stroke-width:0.75px;stroke-dasharray:1 2;}.cls-4,.cls-8,.cls-9{stroke:#506b54;}.cls-4{stroke-dasharray:8 3;}.cls-5{font-size:21.44px;font-family:TheCircousStripedRegular;}.cls-5,.cls-7{fill:#f1e2b7;}.cls-6{letter-spacing:0.01em;}.cls-10,.cls-13,.cls-21{fill:#4a1919;}.cls-11{font-size:39px;fill:#ab3246;font-family:Algerian;letter-spacing:-0.03em;}.cls-12,.cls-13,.cls-14{font-size:25.55px;}.cls-12,.cls-14{fill:#506b54;}.cls-12,.cls-13,.cls-14,.cls-17{font-family:Communist;}.cls-12,.cls-13{letter-spacing:-0.06em;}.cls-14{letter-spacing:-0.07em;}.cls-15{letter-spacing:-0.06em;}.cls-16,.cls-17{fill:#f89a50;}.cls-17{font-size:6.26px;letter-spacing:0.36em;}.cls-18{letter-spacing:0.28em;}.cls-19{letter-spacing:0.38em;}.cls-20{stroke:#f89a50;stroke-width:2px;}.cls-21{font-size:13px;font-family:Rockwell-Bold, Rockwell;font-weight:700;letter-spacing:-0.03em;}.cls-22{letter-spacing:-0.11em;}.cls-23{letter-spacing:-0.11em;}.cls-24{letter-spacing:-0.03em;}.cls-25{letter-spacing:-0.05em;}</style></defs><g id="圖層_2" data-name="圖層 2"><g id="OBJECTS"><path class="cls-1" d="M429.81,0H316.91V183.8h112.9a6.59,6.59,0,0,0,6.6-6.6V6.6A6.59,6.59,0,0,0,429.81,0Z"/><path class="cls-2" d="M346.91,171.45s0,.06,0,.09H408s0-.06,0-.09a17.24,17.24,0,0,1,17.25-17.24V29.47A17.25,17.25,0,0,1,408,12.22H346.91a17.23,17.23,0,0,1-17,17.23V154.22A17.23,17.23,0,0,1,346.91,171.45Z"/><path class="cls-3" d="M404.37,16.22a21.3,21.3,0,0,0,16.87,16.87V150.58a21.32,21.32,0,0,0-16.89,17H350.54a21.38,21.38,0,0,0-16.62-16.89V33a21.4,21.4,0,0,0,16.61-16.8h53.84"/><line class="cls-4" x1="317.74" y1="0.31" x2="317.74" y2="184.26"/><text class="cls-5" transform="translate(381.98 119.37) rotate(-90)">Join <tspan class="cls-6" x="41.16" y="0">I</tspan><tspan x="46.49" y="0">n</tspan></text><polygon class="cls-7" points="369.52 35.46 373.22 33.77 373.69 29.73 376.44 32.72 380.43 31.92 378.43 35.46 380.43 39.01 376.44 38.2 373.69 41.2 373.22 37.16 369.52 35.46"/><polygon class="cls-7" points="369.52 147.85 373.22 146.15 373.69 142.11 376.44 145.11 380.43 144.3 378.43 147.85 380.43 151.39 376.44 150.59 373.69 153.59 373.22 149.54 369.52 147.85"/><path class="cls-7" d="M6.6,0A6.59,6.59,0,0,0,0,6.6V177.2a6.59,6.59,0,0,0,6.6,6.6H316.91V0Z"/><rect class="cls-1" x="288.58" width="28.33" height="183.8"/><rect class="cls-1" x="230.86" width="28.33" height="183.8"/><rect class="cls-1" x="173.15" width="28.33" height="183.8"/><rect class="cls-1" x="115.43" width="28.33" height="183.8"/><rect class="cls-1" x="57.72" width="28.33" height="183.8"/><path class="cls-1" d="M28.33,0H6.44A6.44,6.44,0,0,0,0,6.44V177.36a6.44,6.44,0,0,0,6.44,6.44H28.33Z"/><path class="cls-7" d="M305.81,154.55h.1V29.46h-.1a17.24,17.24,0,0,1-17.24-17.25H29.28A17.24,17.24,0,0,1,12,29.47V154.55a17.24,17.24,0,0,1,17.23,17H288.58A17.25,17.25,0,0,1,305.81,154.55Z"/><path class="cls-8" d="M305.81,154.55h.1V29.46h-.1a17.24,17.24,0,0,1-17.24-17.25H29.28A17.24,17.24,0,0,1,12,29.47V154.55a17.24,17.24,0,0,1,17.23,17H288.58A17.25,17.25,0,0,1,305.81,154.55Z"/><path class="cls-9" d="M285,16.22a21.3,21.3,0,0,0,17,16.89V150.92A21.39,21.39,0,0,0,285,167.54H32.84A21.41,21.41,0,0,0,16,150.93V33.09A21.29,21.29,0,0,0,32.9,16.22H285"/><path class="cls-10" d="M116.26,35.57a1.42,1.42,0,0,1,0,.23.66.66,0,0,1-.12.12l-.1,0c-.15,0-.25,0-.29,0s-.08-.11-.09-.25,0-.08,0-.13,0-.1,0-.15,0-.09,0-.12a2.17,2.17,0,0,0-.32-.87,1,1,0,0,0-.19-.21,2,2,0,0,0-1.09-.33.19.19,0,0,0-.18.14,23.74,23.74,0,0,0-.06,2.4c0,.14,0,.32,0,.57s0,.39,0,.43c0,.71,0,1.21,0,1.49a1.29,1.29,0,0,0,.05.35,1.65,1.65,0,0,1,0,.25.89.89,0,0,0,.09.3.2.2,0,0,0,.17.12h.09l.14,0,.12,0h.18s0,0,0,0a.41.41,0,0,1,0,.44s0,0-.08.07l-.11,0-.47,0-.56,0h-.49l-.29,0a2,2,0,0,0-.33,0,4.34,4.34,0,0,1-1.1,0,.25.25,0,0,1-.17-.08.24.24,0,0,1,0-.2.3.3,0,0,1,0-.16.27.27,0,0,1,.15-.09h.06l.06,0,.21-.08.17-.05a.48.48,0,0,0,.15,0,.37.37,0,0,0,.1-.11.58.58,0,0,0,.08-.27c0-.11,0-.27,0-.47,0-.79,0-1.52,0-2.2,0-.28,0-.62,0-1v-.33c0-.11,0-.22,0-.33v-.29c0-.22,0-.48,0-.8h0V34a.26.26,0,0,0-.25-.14c-1.27,0-2.17,0-2.73,0a1.66,1.66,0,0,1-.77-.14,1.11,1.11,0,0,1-.46-.38,1.33,1.33,0,0,1-.2-.48,1.29,1.29,0,0,1,0-.48.86.86,0,0,1,.17-.45.6.6,0,0,1,.41-.26.4.4,0,0,1,.33.06.38.38,0,0,1,.19.27.51.51,0,0,1-.06.34.37.37,0,0,1-.27.2h-.23c-.12,0-.17.07-.14.18a.58.58,0,0,0,.3.41,1.12,1.12,0,0,0,.5.14l.8.06c.61,0,2.69,0,6.25,0a.34.34,0,0,1,.25.07.31.31,0,0,1,.09.23c0,.11,0,.19,0,.23C116.17,34.12,116.19,34.71,116.26,35.57ZM107.9,32s0,0,0,0h0a.33.33,0,0,1,.15-.11l.07,0h.07s0,0,0,0,0,0,0,0a.16.16,0,0,0-.18,0A.44.44,0,0,0,107.9,32Zm5,7.66q0-.59,0-1.41c0-.55,0-1,.07-1.44s0-.87,0-1.39,0-1-.09-1.43c0,0,0,0,0,0s0,0,0,0,0,.36-.05.55a6.08,6.08,0,0,0,0,.61c0,.21,0,.39,0,.55s0,.35,0,.6,0,.43,0,.56a27.46,27.46,0,0,0,.08,2.8s0,0,0,0A0,0,0,0,0,112.87,39.62Z"/><path class="cls-10" d="M124.08,34.28a1.38,1.38,0,0,0-.09.45c0,.76,0,1.3,0,1.62s0,1.09.09,2.66a2.18,2.18,0,0,0,0,.35.59.59,0,0,0,.39.53l.3.11a.51.51,0,0,1,0,.36.22.22,0,0,1-.06.13.24.24,0,0,1-.13,0l-2.2,0-.76,0a.22.22,0,0,1-.21-.23c0-.17.05-.28.17-.32a.94.94,0,0,0,.66-1c0-.3,0-.7,0-1.21a2.61,2.61,0,0,0,0-.4.18.18,0,0,0-.2-.18l-1.19,0-1.17,0a.18.18,0,0,0-.2.18c0,.18,0,.32,0,.4,0,.52,0,.92,0,1.21a.94.94,0,0,0,.66,1c.12,0,.18.15.17.32a.23.23,0,0,1-.22.23l-.76,0-2.2,0a.21.21,0,0,1-.12,0,.22.22,0,0,1-.06-.13.51.51,0,0,1,0-.36l.3-.11a.59.59,0,0,0,.39-.53,2.18,2.18,0,0,0,0-.35c.06-1.57.1-2.46.1-2.66s0-.86,0-1.62a1.34,1.34,0,0,0-.08-.45.5.5,0,0,0-.39-.39h0a.08.08,0,0,1-.06,0c-.17,0-.27-.08-.29-.13a.88.88,0,0,1,0-.37l.21,0,2.67,0H120q.29,0,.21.39a.08.08,0,0,1-.06.08l-.2.06a1,1,0,0,0-.24.09.29.29,0,0,0-.2.25c0,.29,0,.48,0,.58,0,.45,0,.91,0,1.4,0,0,0,.1.05.29l.39,0,.27,0,.68,0,.7,0,.27,0,.39,0c0-.19.05-.29.05-.29,0-.48,0-.94,0-1.4,0-.1,0-.29,0-.58a.29.29,0,0,0-.2-.25.59.59,0,0,0-.14-.06l-.16-.05-.14,0a.08.08,0,0,1-.07-.08c-.05-.24,0-.37.22-.39H122l2.67,0,.21,0a.88.88,0,0,1,0,.37s-.12.09-.28.13l-.07,0h0A.5.5,0,0,0,124.08,34.28Zm-5.41,5.36c0-.2,0-.68,0-1.45s0-1.25,0-1.45q0-2.12,0-2.91s0,0,0,0a0,0,0,0,0,0,0c0,.22,0,.54,0,1s0,.75-.06,1,0,.56,0,.94,0,.72,0,1,0,.6,0,1,0,.67.09,1c0,0,0,0,0,0A0,0,0,0,0,118.67,39.64Zm4.5-3V36c0-.37,0-.63,0-.77s0-.36,0-.63,0-.52-.06-.74c0,0,0,0,0,0,0,.36,0,.87,0,1.52s-.05,1.09-.06,1.29c0,.81,0,1.76.11,2.86,0,0,0,0,0,0l0,0c0-.29,0-.61,0-1s0-.66,0-1S123.16,37,123.17,36.67Z"/><path class="cls-10" d="M132.44,33.52a.47.47,0,0,1,0,.23c0,.52,0,1.12-.06,1.8a.16.16,0,0,1-.13.17.37.37,0,0,1-.28,0,.41.41,0,0,1,0-.09c0-.21-.07-.45-.1-.69a.92.92,0,0,0-.71-.82,6,6,0,0,0-.63-.12c-.2,0-.4-.06-.59-.08a3.63,3.63,0,0,0-.61,0l-.23.05-.18,0a.34.34,0,0,0-.14,0s-.07,0-.09,0,0,0-.06,0l0,.06,0,.1a.55.55,0,0,0,0,.13s0,.1,0,.19v.25c0,.2,0,.48,0,.86v.65a.18.18,0,0,0,.06.13.14.14,0,0,0,.12.06l.42-.1.64-.16.3-.07a.32.32,0,0,0,.23-.16.17.17,0,0,0,.06-.09l.07-.09s0,0,.09,0a.12.12,0,0,1,.12,0s0,0,0,.11c0,.59,0,1-.05,1.27a.11.11,0,0,1,0,.09.09.09,0,0,1-.11,0,.25.25,0,0,1-.12-.11.38.38,0,0,0-.33-.2,4.14,4.14,0,0,0-1.35.33c-.11,0-.16.09-.17.15s0,.49,0,1.13,0,1,0,1.12a.19.19,0,0,0,.2.18l1.32,0,.4,0a1.63,1.63,0,0,0,.76-.25,1.41,1.41,0,0,0,.53-.58,1.75,1.75,0,0,0,.23-.78c0-.14,0-.24,0-.28a.19.19,0,0,1,.14-.09.25.25,0,0,1,.12,0s.06.05.06.08a1.94,1.94,0,0,1,0,.29c0,.12,0,.3,0,.52s0,.38,0,.46,0,.26,0,.49,0,.42,0,.54a.2.2,0,0,1-.19.19l-.74.07-1.16,0-3,0c-.19,0-.5,0-.92-.06a.22.22,0,0,1-.17-.1.27.27,0,0,1,0-.2.22.22,0,0,1,.09-.14l.16-.06a.82.82,0,0,0,.6-.87v-.52c0-.13,0-.31,0-.52s0-.39,0-.52v-1c0-.13,0-.29,0-.49V34.75c0-.21,0-.35,0-.4a.5.5,0,0,0-.35-.42,1.84,1.84,0,0,0-.35-.08H126a.21.21,0,0,1-.16-.07.25.25,0,0,1-.06-.17h0a.21.21,0,0,1,.07-.15.25.25,0,0,1,.16-.06h6.06a.57.57,0,0,1,.22,0A.15.15,0,0,1,132.44,33.52Zm-4.68,6.37q0-.35,0-.75c0-.27,0-.51,0-.71s0-.46,0-.77v-.73c0-1.3,0-2.31-.06-3,0,0,0,0,0,0s0,0,0,0a46.08,46.08,0,0,0,0,6s0,0,0,0Z"/><path class="cls-10" d="M143.62,36.93a1.42,1.42,0,0,1,.56.39,1.85,1.85,0,0,1,.35.6,2.56,2.56,0,0,1,.13.68,1.32,1.32,0,0,1-.12.63,1.62,1.62,0,0,1-1,.94,7,7,0,0,1-1.29.28,21.08,21.08,0,0,1-2.61.07h-1.22c-.14,0-.24,0-.28-.09a.39.39,0,0,1,0-.32c0-.06,0-.11.11-.12l.13,0a.58.58,0,0,0,.17,0l.13-.06a.51.51,0,0,0,.23-.32c0-.22,0-.39,0-.53V34.78a2.67,2.67,0,0,0,0-.51.37.37,0,0,0-.3-.32l-.23-.05c-.13,0-.21-.06-.24-.14a.61.61,0,0,1,0-.33.11.11,0,0,1,.08-.08.85.85,0,0,1,.23,0l1.85-.09,1.4,0a5.39,5.39,0,0,1,1.65.28,1.26,1.26,0,0,1,.94,1.13,1.7,1.7,0,0,1,0,.25,1,1,0,0,0,0,.21,1.14,1.14,0,0,1-.37.88,2.13,2.13,0,0,1-.82.53.43.43,0,0,0-.24.16l.15.06Zm-3.7,0q0-.22,0-.75c0-.35,0-.6,0-.75s0-.4,0-.75,0-.6,0-.75,0,0,0,0,0,0,0,0c0,.32,0,.82,0,1.51s0,1.2,0,1.55c0,.12,0,.35,0,.69s0,.59,0,.76,0,.39,0,.66,0,.52.06.74h0s0,0,0,0c0-.2,0-.45,0-.73s0-.52,0-.72,0-.44,0-.72S139.91,37.14,139.92,36.94Zm.71-.71a.18.18,0,0,0,.07.09.16.16,0,0,0,.1,0A3,3,0,0,0,142,36.1a.47.47,0,0,0,.24-.24,2.2,2.2,0,0,0,.13-1.46.88.88,0,0,0-.1-.21.47.47,0,0,0-.37-.25c-.2,0-.53,0-1-.09h-.12a.2.2,0,0,0-.19.19c0,.21,0,.4,0,.57V36S140.62,36.11,140.63,36.23Zm2.1,3a3.46,3.46,0,0,0,0-1.54.88.88,0,0,0-.78-.68c-.23,0-.52-.05-.86-.06a.41.41,0,0,0-.31.06.51.51,0,0,0-.08.3s0,.14,0,.34v.87h0v1c0,.07,0,.18,0,.35a.21.21,0,0,0,.06.1.11.11,0,0,0,.09.05h.53a2.44,2.44,0,0,0,.94-.25A.66.66,0,0,0,142.73,39.18Zm0-3.24s0,0,0,0,0,0,0,0a1.25,1.25,0,0,0,.59-1,1,1,0,0,0-.06-.42,1.1,1.1,0,0,0-.17-.31l-.28-.32s-.05,0-.06-.06h0v0a2.62,2.62,0,0,0,.2.29,1.81,1.81,0,0,1,.21.36.72.72,0,0,1,.05.33A1.49,1.49,0,0,1,142.72,35.94Zm.36,3.77a1.1,1.1,0,0,0,.67-1.18,1.6,1.6,0,0,0-.15-.78,2.35,2.35,0,0,0-.54-.65h0s0,0,0,0a2.67,2.67,0,0,1,.45.63,1.46,1.46,0,0,1,.14.66,1.27,1.27,0,0,1-.57,1.23s0,0,0,0S143.07,39.72,143.08,39.71Z"/><path class="cls-10" d="M148.7,40a.22.22,0,0,1,.15.08.35.35,0,0,1,0,.17.43.43,0,0,0,0,.05.18.18,0,0,0,0,.06c0,.06,0,.09-.11.12l-.23,0-2.84,0c-.07,0-.1-.15-.09-.31a.22.22,0,0,1,.11-.19l.15-.06.18-.07a.52.52,0,0,0,.15-.07.25.25,0,0,0,.16-.22c0-.34,0-.55,0-.64a20.79,20.79,0,0,1,0-2.08c0-.26,0-.87,0-1.85,0-.14,0-.33,0-.58a.68.68,0,0,0-.4-.54l-.12,0-.1,0a.28.28,0,0,1-.15-.15.25.25,0,0,1,0-.22s0-.07.07-.07a.44.44,0,0,1,.18,0h2.49a1.37,1.37,0,0,1,.5.06.56.56,0,0,1,0,.42l-.32.12a.42.42,0,0,0-.32.37c0,.1,0,.18,0,.24,0,.7-.05,1.37-.1,2,0,.12,0,.25,0,.38v.84c0,.73,0,1.12,0,1.16a5,5,0,0,0,0,.58.48.48,0,0,0,.43.41h.17Zm-1.33-1.59c0-.35,0-.84,0-1.46,0-.16,0-.35,0-.59s0-.44,0-.62,0-.37,0-.58l0-.61c0-.2,0-.4-.05-.58a0,0,0,0,0,0,0s0,0,0,0a9.11,9.11,0,0,0,0,.93c0,.32,0,.71,0,1.18s0,.78,0,.94,0,.28,0,.65,0,.67,0,.87v.63c0,.1,0,.2,0,.32a2.43,2.43,0,0,0,0,.3,0,0,0,0,0,.06,0,7,7,0,0,1,0-.75C147.35,38.69,147.36,38.48,147.37,38.38Z"/><path class="cls-10" d="M156.34,37.31h-.19l-.13,0a.23.23,0,0,0-.12.08.33.33,0,0,0,0,.15v3a.45.45,0,0,0,.39.08.06.06,0,0,1,.07,0,.07.07,0,0,1,0,.06v.1a.08.08,0,0,1-.09.09H155a.36.36,0,0,1-.2-.07.25.25,0,0,1-.06-.19c0-.12,0-.26,0-.43l-.13.06a3.67,3.67,0,0,1-2.53.3,2.59,2.59,0,0,1-1.52-1.08,4.38,4.38,0,0,1-.75-2.56,5.51,5.51,0,0,1,.09-1.16,3.31,3.31,0,0,1,.84-1.56L151,34a3.09,3.09,0,0,1,2.56-.82l.35.07a3.57,3.57,0,0,1,.5.14,2.82,2.82,0,0,1,.48.19l0,0v0c0-.13,0-.24-.07-.35a.38.38,0,0,1,0-.31.46.46,0,0,1,.25-.08l.16,0c.07,0,.12,0,.15,0a1.29,1.29,0,0,1,.06.22,4.27,4.27,0,0,0,.47,1.52.12.12,0,0,1,0,.14.36.36,0,0,1-.11.14l-.06.05a.26.26,0,0,1-.34-.07,1.54,1.54,0,0,1-.32-.53h0a1.52,1.52,0,0,0-1.1-.57,2,2,0,0,0-1.36.22.8.8,0,0,0-.21.16,2.21,2.21,0,0,0-.64,1.14,8,8,0,0,0-.12,1.9q.06,1,.12,1.32a4.29,4.29,0,0,0,.42,1.08.76.76,0,0,0,.55.39l.39,0a1.35,1.35,0,0,0,.89-.21,1.08,1.08,0,0,0,.55-.83l.06-.39a3.57,3.57,0,0,0,0-.38c0-.06,0-.19,0-.39a.46.46,0,0,0-.34-.42h0l-.06,0h-.11l-.17-.06a.17.17,0,0,1-.13-.22.43.43,0,0,1,0-.15l.15,0,.81-.06q1-.09,1.5-.09a.12.12,0,0,1,.1,0,.13.13,0,0,1,0,.08,1,1,0,0,0,0,.15v.14a.1.1,0,0,0,0,0,0,0,0,0,1,0,0s0,0,0,0h-.07Zm-4.61,2.5a0,0,0,0,0,0,0s0,0,0,0a4.82,4.82,0,0,1-.75-1.62,5,5,0,0,1-.18-1.79,3.39,3.39,0,0,1,1-2.42s0,0,0,0h0c-.58.32-.95,1.12-1.11,2.39a4.43,4.43,0,0,0,.15,1.73A4.1,4.1,0,0,0,151.73,39.81Z"/><path class="cls-10" d="M168.63,33.62a.48.48,0,0,1,0,.13l0,1.81a.2.2,0,0,1-.12.21.26.26,0,0,1-.27,0,.14.14,0,0,1-.07-.08,2.33,2.33,0,0,1-.05-.28,1.64,1.64,0,0,1,0-.22q0-.16,0-.24a1,1,0,0,0-.64-.77,4.44,4.44,0,0,0-.93-.18,4,4,0,0,0-.95,0l-.63.09a.17.17,0,0,0-.15.21c0,.69,0,1.39,0,2.08a.18.18,0,0,0,.06.14.15.15,0,0,0,.13,0,6.87,6.87,0,0,0,1.26-.28.85.85,0,0,0,.38-.29.27.27,0,0,0,0-.13s0,0,.12,0,.13,0,.13,0v1.47s0,0-.13,0-.13,0-.13,0a.43.43,0,0,0-.58-.27l-.34.1-.4.12a2.83,2.83,0,0,0-.35.14l-.08,0-.07,0-.05,0s0,0,0,0a.08.08,0,0,0,0,.06.25.25,0,0,0,0,.1c0,.09,0,.21,0,.37v.32a1.84,1.84,0,0,0,0,.26v.56a.83.83,0,0,0,.05.36.56.56,0,0,0,.15.26.51.51,0,0,0,.18.13,1.18,1.18,0,0,0,.23.08l.21.06a.17.17,0,0,1,.11.12.25.25,0,0,1,0,.28.2.2,0,0,1-.15.06h-1.22l-1.68,0h-.17c-.1,0-.15,0-.16-.14a.14.14,0,0,1,0-.07.24.24,0,0,1,0-.08.21.21,0,0,1,0-.06.1.1,0,0,1,.05,0,1.51,1.51,0,0,0,.51-.24.49.49,0,0,0,.2-.34c0-.06,0-.14,0-.25a1.49,1.49,0,0,1,0-.24c0-.25,0-.52,0-.82,0-.08,0-.28,0-.59s0-.54,0-.71,0-.46,0-.81,0-.6,0-.75,0-.15,0-.26v-.2c0-.23,0-.37,0-.41a.82.82,0,0,0-.08-.29h0a.58.58,0,0,0-.41-.26h-.09l-.15,0a.2.2,0,0,1-.16-.07.2.2,0,0,1-.06-.16h0a.19.19,0,0,1,.07-.16.2.2,0,0,1,.16-.07h5.95l.23,0a.16.16,0,0,1,.1.05A.13.13,0,0,1,168.63,33.62Zm-4.85,6.27a28.27,28.27,0,0,0,.08-2.87V35.53q0-.36,0-.75c0-.27,0-.51-.06-.74,0,0,0,0,0,0s0,0,0,0q0,.35-.06.75c0,.28,0,.52,0,.73s0,.46,0,.78V37c0,.37,0,.88,0,1.54s0,1.11,0,1.33c0,0,0,0,0,0A0,0,0,0,0,163.78,39.89Z"/><path class="cls-10" d="M176.11,39.93l0,.16a.53.53,0,0,1-.06.31.52.52,0,0,1-.31.07h-2.54l-.35,0a.18.18,0,0,1-.1-.12c-.06-.16,0-.27.13-.31l.38-.13a.4.4,0,0,0,.26-.48v0a0,0,0,0,0,0,0c-.18-.59-.3-1-.35-1.1a.24.24,0,0,0-.23-.15l-1,0a4.24,4.24,0,0,0-.52,0,2.08,2.08,0,0,0-.53.1l-.07.11a.6.6,0,0,0-.06.11.39.39,0,0,0-.05.13l0,.12a.44.44,0,0,0-.05.13,1.11,1.11,0,0,0,0,.13,3.33,3.33,0,0,0-.12.5,1.39,1.39,0,0,0,0,.29.28.28,0,0,0,.26.27l.22,0h.19a.21.21,0,0,1,.1.06.12.12,0,0,1,0,.11,2.11,2.11,0,0,0-.07.25l-.09,0h-1.78c-.13,0-.2-.05-.21-.16s0-.27.09-.31h.12l.11-.05a.27.27,0,0,0,.08-.07.45.45,0,0,0,.09-.1s.05-.07.06-.1l.07-.12.05-.13s0-.07.06-.13a.87.87,0,0,1,0-.12c.09-.22.2-.53.35-.94s.24-.67.29-.79c.44-1.19.78-2.16,1-2.9a.62.62,0,0,0,0-.1s0-.09,0-.13,0-.07,0-.11a.38.38,0,0,0-.13-.41l-.11-.08-.12-.09a.21.21,0,0,1,0-.22c0-.06.06-.09.13-.09a6.67,6.67,0,0,1,1.73,0,.1.1,0,0,1,.07,0l0,0s0,.06,0,.13c.47,1.19.74,1.92.83,2.17s.13.36.2.58l.21.65c.07.22.13.42.19.58s.2.56.36,1,.26.69.31.8a.86.86,0,0,0,.55.55Zm-3.29-2.51c0-.09,0-.13,0-.14-.08-.22-.19-.6-.33-1.13s-.26-.93-.35-1.21l-.07,0L172,35l0,0a21.47,21.47,0,0,0-.73,2.19s0,0,0,.06l.06.09A4.59,4.59,0,0,0,172.82,37.42Zm1.8,2.24s0,0,0,0a0,0,0,0,0,0,0,25,25,0,0,0-1-2.84c-.09-.21-.24-.65-.47-1.31a9.44,9.44,0,0,0-.62-1.51h0s0,0,0,0l.42,1.26a12.8,12.8,0,0,0,.52,1.43C173.65,37.14,174,38.13,174.62,39.66Z"/><path class="cls-10" d="M185.89,39.93l0,0s0,0,0,0v.24q0,.21-.15.21h-2.85l-.29,0c-.07,0-.11-.06-.1-.12v-.1a1,1,0,0,1,0-.16.13.13,0,0,1,.13-.12h.21l.18,0a.38.38,0,0,0,.18-.07.14.14,0,0,0,.06-.12c0-.43,0-.69,0-.78,0-.53,0-1.3.06-2.3s0-1.6.05-1.8,0-.23,0-.51a0,0,0,0,0,0,0h-.05a1.65,1.65,0,0,0-.11.2c-.19.73-.31,1.17-.35,1.35a18.14,18.14,0,0,1-.66,2.17c-.17.46-.35,1-.53,1.68,0,.06-.08.29-.2.68a.26.26,0,0,1-.27.17H181l-.19,0a.31.31,0,0,1-.11-.09.48.48,0,0,1-.08-.16L180.24,39c-.17-.54-.27-.89-.31-1-.37-1.19-.57-1.85-.62-2s-.22-.59-.48-1.24l0,0h-.09c0,.26,0,.61-.08,1.06s0,.75-.06.93,0,.37,0,.55,0,.87,0,1.77v.35a1.79,1.79,0,0,0,.06.53.25.25,0,0,0,.18.07l.37,0,.23,0s0,.09,0,.25,0,.24-.07.24l-1.91.07h-.25a.06.06,0,0,1-.06,0s0,0,0,0a1.89,1.89,0,0,1,0-.35.1.1,0,0,1,.11-.11q.41,0,.45-.12a1.29,1.29,0,0,0,.07-.38v-.91c0-.44,0-.74,0-.92s0-.54,0-.95,0-.78,0-1.11,0-.65,0-.95v-.29a.6.6,0,0,0-.07-.3.3.3,0,0,1,0-.08l-.06-.06,0,0-.06,0-.06,0-.06,0h-.2s-.07,0-.07-.08a1.82,1.82,0,0,1,0-.34s0,0,.13,0l2.49,0H180l.1.17c.36,1,.62,1.78.77,2.31.07.23.22.73.46,1.49,0,0,.06.14.15.38l.11,0a.8.8,0,0,0,.08-.16l.2-.59.21-.65c.05-.16.11-.35.19-.58s.13-.45.19-.66.11-.41.15-.62.14-.53.26-.94a.28.28,0,0,1,.3-.23h2.64a.12.12,0,0,1,.08,0,.1.1,0,0,1,0,.09,1.72,1.72,0,0,0,0,.2v.21c0,.08,0,.12-.11.12a.89.89,0,0,0-.23.05.41.41,0,0,0-.32.42c0,.1,0,.34,0,.72s0,.66,0,.86c0,.79-.05,1.73-.16,2.82,0,.27,0,.52,0,.75a.36.36,0,0,0,.23.31.9.9,0,0,0,.29,0A.86.86,0,0,1,185.89,39.93Zm-4.81-1s0,0,0,0h0c-.44-1.2-.74-2.06-.91-2.6a11.88,11.88,0,0,0-1-2.39h0s0,0,0,0a13.9,13.9,0,0,1,.61,1.58c.21.63.42,1.24.62,1.83A11.21,11.21,0,0,0,181.08,38.94Zm3.33.67c0-.3,0-.61.05-.93s0-.72,0-1.22,0-.8,0-.93,0-.36,0-.66v-.72c0-.17,0-.38,0-.64a4.57,4.57,0,0,0-.1-.69s0,0,0,0a6.33,6.33,0,0,1,.06.89c0,.3,0,.66,0,1.06s0,.7,0,.88a26,26,0,0,0,.1,3l0,0A0,0,0,0,0,184.41,39.61Z"/><path class="cls-10" d="M190,40a.22.22,0,0,1,.15.08.35.35,0,0,1,0,.17.43.43,0,0,0,0,.05.18.18,0,0,0,0,.06c0,.06,0,.09-.11.12l-.24,0-2.83,0c-.07,0-.1-.15-.09-.31A.22.22,0,0,1,187,40a.47.47,0,0,0,.15-.06l.18-.07a.52.52,0,0,0,.15-.07.22.22,0,0,0,.15-.22c0-.34,0-.55,0-.64a20.79,20.79,0,0,1,0-2.08c0-.26,0-.87,0-1.85,0-.14,0-.33,0-.58a.7.7,0,0,0-.4-.54l-.12,0-.1,0a.28.28,0,0,1-.15-.15.22.22,0,0,1,0-.22.08.08,0,0,1,.07-.07.44.44,0,0,1,.18,0h2.49a1.37,1.37,0,0,1,.5.06.51.51,0,0,1,0,.42l-.32.12a.42.42,0,0,0-.31.37c0,.1,0,.18,0,.24,0,.7-.05,1.37-.1,2,0,.12,0,.25,0,.38v.84c0,.73,0,1.12,0,1.16a5,5,0,0,0,0,.58.48.48,0,0,0,.42.41H190Zm-1.33-1.59c0-.35,0-.84,0-1.46,0-.16,0-.35,0-.59s0-.44,0-.62,0-.37,0-.58,0-.41,0-.61,0-.4,0-.58a0,0,0,0,0,0,0s0,0,0,0a9.11,9.11,0,0,0,0,.93c0,.32,0,.71,0,1.18s0,.78,0,.94,0,.28,0,.65,0,.67,0,.87v.63c0,.1,0,.2,0,.32a2.43,2.43,0,0,0,0,.3,0,0,0,1,0,.06,0,7,7,0,0,1,0-.75C188.64,38.69,188.65,38.48,188.66,38.38Z"/><path class="cls-10" d="M197.39,38.59a.22.22,0,0,1,.05.14c0,.52-.08,1-.1,1.33a1.2,1.2,0,0,1,0,.23.23.23,0,0,1-.08.09.21.21,0,0,1-.12,0l-1.13,0-2.14,0h-.75l-1.59,0h-.27a.21.21,0,0,1-.08-.11.16.16,0,0,1,0-.09.47.47,0,0,1,0-.17.18.18,0,0,1,.11-.13,2.11,2.11,0,0,1,.31-.12h0a.67.67,0,0,0,.31-.34c0-.31,0-.51,0-.62,0-.37,0-1.12,0-2.25,0-.19,0-.75,0-1.66q0-.2,0-.57a.67.67,0,0,0-.39-.54l-.07,0-.09,0-.07,0a.28.28,0,0,1-.15-.15.25.25,0,0,1,0-.22.08.08,0,0,1,.07-.07.39.39,0,0,1,.18,0h2.49a1.31,1.31,0,0,1,.49.06.51.51,0,0,1,0,.42l-.32.11a.45.45,0,0,0-.31.38c0,.1,0,.18,0,.23,0,.72-.06,1.41-.11,2.06a3.68,3.68,0,0,0,0,.58V38c0,.41,0,.7,0,.88a.72.72,0,0,1,0,.17,1.32,1.32,0,0,0,0,.16,2.49,2.49,0,0,0,.06.34.38.38,0,0,0,.34.27c.79,0,1.27,0,1.45-.06a2.57,2.57,0,0,0,.61-.16.82.82,0,0,0,.54-.56c0-.09.06-.22.1-.38a.18.18,0,0,1,.19-.16h.34A.18.18,0,0,1,197.39,38.59Zm-4.59,1.32s0,0,0,0a0,0,0,0,0,0,0q0-1.32-.06-3.09c0-.19,0-.43,0-.72s0-.54,0-.75,0-.45,0-.72a5.15,5.15,0,0,0-.1-.73h0s0,0,0,0a14.76,14.76,0,0,1,0,1.62c0,.69-.05,1.17-.05,1.42s0,.85.05,1.58c0,.06,0,.15,0,.27s0,.22,0,.29,0,.17,0,.27,0,.2,0,.29S192.78,39.82,192.8,39.91Z"/><path class="cls-10" d="M209.59,32.24a1.27,1.27,0,0,1,0,.52,1,1,0,0,1-.25.43,1.08,1.08,0,0,1-.44.3,2.23,2.23,0,0,1-.79.17h-1q-1.23,0-1.74.09l-.11,0a.5.5,0,0,0-.41.27l-.46.81L203.63,36l-.72,1.19a.68.68,0,0,0-.12.38c0,.33,0,.51,0,.52a8.73,8.73,0,0,1,0,1.38v.13a.39.39,0,0,0,.31.37l.23,0h.29a.21.21,0,0,1,.1,0,.14.14,0,0,1,.05.1.37.37,0,0,1,0,.11.41.41,0,0,1,0,.09l-.06,0-.51.06c-1.08,0-1.91,0-2.49,0a3.63,3.63,0,0,1-.52-.05.09.09,0,0,1-.09-.07.4.4,0,0,1,0-.15.28.28,0,0,1,0-.12.1.1,0,0,1,.09-.06l.2,0,.25,0,.27-.09a.21.21,0,0,0,.14-.18c0-.26,0-.45,0-.58s0-.3,0-.54v-.5a1,1,0,0,0-.15-.55l-.66-1.22c-.09-.16-.21-.41-.38-.73l-.37-.71-.22-.42-.2-.34a.47.47,0,0,0-.45-.29.45.45,0,0,1-.18,0,.24.24,0,0,1-.09-.13.78.78,0,0,1,0-.23.21.21,0,0,1,.06-.1.12.12,0,0,1,.1-.06h2l.59,0,.6,0c.14,0,.21.1.21.28s-.09.27-.24.27l-.64,0a.65.65,0,0,0,0,.21c0,.06.07.14.12.22a1.74,1.74,0,0,0,.1.16c0,.08.15.27.32.56l.15.25.19.35s.1.2.29.57a.64.64,0,0,1,.06.14l.07.15a.61.61,0,0,0,.07.14.71.71,0,0,0,.1.14l.13-.12c.39-.68.83-1.5,1.33-2.43,0,0,.07-.13.13-.26a.11.11,0,0,0,0-.08.11.11,0,0,0,0-.07s0,0-.07-.05l-.13,0-.14,0a.18.18,0,0,1-.16-.21c0-.15.06-.23.19-.25s.79,0,1.84,0,1.68,0,1.89,0,.39,0,.81-.07a1.2,1.2,0,0,0,.5-.14.62.62,0,0,0,.29-.42c0-.11,0-.18-.15-.18h-.23a.37.37,0,0,1-.19-.11.5.5,0,0,1-.13-.19.45.45,0,0,1,0-.23.37.37,0,0,1,.18-.27.46.46,0,0,1,.34-.07.6.6,0,0,1,.41.26A.93.93,0,0,1,209.59,32.24ZM201.69,37h0s0,0,0,0-.07-.17-.11-.25-.07-.17-.11-.24l-.14-.24c0-.09-.09-.17-.13-.23s-.09-.15-.14-.25a2,2,0,0,1-.13-.23c-.07-.12-.2-.36-.39-.74s-.35-.66-.47-.86h0s0,0,0,0A19.1,19.1,0,0,0,201.69,37Zm.32,2.93A21.84,21.84,0,0,0,202,37.5l0,0s0,0,0,0a7.76,7.76,0,0,0,0,2.4s0,0,0,0S202,39.89,202,39.88ZM209.15,32s0,0,0,0a.05.05,0,0,0,0,0,.34.34,0,0,0-.14-.18c-.08-.06-.15-.06-.2,0s0,0,0,0l0,0,.08,0H209A.31.31,0,0,1,209.15,32Z"/><polygon class="cls-1" points="137.51 78.51 138.64 80.96 141.32 81.27 139.33 83.1 139.87 85.75 137.51 84.42 135.16 85.75 135.69 83.1 133.71 81.27 136.39 80.96 137.51 78.51"/><polygon class="cls-1" points="149.6 78.51 150.72 80.96 153.41 81.27 151.42 83.1 151.95 85.75 149.6 84.42 147.25 85.75 147.78 83.1 145.79 81.27 148.48 80.96 149.6 78.51"/><polygon class="cls-1" points="161.69 78.51 162.81 80.96 165.49 81.27 163.5 83.1 164.04 85.75 161.69 84.42 159.33 85.75 159.87 83.1 157.88 81.27 160.56 80.96 161.69 78.51"/><polygon class="cls-1" points="173.77 78.51 174.9 80.96 177.58 81.27 175.59 83.1 176.13 85.75 173.77 84.42 171.42 85.75 171.96 83.1 169.97 81.27 172.65 80.96 173.77 78.51"/><polygon class="cls-1" points="185.86 78.51 186.99 80.96 189.67 81.27 187.68 83.1 188.21 85.75 185.86 84.42 183.51 85.75 184.04 83.1 182.06 81.27 184.74 80.96 185.86 78.51"/><text class="cls-11" transform="translate(52.19 75.77)">HappyLand</text><text class="cls-12" transform="translate(123.08 118.62)">26</text><text class="cls-13" transform="translate(77.48 118.89)">JUN</text><text class="cls-14" transform="translate(217.14 118.62)">P<tspan class="cls-15" x="11.75" y="0">M</tspan></text><text class="cls-13" transform="translate(166.54 118.89)">7:20</text><rect class="cls-16" x="158.01" y="100.46" width="1.94" height="18.45"/><polygon class="cls-16" points="41.48 61.58 43.18 65.28 47.22 65.75 44.22 68.5 45.03 72.49 41.48 70.49 37.94 72.49 38.74 68.5 35.74 65.75 39.79 65.28 41.48 61.58"/><polygon class="cls-16" points="41.48 84.72 43.18 88.42 47.22 88.89 44.22 91.64 45.03 95.63 41.48 93.63 37.94 95.63 38.74 91.64 35.74 88.89 39.79 88.42 41.48 84.72"/><polygon class="cls-16" points="41.48 107.86 43.18 111.56 47.22 112.03 44.22 114.78 45.03 118.77 41.48 116.77 37.94 118.77 38.74 114.78 35.74 112.03 39.79 111.56 41.48 107.86"/><polygon class="cls-16" points="276.46 61.58 278.16 65.28 282.2 65.75 279.2 68.5 280.01 72.49 276.46 70.49 272.92 72.49 273.72 68.5 270.73 65.75 274.77 65.28 276.46 61.58"/><polygon class="cls-16" points="276.46 84.72 278.16 88.42 282.2 88.89 279.2 91.64 280.01 95.63 276.46 93.63 272.92 95.63 273.72 91.64 270.73 88.89 274.77 88.42 276.46 84.72"/><polygon class="cls-16" points="276.46 107.86 278.16 111.56 282.2 112.03 279.2 114.78 280.01 118.77 276.46 116.77 272.92 118.77 273.72 114.78 270.73 112.03 274.77 111.56 276.46 107.86"/><text class="cls-17" transform="translate(115.29 159)">GRE<tspan class="cls-18" x="17.26" y="0">A</tspan><tspan x="22.86" y="0" xml:space="preserve">T  STRE</tspan><tspan class="cls-19" x="57.05" y="0">E</tspan><tspan x="62.49" y="0" xml:space="preserve">T  123</tspan></text><line class="cls-20" x1="103.73" y1="156.18" x2="38.1" y2="156.18"/><line class="cls-20" x1="282.56" y1="156.18" x2="216.93" y2="156.18"/><text class="cls-21" transform="translate(70.92 144.78)"><tspan xml:space="preserve">KIDS    </tspan><tspan class="cls-22" x="42.9" y="0">P</tspan><tspan x="50.2" y="0" xml:space="preserve">ARENTS   </tspan><tspan class="cls-23" x="109.66" y="0"> </tspan><tspan class="cls-24" x="111.54" y="0">TE</tspan><tspan class="cls-25" x="128.23" y="0">A</tspan><tspan x="136.66" y="0">CHERS</tspan></text></g></g></svg>