<svg xmlns="http://www.w3.org/2000/svg" xmlns:xlink="http://www.w3.org/1999/xlink" viewBox="0 0 637.31 336.09"><defs><style>.cls-1,.cls-28,.cls-29,.cls-30,.cls-45{fill:none;}.cls-2{opacity:0.1;}.cls-3{fill:#7ebca9;}.cls-31,.cls-4,.cls-42,.cls-44{fill:#fff;}.cls-5{clip-path:url(#clip-path);}.cls-6{fill:#849a7e;}.cls-7{fill:#a9c4a5;}.cls-8{fill:#8bb384;}.cls-9{fill:#75a76f;}.cls-10{fill:#9b857e;}.cls-11{fill:#738d6c;}.cls-12{fill:#617e58;}.cls-13{fill:#619c5a;}.cls-14{fill:#516b49;}.cls-15{fill:#43853d;}.cls-16{fill:#97a891;}.cls-17{fill:#21957a;}.cls-18{fill:#a15b5c;}.cls-19{fill:#00846a;}.cls-20{fill:#4ba089;}.cls-21{fill:#84b8a9;}.cls-22{fill:#6aac9a;}.cls-23{fill:#aad5bf;}.cls-24{fill:#007369;}.cls-25{fill:#008177;}.cls-26{fill:#00ba9f;}.cls-27{fill:#009e8a;}.cls-28,.cls-29{stroke:#57b99f;}.cls-28,.cls-29,.cls-30,.cls-45{stroke-miterlimit:10;stroke-width:2px;}.cls-29{stroke-dasharray:5.95 5.95;}.cls-30{stroke:url(#Degradado_sin_nombre_2);}.cls-31,.cls-50{font-size:9.72px;}.cls-31,.cls-46,.cls-49,.cls-50{font-family:CaviarDreams;}.cls-32{letter-spacing:-0.03em;}.cls-33{letter-spacing:-0.08em;}.cls-34{letter-spacing:0.01em;}.cls-35{letter-spacing:-0.01em;}.cls-36{letter-spacing:0em;}.cls-37{letter-spacing:-0.01em;}.cls-38{letter-spacing:-0.01em;}.cls-39{letter-spacing:0em;}.cls-40{letter-spacing:0.01em;}.cls-41{letter-spacing:-0.01em;}.cls-42{font-size:15.7px;}.cls-42,.cls-44,.cls-56{font-family:CaviarDreams-Bold, CaviarDreams Bold;font-weight:700;}.cls-43{letter-spacing:-0.01em;}.cls-44{font-size:72px;}.cls-45{stroke:#fff;}.cls-46{font-size:38.18px;}.cls-46,.cls-49,.cls-56{fill:#4d4d4d;}.cls-47{letter-spacing:-0.05em;}.cls-48{letter-spacing:-0.04em;}.cls-49{font-size:14px;}.cls-50{fill:#333;}.cls-51{letter-spacing:-0.01em;}.cls-52{letter-spacing:0em;}.cls-53{letter-spacing:0em;}.cls-54{letter-spacing:0em;}.cls-55{letter-spacing:-0.01em;}.cls-56{font-size:73.35px;}.cls-57{letter-spacing:-0.01em;}.cls-58{letter-spacing:-0.08em;}</style><clipPath id="clip-path" transform="translate(0 41.07)"><path class="cls-1" d="M186.12,21.45V214.71a11.57,11.57,0,0,0,3.18,8l9.4,9.9a11.57,11.57,0,0,0,8.38,3.59H603.53a11.56,11.56,0,0,0,11.56-11.55V11.55A11.56,11.56,0,0,0,603.53,0H207.08a11.54,11.54,0,0,0-8.38,3.6l-9.4,9.89A11.57,11.57,0,0,0,186.12,21.45Z"/></clipPath><linearGradient id="Degradado_sin_nombre_2" x1="195.12" y1="116.29" x2="606.09" y2="116.29" gradientUnits="userSpaceOnUse"><stop offset="0" stop-color="#ba6b08"/><stop offset="0.11" stop-color="#d29632"/><stop offset="0.22" stop-color="#e6b954"/><stop offset="0.33" stop-color="#f4d26d"/><stop offset="0.42" stop-color="#fce17c"/><stop offset="0.5" stop-color="#ffe681"/><stop offset="0.61" stop-color="#fee27b"/><stop offset="0.75" stop-color="#fcd56a"/><stop offset="0.92" stop-color="#f8c04e"/><stop offset="1" stop-color="#f6b53e"/></linearGradient></defs><g id="圖層_2" data-name="圖層 2"><g id="OBJECTS"><path class="cls-3" d="M603.48,0H202.12l-16,16.84L170.54,0H11.6A11.61,11.61,0,0,0,0,11.6V40.45A32.78,32.78,0,0,1,32.77,73.23,32.77,32.77,0,0,1,0,106V224.56a11.6,11.6,0,0,0,11.6,11.6H170.54l15.58-16.83,16,16.83H603.48a11.6,11.6,0,0,0,11.61-11.6V11.6A11.61,11.61,0,0,0,603.48,0Z" transform="translate(0 41.07)"/><path class="cls-4" d="M186.12,21.45V214.71a11.57,11.57,0,0,0,3.18,8l9.4,9.9a11.57,11.57,0,0,0,8.38,3.59H603.53a11.56,11.56,0,0,0,11.56-11.55V11.55A11.56,11.56,0,0,0,603.53,0H207.08a11.54,11.54,0,0,0-8.38,3.6l-9.4,9.89A11.57,11.57,0,0,0,186.12,21.45Z" transform="translate(0 41.07)"/><g class="cls-5"><path class="cls-6" d="M369.52,1.34s9.19,2.84,11.08,5.57-7,6.43-11.84,4.64S356.43,5.16,356,3.81,364.41.73,369.52,1.34Z" transform="translate(0 41.07)"/><path class="cls-7" d="M353.28,4A84.54,84.54,0,0,0,365.5-4.34c4.72-4.17,12.44-6.19,15.11-4.07S379.42.24,368.51,2.46,353.28,4,353.28,4Z" transform="translate(0 41.07)"/><path class="cls-8" d="M381.06-7.93a2.26,2.26,0,0,0-.45-.48c-2.67-2.12-10.39-.1-15.11,4.07A84.54,84.54,0,0,1,353.28,4c10.62.12,28-11.46,28-11.46Z" transform="translate(0 41.07)"/><path class="cls-9" d="M353,4.11A.35.35,0,0,1,353,4a.32.32,0,0,1,.32-.32c10.41.12,27.47-11.18,27.64-11.29a.32.32,0,0,1,.45.09.33.33,0,0,1-.09.44c-.71.47-17.4,11.52-28,11.4A.34.34,0,0,1,353,4.11Z" transform="translate(0 41.07)"/><path class="cls-10" d="M242.42,17l0-.08a.64.64,0,0,1,.44-.78C244.78,15.52,290.75,2.27,302,1S338.63.33,338.89.33a.64.64,0,1,1,0,1.27c-.26,0-25.63-.56-36.75.68s-58.45,14.89-58.93,15A.64.64,0,0,1,242.42,17Z" transform="translate(0 41.07)"/><path class="cls-10" d="M301.82,1.75a.3.3,0,0,1,0-.21.23.23,0,0,1,.32-.1l3.64,1.82a.24.24,0,1,1-.22.43l-3.64-1.83A.23.23,0,0,1,301.82,1.75Z" transform="translate(0 41.07)"/><path class="cls-10" d="M313.62,1.07a.5.5,0,0,1,0-.12.24.24,0,0,1,.25-.22c.11,0,2.54.24,7.73,5.86a.22.22,0,0,1,0,.33.24.24,0,0,1-.34,0c-5-5.43-7.39-5.7-7.41-5.7A.23.23,0,0,1,313.62,1.07Z" transform="translate(0 41.07)"/><path class="cls-10" d="M318.14,1l0-.09a.32.32,0,0,1,.28-.35c4.09-.52,7-6.46,7-6.52a.33.33,0,0,1,.43-.15.33.33,0,0,1,.15.43c-.13.25-3.06,6.31-7.49,6.87A.31.31,0,0,1,318.14,1Z" transform="translate(0 41.07)"/><path class="cls-10" d="M323.13,1.08l0-.48c2-.35,3.65-2.81,3.67-2.83a.24.24,0,0,1,.33-.07.24.24,0,0,1,.07.33,8.91,8.91,0,0,1-2.3,2.34,9.61,9.61,0,0,0,5.27-3.25.23.23,0,0,1,.33,0,.23.23,0,0,1,0,.33A10,10,0,0,1,323.13,1.08Z" transform="translate(0 41.07)"/><path class="cls-10" d="M325.4.93a.29.29,0,0,1,0-.13.23.23,0,0,1,.27-.2c7.63,1.17,8.75,3.36,8.8,3.45a.25.25,0,0,1-.12.32.24.24,0,0,1-.31-.11s-1.17-2.07-8.45-3.19A.24.24,0,0,1,325.4.93Z" transform="translate(0 41.07)"/><path class="cls-11" d="M338.19.94s10.38-5.1,18.6,1.59,15.66,14.51,3.62,13S343.66,12.61,338.19.94Z" transform="translate(0 41.07)"/><path class="cls-12" d="M360.41,15.5c3.56.46,5.4.09,6-.82C353.54,5.82,338.19.94,338.19.94,343.66,12.61,348.38,14,360.41,15.5Z" transform="translate(0 41.07)"/><path class="cls-13" d="M320.92,6.31c0-.33,16.21,4.55,19.32,10.35s.05,8.94-6.61,4.23S320.86,7.89,320.92,6.31Z" transform="translate(0 41.07)"/><path class="cls-14" d="M333.63,20.89c4.2,3,7,2.82,7.66.85L320.92,6.31C320.86,7.89,327,16.17,333.63,20.89Z" transform="translate(0 41.07)"/><path class="cls-9" d="M320.63,6.44a.35.35,0,0,1,0-.33.33.33,0,0,1,.45-.06l20.49,15.53a.32.32,0,0,1,.06.45.31.31,0,0,1-.44.06L320.73,6.56A.53.53,0,0,1,320.63,6.44Z" transform="translate(0 41.07)"/><path class="cls-11" d="M333.94,3.76S345.34,7,347,17.32s1.85,13.68-1.1,11.89-12.24-8.36-12.31-16.71S333.94,3.76,333.94,3.76Z" transform="translate(0 41.07)"/><path class="cls-12" d="M333.59,12.5c.07,8.35,9.36,14.92,12.31,16.71.78.47,1.33.58,1.71.31h0c-5.71-17.4-13.67-25.76-13.67-25.76S333.52,4.14,333.59,12.5Z" transform="translate(0 41.07)"/><path class="cls-7" d="M335-34.86s5.79,6.38,1.54,17.35S326-.7,326-.7s8.52-18.17,7.77-26.15S333.42-36.62,335-34.86Z" transform="translate(0 41.07)"/><path class="cls-9" d="M325.26-4.76s11.58-9.52,9.44-16.6-5.67-.81-6.59.91C327.32-19,324.16-9,325.26-4.76Z" transform="translate(0 41.07)"/><path class="cls-13" d="M332.37-24.64c-1.79-.27-3.63,3-4.26,4.19C327.32-19,324.16-9,325.26-4.76c0,0,5.95-8.15,7.24-14.86A14.27,14.27,0,0,0,332.37-24.64Z" transform="translate(0 41.07)"/><path class="cls-9" d="M313.63-17.95s-6.06,3.15-8.71,8.56c-3.35,6.83-2.88,11-2.88,11s8,3.06,12.53-3.13,12.71-18.27,10.67-20.26S313.63-17.95,313.63-17.95Z" transform="translate(0 41.07)"/><path class="cls-12" d="M312.69-2.83C317.31-9,323.06-16,325.24-21.74c-2-2-11.61,3.79-11.61,3.79s-6.06,3.15-8.71,8.56c-3.35,6.83-2.88,11-2.88,11S308.07,3.33,312.69-2.83Z" transform="translate(0 41.07)"/><path class="cls-11" d="M305.25,3.3S314.32,2,322.2,11.82s14.19,22.2,1.73,15.45S304.94,11.14,305.25,3.3Z" transform="translate(0 41.07)"/><path class="cls-6" d="M323.93,27.27c2.93,1.58,4.81,2.11,5.89,1.86l.76-.41v0L305.25,3.3C304.94,11.14,311.47,20.52,323.93,27.27Z" transform="translate(0 41.07)"/><path class="cls-8" d="M357.11-11.45s-3.51-.12-10.52,3c-9.11,4-17.18,4.62-16.46,5.89a128.44,128.44,0,0,0,13.29.52C347.93-2.23,371.2-11,357.11-11.45Z" transform="translate(0 41.07)"/><path class="cls-12" d="M305,3.43a.33.33,0,0,1,.07-.36.32.32,0,0,1,.45,0L324.1,21.75a.32.32,0,1,1-.45.45L305,3.52A.31.31,0,0,1,305,3.43Z" transform="translate(0 41.07)"/><path class="cls-14" d="M301.82,1.75a.29.29,0,0,1,0-.16.24.24,0,0,1,.29-.17c.06,0,5.94,1.56,10.4-4.4.81-1.08,1.65-2.17,2.49-3.28,4-5.24,8.15-10.65,9.94-15.34a.25.25,0,0,1,.31-.14.25.25,0,0,1,.14.31c-1.82,4.75-6,10.19-10,15.46-.85,1.11-1.68,2.2-2.49,3.28C308.22,3.53,302,1.9,302,1.88A.24.24,0,0,1,301.82,1.75Z" transform="translate(0 41.07)"/><path class="cls-15" d="M325-4.74a.26.26,0,0,1,0-.24c.06-.08,5.95-8.1,7.22-14.68a12.13,12.13,0,0,0-.08-4.67.24.24,0,0,1,.18-.29.25.25,0,0,1,.28.19,12.1,12.1,0,0,1,.08,4.87c-1.28,6.67-7.24,14.78-7.3,14.86a.23.23,0,0,1-.33,0A.23.23,0,0,1,325-4.74Z" transform="translate(0 41.07)"/><path class="cls-16" d="M333.65,3.89a.33.33,0,0,1,0-.33.32.32,0,0,1,.45-.05c.18.16,4.59,3.93,11.82,20.51a.31.31,0,0,1-.16.42.32.32,0,0,1-.42-.16h0C338.18,7.81,333.78,4,333.74,4A.31.31,0,0,1,333.65,3.89Z" transform="translate(0 41.07)"/><path class="cls-9" d="M337.9,1.07a.3.3,0,0,1,0-.21.32.32,0,0,1,.38-.23c.23.06,5.73,1.46,20.37,8.9a.32.32,0,0,1,.14.43.33.33,0,0,1-.43.14c-14.57-7.41-20.18-8.84-20.23-8.85A.28.28,0,0,1,337.9,1.07Z" transform="translate(0 41.07)"/><path class="cls-6" d="M181,167.87s-4.55,8.48-7.58,9.81-5-8.12-2.3-12.5,8.63-10.89,10-11.1S182.52,163,181,167.87Z" transform="translate(0 41.07)"/><path class="cls-7" d="M181.46,151.42A84.14,84.14,0,0,0,187.29,165c3.19,5.43,3.71,13.4,1.12,15.62s-8.27-2.82-8.37-14S181.46,151.42,181.46,151.42Z" transform="translate(0 41.07)"/><path class="cls-8" d="M187.84,181a2.1,2.1,0,0,0,.57-.34c2.59-2.22,2.07-10.19-1.12-15.62a84.14,84.14,0,0,1-5.83-13.58c-2.15,10.41,5.91,29.68,5.91,29.68Z" transform="translate(0 41.07)"/><path class="cls-9" d="M181.39,151.11a.29.29,0,0,1,.13,0,.32.32,0,0,1,.25.38c-2.11,10.19,5.73,29.09,5.81,29.28a.32.32,0,0,1-.59.25c-.33-.78-8-19.28-5.84-29.66A.31.31,0,0,1,181.39,151.11Z" transform="translate(0 41.07)"/><path class="cls-10" d="M189.87,40.13l.08,0a.64.64,0,0,1,.69.58c.18,2,4.42,49.68,3.51,60.93s-6.32,36.12-6.37,36.37a.63.63,0,1,1-1.24-.27c.05-.25,5.44-25,6.34-36.2s-3.46-60.22-3.5-60.72A.62.62,0,0,1,189.87,40.13Z" transform="translate(0 41.07)"/><path class="cls-10" d="M193.47,101.34a.22.22,0,0,1,.19,0,.24.24,0,0,1,.05.34l-2.49,3.22a.24.24,0,0,1-.33,0,.23.23,0,0,1,0-.33l2.49-3.23A.25.25,0,0,1,193.47,101.34Z" transform="translate(0 41.07)"/><path class="cls-10" d="M191.88,113.05H192a.23.23,0,0,1,.17.29c0,.1-.71,2.45-7.22,6.47a.23.23,0,0,1-.33-.08.24.24,0,0,1,.08-.32c6.29-3.89,7-6.17,7-6.2A.26.26,0,0,1,191.88,113.05Z" transform="translate(0 41.07)"/><path class="cls-10" d="M191.08,117.49h.09a.32.32,0,0,1,.29.34c-.27,4.12,5,8.07,5.06,8.11a.33.33,0,0,1,.07.45.31.31,0,0,1-.44.06c-.24-.17-5.62-4.2-5.32-8.66A.32.32,0,0,1,191.08,117.49Z" transform="translate(0 41.07)"/><path class="cls-10" d="M190.06,122.38l.47.05c0,2.07,2.06,4.12,2.08,4.14a.24.24,0,0,1,0,.34.25.25,0,0,1-.34,0,8.77,8.77,0,0,1-1.86-2.7,9.56,9.56,0,0,0,2.19,5.79.24.24,0,1,1-.37.31A9.93,9.93,0,0,1,190.06,122.38Z" transform="translate(0 41.07)"/><path class="cls-10" d="M189.77,124.64a.2.2,0,0,1,.13,0,.24.24,0,0,1,.15.3c-2.61,7.27-5,8-5.07,8a.24.24,0,0,1-.29-.17.23.23,0,0,1,.16-.29c.05,0,2.26-.75,4.75-7.68A.23.23,0,0,1,189.77,124.64Z" transform="translate(0 41.07)"/><path class="cls-11" d="M187.32,137.19s3,11.16-5.11,18-17.23,12.6-13.43,1.08S174.82,140.34,187.32,137.19Z" transform="translate(0 41.07)"/><path class="cls-12" d="M168.78,156.23c-1.12,3.4-1.11,5.28-.34,6.08,11.16-11,18.88-25.12,18.88-25.12C174.82,140.34,172.59,144.71,168.78,156.23Z" transform="translate(0 41.07)"/><path class="cls-13" d="M185.34,119.22c.32.07-7.55,15-13.85,17s-8.78-1.67-2.88-7.3S183.8,118.85,185.34,119.22Z" transform="translate(0 41.07)"/><path class="cls-14" d="M168.61,128.91c-3.72,3.55-4.1,6.3-2.3,7.36l19-17.05C183.8,118.85,174.51,123.28,168.61,128.91Z" transform="translate(0 41.07)"/><path class="cls-9" d="M185.27,118.91a.33.33,0,0,1,.31.09.32.32,0,0,1,0,.45L166.4,136.61a.32.32,0,1,1-.42-.47L185.13,119A.31.31,0,0,1,185.27,118.91Z" transform="translate(0 41.07)"/><path class="cls-11" d="M185.36,132.48s-5.35,10.58-15.8,10.24-13.78-.8-11.47-3.36,10.55-10.42,18.76-8.89S185.36,132.48,185.36,132.48Z" transform="translate(0 41.07)"/><path class="cls-12" d="M176.85,130.47c-8.21-1.53-16.44,6.34-18.76,8.89-.61.68-.82,1.2-.62,1.62h0c18.16-2.28,27.89-8.5,27.89-8.5S185.07,132,176.85,130.47Z" transform="translate(0 41.07)"/><path class="cls-7" d="M223.07,140.93s-7.37,4.46-17.33-1.8-14.49-13.6-14.49-13.6,16.22,11.83,24.19,12.62S225.1,139.67,223.07,140.93Z" transform="translate(0 41.07)"/><path class="cls-9" d="M195.38,125.58s7.13,13.19,14.5,12.44,1.87-5.41.36-6.65C209,130.33,199.8,125.32,195.38,125.58Z" transform="translate(0 41.07)"/><path class="cls-13" d="M213.54,136.35c.61-1.7-2.27-4.13-3.3-5-1.28-1-10.44-6.05-14.86-5.79,0,0,6.86,7.4,13.2,10A14.41,14.41,0,0,0,213.54,136.35Z" transform="translate(0 41.07)"/><path class="cls-9" d="M210.54,116.68s-1.93-6.54-6.73-10.18c-6.07-4.59-10.29-4.93-10.29-4.93s-4.54,7.31.67,12.9,15.52,16,17.86,14.33S210.54,116.68,210.54,116.68Z" transform="translate(0 41.07)"/><path class="cls-12" d="M195.89,112.88c5.17,5.71,11,12.69,16.16,15.92,2.35-1.62-1.51-12.12-1.51-12.12s-1.93-6.54-6.73-10.18c-6.07-4.59-10.29-4.93-10.29-4.93S190.72,107.17,195.89,112.88Z" transform="translate(0 41.07)"/><path class="cls-11" d="M191.28,104.41s-.41,9.15-11.59,15-24.5,9.69-15.49-1.25S183.65,102.61,191.28,104.41Z" transform="translate(0 41.07)"/><path class="cls-6" d="M164.2,118.17c-2.12,2.57-3,4.32-3,5.42l.26.83h0l29.77-20C183.65,102.61,173.2,107.22,164.2,118.17Z" transform="translate(0 41.07)"/><path class="cls-8" d="M195.87,158.12s.78-3.41-.9-10.88c-2.2-9.72-1.27-17.76-2.65-17.29a129.43,129.43,0,0,0-3,13C188.57,147.35,192.75,171.87,195.87,158.12Z" transform="translate(0 41.07)"/><path class="cls-12" d="M191.21,104.1a.33.33,0,0,1,.34.13.31.31,0,0,1-.09.44l-21.88,14.72a.32.32,0,0,1-.44-.09.31.31,0,0,1,.09-.44l21.88-14.72A.21.21,0,0,1,191.21,104.1Z" transform="translate(0 41.07)"/><path class="cls-14" d="M193.47,101.34a.23.23,0,0,1,.16,0,.24.24,0,0,1,.1.32s-2.66,5.52,2.34,11c.9,1,1.82,2,2.74,3.07,4.38,4.93,8.91,10,13.17,12.69a.23.23,0,0,1,.07.32.23.23,0,0,1-.33.08c-4.32-2.69-8.86-7.82-13.26-12.77-.93-1-1.85-2.08-2.75-3.07-5.22-5.77-2.43-11.52-2.4-11.58A.22.22,0,0,1,193.47,101.34Z" transform="translate(0 41.07)"/><path class="cls-15" d="M195.41,125.35a.23.23,0,0,1,.23.07c.07.07,6.82,7.39,13,9.89a12,12,0,0,0,4.6.81.23.23,0,0,1,.24.23.24.24,0,0,1-.23.25,12.48,12.48,0,0,1-4.79-.85c-6.31-2.54-13.14-9.93-13.2-10a.23.23,0,0,1,0-.33A.24.24,0,0,1,195.41,125.35Z" transform="translate(0 41.07)"/><path class="cls-16" d="M185.29,132.17a.32.32,0,0,1,.28.55c-.19.15-4.74,3.75-22.39,7.7a.32.32,0,0,1-.14-.62h0c17.54-3.93,22.08-7.53,22.12-7.57A.31.31,0,0,1,185.29,132.17Z" transform="translate(0 41.07)"/><path class="cls-9" d="M187.25,136.88a.28.28,0,0,1,.2,0,.32.32,0,0,1,.16.42c-.1.21-2.53,5.34-12.62,18.3a.33.33,0,0,1-.45,0,.31.31,0,0,1,0-.44c10-12.9,12.52-18.13,12.54-18.18A.3.3,0,0,1,187.25,136.88Z" transform="translate(0 41.07)"/><path class="cls-17" d="M226.57,14.21a16.71,16.71,0,0,0-10.94,9.52c-3.33,7.86-2.17,17.2-2.17,17.2a13.54,13.54,0,0,0,7-3.73C223.88,33.9,232.24,11.43,226.57,14.21Z" transform="translate(0 41.07)"/><path class="cls-18" d="M256.57,70.45a.3.3,0,0,1-.35,0c-28.67-24.81-55.47-35-55.73-35.1a.3.3,0,0,1-.18-.4.3.3,0,0,1,.39-.18c.27.11,27.17,10.33,55.93,35.21a.32.32,0,0,1,0,.44A.28.28,0,0,1,256.57,70.45Z" transform="translate(0 41.07)"/><path class="cls-19" d="M240.62,19.39s-12.74,10-13.53,14.69-2.51,13.08-2.51,13.08,9.57-1.67,12.54-5.46S249.86,11.05,240.62,19.39Z" transform="translate(0 41.07)"/><path class="cls-17" d="M256.49,27.67s8.15-3.4,4.31,3-4.83,10-8.4,13.83a22.89,22.89,0,0,1-14.54,7.8c-7.39,1.2-3.24.59-3.24.59s3.73-6.82,5.33-9.82S244.59,34.05,256.49,27.67Z" transform="translate(0 41.07)"/><path class="cls-20" d="M245.67,61.44s9.48-23.57,30.16-14.95c0,0,4.77,2.56-1.41,4.64s-7.24,6.32-10.78,7.49S252.57,60.89,245.67,61.44Z" transform="translate(0 41.07)"/><path class="cls-21" d="M296.46,73.24s-14.73-7-19.83-7.48c0,0-11.67-.16-20.2,4.42,0,0,9.42,4,13,5.29S307.43,79.64,296.46,73.24Z" transform="translate(0 41.07)"/><path class="cls-21" d="M256.43,70.18S251,77.09,251,85.51s3.45,21.87,7.18,20.6-.14-23.46-.32-27.2A56.7,56.7,0,0,0,256.43,70.18Z" transform="translate(0 41.07)"/><path class="cls-22" d="M247.15,62.58s-9.51,10.22-10.63,16.3,2.12,23.66,6.24,26.93,4.12.7,4.14-2.22-.77-21.48.3-26.43S247.54,66,247.15,62.58Z" transform="translate(0 41.07)"/><path class="cls-20" d="M236.51,54.81a43.93,43.93,0,0,0-13.34,18.73c-4.78,12.51-2.41,25.1-.25,25s4.28-6,5.55-8.36,8.55-17.45,8.71-21.46S235.8,57.18,236.51,54.81Z" transform="translate(0 41.07)"/><path class="cls-19" d="M225.42,48.25s-9.08,8.31-10.84,11.82-6.2,26.88-5,29.51,2,3.57,3.21,1.56,3.92-10,5-12.09,5.29-11.4,6.72-13a8.46,8.46,0,0,0,2-8C225.47,54.7,225.42,48.25,225.42,48.25Z" transform="translate(0 41.07)"/><path class="cls-17" d="M214.93,41.69s-4.79,6.51-8.18,8.57S187.3,65.71,189,74s6.68,0,7.28-.7,9-9.55,11.37-11,8.58-7.1,7-13.65a16.36,16.36,0,0,1,.37-6.94" transform="translate(0 41.07)"/><path class="cls-19" d="M213.4,41.13a.28.28,0,0,1-.36-.06.29.29,0,0,1,0-.43c4.31-4.22,14.42-26.37,14.52-26.6a.31.31,0,0,1,.41-.15.32.32,0,0,1,.15.41c-.42.91-10.26,22.48-14.65,26.78Z" transform="translate(0 41.07)"/><path class="cls-17" d="M224.72,47.43a.31.31,0,0,1-.36-.06.31.31,0,0,1,0-.44c.09-.08,9.24-8.7,10.81-14.46,1.66-6.09,7.66-13.82,8.65-14.69a.31.31,0,0,1,.44,0,.3.3,0,0,1,0,.43c-.94.83-6.86,8.53-8.46,14.39S225.17,47,224.8,47.38Z" transform="translate(0 41.07)"/><path class="cls-19" d="M234.76,53.2a.31.31,0,0,1-.31-.53c.08-.06,8.25-5.52,13-9.08s13.88-16.35,14-16.48a.32.32,0,0,1,.44-.07.3.3,0,0,1,.06.43c-.37.53-9.34,13-14.09,16.61s-12.91,9.05-13,9.1Z" transform="translate(0 41.07)"/><path class="cls-19" d="M277.48,48.11a.42.42,0,0,1-.15,0c-.09,0-9-.12-14.29,2.64l-.16.08c-5.36,2.88-16.92,10.74-17,10.83a.33.33,0,0,1-.44-.09.33.33,0,0,1,.08-.43c.12-.08,11.7-8,17.1-10.85l.17-.09c5.46-2.83,14.21-2.72,14.58-2.71a.31.31,0,0,1,.31.31A.32.32,0,0,1,277.48,48.11Z" transform="translate(0 41.07)"/><path class="cls-23" d="M258.29,106.38l-.07,0a.32.32,0,0,1-.37-.23c-2.53-10.83-1.74-35.76-1.74-36l0-.27.27,0c16.41-1.61,42,4.8,42.21,4.86a.31.31,0,0,1,.22.37.31.31,0,0,1-.38.23c-.25-.06-25.41-6.38-41.73-4.87-.07,2.74-.64,25.43,1.73,35.58A.32.32,0,0,1,258.29,106.38Z" transform="translate(0 41.07)"/><path class="cls-21" d="M246,107.59l-.08,0a.32.32,0,0,1-.37-.24c-.19-.95-4.6-23.17-1.52-32.72,3-9.2,2.28-11.35,2.28-11.37a.3.3,0,0,1,.18-.39.3.3,0,0,1,.39.16c0,.09.84,2.21-2.26,11.79-3,9.4,1.49,32.18,1.54,32.4A.31.31,0,0,1,246,107.59Z" transform="translate(0 41.07)"/><path class="cls-19" d="M223.06,98.85a.29.29,0,0,1-.24,0,.31.31,0,0,1-.2-.39c.14-.39,13.18-39.58,13.59-43.7a.3.3,0,0,1,.34-.28.31.31,0,0,1,.27.34c-.41,4.19-13.07,42.22-13.61,43.84A.31.31,0,0,1,223.06,98.85Z" transform="translate(0 41.07)"/><path class="cls-17" d="M211.44,92.42a.33.33,0,0,1-.24,0A.29.29,0,0,1,211,92c.08-.23,8.23-23,10.7-30.81a123.2,123.2,0,0,0,3.41-13,.3.3,0,0,1,.35-.25.31.31,0,0,1,.25.36,118.85,118.85,0,0,1-3.43,13.11c-2.46,7.81-10.62,30.6-10.7,30.83A.35.35,0,0,1,211.44,92.42Z" transform="translate(0 41.07)"/><path class="cls-19" d="M190,77.21a.29.29,0,0,1-.31,0,.31.31,0,0,1-.08-.43c.45-.66,11.15-16.32,18.55-20.15l0,0a8.9,8.9,0,0,0,3.75-6.43l2.2-7.26a.31.31,0,1,1,.59.18l-2.19,7.21a9.35,9.35,0,0,1-4,6.85h0c-7.27,3.76-18.23,19.8-18.34,20A.29.29,0,0,1,190,77.21Z" transform="translate(0 41.07)"/><path class="cls-24" d="M250.47,35.9a.29.29,0,0,1-.25.16c-.2,0-19.89.46-31.07-2s-31.57-5.74-31.78-5.78a.28.28,0,0,1-.24-.34.29.29,0,0,1,.34-.24c.2,0,20.65,3.33,31.8,5.78s30.73,2,30.93,2a.31.31,0,0,1,.31.29A.24.24,0,0,1,250.47,35.9Z" transform="translate(0 41.07)"/><path class="cls-24" d="M226.67,42.49l0,.07a.29.29,0,0,1-.42,0c-4.49-4.43-19.39-10.89-19.54-11a.3.3,0,1,1,.24-.54c.61.26,15.15,6.57,19.71,11.08A.29.29,0,0,1,226.67,42.49Z" transform="translate(0 41.07)"/><path class="cls-24" d="M240.08,41.51a.3.3,0,0,1-.38.14c-7.31-3.08-23.71-8.23-23.87-8.28a.3.3,0,0,1-.19-.38.29.29,0,0,1,.37-.19c.16.05,16.58,5.21,23.92,8.3a.31.31,0,0,1,.16.39Z" transform="translate(0 41.07)"/><path class="cls-24" d="M252.55,26.38l-.08.09c-.1.08-9.83,7.56-25.75,8.76a.3.3,0,0,1-.05-.6C242.42,33.45,252,26.08,252.1,26a.3.3,0,0,1,.42.05A.33.33,0,0,1,252.55,26.38Z" transform="translate(0 41.07)"/><path class="cls-24" d="M257.8,19.05a.28.28,0,0,1-.12.12c-4.81,2.64-14.2,5.93-21.34,8.27A50.41,50.41,0,0,1,227,30.38l-.14-.58c.09,0,4.11-1.22,9.34-2.93a143.66,143.66,0,0,0,17.9-9.1.3.3,0,0,1,.32.51c-.1.06-5.55,3.38-12.23,6.57a114.49,114.49,0,0,0,15.26-6.2.3.3,0,0,1,.4.12A.28.28,0,0,1,257.8,19.05Z" transform="translate(0 41.07)"/><path class="cls-24" d="M280.65,20.71a.33.33,0,0,1-.26.16c-12.22.4-19.1,2.33-21.92,3.44,4.83-1.15,15.45,1.82,15.92,2a.28.28,0,0,1,.2.36.3.3,0,0,1-.36.21c-.12,0-11.73-3.28-16.09-1.8-1.38.46-1.55.28-1.65.17a.37.37,0,0,1-.07-.38v0c.51-.95,8.43-4,23.94-4.53a.31.31,0,0,1,.31.29A.4.4,0,0,1,280.65,20.71Z" transform="translate(0 41.07)"/><path class="cls-20" d="M283.43,29.92s-22.91-6.56-33.76,5.82C249.67,35.74,262.63,50.94,283.43,29.92Z" transform="translate(0 41.07)"/><path class="cls-17" d="M282,31.29A74,74,0,0,1,249.93,36C251.8,37.94,263.73,48.67,282,31.29Z" transform="translate(0 41.07)"/><path class="cls-22" d="M274.31,26.54s2.55-2.72,9,1.3c0,0,3.26-1.56,7.94,3.89s9.62,14,11.2,26.25C302.44,58,288.69,34.46,274.31,26.54Z" transform="translate(0 41.07)"/><path class="cls-25" d="M258.51,28.4s7.26,2.09,7.5,5.49-5.29,3.94-5.29,3.94Z" transform="translate(0 41.07)"/><path class="cls-24" d="M251.22,26.9s12.75-17.58,9.21,10C260.43,36.87,256.9,26.18,251.22,26.9Z" transform="translate(0 41.07)"/><path class="cls-20" d="M255.32,50.93s11.57,3.37,9.08,25.6Z" transform="translate(0 41.07)"/><path class="cls-22" d="M238.85,41.61s20.23-11.44,25.55,34.92C264.4,76.53,251.91,49.66,238.85,41.61Z" transform="translate(0 41.07)"/><path class="cls-25" d="M225.48,42s7.33-4.42,14.25,6.21S242,67.9,242,67.9s-3.9-12.21-7.47-16.49S225.48,42,225.48,42Z" transform="translate(0 41.07)"/><path class="cls-26" d="M229,29.65s11.57-6.7,1.19-11.07Z" transform="translate(0 41.07)"/><path class="cls-27" d="M230.17,18.58S236,36.9,228.32,37s-9.11-3.19-9.11-3.19S229,29.08,230.17,18.58Z" transform="translate(0 41.07)"/><path class="cls-27" d="M267.47,17.23s24.9-2.21,22.44-39.79C289.91-22.56,277.39,10.66,267.47,17.23Z" transform="translate(0 41.07)"/><path class="cls-24" d="M256.48,19.62s25-.14,27.91-26.39C284.39-6.77,261.7,15.4,256.48,19.62Z" transform="translate(0 41.07)"/><path class="cls-25" d="M270.61-2s2.25,20.8-17.62,20.77C253,18.73,267.55.79,270.61-2Z" transform="translate(0 41.07)"/><path class="cls-27" d="M288.56,17.31s20.3-9.4,28.26-3.56C316.82,13.75,310.06,27.49,288.56,17.31Z" transform="translate(0 41.07)"/><path class="cls-24" d="M280.38,20.57s5.84-9.38,17.25-7.42,24.09,10,7.86,10.67S282.64,23,280.38,20.57Z" transform="translate(0 41.07)"/><path class="cls-17" d="M274.31,26.54C288.69,34.46,302.44,58,302.44,58S288.81,33.81,283.3,27.84C276.86,23.82,274.31,26.54,274.31,26.54Z" transform="translate(0 41.07)"/><path class="cls-6" d="M237,125.55s12.76-.37,10.69,13.51a14.3,14.3,0,0,1-7.37,9.06S236.13,132.58,237,125.55Z" transform="translate(0 41.07)"/><path class="cls-11" d="M237,125.55c-.9,7,3.32,22.57,3.32,22.57C255.68,131.32,237,125.55,237,125.55Z" transform="translate(0 41.07)"/><path class="cls-12" d="M240.72,148.21a.44.44,0,0,1-.38-.09.42.42,0,0,1,0-.58c4.8-5.26,6.68-9.9,5.58-13.79-1.58-5.6-8.91-7.78-9-7.81a.41.41,0,0,1,.23-.78c.32.09,7.84,2.33,9.55,8.37,1.18,4.18-.76,9.08-5.77,14.56A.37.37,0,0,1,240.72,148.21Z" transform="translate(0 41.07)"/><path class="cls-8" d="M241.48,130.4c-.14-.16,19.65.52,27.66,13.84C269.14,144.24,257.66,149.3,241.48,130.4Z" transform="translate(0 41.07)"/><path class="cls-10" d="M216,104.44c-.6.15-.93-.47-1.12-.83l.05,0c-.33-.71-1.42-3-4.92-10-6.46-12.93-21.42-16.37-21.57-16.4l.35-1.6c.64.14,15.88,3.65,22.68,17.27,2.21,4.42,3.49,7,4.22,8.51,1.19,2.43,1.26,2.58.52,3Z" transform="translate(0 41.07)"/><path class="cls-10" d="M258.18,150.47c-.11-.11-11-11.11-17.2-19.71-5.88-8.16-9.87-8.14-9.91-8.14L231,121.4c.19,0,4.61-.19,11,8.65,6.14,8.52,17,19.45,17.07,19.56Z" transform="translate(0 41.07)"/><path class="cls-13" d="M219,106.81s10.13-11,25.94,1.61,9,10.8-.41,13.23C237,123.59,221.42,124.69,219,106.81Z" transform="translate(0 41.07)"/><path class="cls-14" d="M244.53,121.65c5.09-1.31,9.41-1.39,9.81-3.18-11.46-1.9-35.34-11.66-35.34-11.66C221.42,124.69,237,123.59,244.53,121.65Z" transform="translate(0 41.07)"/><path class="cls-9" d="M254.44,118.86a.29.29,0,0,1-.16,0c-11.38-1.88-35.19-11.59-35.43-11.69a.41.41,0,1,1,.31-.75c.24.1,24,9.77,35.25,11.63a.42.42,0,0,1,.34.47A.41.41,0,0,1,254.44,118.86Z" transform="translate(0 41.07)"/><path class="cls-12" d="M215.6,103.3s16.64,2.77,15.37,19.9-5.05,21.57-7.86,20.06-17.54-6.89-12.6-24.83S215.6,103.3,215.6,103.3Z" transform="translate(0 41.07)"/><path class="cls-14" d="M210.51,118.43c-4.94,17.94,9.8,23.33,12.6,24.83a2.05,2.05,0,0,0,1.71.16c4.06-14.07-9.22-40.12-9.22-40.12l-.21-.08C215,103.67,213.85,106.32,210.51,118.43Z" transform="translate(0 41.07)"/><path class="cls-16" d="M225,143.47a.4.4,0,0,1-.49-.51c4-13.74-9.12-39.22-9.25-39.48a.41.41,0,1,1,.73-.37c.55,1,13.36,26,9.3,40.08A.41.41,0,0,1,225,143.47Z" transform="translate(0 41.07)"/><path class="cls-6" d="M213.59-7s-1.88-12.63,12.15-12.22a14.25,14.25,0,0,1,9.86,6.24S220.68-6.91,213.59-7Z" transform="translate(0 41.07)"/><path class="cls-11" d="M213.59-7c7.09.06,22-6,22-6C217.1-26.17,213.59-7,213.59-7Z" transform="translate(0 41.07)"/><path class="cls-12" d="M235.65-13.33a.38.38,0,0,1-.05.38.4.4,0,0,1-.57.1c-5.79-4.14-10.62-5.45-14.35-3.9C215.31-14.52,214-7,214-6.9a.41.41,0,0,1-.46.34.41.41,0,0,1-.34-.47c.05-.33,1.38-8.07,7.17-10.48,4-1.66,9.11-.32,15.15,4A.43.43,0,0,1,235.65-13.33Z" transform="translate(0 41.07)"/><path class="cls-8" d="M217.88-12c-.14.15-1.82-19.57,10.44-29.11C228.32-41.07,234.72-30.28,217.88-12Z" transform="translate(0 41.07)"/><path class="cls-10" d="M195.13,16.43c.22.57-.36,1-.68,1.2l0,0c-.66.41-2.76,1.76-9.31,6.07C173,31.61,171.39,46.88,171.38,47l-1.63-.15c.06-.66,1.73-16.21,14.45-24.58,4.12-2.72,6.55-4.3,7.94-5.2,2.28-1.47,2.42-1.56,2.88-.87A.66.66,0,0,1,195.13,16.43Z" transform="translate(0 41.07)"/><path class="cls-10" d="M235.82-30.93c-.1.12-9.73,12.24-17.52,19.42C210.9-4.7,211.39-.74,211.39-.7l-1.2.22c0-.19-.73-4.56,7.28-11.93,7.72-7.12,17.29-19.16,17.39-19.28Z" transform="translate(0 41.07)"/><path class="cls-13" d="M197.13,13.16S185,4.42,195.64-12.78s9.65-10.23,13.19-1.17C211.65-6.73,214.59,8.63,197.13,13.16Z" transform="translate(0 41.07)"/><path class="cls-14" d="M208.83-13.95c-1.92-4.9-2.51-9.18-4.33-9.37-.52,11.62-7.37,36.48-7.37,36.48C214.59,8.63,211.65-6.73,208.83-13.95Z" transform="translate(0 41.07)"/><path class="cls-9" d="M204.88-23.46a.29.29,0,0,1,0,.16c-.5,11.53-7.31,36.32-7.38,36.57a.41.41,0,0,1-.5.29.42.42,0,0,1-.29-.51c.07-.24,6.85-25,7.36-36.39a.4.4,0,0,1,.42-.38A.4.4,0,0,1,204.88-23.46Z" transform="translate(0 41.07)"/><path class="cls-12" d="M194.05,17S194.82.11,212-.68s22,2.45,20.86,5.42S228.08,23,209.68,20.21,194.05,17,194.05,17Z" transform="translate(0 41.07)"/><path class="cls-14" d="M209.68,20.21c18.4,2.77,22-12.5,23.16-15.47A2.07,2.07,0,0,0,232.78,3C218.34.67,194.05,17,194.05,17a1.8,1.8,0,0,0-.06.22C194.49,17.51,197.26,18.34,209.68,20.21Z" transform="translate(0 41.07)"/><path class="cls-16" d="M232.82,2.87a.41.41,0,0,1,0,.22.39.39,0,0,1-.46.33c-14.12-2.3-37.87,13.72-38.1,13.88a.4.4,0,0,1-.57-.11.39.39,0,0,1,.11-.56c1-.67,24.25-16.37,38.69-14A.4.4,0,0,1,232.82,2.87Z" transform="translate(0 41.07)"/><path class="cls-22" d="M169.79,38.16s2.2-22.79,33.19-22S224,21,214.73,32.69C207.35,42,189.29,57.78,169.79,38.16Z" transform="translate(0 41.07)"/><path class="cls-20" d="M214.73,32.69c5-6.32,10.21-10.42,9.05-13-15.78,8.29-54,18.44-54,18.44C189.29,57.78,207.35,42,214.73,32.69Z" transform="translate(0 41.07)"/><path class="cls-17" d="M169.51,37.6a.34.34,0,0,1,.12,0c.38-.1,38.31-10.24,53.85-18.4a.66.66,0,0,1,.85.26.64.64,0,0,1-.26.85c-15.66,8.24-53.74,18.4-54.12,18.5a.63.63,0,0,1-.44-1.17Z" transform="translate(0 41.07)"/><path class="cls-17" d="M162.38,37s22.91-12,37.21,10.09,13.78,31,9,31.8-27.83,7.81-38.38-18.69S162.38,37,162.38,37Z" transform="translate(0 41.07)"/><path class="cls-19" d="M170.17,60.23c10.55,26.5,33.55,19.45,38.38,18.69a3.21,3.21,0,0,0,2.23-1.39c-8.05-21-48.4-40.5-48.4-40.5s-.22.07-.32.09C162,38,163,42.34,170.17,60.23Z" transform="translate(0 41.07)"/><path class="cls-20" d="M162.09,36.47a.61.61,0,0,1,.56,0c1.64.79,40.41,19.45,48.45,40.38a.61.61,0,0,1-.36.81.63.63,0,0,1-.81-.36c-7.87-20.47-47.43-39.5-47.82-39.69a.63.63,0,0,1-.3-.84A.61.61,0,0,1,162.09,36.47Z" transform="translate(0 41.07)"/><path class="cls-6" d="M445,246.92s-9.2-2.85-11.09-5.58,7-6.42,11.84-4.63,12.33,6.38,12.81,7.73S450.05,247.53,445,246.92Z" transform="translate(0 41.07)"/><path class="cls-7" d="M461.19,244.27A84.41,84.41,0,0,0,449,252.6c-4.73,4.16-12.44,6.19-15.12,4.07S435,248,446,245.79,461.19,244.27,461.19,244.27Z" transform="translate(0 41.07)"/><path class="cls-8" d="M433.4,256.18a2.3,2.3,0,0,0,.45.49c2.68,2.12,10.39.09,15.12-4.07a84.41,84.41,0,0,1,12.22-8.33c-10.63-.12-28,11.47-28,11.47Z" transform="translate(0 41.07)"/><path class="cls-9" d="M461.48,244.15a.27.27,0,0,1,0,.13.3.3,0,0,1-.32.31c-10.4-.12-27.47,11.18-27.64,11.29a.31.31,0,0,1-.44-.09.31.31,0,0,1,.09-.44c.7-.47,17.4-11.52,28-11.39A.32.32,0,0,1,461.48,244.15Z" transform="translate(0 41.07)"/><path class="cls-10" d="M572,231.3l0,.08a.63.63,0,0,1-.43.79c-1.95.56-47.93,13.81-59.15,15.07s-36.66.69-36.91.68a.64.64,0,0,1-.63-.65.64.64,0,0,1,.65-.62c.26,0,25.63.57,36.75-.68s58.46-14.89,58.93-15A.63.63,0,0,1,572,231.3Z" transform="translate(0 41.07)"/><path class="cls-10" d="M512.64,246.51a.23.23,0,0,1,0,.2.24.24,0,0,1-.32.11L508.68,245a.24.24,0,0,1,.21-.43l3.64,1.83A.25.25,0,0,1,512.64,246.51Z" transform="translate(0 41.07)"/><path class="cls-10" d="M500.84,247.19a.14.14,0,0,1,0,.11.24.24,0,0,1-.25.22c-.1,0-2.54-.23-7.73-5.85a.24.24,0,0,1,.35-.33c5,5.44,7.39,5.7,7.42,5.7A.23.23,0,0,1,500.84,247.19Z" transform="translate(0 41.07)"/><path class="cls-10" d="M496.33,247.25a.19.19,0,0,1,0,.08.32.32,0,0,1-.27.36c-4.1.51-7,6.45-7,6.51a.32.32,0,1,1-.57-.27c.12-.26,3.05-6.32,7.49-6.87A.32.32,0,0,1,496.33,247.25Z" transform="translate(0 41.07)"/><path class="cls-10" d="M491.34,247.18l0,.47c-2,.35-3.66,2.81-3.67,2.83a.23.23,0,0,1-.33.07.24.24,0,0,1-.07-.33,9,9,0,0,1,2.3-2.33,9.51,9.51,0,0,0-5.27,3.24.24.24,0,0,1-.34,0,.25.25,0,0,1,0-.34A9.94,9.94,0,0,1,491.34,247.18Z" transform="translate(0 41.07)"/><path class="cls-10" d="M489.06,247.32a.22.22,0,0,1,0,.14.24.24,0,0,1-.27.2c-7.63-1.18-8.76-3.36-8.8-3.46a.24.24,0,0,1,.11-.32.26.26,0,0,1,.32.11s1.17,2.08,8.44,3.19A.26.26,0,0,1,489.06,247.32Z" transform="translate(0 41.07)"/><path class="cls-11" d="M476.28,247.31s-10.39,5.11-18.61-1.58-15.65-14.52-3.62-13S470.8,235.64,476.28,247.31Z" transform="translate(0 41.07)"/><path class="cls-12" d="M454.05,232.75c-3.55-.45-5.4-.09-6,.82,12.91,8.86,28.27,13.74,28.27,13.74C470.8,235.64,466.08,234.29,454.05,232.75Z" transform="translate(0 41.07)"/><path class="cls-13" d="M493.54,242c0,.33-16.21-4.55-19.32-10.36s0-8.94,6.61-4.22S493.6,240.36,493.54,242Z" transform="translate(0 41.07)"/><path class="cls-14" d="M480.83,227.37c-4.2-3-7-2.83-7.66-.86L493.54,242C493.6,240.36,487.49,232.08,480.83,227.37Z" transform="translate(0 41.07)"/><path class="cls-9" d="M493.83,241.82a.29.29,0,0,1,0,.32.31.31,0,0,1-.44.06l-20.5-15.53a.32.32,0,0,1-.06-.45.34.34,0,0,1,.45-.06l20.49,15.53A.31.31,0,0,1,493.83,241.82Z" transform="translate(0 41.07)"/><path class="cls-11" d="M480.53,244.49s-11.41-3.23-13.07-13.56-1.85-13.68,1.11-11.89,12.24,8.36,12.3,16.72S480.53,244.49,480.53,244.49Z" transform="translate(0 41.07)"/><path class="cls-12" d="M480.87,235.76c-.06-8.36-9.35-14.93-12.3-16.72-.78-.47-1.34-.58-1.71-.3h0c5.7,17.39,13.67,25.75,13.67,25.75S480.94,244.11,480.87,235.76Z" transform="translate(0 41.07)"/><path class="cls-7" d="M479.42,283.12s-5.78-6.38-1.53-17.35S488.47,249,488.47,249s-8.51,18.17-7.77,26.16S481,284.87,479.42,283.12Z" transform="translate(0 41.07)"/><path class="cls-9" d="M489.2,253s-11.58,9.51-9.44,16.6,5.67.8,6.6-.91C487.14,267.25,490.31,257.3,489.2,253Z" transform="translate(0 41.07)"/><path class="cls-13" d="M482.1,272.89c1.78.28,3.63-3,4.26-4.18.78-1.46,3.95-11.41,2.84-15.69,0,0-5.94,8.14-7.24,14.85A14.43,14.43,0,0,0,482.1,272.89Z" transform="translate(0 41.07)"/><path class="cls-9" d="M500.83,266.2s6.06-3.15,8.72-8.56c3.35-6.83,2.87-11,2.87-11s-8-3.06-12.53,3.13S487.18,268,489.23,270,500.83,266.2,500.83,266.2Z" transform="translate(0 41.07)"/><path class="cls-12" d="M501.78,251.09c-4.62,6.16-10.37,13.18-12.55,18.9,2,2,11.6-3.79,11.6-3.79s6.06-3.15,8.72-8.56c3.35-6.83,2.87-11,2.87-11S506.39,244.92,501.78,251.09Z" transform="translate(0 41.07)"/><path class="cls-11" d="M509.21,245s-9.06,1.34-16.95-8.52-14.18-22.19-1.72-15.44S509.52,237.12,509.21,245Z" transform="translate(0 41.07)"/><path class="cls-6" d="M490.54,221c-2.93-1.59-4.81-2.11-5.89-1.87l-.76.42h0L509.21,245C509.52,237.12,503,227.74,490.54,221Z" transform="translate(0 41.07)"/><path class="cls-8" d="M457.36,259.7s3.5.12,10.51-3c9.11-4,17.19-4.63,16.46-5.89a127,127,0,0,0-13.29-.53C466.54,250.48,443.27,259.26,457.36,259.7Z" transform="translate(0 41.07)"/><path class="cls-12" d="M509.5,244.82a.34.34,0,0,1-.06.36.33.33,0,0,1-.45,0l-18.62-18.67a.32.32,0,1,1,.45-.45l18.62,18.67A.24.24,0,0,1,509.5,244.82Z" transform="translate(0 41.07)"/><path class="cls-14" d="M512.64,246.51a.22.22,0,0,1,0,.16.23.23,0,0,1-.29.16c-.06,0-5.93-1.56-10.39,4.4-.81,1.08-1.65,2.18-2.5,3.29-4,5.23-8.15,10.65-9.94,15.33a.22.22,0,0,1-.3.14.23.23,0,0,1-.14-.31c1.81-4.75,6-10.19,10-15.46.85-1.1,1.69-2.2,2.49-3.28,4.67-6.22,10.85-4.58,10.91-4.56A.22.22,0,0,1,512.64,246.51Z" transform="translate(0 41.07)"/><path class="cls-15" d="M489.44,253a.21.21,0,0,1,0,.23c-.06.08-5.95,8.11-7.22,14.69a11.66,11.66,0,0,0,.08,4.67.23.23,0,0,1-.18.28.25.25,0,0,1-.29-.18,12.3,12.3,0,0,1-.08-4.87C483,261.14,489,253,489,253a.23.23,0,0,1,.33,0A.19.19,0,0,1,489.44,253Z" transform="translate(0 41.07)"/><path class="cls-16" d="M480.82,244.37a.33.33,0,0,1-.05.33.33.33,0,0,1-.45,0c-.18-.15-4.58-3.93-11.82-20.51a.32.32,0,1,1,.58-.25h0c7.2,16.47,11.6,20.23,11.65,20.27A.27.27,0,0,1,480.82,244.37Z" transform="translate(0 41.07)"/><path class="cls-9" d="M476.57,247.18a.38.38,0,0,1,0,.21.33.33,0,0,1-.39.23c-.22-.05-5.72-1.46-20.37-8.9a.33.33,0,0,1-.14-.43.32.32,0,0,1,.43-.13c14.58,7.4,20.18,8.83,20.23,8.84A.37.37,0,0,1,476.57,247.18Z" transform="translate(0 41.07)"/><path class="cls-6" d="M613.75,83.3s4.55-8.48,7.59-9.81,5,8.12,2.29,12.5-8.62,10.89-10,11.1S612.18,88.2,613.75,83.3Z" transform="translate(0 41.07)"/><path class="cls-7" d="M613.25,99.75a84.61,84.61,0,0,0-5.84-13.58c-3.18-5.43-3.7-13.4-1.11-15.62s8.26,2.82,8.36,14S613.25,99.75,613.25,99.75Z" transform="translate(0 41.07)"/><path class="cls-8" d="M606.86,70.21a1.91,1.91,0,0,0-.56.34c-2.59,2.22-2.07,10.19,1.11,15.62a84.61,84.61,0,0,1,5.84,13.58c2.15-10.41-5.91-29.68-5.91-29.68Z" transform="translate(0 41.07)"/><path class="cls-9" d="M613.32,100.06h-.14a.32.32,0,0,1-.25-.38c2.11-10.19-5.72-29.09-5.8-29.28a.32.32,0,0,1,.17-.42.31.31,0,0,1,.41.17c.33.78,8,19.28,5.85,29.66A.34.34,0,0,1,613.32,100.06Z" transform="translate(0 41.07)"/><path class="cls-10" d="M604.83,211l-.08,0a.64.64,0,0,1-.69-.58c-.18-2-4.41-49.68-3.51-60.93s6.32-36.12,6.37-36.37a.64.64,0,0,1,1.25.27c-.06.25-5.45,25-6.35,36.2s3.46,60.22,3.51,60.72A.62.62,0,0,1,604.83,211Z" transform="translate(0 41.07)"/><path class="cls-10" d="M601.24,149.83a.21.21,0,0,1-.2,0,.24.24,0,0,1,0-.34l2.49-3.22a.25.25,0,0,1,.34,0,.24.24,0,0,1,0,.33l-2.49,3.23A.22.22,0,0,1,601.24,149.83Z" transform="translate(0 41.07)"/><path class="cls-10" d="M602.82,138.12h-.11a.24.24,0,0,1-.17-.29c0-.1.71-2.45,7.22-6.47a.23.23,0,0,1,.33.08.23.23,0,0,1-.08.32c-6.29,3.9-7,6.17-7,6.2A.23.23,0,0,1,602.82,138.12Z" transform="translate(0 41.07)"/><path class="cls-10" d="M603.63,133.68h-.09a.33.33,0,0,1-.3-.34c.28-4.12-5-8.07-5.06-8.11a.33.33,0,0,1-.07-.45.32.32,0,0,1,.45-.06c.23.17,5.61,4.2,5.31,8.66A.32.32,0,0,1,603.63,133.68Z" transform="translate(0 41.07)"/><path class="cls-10" d="M604.65,128.79l-.48,0c.05-2.07-2.06-4.12-2.08-4.14a.24.24,0,0,1,0-.34.24.24,0,0,1,.33,0,8.77,8.77,0,0,1,1.86,2.7,9.61,9.61,0,0,0-2.18-5.79.24.24,0,0,1,0-.34.24.24,0,0,1,.33,0A10,10,0,0,1,604.65,128.79Z" transform="translate(0 41.07)"/><path class="cls-10" d="M604.93,126.53a.2.2,0,0,1-.13,0,.23.23,0,0,1-.14-.3c2.6-7.27,5-8,5.07-8a.24.24,0,0,1,.29.17.24.24,0,0,1-.17.29s-2.26.76-4.74,7.68A.25.25,0,0,1,604.93,126.53Z" transform="translate(0 41.07)"/><path class="cls-11" d="M607.39,114s-3-11.17,5.1-18,17.23-12.6,13.43-1.08S619.89,110.83,607.39,114Z" transform="translate(0 41.07)"/><path class="cls-12" d="M625.92,94.94c1.12-3.4,1.12-5.28.34-6.08-11.15,11-18.87,25.13-18.87,25.13C619.89,110.83,622.12,106.46,625.92,94.94Z" transform="translate(0 41.07)"/><path class="cls-13" d="M609.36,132c-.32-.07,7.56-15,13.85-17s8.79,1.67,2.89,7.3S610.9,132.32,609.36,132Z" transform="translate(0 41.07)"/><path class="cls-14" d="M626.1,122.26c3.72-3.55,4.1-6.3,2.29-7.35l-19,17C610.9,132.32,620.2,127.89,626.1,122.26Z" transform="translate(0 41.07)"/><path class="cls-9" d="M609.43,132.26a.33.33,0,0,1-.31-.09.31.31,0,0,1,0-.45l19.15-17.16a.31.31,0,0,1,.45,0,.32.32,0,0,1,0,.45l-19.16,17.15A.27.27,0,0,1,609.43,132.26Z" transform="translate(0 41.07)"/><path class="cls-11" d="M609.34,118.69s5.35-10.58,15.81-10.24,13.78.8,11.46,3.36-10.54,10.42-18.76,8.89S609.34,118.69,609.34,118.69Z" transform="translate(0 41.07)"/><path class="cls-12" d="M617.85,120.7c8.22,1.53,16.44-6.34,18.76-8.89.61-.68.82-1.2.62-1.62h0c-18.16,2.28-27.89,8.5-27.89,8.5S609.64,119.17,617.85,120.7Z" transform="translate(0 41.07)"/><path class="cls-7" d="M571.64,110.24S579,105.78,589,112s14.49,13.6,14.49,13.6S587.24,113.81,579.26,113,569.6,111.5,571.64,110.24Z" transform="translate(0 41.07)"/><path class="cls-9" d="M599.32,125.59s-7.13-13.19-14.49-12.44-1.88,5.41-.37,6.65C585.74,120.84,594.9,125.85,599.32,125.59Z" transform="translate(0 41.07)"/><path class="cls-13" d="M581.16,114.82c-.61,1.7,2.27,4.13,3.3,5,1.28,1,10.44,6,14.86,5.79,0,0-6.86-7.4-13.2-10A14.41,14.41,0,0,0,581.16,114.82Z" transform="translate(0 41.07)"/><path class="cls-9" d="M584.16,134.49s1.93,6.54,6.74,10.18c6.06,4.59,10.28,4.93,10.28,4.93s4.55-7.31-.67-12.9-15.51-16-17.86-14.33S584.16,134.49,584.16,134.49Z" transform="translate(0 41.07)"/><path class="cls-12" d="M598.82,138.29c-5.18-5.71-11-12.69-16.17-15.92-2.34,1.62,1.51,12.12,1.51,12.12s1.93,6.54,6.74,10.18c6.06,4.59,10.28,4.93,10.28,4.93S604,144,598.82,138.29Z" transform="translate(0 41.07)"/><path class="cls-11" d="M603.42,146.76s.41-9.15,11.59-15,24.5-9.69,15.5,1.25S611.05,148.56,603.42,146.76Z" transform="translate(0 41.07)"/><path class="cls-6" d="M630.51,133c2.12-2.57,3-4.32,3-5.42l-.26-.83h0l-29.77,20C611.05,148.56,621.5,144,630.51,133Z" transform="translate(0 41.07)"/><path class="cls-8" d="M598.83,93.05s-.78,3.41.91,10.88c2.19,9.72,1.26,17.76,2.64,17.29a126.46,126.46,0,0,0,3-13C606.13,103.82,602,79.3,598.83,93.05Z" transform="translate(0 41.07)"/><path class="cls-12" d="M603.49,147.07a.32.32,0,0,1-.25-.57l21.88-14.72a.32.32,0,1,1,.36.53L603.59,147A.18.18,0,0,1,603.49,147.07Z" transform="translate(0 41.07)"/><path class="cls-14" d="M601.24,149.83a.22.22,0,0,1-.16,0,.23.23,0,0,1-.11-.31c0-.06,2.66-5.53-2.33-11.05-.91-1-1.82-2-2.75-3.07-4.38-4.93-8.9-10-13.16-12.68a.24.24,0,0,1-.08-.33.23.23,0,0,1,.33-.08c4.32,2.69,8.87,7.82,13.27,12.77.92,1,1.84,2.08,2.74,3.07,5.22,5.77,2.44,11.52,2.41,11.58A.24.24,0,0,1,601.24,149.83Z" transform="translate(0 41.07)"/><path class="cls-15" d="M599.3,125.82a.22.22,0,0,1-.23-.07c-.07-.07-6.82-7.38-13-9.89a12,12,0,0,0-4.6-.81.23.23,0,0,1-.24-.23.23.23,0,0,1,.23-.24,12.5,12.5,0,0,1,4.8.84c6.31,2.54,13.13,9.93,13.2,10a.23.23,0,0,1,0,.33A.27.27,0,0,1,599.3,125.82Z" transform="translate(0 41.07)"/><path class="cls-16" d="M609.41,119a.31.31,0,0,1-.27-.55c.18-.15,4.73-3.75,22.38-7.7a.32.32,0,0,1,.14.62h0c-17.54,3.93-22.07,7.53-22.12,7.57A.31.31,0,0,1,609.41,119Z" transform="translate(0 41.07)"/><path class="cls-9" d="M607.46,114.29a.31.31,0,0,1-.36-.44c.1-.21,2.52-5.34,12.62-18.3a.31.31,0,0,1,.44,0,.32.32,0,0,1,.06.45c-10.05,12.89-12.52,18.12-12.54,18.17A.34.34,0,0,1,607.46,114.29Z" transform="translate(0 41.07)"/><path class="cls-17" d="M568.13,237a16.74,16.74,0,0,0,11-9.52c3.32-7.86,2.16-17.2,2.16-17.2a13.53,13.53,0,0,0-7,3.73C570.83,217.27,562.46,239.74,568.13,237Z" transform="translate(0 41.07)"/><path class="cls-18" d="M538.14,180.72a.29.29,0,0,1,.34,0c28.68,24.81,55.47,35,55.74,35.1a.31.31,0,1,1-.22.58c-.27-.11-27.17-10.33-55.93-35.21a.32.32,0,0,1,0-.44Z" transform="translate(0 41.07)"/><path class="cls-19" d="M554.08,231.78s12.74-10,13.53-14.69S570.12,204,570.12,204s-9.56,1.67-12.54,5.46S544.85,240.12,554.08,231.78Z" transform="translate(0 41.07)"/><path class="cls-17" d="M538.21,223.5s-8.15,3.4-4.31-3,4.83-10.05,8.4-13.83a22.89,22.89,0,0,1,14.55-7.8c7.38-1.2,3.23-.58,3.23-.58s-3.73,6.81-5.33,9.81S550.11,217.12,538.21,223.5Z" transform="translate(0 41.07)"/><path class="cls-20" d="M549,189.73s-9.48,23.57-30.15,15c0,0-4.77-2.56,1.4-4.64s7.24-6.32,10.78-7.49S542.14,190.28,549,189.73Z" transform="translate(0 41.07)"/><path class="cls-21" d="M498.25,177.93S513,185,518.07,185.41c0,0,11.67.16,20.2-4.42,0,0-9.42-4.05-13-5.29S487.28,171.53,498.25,177.93Z" transform="translate(0 41.07)"/><path class="cls-21" d="M538.27,181s5.41-6.91,5.46-15.33-3.44-21.87-7.18-20.6.14,23.46.32,27.2A56.7,56.7,0,0,0,538.27,181Z" transform="translate(0 41.07)"/><path class="cls-22" d="M547.55,188.59s9.51-10.22,10.63-16.3-2.11-23.66-6.23-26.93-4.12-.7-4.15,2.22.77,21.48-.3,26.43S547.16,185.18,547.55,188.59Z" transform="translate(0 41.07)"/><path class="cls-20" d="M558.19,196.36a44,44,0,0,0,13.35-18.73c4.78-12.51,2.4-25.1.24-25s-4.28,5.95-5.54,8.36-8.55,17.45-8.72,21.46S558.91,194,558.19,196.36Z" transform="translate(0 41.07)"/><path class="cls-19" d="M569.28,202.92s9.08-8.3,10.84-11.82,6.21-26.88,5-29.51-2-3.57-3.21-1.56-3.92,10-5,12.09-5.29,11.4-6.72,13a8.46,8.46,0,0,0-2,8C569.23,196.47,569.28,202.92,569.28,202.92Z" transform="translate(0 41.07)"/><path class="cls-17" d="M579.77,209.48s4.8-6.51,8.19-8.57,19.44-15.45,17.8-23.73-6.69,0-7.29.7-9,9.55-11.36,11-8.58,7.1-7,13.65a16.36,16.36,0,0,1-.37,6.94" transform="translate(0 41.07)"/><path class="cls-19" d="M581.3,210a.28.28,0,0,1,.36.06.29.29,0,0,1,0,.43c-4.3,4.22-14.42,26.37-14.51,26.6a.32.32,0,0,1-.41.15.31.31,0,0,1-.16-.41c.42-.91,10.26-22.48,14.65-26.78Z" transform="translate(0 41.07)"/><path class="cls-17" d="M570,203.74a.31.31,0,0,1,.35.5c-.09.08-9.23,8.7-10.81,14.46-1.66,6.09-7.66,13.82-8.65,14.69a.31.31,0,0,1-.44,0,.3.3,0,0,1,0-.43c.94-.83,6.86-8.53,8.46-14.39s10.61-14.39,11-14.75A.18.18,0,0,1,570,203.74Z" transform="translate(0 41.07)"/><path class="cls-19" d="M559.94,198a.31.31,0,0,1,.31.53c-.08.06-8.25,5.52-13,9.08s-13.88,16.35-14,16.48a.31.31,0,1,1-.5-.36c.38-.53,9.35-13,14.1-16.61s12.9-9.05,13-9.1Z" transform="translate(0 41.07)"/><path class="cls-19" d="M517.22,203.06a.4.4,0,0,1,.15,0c.09,0,9,.11,14.29-2.65l.16-.08c5.37-2.88,16.93-10.74,17-10.83a.31.31,0,0,1,.35.52c-.12.08-11.7,8-17.09,10.85l-.18.09c-5.46,2.83-14.21,2.72-14.58,2.71a.3.3,0,0,1-.3-.31A.31.31,0,0,1,517.22,203.06Z" transform="translate(0 41.07)"/><path class="cls-23" d="M536.41,144.79l.07,0a.31.31,0,0,1,.37.24c2.53,10.82,1.74,35.75,1.74,36v.27l-.27,0c-16.41,1.61-42-4.8-42.21-4.86a.31.31,0,0,1-.23-.37.31.31,0,0,1,.38-.23c.25.06,25.42,6.38,41.73,4.87.08-2.74.64-25.43-1.73-35.58A.32.32,0,0,1,536.41,144.79Z" transform="translate(0 41.07)"/><path class="cls-21" d="M548.69,143.58a.32.32,0,0,1,.09,0,.31.31,0,0,1,.36.24c.19,1,4.6,23.17,1.52,32.72-3,9.2-2.28,11.35-2.28,11.37a.3.3,0,0,1-.17.39.31.31,0,0,1-.4-.16c0-.09-.84-2.21,2.26-11.79,3-9.4-1.49-32.18-1.54-32.4A.32.32,0,0,1,548.69,143.58Z" transform="translate(0 41.07)"/><path class="cls-19" d="M571.64,152.32a.29.29,0,0,1,.24,0,.31.31,0,0,1,.2.39c-.13.39-13.18,39.58-13.58,43.7a.31.31,0,1,1-.62-.06c.42-4.19,13.07-42.22,13.61-43.84A.36.36,0,0,1,571.64,152.32Z" transform="translate(0 41.07)"/><path class="cls-17" d="M583.26,158.75a.33.33,0,0,1,.24,0,.29.29,0,0,1,.19.39c-.08.23-8.23,23-10.69,30.81a117.37,117.37,0,0,0-3.41,13,.31.31,0,0,1-.36.25.32.32,0,0,1-.25-.36,118.85,118.85,0,0,1,3.43-13.11c2.46-7.81,10.62-30.6,10.7-30.83A.35.35,0,0,1,583.26,158.75Z" transform="translate(0 41.07)"/><path class="cls-19" d="M604.72,174a.29.29,0,0,1,.31,0,.32.32,0,0,1,.09.43c-.46.66-11.16,16.32-18.56,20.15l0,0a8.93,8.93,0,0,0-3.75,6.43l-2.19,7.26a.32.32,0,0,1-.39.21.31.31,0,0,1-.2-.39l2.18-7.21a9.38,9.38,0,0,1,4-6.85h0c7.28-3.76,18.23-19.8,18.34-20A.29.29,0,0,1,604.72,174Z" transform="translate(0 41.07)"/><path class="cls-24" d="M544.23,215.27a.3.3,0,0,1,.25-.16c.2,0,19.89-.46,31.08,2s31.56,5.74,31.77,5.78a.29.29,0,0,1-.1.58c-.2,0-20.65-3.33-31.8-5.78s-30.73-2-30.93-2a.29.29,0,0,1-.3-.29A.24.24,0,0,1,544.23,215.27Z" transform="translate(0 41.07)"/><path class="cls-24" d="M568,208.68l.06-.07a.29.29,0,0,1,.42,0c4.48,4.43,19.38,10.89,19.53,11a.3.3,0,0,1,.16.39.29.29,0,0,1-.39.15c-.62-.26-15.16-6.57-19.72-11.08A.31.31,0,0,1,568,208.68Z" transform="translate(0 41.07)"/><path class="cls-24" d="M554.62,209.66a.3.3,0,0,1,.38-.14c7.32,3.08,23.71,8.23,23.87,8.28a.3.3,0,1,1-.18.57c-.16-.05-16.58-5.21-23.92-8.3a.31.31,0,0,1-.16-.39A0,0,0,0,1,554.62,209.66Z" transform="translate(0 41.07)"/><path class="cls-24" d="M542.16,224.79a.32.32,0,0,1,.08-.09c.1-.08,9.82-7.56,25.74-8.75a.29.29,0,0,1,.32.27.31.31,0,0,1-.27.32c-15.74,1.18-25.33,8.55-25.43,8.63a.3.3,0,0,1-.44-.38Z" transform="translate(0 41.07)"/><path class="cls-24" d="M536.9,232.12A.34.34,0,0,1,537,232c4.82-2.64,14.21-5.93,21.35-8.27a50,50,0,0,1,9.39-2.94l.14.58c-.1,0-4.12,1.22-9.35,2.93a143.66,143.66,0,0,0-17.9,9.1.31.31,0,0,1-.41-.1.3.3,0,0,1,.1-.41c.09-.06,5.54-3.38,12.22-6.57a113.73,113.73,0,0,0-15.25,6.2.31.31,0,0,1-.41-.12A.28.28,0,0,1,536.9,232.12Z" transform="translate(0 41.07)"/><path class="cls-24" d="M514.06,230.46a.3.3,0,0,1,.25-.16c12.22-.39,19.11-2.33,21.92-3.44-4.83,1.15-15.45-1.82-15.91-2a.29.29,0,0,1-.21-.36.31.31,0,0,1,.37-.21c.11,0,11.73,3.28,16.09,1.8,1.37-.46,1.54-.28,1.64-.17a.35.35,0,0,1,.07.38v0c-.5.95-8.43,4-23.94,4.53a.31.31,0,0,1-.31-.29A.28.28,0,0,1,514.06,230.46Z" transform="translate(0 41.07)"/><path class="cls-20" d="M511.27,221.25s22.91,6.56,33.76-5.82C545,215.43,532.07,200.23,511.27,221.25Z" transform="translate(0 41.07)"/><path class="cls-17" d="M512.67,219.88a74,74,0,0,1,32.1-4.73C542.9,213.23,531,202.5,512.67,219.88Z" transform="translate(0 41.07)"/><path class="cls-22" d="M520.4,224.63s-2.56,2.72-9-1.3c0,0-3.27,1.56-8-3.89s-9.62-13.95-11.2-26.25C492.26,193.19,506,216.71,520.4,224.63Z" transform="translate(0 41.07)"/><path class="cls-25" d="M536.2,222.77s-7.27-2.09-7.51-5.49,5.29-3.94,5.29-3.94Z" transform="translate(0 41.07)"/><path class="cls-24" d="M543.48,224.27s-12.75,17.58-9.21-10C534.27,214.3,537.8,225,543.48,224.27Z" transform="translate(0 41.07)"/><path class="cls-20" d="M539.38,200.24s-11.56-3.37-9.08-25.6Z" transform="translate(0 41.07)"/><path class="cls-22" d="M555.85,209.56S535.62,221,530.3,174.64C530.3,174.64,542.79,201.51,555.85,209.56Z" transform="translate(0 41.07)"/><path class="cls-25" d="M569.23,209.16S561.89,213.58,555,203s-2.23-19.68-2.23-19.68,3.89,12.21,7.46,16.49A130.29,130.29,0,0,0,569.23,209.16Z" transform="translate(0 41.07)"/><path class="cls-26" d="M565.72,221.52s-11.56,6.7-1.19,11.07Z" transform="translate(0 41.07)"/><path class="cls-27" d="M564.53,232.59s-5.87-18.32,1.86-18.38,9.1,3.18,9.1,3.18S565.7,222.09,564.53,232.59Z" transform="translate(0 41.07)"/><path class="cls-27" d="M527.23,233.94s-24.9,2.21-22.43,39.79C504.8,273.73,517.31,240.51,527.23,233.94Z" transform="translate(0 41.07)"/><path class="cls-24" d="M538.23,231.55s-25,.14-27.91,26.39C510.32,257.94,533,235.77,538.23,231.55Z" transform="translate(0 41.07)"/><path class="cls-25" d="M524.09,253.21s-2.25-20.8,17.62-20.77C541.71,232.44,527.15,250.38,524.09,253.21Z" transform="translate(0 41.07)"/><path class="cls-27" d="M506.14,233.86s-20.29,9.4-28.25,3.56C477.89,237.42,484.65,223.68,506.14,233.86Z" transform="translate(0 41.07)"/><path class="cls-24" d="M514.32,230.6S508.48,240,497.07,238s-24.09-10-7.86-10.67S512.06,228.16,514.32,230.6Z" transform="translate(0 41.07)"/><path class="cls-17" d="M520.4,224.63c-14.38-7.92-28.14-31.44-28.14-31.44s13.63,24.17,19.15,30.14C517.84,227.35,520.4,224.63,520.4,224.63Z" transform="translate(0 41.07)"/><path class="cls-6" d="M557.68,125.62s-12.77.37-10.7-13.51a14.3,14.3,0,0,1,7.37-9.06S558.57,118.59,557.68,125.62Z" transform="translate(0 41.07)"/><path class="cls-11" d="M557.68,125.62c.89-7-3.33-22.57-3.33-22.57C539,119.85,557.68,125.62,557.68,125.62Z" transform="translate(0 41.07)"/><path class="cls-12" d="M554,103a.44.44,0,0,1,.38.09.42.42,0,0,1,0,.58c-4.8,5.26-6.67,9.9-5.58,13.79,1.58,5.6,8.92,7.79,9,7.81a.41.41,0,1,1-.23.78c-.32-.09-7.84-2.33-9.54-8.37-1.18-4.18.76-9.08,5.76-14.56A.47.47,0,0,1,554,103Z" transform="translate(0 41.07)"/><path class="cls-8" d="M553.23,120.77c.13.16-19.65-.52-27.66-13.84C525.57,106.93,537,101.87,553.23,120.77Z" transform="translate(0 41.07)"/><path class="cls-10" d="M578.7,146.74c.6-.16.93.47,1.12.82l-.05,0c.33.71,1.42,3,4.92,10,6.46,12.93,21.43,16.37,21.58,16.4l-.35,1.6c-.65-.14-15.89-3.65-22.69-17.27-2.21-4.42-3.49-7-4.21-8.51-1.19-2.43-1.26-2.58-.53-3A.8.8,0,0,1,578.7,146.74Z" transform="translate(0 41.07)"/><path class="cls-10" d="M536.52,100.7c.11.11,11,11.11,17.2,19.71,5.89,8.16,9.87,8.14,9.91,8.14l.08,1.22c-.19,0-4.61.19-11-8.65-6.15-8.52-17-19.45-17.08-19.56Z" transform="translate(0 41.07)"/><path class="cls-13" d="M575.7,144.37s-10.12,11-25.94-1.62-9-10.8.41-13.23C557.68,127.58,573.28,126.48,575.7,144.37Z" transform="translate(0 41.07)"/><path class="cls-14" d="M550.17,129.52c-5.09,1.32-9.41,1.39-9.81,3.18,11.47,1.9,35.34,11.67,35.34,11.67C573.28,126.48,557.68,127.58,550.17,129.52Z" transform="translate(0 41.07)"/><path class="cls-9" d="M540.26,132.31a.29.29,0,0,1,.16,0c11.39,1.88,35.19,11.59,35.44,11.69a.41.41,0,0,1,.22.53.4.4,0,0,1-.53.22c-.24-.1-24-9.77-35.26-11.63a.41.41,0,0,1-.33-.47A.4.4,0,0,1,540.26,132.31Z" transform="translate(0 41.07)"/><path class="cls-12" d="M579.11,147.88S562.46,145.1,563.73,128s5-21.57,7.86-20.06,17.55,6.89,12.6,24.83S579.11,147.88,579.11,147.88Z" transform="translate(0 41.07)"/><path class="cls-14" d="M584.19,132.74c4.95-17.94-9.79-23.33-12.6-24.83a2.09,2.09,0,0,0-1.71-.16c-4.06,14.07,9.23,40.13,9.23,40.13l.2.07C579.71,147.5,580.85,144.85,584.19,132.74Z" transform="translate(0 41.07)"/><path class="cls-16" d="M569.73,107.7a.41.41,0,0,1,.5.51c-4,13.74,9.11,39.22,9.24,39.48a.4.4,0,1,1-.72.37c-.55-1.05-13.36-26-9.31-40.08A.41.41,0,0,1,569.73,107.7Z" transform="translate(0 41.07)"/><path class="cls-6" d="M571.81,260.92s1.88,12.63-12.15,12.23a14.29,14.29,0,0,1-9.86-6.24S564.72,260.86,571.81,260.92Z" transform="translate(0 41.07)"/><path class="cls-11" d="M571.81,260.92c-7.09-.06-22,6-22,6C568.3,280.12,571.81,260.92,571.81,260.92Z" transform="translate(0 41.07)"/><path class="cls-12" d="M549.75,267.28a.38.38,0,0,1,0-.38.4.4,0,0,1,.57-.1c5.79,4.14,10.62,5.45,14.35,3.9,5.38-2.23,6.67-9.77,6.68-9.85a.42.42,0,0,1,.47-.34.41.41,0,0,1,.34.47c-.05.33-1.38,8.07-7.17,10.48-4,1.66-9.11.32-15.15-4A.38.38,0,0,1,549.75,267.28Z" transform="translate(0 41.07)"/><path class="cls-8" d="M567.52,265.91c.14-.15,1.82,19.57-10.44,29.11C557.08,295,550.68,284.23,567.52,265.91Z" transform="translate(0 41.07)"/><path class="cls-10" d="M590.27,237.52c-.22-.57.36-1,.68-1.2l0,0c.67-.41,2.77-1.76,9.32-6.07,12.08-7.95,13.71-23.22,13.73-23.37l1.62.15c-.06.66-1.73,16.21-14.45,24.59-4.12,2.71-6.55,4.29-7.94,5.19-2.28,1.47-2.42,1.56-2.88.87A.66.66,0,0,1,590.27,237.52Z" transform="translate(0 41.07)"/><path class="cls-10" d="M549.58,284.88c.1-.12,9.73-12.23,17.52-19.42,7.4-6.81,6.92-10.77,6.91-10.81l1.2-.22c0,.19.73,4.56-7.28,11.93-7.72,7.12-17.29,19.16-17.39,19.28Z" transform="translate(0 41.07)"/><path class="cls-13" d="M588.27,240.79s12.12,8.74,1.49,26-9.65,10.22-13.19,1.16C573.75,260.68,570.81,245.32,588.27,240.79Z" transform="translate(0 41.07)"/><path class="cls-14" d="M576.57,267.9c1.92,4.9,2.51,9.18,4.33,9.37.52-11.61,7.37-36.48,7.37-36.48C570.81,245.32,573.75,260.68,576.57,267.9Z" transform="translate(0 41.07)"/><path class="cls-9" d="M580.52,277.41a.41.41,0,0,1,0-.16c.52-11.53,7.32-36.32,7.39-36.57a.41.41,0,1,1,.79.22c-.07.24-6.85,25-7.36,36.39a.41.41,0,0,1-.79.12Z" transform="translate(0 41.07)"/><path class="cls-12" d="M591.35,237s-.77,16.85-17.93,17.64-22-2.45-20.86-5.42,4.76-18.24,23.16-15.47S591.35,237,591.35,237Z" transform="translate(0 41.07)"/><path class="cls-14" d="M575.72,233.74c-18.4-2.77-22,12.5-23.16,15.47a2.11,2.11,0,0,0,.06,1.72c14.44,2.35,38.73-13.94,38.73-13.94a.87.87,0,0,0,0-.22C590.91,236.44,588.14,235.61,575.72,233.74Z" transform="translate(0 41.07)"/><path class="cls-16" d="M552.58,251.08a.41.41,0,0,1,0-.22.39.39,0,0,1,.46-.33c14.12,2.3,37.87-13.72,38.11-13.88a.4.4,0,0,1,.45.67c-1,.68-24.25,16.37-38.69,14A.4.4,0,0,1,552.58,251.08Z" transform="translate(0 41.07)"/><path class="cls-22" d="M620.79,211.59s-2.27,23.51-34.23,22.71-21.66-5-12.11-17.06C582.06,207.63,600.68,191.36,620.79,211.59Z" transform="translate(0 41.07)"/><path class="cls-20" d="M574.45,217.24c-5.16,6.51-10.53,10.74-9.33,13.37,16.26-8.55,55.67-19,55.67-19C600.68,191.36,582.06,207.63,574.45,217.24Z" transform="translate(0 41.07)"/><path class="cls-17" d="M621.08,212.17a.28.28,0,0,1-.12,0c-.4.11-39.51,10.56-55.54,19a.67.67,0,0,1-.87-.28.64.64,0,0,1,.27-.87c16.14-8.5,55.41-19,55.8-19.08a.66.66,0,0,1,.8.46A.65.65,0,0,1,621.08,212.17Z" transform="translate(0 41.07)"/><path class="cls-17" d="M628.43,212.76s-23.63,12.38-38.37-10.41-14.21-32-9.24-32.79,28.69-8.05,39.58,19.28S628.43,212.76,628.43,212.76Z" transform="translate(0 41.07)"/><path class="cls-19" d="M620.4,188.84c-10.89-27.33-34.6-20.06-39.58-19.28a3.34,3.34,0,0,0-2.3,1.44c8.3,21.6,49.91,41.76,49.91,41.76l.33-.1C628.83,211.72,627.75,207.28,620.4,188.84Z" transform="translate(0 41.07)"/><path class="cls-20" d="M628.72,213.34a.63.63,0,0,1-.57,0c-1.69-.81-41.66-20.06-50-41.64a.64.64,0,0,1,.37-.84.65.65,0,0,1,.84.38c8.11,21.1,48.9,40.73,49.31,40.93a.65.65,0,0,1,.31.86A.67.67,0,0,1,628.72,213.34Z" transform="translate(0 41.07)"/></g><line class="cls-28" x1="186.12" y1="260.4" x2="186.12" y2="257.4"/><line class="cls-29" x1="186.12" y1="251.44" x2="186.12" y2="63.89"/><line class="cls-28" x1="186.12" y1="60.91" x2="186.12" y2="57.91"/><path class="cls-30" d="M207.08,224.37a1.58,1.58,0,0,1-1.13-.48l-9.4-9.9a1.53,1.53,0,0,1-.43-1.07V19.66a1.53,1.53,0,0,1,.43-1.07l9.4-9.9a1.54,1.54,0,0,1,1.13-.48H603.53a1.55,1.55,0,0,1,1.56,1.55V222.81a1.56,1.56,0,0,1-1.56,1.56Z" transform="translate(0 41.07)"/><text class="cls-31" transform="translate(41.66 223.56)">one <tspan class="cls-32" x="17.66" y="0">o</tspan><tspan class="cls-33" x="22.68" y="0">’</tspan><tspan x="23.94" y="0">clock in the a</tspan><tspan class="cls-34" x="76.85" y="0">f</tspan><tspan class="cls-35" x="79.8" y="0">t</tspan><tspan x="82.95" y="0">e</tspan><tspan class="cls-36" x="87.82" y="0">r</tspan><tspan x="91.04" y="0">noon</tspan></text><text class="cls-31" transform="translate(99.31 236.5)">whi<tspan class="cls-37" x="14.82" y="0">t</tspan><tspan x="17.98" y="0">e chu</tspan><tspan class="cls-38" x="40.01" y="0">r</tspan><tspan class="cls-39" x="43.1" y="0">ch,</tspan></text><text class="cls-31" transform="translate(48.54 249.45)"><tspan class="cls-38">y</tspan><tspan x="4.48" y="0">our ci</tspan><tspan class="cls-40" x="27.04" y="0">t</tspan><tspan x="30.34" y="0">y goes he</tspan><tspan class="cls-38" x="68.79" y="0">r</tspan><tspan class="cls-41" x="71.87" y="0">e</tspan><tspan x="76.63" y="0">, 29000</tspan></text><text class="cls-42" transform="translate(111.53 81.52)">ENT<tspan class="cls-43" x="25.86" y="0">R</tspan><tspan x="34.14" y="0">Y</tspan></text><text class="cls-44" transform="translate(98.3 147.07)">01</text><line class="cls-45" x1="154.17" y1="182.86" x2="76.06" y2="182.86"/><text class="cls-46" transform="translate(325.88 124.77)">S<tspan class="cls-47" x="18.82" y="0">A</tspan><tspan x="40.17" y="0">VE</tspan><tspan class="cls-48" x="80.26" y="0"> </tspan><tspan x="86.79" y="0">THE</tspan></text><text class="cls-49" transform="translate(376.16 218.4)">07.11.19</text><text class="cls-50" transform="translate(326.17 248.68)">sh<tspan class="cls-51" x="9.24" y="0">o</tspan><tspan x="14.51" y="0">w this ticket </tspan><tspan class="cls-52" x="65.07" y="0">a</tspan><tspan x="69.72" y="0">t the main e</tspan><tspan class="cls-53" x="117.92" y="0">n</tspan><tspan class="cls-54" x="123.28" y="0">t</tspan><tspan class="cls-55" x="126.5" y="0">r</tspan><tspan class="cls-54" x="129.63" y="0">an</tspan><tspan class="cls-35" x="139.71" y="0">c</tspan><tspan class="cls-54" x="144" y="0">e</tspan></text><text class="cls-56" transform="translate(320.8 195.1)"><tspan class="cls-57">D</tspan><tspan class="cls-58" x="47.82" y="0">A</tspan><tspan x="87.07" y="0">TE</tspan></text></g></g></svg>