<svg id="Group_430" data-name="Group 430" xmlns="http://www.w3.org/2000/svg" width="231.435" height="231.435" viewBox="0 0 231.435 231.435">
  <ellipse id="Ellipse_8" data-name="Ellipse 8" cx="115.718" cy="114.449" rx="115.718" ry="114.449" transform="translate(0 0)" fill="#f2dadc"/>
  <path id="Path_38579" data-name="Path 38579" d="M1448.335,1124.274c7.926,9.65,13.428,21.225,17.1,33.17,5.059,16.466,6.913,33.879,6.844,51.063-.061,15.119-1.33,30.467-6.027,44.911a100.228,100.228,0,0,1-19.08,34.062,121.991,121.991,0,0,1-29.68,24.763,187.145,187.145,0,0,1-37.331,16.957c-6.21,2.1-12.5,3.939-18.849,5.572a113.991,113.991,0,0,0,33.049,4.866c63.08,0,114.218-51.247,114.218-114.464A114.476,114.476,0,0,0,1448.335,1124.274Z" transform="translate(-1277.143 -1110.74)" fill="#e6cfd1"/>
  <path id="Path_38580" data-name="Path 38580" d="M1494.036,1510.184a186.052,186.052,0,0,1-21.705,32.355,112.183,112.183,0,0,1-29.508,24.718c-13.747,7.817-29.123,12.054-44.735,14.1a257.042,257.042,0,0,1-28.691,1.9q-4.025,1.161-8.084,2.2a114.307,114.307,0,0,0,147.16-104.431C1503.9,1490.86,1499.228,1500.657,1494.036,1510.184Z" transform="translate(-1277.143 -1361.412)" fill="#d9c3c5"/>
  <g id="Group_404" data-name="Group 404" transform="translate(60.129 148.221)">
    <path id="Path_38581" data-name="Path 38581" d="M1393.576,1601.73a54.816,54.816,0,0,0-15.408-14.32,59.2,59.2,0,0,0-17.132-8.035c-11.826-3.105-25.124-1.756-36.573,2.236a50.025,50.025,0,0,0-15.512,8.492c-7.6,6.3-13.084,14.77-17.01,23.746-3.421,7.818-7.828,18.436-7.018,27.109a17.962,17.962,0,0,0,.6,3.3,113.435,113.435,0,0,0,30.458,11.446c-.045-1.221-.1-2.442-.172-3.662-.167-3.022-.371-6.043-.494-9.067s-.171-6.033,0-9.045a42.558,42.558,0,0,1,1.248-8.541,23.792,23.792,0,0,1,3.288-7.421,19.476,19.476,0,0,1,6.134-5.7,33.963,33.963,0,0,1,8.636-3.375,35.759,35.759,0,0,1,7.911-1.228,26.812,26.812,0,0,1,6.949.635,24.2,24.2,0,0,1,6.048,2.28,26.668,26.668,0,0,1,5.206,3.705,33.874,33.874,0,0,1,4.389,4.866,45.885,45.885,0,0,1,3.706,5.892,62.807,62.807,0,0,1,3.019,6.6c.927,2.364,1.732,4.774,2.442,7.212.722,2.481,1.346,4.99,1.889,7.516q.634,2.945,1.127,5.918a113.788,113.788,0,0,0,26.442-13.032c-.358-5.8-2.345-12.4-3.268-17.7C1399.278,1614.655,1397.626,1607.58,1393.576,1601.73Zm-100.647,39.74,0-.014.015.049Z" transform="translate(-1284.825 -1577.665)" fill="#c7926e"/>
    <path id="Path_38582" data-name="Path 38582" d="M1312.188,1793.157l.011.036-.015-.05Z" transform="translate(-1304.084 -1729.352)" fill="#c7926e"/>
    <path id="Path_38583" data-name="Path 38583" d="M1446.533,1710.129c-.71-2.438-1.515-4.848-2.442-7.212a62.807,62.807,0,0,0-3.019-6.6,45.914,45.914,0,0,0-3.706-5.893,33.881,33.881,0,0,0-4.389-4.866,26.659,26.659,0,0,0-5.206-3.705,24.2,24.2,0,0,0-6.048-2.28,26.807,26.807,0,0,0-6.949-.636,35.753,35.753,0,0,0-7.911,1.228,33.954,33.954,0,0,0-8.636,3.375,19.473,19.473,0,0,0-6.134,5.7,23.794,23.794,0,0,0-3.288,7.421,42.569,42.569,0,0,0-1.248,8.541c-.166,3.012-.118,6.033,0,9.045s.327,6.045.494,9.067c.067,1.22.127,2.44.172,3.662a114.971,114.971,0,0,0,61.322-3.413q-.5-2.971-1.127-5.918C1447.879,1715.12,1447.255,1712.61,1446.533,1710.129Z" transform="translate(-1357.068 -1648.942)" fill="#e3decf"/>
  </g>
  <path id="Path_38584" data-name="Path 38584" d="M1312.2,1793.192l-.015-.05,0,.014Z" transform="translate(-1244.684 -1581.13)" fill="#c7926e"/>
  <g id="Group_405" data-name="Group 405" transform="translate(68.279 148.221)">
    <path id="Path_38585" data-name="Path 38585" d="M1353.323,1631.749a32.512,32.512,0,0,0,13.446,3.775c8.113.448,15.4-2.469,22.158-6.691,1.952-1.22,3.9-2.455,5.954-3.5a32.276,32.276,0,0,1,6.943-2.572c5-1.228,10.163-1.339,15.273-1.646a47.605,47.605,0,0,1,8.369.459c.221.026.441.059.662.086-.006-.034-.013-.069-.019-.1-1.2-6.9-2.854-13.979-6.9-19.83a54.821,54.821,0,0,0-15.408-14.32,59.2,59.2,0,0,0-17.132-8.035c-11.826-3.105-25.124-1.756-36.573,2.236a50.021,50.021,0,0,0-15.512,8.492,58.3,58.3,0,0,0-13.347,16.4c2.655,1.935,5.461,3.669,8.242,5.406,2.022,1.263,4.042,2.53,6.011,3.875a43.193,43.193,0,0,1,5.434,4.173c3.712,3.521,6.447,8.242,10.859,10.916Q1352.538,1631.33,1353.323,1631.749Z" transform="translate(-1318.553 -1577.665)" opacity="0.12"/>
    <path id="Path_38586" data-name="Path 38586" d="M1312.2,1793.192l-.015-.05,0,.014Z" transform="translate(-1312.184 -1729.352)" fill="#bd8a68"/>
  </g>
  <g id="Group_406" data-name="Group 406" transform="translate(67.5 212.012)">
    <path id="Path_38587" data-name="Path 38587" d="M1312.2,1793.192l-.015-.05,0,.014Z" transform="translate(-1312.184 -1793.143)" fill="#f1efea"/>
  </g>
  <path id="Path_38588" data-name="Path 38588" d="M1356.971,1813.816c0-.023,0-.045.006-.066,0-.138.017-.289.016-.415C1356.955,1813.27,1356.886,1813.388,1356.971,1813.816Z" transform="translate(-1276.01 -1595.333)" fill="#cfccca"/>
  <g id="Group_407" data-name="Group 407" transform="translate(63.915 162.045)">
    <path id="Path_38589" data-name="Path 38589" d="M1512.94,1630.057c-1.029.849-2.05,1.7-3.118,2.539s-2.161,1.688-3.283,2.518c-4.475,3.338-9.308,6.53-13.717,9.38-4.432,2.856-8.359,5.519-11.045,7.609-1.31,1.018-2.393,1.776-3.152,2.313s-1.18.872-1.114,1.055.619.188,1.571-.042a18.967,18.967,0,0,0,3.831-1.505c3.019-1.521,7.177-3.63,11.869-6.06a154.253,154.253,0,0,0,14.688-8.6c1.206-.805,2.386-1.637,3.537-2.475s2.266-1.7,3.322-2.526c2.128-1.67,4.135-3.331,5.9-4.953q.719-.663,1.364-1.3c-1.316-1.283-2.7-2.5-4.137-3.648-.307.289-.624.584-.955.889C1516.855,1626.76,1514.972,1628.37,1512.94,1630.057Z" transform="translate(-1424.22 -1624.36)" fill="#4f453e"/>
    <path id="Path_38590" data-name="Path 38590" d="M1540.1,1673.971c-1.448,1.03-3.219,2.4-5.461,4.08a68.372,68.372,0,0,1-11.007,6.868c-4.177,2.039-8.9,3.666-13.123,5.465-.528.223-1.049.451-1.559.679l-1.476.675c-.946.435-1.861.845-2.734,1.228-1.745.767-3.324,1.426-4.649,1.985-2.65,1.115-4.285,1.844-4.2,2.222.085.362,1.9.338,4.8-.163,1.449-.251,3.168-.625,5.066-1.136.949-.254,1.943-.542,2.97-.862l1.537-.485,1.57-.479a140.3,140.3,0,0,0,13.881-4.5,52.874,52.874,0,0,0,6.661-3.359,64.45,64.45,0,0,0,5.556-3.721,54.631,54.631,0,0,0,5.455-4.628,23.638,23.638,0,0,0,2.51-2.81,37.22,37.22,0,0,0-1.558-3.573,7.854,7.854,0,0,0-.8.344A26.025,26.025,0,0,0,1540.1,1673.971Z" transform="translate(-1437.161 -1657.516)" fill="#4f453e"/>
    <path id="Path_38591" data-name="Path 38591" d="M1556.1,1744.788c-2.787,1.069-5.706,2.047-8.585,2.948s-5.751,1.707-8.483,2.454-5.33,1.426-7.683,2.054l-3.337.9c-1.049.291-2.007.572-2.878.824-1.74.507-3.134.883-4.106,1.156s-1.516.469-1.51.663.574.363,1.619.442a26.027,26.027,0,0,0,4.4-.155c.921-.094,1.924-.22,2.99-.355s2.221-.285,3.432-.456c2.425-.343,5.1-.76,7.932-1.273s5.809-1.124,8.833-1.849,6.082-1.575,9.091-2.575a45.186,45.186,0,0,0,8.651-3.989c.434-.262.859-.532,1.278-.806-.411-1.963-.865-3.912-1.275-5.776-.887.676-1.831,1.342-2.833,1.983A44.372,44.372,0,0,1,1556.1,1744.788Z" transform="translate(-1453.798 -1705.059)" fill="#4f453e"/>
    <path id="Path_38592" data-name="Path 38592" d="M1316.07,1680.425a49.894,49.894,0,0,0,5.762,4.17c.529.342,1.082.653,1.633.983l1.563.917c1.047.624,2.108,1.28,3.184,1.951,2.151,1.343,4.362,2.748,6.619,4.05,1.127.652,2.267,1.277,3.411,1.856s2.235,1.106,3.327,1.614a97.53,97.53,0,0,0,11.271,4.493c2.928.929,4.785,1.278,4.928.93.3-.729-6.339-4.027-14.37-8.866-1-.6-2.038-1.234-3.067-1.877s-2.039-1.314-3.067-2.02c-2.056-1.41-4.133-2.928-6.245-4.414-1.057-.742-2.122-1.475-3.2-2.179-.532-.352-1.084-.7-1.606-1.031-.491-.321-.99-.622-1.46-.948a57.169,57.169,0,0,1-5.134-3.845c-1.1-.927-2.044-1.8-2.888-2.578l-.623-.6q-1.412,2.445-2.637,4.988C1314.234,1678.789,1315.088,1679.6,1316.07,1680.425Z" transform="translate(-1308.75 -1658.625)" fill="#4f453e"/>
    <path id="Path_38593" data-name="Path 38593" d="M1305.1,1720.622c2.089,1.688,4.3,3.485,6.618,5.255s4.742,3.513,7.249,5.078c1.243.785,2.542,1.522,3.8,2.188s2.5,1.293,3.73,1.881a53.146,53.146,0,0,0,7.149,2.811,35.727,35.727,0,0,0,6.077,1.31c3.5.42,5.632.087,5.651-.258.032-.411-2.026-.812-5.2-1.838a52.416,52.416,0,0,1-5.452-2.1,65.981,65.981,0,0,1-6.406-3.37c-1.116-.669-2.258-1.365-3.41-2.11s-2.267-1.486-3.391-2.308c-2.243-1.627-4.456-3.418-6.62-5.246s-4.282-3.684-6.343-5.446c-.508-.437-1.062-.893-1.584-1.321s-1.053-.844-1.573-1.236c-1.036-.8-2.042-1.528-3-2.221-1-.716-1.926-1.361-2.778-1.95-.706,1.667-1.422,3.421-2.1,5.227.531.388,1.082.786,1.663,1.2C1301.063,1717.528,1303.074,1718.972,1305.1,1720.622Z" transform="translate(-1297.516 -1684.466)" fill="#4f453e"/>
  </g>
  <g id="Group_414" data-name="Group 414" transform="translate(47.366 46.686)">
    <g id="Group_412" data-name="Group 412">
      <path id="Path_38594" data-name="Path 38594" d="M1376.307,1300.213c-2.83-2.339-6.036-3.412-9.3-4.958-3.453-1.634-4.944-4.35-6.119-7.869a80.841,80.841,0,0,1-2.634-11.385c7.553-.565,14.995-4.8,18.53-11.609,3.614-6.959,2.467-16.828-4.2-21.595-7.753-5.541-22.081-3.509-26.817,4.767-.359-.354-.724-.7-1.1-1.036-10.431-9.3-25.1-9.04-38.051-6.391a55.734,55.734,0,0,0-20.385,8.541c-4.486-10.877-21.64-17.764-31.037-9.938-5.712,4.757-7.269,13.4-2.942,19.505,3.893,5.5,10.568,8.531,16.847,10.72-4.421,9.529-6.065,20.292-6.022,30.772-5.8,2.17-11.7,4.172-15.785,9.13-4.859,5.891-7.116,13.97-4.55,21.335,2.731,7.84,9.267,13.3,15.441,18.454,3.165,2.64,6.363,5.247,9.319,8.124,3.217,3.13,5.909,6.691,8.848,10.068,5.319,6.113,11.508,11.564,19.216,14.389a37.67,37.67,0,0,0,22.248.806c7.776-2.045,13.343-6.592,19.289-11.737a239.82,239.82,0,0,1,19.968-15.594c11.778-8.19,26.843-17.755,28.086-33.635A25.242,25.242,0,0,0,1376.307,1300.213Z" transform="translate(-1241.668 -1235.38)" fill="#d69d76"/>
      <path id="Path_38595" data-name="Path 38595" d="M1410.384,1479.784a24.189,24.189,0,0,0-8.624-17.288,42.612,42.612,0,0,0-41.1-7.892c-20.05,6.726-27.4,21.609-22.577,41.557,1.129,4.667,3.549,8.919,5.592,13.236a164.138,164.138,0,0,1,7.461,18.138,39.443,39.443,0,0,0,11.292,6.509,38.147,38.147,0,0,0,22.248.8,39.2,39.2,0,0,0,14.491-7.629c.2-.953.4-1.905.585-2.849C1402.419,1510.859,1411.41,1494.189,1410.384,1479.784Z" transform="translate(-1308.531 -1388.157)" fill="#fff9e8"/>
      <path id="Path_38596" data-name="Path 38596" d="M1399.881,1449.549c-.813.01-1.548.027-2.182.044-8.685.225-18.375.113-25.774,5.332-6.73,4.746-.242,14.461,4.477,17.868,4.831,3.487,10.645,5.269,16.195,7.236,3.8,1.349,7.9-.518,11.436-1.87,7.1-2.721,18.268-6.756,21.264-14.558C1430.43,1450.222,1409.581,1449.425,1399.881,1449.549Z" transform="translate(-1331.325 -1386.138)" fill="#61554c"/>
      <path id="Path_38597" data-name="Path 38597" d="M1402.023,1459.883c.506,2.715,4.441,4.191,6.714,4.942,6.962,2.3,15.678,1.889,22.649-.208,2.367-.712,7.328-2.449,7.238-5.549a1.9,1.9,0,0,0-1.162-1.558c-2.3-1.089-5.8-1-8.293-1.141-3.022-.173-6.052-.146-9.076-.041a91.274,91.274,0,0,0-15.795,1.469,3.316,3.316,0,0,0-1.947.916A1.372,1.372,0,0,0,1402.023,1459.883Z" transform="translate(-1354.534 -1390.859)" fill="#706258"/>
      <path id="Path_38598" data-name="Path 38598" d="M1426.094,1478.939c-6.686,8.714-19.841,13.1-30.382,12.608-9.239-.433-21.771-5.193-26.157-14.085-2.125,5.066,2.969,12.175,6.865,14.987,4.831,3.487,10.645,5.269,16.194,7.236a8.578,8.578,0,0,0,3.275.457c.016,3.783.053,7.567,0,11.35-.048,3.184-.067,6.405-.261,9.584a13.14,13.14,0,0,1-1.742,6.308,8.269,8.269,0,0,1-8.589,3.692,14.834,14.834,0,0,1-3.672-1.362,7.6,7.6,0,0,1-2.714-1.733c-.756-.943-2.349.08-1.587,1.031a12.07,12.07,0,0,0,3.569,2.457c2.615,1.5,5.218,2.266,8.2,1.5a10.869,10.869,0,0,0,6.356-4.356,11.245,11.245,0,0,0,1.273-2.692c-.153.467.819,1.911,1.06,2.314a9.823,9.823,0,0,0,1.642,2.061c3.9,3.711,11.854,4.383,15.957.584a7.006,7.006,0,0,0,2.141-4.077c.189-1.2-1.661-1.6-1.851-.394-.8,5.106-6.99,5.732-11.052,4.576-4.216-1.2-6.316-4.779-6.748-9.016-.421-4.12.213-8.2.036-12.3-.075-1.753-.117-3.51-.168-5.263-.01-.349-.308-4.432.045-4.5a39.326,39.326,0,0,0,6.273-2.092c7.105-2.721,18.268-6.756,21.263-14.558A10.383,10.383,0,0,0,1426.094,1478.939Z" transform="translate(-1331.342 -1405.795)" fill="#4f453e"/>
      <path id="Path_38599" data-name="Path 38599" d="M1620.12,1281.31c-3.577-.179-7.491,1.118-8.874,4-1.5,3.135-.278,6.847.672,9.955.784,2.563,2.208,6.276,5.307,6.646,3.8.453,7.817-3.039,9.942-5.822a9.514,9.514,0,0,0-1.736-13.011A9.174,9.174,0,0,0,1620.12,1281.31Z" transform="translate(-1501.339 -1267.702)" fill="#4f453e"/>
      <path id="Path_38600" data-name="Path 38600" d="M1314.411,1265.244c-3.676-4.045-9.785-6.673-14.732-3.156-4.841,3.443-5.567,10.907-1.218,15.026,1.927,1.825,4.344,3.794,7.118,4.184,2.966.417,4.846-1.936,6.223-4.212.738-1.22,1.361-2.511,2.151-3.7.846-1.272,2.309-2.258,2.7-3.786C1317.114,1267.761,1315.777,1266.273,1314.411,1265.244Z" transform="translate(-1279.623 -1253.024)" fill="#4f453e"/>
      <path id="Path_38601" data-name="Path 38601" d="M1614.643,1287.295c3.172-3.871,8.4-4.017,12.7-2.092a9.91,9.91,0,0,0-1.909-2.122,9.174,9.174,0,0,0-5.312-1.77,11.288,11.288,0,0,0-6.976,1.8,1.2,1.2,0,0,1-.538.553c-.076.037-.154.067-.232.1a5.531,5.531,0,0,0-1.127,1.551c-1.333,2.782-.52,6.017.345,8.882A15.792,15.792,0,0,1,1614.643,1287.295Z" transform="translate(-1501.339 -1267.702)" fill="#3d3530"/>
      <path id="Path_38602" data-name="Path 38602" d="M1318.592,1265.244c-3.676-4.045-9.785-6.673-14.732-3.156a9.457,9.457,0,0,0-2.335,2.392,12.387,12.387,0,0,1,4.786-1.546,8.1,8.1,0,0,1,8.048,3.678c1.82,2.851,2.206,6.361,1.962,9.891.6-1.043,1.148-2.115,1.814-3.117.846-1.272,2.309-2.258,2.7-3.786C1321.3,1267.761,1319.958,1266.273,1318.592,1265.244Z" transform="translate(-1283.804 -1253.024)" fill="#3d3530"/>
      <g id="Group_411" data-name="Group 411" transform="translate(14.348 48.931)">
        <g id="Group_410" data-name="Group 410">
          <g id="Group_408" data-name="Group 408" transform="translate(20.684)">
            <path id="Path_38603" data-name="Path 38603" d="M1370.076,1404.523c-.525-2.189-2.37-4.384-5.562-3.75-4.251.845-4.979,4.49-4.279,7.373.352,1.449,2.579,6.483,4.912,6.425C1368.251,1414.494,1370.532,1406.427,1370.076,1404.523Z" transform="translate(-1360.003 -1400.662)" fill="#4f4949"/>
            <path id="Path_38604" data-name="Path 38604" d="M1368.264,1406.665c-1.066-.284-1.831.671-2.141,1.437a3.032,3.032,0,0,0,.132,2.541c.026.055.053.109.084.162.014.026.025.052.04.078a.61.61,0,0,0,.1.131,1.919,1.919,0,0,0,.15.172.735.735,0,0,0,.689.114c.546-.227.575-.57.707-1.051a6.694,6.694,0,0,1,.7-1.452C1369.127,1408.082,1369.4,1406.966,1368.264,1406.665Z" transform="translate(-1364.157 -1404.852)" fill="#fff"/>
            <path id="Path_38605" data-name="Path 38605" d="M1369.978,1426.967a.619.619,0,1,0,.079,1.229A.619.619,0,1,0,1369.978,1426.967Z" transform="translate(-1366.577 -1419.178)" fill="#fff"/>
          </g>
          <g id="Group_409" data-name="Group 409" transform="translate(80.971 0.61)">
            <path id="Path_38606" data-name="Path 38606" d="M1573.72,1406.582c-.525-2.189-2.37-4.384-5.562-3.75-4.251.845-4.979,4.491-4.278,7.373.352,1.449,2.579,6.483,4.911,6.425C1571.895,1416.553,1574.175,1408.487,1573.72,1406.582Z" transform="translate(-1563.646 -1402.721)" fill="#4f4949"/>
            <path id="Path_38607" data-name="Path 38607" d="M1571.907,1408.724c-1.066-.284-1.831.671-2.14,1.437a3.03,3.03,0,0,0,.132,2.541,1.8,1.8,0,0,0,.083.162c.014.026.025.052.04.078a.616.616,0,0,0,.1.131,1.882,1.882,0,0,0,.151.172.736.736,0,0,0,.689.114c.546-.227.575-.57.707-1.051a6.693,6.693,0,0,1,.7-1.452C1572.771,1410.141,1573.04,1409.025,1571.907,1408.724Z" transform="translate(-1567.801 -1406.911)" fill="#fff"/>
            <path id="Path_38608" data-name="Path 38608" d="M1573.621,1429.026a.619.619,0,1,0,.08,1.229A.619.619,0,1,0,1573.621,1429.026Z" transform="translate(-1570.221 -1421.237)" fill="#fff"/>
          </g>
          <path id="Path_38609" data-name="Path 38609" d="M1304.261,1465.546c-3.423-5.726-10.957-2.308-13.367,2.547C1285.169,1479.625,1314.029,1481.885,1304.261,1465.546Z" transform="translate(-1290.135 -1444.232)" fill="#f0bcbd"/>
          <path id="Path_38610" data-name="Path 38610" d="M1616.676,1466.46c-3.423-5.726-10.957-2.308-13.367,2.547C1597.583,1480.539,1626.444,1482.8,1616.676,1466.46Z" transform="translate(-1510.061 -1444.876)" fill="#f0bcbd"/>
        </g>
      </g>
    </g>
    <g id="Group_413" data-name="Group 413" transform="translate(0.321 3.179)">
      <path id="Path_38611" data-name="Path 38611" d="M1465.457,1261.273c.22,10.164-.59,21.615,3,31.31.441,1.192,1.388,3.7,2.261,3.723.368.009.723-.423,1.021-1.58a41.049,41.049,0,0,0,.754-4.467c1.39-11.121,2.951-22.236,3.972-33.4.15-1.607.273-3.231.381-4.809s.183-3.1.259-4.607q.034-.664.07-1.325a72.4,72.4,0,0,0-11.792,1.322Q1465.308,1254.357,1465.457,1261.273Z" transform="translate(-1399.457 -1246.119)" fill="#4f453e"/>
      <path id="Path_38612" data-name="Path 38612" d="M1532.664,1269.091a85.907,85.907,0,0,0,1.276,12.7,19.139,19.139,0,0,0,1.06,3.776c.38.884.776,1.366,1.188,1.366s.819-.481,1.216-1.349a24.32,24.32,0,0,0,1.179-3.677c.776-3.107,1.63-7.406,2.5-12.241s1.773-10.218,2.526-15.51q.194-1.357.371-2.7a33.752,33.752,0,0,0-11.139-3.646c-.071,1.764-.134,3.579-.186,5.419C1532.5,1258.549,1532.464,1264.08,1532.664,1269.091Z" transform="translate(-1446.742 -1247.308)" fill="#4f453e"/>
      <path id="Path_38613" data-name="Path 38613" d="M1408.616,1276.977a59.8,59.8,0,0,0,3.046,10.941c1.121,2.7,2.24,4.225,3.037,4.068.818-.161,1.248-1.954,1.558-4.74s.529-6.586.774-10.871c.23-4.281.463-9.061.51-13.8.012-1.185.011-2.358-.005-3.536-.019-1.129-.055-2.235-.11-3.31a55.7,55.7,0,0,0-11.184,4.7q.16,1.359.322,2.741C1407.114,1267.779,1407.758,1272.612,1408.616,1276.977Z" transform="translate(-1357.842 -1252.885)" fill="#4f453e"/>
      <path id="Path_38614" data-name="Path 38614" d="M1643.087,1515.775c-3.19,2.993-6.475,6.013-9.494,8.761-6.012,5.491-10.9,9.891-10.08,11.341.407.711,2.211.6,4.883-.184a58.264,58.264,0,0,0,10.007-4.227,99.545,99.545,0,0,0,10.8-6.592,27.49,27.49,0,0,0,4.685-13.176,23.5,23.5,0,0,0-.237-5.533c-.5.412-1.013.854-1.557,1.336C1649.424,1509.873,1646.3,1512.777,1643.087,1515.775Z" transform="translate(-1510.728 -1429.181)" fill="#4f453e"/>
      <path id="Path_38615" data-name="Path 38615" d="M1665.675,1465.948c-.8,1.467-1.555,2.905-2.253,4.27-1.392,2.729-2.587,5.168-3.358,7.07s-1.071,3.295-.485,3.883,2.012.281,3.927-.765a34.464,34.464,0,0,0,6.635-5.085c1.184-1.112,2.373-2.318,3.537-3.554s2.315-2.527,3.372-3.679l.739-.809a25.153,25.153,0,0,0-6.578-10.153c-.968,1.339-1.967,2.8-2.941,4.347C1667.306,1463,1666.483,1464.478,1665.675,1465.948Z" transform="translate(-1535.965 -1394.659)" fill="#4f453e"/>
      <path id="Path_38616" data-name="Path 38616" d="M1252.547,1503.379l2.225,1.185a38.007,38.007,0,0,0,4.14,2.012,10.015,10.015,0,0,0,3.215.78c.825.024,1.353-.181,1.531-.545s.023-.888-.34-1.544a26.689,26.689,0,0,0-1.644-2.425c-.717-.97-1.573-2.118-2.666-3.432-.544-.655-1.174-1.355-1.834-2.047s-1.362-1.387-2.088-2.083c-2.6-2.481-5.507-4.9-8.038-7.258a24.373,24.373,0,0,0-4.293,10c2.569,1.564,5.1,2.89,7.383,4.092Z" transform="translate(-1242.754 -1416.408)" fill="#4f453e"/>
      <path id="Path_38617" data-name="Path 38617" d="M1260.477,1565.341a28.906,28.906,0,0,0,4.058-.348c2.253-.375,3.666-.9,3.828-1.71s-1.04-1.837-3.1-2.877c-2.049-1.061-4.91-2.087-7.482-3.5-.651-.349-1.283-.735-1.908-1.137-.523-.364-1.479-.956-2.311-1.44-1.711-1-3.475-1.891-5.193-2.7s-3.362-1.531-4.9-2.194a19.115,19.115,0,0,0,.538,1.851c1.846,5.3,5.43,9.511,9.465,13.276.569.144,1.134.269,1.688.366A26.881,26.881,0,0,0,1260.477,1565.341Z" transform="translate(-1243.254 -1459.635)" fill="#4f453e"/>
    </g>
  </g>
  <g id="Group_415" data-name="Group 415" transform="translate(59.513 187.563)" opacity="0.1">
    <path id="Path_38618" data-name="Path 38618" d="M1327.287,1746.237a39.7,39.7,0,0,1-2.653-7.54c-2.083-8.155-4.029-18.147-11.471-23.255-6.625-4.546-14.654-5.708-22.385-4.361-3.028,5.822-5.658,12.262-5.836,18.118-.362,11.936,9.313,13.875,18.79,16.793a135.15,135.15,0,0,0,24.993,4.846c.286.032.572.059.858.089C1328.862,1749.345,1328.045,1747.805,1327.287,1746.237Z" transform="translate(-1284.932 -1710.554)"/>
    <path id="Path_38619" data-name="Path 38619" d="M1311.591,1778.585l-.009-.051,0,.014Z" transform="translate(-1303.692 -1758.409)"/>
  </g>
  <g id="Group_419" data-name="Group 419" transform="translate(33.302 184.064)">
    <path id="Path_38620" data-name="Path 38620" d="M1257.577,1731.035c.158-6.137-2.329-13.051-4.745-17.678-6.4-12.248-20.125-17.426-33.427-13.133-7.392,2.385-22.559,13.149-19.341,22.631,1.874,5.523,8.36,7.473,13.1,9.784,8.952,4.362,18.636,9.586,28.628,10.9,2.878.38,5.907.529,8.613-.685C1255.553,1740.549,1257.448,1736.051,1257.577,1731.035Z" transform="translate(-1199.622 -1698.735)" fill="#ede8d8"/>
    <path id="Path_38621" data-name="Path 38621" d="M1281.768,1726.8a17.567,17.567,0,0,0-4.729-7.014,14.668,14.668,0,0,0-17.715-1.551c-3.177,1.93-8.873,8.411-6.017,12.09,1.663,2.143,5.017,2.187,7.593,2.6,4.863.778,10.194,1.837,15.124,1.18a8.3,8.3,0,0,0,4-1.349A5.1,5.1,0,0,0,1281.768,1726.8Z" transform="translate(-1236.866 -1710.876)" fill="#faf5e4"/>
    <path id="Path_38622" data-name="Path 38622" d="M1279.248,1740.006c.158-6.137-2.329-13.051-4.745-17.678a27.053,27.053,0,0,0-10.181-10.849,24.719,24.719,0,0,1,6.059,14.975c.257,5.074-1.631,10.649-6.759,12.546a30.579,30.579,0,0,1-8.267,1.313c-3.593.285-7.154.59-10.764.555a92.94,92.94,0,0,1-14.185-1.284c1.52.709,3.05,1.352,4.431,2.025,8.952,4.362,18.636,9.586,28.628,10.9,2.878.38,5.907.529,8.613-.685C1277.224,1749.52,1279.119,1745.022,1279.248,1740.006Z" transform="translate(-1221.293 -1707.706)" fill="#d6d2c3"/>
    <g id="Group_416" data-name="Group 416" transform="translate(3.886 20.328)">
      <path id="Path_38623" data-name="Path 38623" d="M1214.14,1783.483c-.157.048-.49-.41-.822-1.269a8.762,8.762,0,0,1-.431-1.581,9.613,9.613,0,0,1-.129-2.061,12.71,12.71,0,0,1,.315-2.275,22.468,22.468,0,0,1,.643-2.231,20.954,20.954,0,0,1,1.756-3.937,8.548,8.548,0,0,1,1.421-1.836,4.51,4.51,0,0,1,.644-.509c.1-.065.193-.122.284-.169s.183-.083.266-.113a1.108,1.108,0,0,1,.758-.059.7.7,0,0,1,.377.333.954.954,0,0,1,.144.487,1.4,1.4,0,0,1-.167.609c-.23.481-.747,1.136-1.583,2.534a31.776,31.776,0,0,0-1.756,3.49,20.048,20.048,0,0,0-1.35,3.882,11.506,11.506,0,0,0-.231,1.762c-.024.549-.025,1.052-.01,1.48C1214.3,1782.876,1214.312,1783.431,1214.14,1783.483Z" transform="translate(-1212.75 -1767.402)" fill="#858075"/>
    </g>
    <g id="Group_417" data-name="Group 417" transform="translate(17.199 26.448)">
      <path id="Path_38624" data-name="Path 38624" d="M1258.635,1804.031c-.169.011-.37-.493-.55-1.341a18.946,18.946,0,0,1-.362-3.407,19.348,19.348,0,0,1,.391-4.383,15.226,15.226,0,0,1,1.426-4q.163-.3.315-.568c.108-.173.22-.332.324-.482s.205-.289.3-.418.2-.239.3-.345a7.277,7.277,0,0,1,.527-.522,2.863,2.863,0,0,1,.457-.312c.552-.3.868-.191,1.123.04a.937.937,0,0,1,.236,1.086,3.7,3.7,0,0,1-.182.456,5.754,5.754,0,0,1-.286.583c-.057.109-.13.217-.193.341s-.134.254-.21.39l-.248.43q-.119.234-.258.491a18.972,18.972,0,0,0-1.4,3.392,27.238,27.238,0,0,0-.858,3.923c-.188,1.269-.313,2.425-.429,3.265S1258.809,1804.02,1258.635,1804.031Z" transform="translate(-1257.717 -1788.074)" fill="#858075"/>
    </g>
    <g id="Group_418" data-name="Group 418" transform="translate(30.687 32.016)">
      <path id="Path_38625" data-name="Path 38625" d="M1305.334,1822.238c-.175.017-.38-.447-.672-1.19-.147-.373-.316-.817-.5-1.327s-.379-1.087-.543-1.734a10.772,10.772,0,0,1-.327-2.113,11.472,11.472,0,0,1,.124-2.237,13.987,13.987,0,0,1,1.21-3.884,10.584,10.584,0,0,1,1.025-1.755,4.041,4.041,0,0,1,.815-.864.884.884,0,0,1,1.1-.107.9.9,0,0,1,.419,1.01,4.592,4.592,0,0,1-.326,1.087c-.183.453-.446,1.005-.773,1.693a17.254,17.254,0,0,0-1.21,3.258,11.928,11.928,0,0,0-.311,1.819,11.72,11.72,0,0,0,0,1.8c.041.594.11,1.176.163,1.715s.089,1.036.093,1.453C1305.623,1821.706,1305.5,1822.221,1305.334,1822.238Z" transform="translate(-1303.28 -1806.883)" fill="#858075"/>
    </g>
  </g>
  <g id="Group_429" data-name="Group 429" transform="translate(145.296 179.204)">
    <g id="Group_421" data-name="Group 421">
      <g id="Group_420" data-name="Group 420">
        <path id="Path_38626" data-name="Path 38626" d="M1618.445,1698.106c-5.989-14.11-20.341-20.27-35.437-12.182-10.124,5.424-16.21,15.615-15.083,26.385a44.671,44.671,0,0,0,3.562,12.648c4.286,10.087,18.48-.157,25.393-2.747,7.17-2.686,19.355-4.462,23.021-11.926C1621.777,1706.466,1619.937,1701.62,1618.445,1698.106Z" transform="translate(-1567.792 -1682.322)" fill="#ede8d8"/>
      </g>
    </g>
    <g id="Group_423" data-name="Group 423" transform="translate(6.249 6.438)">
      <g id="Group_422" data-name="Group 422">
        <path id="Path_38627" data-name="Path 38627" d="M1612.421,1706.207l-.108-.1c-2.676-2.531-7.086-2.435-10.3-1.148a25.684,25.684,0,0,0-12.835,14.574c-.939,3.685.344,12.43,6.091,10.581,3.167-1.02,6.078-4.752,8.423-6.98,2.847-2.7,5.636-5.475,8.241-8.416C1614.054,1712.32,1614.868,1708.647,1612.421,1706.207Z" transform="translate(-1588.899 -1704.069)" fill="#faf5e4"/>
      </g>
    </g>
    <g id="Group_425" data-name="Group 425" transform="translate(14.985 0.083)">
      <g id="Group_424" data-name="Group 424">
        <path id="Path_38628" data-name="Path 38628" d="M1654.078,1698.3c-3.886-9.156-11.294-14.961-20.141-15.7a17.559,17.559,0,0,1,9.387,6.987c2.775,3.922,4.678,9.284,3.589,14.109-1.491,6.607-6.173,10.978-11.539,14.691a183.437,183.437,0,0,1-16.964,10.282c5.068-1.574,10.549-4.93,14.1-6.262,7.171-2.686,19.355-4.462,23.021-11.926C1657.409,1706.663,1655.569,1701.816,1654.078,1698.3Z" transform="translate(-1618.409 -1682.601)" fill="#d6d2c3"/>
      </g>
    </g>
    <g id="Group_426" data-name="Group 426" transform="translate(14.361 35.782)">
      <path id="Path_38629" data-name="Path 38629" d="M1620.689,1817.483c-.168.015-.377-.445-.527-1.228s-.224-1.873-.32-3.027a17.148,17.148,0,0,0-.228-1.739,10.267,10.267,0,0,0-.472-1.674,17.814,17.814,0,0,0-1.417-2.97,20.977,20.977,0,0,1-1.325-2.247,1.012,1.012,0,0,1,.1-1.053.8.8,0,0,1,.386-.315.794.794,0,0,1,.294-.04,1.15,1.15,0,0,1,.384.082,5.085,5.085,0,0,1,2.3,2.295,13.79,13.79,0,0,1,1.473,3.577,10.263,10.263,0,0,1,.33,2.113,13.264,13.264,0,0,1-.065,1.989c-.131,1.232-.332,2.261-.473,3.009S1620.865,1817.468,1620.689,1817.483Z" transform="translate(-1616.3 -1803.188)" fill="#858075"/>
    </g>
    <g id="Group_427" data-name="Group 427" transform="translate(28.556 30.512)">
      <path id="Path_38630" data-name="Path 38630" d="M1668.318,1800.222c-.172-.04-.214-.542-.239-1.323a29.847,29.847,0,0,0-.192-3,15.552,15.552,0,0,0-.857-3.537,19.9,19.9,0,0,0-1.6-3.034,12.322,12.322,0,0,1-.893-1.734,3.655,3.655,0,0,1-.289-1.176.846.846,0,0,1,.553-.956.942.942,0,0,1,1.052.223,4.826,4.826,0,0,1,.7.8c.276.378.61.874,1.021,1.561.279.47.586,1.007.878,1.611a11.752,11.752,0,0,1,.764,2,13.185,13.185,0,0,1,.431,4.187,11.789,11.789,0,0,1-.613,3.208C1668.761,1799.829,1668.482,1800.26,1668.318,1800.222Z" transform="translate(-1664.25 -1785.386)" fill="#858075"/>
    </g>
    <g id="Group_428" data-name="Group 428" transform="translate(42.895 24.947)">
      <path id="Path_38631" data-name="Path 38631" d="M1716.868,1781.193c-.359-.085-.124-1.995-.409-4.3a16.353,16.353,0,0,0-.816-3.539,15.574,15.574,0,0,0-1.463-3.016c-.1-.15-.185-.294-.267-.432s-.175-.258-.252-.379c-.158-.24-.283-.463-.411-.649a5.043,5.043,0,0,1-.295-.523,3.8,3.8,0,0,1-.189-.418.941.941,0,0,1,.189-1.069.845.845,0,0,1,1.079-.159,2.423,2.423,0,0,1,.452.253,6.221,6.221,0,0,1,.532.446,5.623,5.623,0,0,1,.613.671c.106.134.225.271.334.43s.219.33.334.511a13,13,0,0,1,1.548,3.678,13.575,13.575,0,0,1,.376,4.155,11.707,11.707,0,0,1-.629,3.186,3.836,3.836,0,0,1-.21.511,3.794,3.794,0,0,1-.2.371C1717.059,1781.116,1716.952,1781.213,1716.868,1781.193Z" transform="translate(-1712.684 -1766.589)" fill="#858075"/>
    </g>
  </g>
</svg>
