<svg xmlns="http://www.w3.org/2000/svg" viewBox="0 0 610.1 796.52"><defs><style>.cls-1{fill:#d4d4d4;}.cls-2{fill:#574d47;}.cls-3{fill:#f2f2f2;}.cls-4{fill:#806f51;}.cls-5{fill:#998b72;}.cls-6{fill:#d3bdaf;}.cls-7{fill:#b8a498;}.cls-8{fill:#fff6dc;}.cls-9{fill:#494949;}.cls-10{fill:#ceccca;}.cls-11{fill:#f7d46b;}</style></defs><g id="圖層_2" data-name="圖層 2"><g id="Layer_1" data-name="Layer 1"><path class="cls-1" d="M518.79,684.14c-36.32,0-63.46-11.54-81.61-23.2-27.85-17.89-40.83-39.47-41.37-40.38a5,5,0,0,1,8.61-5.1h0c2,3.34,50,81.43,161.48,52.32a5,5,0,1,1,2.52,9.67A196,196,0,0,1,518.79,684.14Z"/><path class="cls-2" d="M543.41,677.52c4.27,23.15,46.54,21.82,64.27-2.54a12.59,12.59,0,0,0-3.31-18C579.12,640.55,539.15,654.37,543.41,677.52Z"/><path class="cls-3" d="M473.44,586.14a136.06,136.06,0,0,1-2.67,20.55c-3.63,17-10.63,31.18-21.68,42.48-22,22.52-60.1,33.8-119.4,33.8s-97.37-11.28-119.37-33.8c-11.08-11.3-18.08-25.48-21.68-42.48a137.37,137.37,0,0,1-2.7-20.52,212.52,212.52,0,0,1,.43-28.8c.42-5.58,1-11.35,1.82-17.3,1.55-12,3.75-24.63,6.4-37.48,2.45-11.92,5.25-24,8.28-35.92,7.8-30.9,16.9-60.7,24.27-83.35,8-24.63,14-40.8,14-40.8H418.27s6,16.17,14,40.77c7.38,22.65,16.48,52.48,24.28,83.38v0c3,11.9,5.85,24,8.27,35.9v0c2.65,12.82,4.85,25.47,6.4,37.45q1.2,8.92,1.83,17.3A215.33,215.33,0,0,1,473.44,586.14Z"/><path class="cls-3" d="M318.42,775.57l-52.33,20.95a208.4,208.4,0,0,1-12.4-18.35c-2.42-4-4.67-8.08-6.72-12.1a207.48,207.48,0,0,1-11-25.13A228.48,228.48,0,0,1,227.54,712c-1.82-8.25-3.07-16-3.92-23-2.83-23.85-1-39.8-1-39.8h73.28c-5.88,19.37-4.45,41.45-.28,61.65,1.38,6.72,3.05,13.25,4.88,19.37,2,6.78,4.2,13.08,6.32,18.73A259.59,259.59,0,0,0,318.42,775.57Z"/><path class="cls-3" d="M489.87,710.34,473,751.42a131,131,0,0,1-34.58-7.78c-2.95-1.1-5.82-2.3-8.6-3.57a128.2,128.2,0,0,1-13-7,131.49,131.49,0,0,1-25-20.1,147.34,147.34,0,0,1-15.68-19c-13.75-19.65-19-36.75-19-36.75l65.22-16.93c0,12.35,5.45,23.3,13.23,32.7A97.89,97.89,0,0,0,449,686.22a151.39,151.39,0,0,0,15.3,10.9A171.69,171.69,0,0,0,489.87,710.34Z"/><path class="cls-3" d="M238.72,380.22l-3.23,76.5a171,171,0,0,1-34.12.17,157.34,157.34,0,0,1-21.3-3.47,161.65,161.65,0,0,1-24.7-7.83,166.48,166.48,0,0,1-24.45-12.37c-2.25-1.38-4.4-2.78-6.4-4.13-15.38-10.42-23.5-19.72-23.5-19.72l21.72-48.48a143.82,143.82,0,0,0,20,12,131.7,131.7,0,0,0,19.9,7.82,127.78,127.78,0,0,0,22,4.63C216.09,389.14,238.72,380.22,238.72,380.22Z"/><path class="cls-3" d="M560.79,453.67s-5.82,27.05-25.65,42.5c0,0-6.75-1.33-17-3.83-2.9-.7-6.12-1.5-9.52-2.4-5.68-1.47-11.9-3.2-18.35-5.15-6.63-2-13.5-4.22-20.23-6.67-15.52-5.65-30.3-12.4-39.7-20l-6.87-87.55s12,11,31,25.28c7.42,5.6,15.9,11.65,25.15,17.77s19.35,12.33,29.9,18.08c4.2,2.3,8.47,4.55,12.8,6.67,1.2.58,2.4,1.18,3.6,1.73,1.95.95,3.95,1.87,5.92,2.75A228.91,228.91,0,0,0,560.79,453.67Z"/><path class="cls-2" d="M142.77,372.87l-18.25,56.22c-15.38-10.42-23.5-19.72-23.5-19.72l21.72-48.48A143.82,143.82,0,0,0,142.77,372.87Z"/><path class="cls-2" d="M318.42,775.57l-52.33,20.95a208.4,208.4,0,0,1-12.4-18.35l53.1-29.25A259.59,259.59,0,0,0,318.42,775.57Z"/><path class="cls-2" d="M489.87,710.34,473,751.42a131,131,0,0,1-34.58-7.78l25.85-46.52A171.69,171.69,0,0,0,489.87,710.34Z"/><path class="cls-2" d="M560.79,453.67s-5.82,27.05-25.65,42.5c0,0-6.75-1.33-17-3.83l13.75-49.52A228.91,228.91,0,0,0,560.79,453.67Z"/><path class="cls-2" d="M247.39,482.32l-52.8,20.27c2.45-11.92,5.25-24,8.28-35.92Z"/><path class="cls-2" d="M246.34,549.22l-51.77,31.67-8.63,5.28a212.52,212.52,0,0,1,.43-28.8c.42-5.58,1-11.35,1.82-17.3Z"/><path class="cls-2" d="M259.27,603.19,215,644.74l-4.7,4.43c-11.08-11.3-18.08-25.48-21.68-42.48l10-.5Z"/><path class="cls-2" d="M156.07,404.67l-.7,40.92a166.48,166.48,0,0,1-24.45-12.37Z"/><path class="cls-2" d="M184.67,385.32l-13.1,28-8.9-32.6A127.78,127.78,0,0,0,184.67,385.32Z"/><path class="cls-2" d="M454.52,395.82c7.42,5.6,15.9,11.65,25.15,17.77l-20.3,29.53-4.7-45.73Z"/><polygon class="cls-2" points="511.32 367.59 510.59 368.64 510.62 367.32 511.32 367.59"/><polygon class="cls-2" points="511.32 367.59 510.59 368.64 510.62 367.32 511.32 367.59"/><path class="cls-2" d="M526,440.07l-16.85,19.17.45-27.57c4.2,2.3,8.47,4.55,12.8,6.67C523.57,438.92,524.77,439.52,526,440.07Z"/><path class="cls-2" d="M201.37,456.89a157.34,157.34,0,0,1-21.3-3.47L191.74,426Z"/><path class="cls-2" d="M491.27,454.77l-1,30c-6.63-2-13.5-4.22-20.23-6.67Z"/><path class="cls-2" d="M256.29,703.92,227.54,712c-1.82-8.25-3.07-16-3.92-23l5.2,2.37Z"/><path class="cls-2" d="M449,686.22l-26.55,9.5L435.52,673A97.89,97.89,0,0,0,449,686.22Z"/><path class="cls-2" d="M300.47,730.19,300,730l-28.32-10.4,23.92-8.8C297,717.54,298.64,724.07,300.47,730.19Z"/><path class="cls-2" d="M413.29,688.77l-20.07,22.55-1.45,1.62a147.34,147.34,0,0,1-15.68-19l7.3-1Z"/><path class="cls-2" d="M433.54,719.19l-3.7,20.88a128.2,128.2,0,0,1-13-7Z"/><path class="cls-2" d="M276.32,740.44,249,764.24,247,766.07a207.48,207.48,0,0,1-11-25.13l4.17-.05Z"/><path class="cls-2" d="M464.79,502.59,412,482.32l44.5-15.63C459.54,478.59,462.37,490.69,464.79,502.59Z"/><path class="cls-2" d="M473,557.37a215.33,215.33,0,0,1,.42,28.77l-8.6-5.25L413,549.22l58.15-9.15Q472.39,549,473,557.37Z"/><path class="cls-2" d="M460.77,606.19l10,.5c-3.63,17-10.63,31.18-21.68,42.48l-4.72-4.43-44.25-41.55Z"/><path class="cls-4" d="M203.53,360.89c12.49,76.43,126.16,63.46,126.16,63.46s104.5,7.38,120.91-50.7Z"/><path class="cls-5" d="M322.11,449.12a48.94,48.94,0,0,1-16.45,22.63c-24.6,18.47-66.3,1.67-66.3,1.67s2.95-44.9,30.25-59a47.67,47.67,0,0,1,22.1-5.28A62.43,62.43,0,0,1,310,412a68.8,68.8,0,0,1,15.88,7.05v0A70.66,70.66,0,0,1,322.11,449.12Z"/><path class="cls-5" d="M420,473.42s-41.72,16.8-66.3-1.67a48.93,48.93,0,0,1-16.4-22.5,70.54,70.54,0,0,1-3.77-30.15v0a69.73,69.73,0,0,1,16.3-7.2,62.36,62.36,0,0,1,17.8-2.75,47.67,47.67,0,0,1,22.1,5.28C417.06,428.52,420,473.42,420,473.42Z"/><path class="cls-4" d="M325.84,419.1a70.66,70.66,0,0,1-3.73,30c-11.55-2.75-20-11.32-20-21.5,0-6.07,3-11.55,7.82-15.6a68.8,68.8,0,0,1,15.88,7.05Z"/><path class="cls-4" d="M357.84,427.62c0,10.33-8.7,19-20.53,21.63a70.54,70.54,0,0,1-3.77-30.15v0a69.73,69.73,0,0,1,16.3-7.2C354.79,416,357.84,421.5,357.84,427.62Z"/><circle class="cls-5" cx="329.99" cy="425.74" r="24.29"/><path class="cls-4" d="M302.25,425.74a55.3,55.3,0,0,0-10,1.84,70.38,70.38,0,0,0-9.46,3.35,81.25,81.25,0,0,0-8.92,4.65c-2.91,1.72-5.71,3.64-8.59,5.57,1.11-1.32,2.3-2.59,3.51-3.83a45.74,45.74,0,0,1,4-3.36,46.32,46.32,0,0,1,9-5.32,43.2,43.2,0,0,1,10.06-3A28.4,28.4,0,0,1,302.25,425.74Z"/><path class="cls-4" d="M305.69,437.32a20.16,20.16,0,0,1-2.5,7.55,33.57,33.57,0,0,1-4.64,6.52,37,37,0,0,1-6,5.22,31.8,31.8,0,0,1-7,3.69c1.94-1.82,3.92-3.47,5.8-5.22s3.69-3.52,5.42-5.38A61.76,61.76,0,0,0,305.69,437.32Z"/><path class="cls-4" d="M357.84,425.67a42.23,42.23,0,0,1,20.42-.17,32.42,32.42,0,0,1,9.57,4.14,21.77,21.77,0,0,1,6.87,7.68,34.39,34.39,0,0,0-7.88-6,44.36,44.36,0,0,0-9.16-3.38,70.52,70.52,0,0,0-9.76-1.65C364.59,426,361.24,425.72,357.84,425.67Z"/><path class="cls-4" d="M354.28,437.32a62.19,62.19,0,0,0,9,12.38q2.58,2.79,5.42,5.38c1.88,1.75,3.86,3.4,5.8,5.22a31.8,31.8,0,0,1-7-3.69,37,37,0,0,1-6-5.22,33.57,33.57,0,0,1-4.64-6.52A20.36,20.36,0,0,1,354.28,437.32Z"/><path class="cls-3" d="M285.16,53.77c-16.42-35.52-41.39-56-51.67-53.58s-23.78,31.69-23,70.81S229,141.46,229,141.46l36.12-15.68,33-15.62S301.58,89.28,285.16,53.77Z"/><path class="cls-1" d="M274,57.78c-11.33-24.51-28.56-38.61-35.66-37s-16.4,21.87-15.84,48.86,12.77,48.61,12.77,48.61l24.92-10.81L283,96.68S285.3,82.28,274,57.78Z"/><path class="cls-3" d="M423.52,63.8c21.36-32.78,49-49.4,58.86-45.57S501.33,53,494.88,91.61s-28.47,67.06-28.47,67.06L432.93,138,402.5,117.72S402.15,96.57,423.52,63.8Z"/><path class="cls-1" d="M434,69.38C448.75,46.77,467.83,35.3,474.62,38s13.07,24,8.62,50.62-19.64,46.27-19.64,46.27l-23.1-14.3-21-14S419.26,92,434,69.38Z"/><path class="cls-3" d="M521.09,278.94q-.32,4.33-.84,8.51c-.16,1.44-.36,2.86-.56,4.24a134.55,134.55,0,0,1-10.23,35.91,108.33,108.33,0,0,1-14,22.92C462.05,392.41,400.23,400.1,330,395s-130.3-21.62-157.35-67.9a107.8,107.8,0,0,1-10.52-24.72,135.89,135.89,0,0,1-4.88-41.27q.09-4.2.4-8.54a180.1,180.1,0,0,1,3-22.34,174,174,0,0,1,11.14-35.76v0A174.32,174.32,0,0,1,211,138.07c36-34.64,86.61-54,141.22-50,5.58.4,11.1,1.06,16.5,1.92,47.6,7.59,88.53,32.49,116,67.9a174.76,174.76,0,0,1,36.57,98.55A184.41,184.41,0,0,1,521.09,278.94Z"/><circle cx="250.07" cy="221.65" r="18" transform="translate(-78.86 162.75) rotate(-31.4)"/><circle cx="434.06" cy="234.99" r="18" transform="translate(154.24 641.6) rotate(-83.9)"/><path class="cls-2" d="M495.48,350.53C462,392.42,399.93,404.13,329.67,399s-130-25.65-157.06-71.92C185,281.79,256.4,251,340,257.09S489.77,303.89,495.48,350.53Z"/><circle cx="300.21" cy="275.9" r="8.94" transform="translate(-107.34 263.58) rotate(-40.85)"/><path d="M385.52,282.08a8.94,8.94,0,1,0-9.56,8.27A8.95,8.95,0,0,0,385.52,282.08Z"/><path d="M342.37,348.09c-2.89,0-5.88-.1-9-.32-41.74-3-62.58-25.16-63.45-26.1a3.75,3.75,0,0,1,5.52-5.08c.19.2,19.86,20.9,58.48,23.7s61.07-14.85,61.29-15A3.75,3.75,0,0,1,400,331.1C399,331.84,378.54,348.09,342.37,348.09Z"/><path class="cls-2" d="M237,179.05l-47-14.58-1.25-.39a174.51,174.51,0,0,1,22.26-26Z"/><path class="cls-2" d="M216,221.87l-48.66,7.35-6.72,1a174,174,0,0,1,11.14-35.76l2.4,1.48Z"/><path class="cls-2" d="M208.14,257.85l-35.36,34.21L162.1,302.39a135.89,135.89,0,0,1-4.88-41.27L159,261Z"/><path class="cls-2" d="M503.05,186.87l-1.34.2-48.61,7.65,31.67-36.85A174.63,174.63,0,0,1,503.05,186.87Z"/><path class="cls-2" d="M521.34,256.42l-6.57-2-47.09-14.3,45.14-19.61,2.64-1.14A176,176,0,0,1,521.34,256.42Z"/><path class="cls-2" d="M520.25,287.45c-.16,1.44-.36,2.86-.56,4.24a134.55,134.55,0,0,1-10.23,35.91l-9.09-11.79-30.06-38.95,48.11,10.21Z"/><path class="cls-2" d="M389.35,14.06l-16,19-.12-22.39c-4.83-.79-9.93-1.42-15.24-1.8h0a173.21,173.21,0,0,0-21.15-.22L333.64,30.2,321.08,10.1a155.41,155.41,0,0,0-24.8,5.15c28.82,47.7,29.5,110.94,29.5,110.94l23.57,1.71,23.57,1.71s9.79-62.48,45.19-105.52A163.17,163.17,0,0,0,389.35,14.06Z"/><path class="cls-6" d="M346.41,168.36a1622.8,1622.8,0,0,1,163.13,19.79,167.9,167.9,0,0,0-327.41-23.74A1624.44,1624.44,0,0,1,346.41,168.36Z"/><path class="cls-5" d="M508.88,183.88a166.5,166.5,0,0,0-5.6-23.22C466.61,147.57,411.3,137,349,132.43s-118.55-2-156.73,5.68a167.27,167.27,0,0,0-8.89,22.17Z"/><path class="cls-7" d="M355.41,44.23a137.65,137.65,0,0,0-26.48,15.05c-4.09,2.95-8.05,6.08-11.82,9.41-1.83,1.72-3.72,3.38-5.57,5.08l-5.2,5.46L305,80.57,303.8,82l-2.43,2.88-2.43,2.89c-.85.93-1.48,2-2.26,3l-4.49,6.08-4.06,6.39-2,3.21c-.7,1-1.2,2.22-1.84,3.32l-3.64,6.7-.94,1.67-.79,1.74-1.6,3.48q-1.62,3.48-3.36,7c.63-2.48,1.29-5,2-7.46l1.08-3.74.55-1.86.7-1.81c2-4.76,3.68-9.73,6.32-14.22,1.23-2.3,2.42-4.63,3.75-6.87l4.34-6.51a62.56,62.56,0,0,1,4.75-6.24l2.48-3,1.25-1.52,1.35-1.42a111.64,111.64,0,0,1,24.2-19.78C335.58,50.47,345.24,46.16,355.41,44.23Z"/><path class="cls-7" d="M355.41,44.23c9.79,3.38,18.73,9,26.74,15.67A111.46,111.46,0,0,1,403.24,83l1.14,1.6,1,1.68,2,3.36a61.82,61.82,0,0,1,3.8,6.85l3.35,7.08c1,2.41,1.84,4.88,2.72,7.33,2,4.82,2.91,10,4.21,15l.43,1.89.28,1.92.53,3.85c.34,2.56.63,5.13.9,7.68-.81-2.46-1.59-4.91-2.32-7.36l-1.09-3.68-.53-1.83-.68-1.79-2.64-7.16c-.48-1.18-.8-2.41-1.34-3.55l-1.56-3.47-3.09-6.91-3.57-6.67c-.62-1.09-1.09-2.26-1.79-3.31l-2-3.21-2-3.2-1-1.6-1.12-1.52-4.36-6.15c-1.58-2-3.21-3.86-4.78-5.83-3.25-3.84-6.71-7.5-10.34-11A137.42,137.42,0,0,0,355.41,44.23Z"/><path class="cls-6" d="M344.47,195.09c87.64,6.35,167.66,17.36,229.81,30.54-3.08-33.53-102.39-67.28-226.49-76.27s-227.23,10.06-235.12,42.8C176.07,188.08,256.84,188.73,344.47,195.09Z"/><polygon class="cls-8" points="121.54 108.03 0 125.82 40.87 262.96 121.7 251.13 121.54 108.03"/><path class="cls-9" d="M121.29,249c-1.43-9.77-20.65-15.06-42.91-11.8S39.23,251,40.65,260.8h0l5.28,36A40.37,40.37,0,0,0,64.14,325L80.28,435.26c1.19,8.14,14,13,28.68,10.86s25.56-10.49,24.37-18.63L117.19,317.23a40.45,40.45,0,0,0,9.37-32.2l-5.27-35.95Z"/><path class="cls-10" d="M124.57,271.44c-5.73,7.58-20.41,14.32-38.69,17s-34.28.42-41.95-5.19l-.41-2.84c6.25,6.12,23.36,8.91,42.08,6.17s34.32-10.32,38.56-18Z"/><ellipse class="cls-11" cx="81.28" cy="257.04" rx="37.38" ry="15.73" transform="translate(-36.37 14.48) rotate(-8.33)"/><path class="cls-10" d="M92.8,335.72h0a8,8,0,0,0-6.7,9l2,13.56a8,8,0,0,0,9,6.7h0a8,8,0,0,0,6.7-9l-2-13.55A8,8,0,0,0,92.8,335.72Z"/><path class="cls-9" d="M96.81,363.11A6.06,6.06,0,0,1,90,358l-2-13.56a6,6,0,1,1,12-1.75l2,13.56A6.06,6.06,0,0,1,96.81,363.11Z"/><path d="M276.17,535.82l-.29,0a7.24,7.24,0,1,1,2.5-14.27,1.66,1.66,0,0,1-.57,3.27,3.92,3.92,0,1,0-1.36,7.72,1.66,1.66,0,0,1-.28,3.3Z"/><path d="M383.21,535.82a1.66,1.66,0,0,1-.28-3.3,3.92,3.92,0,0,0,3.18-4.54,3.92,3.92,0,0,0-4.54-3.18,1.66,1.66,0,0,1-.57-3.27,7.24,7.24,0,0,1,2.5,14.27Z"/><rect x="282.4" y="490.24" width="24.33" height="19.8"/><rect class="cls-10" x="320.3" y="514.47" width="18.77" height="15.28"/><path class="cls-9" d="M306.25,487.07H282.87a5.41,5.41,0,0,0-5.39,5.39h0a5.4,5.4,0,0,0,5.39,5.38h23.38a5.39,5.39,0,0,0,5.38-5.38h0A5.4,5.4,0,0,0,306.25,487.07Z"/><rect x="352.65" y="490.24" width="24.33" height="19.8" transform="translate(729.63 1000.28) rotate(180)"/><path class="cls-9" d="M392.15,611.31s-7,4-27.34,4-27.33-4-27.33-4,0-10,1.12-22.82c.15-1.84.33-3.74.53-5.66a184,184,0,0,1,3.94-24q.48-2,.9-4c.11-.48.21-1,.3-1.45,0-.12.05-.25.08-.37a2.66,2.66,0,0,0-2.61-3.17H317.62A2.66,2.66,0,0,0,315,553a2.45,2.45,0,0,0,.08.37l.3,1.45q.42,2,.9,4a182.36,182.36,0,0,1,3.95,24c.2,1.92.37,3.82.53,5.66,1.1,12.81,1.12,22.82,1.12,22.82s-7,4-27.34,4-27.34-4-27.34-4,0-10,1.12-22.82c.16-1.84.33-3.74.53-5.66a184,184,0,0,1,3.95-24c.32-1.32.62-2.66.91-4l.3-1.45c3.15-15.88,4-34.16,4.22-42.82a5.17,5.17,0,0,1,5.18-5.05h22.26a5.18,5.18,0,0,1,5.19,5c0,1.3.07,2.82.14,4.53a7.11,7.11,0,0,0,7.1,6.83h23.12a7.11,7.11,0,0,0,7.11-6.83c.07-1.71.12-3.23.15-4.53a5.17,5.17,0,0,1,5.19-5h22.25a5.18,5.18,0,0,1,5.19,5.05c.23,8.66,1.06,26.94,4.22,42.82l.3,1.45c.29,1.36.59,2.7.91,4a184,184,0,0,1,3.94,24c.2,1.92.38,3.82.53,5.66C392.13,601.3,392.15,611.31,392.15,611.31Z"/><path class="cls-9" d="M353.12,487.07H376.5a5.41,5.41,0,0,1,5.39,5.39h0a5.4,5.4,0,0,1-5.39,5.38H353.12a5.39,5.39,0,0,1-5.38-5.38h0A5.4,5.4,0,0,1,353.12,487.07Z"/><path d="M320.25,582.83c.2,1.92.37,3.82.53,5.66H268.34c.16-1.84.33-3.74.53-5.66Z"/><path d="M391,588.49H338.6c.15-1.84.33-3.74.53-5.66H390.5C390.7,584.75,390.88,586.65,391,588.49Z"/><rect x="328.98" y="521.92" width="1.42" height="27.93"/><path d="M273.27,530.48a2.53,2.53,0,0,1-1.29-.35c-2.47-1.48-60.55-37.46-63.19-144.25a2.49,2.49,0,0,1,2.43-2.56h.07a2.51,2.51,0,0,1,2.5,2.44c2.57,103.85,60.18,139.73,60.76,140.08a2.5,2.5,0,0,1-1.28,4.64Z"/><path d="M386.11,530.48a2.48,2.48,0,0,1-2.14-1.21,2.5,2.5,0,0,1,.85-3.43c.58-.35,58.2-36.23,60.77-140.08a2.5,2.5,0,0,1,2.5-2.44h.06a2.5,2.5,0,0,1,2.44,2.56c-2.65,106.79-60.73,142.77-63.2,144.25A2.47,2.47,0,0,1,386.11,530.48Z"/></g></g></svg>