<svg xmlns="http://www.w3.org/2000/svg" width="231.227" height="231.337" viewBox="0 0 231.227 231.337">
  <g id="Group_543" data-name="Group 543">
    <ellipse id="Ellipse_7" data-name="Ellipse 7" cx="115.613" cy="112.55" rx="115.613" ry="112.55" fill="#e3ddbf"/>
    <path id="Path_38512" data-name="Path 38512" d="M177.787,1190.2c5.944-15.283,13.885-29.463,25.056-41.551,18.46-19.975,42.6-37.954,67.885-48.172a102.612,102.612,0,0,1,26.3-6.977,102.576,102.576,0,0,0-129.2,125.666C171.005,1209.464,174.083,1199.722,177.787,1190.2Z" transform="translate(-157.221 -1082.232)" fill="#ede7c8"/>
    <path id="Path_38513" data-name="Path 38513" d="M503.094,1112.307c7.983,9.476,13.526,20.841,17.223,32.57,5.1,16.168,6.964,33.266,6.894,50.139-.061,14.845-1.34,29.915-6.071,44.1a97.76,97.76,0,0,1-19.219,33.445,122.2,122.2,0,0,1-29.9,24.315,190.9,190.9,0,0,1-37.6,16.65c-6.255,2.059-12.593,3.868-18.986,5.471a117.574,117.574,0,0,0,33.29,4.779c63.54,0,115.05-50.32,115.05-112.393C563.777,1168.52,539.216,1131.264,503.094,1112.307Z" transform="translate(-332.55 -1098.674)" fill="#dbd6b9"/>
    <path id="Path_38514" data-name="Path 38514" d="M549.129,1498.431a187.4,187.4,0,0,1-21.863,32.591,113,113,0,0,1-29.723,24.9c-13.848,7.874-29.335,12.142-45.061,14.2a259,259,0,0,1-28.9,1.91q-4.054,1.169-8.143,2.219a115.139,115.139,0,0,0,148.232-105.192C559.062,1478.966,554.359,1488.834,549.129,1498.431Z" transform="translate(-332.55 -1354.041)" fill="#d6d1b4"/>
  </g>
  <g id="Component_3_1" data-name="Component 3 – 1" transform="translate(51.838 28)">
    <g id="Group_402" data-name="Group 402" transform="translate(-48.651 -27.887)">
      <g id="Group_386" data-name="Group 386" transform="translate(63.164 152.057)">
        <path id="Path_38515" data-name="Path 38515" d="M449.276,1656.072c.5-6.249-1.782-14.362-2.737-20.587-1.015-6.615-2.4-13.394-5.761-19.01a49.293,49.293,0,0,0-12.749-13.765,46.556,46.556,0,0,0-14.148-7.754c-9.757-3.015-20.713-1.77-30.133,2.011a39.487,39.487,0,0,0-12.755,8.075c-6.24,6-10.73,14.094-13.935,22.674-2.791,7.474-6.386,17.624-5.687,25.929,0,.037.007.072.01.109a115.323,115.323,0,0,0,97.791,3.222c.041-.284.077-.575.1-.875Zm-91.306-1.906,0-.014.013.048Z" transform="translate(-351.282 -1593.271)" fill="#ebebeb"/>
      </g>
      <path id="Path_38516" data-name="Path 38516" d="M521.544,1175.664a.6.6,0,0,0-.71-.147,5.766,5.766,0,0,0-2.617,2.149c.451-2.424,1.043-4.918.247-7.256-.922-2.708-2.468-3.873-4.435-5.88-.069-.07-3.818,12.183-3.885,12.113s2.568-13.363,2.508-13.393c-.92-1.238-2.552-1.4-4.147-1.653-.247-.039-2.229,13.741-2.474,13.675-.213-.057,1.309-13.959,1.1-14.03-1.578-.526-3.158-1.332-4.8-1.093-1.816.265-2.346,1.764-2.67,3.34-.386,1.879-.542,3.793-.79,5.693-.395,3.018-1.164,6-1.631,9.015-.523,3.38-.951,6.774-1.373,10.168-.351.157,17.023,2.969,19.537,2.34a21.221,21.221,0,0,1,7.795-.122C523.621,1190.637,524.017,1179.4,521.544,1175.664Z" transform="translate(-389.528 -1132.219)" fill="#2e2e2e"/>
      <path id="Path_38517" data-name="Path 38517" d="M516.454,1227.579a8.109,8.109,0,0,0-2.581-.814c-.906-.071-1.806.2-2.71.15a6.012,6.012,0,0,1-3.063-1.33c-1.053-.724-1.8-.329-2.938-.047a16.508,16.508,0,0,1-3.3.492,6.173,6.173,0,0,1-4.784-1.563c-.449,3.016-.833,6.041-1.21,9.067-.351.156,17.023,2.969,19.537,2.34a21.224,21.224,0,0,1,7.795-.122c.238.03.467-3.49.186-7.246C521.206,1229.639,518.685,1228.561,516.454,1227.579Z" transform="translate(-389.528 -1178.435)" fill="#262626"/>
      <path id="Path_38518" data-name="Path 38518" d="M444.87,1228.6c-6.982-3.46-16.368-2.683-23.677-.708-6.133,1.657-12.4,5.029-14.568,10.732a40.36,40.36,0,0,0-5.478-3.477c-10.47-5.455-23.43-4.673-33.992.116-.9.408-1.788.856-2.669,1.323-1.608-1.684-2.908-3.72-4.806-5.105a18.265,18.265,0,0,0-9.525-3.043c-4.367-.313-8.73.093-13.1-.011-4.053-.1-7.994-1.234-12.064-1.1a1.882,1.882,0,0,0-1.777,1.913c-.284,12.84,1.569,30.111,17.829,32.6-.135.329-.281.655-.407.985-2.607,6.87-1.655,13.8-2.359,20.913-.957,9.679-7.269,17.037-10.893,25.769-3.491,8.412-1.869,18.257,2.53,26.07a53.98,53.98,0,0,0,27.765,24.058c13.79,5.135,28.667,2.692,42.056-2.5,20.538-7.971,43.122-27.341,34.752-51.007-2.366-6.69-5.143-13.076-6.1-20.128-.907-6.655-.532-13.464-2.019-20.064-.142-.629-.308-1.247-.484-1.859,2.8-1.212,5.82-1.989,8.414-3.631a19.431,19.431,0,0,0,6.63-6.905c3.975-7.113,2.36-15.466,4.923-22.954A1.791,1.791,0,0,0,444.87,1228.6Z" transform="translate(-268.939 -1178.61)" fill="#fff"/>
      <path id="Path_38519" data-name="Path 38519" d="M438.67,1457.935a35.015,35.015,0,0,0-12.36-10.1c-6.81-3.425-14.433-5.215-21.917-6.42a151.488,151.488,0,0,0-23.844-2.367,90.847,90.847,0,0,0-29.825,5.085,44.148,44.148,0,0,0-12.343,6.244c-1.948,3.8-4.067,7.536-5.663,11.557-3.459,8.721-1.852,18.927,2.507,27.027,5.97,11.094,15.706,20.341,27.51,24.941,13.664,5.324,28.4,2.791,41.669-2.6,20.35-8.264,42.726-28.344,34.433-52.879C438.782,1458.262,438.726,1458.1,438.67,1457.935Z" transform="translate(-273.778 -1331.485)" fill="#424242"/>
      <path id="Path_38520" data-name="Path 38520" d="M400.84,1472.216c16.212,7.964,40.5,8.061,56.791.1,4.787-2.341,10.662-6.987,8.657-11.932-1.273-3.14-5.264-4.979-9.054-6.261a91.154,91.154,0,0,0-39.6-4c-7.627.916-15.6,3.094-20.115,8.115C392.952,1463.318,394.733,1469.216,400.84,1472.216Z" transform="translate(-318.762 -1338.05)" fill="#4a4a4a"/>
      <path id="Path_38521" data-name="Path 38521" d="M471.326,1476.238c-.055-.164-.112-.327-.168-.491a35.015,35.015,0,0,0-12.36-10.1q-1.287-.647-2.611-1.219c2.766,3.468,4.042,8.311,4.967,12.443,1.419,6.346,1.994,12.906-.568,19.046-2.393,5.735-6.57,10.7-10.826,15.154a46.12,46.12,0,0,1-13.719,10.2,52.017,52.017,0,0,1-17.523,4.186,88,88,0,0,1-17.891-.306,105.45,105.45,0,0,1-23.492-5.56,51.7,51.7,0,0,0,18.089,12.119c13.664,5.324,28.4,2.791,41.67-2.6C457.242,1520.852,479.618,1500.772,471.326,1476.238Z" transform="translate(-306.205 -1349.365)" fill="#3b3b3b"/>
      <g id="Group_390" data-name="Group 390" transform="translate(83.398 96.428)">
        <g id="Group_389" data-name="Group 389">
          <g id="Group_387" data-name="Group 387">
            <path id="Path_38522" data-name="Path 38522" d="M428.258,1400.931a4.2,4.2,0,0,0-5.063-3.413c-3.869.769-4.531,4.087-3.894,6.711.32,1.319,2.347,5.9,4.47,5.848C426.6,1410.007,428.673,1402.665,428.258,1400.931Z" transform="translate(-419.09 -1397.417)" fill="#4f4949"/>
            <path id="Path_38523" data-name="Path 38523" d="M426.57,1402.842c-.97-.259-1.667.61-1.948,1.308a2.76,2.76,0,0,0,.12,2.313c.023.05.048.1.076.147.013.024.023.047.036.071a.555.555,0,0,0,.094.12,1.719,1.719,0,0,0,.137.157.669.669,0,0,0,.627.1c.5-.206.523-.519.643-.956a6.077,6.077,0,0,1,.64-1.321C427.356,1404.132,427.6,1403.116,426.57,1402.842Z" transform="translate(-422.832 -1401.192)" fill="#fff"/>
            <path id="Path_38524" data-name="Path 38524" d="M428.107,1421.187a.563.563,0,1,0,.072,1.119A.563.563,0,1,0,428.107,1421.187Z" transform="translate(-425.012 -1414.097)" fill="#fff"/>
          </g>
          <g id="Group_388" data-name="Group 388" transform="translate(50.754 1.884)">
            <path id="Path_38525" data-name="Path 38525" d="M598.46,1407.25a4.205,4.205,0,0,0-5.063-3.413c-3.869.769-4.531,4.087-3.894,6.711.321,1.319,2.347,5.9,4.47,5.848C596.8,1416.326,598.874,1408.984,598.46,1407.25Z" transform="translate(-589.291 -1403.736)" fill="#4f4949"/>
            <path id="Path_38526" data-name="Path 38526" d="M596.771,1409.161c-.971-.259-1.667.61-1.949,1.308a2.76,2.76,0,0,0,.12,2.313c.023.05.048.1.076.147.013.024.023.047.037.071a.552.552,0,0,0,.093.12,1.71,1.71,0,0,0,.137.157.669.669,0,0,0,.627.1c.5-.206.523-.519.643-.956a6.086,6.086,0,0,1,.64-1.321C597.557,1410.451,597.8,1409.435,596.771,1409.161Z" transform="translate(-593.033 -1407.511)" fill="#fff"/>
            <path id="Path_38527" data-name="Path 38527" d="M598.308,1427.506a.563.563,0,1,0,.072,1.119A.563.563,0,1,0,598.308,1427.506Z" transform="translate(-595.213 -1420.416)" fill="#fff"/>
          </g>
        </g>
      </g>
      <path id="Path_38528" data-name="Path 38528" d="M367.2,1528.568a4.308,4.308,0,0,0,5.5,1.574c4.064-1.731,2.462-9.258-2.156-8.556C367.743,1522.012,365.829,1526.12,367.2,1528.568Z" transform="translate(-299.164 -1388.858)" fill="#2e2e2e"/>
      <path id="Path_38529" data-name="Path 38529" d="M646.806,1543.666a4.308,4.308,0,0,0,5.491,1.618c4.078-1.7,2.536-9.238-2.087-8.573C647.4,1537.114,645.455,1541.208,646.806,1543.666Z" transform="translate(-494.978 -1399.575)" fill="#2e2e2e"/>
      <path id="Path_38530" data-name="Path 38530" d="M367.2,1528.569a4.035,4.035,0,0,0,3.89,1.954,4.4,4.4,0,0,1-2.42-4.485,5.594,5.594,0,0,1,3.066-4.447,3.71,3.71,0,0,0-1.189,0C367.743,1522.013,365.829,1526.122,367.2,1528.569Z" transform="translate(-299.169 -1388.859)" fill="#262626"/>
      <path id="Path_38531" data-name="Path 38531" d="M659.048,1542.347a5.232,5.232,0,0,1-2.711,3.3,4.881,4.881,0,0,0,2.956-.254c3.726-1.552,2.759-7.978-.964-8.567A8.092,8.092,0,0,1,659.048,1542.347Z" transform="translate(-501.97 -1399.686)" fill="#262626"/>
      <path id="Path_38532" data-name="Path 38532" d="M643.539,1255.122c-1.42-1.728-3.361-.817-5.125-.187-3.472,1.24-6.909,2.584-10.421,3.71-1.669.535-4.4,1.036-4.405,3.331-.009,2.518,2.56,4.152,3.744,6.1a42.887,42.887,0,0,1,2.166,5.065c.772,1.755,3.086,8,6,6.508,5.614-2.882,8.984-11.467,9.4-17.336C645.054,1260.046,645.076,1256.994,643.539,1255.122Z" transform="translate(-478.98 -1199.53)" fill="#f0bcbd"/>
      <path id="Path_38533" data-name="Path 38533" d="M369.737,1256.608c-1.826-2.492-7.025-3.232-9.486-3.439-2.9-.244-5.868-.035-8.738-.595-1.9-.371-6.108-3.541-7.79-2.433-1.095.721-.884,2.359-.544,3.625,1.425,5.312,2.967,10.879,6.234,15.391,1.774,2.45,6.02,7.987,9.661,5.966,3.928-2.18,4.241-9.032,7.606-12.038,1.377-1.23,3.927-2.729,3.686-4.893A3.259,3.259,0,0,0,369.737,1256.608Z" transform="translate(-282.44 -1196.54)" fill="#f0bcbd"/>
      <path id="Path_38534" data-name="Path 38534" d="M643.072,1317.089c.033.079.066.161.1.239a26.179,26.179,0,0,0,2.547,4.978C644.841,1320.561,643.872,1318.85,643.072,1317.089Z" transform="translate(-492.689 -1244.007)" fill="#cfa2a3"/>
      <path id="Path_38535" data-name="Path 38535" d="M628.151,1263.129c1.371-2.859,4.443-4.693,7.131-6.141,1.927-1.038,3.938-1.9,5.924-2.817a11.437,11.437,0,0,0-2.791.8c-3.472,1.24-6.909,2.583-10.421,3.71-1.67.535-4.4,1.036-4.406,3.331-.009,2.518,2.56,4.152,3.744,6.1a12.443,12.443,0,0,1,.788,1.573A8.855,8.855,0,0,1,628.151,1263.129Z" transform="translate(-478.994 -1199.501)" fill="#cfa2a3"/>
      <path id="Path_38536" data-name="Path 38536" d="M376.689,1258.537a3.258,3.258,0,0,0-.629-1.584c-1.826-2.492-7.025-3.233-9.486-3.439-2.9-.244-5.868-.036-8.738-.595-1.376-.268-3.96-2-5.921-2.521A99.555,99.555,0,0,0,364.288,1256c3.258,1.257,6.3,2.761,6.994,6.521a12.116,12.116,0,0,1,.177,2.83A8.355,8.355,0,0,1,373,1263.43C374.38,1262.2,376.93,1260.7,376.689,1258.537Z" transform="translate(-288.752 -1196.825)" fill="#cfa2a3"/>
      <g id="Group_391" data-name="Group 391" transform="translate(111.41 160.655)">
        <path id="Path_38537" data-name="Path 38537" d="M543.088,1617.818c.388.406-2.256,3.731-6.7,6.918a41.91,41.91,0,0,1-7.562,4.321,39.948,39.948,0,0,1-7.87,2.544c-3.473.694-5.556.583-6.719.257s-1.45-.864-1.47-1.468.223-1.165,1.264-1.62a36.62,36.62,0,0,1,6.035-1.454,57.177,57.177,0,0,0,7.274-2.007,58.88,58.88,0,0,0,7.428-3.209C539.336,1619.774,542.659,1617.339,543.088,1617.818Z" transform="translate(-512.77 -1617.757)" fill="#2e2e2e"/>
      </g>
      <g id="Group_392" data-name="Group 392" transform="translate(111.804 160.701)">
        <path id="Path_38538" data-name="Path 38538" d="M543.767,1618.6c.252-.406.341-.683.246-.782-.429-.478-3.752,1.957-8.316,4.283a58.871,58.871,0,0,1-7.428,3.209,57.179,57.179,0,0,1-7.274,2.007,36.618,36.618,0,0,0-6.035,1.454,2.689,2.689,0,0,0-.872.563C524.566,1629.05,536.215,1626.256,543.767,1618.6Z" transform="translate(-514.088 -1617.757)" fill="#262626"/>
      </g>
      <g id="Group_393" data-name="Group 393" transform="translate(67.479 51.405)">
        <path id="Path_38539" data-name="Path 38539" d="M516.1,1244.7c-.133.632-.249,1.363-.35,2.2-.209,1.67-.332,3.765-.553,6.305-.184,1.878-.29,4.046-.317,6.221-.032,2.191,0,4.454.024,6.712.032,2.278,0,4.459-.034,6.784-.026,2.286-.024,4.524-.008,6.643.038,4.238.114,8,.261,10.721s.386,4.406.839,4.458,1.069-1.548,1.706-4.229,1.27-6.441,1.826-10.66c.28-2.109.547-4.332.807-6.59.268-2.218.515-4.667.647-6.96.147-2.313.241-4.557.358-6.659.115-2.118.25-4.027.428-5.852a41.973,41.973,0,0,0,.063-6.782c-.064-.852-.151-1.58-.255-2.207l-.081-.447a.825.825,0,0,1-.054-.155,37.866,37.866,0,0,0-5.2.012l-.007.033Z" transform="translate(-470.372 -1244.115)" fill="#2e2e2e"/>
        <path id="Path_38540" data-name="Path 38540" d="M555.584,1256.419c.027.852.055,1.724.083,2.611s.054,1.711.054,2.592c.033,3.482-.151,7.151-.27,10.512a80.3,80.3,0,0,0,.024,8.608c.173,2.2.525,3.552.972,3.581s.966-1.244,1.569-3.324,1.322-4.977,2.04-8.292a86.43,86.43,0,0,0,1.707-10.841c.086-.932.133-1.9.172-2.8s.053-1.762.079-2.615c.043-1.707.065-3.329.064-4.807,0-.7-.011-1.354-.031-1.964a31.816,31.816,0,0,0-6.378-2.279c-.1,1.165-.156,2.556-.155,4.221C555.515,1253.1,555.539,1254.716,555.584,1256.419Z" transform="translate(-498.795 -1246.421)" fill="#2e2e2e"/>
        <path id="Path_38541" data-name="Path 38541" d="M472.6,1262.04c.212,4.015.5,8.161.892,11.9.76,7.484,2.054,13.267,2.957,13.185s1.252-5.891,1.683-13.3c.2-3.708.4-7.828.516-11.85.058-2,.107-4,.1-5.925s-.047-3.713-.1-5.345c-.025-.707-.056-1.363-.091-1.981a42.565,42.565,0,0,0-6.466,2.29c.056,1.614.141,3.367.231,5.2C472.408,1258.081,472.5,1260.047,472.6,1262.04Z" transform="translate(-440.362 -1247.347)" fill="#2e2e2e"/>
        <path id="Path_38542" data-name="Path 38542" d="M599.665,1366.872c-2-.121-3.291-.269-3.479.163-.177.394.816,1.366,2.827,2.307a26.409,26.409,0,0,0,8.4,2.075,64.094,64.094,0,0,0,10.5.028,54,54,0,0,0-.851-5.963c-3.249.549-6.614,1.035-9.594,1.295A51.583,51.583,0,0,1,599.665,1366.872Z" transform="translate(-527.441 -1329.29)" fill="#2e2e2e"/>
        <path id="Path_38543" data-name="Path 38543" d="M640.143,1402.379c-1.446.026-2.4.117-2.559.549s.542,1.155,1.9,1.921a27.105,27.105,0,0,0,5.593,2.169l1.7.475c.264.072.558.144.859.212-.129-1.739-.219-3.482-.316-5.225l-1.524-.047C643.541,1402.388,641.591,1402.363,640.143,1402.379Z" transform="translate(-556.492 -1355.181)" fill="#2e2e2e"/>
        <path id="Path_38544" data-name="Path 38544" d="M652.475,1440.145c-1.428.192-2.267.643-2.265,1.086,0,.462.754.88,1.9,1.443s2.732,1.294,4.719,2.044c.482.177.99.353,1.526.516-.454-1.672-.844-3.365-1.144-5.092A24.851,24.851,0,0,0,652.475,1440.145Z" transform="translate(-565.369 -1381.608)" fill="#2e2e2e"/>
        <path id="Path_38545" data-name="Path 38545" d="M385.817,1362.773c.565-.27,1.11-.545,1.628-.823a12.028,12.028,0,0,0,1.6-.986,18.181,18.181,0,0,0,2.161-1.891c1.068-1.1,1.709-1.811,1.55-2.241s-1.274-.449-2.85.041c-.78.231-1.658.565-2.549.832a12.479,12.479,0,0,1-1.357.327l-1.673.344c-2.3.463-4.84.95-7.255,1.265-.493.066-.982.123-1.468.18a45.217,45.217,0,0,0-.723,6.5c1.106-.2,2.247-.449,3.394-.756A44.043,44.043,0,0,0,385.817,1362.773Z" transform="translate(-372.143 -1322.994)" fill="#2e2e2e"/>
        <path id="Path_38546" data-name="Path 38546" d="M378.691,1401.7c.785-.984.969-1.821.657-2.131-.326-.331-1.046-.193-2.068,0l-3.277.686c-.042,1.726-.085,3.461-.193,5.206.426-.253.848-.507,1.272-.773A14.185,14.185,0,0,0,378.691,1401.7Z" transform="translate(-371.392 -1353.071)" fill="#2e2e2e"/>
        <path id="Path_38547" data-name="Path 38547" d="M370.99,1438.13c.867-.935,1.2-1.717.947-2.083s-1.059-.331-2.2-.146c-.657.113-1.443.27-2.312.45a35.851,35.851,0,0,1-1.728,5.559c.486-.27.956-.541,1.428-.824A17.888,17.888,0,0,0,370.99,1438.13Z" transform="translate(-365.7 -1378.613)" fill="#2e2e2e"/>
      </g>
      <path id="Path_38548" data-name="Path 38548" d="M656.189,1289.712a23.352,23.352,0,0,1-7.682,5.021,54.96,54.96,0,0,1-8.6,1.807c2.628,5.234,4.787,10.685,7.417,15.918.556,1.106,1.117,2.214,1.668,3.327a76.144,76.144,0,0,0-1.3-11.908c-.14-.652-.3-1.293-.48-1.927,2.778-1.256,5.766-2.062,8.337-3.764a19.777,19.777,0,0,0,6.569-7.159c2.143-4.012,2.646-8.405,3.068-12.827A41.14,41.14,0,0,1,656.189,1289.712Z" transform="translate(-490.391 -1216.687)" fill="#2e2e2e" opacity="0.1"/>
      <path id="Path_38549" data-name="Path 38549" d="M354.23,1343.789c1.469-1.9,3-3.761,4.525-5.623.766-.936,1.576-1.806,2.406-2.684a9.331,9.331,0,0,0,1.895-2.472c-2.29-.151-4.557-.511-6.83-.834a56.745,56.745,0,0,1-6.719-1.081,26.713,26.713,0,0,1-4.44-1.652,17.672,17.672,0,0,0,11.167,6.155c-.133.34-.279.678-.4,1.021A30.823,30.823,0,0,0,354.23,1343.789Z" transform="translate(-283.967 -1252.825)" fill="#2e2e2e" opacity="0.1"/>
      <g id="Group_394" data-name="Group 394" transform="translate(63.368 171.99)">
        <path id="Path_38550" data-name="Path 38550" d="M567.7,1665.268l-2.812,1.775c-1.861,1.169-3.687,2.288-5.437,3.3s-3.425,1.922-4.964,2.7-2.946,1.407-4.135,1.938c-2.379,1.038-3.9,1.634-3.834,2.039.06.371,1.744.517,4.454.1a36.455,36.455,0,0,0,4.693-1.1,57.2,57.2,0,0,0,5.584-2.05c1.95-.825,3.961-1.778,5.967-2.793,1-.509,2-1.024,3.007-1.557s2.006-1.079,2.989-1.632c1.864-1.047,3.674-2.112,5.388-3.151q-.384-.734-.808-1.445c-.681-1.138-1.412-2.226-2.182-3.272-1.652,1.09-3.373,2.226-5.121,3.362Q569.1,1664.377,567.7,1665.268Z" transform="translate(-488.501 -1660.113)" fill="#3b3b3b"/>
        <path id="Path_38551" data-name="Path 38551" d="M588.221,1714.564c-.932.447-1.854.875-2.771,1.3-.946.438-1.85.879-2.725,1.308-1.743.856-3.36,1.658-4.835,2.332s-2.8,1.223-3.934,1.648-2.06.714-2.711.973c-.651.229-1.023.44-1.017.638s.392.371,1.119.509a13.016,13.016,0,0,0,3.089.052,29.162,29.162,0,0,0,4.507-.8c1.668-.42,3.463-.989,5.319-1.611l2.813-.946c.973-.325,1.974-.667,2.97-1.03,2-.72,4.01-1.511,5.974-2.334,1.314-.551,2.606-1.118,3.858-1.689-.314-1.884-.671-3.771-1.108-5.63-1.594.83-3.256,1.684-4.95,2.536C591.967,1712.749,590.083,1713.677,588.221,1714.564Z" transform="translate(-505.143 -1694.62)" fill="#3b3b3b"/>
        <path id="Path_38552" data-name="Path 38552" d="M617.333,1763.967l-1.2.58-1.205.573c-.835.393-1.621.794-2.383,1.184-1.517.781-2.913,1.526-4.181,2.162s-2.4,1.175-3.369,1.605-1.758.743-2.31,1.02c-.553.252-.865.478-.849.675s.363.354,1.008.465a11.188,11.188,0,0,0,2.714-.01,26.923,26.923,0,0,0,3.93-.766c1.454-.381,3.015-.889,4.627-1.43.8-.267,1.624-.549,2.441-.81l1.291-.424,1.317-.455c1.763-.628,3.551-1.339,5.288-2.135l.3-.14c-.254-1.84-.593-3.713-.948-5.554q-.846.505-1.729,1C620.539,1762.36,618.937,1763.183,617.333,1763.967Z" transform="translate(-527.324 -1730.57)" fill="#3b3b3b"/>
        <path id="Path_38553" data-name="Path 38553" d="M376.909,1686.512l1.731.863c1.207.608,2.453,1.2,3.731,1.77a56.411,56.411,0,0,0,7.967,2.873c1.357.371,2.718.681,4.061.929s2.658.434,3.942.576a69.337,69.337,0,0,0,12.9.163c3.232-.271,5.18-.668,5.181-1.057s-1.955-.754-5.128-1.167-7.561-.9-12.31-1.928c-1.187-.257-2.391-.556-3.6-.886s-2.42-.72-3.628-1.152a60.961,60.961,0,0,1-7.129-3.109c-1.161-.59-2.307-1.208-3.433-1.835l-1.747-.958c-.583-.308-1.16-.62-1.731-.913l-.263-.135c-.846,1.657-1.631,3.356-2.359,5.086l.116.055Z" transform="translate(-368.197 -1674.451)" fill="#3b3b3b"/>
        <path id="Path_38554" data-name="Path 38554" d="M371.408,1727.611c2.677.42,5.391.754,8.049,1.039l1.951.212,1.918.224c1.277.153,2.537.309,3.777.446,2.477.278,4.855.484,7.026.537a35.779,35.779,0,0,0,5.762-.269l.594-.081c.193-.03.38-.07.562-.1q.545-.106,1.02-.209c.632-.174,1.168-.327,1.6-.489.854-.354,1.285-.633,1.241-.826-.1-.422-2.013-.235-5.081-.514-1.533-.12-3.355-.339-5.389-.688s-4.278-.817-6.675-1.344l-3.709-.809c-.638-.134-1.283-.27-1.939-.4l-1.966-.375c-2.6-.483-5.224-.984-7.79-1.53s-5.076-1.123-7.436-1.738q-1.347-.358-2.626-.725c-.615,1.719-1.234,3.527-1.809,5.384q1.508.406,3.1.778C366.091,1726.7,368.731,1727.193,371.408,1727.611Z" transform="translate(-357.944 -1702.12)" fill="#3b3b3b"/>
        <path id="Path_38555" data-name="Path 38555" d="M361.214,1766.1l.932.231.9.212c1.2.282,2.417.556,3.629.81a68.651,68.651,0,0,0,7.195,1.155c1.17.113,2.313.191,3.417.216.276.01.55.007.82.01s.538,0,.8,0l.785-.019c.264-.01.535-.028.8-.043a25.441,25.441,0,0,0,2.864-.4c.867-.167,1.651-.349,2.355-.516,1.408-.339,2.515-.613,3.294-.819a6.829,6.829,0,0,0,.9-.29c.209-.093.322-.189.325-.287s-.1-.2-.317-.3a4.224,4.224,0,0,0-.946-.277,19.342,19.342,0,0,0-3.515-.24c-1.466-.006-3.183.071-4.969-.07l-.674-.068-.72-.089c-.242-.027-.487-.064-.734-.1s-.5-.068-.748-.111c-1.006-.158-2.047-.359-3.113-.587-2.134-.465-4.369-1.07-6.658-1.757-1.144-.342-2.3-.7-3.469-1.064l-.877-.273-.84-.269q-.831-.274-1.655-.571c-2.194-.793-4.331-1.705-6.37-2.628q-.846-.383-1.668-.767a49.833,49.833,0,0,0-.986,5.725,72.325,72.325,0,0,0,7.389,2.676Q360.277,1765.855,361.214,1766.1Z" transform="translate(-351.97 -1728.236)" fill="#3b3b3b"/>
      </g>
      <g id="Group_395" data-name="Group 395" transform="translate(63.164 152.057)" opacity="0.18">
        <path id="Path_38556" data-name="Path 38556" d="M409.338,1621.289a69.856,69.856,0,0,0,20.73,4.663c7.922.463,15.758-1.508,23.648-1.918,3.618-.188,7.274-.107,10.892.05a72.554,72.554,0,0,1,10.188,1.083q.616.115,1.228.246a36.654,36.654,0,0,0-3.7-8.937,49.3,49.3,0,0,0-12.749-13.765,46.556,46.556,0,0,0-14.148-7.754c-9.757-3.015-20.712-1.77-30.133,2.011a39.483,39.483,0,0,0-12.755,8.075,47.425,47.425,0,0,0-6.308,7.555C398.847,1617.192,404.592,1619.474,409.338,1621.289Z" transform="translate(-382.824 -1593.271)"/>
        <path id="Path_38557" data-name="Path 38557" d="M605.688,1718.826c-3.077-2.5-6.828-3.571-10.639-2.119a10.769,10.769,0,0,0-5.295,4.014,32.176,32.176,0,0,0-2.948,5.914,33.141,33.141,0,0,0-2.226,7.135,42.689,42.689,0,0,0-.461,8.183c.082,3.068.36,6.129.556,9.192a114.249,114.249,0,0,0,27.885-8c.041-.284.077-.575.1-.875l0-.03c.446-5.557-1.31-12.587-2.376-18.454A26.829,26.829,0,0,0,605.688,1718.826Z" transform="translate(-514.671 -1679.438)"/>
        <path id="Path_38558" data-name="Path 38558" d="M379.621,1738.51c.363-4.939-.134-9.944-.209-14.888-.067-4.4-1.031-8.787-4.007-12.162-2.29-2.6-5.321-3.5-8.7-3.5-3.255.006-6.481.491-9.736.481-2.778,7.45-6.291,17.475-5.6,25.694,0,.037.007.072.01.109a114.25,114.25,0,0,0,27.333,9.834A37.837,37.837,0,0,0,379.621,1738.51Z" transform="translate(-351.282 -1673.76)"/>
        <path id="Path_38559" data-name="Path 38559" d="M373.7,1797.448l0-.014.013.048Z" transform="translate(-367.014 -1736.552)"/>
      </g>
      <g id="Group_398" data-name="Group 398" transform="translate(48.651 185.028)">
        <path id="Path_38560" data-name="Path 38560" d="M351.677,1706.325a8.811,8.811,0,0,0-7.578-2.4c-6.531.783-12.122,3.771-15.74,10.533-1.285,2.4-1.662,6.378.272,8.646a6.04,6.04,0,0,0,1.76,1.31,36.83,36.83,0,0,0,7.257,2.958c2.849.855,5.645,1.95,8.456,2.976,2.635.962,5.536,2.53,8.055.565,2.189-1.707,3.033-5.22,3.4-8.189A19.6,19.6,0,0,0,351.677,1706.325Z" transform="translate(-320.181 -1703.836)" fill="#e3e3e3"/>
        <g id="Group_396" data-name="Group 396" transform="translate(8.839 0.275)">
          <path id="Path_38561" data-name="Path 38561" d="M362.274,1707.661c.4.125.757.214,1.112.3.709.173,1.387.319,2.02.457,1.268.27,2.342.532,3.156.722s1.372.3,1.585.06,0-.833-.636-1.565a8.7,8.7,0,0,0-1.238-1.125,15.854,15.854,0,0,0-1.683-1.1c-.389-.224-.793-.44-1.2-.651a21.542,21.542,0,0,0-5.907,1.858c.52.216,1.074.443,1.669.663C361.511,1707.413,361.885,1707.543,362.274,1707.661Z" transform="translate(-351.615 -1704.76)" fill="#3b3b3b"/>
          <path id="Path_38562" data-name="Path 38562" d="M405.131,1729.977a6.8,6.8,0,0,0-1.736-.126,2.85,2.85,0,0,0-1.176.323c-.261.164-.373.326-.354.482s.166.3.375.439.49.307.814.5c.328.211.7.451,1.125.752s.887.653,1.394,1.039,1.055.807,1.677,1.237c.307.214.647.432,1.018.644l.876.524c.252.154.5.309.749.463a19.5,19.5,0,0,0-1.419-5.2c-.455-.181-.922-.365-1.387-.529A14.066,14.066,0,0,0,405.131,1729.977Z" transform="translate(-381.357 -1722.36)" fill="#3b3b3b"/>
          <path id="Path_38563" data-name="Path 38563" d="M336.977,1726.686c.944.155,1.906.321,2.9.467,1.041.153,2.019.222,2.918.278s1.723.1,2.459.154,1.388.118,1.936.187c1.1.125,1.818.258,1.993-.019.082-.134.009-.354-.214-.651a3.73,3.73,0,0,0-.455-.473,6.7,6.7,0,0,0-.685-.517,11.253,11.253,0,0,0-1.967-1.009c-.765-.313-1.619-.591-2.5-.853s-1.783-.511-2.635-.79c-.9-.292-1.855-.6-2.814-.88-.55-.159-1.1-.308-1.659-.443a20.331,20.331,0,0,0-3.157,4.006c.381.04.775.082,1.186.137C335.13,1726.389,336.036,1726.53,336.977,1726.686Z" transform="translate(-333.097 -1716.955)" fill="#3b3b3b"/>
          <path id="Path_38564" data-name="Path 38564" d="M404.2,1750.346c-.412.479.654,2.143,2.23,4.024a55.4,55.4,0,0,0,4.325,4.553,23.544,23.544,0,0,0,.725-3.661c.057-.452.094-.9.117-1.35-1.015-.719-2.078-1.415-3.074-2C406.408,1750.657,404.607,1749.868,404.2,1750.346Z" transform="translate(-382.931 -1736.653)" fill="#3b3b3b"/>
        </g>
        <g id="Group_397" data-name="Group 397" transform="translate(0 10.673)">
          <path id="Path_38565" data-name="Path 38565" d="M338.114,1749.27a8.5,8.5,0,0,0-2.913-4.039,17.449,17.449,0,0,0-4.588-2.148c-4.183-1.486-8.341-3.686-12.907-3.438-4.462.242-7.426,3.889-9.2,7.633a68.706,68.706,0,0,0-2.531,6.434c-.379.874-.722,1.763-1.016,2.67-.2.513-.382,1.031-.542,1.553a11.577,11.577,0,0,0-.947,3.29c-.285,4.171,4.649,4.5,7.669,4.729a42.111,42.111,0,0,1,6.4,1.062c2.182.511,4.336,1.28,6.549,1.63,1.123.177,2.26.261,3.378.472q.195.037.389.078c.045.016.274.08.346.108l1.195.475c1.566.62,3.586,1.379,5.124.276a7.2,7.2,0,0,0,2.25-3.761c.443-1.352.783-2.74,1.142-4.116C338.993,1758.026,339.573,1753.4,338.114,1749.27Z" transform="translate(-303.457 -1739.626)" fill="#3b3b3b"/>
          <path id="Path_38566" data-name="Path 38566" d="M307.288,1758.366a77.9,77.9,0,0,1,5.131-7.972c1.609-2.166,3.264-4.353,5.671-5.674a25.318,25.318,0,0,1,10.047-2.575c-3.364-1.32-6.767-2.7-10.433-2.5-4.462.242-7.426,3.889-9.2,7.633a68.814,68.814,0,0,0-2.531,6.434c-.379.874-.722,1.763-1.016,2.67-.2.513-.382,1.031-.542,1.553a11.578,11.578,0,0,0-.947,3.29,3.47,3.47,0,0,0,.834,2.684C305.265,1762.043,306.251,1760.191,307.288,1758.366Z" transform="translate(-303.457 -1739.626)" fill="#474747"/>
          <path id="Path_38567" data-name="Path 38567" d="M383.7,1766.24a9.06,9.06,0,0,0-1.3-2.433,61.135,61.135,0,0,0-.74,6.531,42.321,42.321,0,0,1-1.906,8.492,6.407,6.407,0,0,1-1.383,2.684,5.7,5.7,0,0,1-2.208,1.2c-2.582.891-5.164,1.785-7.753,2.658.418.093.838.178,1.26.245,1.123.177,2.26.261,3.378.472.13.025.26.051.389.078.045.016.274.08.346.109l1.195.475c1.566.62,3.586,1.379,5.124.276a7.2,7.2,0,0,0,2.25-3.761c.443-1.352.783-2.74,1.142-4.116C384.575,1775,385.155,1770.375,383.7,1766.24Z" transform="translate(-349.039 -1756.596)" fill="#363636"/>
          <path id="Path_38568" data-name="Path 38568" d="M341.62,1777.558c.538-3.508,2.136-7.247,1.724-10.853-4.1,5.8-7.061,12.3-10.765,18.347a45.389,45.389,0,0,1,5.4.967c.71.166,1.416.36,2.123.558C340.591,1783.569,341.159,1780.572,341.62,1777.558Z" transform="translate(-323.895 -1758.63)" fill="#2e2e2e"/>
        </g>
      </g>
      <g id="Group_401" data-name="Group 401" transform="translate(126.548 188.263)">
        <path id="Path_38569" data-name="Path 38569" d="M581.349,1715.267a8.811,8.811,0,0,0-7.906.83c-5.672,3.332-9.6,8.307-10.21,15.951-.216,2.715,1.029,6.51,3.709,7.814a6.031,6.031,0,0,0,2.137.5,36.779,36.779,0,0,0,7.835-.193c2.953-.357,5.954-.472,8.94-.656,2.8-.173,6.085.1,7.608-2.7,1.323-2.441.691-6-.157-8.867A19.6,19.6,0,0,0,581.349,1715.267Z" transform="translate(-563.208 -1714.685)" fill="#e3e3e3"/>
        <g id="Group_399" data-name="Group 399" transform="translate(0.167 2.108)">
          <path id="Path_38570" data-name="Path 38570" d="M581.09,1725.66c.419-.047.779-.107,1.139-.17.72-.125,1.4-.263,2.034-.389,1.27-.26,2.359-.449,3.182-.6s1.378-.273,1.477-.579-.331-.765-1.209-1.18a8.725,8.725,0,0,0-1.584-.536,15.785,15.785,0,0,0-1.983-.334c-.446-.05-.9-.086-1.36-.117a21.538,21.538,0,0,0-4.67,4.066c.563-.01,1.162-.024,1.8-.061C580.291,1725.738,580.685,1725.707,581.09,1725.66Z" transform="translate(-573.837 -1721.754)" fill="#3b3b3b"/>
          <path id="Path_38571" data-name="Path 38571" d="M628.226,1730.935a6.816,6.816,0,0,0-1.642.579,2.849,2.849,0,0,0-.948.767c-.174.255-.212.448-.131.583a.724.724,0,0,0,.519.253c.25.046.572.085.947.135s.825.131,1.332.239,1.074.243,1.694.394,1.29.318,2.032.463c.368.074.766.137,1.191.183l1.013.13q.439.06.871.125a19.5,19.5,0,0,0-3.38-4.194c-.49.017-.991.035-1.483.07A14.065,14.065,0,0,0,628.226,1730.935Z" transform="translate(-607.067 -1727.956)" fill="#3b3b3b"/>
          <path id="Path_38572" data-name="Path 38572" d="M567.542,1753.146c.927-.236,1.876-.468,2.845-.733,1.015-.276,1.939-.6,2.786-.912s1.618-.6,2.315-.843,1.319-.448,1.849-.6c1.056-.324,1.77-.491,1.819-.815.022-.156-.134-.328-.456-.511a3.737,3.737,0,0,0-.607-.251,6.705,6.705,0,0,0-.835-.2,11.229,11.229,0,0,0-2.206-.137c-.826.019-1.721.106-2.632.218s-1.838.245-2.732.33c-.94.092-1.942.19-2.931.32-.568.073-1.136.16-1.7.258a20.336,20.336,0,0,0-1.29,4.934c.365-.116.744-.235,1.141-.349C565.731,1753.613,566.618,1753.38,567.542,1753.146Z" transform="translate(-563.769 -1740.269)" fill="#3b3b3b"/>
          <path id="Path_38573" data-name="Path 38573" d="M635.13,1752.615c-.186.6,1.457,1.7,3.654,2.8a55.384,55.384,0,0,0,5.786,2.442,23.588,23.588,0,0,0-.8-3.646c-.129-.437-.275-.865-.433-1.285-1.219-.253-2.471-.465-3.619-.607C637.283,1752.016,635.316,1752.012,635.13,1752.615Z" transform="translate(-613.84 -1743.063)" fill="#3b3b3b"/>
        </g>
        <g id="Group_400" data-name="Group 400" transform="translate(0.222 12.869)">
          <path id="Path_38574" data-name="Path 38574" d="M591.9,1760.627a8.5,8.5,0,0,0-4.285-2.535,17.439,17.439,0,0,0-5.065-.133c-4.428.312-9.119-.04-13.2,2.014-3.992,2.008-5.25,6.536-5.377,10.677a68.7,68.7,0,0,0,.255,6.909c0,.952.044,1.9.137,2.853.026.548.062,1.1.125,1.64a11.586,11.586,0,0,0,.448,3.394c1.408,3.936,6.062,2.263,8.92,1.265a42.075,42.075,0,0,1,6.289-1.587c2.2-.4,4.486-.562,6.654-1.128,1.1-.287,2.176-.665,3.285-.918q.193-.044.388-.084c.047,0,.283-.036.36-.039l1.285-.043c1.683-.059,3.838-.172,4.806-1.8a7.2,7.2,0,0,0,.557-4.347c-.135-1.417-.379-2.824-.6-4.229C596.213,1768.3,594.894,1763.832,591.9,1760.627Z" transform="translate(-563.954 -1757.84)" fill="#3b3b3b"/>
          <path id="Path_38575" data-name="Path 38575" d="M567.293,1781.884a77.9,77.9,0,0,1,1.513-9.359c.608-2.629,1.25-5.3,2.926-7.469a25.319,25.319,0,0,1,8.178-6.381c-3.611.136-7.282.234-10.562,1.884-3.992,2.007-5.249,6.536-5.377,10.677a68.7,68.7,0,0,0,.255,6.909c0,.952.044,1.9.137,2.853.026.548.062,1.1.125,1.64a11.573,11.573,0,0,0,.448,3.394,3.469,3.469,0,0,0,1.838,2.126C566.91,1786.064,567.072,1783.971,567.293,1781.884Z" transform="translate(-563.954 -1758.426)" fill="#474747"/>
          <path id="Path_38576" data-name="Path 38576" d="M642.72,1763.16a9.079,9.079,0,0,0-2.164-1.71,61.221,61.221,0,0,0,1.935,6.282,42.342,42.342,0,0,1,1.651,8.545,6.406,6.406,0,0,1-.193,3.013,5.705,5.705,0,0,1-1.544,1.981q-3.014,2.775-6.041,5.538c.421-.083.839-.172,1.252-.28,1.1-.287,2.176-.665,3.285-.919q.194-.044.389-.084c.047,0,.283-.036.36-.038l1.285-.043c1.683-.059,3.838-.172,4.806-1.8a7.2,7.2,0,0,0,.557-4.347c-.135-1.417-.379-2.824-.6-4.229C647.029,1770.833,645.712,1766.365,642.72,1763.16Z" transform="translate(-614.771 -1760.373)" fill="#363636"/>
          <path id="Path_38577" data-name="Path 38577" d="M605.659,1793.406c-.911-3.431-.943-7.5-2.763-10.636-1.439,6.953-1.547,14.1-2.525,21.122a45.313,45.313,0,0,1,5.331-1.273c.717-.132,1.442-.237,2.169-.338C607.122,1799.327,606.442,1796.354,605.659,1793.406Z" transform="translate(-589.512 -1775.336)" fill="#2e2e2e"/>
        </g>
      </g>
    </g>
  </g>
</svg>
