<svg xmlns="http://www.w3.org/2000/svg" viewBox="0 0 75.57 71.09"><defs><style>.cls-1{isolation:isolate;}.cls-2,.cls-6{fill:#0d6c6f;}.cls-3{fill:#45cc95;}.cls-4{fill:#ffda95;}.cls-5{fill:#abcf56;}.cls-6{mix-blend-mode:multiply;opacity:0.25;}.cls-7{fill:#421c43;}.cls-8{fill:#f75e9d;}.cls-9{fill:#ccf094;}</style></defs><g class="cls-1"><g id="圖層_2" data-name="圖層 2"><g id="OBJECTS"><path class="cls-2" d="M0,59.18a5.93,5.93,0,0,1,2.38-4.79,8.75,8.75,0,0,1,1.52-1c.37-.19.36-.23.08-.58s-.51-.6-.74-.92a5.12,5.12,0,0,1-1-3A5.71,5.71,0,0,1,3.6,45.17,6.17,6.17,0,0,1,7.19,43a8,8,0,0,1,1.1-.1c.17,0,.23-.13.13-.27s-.15-.21-.23-.32a7,7,0,0,1-1.33-3.17,5.43,5.43,0,0,1,1.36-4.69,6.43,6.43,0,0,1,3.55-1.93c.35-.08.72-.12,1.08-.17.13,0,.17-.12.08-.22l-.27-.29a6.08,6.08,0,0,1-1.8-3.43,5.1,5.1,0,0,1,1.54-5A5.94,5.94,0,0,1,15.56,22a11.68,11.68,0,0,1,1.56-.2,2,2,0,0,0,.53-.13c.1,0,.09-.13,0-.19-.34-.41-.68-.8-1-1.21a7.06,7.06,0,0,1-1-1.7,5,5,0,0,1,0-3.85,6.5,6.5,0,0,1,4.63-4,7.9,7.9,0,0,1,1.08-.2c.37,0,.4-.19.2-.45a7.79,7.79,0,0,1-1-1.61,4.89,4.89,0,0,1-.5-2.29,5.41,5.41,0,0,1,1.33-3.55A6.33,6.33,0,0,1,27.64.44a10,10,0,0,1,2.9,1,5.62,5.62,0,0,1,.65.43,1.43,1.43,0,0,1,.54,1.68,15.51,15.51,0,0,1-.5,1.5q-1.47,3.61-2.95,7.22T25.42,19.2L22.3,26.61l-2.52,6-2.35,5.59c-.68,1.63-1.35,3.26-2,4.88C14.6,45,13.79,47,13,48.86l-2.52,6C9.65,56.84,8.82,58.77,8,60.71L6.53,64.19c0,.1-.07.2-.12.3a1.48,1.48,0,0,1-1.8.89,2,2,0,0,1-.73-.3A11,11,0,0,1,1.3,62.79,5.45,5.45,0,0,1,0,59.18Z"/><path class="cls-3" d="M7.3,55.25a9.06,9.06,0,0,1,1.8.16.86.86,0,0,0,.21,0,1.21,1.21,0,0,0-.16-.16,10.34,10.34,0,0,1-2.44-2,6.2,6.2,0,0,1-1.55-2.88A3.69,3.69,0,0,1,6.71,46.5a6.3,6.3,0,0,1,3-1,10.46,10.46,0,0,1,4,.45c.37.11.42.21.27.57s-.36.87-.56,1.3-.21.33-.56.27S12,48,11.55,47.86A5.61,5.61,0,0,0,8.82,48a3.26,3.26,0,0,0-.44.15,1.65,1.65,0,0,0-1,2.14,3.77,3.77,0,0,0,.88,1.48,8.81,8.81,0,0,0,1.9,1.65,2.83,2.83,0,0,1,.45.32.35.35,0,0,1,.12.42c-.11.3-.23.59-.35.88-.31.73-.62,1.45-.92,2.18-.15.35-.27.44-.66.38a12.64,12.64,0,0,0-2.75,0A3.41,3.41,0,0,0,4.66,58c-.78.41-1,.88-.7,1.92a2.24,2.24,0,0,0,.54.86,9.4,9.4,0,0,0,1.84,1.6c.79.49.75.38.4,1.29a1.45,1.45,0,0,1-.09.22c-.26.58-.33.62-.86.34A10.21,10.21,0,0,1,3,62.17a5.14,5.14,0,0,1-1.29-2.32,3.16,3.16,0,0,1,1.18-3.36,5.52,5.52,0,0,1,2.35-1.06A8.71,8.71,0,0,1,7.3,55.25Z"/><path class="cls-3" d="M18.59,23.83a10.32,10.32,0,0,1,3.82.61l.37.13A.28.28,0,0,1,23,25a10.13,10.13,0,0,1-.69,1.67c-.13.24-.25.28-.53.2a17.74,17.74,0,0,0-1.91-.47,11.93,11.93,0,0,0-2.67-.05,2.64,2.64,0,0,0-.76.22,1.49,1.49,0,0,0-.94,2.1A5.75,5.75,0,0,0,16.21,30a11.07,11.07,0,0,0,2.62,2.49c.91.63.79.45.41,1.43-.3.79-.39.81-1.13.41a12.29,12.29,0,0,1-3.5-2.79,6.93,6.93,0,0,1-1.47-2.67,3.63,3.63,0,0,1,1.62-4.23,5.38,5.38,0,0,1,2.84-.81Z"/><path class="cls-3" d="M18,17.29a4.18,4.18,0,0,1,2.66-4.11,8,8,0,0,1,3.28-.72,14.15,14.15,0,0,1,3.67.34c.3.07.37.16.26.44-.19.52-.41,1-.62,1.53a.41.41,0,0,1-.51.27c-.66-.21-1.37-.06-2-.25a.65.65,0,0,0-.31,0,9.41,9.41,0,0,0-2.47.43,3.67,3.67,0,0,0-.83.44,1.78,1.78,0,0,0-.81,1.84A3.86,3.86,0,0,0,20.87,19a9.61,9.61,0,0,0,2.32,2.44l.25.19c.73.55.74.56.36,1.42-.43,1-.47,1-1.32.42a12.52,12.52,0,0,1-2.28-1.81,8.12,8.12,0,0,1-1.94-3A3.83,3.83,0,0,1,18,17.29Z"/><path class="cls-3" d="M22.11,6.06a3.39,3.39,0,0,1,2.57-3.37,7.3,7.3,0,0,1,3.19-.22,14.13,14.13,0,0,1,3.1.88,2.92,2.92,0,0,1,.36.17c.24.14.31.26.24.51A10.25,10.25,0,0,1,31,5.66a.27.27,0,0,1-.39.15c-.22-.1-.43-.21-.65-.3a8.21,8.21,0,0,0-3.75-.72,2.51,2.51,0,0,0-1.13.33,1,1,0,0,0-.53.9,2.49,2.49,0,0,0,.21,1.07A7.07,7.07,0,0,0,26.9,9.65c.49.39,1,.73,1.54,1.1.31.22.34.29.2.66a5.65,5.65,0,0,1-.34.8c-.16.31-.28.34-.65.23a6.1,6.1,0,0,1-1.57-.74,9.83,9.83,0,0,1-3.27-3.24A4.63,4.63,0,0,1,22.11,6.06Z"/><path class="cls-3" d="M14.59,34.74a17.88,17.88,0,0,1,3.58.61c.31.11.38.27.18.53a7.79,7.79,0,0,0-.93,1.36.45.45,0,0,1-.54.23c-.39-.06-.77-.15-1.16-.21a6.88,6.88,0,0,0-3,.11,2.72,2.72,0,0,0-.73.29,1.31,1.31,0,0,0-.65,1.53,4.29,4.29,0,0,0,1.12,2,11.12,11.12,0,0,0,2.09,1.78,3.65,3.65,0,0,1,.45.32.29.29,0,0,1,.14.34c-.16.41-.33.83-.52,1.23-.09.2-.24.23-.46.11a10.29,10.29,0,0,1-2-1.26,10.57,10.57,0,0,1-1.85-1.81A5.49,5.49,0,0,1,9.14,39a3.33,3.33,0,0,1,1.32-3,5.54,5.54,0,0,1,2.67-1.07C13.6,34.83,14.07,34.8,14.59,34.74Z"/><path class="cls-2" d="M24.47,43.72a11.1,11.1,0,0,1,1.85-5.94,4.4,4.4,0,0,1,4.16-2.07,4.3,4.3,0,0,1,2.12.77A6.26,6.26,0,0,1,34.74,39c.11.21.21.42.33.63s.25.18.37,0c.31-.46.6-.93.92-1.37a7.11,7.11,0,0,1,1.51-1.49,4.41,4.41,0,0,1,6.3.91,8,8,0,0,1,1.18,1.94,23.53,23.53,0,0,1,1.27,3.65,5.82,5.82,0,0,0,.22.67,2.45,2.45,0,0,1,.08,1.17.94.94,0,0,1-.87.78,1.07,1.07,0,0,1-.54,0,2.49,2.49,0,0,0-1.68-.07l-.94.09c-1.18.06-2.36.15-3.54.21-.75,0-1.52,0-2.27.14-.94.11-1.89.06-2.83.16-2.17.22-4.35.1-6.53.14A2.92,2.92,0,0,1,26,46.07a.84.84,0,0,0-.52-.12.82.82,0,0,1-.85-.67A5.82,5.82,0,0,1,24.47,43.72Z"/><path class="cls-3" d="M36,43.71a7,7,0,0,1,1.72-4.47,3.34,3.34,0,0,1,4.39-.88,4.09,4.09,0,0,1,1.35,1.3,7.12,7.12,0,0,1,1.1,3.25,3.16,3.16,0,0,1-.16,1.4.55.55,0,0,1-.5.43.6.6,0,0,1-.64-.36,2.3,2.3,0,0,1-.14-.53c-.12-.56-.22-1.13-.34-1.7a4.5,4.5,0,0,0-.55-1.3,2.57,2.57,0,0,0-.66-.77A1.34,1.34,0,0,0,40,39.92a2.61,2.61,0,0,0-.87.78,5.83,5.83,0,0,0-1,2.64c-.06.41-.1.83-.15,1.25a1,1,0,0,1-.84.91,1,1,0,0,1-1-.69A3.77,3.77,0,0,1,36,43.71Z"/><path class="cls-3" d="M29.53,37.72a3,3,0,0,1,2.24.89,6.25,6.25,0,0,1,1.73,2.68A13.87,13.87,0,0,1,34,43a1.84,1.84,0,0,1,0,.62.9.9,0,0,1-.82.82,1,1,0,0,1-1-.67,5.93,5.93,0,0,1-.24-.92A6.33,6.33,0,0,0,31.25,41a8.23,8.23,0,0,0-.46-.74,1.47,1.47,0,0,0-.31-.35,1.4,1.4,0,0,0-2.16,0,3.88,3.88,0,0,0-.95,1.52,10.88,10.88,0,0,0-.6,2.44,4.68,4.68,0,0,1-.09.54A.73.73,0,0,1,26,45a.7.7,0,0,1-.6-.55,1.87,1.87,0,0,1-.11-.61,7.67,7.67,0,0,1,1.76-5A2.94,2.94,0,0,1,29.53,37.72Z"/><path class="cls-4" d="M70.56,43l-.49-.09c-.39-.07-.4-.08-.52.35a2.51,2.51,0,0,1-.68,1.22,1.79,1.79,0,0,1-1.78.35,2.19,2.19,0,0,1-1.53-1.37,1.56,1.56,0,0,1-.1-.53.55.55,0,0,1,.39-.62,1.58,1.58,0,0,0,.86-.64,3,3,0,0,0,.74-1.1.68.68,0,0,1,.44-.42,2.08,2.08,0,0,0,.68-.53c1-1,1.94-2.07,2.85-3.16.18-.22.35-.46.52-.69s.17-.27.27-.39a1.11,1.11,0,0,1,1.83,0,4.52,4.52,0,0,1,1,2.68,2,2,0,0,1-1.87,2.14h-.08c-.29,0-.34.07-.29.34A2.2,2.2,0,0,1,70.56,43Z"/><path class="cls-5" d="M61,71.09a8,8,0,0,1-2.78-.64,5.79,5.79,0,0,1-2.42-2.2,13,13,0,0,1-.87-1.59c-.73-1.64-1.46-3.27-2.13-4.93-.78-1.95-1.5-3.93-2.24-5.9-.19-.49-.35-1-.56-1.47-.35-.83-.2-.79-1.12-.79H23.06c-1.29,0-1-.08-1.45,1-1.09,2.85-2.13,5.72-3.2,8.58-.52,1.37-1.09,2.73-1.74,4-.28.57-.62,1.1-1,1.64a4.44,4.44,0,0,1-2.9,2,6.9,6.9,0,0,1-5-.6,7.1,7.1,0,0,1-2.84-2.78A5.75,5.75,0,0,1,4.23,64a16.61,16.61,0,0,1,1.29-4.62c1.8-4.63,3.65-9.25,5.47-13.87L15.1,35.07l6.15-15.63c1.46-3.7,2.89-7.4,4.35-11.09a25.12,25.12,0,0,1,1.79-3.69,9.64,9.64,0,0,1,3.55-3.51A7.66,7.66,0,0,1,33.76.2,11.61,11.61,0,0,1,36.19,0a13.06,13.06,0,0,1,2.72.42A9,9,0,0,1,43.85,4a21,21,0,0,1,2.27,4.32c.65,1.67,1.28,3.34,1.94,5,.88,2.2,1.79,4.38,2.68,6.58.79,2,1.58,3.95,2.38,5.92q1.91,4.72,3.82,9.43a3,3,0,0,0,.17.36.35.35,0,0,0,.41.17c.27-.08.54-.18.81-.28a61.92,61.92,0,0,1,7.51-2.41,21.67,21.67,0,0,1,2.78-.54,8.49,8.49,0,0,1,3.29.12,2.12,2.12,0,0,1,1.55,1.43,2.07,2.07,0,0,1,.08.93,5.45,5.45,0,0,1-1.22,2.52,21.72,21.72,0,0,1-3.14,3.22c-.87.76-1.75,1.5-2.69,2.18a.87.87,0,0,0-.16.17.15.15,0,0,0,.09.24c.52.11,1,.21,1.54.33A29.45,29.45,0,0,1,72.18,45a10.43,10.43,0,0,1,2.09,1.1,3.84,3.84,0,0,1,.85.81,2.18,2.18,0,0,1-.2,2.88,6.42,6.42,0,0,1-2.08,1.25,19.37,19.37,0,0,1-3.41.94,41.14,41.14,0,0,1-4.68.65l-.15,0c-.48.07-.53.16-.35.61q1.05,2.64,2.11,5.27a27.49,27.49,0,0,1,1.2,3.59A13,13,0,0,1,67.92,64a5.08,5.08,0,0,1-.43,2.77,7.08,7.08,0,0,1-4.75,4.07A8.21,8.21,0,0,1,61,71.09ZM35.81,42.94h9.07c.24,0,.48,0,.71,0a.18.18,0,0,0,.17-.22,1.86,1.86,0,0,0-.12-.38c-.4-1.11-.82-2.22-1.22-3.33q-2.14-5.85-4.28-11.7c-1.33-3.66-2.65-7.32-4-11-.1-.3-.22-.59-.34-.88a.16.16,0,0,0-.12-.08s-.09.06-.11.1c-.09.21-.19.43-.27.65l-3.26,9.14-2.52,7.05Q27.78,37.17,26,42c-.32.91-.31.92.62.92Z"/><path class="cls-6" d="M63.82,57.55a11.89,11.89,0,0,1-6.06-1.4,10.16,10.16,0,0,1-4.2-4c-.15-.28-.25-.58-.37-.87a.56.56,0,0,1,.17-.71.69.69,0,0,1,.74-.11,2.27,2.27,0,0,1,.34.19,15.61,15.61,0,0,0,4.94,1.8,14.59,14.59,0,0,0,2.8.35c.52,0,1,.16,1.57.13a.47.47,0,0,1,.48.33c.08.2.18.38.25.58.31.92.69,1.82,1.09,2.71a3.84,3.84,0,0,1,.19.51.29.29,0,0,1-.21.42,2.74,2.74,0,0,1-.94.1C64.3,57.56,64,57.55,63.82,57.55Z"/><path class="cls-2" d="M49,31.9a4.49,4.49,0,0,1,2.23.66,1.06,1.06,0,0,1,.47,1.16,1,1,0,0,1-1,.77,1.85,1.85,0,0,1-.84-.15,1.66,1.66,0,0,0-2.25.69c-.16.23-.29.49-.46.73a.82.82,0,0,1-1.5-.08,1.42,1.42,0,0,1-.09-1.14A3.52,3.52,0,0,1,49,31.9Z"/><path class="cls-2" d="M71,34.72a4.15,4.15,0,0,1-.26,1.57.9.9,0,0,1-1.17.53.72.72,0,0,1-.51-.63,3.83,3.83,0,0,1,.37-2.08.75.75,0,0,1,.8-.38.84.84,0,0,1,.74.62A1.57,1.57,0,0,1,71,34.72Z"/><path class="cls-7" d="M50.65,36.31a2.14,2.14,0,0,1,2.16,2.07,2.08,2.08,0,0,1-2.09,2.21,2.14,2.14,0,1,1-.07-4.28Z"/><path class="cls-8" d="M55.32,47.9a5.83,5.83,0,0,1-2.55-.45,4,4,0,0,1-1.28-.9,1.86,1.86,0,0,1-.15-2.32,3.85,3.85,0,0,1,1.21-1,6.11,6.11,0,0,1,1.72-.57,7.31,7.31,0,0,1,3.12.1,5.71,5.71,0,0,1,1.58.69,2.23,2.23,0,0,1,.87,1,1.66,1.66,0,0,1-.12,1.64A3.37,3.37,0,0,1,58,47.43,5.9,5.9,0,0,1,55.32,47.9Z"/><path class="cls-9" d="M46.17,24.2a6.11,6.11,0,0,1-2-.65,3.47,3.47,0,0,1-1.67-2.87,4.17,4.17,0,0,1,.16-1.09c0-.2.1-.4.14-.61s0-.28-.25-.29a3.5,3.5,0,0,1-.85-.13,2.45,2.45,0,0,1-1.94-2.37c0-.36,0-.73,0-1.1a3.28,3.28,0,0,1,.53-1.63c.09-.16,0-.25-.14-.28a17,17,0,0,1-1.69-.37,2.9,2.9,0,0,1-1.8-1.64,2.74,2.74,0,0,1-.15-1.78,4.68,4.68,0,0,1,2.13-2.92.93.93,0,0,1,.67-.15.54.54,0,0,1,.47.75,1.54,1.54,0,0,1-.35.52,6.33,6.33,0,0,0-1,1.5,3.2,3.2,0,0,0-.18.52,1.3,1.3,0,0,0,1.06,1.72,4,4,0,0,0,1.24.19c.52,0,1,0,1.57,0A.87.87,0,0,1,43,12a.83.83,0,0,1,.08.82A6.73,6.73,0,0,1,42.26,14a2.92,2.92,0,0,0-.65,1.74c0,1,.54,1.41,1.47,1.07.32-.11.64-.25,1-.38a1.07,1.07,0,0,1,.84,0,1,1,0,0,1,.58,1.31c-.13.37-.3.73-.44,1.1a4.73,4.73,0,0,0-.44,1.82,2.16,2.16,0,0,0,.09.62,1.61,1.61,0,0,0,1.27,1.06,4.83,4.83,0,0,1,.68.17.9.9,0,0,1,.63,1.05A1.05,1.05,0,0,1,46.17,24.2Z"/><path class="cls-9" d="M28.82,24.22a2.52,2.52,0,0,1-1.35,2.35,7,7,0,0,1-1,.43c-.26.11-.29.16-.15.41A9.31,9.31,0,0,1,27,29a3.36,3.36,0,0,1-1.14,3.47,2,2,0,0,1-1,.42,2.44,2.44,0,0,0-.39.06.34.34,0,0,0-.3.46c.05.31.13.62.18.93a4.43,4.43,0,0,1-.59,3,2.11,2.11,0,0,1-2.73.91,3.8,3.8,0,0,1-2.2-2.14c-.16-.39-.1-.65.19-.83a.59.59,0,0,1,.73,0c.32.24.61.5.92.74a4.81,4.81,0,0,0,.71.5.66.66,0,0,0,1.06-.39,3.12,3.12,0,0,0,.1-2.09,6.14,6.14,0,0,0-.62-1.53,1.11,1.11,0,0,1,0-1.39,1.22,1.22,0,0,1,1.33-.23,6.07,6.07,0,0,0,.84.21.79.79,0,0,0,1-.5,1.43,1.43,0,0,0,.15-1.13A5.46,5.46,0,0,0,24.57,28c-.18-.29-.36-.58-.53-.88a1.06,1.06,0,0,1,.59-1.65,11.31,11.31,0,0,1,1.3-.35,1.76,1.76,0,0,0,.65-.27A.84.84,0,0,0,27,23.76a2.51,2.51,0,0,0-.51-.88c-.21-.24-.4-.49-.6-.74a1.37,1.37,0,0,1-.3-.63.65.65,0,0,1,.85-.78,1.49,1.49,0,0,1,.49.24,5.74,5.74,0,0,1,1.66,2A2.61,2.61,0,0,1,28.82,24.22Z"/><path class="cls-9" d="M40.31,50.91A3.07,3.07,0,0,1,37.9,50l-.28-.28c-.23-.21-.33-.22-.5.05A4.18,4.18,0,0,1,36,50.86a3.15,3.15,0,0,1-4.11-.28,4.73,4.73,0,0,1-.7-.84c-.33-.49-.34-.48-.77-.12-.24.21-.48.4-.74.59a4.44,4.44,0,0,1-1.21.56,2.73,2.73,0,0,1-2.4-.39,1.7,1.7,0,0,1-.55-.55A3.39,3.39,0,0,1,25.64,46a2.4,2.4,0,0,1,.39-.39.49.49,0,0,1,.58-.09.54.54,0,0,1,.34.57,4.68,4.68,0,0,1-.2.84,3,3,0,0,0-.17.93,1.63,1.63,0,0,0,.13.69,1,1,0,0,0,1.35.58,3.36,3.36,0,0,0,1.19-.76c.34-.36.69-.72,1.06-1.06a1,1,0,0,1,1.64.14,3.07,3.07,0,0,1,.4.76,3.47,3.47,0,0,0,.55,1,1.34,1.34,0,0,0,1.94.37A4,4,0,0,0,36.27,48c.11-.2.23-.41.33-.62a1,1,0,0,1,1.54,0,4.25,4.25,0,0,0,.44.74,2.62,2.62,0,0,0,1.23,1,1,1,0,0,0,1-.15,3.22,3.22,0,0,0,.95-1.24,3.58,3.58,0,0,1,.59-1,.53.53,0,0,1,.92,0,1.25,1.25,0,0,1,.35,1.3,6.59,6.59,0,0,1-.3.73,5,5,0,0,1-1.29,1.58A2.2,2.2,0,0,1,40.31,50.91Z"/><path class="cls-9" d="M12.09,65.75a3.77,3.77,0,0,1-3.6-2.58,1.43,1.43,0,0,1-.09-.54.58.58,0,0,1,.91-.48,2.57,2.57,0,0,1,.52.47c.28.28.56.56.83.85a2.08,2.08,0,0,0,1.25.6,1.18,1.18,0,0,0,.91-.18A1,1,0,0,0,13.3,63a2,2,0,0,0-.21-.83,12.45,12.45,0,0,0-.87-1.5c-.69-1-.41-1.65.81-1.88a7.53,7.53,0,0,0,1.22-.31,1.57,1.57,0,0,0,1-1.14.86.86,0,0,0-.06-.61,2.67,2.67,0,0,0-1-1.1,2.74,2.74,0,0,1-.87-.89,2.83,2.83,0,0,1-.16-.36.5.5,0,0,1,.4-.65,1.74,1.74,0,0,1,1.22.23,5.67,5.67,0,0,1,1.69,1.62A2.89,2.89,0,0,1,16,59.28a3.56,3.56,0,0,1-1.56.87c-.51.13-.57.18-.25.69.1.15.19.32.28.48a3.53,3.53,0,0,1,.4,2.21,2.69,2.69,0,0,1-2.34,2.22C12.4,65.76,12.24,65.75,12.09,65.75Z"/><path class="cls-9" d="M61.91,68.26a3.31,3.31,0,0,1-3.4-2.8,3.19,3.19,0,0,1,.22-1.7c.12-.35.12-.35-.22-.53a7.67,7.67,0,0,1-.7-.36,2,2,0,0,1-1-1.7A2.83,2.83,0,0,1,58,58.79,3.68,3.68,0,0,1,59.45,58a1.34,1.34,0,0,1,.39-.07.64.64,0,0,1,.61.42.56.56,0,0,1-.12.66,3.77,3.77,0,0,1-.48.4L59,60a1.39,1.39,0,0,0-.45.73.63.63,0,0,0,.36.78,1.93,1.93,0,0,0,.92.19,3.09,3.09,0,0,1,1,.17.83.83,0,0,1,.49,1.31,8.24,8.24,0,0,1-.75.91,1.35,1.35,0,0,0-.26,1.4,1.29,1.29,0,0,0,1.16.93,4.36,4.36,0,0,0,.63,0,1.27,1.27,0,0,1,.6.15.79.79,0,0,1,.49.75.85.85,0,0,1-.53.73A1.45,1.45,0,0,1,61.91,68.26Z"/></g></g></g></svg>