<svg xmlns="http://www.w3.org/2000/svg" viewBox="0 0 85.4 90.39"><defs><style>.cls-1{fill:#8d2e1f;}.cls-2{fill:#d67557;}.cls-3{fill:#bb4f3e;}.cls-4{fill:#ffda95;}.cls-5{fill:#421c43;}.cls-6{fill:#ffa8d0;}.cls-7{fill:#fff;}</style></defs><g id="圖層_2" data-name="圖層 2"><g id="OBJECTS"><path class="cls-1" d="M61.85,26.59a3.13,3.13,0,0,0-2.19.54c-1,.59-2.08,1.14-3.11,1.72a17.55,17.55,0,0,0-3.18,2.44,7.43,7.43,0,0,0-1.52,2.11l-.61,1.19a2.83,2.83,0,0,1-.38.59,1.36,1.36,0,0,1-1.52.34,1.1,1.1,0,0,1-.73-1,2.63,2.63,0,0,1,.18-1.24,12.34,12.34,0,0,1,1.32-2.42,19.22,19.22,0,0,1,3.13-3.43,16.17,16.17,0,0,1,2.57-1.83c1.7-1.05,3.5-1.92,5.29-2.8.87-.43,1.76-.84,2.64-1.24a1.49,1.49,0,0,0,.86-1,11.29,11.29,0,0,0,.49-4.9,22,22,0,0,0-.81-3.85,5.78,5.78,0,0,1-.19-.92.78.78,0,0,1,.43-.86.84.84,0,0,1,1,.17A2.18,2.18,0,0,1,66,11a13,13,0,0,1,1.43,5.69,1.69,1.69,0,0,0,0,.23,5.47,5.47,0,0,0,.11,1.76,8.14,8.14,0,0,0,1.26-1.16A7.69,7.69,0,0,0,70,16a23.69,23.69,0,0,0,2.45-5.19,30.55,30.55,0,0,0,1.22-5c.11-.6.13-1.2.18-1.8.07-.82.12-1.63.2-2.44a6.81,6.81,0,0,1,.2-1A.74.74,0,0,1,74.9,0a.79.79,0,0,1,.77.57A4.76,4.76,0,0,1,75.94,2c0,.47,0,1,0,1.42a5.35,5.35,0,0,0,.08,1.33.49.49,0,0,1,0,.24,27.75,27.75,0,0,1-.55,4.53c-.16.61-.29,1.23-.42,1.84-.07.29,0,.4.33.31A10.9,10.9,0,0,0,79,9.84a16.43,16.43,0,0,0,3.17-3.39,7.68,7.68,0,0,1,.88-1,1.44,1.44,0,0,1,.61-.35.48.48,0,0,1,.64.41,1.91,1.91,0,0,1-.1,1.08,11.64,11.64,0,0,1-1.61,2.8,12.58,12.58,0,0,1-3.34,3.08A10.17,10.17,0,0,1,76,13.87a8,8,0,0,1-1.55.19.38.38,0,0,0-.41.26,19.23,19.23,0,0,1-1.34,2.59,23.24,23.24,0,0,1-1.92,2.6,22.81,22.81,0,0,1-4.42,3.9c-.49.35-1,.65-1.53,1-.07.05-.14.1-.09.19s.09,0,.14.05c1.18.23,2.37.49,3.55.7a12.61,12.61,0,0,0,2.11.23,9.43,9.43,0,0,0,3.32-.61,11.63,11.63,0,0,0,3.73-2.3,18.22,18.22,0,0,0,2.73-3.15c.24-.34.51-.66.77-1a1.36,1.36,0,0,1,.5-.39.76.76,0,0,1,1.09.79,3.54,3.54,0,0,1-.28.89,13.86,13.86,0,0,1-1.71,2.93,12.9,12.9,0,0,1-8.09,5.08,8.24,8.24,0,0,1-2.27.19,24.46,24.46,0,0,1-3-.39l-3.22-.76A7.39,7.39,0,0,0,61.85,26.59Z"/><path class="cls-2" d="M11.85,55.56q0-12.39,0-24.78a15.64,15.64,0,0,1,.44-3.91A8.14,8.14,0,0,1,13,25a5.84,5.84,0,0,1,3.47-2.69,9.74,9.74,0,0,1,2.78-.5H40.2c.66,0,1.32,0,2,0,.92.06,1.83.17,2.75.24s1.93.22,2.89.37a24.3,24.3,0,0,1,8.31,2.83,24,24,0,0,1,3.66,2.6,28.45,28.45,0,0,1,5.35,6.08,32.17,32.17,0,0,1,3.71,8.16,42.52,42.52,0,0,1,1.39,6.71c.12.83.17,1.67.24,2.51a78.53,78.53,0,0,1,.1,8.12c0,1-.19,1.93-.26,2.9a36,36,0,0,1-.5,3.59,35.45,35.45,0,0,1-2.06,7.27,27.56,27.56,0,0,1-4.34,7.38c-.66.79-1.32,1.58-2,2.3a24.18,24.18,0,0,1-4.6,3.58A25.56,25.56,0,0,1,48.4,89.6a46.77,46.77,0,0,1-5.15.66c-1.79.15-3.57.12-5.36.13-5.73,0-11.47,0-17.21,0a17.27,17.27,0,0,1-3.44-.31,7.07,7.07,0,0,1-3-1.37,5.14,5.14,0,0,1-1.67-2.45A13.85,13.85,0,0,1,12,82.7c-.22-2.94-.11-5.89-.12-8.83C11.83,67.77,11.85,61.66,11.85,55.56ZM26,56.05V78.22c0,1.1,0,1,1.05,1,3.36,0,6.73.1,10.09-.09.92-.05,1.85,0,2.77,0a17.6,17.6,0,0,0,4.67-.65A12,12,0,0,0,49.43,76a17.37,17.37,0,0,0,4.87-7.07,32,32,0,0,0,1.86-8.36c.12-1.28.2-2.57.2-3.86,0-2,0-3.95-.2-5.91a33,33,0,0,0-.82-5.05,17.37,17.37,0,0,0-3.87-7.67,13.5,13.5,0,0,0-2.9-2.54A12.09,12.09,0,0,0,44.88,34a29.4,29.4,0,0,0-4.65-.82,38.52,38.52,0,0,0-3.85-.27c-3.16,0-6.32,0-9.47,0a3.85,3.85,0,0,0-.48,0c-.27,0-.36.11-.38.39s0,.53,0,.79Z"/><path class="cls-3" d="M16.92,63.38v1a1.47,1.47,0,0,1-.18.68.87.87,0,0,1-.9.5A1,1,0,0,1,15,65a.83.83,0,0,1,0-.15,6.92,6.92,0,0,1-.21-2.4c0-.23.06-.47.08-.7a1.48,1.48,0,0,1,.24-.74.84.84,0,0,1,1.35,0,1.75,1.75,0,0,1,.34.79A8.59,8.59,0,0,1,16.92,63.38Z"/><path class="cls-3" d="M42.44,83.77c0-.26,0-.52,0-.78a1.82,1.82,0,0,1,.15-.61.89.89,0,0,1,1.58-.12,2.38,2.38,0,0,1,.24.57A11.28,11.28,0,0,1,44.83,85a1.74,1.74,0,0,1-.44,1.3.67.67,0,0,1-.9.23,1.39,1.39,0,0,1-.85-1,4.42,4.42,0,0,1-.13-.61c0-.39-.06-.79-.09-1.18Z"/><path class="cls-3" d="M29.89,84.9c0,.42,0,.84-.07,1.25a1.47,1.47,0,0,1-.59,1.07.79.79,0,0,1-.75.13,1.17,1.17,0,0,1-.85-.95,6.33,6.33,0,0,1,.28-3,1,1,0,0,1,1.94.26,1.94,1.94,0,0,1,0,.24v1Z"/><path class="cls-3" d="M35.2,85.23a8.21,8.21,0,0,1,.18-1.71,1,1,0,0,1,2-.1,5.88,5.88,0,0,1,.06,2.64,1.81,1.81,0,0,1-.55.93.68.68,0,0,1-1,.06,1.69,1.69,0,0,1-.69-1.19C35.2,85.65,35.21,85.44,35.2,85.23Z"/><path class="cls-3" d="M20.32,63.5c0-.34,0-.68.05-1a1.35,1.35,0,0,1,.21-.67.85.85,0,0,1,1.53,0,2.13,2.13,0,0,1,.27.64,8.93,8.93,0,0,1,.19,2.42,1.3,1.3,0,0,1-.26.73.94.94,0,0,1-1.66-.08,2.22,2.22,0,0,1-.28-1c0-.34,0-.68,0-1Z"/><path class="cls-3" d="M23.06,52.91c0,.18,0,.34,0,.49a1,1,0,0,1-.8.79,1,1,0,0,1-1.07-.5,2.51,2.51,0,0,1-.26-.74,14.44,14.44,0,0,1-.23-2.27,1,1,0,0,1,.56-1,.71.71,0,0,1,.68,0,1.23,1.23,0,0,1,.61.68A8.52,8.52,0,0,1,23.06,52.91Z"/><path class="cls-3" d="M20.32,40c0-.24,0-.55.05-.87a1.56,1.56,0,0,1,.15-.52.86.86,0,0,1,1.53-.11,1.83,1.83,0,0,1,.23.49,7.84,7.84,0,0,1,.33,2.41,1.67,1.67,0,0,1-.06.38,1,1,0,0,1-.95.8,1.06,1.06,0,0,1-1-.72,6.57,6.57,0,0,1-.21-1C20.33,40.56,20.34,40.3,20.32,40Z"/><path class="cls-3" d="M17.07,29.63c0,.34,0,.68,0,1a1.2,1.2,0,0,1-.75,1,.56.56,0,0,1-.38,0,1.1,1.1,0,0,1-.91-1,7.46,7.46,0,0,1,.14-2.9.79.79,0,0,1,.9-.69.77.77,0,0,1,.81.61,4.13,4.13,0,0,1,.17.85c0,.34,0,.68,0,1Z"/><path class="cls-3" d="M17.08,52.13v1a1.67,1.67,0,0,1-.18.76.86.86,0,0,1-.88.52.9.9,0,0,1-.88-.54,1.33,1.33,0,0,1-.12-.37,8.5,8.5,0,0,1,.12-2.89.91.91,0,0,1,1.76-.06A5.86,5.86,0,0,1,17.08,52.13Z"/><path class="cls-3" d="M23.35,30.5a2.1,2.1,0,0,1-.22.75,1,1,0,0,1-1.43.31,1,1,0,0,1-.44-.63,6.74,6.74,0,0,1-.12-2.79,1.25,1.25,0,0,1,.24-.49.84.84,0,0,1,1.35.05,2.23,2.23,0,0,1,.27.56A14.11,14.11,0,0,1,23.35,30.5Z"/><path class="cls-3" d="M14.52,41.13a9.29,9.29,0,0,1,0-1.18.89.89,0,0,1,1-.8.92.92,0,0,1,.84.62,3.12,3.12,0,0,1,.2.84c0,.58,0,1.16,0,1.73a1.4,1.4,0,0,1-.1.46.93.93,0,0,1-.94.69,1,1,0,0,1-.93-.72A4.32,4.32,0,0,1,14.52,41.13Z"/><path class="cls-3" d="M63.52,73.44a6.73,6.73,0,0,1-.09.77,1,1,0,0,1-.84.71.88.88,0,0,1-1-.58,5.42,5.42,0,0,1-.22-2.85,1.08,1.08,0,0,1,.33-.61.86.86,0,0,1,1.3.2,2.7,2.7,0,0,1,.23.58A8.18,8.18,0,0,1,63.52,73.44Z"/><path class="cls-3" d="M51.92,84a2.39,2.39,0,0,1-.35.94.61.61,0,0,1-.7.23,1.44,1.44,0,0,1-.94-.78,6.32,6.32,0,0,1-.48-2.06,1.26,1.26,0,0,1,.28-.88A.83.83,0,0,1,51,81.3a1.48,1.48,0,0,1,.25.31A7,7,0,0,1,51.92,84Z"/><path class="cls-3" d="M58.45,72.73A8.73,8.73,0,0,1,58,74.88a1.24,1.24,0,0,1-.46.62.92.92,0,0,1-1.3-.26,1.27,1.27,0,0,1-.17-.83,8.26,8.26,0,0,1,.51-1.89,3.07,3.07,0,0,1,.39-.68.78.78,0,0,1,.91-.27.76.76,0,0,1,.55.77Z"/><path class="cls-3" d="M22.25,84.85a4.26,4.26,0,0,1-.11,1.33,2.2,2.2,0,0,1-.39.76.76.76,0,0,1-1,.19,1.28,1.28,0,0,1-.7-1.08,5,5,0,0,1,.44-2.29.85.85,0,0,1,.95-.54.94.94,0,0,1,.8.84A6.94,6.94,0,0,1,22.25,84.85Z"/><path class="cls-3" d="M59.22,41.87a.81.81,0,0,1,.41-.89.8.8,0,0,1,.95.13,2.83,2.83,0,0,1,.72,1c.18.37.33.76.5,1.15a1.62,1.62,0,0,1,.12.69,1,1,0,0,1-1.52.71,1.26,1.26,0,0,1-.44-.53A18.23,18.23,0,0,1,59.24,42,.91.91,0,0,1,59.22,41.87Z"/><path class="cls-3" d="M22,75.45c0,.19,0,.4,0,.61a.86.86,0,0,1-.8.9.94.94,0,0,1-1.08-.69,4.57,4.57,0,0,1-.19-1.47,5.71,5.71,0,0,1,.2-1.08.73.73,0,0,1,.79-.62.77.77,0,0,1,.84.56A4.28,4.28,0,0,1,22,75.45Z"/><path class="cls-3" d="M66.81,42.17a1.15,1.15,0,0,1-.19.81.74.74,0,0,1-.84.28,1.15,1.15,0,0,1-.72-.57,6.35,6.35,0,0,1-.76-2,.94.94,0,0,1,.12-.68.78.78,0,0,1,1.15-.27,1.67,1.67,0,0,1,.48.51,6.4,6.4,0,0,1,.72,1.73A1,1,0,0,1,66.81,42.17Z"/><path class="cls-3" d="M57.35,82.74a3,3,0,0,1-.11.94.92.92,0,0,1-.82.63.91.91,0,0,1-.89-.53,3.59,3.59,0,0,1-.11-2.54.86.86,0,0,1,1.34-.46,1,1,0,0,1,.36.5A4.25,4.25,0,0,1,57.35,82.74Z"/><path class="cls-1" d="M54.36,23.09a7,7,0,0,1-1.26,4.15c-.19.26-.19.29.1.51.56.43,1.14.84,1.69,1.29a16.43,16.43,0,0,1,3,3.12A7.38,7.38,0,0,1,59,34.25a2.06,2.06,0,0,1,0,1.32,1.37,1.37,0,0,1-1.83.89A3.18,3.18,0,0,1,56,35.75a16.86,16.86,0,0,1-1.77-2,25,25,0,0,0-3-3.3,13,13,0,0,0-2.5-1.65c-.95-.52-1.9-1-2.89-1.46a2.73,2.73,0,0,0-1.75-.2l-2.85.65a17.75,17.75,0,0,1-3.41.58c-.44,0-.88.14-1.33.11A12.59,12.59,0,0,1,29,25.66a14.53,14.53,0,0,1-4.15-5.48,2.22,2.22,0,0,1-.22-.91.72.72,0,0,1,.43-.7.71.71,0,0,1,.81.11,5.88,5.88,0,0,1,1,1.19,18.19,18.19,0,0,0,1.86,2.34,12.22,12.22,0,0,0,4.64,3.19,9.27,9.27,0,0,0,2.14.51,5.93,5.93,0,0,0,1.33.12,24.73,24.73,0,0,0,3.73-.58c.11,0,.29,0,.3-.15s-.13-.14-.21-.2c-.54-.37-1.06-.78-1.58-1.17a13.22,13.22,0,0,1-2.27-2.4,24.08,24.08,0,0,1-3.26-5.65c-.15-.34-.3-.68-.44-1a.42.42,0,0,0-.36-.27,6.53,6.53,0,0,0-.77-.14,4.83,4.83,0,0,1-1.46-.32,11.42,11.42,0,0,1-3.87-2.22,14.11,14.11,0,0,1-3.13-3.83A7.46,7.46,0,0,1,23,6.61a.8.8,0,0,1,0-.15.8.8,0,0,1,.28-.85c.28-.19.56,0,.81.11a3.32,3.32,0,0,1,.83.84c.46.6.95,1.19,1.39,1.81A10.09,10.09,0,0,0,27.92,10a9.84,9.84,0,0,0,3.71,2,1.67,1.67,0,0,0,.3.08.16.16,0,0,0,.19-.19c0-.13-.07-.25-.1-.38a22.73,22.73,0,0,1-.66-3.48,46.75,46.75,0,0,1-.09-4.88,9.31,9.31,0,0,1,.17-1.49,3,3,0,0,1,.27-.82.66.66,0,0,1,1.2-.05,1.29,1.29,0,0,1,.24.66c.07.62.15,1.25.19,1.88a31.7,31.7,0,0,0,1.85,9.39,17,17,0,0,0,3.21,5.39c.14.16.26.33.39.49a3.31,3.31,0,0,0,.89.78.2.2,0,0,0,.14,0,.16.16,0,0,0,0-.14c0-.16-.06-.31-.07-.47a14.82,14.82,0,0,1,1.41-7.27,2.57,2.57,0,0,1,.63-.9.78.78,0,0,1,.94-.14.8.8,0,0,1,.41.86,7.33,7.33,0,0,1-.2.93,18.71,18.71,0,0,0-.74,3.38,12.2,12.2,0,0,0,.28,4.85c.06.2.12.4.19.6A2.5,2.5,0,0,0,44,22.68c.78.37,1.52.84,2.28,1.25,1.23.66,2.47,1.3,3.7,1.94l.42.22c.31.14.37.12.6-.16a4.23,4.23,0,0,0,.94-2.55,7.59,7.59,0,0,0-.13-2.12,2.27,2.27,0,0,1,0-.78.92.92,0,0,1,1.52-.67,2.13,2.13,0,0,1,.66,1A5.27,5.27,0,0,1,54.36,23.09Z"/><path class="cls-3" d="M54.21,51.71a9.18,9.18,0,0,1-6.49-2.6,15.37,15.37,0,0,1-3.59-5.23,13.44,13.44,0,0,1-.8-2.47,4.9,4.9,0,0,1-.11-1,.88.88,0,0,1,.46-.85,4.33,4.33,0,0,1,.78-.38,6.91,6.91,0,0,1,3.95-.25,13,13,0,0,1,2.54.82,19,19,0,0,1,4.49,2.61,12.75,12.75,0,0,1,3.3,4,7.65,7.65,0,0,1,.54,1.4,2,2,0,0,1-.46,2,5.19,5.19,0,0,1-4,2Z"/><path class="cls-1" d="M54.26,51.71A9.22,9.22,0,0,1,47.65,49a15.38,15.38,0,0,1-3.52-5.17,14.59,14.59,0,0,1-1-3.16,1.44,1.44,0,0,1,0-.46.73.73,0,0,1,.95-.63,8.66,8.66,0,0,1,1.13.34,23.28,23.28,0,0,1,6.93,3.83,19,19,0,0,1,4.8,5.68c.18.34.39.68.57,1a.39.39,0,0,1-.15.55,2,2,0,0,1-.48.26,5.44,5.44,0,0,1-2.15.4Z"/><path class="cls-4" d="M66,61.73a21.76,21.76,0,0,1,1.26-7.5,10.1,10.1,0,0,1,1.09-2.18,2.18,2.18,0,0,1,2.14-1,11,11,0,0,1,1.4.19,20.29,20.29,0,0,1,7,2.73A13.62,13.62,0,0,1,82.38,57a5.82,5.82,0,0,1,1.11,2.5,4.29,4.29,0,0,1-.2,2.1,7.65,7.65,0,0,1-1.61,2.68,13.43,13.43,0,0,1-4.46,3.45,14,14,0,0,1-4.75,1.33c-.49,0-1,.11-1.48.12a13.91,13.91,0,0,1-2.66-.32,1.82,1.82,0,0,1-1.48-1.36,26.13,26.13,0,0,1-.72-2.9A16.72,16.72,0,0,1,66,61.73Z"/><path class="cls-3" d="M73,62.19a1.15,1.15,0,0,1-1.1-1A1.19,1.19,0,0,1,72.94,60a1.14,1.14,0,0,1,1.13,1.07A1.11,1.11,0,0,1,73,62.19Z"/><path class="cls-3" d="M70.11,57.66a1.1,1.1,0,1,1-.1,2.2,1.1,1.1,0,0,1,.1-2.2Z"/><path class="cls-3" d="M73.64,58.65a1,1,0,0,1-1-1,1.06,1.06,0,0,1,2.11,0A1,1,0,0,1,73.64,58.65Z"/><path class="cls-5" d="M78.84,65.45a5.8,5.8,0,0,1-2.94-.76,2.79,2.79,0,0,1-1.07-1c-.34-.58.13-.91.56-.89a3.26,3.26,0,0,1,1.12.36,4.78,4.78,0,0,0,2.6.49,2.91,2.91,0,0,0,2.56-1.81c.13-.3.11-.41-.18-.59a5.55,5.55,0,0,1-1.37-1,3.63,3.63,0,0,1-.66-1.06,2.57,2.57,0,0,1,2.28-3.51,3.38,3.38,0,0,1,3.63,2.8,2.47,2.47,0,0,1-.88,2.25,1.25,1.25,0,0,1-.39.27c-.58.17-.77.62-1,1.12a7.78,7.78,0,0,1-1.85,2.72,1.58,1.58,0,0,1-.67.4A5.13,5.13,0,0,1,78.84,65.45Z"/><path class="cls-5" d="M65.23,52.92A2.16,2.16,0,1,1,63,50.83,2.14,2.14,0,0,1,65.23,52.92Z"/><path class="cls-6" d="M62.4,61.76a5.3,5.3,0,0,1-5.33,5.39,5.41,5.41,0,1,1,5.33-5.39Z"/><path class="cls-4" d="M17.38,78.47a4.83,4.83,0,0,1-.16,1.47,3.56,3.56,0,0,1-1.85,2.34,7.27,7.27,0,0,1-2.78.82,9.3,9.3,0,0,0-1.17.13.64.64,0,0,1-.24,0,18,18,0,0,1-5.08-1,13.37,13.37,0,0,1-3.39-1.82,8.51,8.51,0,0,1-1.91-2,4.69,4.69,0,0,1-.74-1.81,3.22,3.22,0,0,1,.82-2.78,4.75,4.75,0,0,1,2.19-1.49l.52-.18c.23-.09.25-.13.1-.33a7.78,7.78,0,0,1-1.35-2.66A9.84,9.84,0,0,1,2,67.59a3,3,0,0,1,3-3.32A6.33,6.33,0,0,1,7,64.55a8.78,8.78,0,0,1,3.14,1.76c.61.5,1.2,1,1.81,1.53a12,12,0,0,1,1.59,1.74,18.09,18.09,0,0,1,3.35,5.94A9,9,0,0,1,17.38,78.47Z"/><path class="cls-7" d="M14.66,78.58a1.2,1.2,0,0,1-.05.57.8.8,0,0,1-1.21.47,1.29,1.29,0,0,1-.61-.59L12.26,78a22.35,22.35,0,0,0-4.14-6.2A12.18,12.18,0,0,0,6,69.89,4.89,4.89,0,0,1,4.7,68.75a.71.71,0,0,1-.09-.93.8.8,0,0,1,1-.33,7.81,7.81,0,0,1,2.05,1.16,17.54,17.54,0,0,1,3.72,3.73,24.52,24.52,0,0,1,3.05,5.33A2.58,2.58,0,0,1,14.66,78.58Z"/><path class="cls-7" d="M5,74.53a1.45,1.45,0,0,1,.92.15,5,5,0,0,1,.75.43,22.39,22.39,0,0,1,3,2.65,1.46,1.46,0,0,1,.4,1.07.9.9,0,0,1-.83.9,1.21,1.21,0,0,1-.89-.22,3.68,3.68,0,0,1-.6-.51C6.9,78.15,6,77.31,5.1,76.55c-.24-.2-.46-.43-.68-.65A.78.78,0,0,1,5,74.53Z"/></g></g></svg>