<svg xmlns="http://www.w3.org/2000/svg" viewBox="0 0 82.81 88.67"><defs><style>.cls-1{fill:#bdbdbe;}.cls-2{fill:#828283;}.cls-3{fill:#e4e4e5;}.cls-4{fill:#421c43;}.cls-5{fill:#5c5c5c;}.cls-6{fill:#f75e9d;}</style></defs><g id="圖層_2" data-name="圖層 2"><g id="OBJECTS"><path class="cls-1" d="M50.13,88.65H31.43a12.78,12.78,0,0,1-3.21-.33A10.53,10.53,0,0,1,27,88a5.66,5.66,0,0,1-3.43-3.48,10.69,10.69,0,0,1-.65-3.31c0-.55,0-1.1,0-1.66V44.94c0-.21,0-.42,0-.63,0-.64-.05-.73-.76-.63a8,8,0,0,1-4-.54,7.45,7.45,0,0,1-3.29-2.37,7.32,7.32,0,0,1-1.56-3.9,9.37,9.37,0,0,1,.7-4.41,19,19,0,0,1,3.64-5.77c.75-.84,1.51-1.68,2.23-2.54A10.58,10.58,0,0,0,20.68,23a1.07,1.07,0,0,0,0-1.13,4.69,4.69,0,0,0-.63-1,20.51,20.51,0,0,0-1.62-1.61c-1-.86-2-1.67-2.84-2.61A12.2,12.2,0,0,1,13.73,14,7.92,7.92,0,0,1,13,8.43a11.22,11.22,0,0,1,3.49-6,9.37,9.37,0,0,1,5-2.36,10.45,10.45,0,0,1,5.26.58A15.08,15.08,0,0,1,32,4.09,20.65,20.65,0,0,1,35.21,8c.22.36.25.36.63.17a10.49,10.49,0,0,1,4.64-1.07A4.2,4.2,0,0,0,41.1,7a1.89,1.89,0,0,1,.39,0,22.77,22.77,0,0,1,3.58.55A15.51,15.51,0,0,1,48.38,9a19.48,19.48,0,0,1,5,4.36c1,1.12,1.85,2.29,2.72,3.48a17.65,17.65,0,0,0,1.71,2,3.91,3.91,0,0,0,2.23,1.08,12.35,12.35,0,0,0,2.11.18c2.08,0,4.16,0,6.24,0a18.46,18.46,0,0,1,3,.3,8.38,8.38,0,0,1,3.44,1.51,7.74,7.74,0,0,1,2.75,3.85,12.11,12.11,0,0,1,.66,3.15,12.49,12.49,0,0,1,.09,2.44c-.08.74-.09,1.47-.11,2.2s0,1.63,0,2.45a5.57,5.57,0,0,0,2.16,4.45,9.61,9.61,0,0,1,1.81,1.74,3,3,0,0,1,.54,1A2,2,0,0,1,82,45.41,2.58,2.58,0,0,1,79.8,46a4.72,4.72,0,0,1-2-.81,1.86,1.86,0,0,0-.32-.23c-.23-.11-.38-.46-.65-.35s-.25.44-.34.68A9.6,9.6,0,0,1,75.57,47a4.22,4.22,0,0,1-.88,1,2.1,2.1,0,0,1-1.13.54,1.87,1.87,0,0,1-2.16-1.77A6.17,6.17,0,0,1,71.67,44a10.11,10.11,0,0,0,.61-2.76,13.47,13.47,0,0,0,0-2.29,20.75,20.75,0,0,0-.58-3.57,10.87,10.87,0,0,0-.7-2,4.4,4.4,0,0,0-3-2.47,3,3,0,0,0-.78-.07H57.85a.52.52,0,0,0-.46.26c-.23.35-.46.7-.71,1a16,16,0,0,1-5.58,4.89,15.64,15.64,0,0,1-3.83,1.42,8.72,8.72,0,0,1-2,.29c-.21,0-.41,0-.62.07a1.74,1.74,0,0,1-.39,0,13.84,13.84,0,0,1-6-1.52c-.32-.18-.63-.38-1-.57a.17.17,0,0,0-.28.14c0,.19,0,.37,0,.55v9.16c0,.91,0,.87.87.87H65.34a11,11,0,0,1,2.36.16,5.7,5.7,0,0,1,3,1.57A4.81,4.81,0,0,1,72,52.06a5.81,5.81,0,0,1-.16,2.27,4.77,4.77,0,0,1-3.07,3.35,7.76,7.76,0,0,1-2.7.48h-28c-1.14,0-1.08-.1-1.08,1V76.51c0,1,0,1,1,1H68.37c.55,0,1.11,0,1.66,0a6.46,6.46,0,0,1,2.68.55,4.94,4.94,0,0,1,3.14,4.46,6.27,6.27,0,0,1-.09,1.88,4.91,4.91,0,0,1-3.27,3.74,7.36,7.36,0,0,1-2.62.51H50.13Z"/><path class="cls-2" d="M68.87,88.65c-.52,0-1.05,0-1.57,0s-.48-.1-.49-.46a6.36,6.36,0,0,1,.24-2.34,7.52,7.52,0,0,1,1.36-2.56c.36-.42.37-.43,0-.86A7.79,7.79,0,0,1,67,79.21,5.57,5.57,0,0,1,67,77.8c0-.27.12-.39.39-.4a23.11,23.11,0,0,1,2.76,0c.41,0,.82.15,1.24.2A5.34,5.34,0,0,1,74,78.89a4.8,4.8,0,0,1,1.82,3.69,6.65,6.65,0,0,1-.15,2A5.53,5.53,0,0,1,74,87.3a6.19,6.19,0,0,1-3.7,1.35c-.47,0-.94,0-1.42,0Z"/><path class="cls-2" d="M65.31,58.18H63.74c-.42,0-.51-.1-.53-.52a8.09,8.09,0,0,1,.68-3.76c.17-.41.57-.77.5-1.21a3.85,3.85,0,0,0-.54-1.12,6.61,6.61,0,0,1-.68-3.52c0-.42.11-.52.52-.53a31.42,31.42,0,0,1,3.22,0,5.87,5.87,0,0,1,3.75,1.64,5,5,0,0,1,1.39,3.18,5.84,5.84,0,0,1-.57,3.06,4.31,4.31,0,0,1-2.24,2.13,6.85,6.85,0,0,1-2.67.61H65.31Z"/><path class="cls-2" d="M22.9,44.4v-.08c0-.92,0-.82.75-1a24.59,24.59,0,0,0,3.08-1.21,18.73,18.73,0,0,0,3.59-2.27,14.34,14.34,0,0,0,2.92-3.29c.14-.21.28-.44.44-.65a2.05,2.05,0,0,1,.32-.34.53.53,0,0,1,.59-.09.61.61,0,0,1,.33.59,2.19,2.19,0,0,1-.23.83,9.35,9.35,0,0,1-1.06,1.84,17.43,17.43,0,0,1-6.24,5.09,23.15,23.15,0,0,1-3.53,1.35l-.07,0c-.84.24-.88.21-.89-.67Z"/><path class="cls-2" d="M70.43,27.82a2.41,2.41,0,0,1,.33-1.2,9.56,9.56,0,0,1,3.85-4.16c.53-.29.69-.27,1.12.14a6.17,6.17,0,0,1,.92,1.17c.14.24.09.38-.2.46a6.81,6.81,0,0,0-3.66,3.08,6.52,6.52,0,0,1-.87,1.21.88.88,0,0,1-.54.29C70.79,28.86,70.44,28.49,70.43,27.82Z"/><path class="cls-2" d="M39.69,15.54c0,.29,0,.58,0,.87a.54.54,0,0,1-.47.54.63.63,0,0,1-.71-.37,3.24,3.24,0,0,1-.16-.53A30.66,30.66,0,0,0,37,11.79a17.48,17.48,0,0,0-1.21-2.55,2.31,2.31,0,0,1-.18-.35c-.21-.44-.19-.48.26-.72a6.51,6.51,0,0,1,.71-.33c.51-.19.64-.15.89.33A21.77,21.77,0,0,1,38.71,11a20.64,20.64,0,0,1,.88,3.19A6,6,0,0,1,39.69,15.54Z"/><path class="cls-2" d="M67.43,26.21a5.08,5.08,0,0,1,.25-1.48,12.19,12.19,0,0,1,2.23-4.13.82.82,0,0,1,.72-.39,7.11,7.11,0,0,1,2.13.5c.12.05.13.16,0,.26a.61.61,0,0,1-.17.15,7.35,7.35,0,0,0-2.35,2.81,13.81,13.81,0,0,0-1,2.15,7.91,7.91,0,0,1-.35.79.76.76,0,0,1-.83.47.8.8,0,0,1-.69-.75C67.44,26.44,67.44,26.28,67.43,26.21Z"/><path class="cls-2" d="M51.33,27.84v-.08c0-.3.1-.59.41-.71a.86.86,0,0,1,.95.16,2.35,2.35,0,0,1,.26.29A10.21,10.21,0,0,0,57,30.62l.28.13a.2.2,0,0,1,.09.27,2.06,2.06,0,0,1-.21.42c-.23.35-.47.69-.73,1s-.28.28-.53.16A9.23,9.23,0,0,1,51.68,29,2.36,2.36,0,0,1,51.33,27.84Z"/><path class="cls-2" d="M63.34,24.52a8.48,8.48,0,0,1,1.17-4,1,1,0,0,1,.95-.57c.61,0,1.21,0,1.82,0,.24,0,.32.18.18.37l-.2.24a7.74,7.74,0,0,0-1.69,3.25c-.13.48-.24,1-.37,1.45a4.17,4.17,0,0,1-.25.67.75.75,0,0,1-.75.47.82.82,0,0,1-.72-.54,2.16,2.16,0,0,1-.14-.61C63.32,25,63.34,24.76,63.34,24.52Z"/><path class="cls-3" d="M21.63,3.93a8.55,8.55,0,0,1,4.85,1.45,16.27,16.27,0,0,1,3.63,3.25c.51.6,1.09,1.14,1.63,1.71A15.93,15.93,0,0,1,34.35,14a20.46,20.46,0,0,1,1.9,5,9.48,9.48,0,0,1,.31,2.18c0,.45.13.88.12,1.33a20.42,20.42,0,0,1-1.25,7.1,17,17,0,0,1-2.89,4.86,21.41,21.41,0,0,1-7,5.31,8.21,8.21,0,0,1-4,.91,3.78,3.78,0,0,1-3.06-1.53,3.71,3.71,0,0,1-.63-2.84A8.73,8.73,0,0,1,19.3,33a24.88,24.88,0,0,1,3.09-3.78,43.08,43.08,0,0,0,3.29-3.72,6.06,6.06,0,0,0,.89-1.66,2.7,2.7,0,0,0-.23-2.42,7.8,7.8,0,0,0-1.78-1.89c-.85-.7-1.74-1.35-2.58-2.07a13.76,13.76,0,0,1-4.29-5.94,9.2,9.2,0,0,1-.58-2.77,4.48,4.48,0,0,1,2.12-4.23,3.5,3.5,0,0,1,1.86-.56Z"/><path class="cls-3" d="M59.58,84a2.71,2.71,0,0,1,1.18.16.85.85,0,0,1,.58.84.79.79,0,0,1-.54.79,4.06,4.06,0,0,1-2.15.29,1.16,1.16,0,0,1-.94-.84,1.37,1.37,0,0,1,.74-1,1.56,1.56,0,0,1,.45-.14C59.16,84,59.42,84,59.58,84Z"/><path class="cls-3" d="M62.27,82.48h-.71a1.26,1.26,0,0,1-.59-.2.91.91,0,0,1-.16-1.42,1,1,0,0,1,.61-.31,4.71,4.71,0,0,1,1.87.11,1.33,1.33,0,0,1,.55.29.77.77,0,0,1-.19,1.34,1.43,1.43,0,0,1-.44.15c-.31,0-.63,0-.94.08Z"/><path class="cls-3" d="M56.23,80.7a7.37,7.37,0,0,1,.94,0,.75.75,0,0,1,.69.82.68.68,0,0,1-.38.64,2.62,2.62,0,0,1-1,.31,13.49,13.49,0,0,1-1.42,0,.91.91,0,0,1-.85-.8.84.84,0,0,1,.52-.81,1.69,1.69,0,0,1,.76-.2h.71Z"/><path class="cls-3" d="M29,62.75a3.08,3.08,0,0,1,0,1.09,1,1,0,0,1-.87.79,1.12,1.12,0,0,1-1-.62,1,1,0,0,1-.08-.22,4.35,4.35,0,0,1,0-2.18,1.33,1.33,0,0,1,.21-.41.85.85,0,0,1,1.49.1,1.73,1.73,0,0,1,.23.74C29,62.28,29,62.51,29,62.75Z"/><path class="cls-3" d="M28.8,69.15a2.79,2.79,0,0,1,0,.42.83.83,0,0,1-.6.75A1,1,0,0,1,27.14,70a.35.35,0,0,1-.08-.13,3.19,3.19,0,0,1-.12-2.37.79.79,0,0,1,.85-.55.83.83,0,0,1,.85.68A4.29,4.29,0,0,1,28.8,69.15Z"/><path class="cls-3" d="M32.48,65c0,.25,0,.51,0,.78a1,1,0,0,1-.36.67.84.84,0,0,1-1.37-.29,2,2,0,0,1-.17-.68A4.55,4.55,0,0,1,30.74,64a.82.82,0,0,1,.14-.28.78.78,0,0,1,1.36,0,1.13,1.13,0,0,1,.2.59C32.45,64.54,32.46,64.78,32.48,65Z"/><path class="cls-4" d="M47.06,24A2.11,2.11,0,0,1,49.18,22a2.2,2.2,0,0,1,2.16,2.17,2.13,2.13,0,0,1-2.21,2.12A2.05,2.05,0,0,1,47.06,24Z"/><path class="cls-5" d="M43,11.6a.88.88,0,0,1-.85-1.08,9.66,9.66,0,0,1,.86-2,11.15,11.15,0,0,1,1.57-2.16,9.17,9.17,0,0,1,4-2.61,2.28,2.28,0,0,1,.86-.1.69.69,0,0,1,.65.48.67.67,0,0,1-.21.72,2.89,2.89,0,0,1-.51.35,13.12,13.12,0,0,0-3.83,3.36,16.64,16.64,0,0,0-1.07,1.65,10.37,10.37,0,0,1-.62,1A.92.92,0,0,1,43,11.6Z"/><path class="cls-5" d="M53.7,7.7a.7.7,0,0,1-.28.53,3.8,3.8,0,0,1-.49.26,16.63,16.63,0,0,0-4.31,2.87c-.33.31-.67.59-1,.87a.9.9,0,0,1-1.1.14.85.85,0,0,1-.37-1.14,2.61,2.61,0,0,1,.45-.65,12.2,12.2,0,0,1,2.93-2.37,12,12,0,0,1,1.68-.85,3.81,3.81,0,0,1,1.86-.25A.68.68,0,0,1,53.7,7.7Z"/><path class="cls-6" d="M46.46,34.93a6.9,6.9,0,0,1-2.59-.65,3.53,3.53,0,0,1-1.15-1,1.54,1.54,0,0,1-.19-1.76,2.63,2.63,0,0,1,1-1.14,6,6,0,0,1,2.36-.83,6.68,6.68,0,0,1,4.12.64,2.63,2.63,0,0,1,1.09,1,1.88,1.88,0,0,1-.45,2.36,4.46,4.46,0,0,1-1.26.79A8,8,0,0,1,46.46,34.93Z"/><path class="cls-2" d="M23.46,85.33a7.88,7.88,0,0,1-2.75-.59A6,6,0,0,1,18.53,83a7.51,7.51,0,0,1-1.47-3.11,28.36,28.36,0,0,1-.62-4.2,11.39,11.39,0,0,0-1.09-4.09,6.32,6.32,0,0,0-4-3.32,8.54,8.54,0,0,0-2-.26c-.24,0-.47,0-.71,0a.69.69,0,0,1-.49-.23.56.56,0,0,1,.08-.88,2.53,2.53,0,0,1,.95-.38,7,7,0,0,1,4.64.76,9.17,9.17,0,0,1,3.94,3.86A16.43,16.43,0,0,1,19.35,76a26.78,26.78,0,0,0,.71,3.07A7,7,0,0,0,21.14,81a1.71,1.71,0,0,0,1,.6,10.94,10.94,0,0,0,1.7.36,5,5,0,0,1,1.88.54,1.36,1.36,0,0,1,.7,1.67,1.35,1.35,0,0,1-1.15,1A9.82,9.82,0,0,1,23.46,85.33Z"/><path class="cls-1" d="M3.55,61.09a8.17,8.17,0,0,1,4.68,1.67A6.36,6.36,0,0,1,10.3,65.2a4.88,4.88,0,0,1,.43,1.59,1.67,1.67,0,0,1-.26,1A3.21,3.21,0,0,1,9.2,69a6,6,0,0,1-7.39-1A6.63,6.63,0,0,1,0,63.65a2.15,2.15,0,0,1,1.26-2.1,4.12,4.12,0,0,1,2-.46Z"/><path class="cls-3" d="M2,63.63a.74.74,0,0,1,.52.15l.29.26A8.49,8.49,0,0,0,5.44,65.8l.92.45a2.06,2.06,0,0,1,.4.25c.33.27.42.51.3.81a.84.84,0,0,1-.92.59,5.52,5.52,0,0,1-1.59-.43,6.5,6.5,0,0,1-2.77-2.12,2.2,2.2,0,0,1-.4-.93A.67.67,0,0,1,2,63.63Z"/><path class="cls-3" d="M5.3,62.87a3,3,0,0,1,1.59,1,.8.8,0,0,1-.66,1.25,2.15,2.15,0,0,1-1.85-1,.8.8,0,0,1,0-.9C4.58,62.92,4.85,62.85,5.3,62.87Z"/></g></g></svg>