<svg xmlns="http://www.w3.org/2000/svg" viewBox="0 0 66.26 86.77"><defs><style>.cls-1{fill:#ffda95;}.cls-2{fill:#fff;}.cls-3{fill:#421c43;}.cls-4{fill:#ffac1b;}.cls-5{fill:#ffa8d0;}.cls-6{fill:#ff7248;}.cls-7{fill:#c94a28;}</style></defs><g id="圖層_2" data-name="圖層 2"><g id="OBJECTS"><path class="cls-1" d="M16.6,51.52V26.26a21,21,0,0,1,.15-3.46,4.21,4.21,0,0,0,0-.71,10.79,10.79,0,0,1,2.34-6.73,10.59,10.59,0,0,1,2.1-2,5.55,5.55,0,0,0,1.09-.91,1.35,1.35,0,0,1,.49-.37,20.17,20.17,0,0,1,2.58-1A10.94,10.94,0,0,1,29,11a6.56,6.56,0,0,0,1.25.07,4.33,4.33,0,0,1,2.83.79A24.38,24.38,0,0,1,37,15c1,1,2,2,3,3a10.78,10.78,0,0,0,3.18,2.16,8.74,8.74,0,0,0,1.82.49c.82.19,1.64.37,2.46.57a6.15,6.15,0,0,1,4.49,4.25,8.82,8.82,0,0,1,.48,2.39,10,10,0,0,1-.13,2.5,6.41,6.41,0,0,1-2.46,3.91,15,15,0,0,1-4.51,2.4A54,54,0,0,1,37,39c-1.16.22-2.33.38-3.5.54a3.6,3.6,0,0,1-1.18,0,2.52,2.52,0,0,0-.47-.06.73.73,0,0,0-.82.76c0,.31,0,.63,0,.95V46.4c0,.22,0,.43,0,.64a.44.44,0,0,0,.21.4,3.29,3.29,0,0,0,.6.36,25.29,25.29,0,0,0,2.54.86c1.12.27,2.23.6,3.35.91a10.36,10.36,0,0,1,2.24,1,4.56,4.56,0,0,1,1.07.79c.35.35.72.7,1.06,1.06A5.13,5.13,0,0,1,43.6,56a4.93,4.93,0,0,1-1.27,3.32,7.85,7.85,0,0,1-3.44,2.29,9.26,9.26,0,0,1-2.85.57,2.61,2.61,0,0,0-.55.08,2.55,2.55,0,0,1-.78,0,17.87,17.87,0,0,1-3.33-.59c-.26-.08-.32,0-.34.26v12c0,1-.06,1,1,1H59.35a9.09,9.09,0,0,1,3.75.8,5.67,5.67,0,0,1,2.68,2.68,4.56,4.56,0,0,1,.41,1.6,5.6,5.6,0,0,1-1,4.34,6.18,6.18,0,0,1-3.6,2.27,7.25,7.25,0,0,1-1.8.19H24.38a9.74,9.74,0,0,1-3.47-.63,5.58,5.58,0,0,1-2.76-2,7.71,7.71,0,0,1-1.23-2.72,16.69,16.69,0,0,1-.32-3.6Z"/><path class="cls-2" d="M22,70a1.9,1.9,0,0,1-.6,1.41.51.51,0,0,1-.77,0,2.06,2.06,0,0,1-.56-.94,4,4,0,0,1-.13-.77c0-.84,0-1.68,0-2.52a1.18,1.18,0,0,1,.15-.61.69.69,0,0,1,1.06-.25,1.07,1.07,0,0,1,.44.64c.08.33.16.66.21,1C21.87,68.64,21.94,69.32,22,70Z"/><path class="cls-2" d="M24.34,68.67c0-.37,0-.73,0-1.1a1.67,1.67,0,0,1,.33-1,.64.64,0,0,1,1-.08,1.54,1.54,0,0,1,.44.82,10.78,10.78,0,0,1,.31,2.88,1.1,1.1,0,0,1-.91,1.12,1.16,1.16,0,0,1-1.07-.89,2,2,0,0,1-.09-.54c0-.39,0-.79,0-1.18Z"/><path class="cls-2" d="M56.47,80.46a7.59,7.59,0,0,1-1.54-.16,4,4,0,0,1-.52-.17.78.78,0,0,1-.52-.73.83.83,0,0,1,.5-.74,3,3,0,0,1,1.07-.25,4.07,4.07,0,0,1,2.73.49l.2.12a.57.57,0,0,1-.08,1A3.36,3.36,0,0,1,56.47,80.46Z"/><path class="cls-2" d="M43.8,84.2a3.33,3.33,0,0,1-1.26-.13.78.78,0,0,1-.65-.69.8.8,0,0,1,.53-.79,2.23,2.23,0,0,1,.6-.2,12.3,12.3,0,0,1,2.34-.24,1.36,1.36,0,0,1,1,.47.67.67,0,0,1,0,1,1.2,1.2,0,0,1-.81.44A10.9,10.9,0,0,1,43.8,84.2Z"/><path class="cls-2" d="M32.07,84.69a13,13,0,0,0-1.4-.17,1.17,1.17,0,0,1-.59-.21c-.61-.41-.6-.94,0-1.42a.73.73,0,0,1,.34-.17,6.56,6.56,0,0,1,1.87-.22c.28,0,.57.06.85.1l.24,0a1.16,1.16,0,0,1,.78.9,1.08,1.08,0,0,1-.79,1C32.91,84.6,32.49,84.63,32.07,84.69Z"/><path class="cls-2" d="M55.93,84.2a5.43,5.43,0,0,1-1.56-.12l-.23,0a.89.89,0,0,1-.65-.72.74.74,0,0,1,.54-.77,5.07,5.07,0,0,1,1.39-.24,6.87,6.87,0,0,1,1.63.14,1.64,1.64,0,0,1,.71.32.57.57,0,0,1,.06.94,1.41,1.41,0,0,1-1,.49Z"/><path class="cls-2" d="M45,80.14a7.83,7.83,0,0,1-1-.08.92.92,0,0,1-.83-1,.9.9,0,0,1,.68-.86,4.53,4.53,0,0,1,2.63,0,.88.88,0,0,1,.69,1,.7.7,0,0,1-.4.63,1.9,1.9,0,0,1-.81.27Z"/><path class="cls-2" d="M32.39,80.29H31.6a1.83,1.83,0,0,1-.46-.07.83.83,0,0,1-.58-.69.86.86,0,0,1,.44-.86.88.88,0,0,1,.28-.12,4.88,4.88,0,0,1,2.18-.13,1.26,1.26,0,0,1,.77.36.71.71,0,0,1,0,1.1,1.31,1.31,0,0,1-.91.41Z"/><path class="cls-3" d="M47.16,32.57a5.73,5.73,0,0,1-2.06-.51,2.16,2.16,0,0,1-.7-.49.57.57,0,0,1-.16-.71.7.7,0,0,1,.74-.47,2.36,2.36,0,0,1,.46.1,8.64,8.64,0,0,1,.85.19,3.27,3.27,0,0,0,1.86-.08,3,3,0,0,0,2.06-1.9,8,8,0,0,0,.23-.84c.23-.76,0-.72-.58-.82a3.24,3.24,0,0,1-2.18-5.12,2.83,2.83,0,0,1,2.93-1.13,3.26,3.26,0,0,1,2.79,3,2.47,2.47,0,0,1-.25,1.3,3.68,3.68,0,0,1-.31.63,1.09,1.09,0,0,0-.14.84,3.52,3.52,0,0,1-.2,1.93,6.47,6.47,0,0,1-1.58,2.6A5.05,5.05,0,0,1,47.16,32.57Z"/><path class="cls-3" d="M34.66,24.87a2.16,2.16,0,1,1,0-4.32,2.16,2.16,0,1,1,0,4.32Z"/><path class="cls-4" d="M31.13,61.86a1.07,1.07,0,0,1-1.36,1,4.57,4.57,0,0,1-.91-.46,22.78,22.78,0,0,1-4.05-3,22.17,22.17,0,0,1-3.58-4.27,5.08,5.08,0,0,1-.72-1.48,1.75,1.75,0,0,1-.09-.38.78.78,0,0,1,.44-.77.68.68,0,0,1,.81.07,3,3,0,0,1,.57.65A28.94,28.94,0,0,0,25.42,57a23.16,23.16,0,0,0,4.21,3.29,5.86,5.86,0,0,1,1.15.82A1.14,1.14,0,0,1,31.13,61.86Z"/><path class="cls-4" d="M30,20.45a.91.91,0,0,1-.89-.54.79.79,0,0,1,.09-.88,1.48,1.48,0,0,1,.25-.31,12.87,12.87,0,0,1,2.76-1.92,1,1,0,0,1,1.17.15,1.06,1.06,0,0,1,.2,1.48,2.11,2.11,0,0,1-.51.48,15.25,15.25,0,0,1-2.39,1.37A1.59,1.59,0,0,1,30,20.45Z"/><path class="cls-5" d="M35.8,29.07a5.37,5.37,0,0,1,3,.65,3,3,0,0,1,.34.2,1.92,1.92,0,0,1,.3,3.2,3.87,3.87,0,0,1-1.33.81,6.82,6.82,0,0,1-5,.06,4.75,4.75,0,0,1-1.17-.64,1.94,1.94,0,0,1,0-3.12A5.63,5.63,0,0,1,35,29.07C35.28,29.05,35.54,29.07,35.8,29.07Z"/><path class="cls-6" d="M20.87,0a8.94,8.94,0,0,1,5.6,1.9,13.12,13.12,0,0,1,2.09,1.92A7.79,7.79,0,0,1,30,6.45a9.36,9.36,0,0,1,.57,3.64,3.43,3.43,0,0,1-.06.55,1,1,0,0,1-.68.79c-.15.05-.29.12-.44.18a8.69,8.69,0,0,0-4.86,4.7,15.05,15.05,0,0,0-1.34,4.59A14.32,14.32,0,0,0,23,23.34a20.7,20.7,0,0,0,.73,5.13c.16.5.31,1,.48,1.5a13.07,13.07,0,0,0,2.46,4.1,20.4,20.4,0,0,0,3.56,3.45A12.67,12.67,0,0,0,33,39.09a9.09,9.09,0,0,1,4.78,4.38,6,6,0,0,1,.67,2.66A7.84,7.84,0,0,1,37.52,50a5.45,5.45,0,0,1-4,2.82,6.81,6.81,0,0,1-5.13-1.3,8.45,8.45,0,0,1-2.91-3.36.61.61,0,0,0-.07-.14c-.18-.37-.19-.37-.49-.13a9.43,9.43,0,0,1-2.79,1.59,6,6,0,0,1-4.24,0A10.46,10.46,0,0,1,16.83,49a5.73,5.73,0,0,1-3.22-4.82,11.66,11.66,0,0,1,1.23-6.33,4.46,4.46,0,0,0,.22-.5.12.12,0,0,0-.1-.17,5.11,5.11,0,0,0-.55-.05,9.23,9.23,0,0,1-5.52-2A6.32,6.32,0,0,1,6.5,30.4a8,8,0,0,1,1.55-5,12,12,0,0,1,2.06-2.26c.35-.31.34-.29,0-.64a11.65,11.65,0,0,1-1.17-1.16A6.53,6.53,0,0,1,7.32,17,4.3,4.3,0,0,1,7.6,15.5a7.82,7.82,0,0,1,6-5.25,12.72,12.72,0,0,1,2-.14c.26,0,.32-.11.17-.36a8.12,8.12,0,0,1-1-3.68,5.6,5.6,0,0,1,.33-2.17A5.71,5.71,0,0,1,18.81.29,5.27,5.27,0,0,1,20.87,0Z"/><path class="cls-7" d="M22.62,9.61a1.08,1.08,0,0,1-1.37,1.11,1.42,1.42,0,0,1-.73-.44,13.63,13.63,0,0,1-1.63-2.22,4.59,4.59,0,0,1-.34-.79.93.93,0,0,1,.17-.89.93.93,0,0,1,1.44-.23,3.55,3.55,0,0,1,.4.38A18,18,0,0,1,22.3,8.76,1.89,1.89,0,0,1,22.62,9.61Z"/><path class="cls-7" d="M26.62,7.45a1.11,1.11,0,0,1-.57,1,1.2,1.2,0,0,1-1.26-.12A2.08,2.08,0,0,1,24.47,8a16.86,16.86,0,0,1-1.58-2.43,1.89,1.89,0,0,1-.21-.51,1,1,0,0,1,.34-1,1,1,0,0,1,1.11-.11,2.07,2.07,0,0,1,.56.41,12.12,12.12,0,0,1,1.76,2.5A1.23,1.23,0,0,1,26.62,7.45Z"/><path class="cls-7" d="M12.66,31a1.18,1.18,0,0,1-1.24-.74A1.2,1.2,0,0,1,12,29.11a2.08,2.08,0,0,1,.43-.19,16.7,16.7,0,0,1,3.34-.85,1.16,1.16,0,0,1,.88.19.85.85,0,0,1,0,1.45,3.48,3.48,0,0,1-.77.39A24.65,24.65,0,0,1,13,31,1.68,1.68,0,0,1,12.66,31Z"/><path class="cls-7" d="M28.29,46.39a7.66,7.66,0,0,1,1-3,1,1,0,0,1,1.08-.47A1,1,0,0,1,31,44a13.2,13.2,0,0,1-.49,2.31c-.07.25-.17.5-.26.74a1.41,1.41,0,0,1-.62.7.84.84,0,0,1-1.25-.39A2,2,0,0,1,28.29,46.39Z"/><path class="cls-7" d="M17.73,41.14a2.05,2.05,0,0,1,.44-1.23,14.19,14.19,0,0,1,2-2,1.79,1.79,0,0,1,.62-.34.76.76,0,0,1,1,.93,2,2,0,0,1-.43.83l-1.61,1.93a2,2,0,0,1-1.25.62A.61.61,0,0,1,17.73,41.14Z"/><path class="cls-7" d="M21.54,44.32a1.3,1.3,0,0,1,.16-.83,10.18,10.18,0,0,1,1.93-2.26,2.27,2.27,0,0,1,.25-.18.88.88,0,0,1,1,0,.83.83,0,0,1,.36.89,2.05,2.05,0,0,1-.23.67,11.58,11.58,0,0,1-1.47,2,1.89,1.89,0,0,1-1,.56.71.71,0,0,1-1-.71A.74.74,0,0,1,21.54,44.32Z"/><path class="cls-7" d="M15.87,18.55a8.1,8.1,0,0,1-2.64-.85,1.88,1.88,0,0,1-.71-.82.58.58,0,0,1,.16-.83,1.54,1.54,0,0,1,1.25-.34,8.94,8.94,0,0,1,2.79,1.23.89.89,0,0,1,.42.71.79.79,0,0,1-.77.9Z"/><path class="cls-7" d="M14.08,33.75A.91.91,0,0,1,14.4,33a3.47,3.47,0,0,1,.38-.29,10.26,10.26,0,0,1,2-.94,1.81,1.81,0,0,1,.77-.13.94.94,0,0,1,.83.62.85.85,0,0,1-.27,1,8.15,8.15,0,0,1-2.77,1.44,1.11,1.11,0,0,1-1.07-.34A.66.66,0,0,1,14.08,33.75Z"/><path class="cls-7" d="M35.43,45.87a7.63,7.63,0,0,1-.5,2.21,1.13,1.13,0,0,1-.46.53.94.94,0,0,1-1.4-.35,1.19,1.19,0,0,1-.15-.76,11.07,11.07,0,0,1,.59-2.28,1.43,1.43,0,0,1,.38-.59A.87.87,0,0,1,35.3,45,2.1,2.1,0,0,1,35.43,45.87Z"/><path class="cls-7" d="M15.76,11.94a3.19,3.19,0,0,1,.34.09,7.07,7.07,0,0,1,2.29,1.35,2.37,2.37,0,0,1,.27.28.81.81,0,0,1,.05,1,.89.89,0,0,1-.88.38,1.76,1.76,0,0,1-.46-.14c-.63-.3-1.27-.6-1.9-.94a1.58,1.58,0,0,1-.82-1.1.54.54,0,0,1,.2-.56A1.65,1.65,0,0,1,15.76,11.94Z"/><path class="cls-4" d="M11.28,27.24a9.6,9.6,0,0,1-2.82-.46,2.33,2.33,0,0,1-.78-.37,8.35,8.35,0,0,1-2.56-2.53,2.23,2.23,0,0,1-.35-1.19,4.18,4.18,0,0,1,.08-1.41,3.76,3.76,0,0,1,1.49-2.07,4.19,4.19,0,0,1,2-.71,9.69,9.69,0,0,1,4.26.6,15.42,15.42,0,0,1,3.59,1.95,7.54,7.54,0,0,1,1.28,1.18,2.92,2.92,0,0,1,.55.95,1.6,1.6,0,0,1-.52,2,7.2,7.2,0,0,1-1.53,1,14.29,14.29,0,0,1-3.06,1A9,9,0,0,1,11.28,27.24Z"/><path class="cls-1" d="M11.29,27.24a10,10,0,0,1-2.86-.47,2.53,2.53,0,0,1-.85-.43,7.83,7.83,0,0,1-2.47-2.49,3,3,0,0,1-.19-.35c-.31-.69-.18-1,.52-1.27a6.1,6.1,0,0,1,1.83-.43,8.92,8.92,0,0,1,1.25-.11,15.77,15.77,0,0,1,3.27.5,15.65,15.65,0,0,1,5,2.54l.31.25a.24.24,0,0,1,0,.4,4.67,4.67,0,0,1-.84.58A10.52,10.52,0,0,1,11.29,27.24Z"/><path class="cls-4" d="M10.16,67.63A19.15,19.15,0,0,0,10,64.46a6.17,6.17,0,0,0-.67-2.09,4.74,4.74,0,0,0-1.94-1.8l-.91-.47A3.64,3.64,0,0,1,6,59.75.71.71,0,0,1,5.64,59a.87.87,0,0,1,.78-.69,4.46,4.46,0,0,1,1.95.16,6.22,6.22,0,0,1,3.33,2.87,9.36,9.36,0,0,1,1,3.13A19.4,19.4,0,0,1,12.89,67c0,1.15.09,2.31.16,3.46a3.69,3.69,0,0,0,.21.84,8.45,8.45,0,0,0,1.18,2.48,4.73,4.73,0,0,0,2.92,2,8.33,8.33,0,0,0,1.73.06c.34,0,.69,0,1,0a1.37,1.37,0,0,1,1.13,2,1.18,1.18,0,0,1-.68.62A7.27,7.27,0,0,1,18,79,8.39,8.39,0,0,1,16.3,79a6,6,0,0,1-2.61-1.24,8.5,8.5,0,0,1-2.51-3.38,14.4,14.4,0,0,1-.92-3.82C10.16,69.52,10.19,68.53,10.16,67.63Z"/><path class="cls-1" d="M5,63.22a9.75,9.75,0,0,1-2.79-.51A3.73,3.73,0,0,1,.66,61.59a2.69,2.69,0,0,1,.75-4.13,11.12,11.12,0,0,1,1.23-.53.17.17,0,0,0,.09-.26c-.12-.2-.23-.41-.36-.61a4.93,4.93,0,0,1-.84-2.44,2.83,2.83,0,0,1,2.08-3.06A3.69,3.69,0,0,1,6.49,51,6.94,6.94,0,0,1,8.7,53a10.06,10.06,0,0,1,1.92,4.28,4.72,4.72,0,0,1-2,4.88A6.93,6.93,0,0,1,5,63.22Z"/><path class="cls-4" d="M5.11,53.54a1.07,1.07,0,0,1,.77.28,12.14,12.14,0,0,1,2.17,2.47.87.87,0,0,1-.13,1.21,1,1,0,0,1-1.28.12,2.4,2.4,0,0,1-.26-.18,10.7,10.7,0,0,1-2-2.41,1,1,0,0,1-.11-1A.86.86,0,0,1,5.11,53.54Z"/><path class="cls-4" d="M6,61.51a21.91,21.91,0,0,1-3-.58,3.16,3.16,0,0,1-.5-.22A.73.73,0,0,1,2,60a.74.74,0,0,1,.58-.67,1,1,0,0,1,.62-.07,21.61,21.61,0,0,0,2.67.14,2,2,0,0,1,.75.2,1,1,0,0,1,.62,1,1.09,1.09,0,0,1-.83.86A3.56,3.56,0,0,1,6,61.51Z"/></g></g></svg>