<svg xmlns="http://www.w3.org/2000/svg" viewBox="0 0 87.05 97.25"><defs><style>.cls-1{fill:#3472c0;}.cls-2{fill:#2b57a0;}.cls-3{fill:#92d8ff;}.cls-4{fill:#fff;}.cls-5{fill:#ffda95;}.cls-6{fill:#ffac1b;}.cls-7{fill:#421c43;}.cls-8{fill:#6fb2f3;}.cls-9{fill:#ffa8d0;}</style></defs><g id="圖層_2" data-name="圖層 2"><g id="OBJECTS"><path class="cls-1" d="M50.42,10a3.54,3.54,0,0,1,2.47,1.25A4.46,4.46,0,0,1,54,14.06a7.29,7.29,0,0,0,1.87,4.41,3.59,3.59,0,0,1,.37.5.62.62,0,0,1,0,.74.71.71,0,0,1-.7.27,2.72,2.72,0,0,1-.38-.11,15.09,15.09,0,0,1-4.47-2.44,9.29,9.29,0,0,1-2.48-3A4,4,0,0,1,47.84,12a1.34,1.34,0,0,1,.18-.52A2.94,2.94,0,0,1,50.42,10Z"/><path class="cls-2" d="M58,9a3.75,3.75,0,0,1,1.5-2.81,1.4,1.4,0,0,1,.65-.28,2.16,2.16,0,0,1,2.58,1.73,3.94,3.94,0,0,1-.36,2.44,17.49,17.49,0,0,0-1.08,2.79,5,5,0,0,0-.18,1.33,2.5,2.5,0,0,1,0,.47.8.8,0,0,1-.58.68.7.7,0,0,1-.76-.28,5.12,5.12,0,0,1-.87-1.5A14.49,14.49,0,0,1,58,9Z"/><path class="cls-1" d="M40,69.22a3.54,3.54,0,0,1-1.76,2.48,7.59,7.59,0,0,1-2.11.85,5.53,5.53,0,0,0-2.4,1.3c-.38.36-.74.73-1.11,1.11a6.25,6.25,0,0,1-.45.44.62.62,0,0,1-1-.34,1.79,1.79,0,0,1,0-.86,14.66,14.66,0,0,1,1.09-3.44c.08-.17.18-.33.25-.5a9.44,9.44,0,0,1,2.71-3.43A3.7,3.7,0,0,1,37,66C38.57,65.69,40,67,40,69.22Z"/><path class="cls-2" d="M41.21,81.59a4.48,4.48,0,0,1-1.61-.32c-.64-.23-1.3-.42-1.94-.66a5.71,5.71,0,0,0-2.17-.3,2.08,2.08,0,0,1-.7-.06.72.72,0,0,1-.33-1.2,3.91,3.91,0,0,1,1.42-1A13.52,13.52,0,0,1,40,76.92a3.78,3.78,0,0,1,3.27,1.2,1.73,1.73,0,0,1,.46,1.6A2.13,2.13,0,0,1,41.21,81.59Z"/><path class="cls-3" d="M12.9,53.74q0-13.41,0-26.84a15.82,15.82,0,0,1,.33-3.36A7.6,7.6,0,0,1,15,19.9a9.1,9.1,0,0,1,2-1.55,7.8,7.8,0,0,1,1.26-.63,7.93,7.93,0,0,1,6.3,0A9.18,9.18,0,0,1,28.4,21c1,1.44,1.92,3,2.85,4.45.25.4.52.79.78,1.19l1.88,2.82c.47.73,1,1.45,1.43,2.17.68,1,1.38,2,2.06,3.09,1.22,1.86,2.43,3.74,3.66,5.6.88,1.32,1.79,2.6,2.66,3.92.77,1.16,1.49,2.35,2.26,3.51s1.36,2,2,3c.52.79,1,1.6,1.53,2.39s.88,1.31,1.32,2c.7,1,1.42,2.08,2,3.18.48.81,1.06,1.56,1.59,2.35l2.79,4.2c.08.11.14.22.22.33a.24.24,0,0,0,.13.07c.11,0,.1-.1.1-.17,0-.27,0-.53,0-.79q0-17.61,0-35.21A15.94,15.94,0,0,1,58.3,25a25.25,25.25,0,0,1,2-5.22A18.5,18.5,0,0,1,64.4,14.4a15.08,15.08,0,0,1,4.87-3c.59-.22,1.17-.48,1.76-.68a9.92,9.92,0,0,1,3.1-.51,14.4,14.4,0,0,1,4.66.66,11.77,11.77,0,0,1,4.58,2.7,12.4,12.4,0,0,1,2.35,2.85A8.61,8.61,0,0,1,87,21.6a5.49,5.49,0,0,1-3.72,4.86,7.64,7.64,0,0,1-3.88.41.9.9,0,0,0-.46,0c-.42.13-.74.43-.74.74a1,1,0,0,0,.61.94,1.56,1.56,0,0,0,.6.19,10.58,10.58,0,0,0,3.37.12,10.08,10.08,0,0,1,1.65-.06,2.28,2.28,0,0,1,2.25,1.94,3.28,3.28,0,0,1-.43,2.42A7.7,7.7,0,0,1,84,35.61a42.47,42.47,0,0,1-4.68,2.79,28.47,28.47,0,0,0-4.58,2.77,10,10,0,0,0-1.79,1.65,8.19,8.19,0,0,0-1.52,3.26,15.27,15.27,0,0,0-.34,3.44q0,14.22,0,28.42c0,1.4-.12,2.78-.25,4.17a8.77,8.77,0,0,1-1.18,3.56,5.67,5.67,0,0,1-2,2.06,6.91,6.91,0,0,1-1.86.84,2.78,2.78,0,0,1-.46.11c-.84,0-1.67.18-2.52.16a9,9,0,0,1-4.7-1.41,11,11,0,0,1-2.24-2A35,35,0,0,1,53.14,82c-.59-.86-1.14-1.76-1.72-2.64-.93-1.4-1.88-2.79-2.81-4.19-.53-.78-1-1.59-1.55-2.38-1-1.42-1.79-2.91-2.77-4.31-.63-.9-1.21-1.84-1.81-2.77l-1.22-1.84c-.87-1.34-1.76-2.68-2.63-4L36.19,56c-.7-1.08-1.45-2.13-2.14-3.21-.86-1.32-1.69-2.66-2.54-4-.51-.8-1-1.58-1.56-2.37-.69-1.06-1.37-2.12-2.06-3.17l-1.23-1.84c0-.05-.11-.13-.17-.13s-.09.11-.09.18v.79q0,19.22,0,38.44a13.31,13.31,0,0,1-.3,2.82,6.88,6.88,0,0,1-2.74,4.2,5.31,5.31,0,0,1-2.54,1,11.48,11.48,0,0,1-2.75,0,3.77,3.77,0,0,1-1.26-.43,6.2,6.2,0,0,1-3.27-3.65,10.86,10.86,0,0,1-.64-3.79Q12.92,67.29,12.9,53.74Z"/><path class="cls-4" d="M22.7,27.26a1,1,0,0,1,.6-1,.79.79,0,0,1,.95.15,3.15,3.15,0,0,1,.72.82c.35.55.71,1.1,1,1.66a3.06,3.06,0,0,1,.28.73.81.81,0,0,1-.32.9.69.69,0,0,1-.88,0,2.58,2.58,0,0,1-.53-.46,16.24,16.24,0,0,1-1.68-2.27A1,1,0,0,1,22.7,27.26Z"/><path class="cls-4" d="M31,30.69a.79.79,0,0,1-1.12.77,1.3,1.3,0,0,1-.49-.38,13.8,13.8,0,0,1-1-1.4c-.23-.38-.48-.75-.71-1.13a1,1,0,0,1-.07-.91.93.93,0,0,1,1.64-.27,12.69,12.69,0,0,1,1.7,3A1.23,1.23,0,0,1,31,30.69Z"/><path class="cls-4" d="M23.33,21.63a.89.89,0,0,1,.42-.83.81.81,0,0,1,1,0,2,2,0,0,1,.41.36,10.32,10.32,0,0,1,1.51,2.29,1.82,1.82,0,0,1,.17.44.79.79,0,0,1-.3.84.84.84,0,0,1-1,0,1.16,1.16,0,0,1-.24-.2,9.9,9.9,0,0,1-1.8-2.37A1,1,0,0,1,23.33,21.63Z"/><path class="cls-4" d="M54.36,77.18a1,1,0,0,1-.74-.32,2.39,2.39,0,0,1-.22-.23,10,10,0,0,1-1.27-2.43,1,1,0,0,1,.2-1,.7.7,0,0,1,1-.12,2.41,2.41,0,0,1,.24.21,9.37,9.37,0,0,1,1.61,2.42,1.14,1.14,0,0,1,0,1A.72.72,0,0,1,54.36,77.18Z"/><path class="cls-4" d="M60.5,77.33a1,1,0,0,1-1.43.92,1.37,1.37,0,0,1-.58-.51c-.39-.59-.77-1.19-1.14-1.79a1.26,1.26,0,0,1-.2-.59.83.83,0,0,1,.41-.87.75.75,0,0,1,.95,0c.18.14.35.31.52.47a9.28,9.28,0,0,1,1.24,1.62A1.19,1.19,0,0,1,60.5,77.33Z"/><path class="cls-4" d="M58.62,83.77a.87.87,0,0,1-.57-.24,5.91,5.91,0,0,1-1.58-2.22.91.91,0,0,1,.28-1.12.93.93,0,0,1,1.16,0l.18.15a7.59,7.59,0,0,1,1.47,2A1,1,0,0,1,58.62,83.77Z"/><path class="cls-5" d="M69.87,18.29A4.23,4.23,0,0,1,68.24,18a3.61,3.61,0,0,1-2.09-1.93A4.64,4.64,0,0,1,65.81,13a10.16,10.16,0,0,1,1.91-3.85A21.64,21.64,0,0,1,72,4.9a26.1,26.1,0,0,1,4.23-2.73,21.5,21.5,0,0,1,4.87-2A6.7,6.7,0,0,1,82.19,0a.91.91,0,0,1,.94.44c.13.28,0,.65-.38,1a25.54,25.54,0,0,0-2,1.88,16.21,16.21,0,0,0-3.36,5.1c-.73,1.64-1.14,3.38-1.73,5.07A10.14,10.14,0,0,1,74.39,16,5.64,5.64,0,0,1,69.87,18.29Z"/><path class="cls-6" d="M73.47,15A8.71,8.71,0,0,1,70,14.17a12.44,12.44,0,0,1-3.24-2.08,1.79,1.79,0,0,1-.27-.28.4.4,0,0,1-.07-.44,4.23,4.23,0,0,1,.27-.57c.33-.56.36-.64.89-.16A9.45,9.45,0,0,0,72.44,13a6.17,6.17,0,0,0,2.79-.32c.13,0,.25-.1.37-.13a.18.18,0,0,1,.25.2,8.2,8.2,0,0,1-.63,1.78.5.5,0,0,1-.44.28A7.35,7.35,0,0,1,73.47,15Z"/><path class="cls-6" d="M75.59,11a7.93,7.93,0,0,1-3.5-1.05,9.85,9.85,0,0,1-2.65-2.2c-.24-.29-.25-.35,0-.59s.52-.53.8-.77.37-.18.62,0c.08.06.15.14.23.21a9.1,9.1,0,0,0,2.73,1.69,7.12,7.12,0,0,0,2.46.43c1,0,1,0,.61.9a8,8,0,0,0-.29.82.66.66,0,0,1-.76.53Z"/><path class="cls-6" d="M78,6.57l-.28-.06a7.22,7.22,0,0,1-3.43-2.29,3.3,3.3,0,0,1-.26-.39.28.28,0,0,1,.07-.42c.4-.25.8-.5,1.21-.73a.33.33,0,0,1,.43.07,7.29,7.29,0,0,0,3.29,1.77c.33.09.36.23.18.53l-.76,1.2A.59.59,0,0,1,78,6.57Z"/><path class="cls-7" d="M71.71,24.85A2.16,2.16,0,0,1,69.53,27a2.34,2.34,0,0,1-2.12-2.15,2.25,2.25,0,0,1,2.18-2.16A2.14,2.14,0,0,1,71.71,24.85Z"/><path class="cls-8" d="M19.46,74.26a14.77,14.77,0,0,1,7.18,1.6,12.77,12.77,0,0,1,6.1,6.66,16.14,16.14,0,0,1,.9,3.67A9.92,9.92,0,0,0,35,89.79a14.56,14.56,0,0,0,2.52,3.12c.38.36.8.68,1.21,1,.08.07.18.12.25.19a1.09,1.09,0,0,1-.09,1.82,4.27,4.27,0,0,1-1.32.69,11.06,11.06,0,0,1-6.06.37,19.94,19.94,0,0,1-8.32-4,18.44,18.44,0,0,1-2.91-2.88c-.46-.58-.6-.59-1.08,0a19.05,19.05,0,0,1-1.49,1.63,20.15,20.15,0,0,1-9,5.06A12.28,12.28,0,0,1,5,97.23a8.84,8.84,0,0,1-3.94-1,3.27,3.27,0,0,1-.65-.45,1,1,0,0,1-.1-1.49,4.86,4.86,0,0,1,.58-.53c.35-.28.71-.55,1-.83a3,3,0,0,0,.52-.49,25.48,25.48,0,0,0,2-2.7A10.15,10.15,0,0,0,5.8,85.82a13.46,13.46,0,0,1,2.07-5.65A12,12,0,0,1,10,77.8a13.29,13.29,0,0,1,6.33-3.19A11.28,11.28,0,0,1,19.46,74.26Z"/><path class="cls-1" d="M18.47,82.35a4,4,0,0,1-.23,1.26,17,17,0,0,1-2.85,5.51,17.34,17.34,0,0,1-6.23,5.1,14,14,0,0,1-3.51,1.14,1.47,1.47,0,0,1-1-.15,1,1,0,0,1-.45-1.27,1.3,1.3,0,0,1,.8-.72c.44-.15.89-.31,1.35-.44a13.22,13.22,0,0,0,4.19-2.31,18.47,18.47,0,0,0,3.34-3.33A15.07,15.07,0,0,0,15.75,84l1-2.22a2,2,0,0,1,.26-.39.75.75,0,0,1,1.26.12A1.38,1.38,0,0,1,18.47,82.35Z"/><path class="cls-1" d="M21,82.58a1.76,1.76,0,0,1,.15-.94.8.8,0,0,1,.65-.51.81.81,0,0,1,.78.44c.13.23.23.47.34.71.38.81.74,1.63,1.14,2.43A16.58,16.58,0,0,0,28.35,90a16.87,16.87,0,0,0,3.34,2.22,18.28,18.28,0,0,0,2.13.81l.6.19a1.83,1.83,0,0,1,.42.21,1,1,0,0,1,.46,1.22,1.08,1.08,0,0,1-1.16.75,4.87,4.87,0,0,1-.93-.15A15.42,15.42,0,0,1,27.5,92.5a17.52,17.52,0,0,1-6.31-9.1C21.1,83.08,21,82.74,21,82.58Z"/><path class="cls-1" d="M25.84,78.07a.89.89,0,0,1,.72.37,7,7,0,0,1,.44.75,22.67,22.67,0,0,0,1.3,2.43A9.21,9.21,0,0,0,30.44,84a2.77,2.77,0,0,1,.6.63,1,1,0,0,1-.1,1.3,1,1,0,0,1-1.22.22,4.72,4.72,0,0,1-.91-.62,11.85,11.85,0,0,1-2.93-3.77,11.41,11.41,0,0,1-.7-1.75,3.12,3.12,0,0,1-.1-1.25A.76.76,0,0,1,25.84,78.07Z"/><path class="cls-1" d="M14.42,79.12a5.12,5.12,0,0,1-.53,2,13,13,0,0,1-2.15,3.46,7.38,7.38,0,0,1-1.88,1.55,1,1,0,0,1-1,0,1,1,0,0,1-.43-1.35,2,2,0,0,1,.53-.67,11.62,11.62,0,0,0,3.5-4.78A3.64,3.64,0,0,1,13,78.4a.81.81,0,0,1,.91-.29.79.79,0,0,1,.52.8C14.42,79,14.42,79.12,14.42,79.12Z"/><path class="cls-8" d="M75.5,60.48a12.53,12.53,0,0,1-.33,3.31,7.25,7.25,0,0,1-1.08,2.6,1.24,1.24,0,0,1-.84.53,1.08,1.08,0,0,1-1-.25,2.78,2.78,0,0,1-.56-.75c-.39-.69-.79-1.36-1.18-2.05a11.62,11.62,0,0,0-4.31-4.27,32.59,32.59,0,0,0-4.65-2.15,9.72,9.72,0,0,1-5-4,6.75,6.75,0,0,1-.2-7.12,7.11,7.11,0,0,1,4.85-3.49A8.15,8.15,0,0,1,68,44.3c.36.26.73.51,1.09.78a13.91,13.91,0,0,1,3.43,4.27,23.59,23.59,0,0,1,2.57,6.92A18.29,18.29,0,0,1,75.5,60.48Z"/><path class="cls-1" d="M58.07,47.81a5.58,5.58,0,0,1,0-.71,1.31,1.31,0,0,1,.15-.52.69.69,0,0,1,1.18-.1,1.86,1.86,0,0,1,.31.8,7.69,7.69,0,0,0,.76,2.14,6.78,6.78,0,0,0,2.46,2.5,16.89,16.89,0,0,0,2,1c.47.22,1,.4,1.45.61a15.39,15.39,0,0,1,5.48,3.88A13.19,13.19,0,0,1,74.18,61,1.09,1.09,0,0,1,74,62.31a.93.93,0,0,1-1.28.14,2,2,0,0,1-.62-.8,10.49,10.49,0,0,0-1.19-1.95A13.06,13.06,0,0,0,67,56.35c-1.2-.66-2.47-1.17-3.71-1.74a10.11,10.11,0,0,1-4.06-3.26A5.93,5.93,0,0,1,58,47.81Z"/><path class="cls-1" d="M70.76,51.08a1,1,0,0,1-1.35,1,14.94,14.94,0,0,1-3.87-2.23,7.71,7.71,0,0,1-1.91-2.48,2.18,2.18,0,0,1-.19-1.15.66.66,0,0,1,1-.5,1.6,1.6,0,0,1,.6.61,7.83,7.83,0,0,0,2.56,2.4,5.62,5.62,0,0,0,.91.48,7,7,0,0,1,1.75,1A1,1,0,0,1,70.76,51.08Z"/><path class="cls-9" d="M67.22,36.41a6.07,6.07,0,0,1-3.29-.93,2.31,2.31,0,0,1-.42-.34,1.86,1.86,0,0,1,.24-3,3.67,3.67,0,0,1,1.08-.64,7,7,0,0,1,5.29-.07,3.67,3.67,0,0,1,1.08.64,1.87,1.87,0,0,1,.21,2.79,2.89,2.89,0,0,1-.8.64A6.49,6.49,0,0,1,67.22,36.41Z"/></g></g></svg>