<svg xmlns="http://www.w3.org/2000/svg" viewBox="0 0 90.64 94.86"><defs><style>.cls-1{fill:#45cc96;}.cls-2{fill:#421c43;}.cls-3{fill:#6ff6c0;}.cls-4{fill:#ffac1b;}.cls-5{fill:#ffda95;}.cls-6{fill:#0d6c6f;}.cls-7{fill:#45cc95;}.cls-8{fill:#f75e9d;}</style></defs><g id="圖層_2" data-name="圖層 2"><g id="OBJECTS"><path class="cls-1" d="M11.47,52.67c0-.45,0-1.13,0-1.82a39.64,39.64,0,0,1,.41-4.62c.16-1.07.29-2.14.51-3.19a32.25,32.25,0,0,1,2.11-6.93c.39-.83.71-1.7,1.1-2.53a25.4,25.4,0,0,1,2.86-4.71c.71-.92,1.46-1.8,2.19-2.69a4.89,4.89,0,0,1,.39-.4A32.41,32.41,0,0,1,29.25,20a18.88,18.88,0,0,1,2-.83,41.17,41.17,0,0,1,6.72-2c1-.18,2.07-.33,3.12-.42s1.89-.13,2.83-.15c.53,0,1-.14,1.57-.12,1.71.05,3.41.13,5.11.27a30.75,30.75,0,0,1,5,.79,41.32,41.32,0,0,1,6.94,2.33c.77.35,1.49.78,2.23,1.19a28,28,0,0,1,4.48,3.08,20.59,20.59,0,0,1,3.06,3.06,13.76,13.76,0,0,0,.92,1.08,14.65,14.65,0,0,1,1.59,2.16,33.2,33.2,0,0,1,3.16,6.34A36.07,36.07,0,0,1,79.73,43c.32,1.6.49,3.22.75,4.83,0,0,0,.1,0,.16.06,1.62.2,3.25.19,4.88s-.07,3.15-.2,4.73c-.09,1.2-.27,2.4-.45,3.59A38.86,38.86,0,0,1,78.34,68a36.4,36.4,0,0,1-1.89,4.51,27.55,27.55,0,0,1-5,7A43.15,43.15,0,0,1,64.1,85.4a18,18,0,0,1-3.75,1.82,36.92,36.92,0,0,1-5.93,1.63q-2.45.42-4.92.6c-1.53.12-3,.11-4.57.1A40.77,40.77,0,0,1,40,89.16a37.72,37.72,0,0,1-7.57-1.86A16.24,16.24,0,0,1,29,85.81c-.53-.33-1.14-.52-1.69-.84a26.83,26.83,0,0,1-4.9-3.57c-.45-.43-.92-.86-1.37-1.3a30.4,30.4,0,0,1-2.15-2.52,29.24,29.24,0,0,1-3-4.62c-.37-.67-.65-1.38-.95-2.08s-.63-1.56-1-2.34a33.15,33.15,0,0,1-1.59-5.69c-.36-1.67-.55-3.37-.76-5.06A33.72,33.72,0,0,1,11.47,52.67Zm15.06.22a40.09,40.09,0,0,0,.1,4.1,36.61,36.61,0,0,0,.54,3.74,25.77,25.77,0,0,0,1.24,4.47A20.42,20.42,0,0,0,30,68.37a17.25,17.25,0,0,0,3.12,4,22.51,22.51,0,0,0,2,1.77,19.2,19.2,0,0,0,5.33,2.68,22,22,0,0,0,5.52.81,1.84,1.84,0,0,0,.47,0,11.5,11.5,0,0,1,1.65-.15,2.56,2.56,0,0,0,.39,0,20.67,20.67,0,0,0,10.3-4.81,14.51,14.51,0,0,0,2.87-3.43A26,26,0,0,0,65,60.62c.1-.57.25-1.14.32-1.71.17-1.48.31-3,.34-4.47a48.64,48.64,0,0,0-.29-6.93A29,29,0,0,0,64.11,42a24.72,24.72,0,0,0-2.68-5.61,16,16,0,0,0-3.76-4.12,17,17,0,0,0-4.3-2.45,21,21,0,0,0-8-1.37A19.89,19.89,0,0,0,41.2,29a17.51,17.51,0,0,0-3.86,1.35,16.59,16.59,0,0,0-4.09,2.92,15.38,15.38,0,0,0-2.69,3.28c-.15.25-.3.5-.44.75a22.42,22.42,0,0,0-2.5,6c-.18.76-.37,1.53-.54,2.3a30.86,30.86,0,0,0-.54,4.29C26.48,50.89,26.53,51.89,26.53,52.89Z"/><path class="cls-2" d="M24.22,35.68a2.15,2.15,0,0,1,0,4.29,2.15,2.15,0,0,1,0-4.29Z"/><path class="cls-3" d="M69.13,59.11a8.69,8.69,0,0,0,.17,2.18,2.78,2.78,0,0,0,.12.38.14.14,0,0,0,.25,0,6.77,6.77,0,0,0,.92-1.64c.17-.41.33-.83.49-1.25a1.76,1.76,0,0,1,.43-.65.85.85,0,0,1,1.39.22,1.81,1.81,0,0,1,.21.67c.1.76.2,1.51.32,2.26a3.9,3.9,0,0,0,.34,1.21,3.7,3.7,0,0,0,.21.33.29.29,0,0,0,.47,0,3.56,3.56,0,0,0,.65-1,13.27,13.27,0,0,0,.56-1.72,2,2,0,0,1,.77-1.07.49.49,0,0,1,.8.13,1.47,1.47,0,0,1,.23,1.13A11.51,11.51,0,0,1,76.51,63a6.6,6.6,0,0,1-1.14,1.39,1.68,1.68,0,0,1-2.47,0,4.07,4.07,0,0,1-1-1.5c-.07-.17-.11-.35-.18-.52s-.15-.15-.25,0l-.57.65a3.43,3.43,0,0,1-.33.33,1.72,1.72,0,0,1-2.9-.66,4.25,4.25,0,0,1-.45-1.82,14.12,14.12,0,0,1,.12-3,3.86,3.86,0,0,1,.2-.76.78.78,0,0,1,1.54.15,4.43,4.43,0,0,1,0,.63Z"/><path class="cls-3" d="M31,26.53a1.45,1.45,0,0,1-.32.87,12.82,12.82,0,0,0-.85,1.43,4.09,4.09,0,0,0-.32,1c-.05.27,0,.37.34.35a2.69,2.69,0,0,0,1.3-.52l1.82-1.38c.28-.21.54-.43.82-.62a.74.74,0,0,1,1,.12.69.69,0,0,1,.19.92,1.41,1.41,0,0,1-.38.49,28,28,0,0,1-2.8,2.18A4.57,4.57,0,0,1,30,32a2.75,2.75,0,0,1-1.53-.22,1.82,1.82,0,0,1-1-2c.11-.54.29-1.06.45-1.59.09-.3,0-.36-.3-.29s-.41.09-.61.15a2.86,2.86,0,0,1-.87.08,1.43,1.43,0,0,1-1.35-1.75,4.24,4.24,0,0,1,1-2,8.1,8.1,0,0,1,2.54-2l1.27-.65a.61.61,0,0,1,.53,0,.65.65,0,0,1,.34,1,2.09,2.09,0,0,1-.63.59c-.67.46-1.35.91-2,1.39a4.08,4.08,0,0,0-1.13,1.41.17.17,0,0,0,0,.14.19.19,0,0,0,.14,0L29,25.75a8.59,8.59,0,0,1,.84-.21A1,1,0,0,1,31,26.53Z"/><path class="cls-3" d="M77.37,43.79a10.53,10.53,0,0,1-.34,2.5,3.39,3.39,0,0,1-.83,1.59,1.6,1.6,0,0,1-1.94.34,2.93,2.93,0,0,1-1.12-.86A7.47,7.47,0,0,1,72.25,46c0-.06-.11-.1-.17-.15A2,2,0,0,0,72,46a6.6,6.6,0,0,1-.62,1.35,1.81,1.81,0,0,1-3.14.1,3.27,3.27,0,0,1-.53-1,13.79,13.79,0,0,1-.63-4,1.32,1.32,0,0,1,.24-.82.49.49,0,0,1,.85,0,2.53,2.53,0,0,1,.4.94c.15.77.32,1.54.47,2.32a6.28,6.28,0,0,0,.41,1.27c.06.14.14.32.31.34s.25-.17.31-.31a5.92,5.92,0,0,0,.49-1.49c.1-.46.19-.93.29-1.39a3.84,3.84,0,0,1,.11-.46,1,1,0,0,1,1.6-.34,3.93,3.93,0,0,1,.7,1.05l1,2.11a1.68,1.68,0,0,0,.55.66.19.19,0,0,0,.28,0,2.26,2.26,0,0,0,.31-.88A11,11,0,0,0,75.6,43a1.6,1.6,0,0,1,.19-.91c.17-.27.34-.57.7-.56s.48.29.64.53a1.7,1.7,0,0,1,.24,1Z"/><path class="cls-3" d="M14.62,61.27V60.09a1.35,1.35,0,0,1,.36-.94.47.47,0,0,1,.75.05,1.33,1.33,0,0,1,.2.51c.07.47.13.94.17,1.41a11.44,11.44,0,0,0,.44,2.39,1.34,1.34,0,0,0,.31.63.16.16,0,0,0,.27,0,1.78,1.78,0,0,0,.33-.79c.12-.54.21-1.08.32-1.62a2.33,2.33,0,0,1,.16-.53.85.85,0,0,1,1.38-.26,2.71,2.71,0,0,1,.47.64c.3.49.63,1,1,1.43a2,2,0,0,0,.76.67.29.29,0,0,0,.45-.15,1.48,1.48,0,0,0,.11-.62A13.19,13.19,0,0,0,22,60.39a1.16,1.16,0,0,1,.3-1A.56.56,0,0,1,23,59.2a1.15,1.15,0,0,1,.71.88,9,9,0,0,1,.17,1.56c0,.45,0,.89,0,1.34a3.12,3.12,0,0,1-.46,1.57,1.8,1.8,0,0,1-2,.89,3.59,3.59,0,0,1-1.8-1.07c-.07-.07-.12-.17-.19-.25-.2-.24-.32-.22-.45,0s-.09.25-.15.37a6,6,0,0,1-.46.73,1.63,1.63,0,0,1-2.78-.08,5.82,5.82,0,0,1-.91-3C14.6,61.9,14.62,61.58,14.62,61.27Z"/><path class="cls-3" d="M64.34,34.64a2.31,2.31,0,0,1-1.55-.5,9.29,9.29,0,0,1-2.73-3.42.64.64,0,0,1,.1-.79.58.58,0,0,1,.79-.08,2.29,2.29,0,0,1,.45.43c.4.46.77.94,1.17,1.39A4.07,4.07,0,0,0,64,32.89c.23.1.37,0,.35-.22a3.2,3.2,0,0,0-.08-.54c-.14-.59-.26-1.19-.44-1.76a1,1,0,0,1,1.43-1.24,7,7,0,0,1,1.19.61,1.38,1.38,0,0,0,.88.28c.23,0,.36-.14.32-.35a3.33,3.33,0,0,0-.31-1l-.9-1.57c-.12-.21-.23-.41-.34-.63a1.15,1.15,0,0,1-.11-.61c0-.58.39-.77.92-.55a1.64,1.64,0,0,1,.83.7,12.93,12.93,0,0,1,1.41,2.55c.1.32.2.65.27,1A2,2,0,0,1,67.35,32a5.84,5.84,0,0,1-1.23-.25.19.19,0,0,0-.26.19,1.46,1.46,0,0,0,0,.31,2.46,2.46,0,0,1-.07,1.32A1.33,1.33,0,0,1,64.34,34.64Z"/><path class="cls-3" d="M40.89,82.12l.66.1a3,3,0,0,0,1.33-.06c.22-.08.25-.16.13-.34a2.28,2.28,0,0,0-.86-.68c-.37-.2-.76-.36-1.14-.54l-1-.45a1.42,1.42,0,0,1-.55-.42.7.7,0,0,1-.12-.81.75.75,0,0,1,.7-.44,2,2,0,0,1,.54.1,11.1,11.1,0,0,1,3,1.51,3.31,3.31,0,0,1,1.23,1.6,1.39,1.39,0,0,1-.44,1.62,2.47,2.47,0,0,1-1,.5l-.54.13c-.33.09-.39.21-.22.5a3.66,3.66,0,0,1,.42,1,1.34,1.34,0,0,1-.92,1.61,2.45,2.45,0,0,1-1.17.1,10.29,10.29,0,0,1-3.9-1.41,1.42,1.42,0,0,1-.41-.36.57.57,0,0,1,.44-.92,1.63,1.63,0,0,1,.83.21,12.43,12.43,0,0,0,2.39.8,6.49,6.49,0,0,0,.77.11.31.31,0,0,0,.22-.07s0-.15,0-.21a4.83,4.83,0,0,0-1-1.12,3.55,3.55,0,0,1-.65-.69.86.86,0,0,1,.58-1.34C40.43,82.14,40.64,82.14,40.89,82.12Z"/><path class="cls-3" d="M25.83,77.94c-.07-.42-.18-1-.28-1.61a.85.85,0,0,1,.6-1,.91.91,0,0,1,.75.13c.44.24.87.5,1.3.75a1.33,1.33,0,0,0,.71.3,1,1,0,0,0-.05-.83,6,6,0,0,0-.67-1.51,3,3,0,0,1-.29-.56,1.59,1.59,0,0,1-.13-.53.7.7,0,0,1,.31-.75.72.72,0,0,1,.74.13,1.21,1.21,0,0,1,.45.42A10.46,10.46,0,0,1,30.56,76a2.29,2.29,0,0,1-.11,1.24,1.45,1.45,0,0,1-1.67,1,3.19,3.19,0,0,1-1.25-.45.17.17,0,0,0-.14,0,.18.18,0,0,0,0,.14,2,2,0,0,1,0,1.16,1.48,1.48,0,0,1-2.08,1.06,5.53,5.53,0,0,1-2.72-2.42c-.24-.41-.43-.84-.64-1.27a1.45,1.45,0,0,1-.11-.29.62.62,0,0,1,.26-.76.6.6,0,0,1,.78.15,2.63,2.63,0,0,1,.39.49c.32.46.61.93.93,1.37a3.38,3.38,0,0,0,1.29,1.14c.27.13.4.06.4-.23A3.31,3.31,0,0,0,25.83,77.94Z"/><path class="cls-4" d="M17.85,43a7,7,0,0,1-2.13,5.33,7.28,7.28,0,0,1-4.14,2.09,7,7,0,0,1-5.7-1.9,11.25,11.25,0,0,1-1.26-1.5,10.06,10.06,0,0,1-.86-2.29c0-.07,0-.15,0-.23-.09-.37-.23-.5-.61-.42s-.87.22-1.3.34a6.45,6.45,0,0,1-.75.22.89.89,0,0,1-1-.57.83.83,0,0,1,0-.62,11.77,11.77,0,0,1,1.66-3,14.29,14.29,0,0,1,2.18-2.15,10.42,10.42,0,0,1,5.33-2.4,7.8,7.8,0,0,1,4.77.64,6.94,6.94,0,0,1,3.67,4.78A6,6,0,0,1,17.85,43Z"/><path class="cls-2" d="M7.66,40.64a.86.86,0,0,1-.81-.47.9.9,0,0,1,.06-1,1.4,1.4,0,0,1,.4-.37A7.1,7.1,0,0,1,9.08,38a.78.78,0,0,1,.68.06.76.76,0,0,1,.29,1.08,4.1,4.1,0,0,1-2.21,1.52A.82.82,0,0,1,7.66,40.64Z"/><path class="cls-5" d="M5.13,43.25A9.79,9.79,0,0,1,8,43.89a12.2,12.2,0,0,0,2.08.72,4.1,4.1,0,0,0,4-1.19,8.22,8.22,0,0,0,.6-.82,3.61,3.61,0,0,1,.33-.44.57.57,0,0,1,.63-.2.62.62,0,0,1,.45.51,1.44,1.44,0,0,1-.06.77,3.75,3.75,0,0,1-.72,1.22,6.45,6.45,0,0,1-2.93,1.92A4.56,4.56,0,0,1,9,46.18c-.57-.27-1.15-.5-1.73-.74a4.72,4.72,0,0,0-1.92-.37c-.26,0-.53,0-.79,0A2.49,2.49,0,0,1,4.09,45a.75.75,0,0,1-.59-.67.71.71,0,0,1,.43-.7A2.29,2.29,0,0,1,5.13,43.25Z"/><path class="cls-6" d="M67.11,87.94c0,.61,0,1.22,0,1.82a4,4,0,0,1-.7,2.15A2.89,2.89,0,0,1,64,93.25a3.71,3.71,0,0,1-2.66-1,9.68,9.68,0,0,1-1.77-2.11,44.26,44.26,0,0,1-2.11-4c-1-1.92-1.92-3.86-3-5.72-.39-.66-.75-1.33-1.12-2a10.71,10.71,0,0,0-1.15-1.69A50.46,50.46,0,0,0,47.65,72,20.61,20.61,0,0,1,45,69a4.86,4.86,0,0,1-.94-2.72,2.68,2.68,0,0,1,1.43-2.47,5.93,5.93,0,0,1,1.17-.46,16.46,16.46,0,0,1,2.88-.46,3.32,3.32,0,0,1,.54,0,5.71,5.71,0,0,0,.71.08,18.24,18.24,0,0,1,4.27.71,48.79,48.79,0,0,1,7,2.58,68.28,68.28,0,0,1,7,3.64c2.37,1.36,4.63,2.9,7,4.36s4.55,3.12,6.84,4.66a40.44,40.44,0,0,1,3.44,2.52,21.37,21.37,0,0,1,3.27,3.18,5.64,5.64,0,0,1,.85,1.41,2.92,2.92,0,0,1-.1,2.45,2.74,2.74,0,0,1-1.46,1.26,4.86,4.86,0,0,1-2.72.23,7.72,7.72,0,0,1-2.23-.75A17.41,17.41,0,0,1,81.63,88c-.06,0-.14-.1-.2,0a.22.22,0,0,0,0,.14,17.52,17.52,0,0,1,.77,2.32A6.37,6.37,0,0,1,82.41,92a2.83,2.83,0,0,1-2.26,2.76,5,5,0,0,1-2.49-.1,12.53,12.53,0,0,1-2.88-1.26A29.23,29.23,0,0,1,69,88.92c-.57-.57-1.19-1.11-1.78-1.67a.84.84,0,0,0-.14-.06.43.43,0,0,0,0,.13C67,87.53,67.08,87.74,67.11,87.94Z"/><path class="cls-7" d="M77.81,90.51a.75.75,0,0,1-.6.8A1.4,1.4,0,0,1,76.09,91c-.67-.5-1.37-1-2-1.51a16.83,16.83,0,0,1-1.92-1.75C71.08,86.56,70,85.35,69,84.08c-1.89-2.33-3.57-4.81-5.33-7.23a30.41,30.41,0,0,0-2.75-3.35c-.87-.9-1.69-1.87-2.54-2.79a6.56,6.56,0,0,0-1-.92,2,2,0,0,1-.44-.44.63.63,0,0,1,0-.74.61.61,0,0,1,.71-.2,3.84,3.84,0,0,1,1.24.67c.42.35.84.71,1.25,1.08a44.39,44.39,0,0,1,6.09,6.9c1.48,2.08,3,4.12,4.61,6.1A38,38,0,0,0,75,87.72c.66.59,1.38,1.13,2.07,1.7a2.05,2.05,0,0,1,.58.63A1.24,1.24,0,0,1,77.81,90.51Z"/><path class="cls-7" d="M63.46,86.18a4.87,4.87,0,0,1-.06.55.58.58,0,0,1-.93.33,3.34,3.34,0,0,1-1.13-1.39,42.19,42.19,0,0,0-2-4.11,40,40,0,0,0-4.64-6.84c-1-1.2-2.16-2.29-3.27-3.41a14.57,14.57,0,0,0-2.23-1.75,4.73,4.73,0,0,1-.86-.69.52.52,0,0,1-.12-.58.63.63,0,0,1,.62-.38,1.71,1.71,0,0,1,.67.22,13.2,13.2,0,0,1,3.57,2.43c.94.92,1.89,1.83,2.79,2.78a34.84,34.84,0,0,1,4,5.34,43.09,43.09,0,0,1,3.36,6.51A2.4,2.4,0,0,1,63.46,86.18Z"/><path class="cls-7" d="M84.25,86.43a3.26,3.26,0,0,1-1-.3,27.54,27.54,0,0,1-3.84-2,25.47,25.47,0,0,1-4-3,34.47,34.47,0,0,1-3-2.91c-.53-.58-1-1.21-1.49-1.83a1.84,1.84,0,0,1-.28-.56.53.53,0,0,1,.61-.68,1.51,1.51,0,0,1,.75.41l1.85,1.71a40.56,40.56,0,0,0,7.54,5.82,23.92,23.92,0,0,0,2.81,1.43,1.72,1.72,0,0,1,.71.48.78.78,0,0,1,.19.87A.87.87,0,0,1,84.25,86.43Z"/><path class="cls-6" d="M46.09,23.91a20.67,20.67,0,0,1-3.92-.31,12.18,12.18,0,0,1-3.31-1.21,3.41,3.41,0,0,1-1-.79,1.83,1.83,0,0,1-.19-2.38,6.07,6.07,0,0,1,1.4-1.37,10.49,10.49,0,0,0,2.79-3.28c.57-1,1-2.07,1.5-3.12a1.33,1.33,0,0,1,.09-.21,15.07,15.07,0,0,0,1.29-3.3,21.4,21.4,0,0,1,2.4-5,6.89,6.89,0,0,1,3-2.67,2.62,2.62,0,0,1,2.9.51,3.73,3.73,0,0,1,1,1.77,4.93,4.93,0,0,1,.12,2.26A10.17,10.17,0,0,0,54,6a.18.18,0,0,0,0,.14.15.15,0,0,0,.21,0l.51-.36a7.85,7.85,0,0,1,2.86-1.28A4.29,4.29,0,0,1,61,5.18a2.31,2.31,0,0,1,1,1.86,4.45,4.45,0,0,1-.71,2.7c-.25.43-.55.83-.83,1.24-.12.18-.25.34-.36.52s0,.15.09.15l.23,0a6.86,6.86,0,0,1,3.84.58,2.6,2.6,0,0,1,.93.71A2,2,0,0,1,65.72,15a5.61,5.61,0,0,1-1.16,2,15.3,15.3,0,0,1-4.12,3.26,33.52,33.52,0,0,1-8.08,3.08,21.07,21.07,0,0,1-2.72.43A33.27,33.27,0,0,1,46.09,23.91Z"/><path class="cls-7" d="M44,21.38h-.86a1.83,1.83,0,0,1-.47,0,.85.85,0,0,1-.67-.7.8.8,0,0,1,.49-.82,2.4,2.4,0,0,1,1-.24,52,52,0,0,0,7.93-1.17,44.77,44.77,0,0,0,4.43-1.1,26.6,26.6,0,0,0,4.51-2.06,2.71,2.71,0,0,1,.79-.33.57.57,0,0,1,.61.27c.13.17.05.35,0,.52a1.76,1.76,0,0,1-.55.66,16.44,16.44,0,0,1-3.46,2,34.07,34.07,0,0,1-6.18,1.85c-1.23.28-2.46.53-3.71.72A21.27,21.27,0,0,1,44,21.38Z"/><path class="cls-7" d="M47.24,15.81a1,1,0,0,1-.92-.61.89.89,0,0,1,.31-1,3.18,3.18,0,0,1,.62-.35,43.48,43.48,0,0,0,7.08-4.42c.37-.29.73-.6,1.09-.9a3.88,3.88,0,0,1,.33-.23.63.63,0,0,1,.74,0,.66.66,0,0,1,.22.77,2.32,2.32,0,0,1-.46.73,17.05,17.05,0,0,1-2.59,2.29,31.92,31.92,0,0,1-5.16,3.2,8.41,8.41,0,0,1-.87.37C47.49,15.76,47.33,15.78,47.24,15.81Z"/><path class="cls-7" d="M50.68,4.48a6,6,0,0,1-.17.76,11.35,11.35,0,0,1-1,2.38c-.36.58-.69,1.18-1,1.76a1.3,1.3,0,0,1-1.12.62.57.57,0,0,1-.65-.44,1.35,1.35,0,0,1,.09-1.28c.28-.45.53-.91.81-1.35A27.48,27.48,0,0,0,49,4.36c.1-.18.18-.38.29-.56a.79.79,0,0,1,.86-.4.79.79,0,0,1,.58.76C50.69,4.24,50.68,4.32,50.68,4.48Z"/><path class="cls-8" d="M25.39,49.85A5.42,5.42,0,0,1,20,55.28a5.36,5.36,0,0,1-5.42-5.41,5.42,5.42,0,1,1,10.83,0Z"/></g></g></svg>