<svg xmlns="http://www.w3.org/2000/svg" viewBox="0 0 64.4 72.54"><defs><style>.cls-1{fill:#ffac1b;}.cls-2{fill:#ffda95;}.cls-3{fill:#421c43;}.cls-4{fill:#e4e4e5;}.cls-5{fill:#fff;}.cls-6{fill:#926589;}.cls-7{fill:#ffa8d0;}</style></defs><g id="圖層_2" data-name="圖層 2"><g id="OBJECTS"><path class="cls-1" d="M19.51,72.53a19.25,19.25,0,0,1-5.42-.87,8,8,0,0,1-3.47-2.37A4.93,4.93,0,0,1,9.5,66.41a4.22,4.22,0,0,1,.62-2.56,5.46,5.46,0,0,1,1.46-1.53,9.65,9.65,0,0,1,3.18-1.53c1-.27,1.94-.44,2.92-.64a11.9,11.9,0,0,1,3-.14,3.46,3.46,0,0,1,1.57.47A1.92,1.92,0,0,1,23,63.19a8,8,0,0,1-.48.71c-.17.26-.16.33.05.54a6.25,6.25,0,0,0,.45.44A2.08,2.08,0,0,1,22.69,68a4.88,4.88,0,0,1-.55.31c-.13.07-.2.17-.07.3s.26.26.38.4a1.87,1.87,0,0,1-.5,3,3.9,3.9,0,0,1-1.73.48C20,72.54,19.74,72.53,19.51,72.53Z"/><path class="cls-2" d="M18.32,66.69c-.21,0-.43,0-.64,0a2.63,2.63,0,0,1-.61-.12.86.86,0,0,1-.63-.82.89.89,0,0,1,.65-.8,4.94,4.94,0,0,1,2.8,0,.76.76,0,0,1,.54.92.79.79,0,0,1-.56.61,3.53,3.53,0,0,1-1.16.19Z"/><path class="cls-2" d="M18.71,70.76a9,9,0,0,1-1.55-.17,1.47,1.47,0,0,1-.37-.13.8.8,0,0,1-.51-.81A.88.88,0,0,1,17,68.9a4.22,4.22,0,0,1,.94,0,10.59,10.59,0,0,1,1.24.18,1.57,1.57,0,0,1,.72.29.72.72,0,0,1-.17,1.27A2.3,2.3,0,0,1,18.71,70.76Z"/><path class="cls-2" d="M18.06,63a1.43,1.43,0,0,1-1-.25.76.76,0,0,1,0-1.22,1.34,1.34,0,0,1,.49-.25,5,5,0,0,1,2.41,0,.69.69,0,0,1,.53.53.66.66,0,0,1-.29.68,1.36,1.36,0,0,1-.41.22A8.07,8.07,0,0,1,18.06,63Z"/><path class="cls-1" d="M56.73,29.71a13.27,13.27,0,0,1-3-.28,7.06,7.06,0,0,1-3.68-2,9.68,9.68,0,0,1-2.21-4A25.53,25.53,0,0,1,47,19a3,3,0,0,1,.08-.78A4.8,4.8,0,0,1,50,14.36a2.31,2.31,0,0,1,1.91-.1,13,13,0,0,0,3.77.77c1.8.17,3.61.3,5.4.57.5.07,1,.12,1.48.21a3.6,3.6,0,0,1,1.12.37,1.33,1.33,0,0,1,.7,1.38,3.93,3.93,0,0,1-.5,1.49,9.69,9.69,0,0,1-3.63,3.75c-.47.25-1,.42-1.45.63-.24.1-.27.25-.07.4.5.34,1,.65,1.52,1l1,.66.19.16a1.77,1.77,0,0,1,0,2.86,3.35,3.35,0,0,1-.59.39,6.15,6.15,0,0,1-2.41.7A7.14,7.14,0,0,1,56.73,29.71Z"/><path class="cls-3" d="M57.75,21.21a1,1,0,0,1-.88-.51.75.75,0,0,1,.07-.89,4.8,4.8,0,0,1,2-1.46.69.69,0,0,1,.79.21.73.73,0,0,1,.07.88,4.21,4.21,0,0,1-.58.74,12.12,12.12,0,0,1-.95.82A.8.8,0,0,1,57.75,21.21Z"/><path class="cls-3" d="M53.72,17.77a26.58,26.58,0,0,0-1.28-5.28,9.36,9.36,0,0,0-.72-1.58c-.37-.6-.69-1.24-1.06-1.84A13.5,13.5,0,0,0,49,6.8a19,19,0,0,0-4-3.33,17.6,17.6,0,0,0-4.82-2.12A40.68,40.68,0,0,0,34,.3c-2-.19-3.93-.3-5.9-.3H10A21.17,21.17,0,0,0,7.21.13,12.5,12.5,0,0,0,3.37,1.26,4.16,4.16,0,0,0,1.94,2.35,7.69,7.69,0,0,0,.22,6,16.29,16.29,0,0,0,0,8.62Q0,22.27,0,35.93V63.48a9.92,9.92,0,0,0,1.26,5.07c.12.2.25.39.38.57a6,6,0,0,0,2,1.78,7.38,7.38,0,0,0,5.26.82,7,7,0,0,0,5.39-5.29,16.15,16.15,0,0,0,.47-3.91c0-5.31,0-10.6,0-15.91V44.37c0-.93,0-.92.92-.94h.56c4.28,0,8.57.13,12.85-.1,1.07-.06,2.15,0,3.23-.14,1.28-.13,2.56-.27,3.82-.52a26.32,26.32,0,0,0,10.29-4.2,5.63,5.63,0,0,0,.82-.61A20.83,20.83,0,0,0,51,33.34a19.68,19.68,0,0,0,1.87-4.23c.07-.23.13-.46.19-.7a28.77,28.77,0,0,0,.85-6.79A27.61,27.61,0,0,0,53.72,17.77Zm-39,13.28V12.34c0-.95,0-1,1-1,3.81,0,7.62,0,11.43.06a21,21,0,0,1,6.27,1.1A8.4,8.4,0,0,1,36,14a6.87,6.87,0,0,1,1.89,2.6,10.81,10.81,0,0,1,1,4.81,14.8,14.8,0,0,1-.34,3.45,9.61,9.61,0,0,1-1.08,2.53,7.79,7.79,0,0,1-1.67,1.77,10.71,10.71,0,0,1-4.23,2,25.59,25.59,0,0,1-4.43.73c-2.08.19-4.15.09-6.23.11-1.73,0-3.47,0-5.2,0C14.69,32.05,14.74,32.1,14.74,31.05Z"/><path class="cls-4" d="M52.89,29.11A19.68,19.68,0,0,1,51,33.34a20.83,20.83,0,0,1-3.79,4.52,5.63,5.63,0,0,1-.82.61,26.32,26.32,0,0,1-10.29,4.2c-1.26.25-2.54.39-3.82.52-1.08.1-2.16.08-3.23.14-4.28.23-8.57.06-12.85.1a3,3,0,0,1,0-.94,7,7,0,0,1,3.13-5.86,9.52,9.52,0,0,1,3.77-1.43,10.41,10.41,0,0,1,4.41.25c1.27.3,2.53.63,3.76,1a16,16,0,0,0,2.64.58,3.46,3.46,0,0,0,1.56-.24,7.32,7.32,0,0,0,3.33-2.36,30.25,30.25,0,0,1,3.66-3.76,9.13,9.13,0,0,1,3.15-1.64,12.33,12.33,0,0,1,3.62-.52,13.69,13.69,0,0,1,3.37.46,1.09,1.09,0,0,1,.24.07Z"/><path class="cls-4" d="M14.75,62.52a16.15,16.15,0,0,1-.47,3.91,7,7,0,0,1-5.39,5.29,7.38,7.38,0,0,1-5.26-.82,6,6,0,0,1-2-1.78c.07-.1.17-.1.29-.08l.3,0c.45,0,.92,0,1.36,0a3,3,0,0,0,2.57-1.63,7.8,7.8,0,0,0,.83-3A22.65,22.65,0,0,0,7.14,61c0-1-.1-2-.14-3a16.07,16.07,0,0,1,.42-4.58,8.51,8.51,0,0,1,2.93-4.62,10.86,10.86,0,0,1,3.48-2l.53-.17c.19-.05.31-.05.38,0C14.74,51.92,14.74,57.21,14.75,62.52Z"/><path class="cls-5" d="M50.41,17.59A3.51,3.51,0,0,1,46.88,21a3.38,3.38,0,0,1-3.44-3.48A3.43,3.43,0,0,1,47,14.08,3.53,3.53,0,0,1,50.41,17.59Z"/><path class="cls-3" d="M24.36,47.94A10.32,10.32,0,0,1,23.7,52a7,7,0,0,1-4,4.24,6.1,6.1,0,0,1-6.26-.86,7.48,7.48,0,0,1-2.29-3A25.63,25.63,0,0,1,10,48.78,37.5,37.5,0,0,0,8.4,44.16,13.26,13.26,0,0,0,5.48,39.8c-.41-.38-.86-.7-1.29-1A3.21,3.21,0,0,1,3,36.45a6.35,6.35,0,0,1,3.41-5.71,5.69,5.69,0,0,1,3.06-.49,10.77,10.77,0,0,1,3.69,1.07,18,18,0,0,1,3.69,2.11,25.75,25.75,0,0,1,3,3,19.85,19.85,0,0,1,2.67,4.17,18.29,18.29,0,0,1,1.62,4.93A9.69,9.69,0,0,1,24.36,47.94Z"/><path class="cls-3" d="M44.7,17.37a2.16,2.16,0,0,1,4.31.08,2.16,2.16,0,1,1-4.31-.08Z"/><path class="cls-6" d="M10.3,48.49a1.43,1.43,0,0,1-.12.76.82.82,0,0,1-1.38.16,2.15,2.15,0,0,1-.3-.56,9.32,9.32,0,0,1-.27-.9,39.18,39.18,0,0,0-2.18-6.16c-.32-.69-.73-1.34-1.11-2-.26-.45-.3-.71-.08-.93s.64-.18,1-.08a1.51,1.51,0,0,1,.62.47,10.2,10.2,0,0,1,1.81,3,44.24,44.24,0,0,1,1.87,5.52C10.21,48,10.26,48.33,10.3,48.49Z"/><path class="cls-6" d="M34,6.07a8.14,8.14,0,0,1-.16,1.61,1.2,1.2,0,0,1-.33.7A.87.87,0,0,1,32,8.24a1.78,1.78,0,0,1-.25-.83c0-.63,0-1.26,0-1.89a1.43,1.43,0,0,1,.47-1.06,1,1,0,0,1,1.57.34A2.82,2.82,0,0,1,34,6.07Z"/><path class="cls-6" d="M38.7,7.26c0-.32,0-.63,0-.94a1.4,1.4,0,0,1,.37-.93,1,1,0,0,1,1.52,0,1.13,1.13,0,0,1,.32.71,8.34,8.34,0,0,1-.1,2.34,1.25,1.25,0,0,1-.36.68A1,1,0,0,1,38.92,9a1.43,1.43,0,0,1-.22-.75V7.26Z"/><path class="cls-6" d="M5.29,19.06a1.79,1.79,0,0,1-.39,1.32.62.62,0,0,1-.9.17,1.22,1.22,0,0,1-.67-.83,7.65,7.65,0,0,1-.1-2.57,1.4,1.4,0,0,1,.21-.59.76.76,0,0,1,1.35,0A1.63,1.63,0,0,1,5,17,13.48,13.48,0,0,1,5.29,19.06Z"/><path class="cls-6" d="M5,28.85c0,.31,0,.63,0,.94a2.55,2.55,0,0,1,0,.39,1.14,1.14,0,0,1-.89.89,1.06,1.06,0,0,1-1-.75A2.59,2.59,0,0,1,3,29.08,5,5,0,0,0,3,28.3a3.26,3.26,0,0,1,.26-1.14.78.78,0,0,1,.7-.54.82.82,0,0,1,.8.53,1.41,1.41,0,0,1,.16.6v1.1Z"/><path class="cls-6" d="M26.14,6.53c0,.26,0,.52-.06.78a1.13,1.13,0,0,1-.64.84.65.65,0,0,1-.67-.05,1.33,1.33,0,0,1-.51-.68,7.72,7.72,0,0,1-.36-2.24,1.23,1.23,0,0,1,.48-1,.75.75,0,0,1,1,0,1.47,1.47,0,0,1,.56.92A8.23,8.23,0,0,1,26.14,6.53Z"/><path class="cls-6" d="M8.57,17.46a2.78,2.78,0,0,1,.13-1.05.79.79,0,0,1,1.45-.23,1.06,1.06,0,0,1,.17.26A8.36,8.36,0,0,1,10.77,19a.44.44,0,0,1,0,.16,1.16,1.16,0,0,1-1,1,1.09,1.09,0,0,1-1-.89A7,7,0,0,1,8.57,17.46Z"/><path class="cls-6" d="M10.75,39.38A.81.81,0,0,1,12,38.6a1.49,1.49,0,0,1,.32.24,8.94,8.94,0,0,1,1.48,1.92,1,1,0,0,1,0,1.05.93.93,0,0,1-1.21.42,1.33,1.33,0,0,1-.55-.44,10.3,10.3,0,0,1-1.17-1.87A1.2,1.2,0,0,1,10.75,39.38Z"/><path class="cls-6" d="M9,28.09c0-.28,0-.57,0-.86a2.36,2.36,0,0,1,.1-.53.67.67,0,0,1,.64-.49.71.71,0,0,1,.8.37,6.48,6.48,0,0,1,.54,3,1,1,0,0,1-.77.79.92.92,0,0,1-1-.37A1.45,1.45,0,0,1,9,29.11c0-.34,0-.68,0-1Z"/><path class="cls-6" d="M16.93,50.63a1.29,1.29,0,0,1-.14.69.83.83,0,0,1-1.38.19,1.62,1.62,0,0,1-.35-.61,6.3,6.3,0,0,1-.37-2.39,1.23,1.23,0,0,1,.17-.6A.72.72,0,0,1,16,47.76a1.31,1.31,0,0,1,.34.52,18.75,18.75,0,0,1,.58,2.2A.43.43,0,0,1,16.93,50.63Z"/><path class="cls-6" d="M11.09,7.75a1.82,1.82,0,0,1-.36,1,.92.92,0,0,1-1.49-.1A1.09,1.09,0,0,1,9,8c0-.66,0-1.31,0-2a1.65,1.65,0,0,1,.19-.68.76.76,0,0,1,1.35-.06,2.61,2.61,0,0,1,.3.73C11,6.57,10.9,7.2,11.09,7.75Z"/><path class="cls-6" d="M18.23,6.8c0,.26,0,.52,0,.78a.89.89,0,0,1-.58.77.75.75,0,0,1-.81-.11,1.57,1.57,0,0,1-.51-.78A7.44,7.44,0,0,1,16,5.78a1.19,1.19,0,0,1,.61-1.19.82.82,0,0,1,1,.1,1.57,1.57,0,0,1,.48.79A4.85,4.85,0,0,1,18.23,6.8Z"/><path class="cls-6" d="M18.07,39.82a.9.9,0,0,1-1.35.77,2.53,2.53,0,0,1-.62-.6c-.32-.41-.63-.83-.93-1.25a2,2,0,0,1-.28-.56.76.76,0,0,1,.9-1,1.66,1.66,0,0,1,.76.38,7,7,0,0,1,1.32,1.55A1,1,0,0,1,18.07,39.82Z"/><path class="cls-6" d="M3.2,6.79a3.73,3.73,0,0,1,.14-1.13,1.66,1.66,0,0,1,.14-.37.72.72,0,0,1,.67-.47.79.79,0,0,1,.71.44,2.34,2.34,0,0,1,.24.83,12,12,0,0,0,.14,1.33,1.23,1.23,0,0,1-.18.91.85.85,0,0,1-.81.53.91.91,0,0,1-.82-.64A4.43,4.43,0,0,1,3.2,7.14Z"/><path class="cls-6" d="M18.65,48.73a4.44,4.44,0,0,1,0-.49.75.75,0,0,1,.56-.69.78.78,0,0,1,.78.27,1.81,1.81,0,0,1,.31.54,9.66,9.66,0,0,1,.4,1.77v.07a1.16,1.16,0,0,1-.82,1.12,1,1,0,0,1-1-.82A6.32,6.32,0,0,1,18.65,48.73Z"/><path class="cls-7" d="M46.48,30.68A6,6,0,0,1,44,30.16a2.81,2.81,0,0,1-1.53-1.29,1.58,1.58,0,0,1,0-1.64,2.88,2.88,0,0,1,1.24-1.18,6.8,6.8,0,0,1,6-.18A2.59,2.59,0,0,1,51,27a1.73,1.73,0,0,1,0,1.73,2.76,2.76,0,0,1-1.05,1A6.58,6.58,0,0,1,46.48,30.68Z"/></g></g></svg>