<svg xmlns="http://www.w3.org/2000/svg" viewBox="0 0 72.05 72.88"><defs><style>.cls-1{fill:#ffa8d0;}.cls-2{fill:#ffd7e9;}.cls-3{fill:#926589;}.cls-4{fill:#ffda95;}.cls-5{fill:#694061;}.cls-6{fill:#d38ac4;}.cls-7{fill:#421c43;}</style></defs><g id="圖層_2" data-name="圖層 2"><g id="OBJECTS"><path class="cls-1" d="M28.78,62.47a14.65,14.65,0,0,1-.18,2.86,2.81,2.81,0,0,1-.42,1,1.28,1.28,0,0,1-.52.46c-.49.25-.65.23-1-.22A24.66,24.66,0,0,0,24.24,64a17.23,17.23,0,0,0-7.54-4.41,29,29,0,0,0-4.63-.94A10.13,10.13,0,0,1,11,58.45a2.49,2.49,0,0,1-.53-.16,1.76,1.76,0,0,1-.93-2.6c.51-.89,1.06-1.76,1.6-2.62A11.34,11.34,0,0,0,13,48.42a9.65,9.65,0,0,0-.82-6.07,8.41,8.41,0,0,0-2.56-2.84A16.79,16.79,0,0,0,5,37.16c-.9-.29-1.8-.59-2.69-.9a8.66,8.66,0,0,1-1.08-.48,2.22,2.22,0,0,1-.84-.71,1.62,1.62,0,0,1-.23-1.7,9.13,9.13,0,0,1,.62-1.1l2.38-3.63A19,19,0,0,0,5.49,22.9a30.48,30.48,0,0,0,.85-5.37,19.32,19.32,0,0,0,.09-2.28A21.39,21.39,0,0,0,6,11.43c-.2-.9-.43-1.79-.56-2.71a1.6,1.6,0,0,1,0-.69.84.84,0,0,1,1.43-.37,3,3,0,0,1,.65,1c.08.19.15.39.23.58.2.47.19.46.6.22a2.28,2.28,0,0,1,1.8-.31A6.73,6.73,0,0,1,13,10.75a14.85,14.85,0,0,1,3,3.75,46.18,46.18,0,0,1,2.91,6.11c1,2.47,1.94,4.95,2.78,7.47a114.53,114.53,0,0,1,3.16,11.07c.64,2.84,1.24,5.7,1.88,8.54.54,2.39,1,4.79,1.34,7.21.25,1.6.45,3.22.56,4.85C28.7,60.69,28.74,61.63,28.78,62.47Z"/><path class="cls-2" d="M8.84,24.72a7.8,7.8,0,0,1-.21,2.06A12.9,12.9,0,0,1,7.51,30.3a10.38,10.38,0,0,1-2.13,3,1.3,1.3,0,0,1-.75.41,1,1,0,0,1-1.08-1.44,4.3,4.3,0,0,1,.64-1,10.91,10.91,0,0,0,1.37-2.11,11.39,11.39,0,0,0,.56-1.47,18.19,18.19,0,0,0,.82-4,1.63,1.63,0,0,1,0-.31,1.32,1.32,0,0,1,.79-.9c.26,0,.72.32.87.72A3.33,3.33,0,0,1,8.84,24.72Z"/><path class="cls-2" d="M17.26,49.65a10.28,10.28,0,0,1-1.88,5.9,8.3,8.3,0,0,1-.83,1,1.48,1.48,0,0,1-.53.33,1,1,0,0,1-1-.2,1,1,0,0,1-.34-1,2,2,0,0,1,.31-.72c.13-.16.24-.34.37-.5a8.59,8.59,0,0,0,1.8-4.56c.08-.57.14-1.15.19-1.72a1.45,1.45,0,0,1,.58-1.07.48.48,0,0,1,.76.09,2.49,2.49,0,0,1,.42.92,4.56,4.56,0,0,1,.13.62C17.24,49.06,17.25,49.42,17.26,49.65Z"/><path class="cls-1" d="M43.24,62.69c.24-1.11.08-2.39.28-3.64.1-.62.1-1.25.17-1.88.14-1.28.36-2.55.57-3.82.66-3.91,1.53-7.79,2.39-11.66.65-2.9,1.34-5.79,2.18-8.64.77-2.62,1.6-5.23,2.56-7.79.69-1.88,1.4-3.75,2.16-5.6a34.55,34.55,0,0,1,3.56-6.75A10.3,10.3,0,0,1,61,9.44a5.11,5.11,0,0,1,1.36-.38,1.91,1.91,0,0,1,1.13.28c.65.3.65.3.9-.35A3.49,3.49,0,0,1,65,7.88a2.66,2.66,0,0,1,.35-.32.81.81,0,0,1,1.29.51,2.51,2.51,0,0,1,0,1c-.18.85-.36,1.7-.55,2.54a20.2,20.2,0,0,0-.33,5.26,30,30,0,0,0,1.13,6.91,19.36,19.36,0,0,0,2.6,5.63c.64.94,1.26,1.88,1.88,2.82a7.59,7.59,0,0,1,.54,1,1.82,1.82,0,0,1-.59,2.32,3.37,3.37,0,0,1-.88.51c-.67.26-1.34.49-2,.7a18.71,18.71,0,0,0-4.91,2.1,10,10,0,0,0-3.05,2.71,8,8,0,0,0-1.32,3.17,11.18,11.18,0,0,0,1.54,7.8c.58,1,1.18,1.93,1.77,2.89a3.78,3.78,0,0,1,.31.64,1.64,1.64,0,0,1-.66,2,2.6,2.6,0,0,1-1.17.43c-.7.12-1.41.19-2.1.33-1.26.26-2.53.51-3.76.85a15.45,15.45,0,0,0-4.46,2.15A20.72,20.72,0,0,0,46.78,65c-.45.48-.85,1-1.27,1.51s-.58.52-1.14.23a1.3,1.3,0,0,1-.55-.54,3.1,3.1,0,0,1-.38-1.12C43.36,64.34,43.31,63.58,43.24,62.69Z"/><path class="cls-2" d="M63.3,24.72a7.07,7.07,0,0,1,0-.91A1.43,1.43,0,0,1,64,22.57a.47.47,0,0,1,.64.07,1.11,1.11,0,0,1,.43.72c.1.7.17,1.41.31,2.1a15.36,15.36,0,0,0,1.26,4,16.55,16.55,0,0,0,1.4,2.09,5,5,0,0,1,.47.73,1,1,0,0,1-.21,1.21,1,1,0,0,1-1.17.17,1.51,1.51,0,0,1-.62-.47c-.36-.42-.72-.84-1-1.29a12.82,12.82,0,0,1-2-5.07A8.55,8.55,0,0,1,63.3,24.72Z"/><path class="cls-2" d="M57.13,51.69A1.77,1.77,0,0,1,57.2,51a.7.7,0,0,1,1.21-.22,1.14,1.14,0,0,1,.19.34c.14.34.27.69.39,1a6,6,0,0,0,1.3,2.23,2.66,2.66,0,0,1,.57.84.77.77,0,0,1-.21.87.81.81,0,0,1-.93.23,2.2,2.2,0,0,1-.65-.44,5.52,5.52,0,0,1-1.58-2.49A7.24,7.24,0,0,1,57.13,51.69Z"/><path class="cls-3" d="M35.69,72.87h-.87a8.39,8.39,0,0,1-5.67-2.21,11.14,11.14,0,0,1-2.45-3.17,29.71,29.71,0,0,1-1.74-4L21.24,53.39c-.71-1.93-1.4-3.86-2.11-5.78Q17.59,43.38,16,39.17c-.84-2.29-1.67-4.59-2.52-6.89l-2.95-8c-.69-1.88-1.37-3.76-2.06-5.63-.89-2.45-1.8-4.88-2.68-7.33A15.25,15.25,0,0,1,4.86,7a5.91,5.91,0,0,1,1.26-4A6.93,6.93,0,0,1,9.33.45a8.18,8.18,0,0,1,5.48,0,5.06,5.06,0,0,1,2.73,2.4A25.29,25.29,0,0,1,18.83,5.5C19.48,7,20,8.55,20.51,10.09c.75,2.25,1.52,4.48,2.27,6.73l2.79,8.29,2.1,6.2,2.82,8.37q2.13,6.36,4.28,12.7c.36,1.07.73,2.14,1.1,3.21.05.12.06.3.21.29s.13-.2.17-.33c.43-1.24.86-2.48,1.27-3.73.53-1.57,1-3.14,1.56-4.71l3.18-9.42c.88-2.61,1.77-5.23,2.64-7.84.64-1.9,1.25-3.8,1.89-5.69.93-2.77,1.88-5.52,2.82-8.29.37-1.12.72-2.25,1.1-3.37,1-2.8,1.85-5.65,2.95-8.41A6.51,6.51,0,0,1,56.83.61,6.41,6.41,0,0,1,59.34,0a6.85,6.85,0,0,1,5,1.62,6.45,6.45,0,0,1,2.36,4.23A9.37,9.37,0,0,1,66.12,10c-.61,1.83-1.27,3.63-1.92,5.43s-1.25,3.35-1.87,5c-1.17,3.13-2.33,6.25-3.49,9.39-.61,1.65-1.21,3.3-1.82,5-1.09,2.95-2.2,5.91-3.29,8.87q-1.51,4.06-3,8.13L48.05,59l-1,2.82a45.69,45.69,0,0,1-1.79,4.55,14.23,14.23,0,0,1-2.37,3.7,8.75,8.75,0,0,1-1.71,1.39,8.06,8.06,0,0,1-4.61,1.39Z"/><path class="cls-4" d="M50.75,63.94s.08.07.08.11a.48.48,0,0,1-.25.45.16.16,0,0,1-.12-.06C50.44,64.24,50.6,64,50.75,63.94Z"/><path class="cls-5" d="M13.87,11.75a1.22,1.22,0,0,1,.34-1,1,1,0,0,1,1.41.11,2.05,2.05,0,0,1,.29.47,11.4,11.4,0,0,1,.79,2.21,1.19,1.19,0,0,1,0,.62c-.12.41-.29.8-.77.9a1.22,1.22,0,0,1-1.29-.53,3.72,3.72,0,0,1-.42-1c-.13-.46-.24-.91-.35-1.37A2.09,2.09,0,0,1,13.87,11.75Z"/><path class="cls-5" d="M11.88,11.55a1.18,1.18,0,0,1-.1.6.88.88,0,0,1-1.28.32,1.1,1.1,0,0,1-.41-.47,13.41,13.41,0,0,1-.9-2.84.81.81,0,0,1,.24-.79.82.82,0,0,1,1.08-.1,1.8,1.8,0,0,1,.58.73,10.86,10.86,0,0,1,.76,2.23A2.36,2.36,0,0,1,11.88,11.55Z"/><path class="cls-5" d="M14,20.76a.91.91,0,0,1-.88-.51,7.85,7.85,0,0,1-.91-2.49,1.71,1.71,0,0,1,0-.32.89.89,0,0,1,.65-.8.86.86,0,0,1,.92.29,2.48,2.48,0,0,1,.19.26,9.56,9.56,0,0,1,1,2.29,1,1,0,0,1,0,.69A.9.9,0,0,1,14,20.76Z"/><path class="cls-5" d="M48.38,32a.94.94,0,0,1-.93-1.12,6.63,6.63,0,0,1,.4-1.68A6,6,0,0,1,48.39,28a3.7,3.7,0,0,1,.21-.33.84.84,0,0,1,.95-.4,1,1,0,0,1,.64.82,1.06,1.06,0,0,1,0,.47c-.15.75-.32,1.49-.51,2.23a2.33,2.33,0,0,1-.28.65A1,1,0,0,1,48.38,32Z"/><path class="cls-5" d="M52.61,34.06a2.58,2.58,0,0,1-.16.93,7,7,0,0,1-.58,1.38,1.53,1.53,0,0,1-.51.59.94.94,0,0,1-1,.09.93.93,0,0,1-.53-1,5.28,5.28,0,0,1,1-2.53.93.93,0,0,1,.51-.36C52.07,33,52.56,33.33,52.61,34.06Z"/><path class="cls-5" d="M55.78,25.49a7.5,7.5,0,0,1-.8,2.42,1,1,0,0,1-1.15.46,1,1,0,0,1-.7-1.16,7.43,7.43,0,0,1,.81-2.27,1.17,1.17,0,0,1,.42-.46.87.87,0,0,1,1.38.6C55.76,25.21,55.76,25.34,55.78,25.49Z"/><path class="cls-6" d="M57.05,45.15c0,.31,0,.63-.06.94a3.28,3.28,0,0,1-1.13,2.11c-.28.23-.53.5-.8.75a.63.63,0,0,0-.19.65c.11.46.21.92.32,1.38a4.33,4.33,0,0,1-.1,2.26A2.67,2.67,0,0,1,53.45,55a2.77,2.77,0,0,1-1.48.11A5.18,5.18,0,0,1,49.4,54a3.93,3.93,0,0,1-1.15-4.95,30.81,30.81,0,0,1,2.28-4,8.9,8.9,0,0,1,2.77-2.66,2.64,2.64,0,0,1,2-.4,1.5,1.5,0,0,1,.75.41,3.28,3.28,0,0,1,.94,2,5.45,5.45,0,0,1,0,.7Z"/><path class="cls-5" d="M36.45,64.84a4.84,4.84,0,0,1,.73-2.91,2.89,2.89,0,0,1,.42-.57,1,1,0,0,1,1.23-.11,4.88,4.88,0,0,1,.59.52c.83.77,1.64,1.55,2.47,2.31a8.35,8.35,0,0,0,2.69,1.6l.44.16c.31.13.37.26.26.55a2,2,0,0,1-.16.36,16.83,16.83,0,0,1-1.73,2.81,9,9,0,0,1-2.38,2,.54.54,0,0,1-.66,0,9.28,9.28,0,0,1-3.06-3.32A6.16,6.16,0,0,1,36.45,64.84Z"/><path class="cls-5" d="M46.41,46a3.46,3.46,0,0,1,2,.43,3.37,3.37,0,0,1,.84.71,1,1,0,0,1,.23.49.76.76,0,0,1-.51.94,2.26,2.26,0,0,1-1.4.13,14,14,0,0,0-2.67-.11h-.71a.55.55,0,0,1-.52-.4,1.19,1.19,0,0,1,.2-1.26A2.9,2.9,0,0,1,45.78,46,4.42,4.42,0,0,1,46.41,46Z"/><path class="cls-3" d="M45.83,48a8.1,8.1,0,0,1,4.85,1,10.85,10.85,0,0,1,4.93,5.54,10.16,10.16,0,0,1,.74,3A7.83,7.83,0,0,1,56,60.53a8.3,8.3,0,0,1-4.4,5.2,7.6,7.6,0,0,1-3.42.83,8.74,8.74,0,0,1-2.87-.36,8.13,8.13,0,0,1-2.63-1.4A20.79,20.79,0,0,1,41,63.37a9.65,9.65,0,0,1-2.9-8.17,8.25,8.25,0,0,1,2.59-5.27,7.4,7.4,0,0,1,3.66-1.88A6.94,6.94,0,0,1,45.83,48Z"/><path class="cls-7" d="M51,64.35a7.1,7.1,0,0,1-4-1.19,3.28,3.28,0,0,1-.72-.62,2,2,0,0,1-.29-.46.61.61,0,0,1,.09-.73.65.65,0,0,1,.78-.19,5.08,5.08,0,0,1,.75.44,6.55,6.55,0,0,0,1.52.82,4.46,4.46,0,0,0,3.66-.24,3.17,3.17,0,0,0,.59-.39c.33-.25.32-.26.06-.62S53,60.41,52.68,60a3.34,3.34,0,0,1-.25-.4c-.21-.44-.18-.79.09-1s.66-.24,1.06.11a4.72,4.72,0,0,1,.5.5c.47.57.92,1.14,1.38,1.72a.83.83,0,0,1,.14.88,3,3,0,0,1-1.05,1.45A5.94,5.94,0,0,1,51,64.35Z"/><path class="cls-7" d="M49.13,56.53a1.85,1.85,0,0,1-1.91,1.78,1.82,1.82,0,0,1-1.74-1.87,1.75,1.75,0,0,1,1.83-1.77A1.82,1.82,0,0,1,49.13,56.53Z"/><path class="cls-7" d="M49.8,53.14a1.63,1.63,0,0,1-.31,0,9.75,9.75,0,0,1-1.91-.72,1.26,1.26,0,0,1-.31-.25.93.93,0,0,1-.17-1.21,1.07,1.07,0,0,1,1.23-.46,6.85,6.85,0,0,1,2,1l.12.11a1,1,0,0,1,.25,1.07A.84.84,0,0,1,49.8,53.14Z"/><path class="cls-6" d="M39.5,53.9a3.34,3.34,0,0,1-1.34-.22,2.57,2.57,0,0,1-1.73-2.31,4.91,4.91,0,0,1,.56-2.5c.21-.37.38-.75.58-1.12a.67.67,0,0,0,0-.74,4.63,4.63,0,0,0-.31-.46,4.13,4.13,0,0,1-.47-4.11,3.45,3.45,0,0,1,.94-1.52,1.92,1.92,0,0,1,2.58-.26,5.82,5.82,0,0,1,1.83,2,16,16,0,0,1,1.49,3.88,23,23,0,0,1,.59,2.93,3.43,3.43,0,0,1-1.24,3.17A4.87,4.87,0,0,1,39.5,53.9Z"/><path class="cls-1" d="M41.72,48.55a2,2,0,0,1-.1.83.45.45,0,0,1-.81.14,2.32,2.32,0,0,1-.49-.88c-.17-.63-.37-1.26-.54-1.89a25.62,25.62,0,0,0-1-3.3,1.4,1.4,0,0,1-.1-.46.56.56,0,0,1,.35-.63.65.65,0,0,1,.72.17,3.2,3.2,0,0,1,.34.53,13.75,13.75,0,0,1,1,2.65c.21.73.39,1.47.58,2.2C41.68,48.17,41.7,48.43,41.72,48.55Z"/><path class="cls-1" d="M39.63,50.74c0,.11,0,.18-.05.26-.08.32-.18.62-.56.67a.91.91,0,0,1-.89-.39,1.65,1.65,0,0,1-.21-1.43A.71.71,0,0,1,39,49.56,1.68,1.68,0,0,1,39.63,50.74Z"/><path class="cls-1" d="M40.44,58.41a5.14,5.14,0,0,1,2.78.64,2.6,2.6,0,0,1,1.11,1A1.74,1.74,0,0,1,44.25,62a2.78,2.78,0,0,1-.93.84,6.53,6.53,0,0,1-6.06.24,2.86,2.86,0,0,1-1-.75,1.75,1.75,0,0,1-.15-2.18A2.93,2.93,0,0,1,37.5,59,5.61,5.61,0,0,1,40.44,58.41Z"/></g></g></svg>