<svg xmlns="http://www.w3.org/2000/svg" viewBox="0 0 114.47 80.48"><defs><style>.cls-1{fill:#828283;}.cls-2{fill:#5c5c5c;}.cls-3{fill:#bdbdbe;}.cls-4{fill:#e4e4e5;}.cls-5{fill:#421c43;}.cls-6{fill:#f75e9d;}</style></defs><g id="圖層_2" data-name="圖層 2"><g id="OBJECTS"><path class="cls-1" d="M105.29,5.67a17.22,17.22,0,0,0-.33-4,3.89,3.89,0,0,0-.16-.61,1.54,1.54,0,0,0-1.44-1,4.14,4.14,0,0,0-1.71.18A14.81,14.81,0,0,0,97,2.71a15.2,15.2,0,0,0-3,3.13,9.39,9.39,0,0,0-1.66,4,5.27,5.27,0,0,0,.36,2.63,7.17,7.17,0,0,0,7.5,4.3A4.32,4.32,0,0,0,103,15.25a7.4,7.4,0,0,0,1.33-2.66,26.46,26.46,0,0,0,.87-4.48C105.31,7.31,105.27,6.49,105.29,5.67Z"/><path class="cls-2" d="M105.24,5.72c0-.74,0-1.47,0-2.21,0-.51-.2-.68-.69-.62a3.43,3.43,0,0,0-1.94.79,5.73,5.73,0,0,0-1.77,2.92c-.14.54-.23,1.08-.35,1.62-.06.23-.11.27-.33.15a3.15,3.15,0,0,0-1.6-.31A2.3,2.3,0,0,0,97,8.71a4.47,4.47,0,0,0-1.22,1.82,7.65,7.65,0,0,0-.52,2.22,15.07,15.07,0,0,0-.12,1.64c0,1.18.17,1.36,1.22,1.85a6.82,6.82,0,0,0,3.85.56A4.21,4.21,0,0,0,103,15.23a7.38,7.38,0,0,0,1.32-2.66,25.44,25.44,0,0,0,.87-4.49,20.61,20.61,0,0,0,0-2.36Z"/><path class="cls-3" d="M2.37,24.39c0-.4,0-.79,0-1.19.07-2.34-.12-4.67-.17-7,0-.86-.16-1.72-.24-2.59,0-.21,0-.42-.05-.63a47.69,47.69,0,0,0-.7-5.7C1.12,6.86,1,6.45,1,6A15.13,15.13,0,0,0,.23,3,2.89,2.89,0,0,1,0,1.82,1.72,1.72,0,0,1,2,.24,32.92,32.92,0,0,1,6.87,1.4a28.75,28.75,0,0,1,6.16,3,24.65,24.65,0,0,1,3.35,2.49,24.51,24.51,0,0,1,3.39,3.73,36.65,36.65,0,0,1,4.31,7.77,54.72,54.72,0,0,1,2.73,8.72,46.79,46.79,0,0,1,1,5.51c.16,1.56.3,3.13.4,4.71.11,1.79.06,3.57.08,5.36s-.18,3.77-.13,5.67c0,.18,0,.37,0,.55.07,1.84-.14,3.68-.15,5.51a10,10,0,0,0-.13,1.34.89.89,0,0,0,0,.14l.08-.13a.83.83,0,0,0,0-.15c.25-.89.5-1.78.73-2.67l1.62-6c.64-2.42,1.27-4.83,1.92-7.24.49-1.83,1-3.65,1.49-5.48.35-1.32.7-2.64,1.06-4,.41-1.52.82-3,1.24-4.56.53-2,1.08-3.9,1.57-5.86.32-1.28.68-2.54,1.06-3.8a19.3,19.3,0,0,1,1.52-3.88A9.45,9.45,0,0,1,43.6,8.68a8.06,8.06,0,0,1,2.83-.93A10.7,10.7,0,0,1,49,7.62a9,9,0,0,1,3.79.94,7,7,0,0,1,1.35,1,9.8,9.8,0,0,1,2.52,3.39c.21.48.38,1,.55,1.48.85,2.51,1.5,5.09,2.2,7.65.53,1.92,1,3.85,1.58,5.78.44,1.65.89,3.3,1.33,5l2.2,8.14c.58,2.13,1.17,4.26,1.75,6.39l2.49,9.21c.08.3.15.61.23.91a1.36,1.36,0,0,0,.1.21c0-.06.1-.11.11-.18.07-.25.12-.51.18-.76.48-2.1,1-4.2,1.44-6.31.63-2.82,1.23-5.64,1.86-8.46.35-1.59.73-3.18,1.1-4.77.19-.84.37-1.69.56-2.54.38-1.66.75-3.33,1.12-5,.21-.93.42-1.85.62-2.77.39-1.72.77-3.44,1.16-5.15.51-2.28,1-4.57,1.55-6.84a21.89,21.89,0,0,1,.62-2.28,9.09,9.09,0,0,1,3.26-4.45,9.41,9.41,0,0,1,4.62-1.82,17.55,17.55,0,0,1,3.07-.1,10.91,10.91,0,0,1,2.71.46,17.46,17.46,0,0,1,6.77,3.6,16.46,16.46,0,0,1,3.37,4.15,42.43,42.43,0,0,1,2.14,4.65,13,13,0,0,0,2.37,3.7,29.61,29.61,0,0,0,4,3.42q.83.61,1.62,1.26a1.62,1.62,0,0,1,0,2.65,22.78,22.78,0,0,1-3,2.21,14.19,14.19,0,0,1-5,2c-.67.12-1.35.18-2,.27a30.8,30.8,0,0,1-4.8.12A22.09,22.09,0,0,1,94.39,34c-1.72-.37-3.41-.87-5.1-1.38l-.22-.07c-.23-.06-.33,0-.4.25s-.09.3-.13.45l-2,8-1.41,5.66c-.63,2.55-1.25,5.11-1.88,7.66-.72,2.88-1.43,5.76-2.15,8.64q-.91,3.67-1.84,7.34c-.37,1.43-.77,2.84-1.26,4.23a9.53,9.53,0,0,1-2.78,4.14,7,7,0,0,1-2.88,1.43,5.42,5.42,0,0,1-1.56.18c-.6,0-1.21,0-1.81,0a7.12,7.12,0,0,1-5.12-2.09,9.06,9.06,0,0,1-2.37-3.76c-.93-2.77-1.74-5.57-2.49-8.39-.33-1.27-.69-2.54-1-3.8-.47-1.75-1-3.5-1.42-5.25-.73-2.72-1.47-5.43-2.2-8.15Q53,43.81,51.61,38.59c-.47-1.75-1-3.49-1.45-5.24-.51-1.9-1-3.81-1.52-5.71,0-.18-.11-.35-.17-.53S48.4,27,48.36,27a.14.14,0,0,0-.11.07,5.44,5.44,0,0,0-.19.52c-.9,3.35-1.8,6.71-2.71,10s-1.84,6.64-2.76,10c-.63,2.3-1.25,4.61-1.88,6.92q-1.5,5.52-3,11c-.43,1.6-.86,3.2-1.32,4.79a43.11,43.11,0,0,1-1.59,4.86,8.29,8.29,0,0,1-5.11,4.93,5.52,5.52,0,0,1-2,.32c-.63,0-1.26,0-1.89,0a7,7,0,0,1-5.79-3,11.75,11.75,0,0,1-1.47-2.78,26,26,0,0,1-1.15-3.77c-.07-.3-.18-.6-.25-.91-.45-1.76-.86-3.52-1.33-5.27a11.08,11.08,0,0,0-1.16-2.58C14,61,13.19,59.93,12.48,58.82Q11,56.47,9.62,54C9,52.9,8.44,51.78,7.89,50.64a58.47,58.47,0,0,1-2.53-5.86c-.57-1.59-1.05-3.2-1.47-4.83a41,41,0,0,1-1-5.26c-.1-.73-.1-1.47-.22-2.19-.19-1.1-.07-2.21-.26-3.3a5.78,5.78,0,0,1,0-1V24.39Z"/><path class="cls-4" d="M7.3,12.72A1.23,1.23,0,0,1,6.63,14a1.12,1.12,0,0,1-1.44-.41,2.32,2.32,0,0,1-.29-.73,27.43,27.43,0,0,1-.56-3.24A1.25,1.25,0,0,1,4.42,9a.87.87,0,0,1,1.49-.36,2.45,2.45,0,0,1,.56.94A15.55,15.55,0,0,1,7.16,12C7.21,12.28,7.26,12.54,7.3,12.72Z"/><path class="cls-4" d="M61.26,60.74c0-.15,0-.28.05-.41a.88.88,0,0,1,.77-.78.94.94,0,0,1,1,.45,6.11,6.11,0,0,1,.31.63,15.28,15.28,0,0,1,.68,2.18,1.87,1.87,0,0,1,0,.78,1,1,0,0,1-.75.9c-.57.09-.95.06-1.28-.5a1,1,0,0,1-.08-.14A13.06,13.06,0,0,1,61.26,60.74Z"/><path class="cls-4" d="M12.7,10.83a1,1,0,0,1-.59,1A1,1,0,0,1,11,11.69a1.48,1.48,0,0,1-.45-.54c-.32-.65-.66-1.3-1-2A2.42,2.42,0,0,1,9.32,8a.78.78,0,0,1,.45-.75.82.82,0,0,1,.89.09,2.39,2.39,0,0,1,.55.55A12.64,12.64,0,0,1,12.52,10,1.58,1.58,0,0,1,12.7,10.83Z"/><path class="cls-4" d="M50.21,17c0-.76.28-1.2.73-1.32a1.11,1.11,0,0,1,1.29.65,9.26,9.26,0,0,1,.84,2.27,1.49,1.49,0,0,1-.5,1.49.68.68,0,0,1-.73.16,1.52,1.52,0,0,1-1-.83A9.17,9.17,0,0,1,50.21,17Z"/><path class="cls-4" d="M16.35,36.66a2.67,2.67,0,0,1,0,.4,1,1,0,0,1-.58.88,1.24,1.24,0,0,1-1.3-.3,1.48,1.48,0,0,1-.36-.6,7.93,7.93,0,0,1-.36-2.65,1.59,1.59,0,0,1,.13-.53.92.92,0,0,1,1.52-.23,1.86,1.86,0,0,1,.45.73A8.23,8.23,0,0,1,16.35,36.66Z"/><path class="cls-4" d="M12.16,22.32c0-.19,0-.37,0-.56a.93.93,0,0,1,.75-1,1.11,1.11,0,0,1,1.07.52,2.11,2.11,0,0,1,.2.43A17.81,17.81,0,0,1,14.7,24a1.25,1.25,0,0,1-.23,1,1.06,1.06,0,0,1-1.87-.15A6,6,0,0,1,12.18,23a4.42,4.42,0,0,1,0-.63Z"/><path class="cls-4" d="M23.24,34.7A1.3,1.3,0,0,1,22.41,36,1.19,1.19,0,0,1,21,35.4a5.62,5.62,0,0,1-.49-2.92A.93.93,0,0,1,22,31.76a1.39,1.39,0,0,1,.65.66A9.25,9.25,0,0,1,23.24,34.7Z"/><path class="cls-4" d="M59.19,49.42a1,1,0,0,1-.59.94,1,1,0,0,1-1.16-.22,1.34,1.34,0,0,1-.35-.61c-.22-.81-.45-1.62-.65-2.43a2.8,2.8,0,0,1,0-.71.84.84,0,0,1,.67-.78A.86.86,0,0,1,58,46a6.65,6.65,0,0,1,.43.84,7.2,7.2,0,0,1,.72,2.32A1,1,0,0,0,59.19,49.42Z"/><path class="cls-4" d="M81.5,47.11a6.46,6.46,0,0,1-.41,2.08,1.39,1.39,0,0,1-.52.68A1,1,0,0,1,79,49.54a1.35,1.35,0,0,1-.16-1c.13-.6.27-1.18.42-1.77a2,2,0,0,1,.2-.51,1,1,0,0,1,1.15-.62,1.08,1.08,0,0,1,.88,1A3.68,3.68,0,0,1,81.5,47.11Z"/><path class="cls-4" d="M77,62.42A4.49,4.49,0,0,1,76.74,64a1.12,1.12,0,0,1-1.77.56,1,1,0,0,1-.42-.73A7.54,7.54,0,0,1,74.91,61a1,1,0,0,1,1.93,0A3.84,3.84,0,0,1,77,62.42Z"/><path class="cls-4" d="M39.07,31.84c-.12.73-.23,1.53-.39,2.32a1.29,1.29,0,0,1-.73,1,.91.91,0,0,1-1.13-.26,1.13,1.13,0,0,1-.3-.94,11.47,11.47,0,0,1,.6-2.59,1.7,1.7,0,0,1,.19-.35,1,1,0,0,1,1-.46,1,1,0,0,1,.72.84C39.06,31.5,39.06,31.63,39.07,31.84Z"/><path class="cls-4" d="M26.38,61.91a8.39,8.39,0,0,1,.05-.88,1,1,0,0,1,.81-.85.93.93,0,0,1,1.08.58,4.17,4.17,0,0,1,.31.9c.11.48.2,1,.28,1.46a1.38,1.38,0,0,1-.33,1.18,1.06,1.06,0,0,1-1.65-.06,2,2,0,0,1-.35-.78c0-.13,0-.26,0-.39C26.52,62.62,26.34,62.19,26.38,61.91Z"/><path class="cls-4" d="M70.9,62.76c-.05.38-.07.7-.13,1a1.1,1.1,0,0,1-1,.91,1.15,1.15,0,0,1-1.18-.84,2.83,2.83,0,0,1-.14-1.16c0-.49.1-1,.15-1.48a.9.9,0,0,1,.21-.5.94.94,0,0,1,1.49-.15,2,2,0,0,1,.49,1A11,11,0,0,0,70.9,62.76Z"/><path class="cls-4" d="M20.75,22.14a1,1,0,0,1-.23.75,1.09,1.09,0,0,1-1.83-.28,14.14,14.14,0,0,1-.79-2.72A.93.93,0,0,1,19.43,19a2.34,2.34,0,0,1,.23.22A5.74,5.74,0,0,1,20.75,22.14Z"/><path class="cls-4" d="M74.55,47.46A14,14,0,0,1,75,45.22a1.18,1.18,0,0,1,.41-.66,1,1,0,0,1,1.51.41,1.88,1.88,0,0,1,.18.76,6.26,6.26,0,0,1-.43,2.3,2.3,2.3,0,0,1-.23.41,1,1,0,0,1-1.79-.35A4.5,4.5,0,0,1,74.55,47.46Z"/><path class="cls-4" d="M22.17,63.62a1.14,1.14,0,0,1-.81,1.16,1.1,1.1,0,0,1-1.22-.65,4.5,4.5,0,0,1-.2-.51c-.16-.61-.31-1.22-.45-1.84a2.07,2.07,0,0,1,0-.86.86.86,0,0,1,.59-.68.79.79,0,0,1,.86.23,3.22,3.22,0,0,1,.42.57,8.1,8.1,0,0,1,.82,2.38A.75.75,0,0,1,22.17,63.62Z"/><path class="cls-4" d="M23.6,74.38a1,1,0,0,1-.3.86,1,1,0,0,1-1.59-.3,3.17,3.17,0,0,1-.2-.51,14.72,14.72,0,0,1-.46-2.07,2.06,2.06,0,0,1,0-.7.83.83,0,0,1,.71-.73.86.86,0,0,1,.88.4c.08.13.15.28.22.42A8.66,8.66,0,0,1,23.6,74.38Z"/><path class="cls-4" d="M7,35.89a4.2,4.2,0,0,1,0-.51.79.79,0,0,1,.59-.75.92.92,0,0,1,1,.32,1.37,1.37,0,0,1,.13.2,5.73,5.73,0,0,1,.71,3,.92.92,0,0,1-1,1,.9.9,0,0,1-.64-.26,1.59,1.59,0,0,1-.42-.66A5.9,5.9,0,0,1,7,35.89Z"/><path class="cls-4" d="M53.19,30.49a1,1,0,0,1,.88.42A5.56,5.56,0,0,1,55,33.46a1.07,1.07,0,0,1-.17.67,1,1,0,0,1-1.22.45,1,1,0,0,1-.61-.47,5.74,5.74,0,0,1-.73-2.86A.79.79,0,0,1,53.19,30.49Z"/><path class="cls-4" d="M43.82,32.37a6.35,6.35,0,0,1-.37,1.93,1.69,1.69,0,0,1-.25.48,1,1,0,0,1-1.76-.07,1.17,1.17,0,0,1-.18-.83A6.55,6.55,0,0,1,42,31.57a1.3,1.3,0,0,1,.42-.45.88.88,0,0,1,1.36.55A5.51,5.51,0,0,1,43.82,32.37Z"/><path class="cls-4" d="M72.83,75.44a1.59,1.59,0,0,1-.38,1.2,1,1,0,0,1-1.66-.14,1.08,1.08,0,0,1-.13-.29,5.12,5.12,0,0,1-.15-1.7c0-.23.06-.47.09-.7a1.36,1.36,0,0,1,.48-.88.87.87,0,0,1,1.21.07,1.15,1.15,0,0,1,.35.69A13.78,13.78,0,0,1,72.83,75.44Z"/><path class="cls-4" d="M20.08,50.81a1.28,1.28,0,0,1-.15.7.9.9,0,0,1-1.22.39,1.45,1.45,0,0,1-.72-.8,9,9,0,0,1-.57-2.29,1,1,0,0,1,.64-1.07,1,1,0,0,1,1.11.42,2.38,2.38,0,0,1,.23.41,9.61,9.61,0,0,1,.65,2A.79.79,0,0,1,20.08,50.81Z"/><path class="cls-4" d="M64.9,73.37c0-.68.17-1,.55-1.15a.91.91,0,0,1,1.13.49,7.27,7.27,0,0,1,1,3.05.81.81,0,0,1-.61.73,1.16,1.16,0,0,1-1.43-.65A9.54,9.54,0,0,1,64.9,73.37Z"/><path class="cls-4" d="M46,17.83c0,.31,0,.63-.05.94a1.24,1.24,0,0,1-.18.6,1.09,1.09,0,0,1-1.4.57,1.14,1.14,0,0,1-.75-1.17,9.72,9.72,0,0,1,.28-1.86,3.53,3.53,0,0,1,.3-.72.86.86,0,0,1,1.46-.1,1.23,1.23,0,0,1,.3.79c0,.32,0,.63,0,.95Z"/><path class="cls-4" d="M61.11,45.88v-.21a.81.81,0,0,1,1.3-.66,1.53,1.53,0,0,1,.52.58,7.67,7.67,0,0,1,.72,1.9,1.92,1.92,0,0,1,0,1,.87.87,0,0,1-.84.7.91.91,0,0,1-1-.49A9,9,0,0,1,61.11,45.88Z"/><path class="cls-4" d="M5.22,24.61c0-.36,0-.73,0-1.09a1.82,1.82,0,0,1,.15-.69.77.77,0,0,1,.65-.5.79.79,0,0,1,.78.42,2.41,2.41,0,0,1,.3.81,14.68,14.68,0,0,1,.23,2.09,1.81,1.81,0,0,1-.14.69.92.92,0,0,1-.84.6,1,1,0,0,1-.93-.48,1.41,1.41,0,0,1-.2-.75c0-.36,0-.73,0-1.1Z"/><path class="cls-4" d="M11.57,49.88a.78.78,0,0,1,1.14-.79,1.53,1.53,0,0,1,.58.52c.38.6.76,1.19,1.12,1.8a2.36,2.36,0,0,1,.24.66.9.9,0,0,1-.35,1A.88.88,0,0,1,13.21,53a1.29,1.29,0,0,1-.33-.33,10.22,10.22,0,0,1-1.25-2.52A1.17,1.17,0,0,1,11.57,49.88Z"/><path class="cls-4" d="M31.74,63a5,5,0,0,1,.21-1.5,1.56,1.56,0,0,1,.49-.79.85.85,0,0,1,1.37.3,2.43,2.43,0,0,1,.18.84,9,9,0,0,1-.14,1.8,1.57,1.57,0,0,1-.67,1,.74.74,0,0,1-1-.15,1.43,1.43,0,0,1-.39-1C31.75,63.38,31.74,63.22,31.74,63Z"/><path class="cls-4" d="M85.46,32.8a5.37,5.37,0,0,1-.31,1.77,1.06,1.06,0,0,1-2.05-.49,10.6,10.6,0,0,1,.54-2.29,1,1,0,0,1,.1-.21.87.87,0,0,1,1.57.07A2.37,2.37,0,0,1,85.46,32.8Z"/><path class="cls-4" d="M27.35,73.76a3.24,3.24,0,0,1,.13-1.24A2.53,2.53,0,0,1,27.7,72a.85.85,0,0,1,1.24-.19,1.29,1.29,0,0,1,.45.72,6.36,6.36,0,0,1,.16,2,1.92,1.92,0,0,1-.11.46.91.91,0,0,1-.87.68.94.94,0,0,1-1-.5,1.63,1.63,0,0,1-.22-.75C27.35,74.24,27.35,74,27.35,73.76Z"/><path class="cls-4" d="M57,30.64c0-.71.24-1,.8-1.14a.93.93,0,0,1,.91.34,4.38,4.38,0,0,1,1,2.26,1,1,0,0,1-.44,1A1,1,0,0,1,57.89,33a1.1,1.1,0,0,1-.27-.38c-.21-.56-.4-1.13-.59-1.7A1.66,1.66,0,0,1,57,30.64Z"/><path class="cls-4" d="M80,32.25a6,6,0,0,1-.17,1.41,2.16,2.16,0,0,1-.23.66.93.93,0,0,1-1,.5,1,1,0,0,1-.85-.82,2.43,2.43,0,0,1,0-.47,8,8,0,0,1,.42-2,1.44,1.44,0,0,1,.37-.6.82.82,0,0,1,1.42.38A3,3,0,0,1,80,32.25Z"/><path class="cls-4" d="M34.35,47.94a6.89,6.89,0,0,1-.23,1.63,1.8,1.8,0,0,1-.85,1.1.44.44,0,0,1-.58-.05,1.62,1.62,0,0,1-.58-1.4,8.23,8.23,0,0,1,.57-2,2.91,2.91,0,0,1,.18-.35.78.78,0,0,1,1.43.25A8.48,8.48,0,0,1,34.35,47.94Z"/><path class="cls-4" d="M39.54,48.73a3.9,3.9,0,0,1-.33,1.87,1,1,0,0,1-.82.64.92.92,0,0,1-1.11-.84,3,3,0,0,1,0-.85,5.87,5.87,0,0,1,.48-1.41,2.2,2.2,0,0,1,.35-.51.77.77,0,0,1,.87-.2.74.74,0,0,1,.52.71Z"/><path class="cls-4" d="M23.53,49v-.71a1.49,1.49,0,0,1,.22-.74.82.82,0,0,1,.86-.43.78.78,0,0,1,.69.56,3.18,3.18,0,0,1,.14.53,7.71,7.71,0,0,1,0,1.73.87.87,0,0,1-.84.88.9.9,0,0,1-1.07-.8,6.93,6.93,0,0,1,0-1Z"/><path class="cls-4" d="M16.6,62a.65.65,0,0,1,0-.16s0,0,.05-.06l.05,0c0,.19.07.39.1.58,0,0,0,0-.06.05a.11.11,0,0,1-.07,0A.76.76,0,0,1,16.6,62Z"/><path class="cls-5" d="M108.62,32.63a5.09,5.09,0,0,1-4.42-2.41,4.72,4.72,0,0,1-.54-1.39.78.78,0,0,1,.13-.68.69.69,0,0,1,1.14,0,3.7,3.7,0,0,1,.31.55,4.42,4.42,0,0,0,1.26,1.49,3.53,3.53,0,0,0,3.65.28c.15-.06.15-.18,0-.3a4.43,4.43,0,0,1-1.25-1.5,3.19,3.19,0,0,1,.55-3.52,1.09,1.09,0,0,1,.77-.34,2.22,2.22,0,0,1,.92.18,6.55,6.55,0,0,1,2.61,1.72,2.55,2.55,0,0,1,.62,2.4,1.82,1.82,0,0,1-.39.77,8.38,8.38,0,0,1-2.77,2.17A6,6,0,0,1,108.62,32.63Z"/><path class="cls-5" d="M96.38,21.26a2.1,2.1,0,1,1,0-4.19,2.09,2.09,0,0,1,2.18,2.13A2.05,2.05,0,0,1,96.38,21.26Z"/><path class="cls-6" d="M92.17,34.66a5.26,5.26,0,0,1-5.31-5.22,5.29,5.29,0,1,1,10.58-.05A5.27,5.27,0,0,1,92.17,34.66Z"/><path class="cls-1" d="M75.46,5.67a17.22,17.22,0,0,1,.33-4A3.89,3.89,0,0,1,76,1.07a1.54,1.54,0,0,1,1.44-1A4.16,4.16,0,0,1,79.1.2a14.81,14.81,0,0,1,4.7,2.51,15.2,15.2,0,0,1,3,3.13,9.39,9.39,0,0,1,1.66,4,5.27,5.27,0,0,1-.36,2.63,7.17,7.17,0,0,1-7.5,4.3,4.32,4.32,0,0,1-2.83-1.56,7.4,7.4,0,0,1-1.33-2.66,26.46,26.46,0,0,1-.87-4.48C75.44,7.31,75.48,6.49,75.46,5.67Z"/><path class="cls-2" d="M75.51,5.72c0-.74,0-1.47,0-2.21,0-.51.2-.68.69-.62a3.43,3.43,0,0,1,1.94.79A5.73,5.73,0,0,1,79.92,6.6c.14.54.23,1.08.35,1.62.06.23.11.27.33.15a3.15,3.15,0,0,1,1.6-.31,2.32,2.32,0,0,1,1.56.65A4.57,4.57,0,0,1,85,10.53a7.65,7.65,0,0,1,.52,2.22,15.07,15.07,0,0,1,.12,1.64c0,1.18-.17,1.36-1.22,1.85a6.82,6.82,0,0,1-3.85.56,4.21,4.21,0,0,1-2.82-1.57,7.4,7.4,0,0,1-1.33-2.66,26.36,26.36,0,0,1-.86-4.49,20.61,20.61,0,0,1,0-2.36Z"/><path class="cls-2" d="M92.05,14.69a.91.91,0,0,1,.51-.9,13.49,13.49,0,0,1,2.8-1.24,1.42,1.42,0,0,1,.71,0,.71.71,0,0,1,.4,1.21.63.63,0,0,1-.12.11,14.85,14.85,0,0,1-3,1.77.93.93,0,0,1-.83-.07A.89.89,0,0,1,92.05,14.69Z"/></g></g></svg>