<svg xmlns="http://www.w3.org/2000/svg" viewBox="0 0 57.45 72.87"><defs><style>.cls-1{fill:#f37c0d;}.cls-2{fill:#c74c00;}.cls-3{fill:#ffa959;}.cls-4{fill:#ffda95;}.cls-5{fill:#ffac1b;}.cls-6{fill:#421c43;}.cls-7{fill:#f75e9d;}</style></defs><g id="圖層_2" data-name="圖層 2"><g id="OBJECTS"><path class="cls-1" d="M10.15,33.69a10.66,10.66,0,0,1-5.56-1.87,11.76,11.76,0,0,1-2.88-2.88,6.28,6.28,0,0,1-1.27-3.5,3.43,3.43,0,0,1,.4-1.83A2.17,2.17,0,0,1,2.5,22.42a6.43,6.43,0,0,1,3.07.44,17,17,0,0,1,3.18,1.55,26.12,26.12,0,0,1,4.79,3.71,6.58,6.58,0,0,1,1.39,1.79c.13.29.24.59.36.88A1,1,0,0,1,15,31.94a4.69,4.69,0,0,1-.92.73A8.19,8.19,0,0,1,10.15,33.69Z"/><path class="cls-2" d="M5.12,26.69a7.5,7.5,0,0,1,4.41,1.48,13.14,13.14,0,0,1,3.28,3.37,4.31,4.31,0,0,1,.51,1.06c.12.34,0,.46-.31.59a8.52,8.52,0,0,1-5.26.11A10.87,10.87,0,0,1,3.1,30.59a9.12,9.12,0,0,1-1.57-1.87c-.22-.4-.22-.49.12-.82a4.4,4.4,0,0,1,2.76-1.2A5.58,5.58,0,0,1,5.12,26.69Z"/><path class="cls-1" d="M47.24,33.69a9,9,0,0,1-3.63-.81,6.55,6.55,0,0,1-1-.69,1.2,1.2,0,0,1-.46-1.45,5.22,5.22,0,0,1,1.09-1.9,14.33,14.33,0,0,1,2.09-2c.27-.2.52-.44.78-.65a22.7,22.7,0,0,1,3.77-2.44,10.3,10.3,0,0,1,4.24-1.35,2.4,2.4,0,0,1,2.41,1.16,3.78,3.78,0,0,1,.37,2.67,7.62,7.62,0,0,1-2,3.72,11.43,11.43,0,0,1-3,2.42,11,11,0,0,1-3.32,1.18A4.63,4.63,0,0,1,47.24,33.69Z"/><path class="cls-2" d="M52.29,26.67a5,5,0,0,1,2.51.56,4.38,4.38,0,0,1,1,.77c.21.21.23.35.06.63a9.57,9.57,0,0,1-.64.89,11.79,11.79,0,0,1-2.79,2.53,10.76,10.76,0,0,1-4.65,1.6,7,7,0,0,1-3.47-.5c-.34-.13-.38-.26-.25-.61a6.09,6.09,0,0,1,1.08-1.82,13.73,13.73,0,0,1,3.34-3A7.8,7.8,0,0,1,52.29,26.67Z"/><path class="cls-3" d="M21.22,56.38V47.89c0-.88,0-.88-.8-1.22a15.74,15.74,0,0,1-3.53-2.21,12.61,12.61,0,0,1-3-3.6,10.58,10.58,0,0,1-1.18-3.25,10.24,10.24,0,0,1,.85-6.6c.06-.12.12-.24.17-.36a.59.59,0,0,0-.05-.6l-.21-.34L7.75,20.9c-1-1.48-1.87-3-2.85-4.45-1.27-1.91-2.43-3.87-3.52-5.89A11.62,11.62,0,0,1,.14,7.33a5.71,5.71,0,0,1,2-5.78A6.67,6.67,0,0,1,5.12.1,3.46,3.46,0,0,1,5.9,0H7.32a5.28,5.28,0,0,1,4.31,2.08c.82,1,1.58,2.1,2.3,3.21,1.84,2.85,3.58,5.76,5.37,8.65l5,8.12c1.27,2.06,2.52,4.13,3.79,6.19.17.29.37.57.57.85a.16.16,0,0,0,.27,0,1.18,1.18,0,0,0,.19-.25l3-4.82,3.63-5.83Q40,11.33,44.29,4.45a13.1,13.1,0,0,1,2.14-2.72A6.18,6.18,0,0,1,49.36.1,3.46,3.46,0,0,1,50.14,0h1.34a5.71,5.71,0,0,1,3.87,1.54,6,6,0,0,1,1.82,2.63,6.73,6.73,0,0,1,.14,3.12,10.1,10.1,0,0,1-1.42,3.58c-.71,1.23-1.47,2.43-2.24,3.62-2.07,3.2-4.16,6.39-6.24,9.59l-3.24,5a1.37,1.37,0,0,1-.13.2c-.51.76-.45.73-.09,1.42a10.91,10.91,0,0,1,1,2.88,10.55,10.55,0,0,1-.67,6.25,12.57,12.57,0,0,1-4.73,5.57A14.59,14.59,0,0,1,36.39,47c-.35.13-.53.31-.5.69,0,.21,0,.42,0,.63,0,4.9,0,9.79,0,14.69a22.85,22.85,0,0,1-.29,3.69,8,8,0,0,1-.66,2.18,6.76,6.76,0,0,1-4.35,3.72,9.47,9.47,0,0,1-2.42.24A6.58,6.58,0,0,1,22,68.64a11.33,11.33,0,0,1-.67-3.31C21.1,62.15,21.3,59,21.22,56.38Z"/><path class="cls-4" d="M51,0a6.35,6.35,0,0,1,1.81.16,6.19,6.19,0,0,1,4.44,4.5,6.76,6.76,0,0,1-.16,3.51,11.51,11.51,0,0,1-1.25,2.71c-.8,1.36-1.66,2.68-2.5,4-.57.91-1.14,1.82-1.73,2.73-.29.46-.61.92-.93,1.37-.13.18-.27.2-.48.07a3.47,3.47,0,0,1-.5-.38c-.8-.75-1.64-1.47-2.5-2.16a36.24,36.24,0,0,0-6.72-4.38L40.23,12c-.43-.23-.45-.29-.19-.72C40.72,10.2,41.42,9.12,42.1,8S43.35,5.89,44,4.84a16.27,16.27,0,0,1,2.46-3.16A5.52,5.52,0,0,1,50.58,0Z"/><path class="cls-5" d="M45,8.55A7.61,7.61,0,0,1,46.88,9a12.12,12.12,0,0,1,2.49,1.5,15.84,15.84,0,0,1,2.41,2.15,2.93,2.93,0,0,1,.34.43.92.92,0,0,1,0,1.1.94.94,0,0,1-1,.42,1.46,1.46,0,0,1-.95-.5,18.92,18.92,0,0,0-2.11-1.78A12.5,12.5,0,0,0,45,10.51a3.27,3.27,0,0,1-.7-.35.8.8,0,0,1-.44-1,.85.85,0,0,1,.82-.62C44.74,8.54,44.82,8.55,45,8.55Z"/><path class="cls-5" d="M48.48,4a6.08,6.08,0,0,1,1.81.44,12,12,0,0,1,4.08,3,1.15,1.15,0,0,1,.14.19,1,1,0,0,1,0,1.18,1,1,0,0,1-1.23.2,3.49,3.49,0,0,1-.85-.68,11.66,11.66,0,0,0-2.94-2.09c-.33-.15-.67-.29-1-.41a2.83,2.83,0,0,1-.69-.36A.78.78,0,0,1,48,4,3.47,3.47,0,0,1,48.48,4Z"/><path class="cls-4" d="M6.65,0A7.11,7.11,0,0,1,8.81.19a5.33,5.33,0,0,1,2.63,1.64,44.91,44.91,0,0,1,3.65,5.23c.8,1.27,1.58,2.55,2.36,3.83a7.62,7.62,0,0,1,.38.69.22.22,0,0,1-.09.27,1.39,1.39,0,0,1-.21.11,36,36,0,0,0-7.75,5.12c-.78.66-1.54,1.34-2.32,2-.12.1-.23.21-.36.3a.23.23,0,0,1-.35,0A3.37,3.37,0,0,1,6.47,19c-1.42-2.34-3-4.6-4.3-7A28.86,28.86,0,0,1,.54,8.75,6.67,6.67,0,0,1,.17,4.66,5.64,5.64,0,0,1,2,1.74,6.92,6.92,0,0,1,5.13.08,12.2,12.2,0,0,1,6.65,0Z"/><path class="cls-5" d="M12.71,8.53l.37,0a.79.79,0,0,1,.71.55.89.89,0,0,1-.19.88,1.77,1.77,0,0,1-.73.47,15,15,0,0,0-4.45,2.79c-.4.34-.79.69-1.18,1a1.18,1.18,0,0,1-.78.33,1,1,0,0,1-1-1.39,2.06,2.06,0,0,1,.45-.64,18.76,18.76,0,0,1,2.89-2.44A10,10,0,0,1,10.93,9,7.55,7.55,0,0,1,12.71,8.53Z"/><path class="cls-5" d="M9.29,4a2.55,2.55,0,0,1,.34,0,.83.83,0,0,1,.62.65.76.76,0,0,1-.32.76,1.92,1.92,0,0,1-.61.34,10.29,10.29,0,0,0-4,2.53,5.48,5.48,0,0,1-.8.64,1,1,0,0,1-1.43-.31.92.92,0,0,1,.17-1.1A12.42,12.42,0,0,1,5.05,5.78,8.34,8.34,0,0,1,8.62,4l.31,0A1.89,1.89,0,0,1,9.29,4Z"/><path class="cls-2" d="M40,30.16a3.29,3.29,0,0,1,1.91.64,1.21,1.21,0,0,1,.54.92,1.09,1.09,0,0,1-1.37,1.1,3.07,3.07,0,0,1-.64-.29,1.15,1.15,0,0,0-1.2-.05,1.25,1.25,0,0,1-.61.14.79.79,0,0,1-.81-1,1.52,1.52,0,0,1,.76-1.06A2.82,2.82,0,0,1,40,30.16Z"/><path class="cls-2" d="M17.66,30.16a2.67,2.67,0,0,1,1.33.36,1.54,1.54,0,0,1,.8,1,.82.82,0,0,1-1,1.07,2.28,2.28,0,0,1-.52-.18,1,1,0,0,0-.91,0c-.21.1-.42.21-.64.29a1.08,1.08,0,0,1-1.36-.45,1.09,1.09,0,0,1,.26-1.41A3.15,3.15,0,0,1,17.66,30.16Z"/><path class="cls-2" d="M28.55,15.64a17,17,0,0,1,5,.79,13.15,13.15,0,0,1,3,1.4,17.37,17.37,0,0,1,4,3.26,6.3,6.3,0,0,1,1,1.33,3.69,3.69,0,0,1,.38,2.74,2.37,2.37,0,0,1-2.18,1.76,4.85,4.85,0,0,1-2-.21c-.28-.1-.36,0-.36.31s0,.41,0,.62a5.31,5.31,0,0,1-1.15,4,2.13,2.13,0,0,1-2.64.63A3.63,3.63,0,0,1,32,30.89a9.8,9.8,0,0,1-.92-1.83A.18.18,0,0,0,31,29c-.09,0-.14,0-.18.1-.27.54-.56,1.07-.81,1.62a6.71,6.71,0,0,1-2.08,2.54c-1.54,1.17-4.1,1-4.7-1.59a8.19,8.19,0,0,1,.1-3.75l.36-1.46a.34.34,0,0,0-.08-.2s-.1,0-.15,0a1.82,1.82,0,0,0-.27.15,8,8,0,0,1-3.34,1.13,4.6,4.6,0,0,1-2-.12,3.27,3.27,0,0,1-1.82-1.31,2.72,2.72,0,0,1-.34-2.27,4.88,4.88,0,0,1,.71-1.66,13.94,13.94,0,0,1,2-2.25,16.86,16.86,0,0,1,5.7-3.45A11.18,11.18,0,0,1,28.55,15.64Z"/><path class="cls-1" d="M30,20.86c-.06-1,.53-1.66,1.54-1.38a.92.92,0,0,1,.62.66,9.87,9.87,0,0,1,.23,1.08c.06.31.07.62.13.93a1.68,1.68,0,0,1-.21,1.06,1,1,0,0,1-1.63.1,1.48,1.48,0,0,1-.19-.35A10,10,0,0,1,30,20.86Z"/><path class="cls-1" d="M38.42,22.82a1,1,0,0,1-1.37.95,2.26,2.26,0,0,1-.54-.32,5.52,5.52,0,0,1-1.28-1.68,1.26,1.26,0,0,1-.14-.69.88.88,0,0,1,1.19-.77,1.18,1.18,0,0,1,.41.23,6.57,6.57,0,0,1,1.49,1.62A1.33,1.33,0,0,1,38.42,22.82Z"/><path class="cls-1" d="M24.5,22.24a5.36,5.36,0,0,1,.9-2.34.93.93,0,0,1,1.17-.36,1,1,0,0,1,.64,1.07s0,.05,0,.08a6.66,6.66,0,0,1-1.13,2.48.83.83,0,0,1-.91.33.84.84,0,0,1-.64-.8C24.5,22.6,24.5,22.49,24.5,22.24Z"/><path class="cls-1" d="M19.61,24.25A.89.89,0,0,1,18.75,23,1.36,1.36,0,0,1,19,22.6a15.06,15.06,0,0,1,1.36-1.52,3.22,3.22,0,0,1,.66-.42.7.7,0,0,1,.8.14.7.7,0,0,1,.26.84,2.2,2.2,0,0,1-.13.36,9.32,9.32,0,0,1-1.4,1.9A1,1,0,0,1,19.61,24.25Z"/><path class="cls-1" d="M28.29,27.76a2.87,2.87,0,0,1-.08.38c-.16.55-.31,1.11-.5,1.65a1.08,1.08,0,0,1-1.06.78,1,1,0,0,1-1-1.16,7.54,7.54,0,0,1,.72-2,1.29,1.29,0,0,1,.28-.37.93.93,0,0,1,1-.24A1,1,0,0,1,28.29,27.76Z"/><path class="cls-1" d="M35.26,28.7a1.54,1.54,0,0,1-.18.94.94.94,0,0,1-.95.57,1,1,0,0,1-.88-.78,5.75,5.75,0,0,1-.13-1.17,6.09,6.09,0,0,1,.07-.85A1.72,1.72,0,0,1,33.3,27a.82.82,0,0,1,1.37-.22,1.78,1.78,0,0,1,.37.69,3.11,3.11,0,0,1,.1.46C35.19,28.21,35.24,28.55,35.26,28.7Z"/><path class="cls-1" d="M23.38,65.62a5.51,5.51,0,0,1,.06-.71.9.9,0,0,1,.72-.75.83.83,0,0,1,.87.42,1.59,1.59,0,0,1,.24.49c.18.71.35,1.43.5,2.15a1.48,1.48,0,0,1-.3,1.18.68.68,0,0,1-1,.22,1.46,1.46,0,0,1-.88-1.13A10.9,10.9,0,0,1,23.38,65.62Z"/><path class="cls-1" d="M30.51,66.91c.07-.49.13-1,.22-1.48a2.09,2.09,0,0,1,.24-.58.89.89,0,0,1,1.6,0,3,3,0,0,1,.3,1.45,8.1,8.1,0,0,1-.13,1.09A1.26,1.26,0,0,1,32,68.48a.89.89,0,0,1-1.14-.24A1.82,1.82,0,0,1,30.51,66.91Z"/><path class="cls-1" d="M29.78,62.23c0,.24,0,.47,0,.71a1.67,1.67,0,0,1,0,.39,1,1,0,0,1-.94.83,1.15,1.15,0,0,1-.95-.72,2.44,2.44,0,0,1-.14-.53,6,6,0,0,1,.11-2.11,1.68,1.68,0,0,1,.12-.38.83.83,0,0,1,1.43-.15,1.78,1.78,0,0,1,.39,1c0,.31,0,.63,0,.94Z"/><path class="cls-1" d="M15.35,15.86c0-.87.47-1.21,1.14-.94a1,1,0,0,1,.32.21,7,7,0,0,1,1.24,1.62,1.23,1.23,0,0,1,.15.76,1,1,0,0,1-1.49.67A4,4,0,0,1,15.35,15.86Z"/><path class="cls-1" d="M39.5,17.31a1.31,1.31,0,0,1,.22-.74,10,10,0,0,1,1.05-1.37,1,1,0,0,1,.84-.35.72.72,0,0,1,.75.81,1.9,1.9,0,0,1-.1.46,5.58,5.58,0,0,1-.86,1.66,1.2,1.2,0,0,1-.26.29,1,1,0,0,1-1.64-.76Z"/><path class="cls-1" d="M45.85,18.17a.81.81,0,0,1,.77.91.9.9,0,0,1-.06.22,6.72,6.72,0,0,1-1.14,1.79,1,1,0,0,1-.85.31,1,1,0,0,1-.84-1.3,4,4,0,0,1,1.59-1.81A.87.87,0,0,1,45.85,18.17Z"/><path class="cls-1" d="M11.93,18.17a1.06,1.06,0,0,1,.59.19A4.36,4.36,0,0,1,13.88,20a1.87,1.87,0,0,1,.07.22,1,1,0,0,1-.41,1.1,1,1,0,0,1-1.18-.09,4.92,4.92,0,0,1-1.23-1.88A.81.81,0,0,1,11.93,18.17Z"/><path class="cls-6" d="M39.64,34a2.13,2.13,0,0,1,2.12,2.1A2.14,2.14,0,1,1,39.64,34Z"/><path class="cls-6" d="M18.08,38.15A2.1,2.1,0,1,1,18,34a2.1,2.1,0,1,1,0,4.2Z"/><path class="cls-4" d="M29,57.89a16.18,16.18,0,0,1-6.85-1.4,17.5,17.5,0,0,1-3.23-2,12.59,12.59,0,0,1-3.62-4.1,5.33,5.33,0,0,1-.61-4.11A6.06,6.06,0,0,1,16,44a12.62,12.62,0,0,1,3.7-2.91A22.19,22.19,0,0,1,25.48,39a11.53,11.53,0,0,1,2-.28c.39,0,.78-.12,1.17-.11a20.59,20.59,0,0,1,4.28.57,22.87,22.87,0,0,1,5.12,2,12.38,12.38,0,0,1,2.32,1.62,13,13,0,0,1,1.38,1.4,6.08,6.08,0,0,1,1.37,3.22,3.16,3.16,0,0,1-.1,1,7,7,0,0,1-.93,2.41,15.12,15.12,0,0,1-1.73,2.25,14.47,14.47,0,0,1-2.17,1.81,15.66,15.66,0,0,1-6.56,2.77A10.33,10.33,0,0,1,29,57.89Z"/><path class="cls-6" d="M29,54.58a7.37,7.37,0,0,1-4.6-1.43A5.34,5.34,0,0,1,23,51.66a3,3,0,0,1-.35-.87.94.94,0,0,1,.22-.88.6.6,0,0,1,.9-.15,6.56,6.56,0,0,1,.89.77,5.26,5.26,0,0,0,4,1.6A7.5,7.5,0,0,0,30.24,52,5.63,5.63,0,0,0,33,50.55c.23-.22.44-.45.67-.67a.75.75,0,0,1,.86-.2.82.82,0,0,1,.47.76,1.82,1.82,0,0,1-.3,1.13A6.21,6.21,0,0,1,31.83,54,6.45,6.45,0,0,1,29,54.58Z"/><path class="cls-6" d="M31.3,46a2.58,2.58,0,0,1,1.52-2.38,1.23,1.23,0,0,1,1.64.49,1.81,1.81,0,0,1,.23,1.44,3.53,3.53,0,0,1-1,1.73,1.38,1.38,0,0,1-1.46.29,1.3,1.3,0,0,1-.91-1.18C31.29,46.23,31.3,46.09,31.3,46Z"/><path class="cls-6" d="M26.31,46c0,.13,0,.29,0,.45a1.36,1.36,0,0,1-2.16.92,2.75,2.75,0,0,1-1.18-2.73,1.3,1.3,0,0,1,2-1A2.6,2.6,0,0,1,26.31,46Z"/><path class="cls-7" d="M19.18,44.19a5.22,5.22,0,0,1-5.26,5.26A5.28,5.28,0,1,1,14,38.9,5.19,5.19,0,0,1,19.18,44.19Z"/><path class="cls-7" d="M49,44.22a5.27,5.27,0,1,1-5.2-5.32A5.2,5.2,0,0,1,49,44.22Z"/></g></g></svg>